<svg version="1.1" viewBox="0.0 0.0 985.9212598425197 284.36482939632543" fill="none" stroke="none" stroke-linecap="square" stroke-miterlimit="10" xmlns:xlink="http://www.w3.org/1999/xlink" xmlns="http://www.w3.org/2000/svg"><clipPath id="p.0"><path d="m0 0l985.92126 0l0 284.36484l-985.92126 0l0 -284.36484z" clip-rule="nonzero"/></clipPath><g clip-path="url(#p.0)"><path fill="#000000" fill-opacity="0.0" d="m0 0l985.92126 0l0 284.36484l-985.92126 0z" fill-rule="evenodd"/><path fill="#ffffff" d="m37.204723 86.115486l74.74016 0l0 169.6063l-74.74016 0z" fill-rule="evenodd"/><path stroke="#434343" stroke-width="2.0" stroke-linejoin="round" stroke-linecap="butt" d="m37.204723 86.115486l74.74016 0l0 169.6063l-74.74016 0z" fill-rule="evenodd"/><path fill="#ffffff" d="m126.16535 86.115486l74.740166 0l0 169.6063l-74.740166 0z" fill-rule="evenodd"/><path stroke="#434343" stroke-width="2.0" stroke-linejoin="round" stroke-linecap="butt" d="m126.16535 86.115486l74.740166 0l0 169.6063l-74.740166 0z" fill-rule="evenodd"/><path fill="#ffffff" d="m215.12599 86.115486l74.74016 0l0 169.6063l-74.74016 0z" fill-rule="evenodd"/><path stroke="#434343" stroke-width="2.0" stroke-linejoin="round" stroke-linecap="butt" d="m215.12599 86.115486l74.74016 0l0 169.6063l-74.74016 0z" fill-rule="evenodd"/><path fill="#000000" fill-opacity="0.0" d="m37.204723 13.772801l252.66142 0l0 53.700787l-252.66142 0z" fill-rule="evenodd"/><path fill="#000000" d="m81.53544 53.4928l0 -22.906248l7.890625 0q2.671875 0 4.078125 0.328125q1.96875 0.453125 3.359375 1.6406231q1.8125 1.53125 2.703125 3.921875q0.90625 2.375 0.90625 5.4375q0 2.609375 -0.609375 4.625q-0.609375 2.015625 -1.5625 3.34375q-0.953125 1.3125 -2.09375 2.078125q-1.125 0.75 -2.734375 1.140625q-1.59375 0.390625 -3.671875 0.390625l-8.265625 0zm3.03125 -2.703125l4.890625 0q2.265625 0 3.546875 -0.421875q1.296875 -0.421875 2.0625 -1.1875q1.078125 -1.078125 1.671875 -2.890625q0.609375 -1.828125 0.609375 -4.421875q0 -3.59375 -1.1875 -5.515625q-1.171875 -1.9375 -2.859375 -2.59375q-1.21875 -0.46875 -3.921875 -0.46875l-4.8125 0l0 17.5zm30.546875 0.65625q-1.5625 1.328125 -3.015625 1.875q-1.4375 0.546875 -3.09375 0.546875q-2.734375 0 -4.203125 -1.328125q-1.46875 -1.34375 -1.46875 -3.421875q0 -1.21875 0.546875 -2.21875q0.5625 -1.015625 1.453125 -1.625q0.90625 -0.609375 2.03125 -0.921875q0.828125 -0.21875 2.5 -0.421875q3.40625 -0.40625 5.015625 -0.96875q0.015625 -0.578125 0.015625 -0.734375q0 -1.71875 -0.796875 -2.421875q-1.078125 -0.953125 -3.203125 -0.953125q-1.984375 0 -2.9375 0.703125q-0.9375 0.6875 -1.390625 2.453125l-2.75 -0.375q0.375 -1.765625 1.234375 -2.84375q0.859375 -1.09375 2.484375 -1.671875q1.625 -0.59375 3.765625 -0.59375q2.125 0 3.453125 0.5q1.328125 0.5 1.953125 1.265625q0.625 0.75 0.875 1.90625q0.140625 0.71875 0.140625 2.59375l0 3.75q0 3.921875 0.171875 4.96875q0.1875 1.03125 0.71875 1.984375l-2.9375 0q-0.4375 -0.875 -0.5625 -2.046875zm-0.234375 -6.28125q-1.53125 0.625 -4.59375 1.0625q-1.734375 0.25 -2.453125 0.5625q-0.71875 0.3125 -1.109375 0.921875q-0.390625 0.59375 -0.390625 1.328125q0 1.125 0.84375 1.875q0.859375 0.75 2.5 0.75q1.625 0 2.890625 -0.703125q1.265625 -0.71875 1.859375 -1.953125q0.453125 -0.953125 0.453125 -2.8125l0 -1.03125zm13.343742 5.8125l0.40625 2.484375q-1.1874924 0.25 -2.1249924 0.25q-1.53125 0 -2.375 -0.484375q-0.84375 -0.484375 -1.1875 -1.265625q-0.34375 -0.796875 -0.34375 -3.328125l0 -9.546875l-2.0625 0l0 -2.1875l2.0625 0l0 -4.109375l2.796875 -1.6874981l0 5.796873l2.8281174 0l0 2.1875l-2.8281174 0l0 9.703125q0 1.203125 0.140625 1.546875q0.15625 0.34375 0.484375 0.546875q0.34375 0.203125 0.96875 0.203125q0.46875 0 1.2343674 -0.109375zm13.578125 0.46875q-1.5625 1.328125 -3.015625 1.875q-1.4375 0.546875 -3.09375 0.546875q-2.734375 0 -4.203125 -1.328125q-1.46875 -1.34375 -1.46875 -3.421875q0 -1.21875 0.546875 -2.21875q0.5625 -1.015625 1.453125 -1.625q0.90625 -0.609375 2.03125 -0.921875q0.828125 -0.21875 2.5 -0.421875q3.40625 -0.40625 5.015625 -0.96875q0.015625 -0.578125 0.015625 -0.734375q0 -1.71875 -0.796875 -2.421875q-1.078125 -0.953125 -3.203125 -0.953125q-1.984375 0 -2.9375 0.703125q-0.9375 0.6875 -1.390625 2.453125l-2.75 -0.375q0.375 -1.765625 1.234375 -2.84375q0.859375 -1.09375 2.484375 -1.671875q1.625 -0.59375 3.765625 -0.59375q2.125 0 3.453125 0.5q1.328125 0.5 1.953125 1.265625q0.625 0.75 0.875 1.90625q0.140625 0.71875 0.140625 2.59375l0 3.75q0 3.921875 0.171875 4.96875q0.1875 1.03125 0.71875 1.984375l-2.9375 0q-0.4375 -0.875 -0.5625 -2.046875zm-0.234375 -6.28125q-1.53125 0.625 -4.59375 1.0625q-1.734375 0.25 -2.453125 0.5625q-0.71875 0.3125 -1.109375 0.921875q-0.390625 0.59375 -0.390625 1.328125q0 1.125 0.84375 1.875q0.859375 0.75 2.5 0.75q1.625 0 2.890625 -0.703125q1.265625 -0.71875 1.859375 -1.953125q0.453125 -0.953125 0.453125 -2.8125l0 -1.03125zm16.609375 8.328125l0 -22.906248l15.45314 0l0 2.703123l-12.42189 0l0 7.09375l10.750015 0l0 2.703125l-10.750015 0l0 10.40625l-3.03125 0zm19.000015 0l0 -16.59375l2.53125 0l0 2.515625q0.96875 -1.765625 1.78125 -2.328125q0.828125 -0.5625 1.8125 -0.5625q1.421875 0 2.890625 0.90625l-0.96875 2.609375q-1.03125 -0.609375 -2.0625 -0.609375q-0.921875 0 -1.65625 0.5625q-0.734375 0.546875 -1.046875 1.53125q-0.46875 1.5 -0.46875 3.28125l0 8.6875l-2.8125 0zm21.515625 -2.046875q-1.5625 1.328125 -3.015625 1.875q-1.4375 0.546875 -3.09375 0.546875q-2.734375 0 -4.203125 -1.328125q-1.46875 -1.34375 -1.46875 -3.421875q0 -1.21875 0.546875 -2.21875q0.5625 -1.015625 1.453125 -1.625q0.90625 -0.609375 2.03125 -0.921875q0.828125 -0.21875 2.5 -0.421875q3.40625 -0.40625 5.015625 -0.96875q0.015625 -0.578125 0.015625 -0.734375q0 -1.71875 -0.796875 -2.421875q-1.078125 -0.953125 -3.203125 -0.953125q-1.984375 0 -2.9375 0.703125q-0.9375 0.6875 -1.390625 2.453125l-2.75 -0.375q0.375 -1.765625 1.234375 -2.84375q0.859375 -1.09375 2.484375 -1.671875q1.625 -0.59375 3.765625 -0.59375q2.125 0 3.453125 0.5q1.328125 0.5 1.953125 1.265625q0.625 0.75 0.875 1.90625q0.140625 0.71875 0.140625 2.59375l0 3.75q0 3.921875 0.171875 4.96875q0.1875 1.03125 0.71875 1.984375l-2.9375 0q-0.4375 -0.875 -0.5625 -2.046875zm-0.234375 -6.28125q-1.53125 0.625 -4.59375 1.0625q-1.734375 0.25 -2.453125 0.5625q-0.71875 0.3125 -1.109375 0.921875q-0.390625 0.59375 -0.390625 1.328125q0 1.125 0.84375 1.875q0.859375 0.75 2.5 0.75q1.625 0 2.890625 -0.703125q1.265625 -0.71875 1.859375 -1.953125q0.453125 -0.953125 0.453125 -2.8125l0 -1.03125zm7.203125 8.328125l0 -16.59375l2.515625 0l0 2.328125q0.78125 -1.21875 2.078125 -1.953125q1.296875 -0.75 2.953125 -0.75q1.84375 0 3.015625 0.765625q1.1875 0.765625 1.671875 2.140625q1.96875 -2.90625 5.125 -2.90625q2.46875 0 3.796875 1.375q1.328125 1.359375 1.328125 4.203125l0 11.390625l-2.796875 0l0 -10.453125q0 -1.6875 -0.28125 -2.421875q-0.265625 -0.75 -0.984375 -1.203125q-0.71875 -0.453125 -1.6875 -0.453125q-1.75 0 -2.90625 1.171875q-1.15625 1.15625 -1.15625 3.71875l0 9.640625l-2.8125 0l0 -10.78125q0 -1.875 -0.6875 -2.8125q-0.6875 -0.9375 -2.25 -0.9375q-1.1875 0 -2.203125 0.625q-1.0 0.625 -1.453125 1.828125q-0.453125 1.203125 -0.453125 3.46875l0 8.609375l-2.8125 0zm38.015625 -5.34375l2.90625 0.359375q-0.6875 2.546875 -2.546875 3.953125q-1.859375 1.40625 -4.75 1.40625q-3.640625 0 -5.78125 -2.234375q-2.125 -2.25 -2.125 -6.296875q0 -4.1875 2.15625 -6.5q2.15625 -2.3125 5.59375 -2.3125q3.328125 0 5.4375 2.265625q2.109375 2.265625 2.109375 6.375q0 0.25 -0.015625 0.75l-12.375 0q0.15625 2.734375 1.546875 4.1875q1.390625 1.453125 3.46875 1.453125q1.546875 0 2.640625 -0.8125q1.09375 -0.8125 1.734375 -2.59375zm-9.234375 -4.546875l9.265625 0q-0.1875 -2.09375 -1.0625 -3.140625q-1.34375 -1.625 -3.484375 -1.625q-1.9375 0 -3.265625 1.296875q-1.3125 1.296875 -1.453125 3.46875z" fill-rule="nonzero"/><path fill="#000000" fill-opacity="0.0" d="m37.220474 144.2206l74.74016 0" fill-rule="evenodd"/><path stroke="#999999" stroke-width="2.0" stroke-linejoin="round" stroke-linecap="butt" stroke-dasharray="8.0,6.0" d="m37.220474 144.2206l74.74016 0" fill-rule="evenodd"/><path fill="#000000" fill-opacity="0.0" d="m37.220474 197.82858l74.74016 0" fill-rule="evenodd"/><path stroke="#999999" stroke-width="2.0" stroke-linejoin="round" stroke-linecap="butt" stroke-dasharray="8.0,6.0" d="m37.220474 197.82858l74.74016 0" fill-rule="evenodd"/><path fill="#000000" fill-opacity="0.0" d="m125.220474 144.2206l74.74016 0" fill-rule="evenodd"/><path stroke="#999999" stroke-width="2.0" stroke-linejoin="round" stroke-linecap="butt" stroke-dasharray="8.0,6.0" d="m125.220474 144.2206l74.74016 0" fill-rule="evenodd"/><path fill="#000000" fill-opacity="0.0" d="m125.220474 197.82858l74.74016 0" fill-rule="evenodd"/><path stroke="#999999" stroke-width="2.0" stroke-linejoin="round" stroke-linecap="butt" stroke-dasharray="8.0,6.0" d="m125.220474 197.82858l74.74016 0" fill-rule="evenodd"/><path fill="#000000" fill-opacity="0.0" d="m213.22047 144.2206l74.74016 0" fill-rule="evenodd"/><path stroke="#999999" stroke-width="2.0" stroke-linejoin="round" stroke-linecap="butt" stroke-dasharray="8.0,6.0" d="m213.22047 144.2206l74.74016 0" fill-rule="evenodd"/><path fill="#000000" fill-opacity="0.0" d="m213.22047 197.82858l74.74016 0" fill-rule="evenodd"/><path stroke="#999999" stroke-width="2.0" stroke-linejoin="round" stroke-linecap="butt" stroke-dasharray="8.0,6.0" d="m213.22047 197.82858l74.74016 0" fill-rule="evenodd"/><path fill="#000000" fill-opacity="0.0" d="m321.66928 78.020996l637.54333 0l0 177.70079l-637.54333 0z" fill-rule="evenodd"/><path fill="#434343" d="m345.81436 100.602875q1.578125 0 3.09375 0.8125q1.515625 0.8125 2.359375 2.34375q0.859375 1.515625 0.859375 3.140625q0 2.625 -1.859375 4.46875q-1.84375 1.84375 -4.453125 1.84375q-2.609375 0 -4.46875 -1.84375q-1.84375 -1.84375 -1.84375 -4.46875q0 -1.640625 0.84375 -3.15625q0.84375 -1.515625 2.359375 -2.328125q1.53125 -0.8125 3.109375 -0.8125z" fill-rule="nonzero"/><path fill="#434343" d="m378.07553 115.181l11.90625 -21.0l3.3125 0l3.46875 21.0l-2.734375 0l-1.015625 -6.046875l-8.484375 0l-3.375 6.046875l-3.078125 0zm7.65625 -8.203125l6.9375 0l-0.8125 -5.265625q-0.46875 -3.140625 -0.578125 -5.234375q-0.71875 1.8125 -2.09375 4.28125l-3.453125 6.21875z" fill-rule="nonzero"/><path fill="#434343" d="m424.77505 96.602875l-3.3125 15.640625l0.5 0q0.96875 0 1.3125 0.3125q0.359375 0.3125 0.359375 0.84375q0 0.890625 -0.828125 1.46875q-0.453125 0.3125 -1.484375 0.3125l-3.421875 0l0.15625 -0.71875q-2.265625 1.1875 -4.625 1.1875q-2.890625 0 -4.5 -1.46875q-1.59375 -1.484375 -1.59375 -3.671875q0 -2.046875 1.15625 -4.09375q1.171875 -2.0625 3.546875 -3.453125q2.015625 -1.171875 4.28125 -1.171875q2.265625 0 4.125 1.40625l0.765625 -3.65625l-0.5 0q-0.96875 0 -1.328125 -0.296875q-0.34375 -0.296875 -0.34375 -0.859375q0 -0.875 0.828125 -1.46875q0.453125 -0.3125 1.46875 -0.3125l3.4375 0zm-10.765625 16.109375q2.40625 0 3.84375 -1.328125q1.4375 -1.328125 1.4375 -3.3125q0 -1.421875 -0.984375 -2.375q-0.984375 -0.96875 -2.578125 -0.96875q-2.125 0 -3.75 1.59375q-1.625 1.578125 -1.625 3.546875q0 1.25 0.90625 2.046875q0.921875 0.796875 2.75 0.796875zm20.302856 2.46875l0.15625 -0.6875q-2.453125 1.15625 -5.1875 1.15625q-2.03125 0 -3.234375 -1.03125q-1.203125 -1.03125 -1.203125 -2.34375q0 -1.078125 0.828125 -2.265625q1.109375 -1.609375 3.0625 -2.484375q1.953125 -0.890625 4.34375 -0.890625q1.3125 0 3.0 0.28125l0.140625 -0.703125q0.03125 -0.140625 0.03125 -0.28125q0 -0.53125 -0.40625 -0.8125q-0.546875 -0.390625 -2.03125 -0.390625q-1.34375 0 -3.46875 0.515625q-0.8125 0.1875 -1.265625 0.1875q-0.46875 0 -0.796875 -0.3125q-0.3125 -0.3125 -0.3125 -0.828125q0 -0.71875 0.453125 -1.1875q0.46875 -0.46875 2.515625 -0.890625q2.0625 -0.421875 3.53125 -0.421875q2.40625 0 3.59375 1.0q1.203125 0.984375 1.203125 2.421875q0 0.453125 -0.09375 0.984375l-1.28125 6.046875l0.5 0q0.984375 0 1.328125 0.3125q0.34375 0.296875 0.34375 0.84375q0 0.890625 -0.84375 1.484375q-0.453125 0.296875 -1.453125 0.296875l-3.453125 0zm1.125 -5.25q-1.671875 -0.34375 -3.1875 -0.34375q-1.9375 0 -3.515625 1.046875q-0.90625 0.578125 -0.90625 1.109375q0 0.4375 0.625 0.71875q0.625 0.265625 1.59375 0.265625q1.015625 0 2.453125 -0.40625q1.453125 -0.40625 2.65625 -1.140625l0.28125 -1.25zm14.927887 -4.8125l-1.25 5.875q-0.09375 0.453125 -0.09375 0.734375q0 0.390625 0.34375 0.625q0.578125 0.359375 1.890625 0.359375q2.265625 0 4.390625 -0.953125q0.8125 -0.375 1.21875 -0.375q0.5 0 0.8125 0.328125q0.3125 0.3125 0.3125 0.828125q0 0.671875 -0.53125 1.1875q-0.765625 0.703125 -3.015625 1.3125q-2.25 0.609375 -3.90625 0.609375q-1.359375 0 -2.59375 -0.453125q-0.890625 -0.328125 -1.4375 -1.046875q-0.546875 -0.71875 -0.546875 -1.640625q0 -0.484375 0.109375 -0.9375l1.375 -6.453125l-1.078125 0q-0.984375 0 -1.328125 -0.3125q-0.34375 -0.3125 -0.34375 -0.859375q0 -0.859375 0.828125 -1.453125q0.4375 -0.3125 1.46875 -0.3125l1.0625 0l0.578125 -2.65625q0.203125 -1.0625 0.703125 -1.5q0.515625 -0.453125 1.1875 -0.453125q0.5 0 0.828125 0.328125q0.34375 0.3125 0.34375 0.734375q0 0.3125 -0.140625 0.890625l-0.5625 2.65625l5.421875 0q0.984375 0 1.328125 0.3125q0.359375 0.296875 0.359375 0.859375q0 0.84375 -0.8125 1.4375q-0.453125 0.328125 -1.484375 0.328125l-5.4375 0zm19.146606 10.0625l0.15625 -0.6875q-2.453125 1.15625 -5.1875 1.15625q-2.03125 0 -3.234375 -1.03125q-1.203125 -1.03125 -1.203125 -2.34375q0 -1.078125 0.828125 -2.265625q1.109375 -1.609375 3.0625 -2.484375q1.953125 -0.890625 4.34375 -0.890625q1.3125 0 3.0 0.28125l0.140625 -0.703125q0.03125 -0.140625 0.03125 -0.28125q0 -0.53125 -0.40625 -0.8125q-0.546875 -0.390625 -2.03125 -0.390625q-1.34375 0 -3.46875 0.515625q-0.8125 0.1875 -1.265625 0.1875q-0.46875 0 -0.796875 -0.3125q-0.3125 -0.3125 -0.3125 -0.828125q0 -0.71875 0.453125 -1.1875q0.46875 -0.46875 2.515625 -0.890625q2.0625 -0.421875 3.53125 -0.421875q2.40625 0 3.59375 1.0q1.203125 0.984375 1.203125 2.421875q0 0.453125 -0.09375 0.984375l-1.28125 6.046875l0.5 0q0.984375 0 1.328125 0.3125q0.34375 0.296875 0.34375 0.84375q0 0.890625 -0.84375 1.484375q-0.453125 0.296875 -1.453125 0.296875l-3.453125 0zm1.125 -5.25q-1.671875 -0.34375 -3.1875 -0.34375q-1.9375 0 -3.515625 1.046875q-0.90625 0.578125 -0.90625 1.109375q0 0.4375 0.625 0.71875q0.625 0.265625 1.59375 0.265625q1.015625 0 2.453125 -0.40625q1.453125 -0.40625 2.65625 -1.140625l0.28125 -1.25zm13.787262 5.71875q-0.9375 0 -1.390625 -0.421875q-0.4375 -0.421875 -0.4375 -1.125q0 -0.921875 0.75 -1.625q0.75 -0.71875 1.890625 -0.71875q0.9375 0 1.390625 0.421875q0.46875 0.421875 0.46875 1.109375q0 0.9375 -0.765625 1.65625q-0.75 0.703125 -1.90625 0.703125zm19.771606 -10.53125l-1.5 7.125l4.171875 0q0.984375 0 1.328125 0.3125q0.34375 0.296875 0.34375 0.84375q0 0.890625 -0.84375 1.484375q-0.4375 0.296875 -1.453125 0.296875l-8.875 0q-0.96875 0 -1.328125 -0.296875q-0.34375 -0.3125 -0.34375 -0.859375q0 -0.890625 0.828125 -1.46875q0.453125 -0.3125 1.484375 -0.3125l1.75 0l1.5 -7.125l-1.390625 0q-0.984375 0 -1.34375 -0.3125q-0.34375 -0.3125 -0.34375 -0.859375q0 -0.859375 0.8125 -1.4375q0.453125 -0.328125 1.484375 -0.328125l1.421875 0l0.234375 -1.125q0.40625 -1.9375 2.109375 -3.1875q1.71875 -1.265625 4.4375 -1.265625q1.0625 0 2.609375 0.203125q1.5469055 0.203125 1.9375305 0.53125q0.40625 0.328125 0.40625 0.84375q0 0.71875 -0.53125 1.28125q-0.53125 0.546875 -1.2031555 0.546875q-0.265625 0 -0.8125 -0.109375q-1.75 -0.359375 -3.140625 -0.359375q-1.453125 0 -2.09375 0.4375q-0.640625 0.4375 -0.78125 1.078125l-0.234375 1.125l4.515625 0q0.984375 0 1.328125 0.3125q0.359375 0.296875 0.359375 0.84375q0 0.875 -0.84375 1.46875q-0.4375 0.3125 -1.46875 0.3125l-4.53125 0zm17.662262 -2.9375l-0.390625 1.828125q2.15625 -1.34375 3.296875 -1.78125q1.15625 -0.4375 2.09375 -0.4375q1.265625 0 2.21875 0.78125q0.953125 0.78125 0.953125 1.421875q0 0.703125 -0.5625 1.265625q-0.5625 0.5625 -1.265625 0.5625q-0.546875 0 -1.03125 -0.546875q-0.484375 -0.546875 -0.953125 -0.546875q-0.53125 0 -1.71875 0.609375q-1.1875 0.59375 -3.84375 2.484375l-0.9375 4.421875l4.171875 0q0.984375 0 1.328125 0.3125q0.34375 0.296875 0.34375 0.84375q0 0.890625 -0.84375 1.484375q-0.4375 0.296875 -1.4375 0.296875l-8.875 0q-0.984375 0 -1.34375 -0.296875q-0.34375 -0.3125 -0.34375 -0.859375q0 -0.890625 0.828125 -1.46875q0.46875 -0.3125 1.484375 -0.3125l1.765625 0l1.5 -7.125l-1.0625 0q-0.96875 0 -1.328125 -0.3125q-0.359375 -0.3125 -0.359375 -0.859375q0 -0.859375 0.8125 -1.4375q0.453125 -0.328125 1.5 -0.328125l4.0 0zm18.052856 13.0l0.15625 -0.6875q-2.453125 1.15625 -5.1875 1.15625q-2.03125 0 -3.234375 -1.03125q-1.203125 -1.03125 -1.203125 -2.34375q0 -1.078125 0.828125 -2.265625q1.109375 -1.609375 3.0625 -2.484375q1.953125 -0.890625 4.34375 -0.890625q1.3125 0 3.0 0.28125l0.140625 -0.703125q0.03125 -0.140625 0.03125 -0.28125q0 -0.53125 -0.40625 -0.8125q-0.546875 -0.390625 -2.03125 -0.390625q-1.34375 0 -3.46875 0.515625q-0.8125 0.1875 -1.265625 0.1875q-0.46875 0 -0.796875 -0.3125q-0.3125 -0.3125 -0.3125 -0.828125q0 -0.71875 0.453125 -1.1875q0.46875 -0.46875 2.515625 -0.890625q2.0625 -0.421875 3.53125 -0.421875q2.40625 0 3.59375 1.0q1.203125 0.984375 1.203125 2.421875q0 0.453125 -0.09375 0.984375l-1.28125 6.046875l0.5 0q0.984375 0 1.328125 0.3125q0.34375 0.296875 0.34375 0.84375q0 0.890625 -0.84375 1.484375q-0.453125 0.296875 -1.453125 0.296875l-3.453125 0zm1.125 -5.25q-1.671875 -0.34375 -3.1875 -0.34375q-1.9375 0 -3.515625 1.046875q-0.90625 0.578125 -0.90625 1.109375q0 0.4375 0.625 0.71875q0.625 0.265625 1.59375 0.265625q1.015625 0 2.453125 -0.40625q1.453125 -0.40625 2.65625 -1.140625l0.28125 -1.25zm11.849731 -7.75l-0.09375 0.875q0.921875 -0.71875 1.578125 -0.984375q0.65625 -0.28125 1.34375 -0.28125q1.40625 0 2.359375 1.25q0.890625 -0.640625 1.734375 -0.9375q0.859375 -0.3125 1.6875 -0.3125q1.5 0 2.359375 0.828125q0.875 0.828125 0.875 2.1875q0 0.40625 -0.09375 0.859375l-1.390625 6.578125q0.84375 0 1.1875 0.3125q0.34375 0.3125 0.34375 0.84375q0 0.890625 -0.84375 1.484375q-0.4375 0.296875 -1.46875 0.296875l-2.78125 0l1.96875 -9.265625q0.0625 -0.3125 0.0625 -0.5625q0 -0.28125 -0.203125 -0.453125q-0.1875 -0.171875 -0.59375 -0.171875q-0.484375 0 -0.921875 0.25q-0.625 0.34375 -1.609375 1.359375l-1.25 5.90625q0.84375 0 1.1875 0.3125q0.34375 0.3125 0.34375 0.84375q0 0.890625 -0.84375 1.484375q-0.453125 0.296875 -1.46875 0.296875l-2.796875 0l1.984375 -9.265625q0.0625 -0.296875 0.0625 -0.546875q0 -0.28125 -0.203125 -0.453125q-0.203125 -0.1875 -0.59375 -0.1875q-0.53125 0 -1.015625 0.265625q-0.640625 0.359375 -1.5625 1.34375l-1.25 5.90625q0.84375 0 1.1875 0.3125q0.34375 0.3125 0.34375 0.84375q0 0.890625 -0.84375 1.484375q-0.453125 0.296875 -1.46875 0.296875l-2.65625 0q-0.96875 0 -1.328125 -0.296875q-0.34375 -0.3125 -0.34375 -0.859375q0 -0.71875 0.578125 -1.25q0.578125 -0.546875 1.59375 -0.53125l1.515625 -7.125q-0.859375 0 -1.203125 -0.3125q-0.34375 -0.328125 -0.34375 -0.859375q0 -0.859375 0.8125 -1.4375q0.453125 -0.328125 1.484375 -0.328125l2.578125 0zm28.037292 7.984375l-12.03125 0q0.203125 1.140625 1.203125 1.84375q1.0 0.703125 3.0 0.703125q1.65625 0 4.515625 -0.703125q1.1875 -0.28125 1.625 -0.28125q0.484375 0 0.796875 0.3125q0.3125 0.3125 0.3125 0.8125q0 0.71875 -0.65625 1.296875q-0.65625 0.5625 -3.078125 1.03125q-2.40625 0.46875 -4.359375 0.46875q-3.0625 0 -4.734375 -1.53125q-1.671875 -1.546875 -1.671875 -3.9375q0 -1.984375 1.203125 -3.984375q1.21875 -2.015625 3.453125 -3.203125q2.25 -1.203125 4.609375 -1.203125q2.78125 0 4.5 1.53125q1.734375 1.53125 1.734375 4.28125q0 0.59375 -0.140625 1.3125l-0.28125 1.25zm-2.625 -2.9375q-0.390625 -1.203125 -1.359375 -1.84375q-0.953125 -0.65625 -2.453125 -0.65625q-1.5 0 -2.71875 0.625q-1.21875 0.625 -2.15625 1.875l8.6875 0z" fill-rule="nonzero"/><path fill="#434343" d="m594.0927 97.1185l0.609375 -2.9375l2.578125 0l-0.609375 2.9375l-2.578125 0zm-3.78125 18.0625l3.171875 -15.203125l2.59375 0l-3.171875 15.203125l-2.59375 0zm6.859497 -5.203125l2.59375 -0.15625q0 1.125 0.34375 1.921875q0.34375 0.78125 1.265625 1.28125q0.921875 0.5 2.15625 0.5q1.71875 0 2.578125 -0.6875q0.859375 -0.6875 0.859375 -1.625q0 -0.671875 -0.515625 -1.265625q-0.53125 -0.609375 -2.59375 -1.484375q-2.046875 -0.890625 -2.625 -1.25q-0.953125 -0.578125 -1.453125 -1.375q-0.484375 -0.796875 -0.484375 -1.828125q0 -1.796875 1.4375 -3.078125q1.4375 -1.296875 4.015625 -1.296875q2.859375 0 4.359375 1.328125q1.5 1.3125 1.546875 3.484375l-2.53125 0.171875q-0.0625 -1.375 -0.984375 -2.171875q-0.90625 -0.8125 -2.578125 -0.8125q-1.34375 0 -2.09375 0.625q-0.75 0.609375 -0.75 1.328125q0 0.703125 0.65625 1.25q0.421875 0.375 2.21875 1.15625q2.96875 1.28125 3.75 2.03125q1.234375 1.1875 1.234375 2.890625q0 1.125 -0.703125 2.21875q-0.6875 1.09375 -2.125 1.75q-1.421875 0.640625 -3.34375 0.640625q-2.640625 0 -4.484375 -1.296875q-1.859375 -1.3125 -1.75 -4.25zm22.812378 0l2.59375 -0.15625q0 1.125 0.34375 1.921875q0.34375 0.78125 1.265625 1.28125q0.921875 0.5 2.15625 0.5q1.71875 0 2.578125 -0.6875q0.859375 -0.6875 0.859375 -1.625q0 -0.671875 -0.515625 -1.265625q-0.53125 -0.609375 -2.59375 -1.484375q-2.046875 -0.890625 -2.625 -1.25q-0.953125 -0.578125 -1.453125 -1.375q-0.484375 -0.796875 -0.484375 -1.828125q0 -1.796875 1.4375 -3.078125q1.4375 -1.296875 4.015625 -1.296875q2.859375 0 4.359375 1.328125q1.5 1.3125 1.546875 3.484375l-2.53125 0.171875q-0.0625 -1.375 -0.984375 -2.171875q-0.90625 -0.8125 -2.578125 -0.8125q-1.34375 0 -2.09375 0.625q-0.75 0.609375 -0.75 1.328125q0 0.703125 0.65625 1.25q0.421875 0.375 2.21875 1.15625q2.96875 1.28125 3.75 2.03125q1.234375 1.1875 1.234375 2.890625q0 1.125 -0.703125 2.21875q-0.6875 1.09375 -2.125 1.75q-1.421875 0.640625 -3.34375 0.640625q-2.640625 0 -4.484375 -1.296875q-1.859375 -1.3125 -1.75 -4.25zm20.476562 3.09375l-0.421875 2.125q-0.9375 0.234375 -1.8125 0.234375q-1.546875 0 -2.46875 -0.75q-0.6875 -0.578125 -0.6875 -1.5625q0 -0.5 0.375 -2.3125l1.84375 -8.828125l-2.046875 0l0.421875 -2.0l2.046875 0l0.78125 -3.75l2.96875 -1.78125l-1.15625 5.53125l2.546875 0l-0.421875 2.0l-2.546875 0l-1.75 8.40625q-0.328125 1.609375 -0.328125 1.921875q0 0.453125 0.25 0.703125q0.265625 0.234375 0.875 0.234375q0.859375 0 1.53125 -0.171875zm2.5545654 -3.65625q0 -4.453125 2.609375 -7.375q2.171875 -2.40625 5.671875 -2.40625q2.75 0 4.4375 1.71875q1.6875 1.71875 1.6875 4.640625q0 2.609375 -1.0625 4.875q-1.0625 2.25 -3.015625 3.453125q-1.953125 1.203125 -4.125 1.203125q-1.765625 0 -3.21875 -0.75q-1.453125 -0.765625 -2.21875 -2.15625q-0.765625 -1.390625 -0.765625 -3.203125zm2.59375 -0.265625q0 2.15625 1.03125 3.265625q1.03125 1.109375 2.609375 1.109375q0.828125 0 1.640625 -0.328125q0.828125 -0.34375 1.53125 -1.03125q0.703125 -0.6875 1.1875 -1.5625q0.5 -0.890625 0.796875 -1.90625q0.453125 -1.421875 0.453125 -2.71875q0 -2.0625 -1.046875 -3.203125q-1.03125 -1.140625 -2.609375 -1.140625q-1.21875 0 -2.21875 0.578125q-1.0 0.578125 -1.8125 1.703125q-0.8125 1.109375 -1.1875 2.59375q-0.375 1.484375 -0.375 2.640625zm13.248413 6.03125l3.1875 -15.203125l2.28125 0l-0.640625 3.109375q1.171875 -1.765625 2.296875 -2.609375q1.125 -0.84375 2.296875 -0.84375q0.78125 0 1.90625 0.546875l-1.0625 2.40625q-0.671875 -0.484375 -1.46875 -0.484375q-1.359375 0 -2.796875 1.53125q-1.421875 1.515625 -2.25 5.453125l-1.28125 6.09375l-2.46875 0zm20.938354 -5.171875l2.53125 0.265625q-0.546875 1.875 -2.515625 3.5625q-1.953125 1.6875 -4.65625 1.6875q-1.6875 0 -3.09375 -0.78125q-1.40625 -0.78125 -2.15625 -2.265625q-0.734375 -1.5 -0.734375 -3.390625q0 -2.5 1.15625 -4.84375q1.15625 -2.34375 2.984375 -3.46875q1.828125 -1.140625 3.96875 -1.140625q2.71875 0 4.34375 1.6875q1.625 1.6875 1.625 4.609375q0 1.109375 -0.203125 2.296875l-11.1875 0q-0.0625 0.4375 -0.0625 0.796875q0 2.125 0.96875 3.25q0.984375 1.125 2.40625 1.125q1.328125 0 2.609375 -0.859375q1.296875 -0.875 2.015625 -2.53125zm-7.53125 -3.765625l8.53125 0q0.015625 -0.40625 0.015625 -0.578125q0 -1.9375 -0.96875 -2.96875q-0.96875 -1.046875 -2.5 -1.046875q-1.671875 0 -3.046875 1.15625q-1.359375 1.140625 -2.03125 3.4375zm22.935913 6.734375q-2.234375 2.546875 -4.640625 2.546875q-2.171875 0 -3.609375 -1.59375q-1.4375 -1.59375 -1.4375 -4.640625q0 -2.765625 1.140625 -5.0625q1.140625 -2.3125 2.84375 -3.453125q1.71875 -1.140625 3.4375 -1.140625q2.828125 0 4.28125 2.734375l1.71875 -8.1875l2.578125 0l-4.390625 21.0l-2.390625 0l0.46875 -2.203125zm-7.109375 -4.171875q0 1.59375 0.3125 2.515625q0.3125 0.90625 1.0625 1.515625q0.765625 0.609375 1.828125 0.609375q1.765625 0 3.203125 -1.828125q1.90625 -2.4375 1.90625 -6.015625q0 -1.8125 -0.953125 -2.828125q-0.9375 -1.015625 -2.359375 -1.015625q-0.9375 0 -1.703125 0.421875q-0.765625 0.40625 -1.515625 1.40625q-0.75 1.0 -1.265625 2.53125q-0.515625 1.53125 -0.515625 2.6875zm31.568604 4.484375q-1.359375 1.15625 -2.609375 1.703125q-1.234375 0.53125 -2.65625 0.53125q-2.109375 0 -3.40625 -1.234375q-1.28125 -1.25 -1.28125 -3.171875q0 -1.28125 0.578125 -2.25q0.59375 -0.984375 1.546875 -1.578125q0.96875 -0.59375 2.34375 -0.859375q0.875 -0.171875 3.3125 -0.265625q2.453125 -0.109375 3.515625 -0.515625q0.296875 -1.0625 0.296875 -1.765625q0 -0.90625 -0.65625 -1.421875q-0.90625 -0.71875 -2.640625 -0.71875q-1.625 0 -2.671875 0.734375q-1.03125 0.71875 -1.5 2.046875l-2.625 -0.234375q0.796875 -2.25 2.53125 -3.453125q1.75 -1.203125 4.390625 -1.203125q2.828125 0 4.46875 1.34375q1.265625 1.0 1.265625 2.609375q0 1.21875 -0.359375 2.8125l-0.84375 3.78125q-0.40625 1.8125 -0.40625 2.9375q0 0.71875 0.328125 2.0625l-2.625 0q-0.21875 -0.75 -0.296875 -1.890625zm0.953125 -5.8125q-0.546875 0.21875 -1.171875 0.328125q-0.625 0.109375 -2.078125 0.25q-2.265625 0.1875 -3.203125 0.5q-0.921875 0.3125 -1.40625 0.984375q-0.46875 0.671875 -0.46875 1.484375q0 1.09375 0.75 1.796875q0.765625 0.703125 2.15625 0.703125q1.28125 0 2.46875 -0.671875q1.1875 -0.6875 1.875 -1.90625q0.6875 -1.21875 1.078125 -3.46875zm5.342163 2.5l2.59375 -0.15625q0 1.125 0.34375 1.921875q0.34375 0.78125 1.265625 1.28125q0.921875 0.5 2.15625 0.5q1.71875 0 2.578125 -0.6875q0.859375 -0.6875 0.859375 -1.625q0 -0.671875 -0.515625 -1.265625q-0.53125 -0.609375 -2.59375 -1.484375q-2.046875 -0.890625 -2.625 -1.25q-0.953125 -0.578125 -1.453125 -1.375q-0.484375 -0.796875 -0.484375 -1.828125q0 -1.796875 1.4375 -3.078125q1.4375 -1.296875 4.015625 -1.296875q2.859375 0 4.359375 1.328125q1.5 1.3125 1.546875 3.484375l-2.53125 0.171875q-0.0625 -1.375 -0.984375 -2.171875q-0.90625 -0.8125 -2.578125 -0.8125q-1.34375 0 -2.09375 0.625q-0.75 0.609375 -0.75 1.328125q0 0.703125 0.65625 1.25q0.421875 0.375 2.21875 1.15625q2.96875 1.28125 3.75 2.03125q1.234375 1.1875 1.234375 2.890625q0 1.125 -0.703125 2.21875q-0.6875 1.09375 -2.125 1.75q-1.421875 0.640625 -3.34375 0.640625q-2.640625 0 -4.484375 -1.296875q-1.859375 -1.3125 -1.75 -4.25zm32.82794 3.3125q-1.359375 1.15625 -2.609375 1.703125q-1.234375 0.53125 -2.65625 0.53125q-2.109375 0 -3.40625 -1.234375q-1.28125 -1.25 -1.28125 -3.171875q0 -1.28125 0.578125 -2.25q0.59375 -0.984375 1.546875 -1.578125q0.96875 -0.59375 2.34375 -0.859375q0.875 -0.171875 3.3125 -0.265625q2.453125 -0.109375 3.515625 -0.515625q0.296875 -1.0625 0.296875 -1.765625q0 -0.90625 -0.65625 -1.421875q-0.90625 -0.71875 -2.640625 -0.71875q-1.625 0 -2.671875 0.734375q-1.03125 0.71875 -1.5 2.046875l-2.625 -0.234375q0.796875 -2.25 2.53125 -3.453125q1.75 -1.203125 4.390625 -1.203125q2.828125 0 4.46875 1.34375q1.265625 1.0 1.265625 2.609375q0 1.21875 -0.359375 2.8125l-0.84375 3.78125q-0.40625 1.8125 -0.40625 2.9375q0 0.71875 0.328125 2.0625l-2.625 0q-0.21875 -0.75 -0.296875 -1.890625zm0.953125 -5.8125q-0.546875 0.21875 -1.171875 0.328125q-0.625 0.109375 -2.078125 0.25q-2.265625 0.1875 -3.203125 0.5q-0.921875 0.3125 -1.40625 0.984375q-0.46875 0.671875 -0.46875 1.484375q0 1.09375 0.75 1.796875q0.765625 0.703125 2.15625 0.703125q1.28125 0 2.46875 -0.671875q1.1875 -0.6875 1.875 -1.90625q0.6875 -1.21875 1.078125 -3.46875z" fill-rule="nonzero"/><path fill="#434343" d="m786.2257 96.602875l-3.328125 15.640625l3.546875 0q0.96875 0 1.3125 0.3125q0.359375 0.296875 0.359375 0.84375q0 0.890625 -0.859375 1.484375q-0.421875 0.296875 -1.4375 0.296875l-10.0 0q-0.984375 0 -1.328125 -0.296875q-0.34375 -0.3125 -0.34375 -0.859375q0 -0.890625 0.828125 -1.46875q0.453125 -0.3125 1.46875 -0.3125l3.53125 0l2.703125 -12.703125l-2.359375 0q-0.984375 0 -1.34375 -0.296875q-0.34375 -0.3125 -0.34375 -0.859375q0 -0.875 0.828125 -1.46875q0.453125 -0.3125 1.46875 -0.3125l5.296875 0zm17.193542 0l-0.671875 3.109375l-3.484375 0l0.65625 -3.109375l3.5 0zm-0.78125 5.578125l-2.140625 10.0625l3.53125 0q0.96875 0 1.3125 0.3125q0.359375 0.296875 0.359375 0.84375q0 0.890625 -0.859375 1.484375q-0.421875 0.296875 -1.4375 0.296875l-10.0 0q-0.96875 0 -1.328125 -0.296875q-0.34375 -0.3125 -0.34375 -0.859375q0 -0.890625 0.828125 -1.46875q0.453125 -0.3125 1.46875 -0.3125l3.53125 0l1.515625 -7.125l-2.359375 0q-0.984375 0 -1.34375 -0.3125q-0.34375 -0.3125 -0.34375 -0.859375q0 -0.859375 0.828125 -1.4375q0.4375 -0.328125 1.484375 -0.328125l5.296875 0zm18.552856 3.4375q-0.609375 -0.453125 -1.34375 -0.671875q-0.734375 -0.21875 -1.609375 -0.21875q-1.40625 0 -2.40625 0.390625q-0.984375 0.375 -0.984375 0.75q0 0.265625 0.328125 0.484375q0.453125 0.328125 2.09375 0.546875q2.546875 0.359375 3.734375 0.75q1.1875 0.390625 1.875 1.25q0.703125 0.859375 0.703125 1.90625q0 2.09375 -2.265625 3.46875q-2.25 1.375 -5.25 1.375q-1.265625 0 -2.3125 -0.21875q-1.046875 -0.21875 -1.84375 -0.65625q-0.53125 0.390625 -1.015625 0.390625q-0.5625 0 -0.90625 -0.3125q-0.328125 -0.328125 -0.328125 -0.78125q0 -0.28125 0.125 -0.859375l0.21875 -1.0q0.203125 -1.0625 0.71875 -1.5q0.515625 -0.453125 1.171875 -0.453125q0.53125 0 0.8125 0.296875q0.28125 0.28125 0.34375 1.0q0.546875 0.578125 1.421875 0.875q0.890625 0.28125 2.125 0.28125q2.171875 0 3.40625 -0.703125q0.5625 -0.3125 0.5625 -0.703125q0 -0.5625 -0.6875 -0.890625q-0.6875 -0.3125 -2.890625 -0.5625q-3.171875 -0.34375 -4.15625 -1.171875q-0.984375 -0.828125 -0.984375 -2.140625q0 -1.125 0.71875 -2.140625q0.734375 -1.015625 2.203125 -1.71875q1.890625 -0.890625 4.0625 -0.890625q1.015625 0 1.921875 0.203125q0.90625 0.1875 1.671875 0.578125q0.625 -0.390625 1.015625 -0.390625q0.46875 0 0.796875 0.328125q0.328125 0.3125 0.328125 0.75q0 0.296875 -0.125 0.875l-0.15625 0.71875q-0.21875 1.0625 -0.734375 1.515625q-0.5 0.453125 -1.171875 0.453125q-0.515625 0 -0.859375 -0.328125q-0.328125 -0.328125 -0.328125 -0.875zm13.490356 -0.5l-1.25 5.875q-0.09375 0.453125 -0.09375 0.734375q0 0.390625 0.34375 0.625q0.578125 0.359375 1.890625 0.359375q2.265625 0 4.390625 -0.953125q0.8125 -0.375 1.21875 -0.375q0.5 0 0.8125 0.328125q0.3125 0.3125 0.3125 0.828125q0 0.671875 -0.53125 1.1875q-0.765625 0.703125 -3.015625 1.3125q-2.25 0.609375 -3.90625 0.609375q-1.359375 0 -2.59375 -0.453125q-0.890625 -0.328125 -1.4375 -1.046875q-0.546875 -0.71875 -0.546875 -1.640625q0 -0.484375 0.109375 -0.9375l1.375 -6.453125l-1.078125 0q-0.984375 0 -1.328125 -0.3125q-0.34375 -0.3125 -0.34375 -0.859375q0 -0.859375 0.828125 -1.453125q0.4375 -0.3125 1.46875 -0.3125l1.0625 0l0.578125 -2.65625q0.203125 -1.0625 0.703125 -1.5q0.515625 -0.453125 1.1875 -0.453125q0.5 0 0.828125 0.328125q0.34375 0.3125 0.34375 0.734375q0 0.3125 -0.140625 0.890625l-0.5625 2.65625l5.421875 0q0.984375 0 1.328125 0.3125q0.359375 0.296875 0.359375 0.859375q0 0.84375 -0.8125 1.4375q-0.453125 0.328125 -1.484375 0.328125l-5.4375 0z" fill-rule="nonzero"/><path fill="#434343" d="m345.81436 140.60287q1.578125 0 3.09375 0.8125q1.515625 0.8125 2.359375 2.34375q0.859375 1.515625 0.859375 3.140625q0 2.625 -1.859375 4.46875q-1.84375 1.84375 -4.453125 1.84375q-2.609375 0 -4.46875 -1.84375q-1.84375 -1.84375 -1.84375 -4.46875q0 -1.640625 0.84375 -3.15625q0.84375 -1.515625 2.359375 -2.328125q1.53125 -0.8125 3.109375 -0.8125z" fill-rule="nonzero"/><path fill="#434343" d="m379.98178 155.181l4.40625 -21.0l15.140625 0l-0.5 2.390625l-12.34375 0l-1.375 6.53125l12.03125 0l-0.5 2.390625l-12.03125 0l-1.515625 7.3125l13.21875 0l-0.5 2.375l-16.03125 0zm29.48352 -1.890625q-1.359375 1.15625 -2.609375 1.703125q-1.234375 0.53125 -2.65625 0.53125q-2.109375 0 -3.40625 -1.234375q-1.28125 -1.25 -1.28125 -3.171875q0 -1.28125 0.578125 -2.25q0.59375 -0.984375 1.546875 -1.578125q0.96875 -0.59375 2.34375 -0.859375q0.875 -0.171875 3.3125 -0.265625q2.453125 -0.109375 3.515625 -0.515625q0.296875 -1.0625 0.296875 -1.765625q0 -0.90625 -0.65625 -1.421875q-0.90625 -0.71875 -2.640625 -0.71875q-1.625 0 -2.671875 0.734375q-1.03125 0.71875 -1.5 2.046875l-2.625 -0.234375q0.796875 -2.25 2.53125 -3.453125q1.75 -1.203125 4.390625 -1.203125q2.828125 0 4.46875 1.34375q1.265625 1.0 1.265625 2.609375q0 1.21875 -0.359375 2.8125l-0.84375 3.78125q-0.40625 1.8125 -0.40625 2.9375q0 0.71875 0.328125 2.0625l-2.625 0q-0.21875 -0.75 -0.296875 -1.890625zm0.953125 -5.8125q-0.546875 0.21875 -1.171875 0.328125q-0.625 0.109375 -2.078125 0.25q-2.265625 0.1875 -3.203125 0.5q-0.921875 0.3125 -1.40625 0.984375q-0.46875 0.671875 -0.46875 1.484375q0 1.09375 0.75 1.796875q0.765625 0.703125 2.15625 0.703125q1.28125 0 2.46875 -0.671875q1.1875 -0.6875 1.875 -1.90625q0.6875 -1.21875 1.078125 -3.46875zm15.592163 2.15625l2.59375 0.28125q-0.96875 2.84375 -2.765625 4.234375q-1.796875 1.375 -4.09375 1.375q-2.484375 0 -4.03125 -1.59375q-1.53125 -1.609375 -1.53125 -4.5q0 -2.484375 0.984375 -4.890625q1.0 -2.40625 2.828125 -3.65625q1.84375 -1.25 4.21875 -1.25q2.4375 0 3.875 1.390625q1.4375 1.375 1.4375 3.640625l-2.546875 0.171875q-0.015625 -1.4375 -0.84375 -2.25q-0.828125 -0.828125 -2.171875 -0.828125q-1.5625 0 -2.703125 1.0q-1.140625 0.984375 -1.796875 3.0q-0.65625 2.0 -0.65625 3.859375q0 1.953125 0.859375 2.9375q0.859375 0.96875 2.125 0.96875q1.25 0 2.40625 -0.953125q1.15625 -0.96875 1.8125 -2.9375zm4.1640625 5.546875l4.390625 -21.0l2.59375 0l-1.6875 8.0625q1.453125 -1.390625 2.6875 -2.0q1.25 -0.609375 2.578125 -0.609375q1.890625 0 2.9375 1.0q1.046875 0.984375 1.046875 2.625q0 0.796875 -0.46875 2.9375l-1.875 8.984375l-2.59375 0l1.9375 -9.203125q0.421875 -2.015625 0.421875 -2.53125q0 -0.734375 -0.515625 -1.203125q-0.515625 -0.484375 -1.5 -0.484375q-1.40625 0 -2.6875 0.75q-1.265625 0.734375 -1.984375 2.015625q-0.71875 1.28125 -1.328125 4.125l-1.359375 6.53125l-2.59375 0zm24.256073 0l4.390625 -21.0l2.59375 0l-4.390625 21.0l-2.59375 0zm10.406403 -18.0625l0.609375 -2.9375l2.578125 0l-0.609375 2.9375l-2.578125 0zm-3.78125 18.0625l3.171875 -15.203125l2.59375 0l-3.171875 15.203125l-2.59375 0zm6.8595276 -5.203125l2.59375 -0.15625q0 1.125 0.34375 1.921875q0.34375 0.78125 1.265625 1.28125q0.921875 0.5 2.15625 0.5q1.71875 0 2.578125 -0.6875q0.859375 -0.6875 0.859375 -1.625q0 -0.671875 -0.515625 -1.265625q-0.53125 -0.609375 -2.59375 -1.484375q-2.046875 -0.890625 -2.625 -1.25q-0.953125 -0.578125 -1.453125 -1.375q-0.484375 -0.796875 -0.484375 -1.828125q0 -1.796875 1.4375 -3.078125q1.4375 -1.296875 4.015625 -1.296875q2.859375 0 4.359375 1.328125q1.5 1.3125 1.546875 3.484375l-2.53125 0.171875q-0.0625 -1.375 -0.984375 -2.171875q-0.90625 -0.8125 -2.578125 -0.8125q-1.34375 0 -2.09375 0.625q-0.75 0.609375 -0.75 1.328125q0 0.703125 0.65625 1.25q0.421875 0.375 2.21875 1.15625q2.96875 1.28125 3.75 2.03125q1.234375 1.1875 1.234375 2.890625q0 1.125 -0.703125 2.21875q-0.6875 1.09375 -2.125 1.75q-1.421875 0.640625 -3.34375 0.640625q-2.640625 0 -4.484375 -1.296875q-1.859375 -1.3125 -1.75 -4.25zm20.476562 3.09375l-0.421875 2.125q-0.9375 0.234375 -1.8125 0.234375q-1.546875 0 -2.46875 -0.75q-0.6875 -0.578125 -0.6875 -1.5625q0 -0.5 0.375 -2.3125l1.84375 -8.828125l-2.046875 0l0.421875 -2.0l2.046875 0l0.78125 -3.75l2.96875 -1.78125l-1.15625 5.53125l2.546875 0l-0.421875 2.0l-2.546875 0l-1.75 8.40625q-0.328125 1.609375 -0.328125 1.921875q0 0.453125 0.25 0.703125q0.265625 0.234375 0.875 0.234375q0.859375 0 1.53125 -0.171875zm21.405975 -3.0625l2.5312805 0.265625q-0.5469055 1.875 -2.5156555 3.5625q-1.953125 1.6875 -4.65625 1.6875q-1.6875 0 -3.09375 -0.78125q-1.40625 -0.78125 -2.15625 -2.265625q-0.734375 -1.5 -0.734375 -3.390625q0 -2.5 1.15625 -4.84375q1.15625 -2.34375 2.984375 -3.46875q1.828125 -1.140625 3.96875 -1.140625q2.71875 0 4.34375 1.6875q1.6250305 1.6875 1.6250305 4.609375q0 1.109375 -0.203125 2.296875l-11.1875305 0q-0.0625 0.4375 -0.0625 0.796875q0 2.125 0.96875 3.25q0.984375 1.125 2.40625 1.125q1.328125 0 2.609375 -0.859375q1.296875 -0.875 2.015625 -2.53125zm-7.53125 -3.765625l8.53125 0q0.015625 -0.40625 0.015625 -0.578125q0 -1.9375 -0.96875 -2.96875q-0.96875 -1.046875 -2.5 -1.046875q-1.671875 0 -3.046875 1.15625q-1.359375 1.140625 -2.03125 3.4375zm12.467194 8.9375l4.390625 -21.0l2.59375 0l-4.390625 21.0l-2.59375 0zm17.890747 -5.171875l2.53125 0.265625q-0.546875 1.875 -2.515625 3.5625q-1.953125 1.6875 -4.65625 1.6875q-1.6875 0 -3.09375 -0.78125q-1.40625 -0.78125 -2.15625 -2.265625q-0.734375 -1.5 -0.734375 -3.390625q0 -2.5 1.15625 -4.84375q1.15625 -2.34375 2.984375 -3.46875q1.828125 -1.140625 3.96875 -1.140625q2.71875 0 4.34375 1.6875q1.625 1.6875 1.625 4.609375q0 1.109375 -0.203125 2.296875l-11.1875 0q-0.0625 0.4375 -0.0625 0.796875q0 2.125 0.96875 3.25q0.984375 1.125 2.40625 1.125q1.328125 0 2.609375 -0.859375q1.296875 -0.875 2.015625 -2.53125zm-7.53125 -3.765625l8.53125 0q0.015625 -0.40625 0.015625 -0.578125q0 -1.9375 -0.96875 -2.96875q-0.96875 -1.046875 -2.5 -1.046875q-1.671875 0 -3.046875 1.15625q-1.359375 1.140625 -2.03125 3.4375zm12.654663 8.9375l3.1875 -15.203125l2.59375 0l-0.53125 2.5q1.4375 -1.625 2.578125 -2.234375q1.140625 -0.609375 2.46875 -0.609375q1.421875 0 2.375 0.75q0.953125 0.75 1.25 2.09375q1.15625 -1.4375 2.4375 -2.140625q1.296875 -0.703125 2.703125 -0.703125q1.90625 0 2.859375 0.90625q0.953125 0.890625 0.953125 2.53125q0 0.703125 -0.328125 2.3125l-2.046875 9.796875l-2.59375 0l2.09375 -10.046875q0.265625 -1.234375 0.265625 -1.765625q0 -0.75 -0.46875 -1.171875q-0.46875 -0.4375 -1.328125 -0.4375q-1.15625 0 -2.359375 0.703125q-1.203125 0.703125 -1.875 1.84375q-0.671875 1.140625 -1.171875 3.5l-1.546875 7.375l-2.59375 0l2.15625 -10.265625q0.234375 -1.046875 0.234375 -1.484375q0 -0.75 -0.46875 -1.203125q-0.46875 -0.46875 -1.21875 -0.46875q-1.09375 0 -2.3125 0.703125q-1.203125 0.703125 -1.96875 1.953125q-0.75 1.25 -1.234375 3.578125l-1.515625 7.1875l-2.59375 0zm35.618042 -5.171875l2.53125 0.265625q-0.546875 1.875 -2.515625 3.5625q-1.953125 1.6875 -4.65625 1.6875q-1.6875 0 -3.09375 -0.78125q-1.40625 -0.78125 -2.15625 -2.265625q-0.734375 -1.5 -0.734375 -3.390625q0 -2.5 1.15625 -4.84375q1.15625 -2.34375 2.984375 -3.46875q1.828125 -1.140625 3.96875 -1.140625q2.71875 0 4.34375 1.6875q1.625 1.6875 1.625 4.609375q0 1.109375 -0.203125 2.296875l-11.1875 0q-0.0625 0.4375 -0.0625 0.796875q0 2.125 0.96875 3.25q0.984375 1.125 2.40625 1.125q1.328125 0 2.609375 -0.859375q1.296875 -0.875 2.015625 -2.53125zm-7.53125 -3.765625l8.53125 0q0.015625 -0.40625 0.015625 -0.578125q0 -1.9375 -0.96875 -2.96875q-0.96875 -1.046875 -2.5 -1.046875q-1.671875 0 -3.046875 1.15625q-1.359375 1.140625 -2.03125 3.4375zm12.670349 8.9375l3.1875 -15.203125l2.34375 0l-0.5625 2.640625q1.53125 -1.5625 2.859375 -2.265625q1.34375 -0.71875 2.734375 -0.71875q1.84375 0 2.890625 1.0q1.0625 1.0 1.0625 2.671875q0 0.84375 -0.375 2.671875l-1.9375 9.203125l-2.59375 0l2.03125 -9.640625q0.296875 -1.40625 0.296875 -2.078125q0 -0.75 -0.53125 -1.21875q-0.515625 -0.484375 -1.5 -0.484375q-2.0 0 -3.5625 1.4375q-1.546875 1.4375 -2.265625 4.90625l-1.484375 7.078125l-2.59375 0zm22.373413 -2.109375l-0.421875 2.125q-0.9375 0.234375 -1.8125 0.234375q-1.546875 0 -2.46875 -0.75q-0.6875 -0.578125 -0.6875 -1.5625q0 -0.5 0.375 -2.3125l1.84375 -8.828125l-2.046875 0l0.421875 -2.0l2.046875 0l0.78125 -3.75l2.96875 -1.78125l-1.15625 5.53125l2.546875 0l-0.421875 2.0l-2.546875 0l-1.75 8.40625q-0.328125 1.609375 -0.328125 1.921875q0 0.453125 0.25 0.703125q0.265625 0.234375 0.875 0.234375q0.859375 0 1.53125 -0.171875zm13.92157 -15.953125l0.609375 -2.9375l2.578125 0l-0.609375 2.9375l-2.578125 0zm-3.78125 18.0625l3.171875 -15.203125l2.59375 0l-3.171875 15.203125l-2.59375 0zm6.859558 -5.203125l2.59375 -0.15625q0 1.125 0.34375 1.921875q0.34375 0.78125 1.265625 1.28125q0.921875 0.5 2.15625 0.5q1.71875 0 2.578125 -0.6875q0.859375 -0.6875 0.859375 -1.625q0 -0.671875 -0.515625 -1.265625q-0.53125 -0.609375 -2.59375 -1.484375q-2.046875 -0.890625 -2.625 -1.25q-0.953125 -0.578125 -1.453125 -1.375q-0.484375 -0.796875 -0.484375 -1.828125q0 -1.796875 1.4375 -3.078125q1.4375 -1.296875 4.015625 -1.296875q2.859375 0 4.359375 1.328125q1.5 1.3125 1.546875 3.484375l-2.53125 0.171875q-0.0625 -1.375 -0.984375 -2.171875q-0.90625 -0.8125 -2.578125 -0.8125q-1.34375 0 -2.09375 0.625q-0.75 0.609375 -0.75 1.328125q0 0.703125 0.65625 1.25q0.421875 0.375 2.21875 1.15625q2.96875 1.28125 3.75 2.03125q1.234375 1.1875 1.234375 2.890625q0 1.125 -0.703125 2.21875q-0.6875 1.09375 -2.125 1.75q-1.421875 0.640625 -3.34375 0.640625q-2.640625 0 -4.484375 -1.296875q-1.859375 -1.3125 -1.75 -4.25zm32.82794 3.3125q-1.359375 1.15625 -2.609375 1.703125q-1.234375 0.53125 -2.65625 0.53125q-2.109375 0 -3.40625 -1.234375q-1.28125 -1.25 -1.28125 -3.171875q0 -1.28125 0.578125 -2.25q0.59375 -0.984375 1.546875 -1.578125q0.96875 -0.59375 2.34375 -0.859375q0.875 -0.171875 3.3125 -0.265625q2.453125 -0.109375 3.515625 -0.515625q0.296875 -1.0625 0.296875 -1.765625q0 -0.90625 -0.65625 -1.421875q-0.90625 -0.71875 -2.640625 -0.71875q-1.625 0 -2.671875 0.734375q-1.03125 0.71875 -1.5 2.046875l-2.625 -0.234375q0.796875 -2.25 2.53125 -3.453125q1.75 -1.203125 4.390625 -1.203125q2.828125 0 4.46875 1.34375q1.265625 1.0 1.265625 2.609375q0 1.21875 -0.359375 2.8125l-0.84375 3.78125q-0.40625 1.8125 -0.40625 2.9375q0 0.71875 0.328125 2.0625l-2.625 0q-0.21875 -0.75 -0.296875 -1.890625zm0.953125 -5.8125q-0.546875 0.21875 -1.171875 0.328125q-0.625 0.109375 -2.078125 0.25q-2.265625 0.1875 -3.203125 0.5q-0.921875 0.3125 -1.40625 0.984375q-0.46875 0.671875 -0.46875 1.484375q0 1.09375 0.75 1.796875q0.765625 0.703125 2.15625 0.703125q1.28125 0 2.46875 -0.671875q1.1875 -0.6875 1.875 -1.90625q0.6875 -1.21875 1.078125 -3.46875zm23.740479 2.15625l2.59375 0.28125q-0.96875 2.84375 -2.765625 4.234375q-1.796875 1.375 -4.09375 1.375q-2.484375 0 -4.03125 -1.59375q-1.53125 -1.609375 -1.53125 -4.5q0 -2.484375 0.984375 -4.890625q1.0 -2.40625 2.828125 -3.65625q1.84375 -1.25 4.21875 -1.25q2.4375 0 3.875 1.390625q1.4375 1.375 1.4375 3.640625l-2.546875 0.171875q-0.015625 -1.4375 -0.84375 -2.25q-0.828125 -0.828125 -2.171875 -0.828125q-1.5625 0 -2.703125 1.0q-1.140625 0.984375 -1.796875 3.0q-0.65625 2.0 -0.65625 3.859375q0 1.953125 0.859375 2.9375q0.859375 0.96875 2.125 0.96875q1.25 0 2.40625 -0.953125q1.15625 -0.96875 1.8125 -2.9375zm4.6328125 -0.21875q0 -4.453125 2.609375 -7.375q2.171875 -2.40625 5.671875 -2.40625q2.75 0 4.4375 1.71875q1.6875 1.71875 1.6875 4.640625q0 2.609375 -1.0625 4.875q-1.0625 2.25 -3.015625 3.453125q-1.953125 1.203125 -4.125 1.203125q-1.765625 0 -3.21875 -0.75q-1.453125 -0.765625 -2.21875 -2.15625q-0.765625 -1.390625 -0.765625 -3.203125zm2.59375 -0.265625q0 2.15625 1.03125 3.265625q1.03125 1.109375 2.609375 1.109375q0.828125 0 1.640625 -0.328125q0.828125 -0.34375 1.53125 -1.03125q0.703125 -0.6875 1.1875 -1.5625q0.5 -0.890625 0.796875 -1.90625q0.453125 -1.421875 0.453125 -2.71875q0 -2.0625 -1.046875 -3.203125q-1.03125 -1.140625 -2.609375 -1.140625q-1.21875 0 -2.21875 0.578125q-1.0 0.578125 -1.8125 1.703125q-0.8125 1.109375 -1.1875 2.59375q-0.375 1.484375 -0.375 2.640625zm13.045288 6.03125l4.390625 -21.0l2.59375 0l-4.390625 21.0l-2.59375 0zm17.109497 -2.75q-2.734375 3.09375 -5.609375 3.09375q-1.75 0 -2.84375 -1.0q-1.078125 -1.015625 -1.078125 -2.484375q0 -0.953125 0.484375 -3.296875l1.84375 -8.765625l2.59375 0l-2.03125 9.71875q-0.265625 1.21875 -0.265625 1.890625q0 0.859375 0.515625 1.34375q0.53125 0.46875 1.546875 0.46875q1.09375 0 2.125 -0.515625q1.046875 -0.53125 1.796875 -1.4375q0.75 -0.90625 1.21875 -2.140625q0.3125 -0.78125 0.734375 -2.765625l1.375 -6.5625l2.59375 0l-3.1875 15.203125l-2.390625 0l0.578125 -2.75zm5.904663 2.75l3.1875 -15.203125l2.59375 0l-0.53125 2.5q1.4375 -1.625 2.578125 -2.234375q1.140625 -0.609375 2.46875 -0.609375q1.421875 0 2.375 0.75q0.953125 0.75 1.25 2.09375q1.15625 -1.4375 2.4375 -2.140625q1.296875 -0.703125 2.703125 -0.703125q1.90625 0 2.859375 0.90625q0.953125 0.890625 0.953125 2.53125q0 0.703125 -0.328125 2.3125l-2.046875 9.796875l-2.59375 0l2.09375 -10.046875q0.265625 -1.234375 0.265625 -1.765625q0 -0.75 -0.46875 -1.171875q-0.46875 -0.4375 -1.328125 -0.4375q-1.15625 0 -2.359375 0.703125q-1.203125 0.703125 -1.875 1.84375q-0.671875 1.140625 -1.171875 3.5l-1.546875 7.375l-2.59375 0l2.15625 -10.265625q0.234375 -1.046875 0.234375 -1.484375q0 -0.75 -0.46875 -1.203125q-0.46875 -0.46875 -1.21875 -0.46875q-1.09375 0 -2.3125 0.703125q-1.203125 0.703125 -1.96875 1.953125q-0.75 1.25 -1.234375 3.578125l-1.515625 7.1875l-2.59375 0zm24.446228 0l3.1875 -15.203125l2.34375 0l-0.5625 2.640625q1.53125 -1.5625 2.859375 -2.265625q1.34375 -0.71875 2.734375 -0.71875q1.84375 0 2.890625 1.0q1.0625 1.0 1.0625 2.671875q0 0.84375 -0.375 2.671875l-1.9375 9.203125l-2.59375 0l2.03125 -9.640625q0.296875 -1.40625 0.296875 -2.078125q0 -0.75 -0.53125 -1.21875q-0.515625 -0.484375 -1.5 -0.484375q-2.0 0 -3.5625 1.4375q-1.546875 1.4375 -2.265625 4.90625l-1.484375 7.078125l-2.59375 0z" fill-rule="nonzero"/><path fill="#434343" d="m345.81436 180.60287q1.578125 0 3.09375 0.8125q1.515625 0.8125 2.359375 2.34375q0.859375 1.515625 0.859375 3.140625q0 2.625 -1.859375 4.46875q-1.84375 1.84375 -4.453125 1.84375q-2.609375 0 -4.46875 -1.84375q-1.84375 -1.84375 -1.84375 -4.46875q0 -1.640625 0.84375 -3.15625q0.84375 -1.515625 2.359375 -2.328125q1.53125 -0.8125 3.109375 -0.8125z" fill-rule="nonzero"/><path fill="#434343" d="m379.98178 195.181l4.40625 -21.0l15.140625 0l-0.5 2.390625l-12.34375 0l-1.375 6.53125l12.03125 0l-0.5 2.390625l-12.03125 0l-1.515625 7.3125l13.21875 0l-0.5 2.375l-16.03125 0zm29.48352 -1.890625q-1.359375 1.15625 -2.609375 1.703125q-1.234375 0.53125 -2.65625 0.53125q-2.109375 0 -3.40625 -1.234375q-1.28125 -1.25 -1.28125 -3.171875q0 -1.28125 0.578125 -2.25q0.59375 -0.984375 1.546875 -1.578125q0.96875 -0.59375 2.34375 -0.859375q0.875 -0.171875 3.3125 -0.265625q2.453125 -0.109375 3.515625 -0.515625q0.296875 -1.0625 0.296875 -1.765625q0 -0.90625 -0.65625 -1.421875q-0.90625 -0.71875 -2.640625 -0.71875q-1.625 0 -2.671875 0.734375q-1.03125 0.71875 -1.5 2.046875l-2.625 -0.234375q0.796875 -2.25 2.53125 -3.453125q1.75 -1.203125 4.390625 -1.203125q2.828125 0 4.46875 1.34375q1.265625 1.0 1.265625 2.609375q0 1.21875 -0.359375 2.8125l-0.84375 3.78125q-0.40625 1.8125 -0.40625 2.9375q0 0.71875 0.328125 2.0625l-2.625 0q-0.21875 -0.75 -0.296875 -1.890625zm0.953125 -5.8125q-0.546875 0.21875 -1.171875 0.328125q-0.625 0.109375 -2.078125 0.25q-2.265625 0.1875 -3.203125 0.5q-0.921875 0.3125 -1.40625 0.984375q-0.46875 0.671875 -0.46875 1.484375q0 1.09375 0.75 1.796875q0.765625 0.703125 2.15625 0.703125q1.28125 0 2.46875 -0.671875q1.1875 -0.6875 1.875 -1.90625q0.6875 -1.21875 1.078125 -3.46875zm15.592163 2.15625l2.59375 0.28125q-0.96875 2.84375 -2.765625 4.234375q-1.796875 1.375 -4.09375 1.375q-2.484375 0 -4.03125 -1.59375q-1.53125 -1.609375 -1.53125 -4.5q0 -2.484375 0.984375 -4.890625q1.0 -2.40625 2.828125 -3.65625q1.84375 -1.25 4.21875 -1.25q2.4375 0 3.875 1.390625q1.4375 1.375 1.4375 3.640625l-2.546875 0.171875q-0.015625 -1.4375 -0.84375 -2.25q-0.828125 -0.828125 -2.171875 -0.828125q-1.5625 0 -2.703125 1.0q-1.140625 0.984375 -1.796875 3.0q-0.65625 2.0 -0.65625 3.859375q0 1.953125 0.859375 2.9375q0.859375 0.96875 2.125 0.96875q1.25 0 2.40625 -0.953125q1.15625 -0.96875 1.8125 -2.9375zm4.1640625 5.546875l4.390625 -21.0l2.59375 0l-1.6875 8.0625q1.453125 -1.390625 2.6875 -2.0q1.25 -0.609375 2.578125 -0.609375q1.890625 0 2.9375 1.0q1.046875 0.984375 1.046875 2.625q0 0.796875 -0.46875 2.9375l-1.875 8.984375l-2.59375 0l1.9375 -9.203125q0.421875 -2.015625 0.421875 -2.53125q0 -0.734375 -0.515625 -1.203125q-0.515625 -0.484375 -1.5 -0.484375q-1.40625 0 -2.6875 0.75q-1.265625 0.734375 -1.984375 2.015625q-0.71875 1.28125 -1.328125 4.125l-1.359375 6.53125l-2.59375 0zm34.959198 -5.546875l2.59375 0.28125q-0.96875 2.84375 -2.765625 4.234375q-1.796875 1.375 -4.09375 1.375q-2.484375 0 -4.03125 -1.59375q-1.53125 -1.609375 -1.53125 -4.5q0 -2.484375 0.984375 -4.890625q1.0 -2.40625 2.828125 -3.65625q1.84375 -1.25 4.21875 -1.25q2.4375 0 3.875 1.390625q1.4375 1.375 1.4375 3.640625l-2.546875 0.171875q-0.015625 -1.4375 -0.84375 -2.25q-0.828125 -0.828125 -2.171875 -0.828125q-1.5625 0 -2.703125 1.0q-1.140625 0.984375 -1.796875 3.0q-0.65625 2.0 -0.65625 3.859375q0 1.953125 0.859375 2.9375q0.859375 0.96875 2.125 0.96875q1.25 0 2.40625 -0.953125q1.15625 -0.96875 1.8125 -2.9375zm4.6328125 -0.21875q0 -4.453125 2.609375 -7.375q2.171875 -2.40625 5.671875 -2.40625q2.75 0 4.4375 1.71875q1.6875 1.71875 1.6875 4.640625q0 2.609375 -1.0625 4.875q-1.0625 2.25 -3.015625 3.453125q-1.953125 1.203125 -4.125 1.203125q-1.765625 0 -3.21875 -0.75q-1.453125 -0.765625 -2.21875 -2.15625q-0.765625 -1.390625 -0.765625 -3.203125zm2.59375 -0.265625q0 2.15625 1.03125 3.265625q1.03125 1.109375 2.609375 1.109375q0.828125 0 1.640625 -0.328125q0.828125 -0.34375 1.53125 -1.03125q0.703125 -0.6875 1.1875 -1.5625q0.5 -0.890625 0.796875 -1.90625q0.453125 -1.421875 0.453125 -2.71875q0 -2.0625 -1.046875 -3.203125q-1.03125 -1.140625 -2.609375 -1.140625q-1.21875 0 -2.21875 0.578125q-1.0 0.578125 -1.8125 1.703125q-0.8125 1.109375 -1.1875 2.59375q-0.375 1.484375 -0.375 2.640625zm13.045288 6.03125l4.390625 -21.0l2.59375 0l-4.390625 21.0l-2.59375 0zm17.109528 -2.75q-2.734375 3.09375 -5.609375 3.09375q-1.75 0 -2.84375 -1.0q-1.078125 -1.015625 -1.078125 -2.484375q0 -0.953125 0.484375 -3.296875l1.84375 -8.765625l2.59375 0l-2.03125 9.71875q-0.265625 1.21875 -0.265625 1.890625q0 0.859375 0.515625 1.34375q0.53125 0.46875 1.546875 0.46875q1.09375 0 2.125 -0.515625q1.046875 -0.53125 1.796875 -1.4375q0.75 -0.90625 1.21875 -2.140625q0.3125 -0.78125 0.734375 -2.765625l1.375 -6.5625l2.59375 0l-3.1875 15.203125l-2.390625 0l0.578125 -2.75zm5.904663 2.75l3.1875 -15.203125l2.5937805 0l-0.53125 2.5q1.4375 -1.625 2.578125 -2.234375q1.140625 -0.609375 2.46875 -0.609375q1.421875 0 2.375 0.75q0.953125 0.75 1.25 2.09375q1.15625 -1.4375 2.4375 -2.140625q1.296875 -0.703125 2.703125 -0.703125q1.90625 0 2.859375 0.90625q0.953125 0.890625 0.953125 2.53125q0 0.703125 -0.328125 2.3125l-2.046875 9.796875l-2.59375 0l2.09375 -10.046875q0.265625 -1.234375 0.265625 -1.765625q0 -0.75 -0.46875 -1.171875q-0.46875 -0.4375 -1.328125 -0.4375q-1.15625 0 -2.359375 0.703125q-1.203125 0.703125 -1.875 1.84375q-0.671875 1.140625 -1.171875 3.5l-1.546875 7.375l-2.59375 0l2.15625 -10.265625q0.234375 -1.046875 0.234375 -1.484375q0 -0.75 -0.46875 -1.203125q-0.46875 -0.46875 -1.21875 -0.46875q-1.09375 0 -2.3125 0.703125q-1.203125 0.703125 -1.96875 1.953125q-0.75 1.25 -1.234375 3.578125l-1.5156555 7.1875l-2.59375 0zm24.446198 0l3.1875 -15.203125l2.34375 0l-0.5625 2.640625q1.53125 -1.5625 2.859375 -2.265625q1.34375 -0.71875 2.734375 -0.71875q1.84375 0 2.890625 1.0q1.0625 1.0 1.0625 2.671875q0 0.84375 -0.375 2.671875l-1.9375 9.203125l-2.59375 0l2.03125 -9.640625q0.296875 -1.40625 0.296875 -2.078125q0 -0.75 -0.53125 -1.21875q-0.515625 -0.484375 -1.5 -0.484375q-2.0 0 -3.5625 1.4375q-1.546875 1.4375 -2.265625 4.90625l-1.484375 7.078125l-2.59375 0zm34.95923 -5.546875l2.59375 0.28125q-0.96875 2.84375 -2.765625 4.234375q-1.796875 1.375 -4.09375 1.375q-2.484375 0 -4.03125 -1.59375q-1.53125 -1.609375 -1.53125 -4.5q0 -2.484375 0.984375 -4.890625q1.0 -2.40625 2.828125 -3.65625q1.84375 -1.25 4.21875 -1.25q2.4375 0 3.875 1.390625q1.4375 1.375 1.4375 3.640625l-2.546875 0.171875q-0.015625 -1.4375 -0.84375 -2.25q-0.828125 -0.828125 -2.171875 -0.828125q-1.5625 0 -2.703125 1.0q-1.140625 0.984375 -1.796875 3.0q-0.65625 2.0 -0.65625 3.859375q0 1.953125 0.859375 2.9375q0.859375 0.96875 2.125 0.96875q1.25 0 2.40625 -0.953125q1.15625 -0.96875 1.8125 -2.9375zm14.4296875 3.65625q-1.359375 1.15625 -2.609375 1.703125q-1.234375 0.53125 -2.65625 0.53125q-2.109375 0 -3.40625 -1.234375q-1.28125 -1.25 -1.28125 -3.171875q0 -1.28125 0.578125 -2.25q0.59375 -0.984375 1.546875 -1.578125q0.96875 -0.59375 2.34375 -0.859375q0.875 -0.171875 3.3125 -0.265625q2.453125 -0.109375 3.515625 -0.515625q0.296875 -1.0625 0.296875 -1.765625q0 -0.90625 -0.65625 -1.421875q-0.90625 -0.71875 -2.640625 -0.71875q-1.625 0 -2.671875 0.734375q-1.03125 0.71875 -1.5 2.046875l-2.625 -0.234375q0.796875 -2.25 2.53125 -3.453125q1.75 -1.203125 4.390625 -1.203125q2.828125 0 4.46875 1.34375q1.265625 1.0 1.265625 2.609375q0 1.21875 -0.359375 2.8125l-0.84375 3.78125q-0.40625 1.8125 -0.40625 2.9375q0 0.71875 0.328125 2.0625l-2.625 0q-0.21875 -0.75 -0.296875 -1.890625zm0.953125 -5.8125q-0.546875 0.21875 -1.171875 0.328125q-0.625 0.109375 -2.078125 0.25q-2.265625 0.1875 -3.203125 0.5q-0.921875 0.3125 -1.40625 0.984375q-0.46875 0.671875 -0.46875 1.484375q0 1.09375 0.75 1.796875q0.765625 0.703125 2.15625 0.703125q1.28125 0 2.46875 -0.671875q1.1875 -0.6875 1.875 -1.90625q0.6875 -1.21875 1.078125 -3.46875zm5.092163 7.703125l3.1875 -15.203125l2.34375 0l-0.5625 2.640625q1.53125 -1.5625 2.859375 -2.265625q1.34375 -0.71875 2.734375 -0.71875q1.84375 0 2.890625 1.0q1.0625 1.0 1.0625 2.671875q0 0.84375 -0.375 2.671875l-1.9375 9.203125l-2.59375 0l2.03125 -9.640625q0.296875 -1.40625 0.296875 -2.078125q0 -0.75 -0.53125 -1.21875q-0.515625 -0.484375 -1.5 -0.484375q-2.0 0 -3.5625 1.4375q-1.546875 1.4375 -2.265625 4.90625l-1.484375 7.078125l-2.59375 0zm24.459229 0l4.390625 -21.0l2.59375 0l-1.5625 7.515625q1.234375 -1.140625 2.234375 -1.59375q1.0 -0.46875 2.09375 -0.46875q2.125 0 3.546875 1.59375q1.421875 1.578125 1.421875 4.609375q0 2.03125 -0.578125 3.703125q-0.5625 1.671875 -1.40625 2.8125q-0.84375 1.140625 -1.75 1.828125q-0.890625 0.671875 -1.84375 1.0q-0.9375 0.34375 -1.8125 0.34375q-1.515625 0 -2.65625 -0.796875q-1.140625 -0.796875 -1.78125 -2.421875l-0.609375 2.875l-2.28125 0zm3.84375 -6.25l-0.015625 0.5q0 1.9375 0.921875 2.953125q0.9375 1.015625 2.328125 1.015625q1.359375 0 2.5 -0.953125q1.140625 -0.953125 1.859375 -2.96875q0.734375 -2.015625 0.734375 -3.71875q0 -1.921875 -0.921875 -2.984375q-0.921875 -1.0625 -2.28125 -1.0625q-1.40625 0 -2.578125 1.09375q-1.171875 1.078125 -1.953125 3.328125q-0.59375 1.671875 -0.59375 2.796875zm23.639038 1.078125l2.53125 0.265625q-0.546875 1.875 -2.515625 3.5625q-1.953125 1.6875 -4.65625 1.6875q-1.6875 0 -3.09375 -0.78125q-1.40625 -0.78125 -2.15625 -2.265625q-0.734375 -1.5 -0.734375 -3.390625q0 -2.5 1.15625 -4.84375q1.15625 -2.34375 2.984375 -3.46875q1.828125 -1.140625 3.96875 -1.140625q2.71875 0 4.34375 1.6875q1.625 1.6875 1.625 4.609375q0 1.109375 -0.203125 2.296875l-11.1875 0q-0.0625 0.4375 -0.0625 0.796875q0 2.125 0.96875 3.25q0.984375 1.125 2.40625 1.125q1.328125 0 2.609375 -0.859375q1.296875 -0.875 2.015625 -2.53125zm-7.53125 -3.765625l8.53125 0q0.015625 -0.40625 0.015625 -0.578125q0 -1.9375 -0.96875 -2.96875q-0.96875 -1.046875 -2.5 -1.046875q-1.671875 0 -3.046875 1.15625q-1.359375 1.140625 -2.03125 3.4375zm31.084229 7.046875q-1.359375 1.15625 -2.609375 1.703125q-1.234375 0.53125 -2.65625 0.53125q-2.109375 0 -3.40625 -1.234375q-1.28125 -1.25 -1.28125 -3.171875q0 -1.28125 0.578125 -2.25q0.59375 -0.984375 1.546875 -1.578125q0.96875 -0.59375 2.34375 -0.859375q0.875 -0.171875 3.3125 -0.265625q2.453125 -0.109375 3.515625 -0.515625q0.296875 -1.0625 0.296875 -1.765625q0 -0.90625 -0.65625 -1.421875q-0.90625 -0.71875 -2.640625 -0.71875q-1.625 0 -2.671875 0.734375q-1.03125 0.71875 -1.5 2.046875l-2.625 -0.234375q0.796875 -2.25 2.53125 -3.453125q1.75 -1.203125 4.390625 -1.203125q2.828125 0 4.46875 1.34375q1.265625 1.0 1.265625 2.609375q0 1.21875 -0.359375 2.8125l-0.84375 3.78125q-0.40625 1.8125 -0.40625 2.9375q0 0.71875 0.328125 2.0625l-2.625 0q-0.21875 -0.75 -0.296875 -1.890625zm0.953125 -5.8125q-0.546875 0.21875 -1.171875 0.328125q-0.625 0.109375 -2.078125 0.25q-2.265625 0.1875 -3.203125 0.5q-0.921875 0.3125 -1.40625 0.984375q-0.46875 0.671875 -0.46875 1.484375q0 1.09375 0.75 1.796875q0.765625 0.703125 2.15625 0.703125q1.28125 0 2.46875 -0.671875q1.1875 -0.6875 1.875 -1.90625q0.6875 -1.21875 1.078125 -3.46875z" fill-rule="nonzero"/><path fill="#434343" d="m686.59827 191.6185l4.546875 -6.5q-1.203125 0 -1.515625 -0.25q-0.421875 -0.34375 -0.421875 -0.921875q0 -0.859375 0.828125 -1.453125q0.453125 -0.3125 1.484375 -0.3125l4.015625 0q0.96875 0 1.3125 0.3125q0.359375 0.296875 0.359375 0.859375q0 0.84375 -0.796875 1.4375q-0.453125 0.328125 -1.5 0.328125l-0.484375 0l-7.046875 10.0625l-3.0625 0l-2.78125 -10.0625l-0.421875 0q-0.96875 0 -1.328125 -0.3125q-0.34375 -0.3125 -0.34375 -0.859375q0 -0.859375 0.828125 -1.453125q0.4375 -0.3125 1.46875 -0.3125l3.9375 0q0.984375 0 1.328125 0.3125q0.359375 0.296875 0.359375 0.859375q0 0.46875 -0.34375 0.96875q-0.328125 0.484375 -0.828125 0.65625q-0.34375 0.140625 -1.40625 0.140625l1.8125 6.5zm25.255981 -1.453125l-12.03125 0q0.203125 1.140625 1.203125 1.84375q1.0 0.703125 3.0 0.703125q1.65625 0 4.515625 -0.703125q1.1875 -0.28125 1.625 -0.28125q0.484375 0 0.796875 0.3125q0.3125 0.3125 0.3125 0.8125q0 0.71875 -0.65625 1.296875q-0.65625 0.5625 -3.078125 1.03125q-2.40625 0.46875 -4.359375 0.46875q-3.0625 0 -4.734375 -1.53125q-1.671875 -1.546875 -1.671875 -3.9375q0 -1.984375 1.203125 -3.984375q1.21875 -2.015625 3.453125 -3.203125q2.25 -1.203125 4.609375 -1.203125q2.78125 0 4.5 1.53125q1.734375 1.53125 1.734375 4.28125q0 0.59375 -0.140625 1.3125l-0.28125 1.25zm-2.625 -2.9375q-0.390625 -1.203125 -1.359375 -1.84375q-0.953125 -0.65625 -2.453125 -0.65625q-1.5 0 -2.71875 0.625q-1.21875 0.625 -2.15625 1.875l8.6875 0zm19.021606 -4.515625q0.640625 -0.5 1.1875 -0.5q0.5 0 0.828125 0.328125q0.34375 0.3125 0.34375 0.75q0 0.28125 -0.125 0.859375l-0.40625 1.890625q-0.234375 1.0625 -0.734375 1.515625q-0.5 0.4375 -1.15625 0.4375q-0.625 0 -0.953125 -0.34375q-0.25 -0.265625 -0.25 -1.046875q0 -0.78125 -0.53125 -1.171875q-1.015625 -0.703125 -2.84375 -0.703125q-2.828125 0 -4.46875 2.109375q-1.140625 1.4375 -1.140625 3.0625q0 1.28125 1.0 2.0625q1.0 0.765625 3.515625 0.765625q1.796875 0 3.046875 -0.375q0.75 -0.21875 1.484375 -0.765625q0.734375 -0.5625 1.234375 -0.5625q0.515625 0 0.84375 0.34375q0.34375 0.34375 0.34375 0.859375q0 1.03125 -1.40625 1.9375q-2.359375 1.5 -6.453125 1.5q-3.390625 0 -5.0 -1.421875q-1.609375 -1.4375 -1.609375 -3.671875q0 -2.109375 1.21875 -4.25q1.234375 -2.140625 3.390625 -3.328125q2.15625 -1.203125 4.640625 -1.203125q1.203125 0 2.203125 0.234375q1.0 0.21875 1.796875 0.6875zm11.4435425 2.40625l-1.25 5.875q-0.09375 0.453125 -0.09375 0.734375q0 0.390625 0.34375 0.625q0.578125 0.359375 1.890625 0.359375q2.265625 0 4.390625 -0.953125q0.8125 -0.375 1.21875 -0.375q0.5 0 0.8125 0.328125q0.3125 0.3125 0.3125 0.828125q0 0.671875 -0.53125 1.1875q-0.765625 0.703125 -3.015625 1.3125q-2.25 0.609375 -3.90625 0.609375q-1.359375 0 -2.59375 -0.453125q-0.890625 -0.328125 -1.4375 -1.046875q-0.546875 -0.71875 -0.546875 -1.640625q0 -0.484375 0.109375 -0.9375l1.375 -6.453125l-1.078125 0q-0.984375 0 -1.328125 -0.3125q-0.34375 -0.3125 -0.34375 -0.859375q0 -0.859375 0.828125 -1.453125q0.4375 -0.3125 1.46875 -0.3125l1.0625 0l0.578125 -2.65625q0.203125 -1.0625 0.703125 -1.5q0.515625 -0.453125 1.1875 -0.453125q0.5 0 0.828125 0.328125q0.34375 0.3125 0.34375 0.734375q0 0.3125 -0.140625 0.890625l-0.5625 2.65625l5.421875 0q0.984375 0 1.328125 0.3125q0.359375 0.296875 0.359375 0.859375q0 0.84375 -0.8125 1.4375q-0.453125 0.328125 -1.484375 0.328125l-5.4375 0zm16.474731 10.53125q-1.8125 0 -3.3125 -0.734375q-1.5 -0.734375 -2.25 -1.984375q-0.75 -1.265625 -0.75 -2.765625q0 -1.84375 1.25 -3.90625q1.265625 -2.0625 3.515625 -3.265625q2.25 -1.203125 4.578125 -1.203125q1.6875 0 3.15625 0.78125q1.46875 0.765625 2.21875 2.0625q0.75 1.296875 0.75 2.84375q0 2.0 -1.1875 3.921875q-1.1875 1.90625 -3.4375 3.078125q-2.25 1.171875 -4.53125 1.171875zm0.59375 -2.9375q2.25 0 3.890625 -1.4375q1.65625 -1.4375 1.65625 -3.015625q0 -1.53125 -1.046875 -2.53125q-1.046875 -1.0 -2.78125 -1.0q-2.453125 0 -4.21875 1.828125q-1.40625 1.484375 -1.40625 2.953125q0 1.25 1.078125 2.234375q1.09375 0.96875 2.828125 0.96875zm19.224731 -10.53125l-0.390625 1.828125q2.15625 -1.34375 3.296875 -1.78125q1.15625 -0.4375 2.09375 -0.4375q1.265625 0 2.21875 0.78125q0.953125 0.78125 0.953125 1.421875q0 0.703125 -0.5625 1.265625q-0.5625 0.5625 -1.265625 0.5625q-0.546875 0 -1.03125 -0.546875q-0.484375 -0.546875 -0.953125 -0.546875q-0.53125 0 -1.71875 0.609375q-1.1875 0.59375 -3.84375 2.484375l-0.9375 4.421875l4.171875 0q0.984375 0 1.328125 0.3125q0.34375 0.296875 0.34375 0.84375q0 0.890625 -0.84375 1.484375q-0.4375 0.296875 -1.4375 0.296875l-8.875 0q-0.984375 0 -1.34375 -0.296875q-0.34375 -0.3125 -0.34375 -0.859375q0 -0.890625 0.828125 -1.46875q0.46875 -0.3125 1.484375 -0.3125l1.765625 0l1.5 -7.125l-1.0625 0q-0.96875 0 -1.328125 -0.3125q-0.359375 -0.3125 -0.359375 -0.859375q0 -0.859375 0.8125 -1.4375q0.453125 -0.328125 1.5 -0.328125l4.0 0z" fill-rule="nonzero"/><path fill="#434343" d="m792.2044 189.41537q0 -4.453125 2.609375 -7.375q2.171875 -2.40625 5.671875 -2.40625q2.75 0 4.4375 1.71875q1.6875 1.71875 1.6875 4.640625q0 2.609375 -1.0625 4.875q-1.0625 2.25 -3.015625 3.453125q-1.953125 1.203125 -4.125 1.203125q-1.765625 0 -3.21875 -0.75q-1.453125 -0.765625 -2.21875 -2.15625q-0.765625 -1.390625 -0.765625 -3.203125zm2.59375 -0.265625q0 2.15625 1.03125 3.265625q1.03125 1.109375 2.609375 1.109375q0.828125 0 1.640625 -0.328125q0.828125 -0.34375 1.53125 -1.03125q0.703125 -0.6875 1.1875 -1.5625q0.5 -0.890625 0.796875 -1.90625q0.453125 -1.421875 0.453125 -2.71875q0 -2.0625 -1.046875 -3.203125q-1.03125 -1.140625 -2.609375 -1.140625q-1.21875 0 -2.21875 0.578125q-1.0 0.578125 -1.8125 1.703125q-0.8125 1.109375 -1.1875 2.59375q-0.375 1.484375 -0.375 2.640625zm13.248413 6.03125l3.1875 -15.203125l2.28125 0l-0.640625 3.109375q1.171875 -1.765625 2.296875 -2.609375q1.125 -0.84375 2.296875 -0.84375q0.78125 0 1.90625 0.546875l-1.0625 2.40625q-0.671875 -0.484375 -1.46875 -0.484375q-1.359375 0 -2.796875 1.53125q-1.421875 1.515625 -2.25 5.453125l-1.28125 6.09375l-2.46875 0z" fill-rule="nonzero"/><path fill="#434343" d="m835.89886 185.1185l-1.5 7.125l4.171875 0q0.984375 0 1.328125 0.3125q0.34375 0.296875 0.34375 0.84375q0 0.890625 -0.84375 1.484375q-0.4375 0.296875 -1.453125 0.296875l-8.875 0q-0.96875 0 -1.328125 -0.296875q-0.34375 -0.3125 -0.34375 -0.859375q0 -0.890625 0.828125 -1.46875q0.453125 -0.3125 1.484375 -0.3125l1.75 0l1.5 -7.125l-1.390625 0q-0.984375 0 -1.34375 -0.3125q-0.34375 -0.3125 -0.34375 -0.859375q0 -0.859375 0.8125 -1.4375q0.453125 -0.328125 1.484375 -0.328125l1.421875 0l0.234375 -1.125q0.40625 -1.9375 2.109375 -3.1875q1.71875 -1.265625 4.4375 -1.265625q1.0625 0 2.609375 0.203125q1.546875 0.203125 1.9375 0.53125q0.40625 0.328125 0.40625 0.84375q0 0.71875 -0.53125 1.28125q-0.53125 0.546875 -1.203125 0.546875q-0.265625 0 -0.8125 -0.109375q-1.75 -0.359375 -3.140625 -0.359375q-1.453125 0 -2.09375 0.4375q-0.640625 0.4375 -0.78125 1.078125l-0.234375 1.125l4.515625 0q0.984375 0 1.328125 0.3125q0.359375 0.296875 0.359375 0.84375q0 0.875 -0.84375 1.46875q-0.4375 0.3125 -1.46875 0.3125l-4.53125 0zm18.115356 10.0625l0.15625 -0.6875q-2.453125 1.15625 -5.1875 1.15625q-2.03125 0 -3.234375 -1.03125q-1.203125 -1.03125 -1.203125 -2.34375q0 -1.078125 0.828125 -2.265625q1.109375 -1.609375 3.0625 -2.484375q1.953125 -0.890625 4.34375 -0.890625q1.3125 0 3.0 0.28125l0.140625 -0.703125q0.03125 -0.140625 0.03125 -0.28125q0 -0.53125 -0.40625 -0.8125q-0.546875 -0.390625 -2.03125 -0.390625q-1.34375 0 -3.46875 0.515625q-0.8125 0.1875 -1.265625 0.1875q-0.46875 0 -0.796875 -0.3125q-0.3125 -0.3125 -0.3125 -0.828125q0 -0.71875 0.453125 -1.1875q0.46875 -0.46875 2.515625 -0.890625q2.0625 -0.421875 3.53125 -0.421875q2.40625 0 3.59375 1.0q1.203125 0.984375 1.203125 2.421875q0 0.453125 -0.09375 0.984375l-1.28125 6.046875l0.5 0q0.984375 0 1.328125 0.3125q0.34375 0.296875 0.34375 0.84375q0 0.890625 -0.84375 1.484375q-0.453125 0.296875 -1.453125 0.296875l-3.453125 0zm1.125 -5.25q-1.671875 -0.34375 -3.1875 -0.34375q-1.9375 0 -3.515625 1.046875q-0.90625 0.578125 -0.90625 1.109375q0 0.4375 0.625 0.71875q0.625 0.265625 1.59375 0.265625q1.015625 0 2.453125 -0.40625q1.453125 -0.40625 2.65625 -1.140625l0.28125 -1.25zm21.084167 -7.21875q0.640625 -0.5 1.1875 -0.5q0.5 0 0.828125 0.328125q0.34375 0.3125 0.34375 0.75q0 0.28125 -0.125 0.859375l-0.40625 1.890625q-0.234375 1.0625 -0.734375 1.515625q-0.5 0.4375 -1.15625 0.4375q-0.625 0 -0.953125 -0.34375q-0.25 -0.265625 -0.25 -1.046875q0 -0.78125 -0.53125 -1.171875q-1.015625 -0.703125 -2.84375 -0.703125q-2.828125 0 -4.46875 2.109375q-1.140625 1.4375 -1.140625 3.0625q0 1.28125 1.0 2.0625q1.0 0.765625 3.515625 0.765625q1.796875 0 3.046875 -0.375q0.75 -0.21875 1.484375 -0.765625q0.734375 -0.5625 1.234375 -0.5625q0.515625 0 0.84375 0.34375q0.34375 0.34375 0.34375 0.859375q0 1.03125 -1.40625 1.9375q-2.359375 1.5 -6.453125 1.5q-3.390625 0 -5.0 -1.421875q-1.609375 -1.4375 -1.609375 -3.671875q0 -2.109375 1.21875 -4.25q1.234375 -2.140625 3.390625 -3.328125q2.15625 -1.203125 4.640625 -1.203125q1.203125 0 2.203125 0.234375q1.0 0.21875 1.796875 0.6875zm11.443481 2.40625l-1.25 5.875q-0.09375 0.453125 -0.09375 0.734375q0 0.390625 0.34375 0.625q0.578125 0.359375 1.890625 0.359375q2.265625 0 4.390625 -0.953125q0.8125 -0.375 1.21875 -0.375q0.5 0 0.8125 0.328125q0.3125 0.3125 0.3125 0.828125q0 0.671875 -0.53125 1.1875q-0.765625 0.703125 -3.015625 1.3125q-2.25 0.609375 -3.90625 0.609375q-1.359375 0 -2.59375 -0.453125q-0.890625 -0.328125 -1.4375 -1.046875q-0.546875 -0.71875 -0.546875 -1.640625q0 -0.484375 0.109375 -0.9375l1.375 -6.453125l-1.078125 0q-0.984375 0 -1.328125 -0.3125q-0.34375 -0.3125 -0.34375 -0.859375q0 -0.859375 0.828125 -1.453125q0.4375 -0.3125 1.46875 -0.3125l1.0625 0l0.578125 -2.65625q0.203125 -1.0625 0.703125 -1.5q0.515625 -0.453125 1.1875 -0.453125q0.5 0 0.828125 0.328125q0.34375 0.3125 0.34375 0.734375q0 0.3125 -0.140625 0.890625l-0.5625 2.65625l5.421875 0q0.984375 0 1.328125 0.3125q0.359375 0.296875 0.359375 0.859375q0 0.84375 -0.8125 1.4375q-0.453125 0.328125 -1.484375 0.328125l-5.4375 0zm16.474731 10.53125q-1.8125 0 -3.3125 -0.734375q-1.5 -0.734375 -2.25 -1.984375q-0.75 -1.265625 -0.75 -2.765625q0 -1.84375 1.25 -3.90625q1.265625 -2.0625 3.515625 -3.265625q2.25 -1.203125 4.578125 -1.203125q1.6875 0 3.15625 0.78125q1.46875 0.765625 2.21875 2.0625q0.75 1.296875 0.75 2.84375q0 2.0 -1.1875 3.921875q-1.1875 1.90625 -3.4375 3.078125q-2.25 1.171875 -4.53125 1.171875zm0.59375 -2.9375q2.25 0 3.890625 -1.4375q1.65625 -1.4375 1.65625 -3.015625q0 -1.53125 -1.046875 -2.53125q-1.046875 -1.0 -2.78125 -1.0q-2.453125 0 -4.21875 1.828125q-1.40625 1.484375 -1.40625 2.953125q0 1.25 1.078125 2.234375q1.09375 0.96875 2.828125 0.96875zm19.224731 -10.53125l-0.390625 1.828125q2.15625 -1.34375 3.296875 -1.78125q1.15625 -0.4375 2.09375 -0.4375q1.265625 0 2.21875 0.78125q0.953125 0.78125 0.953125 1.421875q0 0.703125 -0.5625 1.265625q-0.5625 0.5625 -1.265625 0.5625q-0.546875 0 -1.03125 -0.546875q-0.484375 -0.546875 -0.953125 -0.546875q-0.53125 0 -1.71875 0.609375q-1.1875 0.59375 -3.84375 2.484375l-0.9375 4.421875l4.171875 0q0.984375 0 1.328125 0.3125q0.34375 0.296875 0.34375 0.84375q0 0.890625 -0.84375 1.484375q-0.4375 0.296875 -1.4375 0.296875l-8.875 0q-0.984375 0 -1.34375 -0.296875q-0.34375 -0.3125 -0.34375 -0.859375q0 -0.890625 0.828125 -1.46875q0.46875 -0.3125 1.484375 -0.3125l1.765625 0l1.5 -7.125l-1.0625 0q-0.96875 0 -1.328125 -0.3125q-0.359375 -0.3125 -0.359375 -0.859375q0 -0.859375 0.8125 -1.4375q0.453125 -0.328125 1.5 -0.328125l4.0 0z" fill-rule="nonzero"/><path fill="#434343" d="m345.81436 220.60287q1.578125 0 3.09375 0.8125q1.515625 0.8125 2.359375 2.34375q0.859375 1.515625 0.859375 3.140625q0 2.625 -1.859375 4.46875q-1.84375 1.84375 -4.453125 1.84375q-2.609375 0 -4.46875 -1.84375q-1.84375 -1.84375 -1.84375 -4.46875q0 -1.640625 0.84375 -3.15625q0.84375 -1.515625 2.359375 -2.328125q1.53125 -0.8125 3.109375 -0.8125z" fill-rule="nonzero"/><path fill="#434343" d="m385.32553 235.181l3.890625 -18.609375l-6.890625 0l0.5 -2.390625l16.515625 0l-0.5 2.390625l-6.828125 0l-3.875 18.609375l-2.8125 0zm12.227295 0l4.390625 -21.0l2.59375 0l-1.6875 8.0625q1.453125 -1.390625 2.6875 -2.0q1.25 -0.609375 2.578125 -0.609375q1.890625 0 2.9375 1.0q1.046875 0.984375 1.046875 2.625q0 0.796875 -0.46875 2.9375l-1.875 8.984375l-2.59375 0l1.9375 -9.203125q0.421875 -2.015625 0.421875 -2.53125q0 -0.734375 -0.515625 -1.203125q-0.515625 -0.484375 -1.5 -0.484375q-1.40625 0 -2.6875 0.75q-1.265625 0.734375 -1.984375 2.015625q-0.71875 1.28125 -1.328125 4.125l-1.359375 6.53125l-2.59375 0zm27.482788 -5.171875l2.53125 0.265625q-0.546875 1.875 -2.515625 3.5625q-1.953125 1.6875 -4.65625 1.6875q-1.6875 0 -3.09375 -0.78125q-1.40625 -0.78125 -2.15625 -2.265625q-0.734375 -1.5 -0.734375 -3.390625q0 -2.5 1.15625 -4.84375q1.15625 -2.34375 2.984375 -3.46875q1.828125 -1.140625 3.96875 -1.140625q2.71875 0 4.34375 1.6875q1.625 1.6875 1.625 4.609375q0 1.109375 -0.203125 2.296875l-11.1875 0q-0.0625 0.4375 -0.0625 0.796875q0 2.125 0.96875 3.25q0.984375 1.125 2.40625 1.125q1.328125 0 2.609375 -0.859375q1.296875 -0.875 2.015625 -2.53125zm-7.53125 -3.765625l8.53125 0q0.015625 -0.40625 0.015625 -0.578125q0 -1.9375 -0.96875 -2.96875q-0.96875 -1.046875 -2.5 -1.046875q-1.671875 0 -3.046875 1.15625q-1.359375 1.140625 -2.03125 3.4375zm23.709229 8.9375l-1.578125 -15.203125l2.484375 0l0.6875 6.828125l0.28125 3.828125q0.015625 0.4375 0.078125 1.734375q0.4375 -1.453125 0.734375 -2.234375q0.296875 -0.78125 0.953125 -2.234375l3.625 -7.921875l2.828125 0l0.5 7.59375q0.109375 1.734375 0.140625 4.625q0.71875 -1.90625 2.328125 -5.328125l3.265625 -6.890625l2.59375 0l-7.4375 15.203125l-2.6875 0l-0.5625 -8.921875q-0.0625 -0.828125 -0.09375 -3.234375q-0.59375 1.53125 -1.390625 3.3125l-4.015625 8.84375l-2.734375 0zm18.289215 0l4.390625 -21.0l2.59375 0l-1.6875 8.0625q1.453125 -1.390625 2.6875 -2.0q1.25 -0.609375 2.578125 -0.609375q1.890625 0 2.9375 1.0q1.046875 0.984375 1.046875 2.625q0 0.796875 -0.46875 2.9375l-1.875 8.984375l-2.59375 0l1.9375 -9.203125q0.421875 -2.015625 0.421875 -2.53125q0 -0.734375 -0.515625 -1.203125q-0.515625 -0.484375 -1.5 -0.484375q-1.40625 0 -2.6875 0.75q-1.265625 0.734375 -1.984375 2.015625q-0.71875 1.28125 -1.328125 4.125l-1.359375 6.53125l-2.59375 0zm16.779663 -5.765625q0 -4.453125 2.609375 -7.375q2.171875 -2.40625 5.671875 -2.40625q2.75 0 4.4375 1.71875q1.6875 1.71875 1.6875 4.640625q0 2.609375 -1.0625 4.875q-1.0625 2.25 -3.015625 3.453125q-1.953125 1.203125 -4.125 1.203125q-1.765625 0 -3.21875 -0.75q-1.453125 -0.765625 -2.21875 -2.15625q-0.765625 -1.390625 -0.765625 -3.203125zm2.59375 -0.265625q0 2.15625 1.03125 3.265625q1.03125 1.109375 2.609375 1.109375q0.828125 0 1.640625 -0.328125q0.828125 -0.34375 1.53125 -1.03125q0.703125 -0.6875 1.1875 -1.5625q0.5 -0.890625 0.796875 -1.90625q0.453125 -1.421875 0.453125 -2.71875q0 -2.0625 -1.046875 -3.203125q-1.03125 -1.140625 -2.609375 -1.140625q-1.21875 0 -2.21875 0.578125q-1.0 0.578125 -1.8125 1.703125q-0.8125 1.109375 -1.1875 2.59375q-0.375 1.484375 -0.375 2.640625zm13.045288 6.03125l4.390625 -21.0l2.59375 0l-4.390625 21.0l-2.59375 0zm17.890778 -5.171875l2.5312195 0.265625q-0.5468445 1.875 -2.5155945 3.5625q-1.953125 1.6875 -4.65625 1.6875q-1.6875 0 -3.09375 -0.78125q-1.40625 -0.78125 -2.15625 -2.265625q-0.734375 -1.5 -0.734375 -3.390625q0 -2.5 1.15625 -4.84375q1.15625 -2.34375 2.984375 -3.46875q1.828125 -1.140625 3.96875 -1.140625q2.71875 0 4.34375 1.6875q1.6249695 1.6875 1.6249695 4.609375q0 1.109375 -0.203125 2.296875l-11.1874695 0q-0.0625 0.4375 -0.0625 0.796875q0 2.125 0.96875 3.25q0.984375 1.125 2.40625 1.125q1.328125 0 2.609375 -0.859375q1.296875 -0.875 2.015625 -2.53125zm-7.53125 -3.765625l8.53125 0q0.015625 -0.40625 0.015625 -0.578125q0 -1.9375 -0.96875 -2.96875q-0.96875 -1.046875 -2.5 -1.046875q-1.671875 0 -3.046875 1.15625q-1.359375 1.140625 -2.03125 3.4375zm26.881073 6.828125l-0.421875 2.125q-0.9375 0.234375 -1.8125 0.234375q-1.546875 0 -2.46875 -0.75q-0.6875 -0.578125 -0.6875 -1.5625q0 -0.5 0.375 -2.3125l1.84375 -8.828125l-2.046875 0l0.421875 -2.0l2.046875 0l0.78125 -3.75l2.96875 -1.78125l-1.15625 5.53125l2.546875 0l-0.421875 2.0l-2.546875 0l-1.75 8.40625q-0.328125 1.609375 -0.328125 1.921875q0 0.453125 0.25 0.703125q0.265625 0.234375 0.875 0.234375q0.859375 0 1.53125 -0.171875zm2.0858154 2.109375l4.390625 -21.0l2.59375 0l-1.6875 8.0625q1.453125 -1.390625 2.6875 -2.0q1.25 -0.609375 2.578125 -0.609375q1.890625 0 2.9375 1.0q1.046875 0.984375 1.046875 2.625q0 0.796875 -0.46875 2.9375l-1.875 8.984375l-2.59375 0l1.9375 -9.203125q0.421875 -2.015625 0.421875 -2.53125q0 -0.734375 -0.515625 -1.203125q-0.515625 -0.484375 -1.5 -0.484375q-1.40625 0 -2.6875 0.75q-1.265625 0.734375 -1.984375 2.015625q-0.71875 1.28125 -1.328125 4.125l-1.359375 6.53125l-2.59375 0zm19.998413 -18.0625l0.609375 -2.9375l2.578125 0l-0.609375 2.9375l-2.578125 0zm-3.78125 18.0625l3.171875 -15.203125l2.59375 0l-3.171875 15.203125l-2.59375 0zm6.609497 0l3.1875 -15.203125l2.34375 0l-0.5625 2.640625q1.53125 -1.5625 2.859375 -2.265625q1.34375 -0.71875 2.734375 -0.71875q1.84375 0 2.890625 1.0q1.0625 1.0 1.0625 2.671875q0 0.84375 -0.375 2.671875l-1.9375 9.203125l-2.59375 0l2.03125 -9.640625q0.296875 -1.40625 0.296875 -2.078125q0 -0.75 -0.53125 -1.21875q-0.515625 -0.484375 -1.5 -0.484375q-2.0 0 -3.5625 1.4375q-1.546875 1.4375 -2.265625 4.90625l-1.484375 7.078125l-2.59375 0zm16.170288 1.375l2.625 0.25q-0.03125 0.875 0.203125 1.3125q0.25 0.453125 0.78125 0.703125q0.703125 0.3125 1.828125 0.3125q2.343811 0 3.375061 -1.21875q0.671875 -0.8125 1.25 -3.546875l0.25 -1.234375q-2.015625 2.046875 -4.296936 2.046875q-2.296875 0 -3.859375 -1.6875q-1.546875 -1.703125 -1.546875 -4.8125q0 -2.5625 1.21875 -4.703125q1.21875 -2.15625 2.90625 -3.25q1.703125 -1.09375 3.484436 -1.09375q3.0 0 4.609375 2.828125l0.515625 -2.484375l2.375 0l-3.0625 14.671875q-0.5 2.421875 -1.3125 3.765625q-0.8125 1.359375 -2.265625 2.109375q-1.453125 0.75 -3.359436 0.75q-1.828125 0 -3.15625 -0.484375q-1.328125 -0.46875 -1.984375 -1.375q-0.640625 -0.90625 -0.640625 -2.09375q0 -0.34375 0.0625 -0.765625zm3.234375 -8.109375q0 1.5625 0.3125 2.359375q0.421875 1.09375 1.21875 1.671875q0.796875 0.578125 1.765625 0.578125q1.281311 0 2.531311 -0.890625q1.265625 -0.890625 2.046875 -2.765625q0.78125 -1.875 0.78125 -3.578125q0 -1.875 -1.046875 -2.984375q-1.03125 -1.125 -2.5625 -1.125q-0.95318604 0 -1.843811 0.515625q-0.875 0.515625 -1.640625 1.546875q-0.765625 1.03125 -1.171875 2.484375q-0.390625 1.453125 -0.390625 2.1875zm25.052979 -11.328125l0.609375 -2.9375l2.578125 0l-0.609375 2.9375l-2.578125 0zm-3.78125 18.0625l3.171875 -15.203125l2.59375 0l-3.171875 15.203125l-2.59375 0zm6.859558 -5.203125l2.59375 -0.15625q0 1.125 0.34375 1.921875q0.34375 0.78125 1.265625 1.28125q0.921875 0.5 2.15625 0.5q1.71875 0 2.578125 -0.6875q0.859375 -0.6875 0.859375 -1.625q0 -0.671875 -0.515625 -1.265625q-0.53125 -0.609375 -2.59375 -1.484375q-2.046875 -0.890625 -2.625 -1.25q-0.953125 -0.578125 -1.453125 -1.375q-0.484375 -0.796875 -0.484375 -1.828125q0 -1.796875 1.4375 -3.078125q1.4375 -1.296875 4.015625 -1.296875q2.859375 0 4.359375 1.328125q1.5 1.3125 1.546875 3.484375l-2.53125 0.171875q-0.0625 -1.375 -0.984375 -2.171875q-0.90625 -0.8125 -2.578125 -0.8125q-1.34375 0 -2.09375 0.625q-0.75 0.609375 -0.75 1.328125q0 0.703125 0.65625 1.25q0.421875 0.375 2.21875 1.15625q2.96875 1.28125 3.75 2.03125q1.234375 1.1875 1.234375 2.890625q0 1.125 -0.703125 2.21875q-0.6875 1.09375 -2.125 1.75q-1.421875 0.640625 -3.34375 0.640625q-2.640625 0 -4.484375 -1.296875q-1.859375 -1.3125 -1.75 -4.25zm32.828003 3.3125q-1.359375 1.15625 -2.609375 1.703125q-1.234375 0.53125 -2.65625 0.53125q-2.109375 0 -3.40625 -1.234375q-1.28125 -1.25 -1.28125 -3.171875q0 -1.28125 0.578125 -2.25q0.59375 -0.984375 1.546875 -1.578125q0.96875 -0.59375 2.34375 -0.859375q0.875 -0.171875 3.3125 -0.265625q2.453125 -0.109375 3.515625 -0.515625q0.296875 -1.0625 0.296875 -1.765625q0 -0.90625 -0.65625 -1.421875q-0.90625 -0.71875 -2.640625 -0.71875q-1.625 0 -2.671875 0.734375q-1.03125 0.71875 -1.5 2.046875l-2.625 -0.234375q0.796875 -2.25 2.53125 -3.453125q1.75 -1.203125 4.390625 -1.203125q2.828125 0 4.46875 1.34375q1.265625 1.0 1.265625 2.609375q0 1.21875 -0.359375 2.8125l-0.84375 3.78125q-0.40625 1.8125 -0.40625 2.9375q0 0.71875 0.328125 2.0625l-2.625 0q-0.21875 -0.75 -0.296875 -1.890625zm0.953125 -5.8125q-0.546875 0.21875 -1.171875 0.328125q-0.625 0.109375 -2.078125 0.25q-2.265625 0.1875 -3.203125 0.5q-0.921875 0.3125 -1.40625 0.984375q-0.46875 0.671875 -0.46875 1.484375q0 1.09375 0.75 1.796875q0.765625 0.703125 2.15625 0.703125q1.28125 0 2.46875 -0.671875q1.1875 -0.6875 1.875 -1.90625q0.6875 -1.21875 1.078125 -3.46875zm13.9904785 7.703125q0.40625 -1.875 1.109375 -3.140625q0.703125 -1.265625 1.875 -2.40625q1.1875 -1.140625 4.53125 -3.8125q2.03125 -1.625 2.78125 -2.390625q1.078125 -1.125 1.5625 -2.203125q0.328125 -0.71875 0.328125 -1.578125q0 -1.453125 -1.03125 -2.453125q-1.015625 -1.015625 -2.5 -1.015625q-1.484375 0 -2.59375 1.03125q-1.09375 1.015625 -1.5625 3.28125l-2.53125 -0.375q0.359375 -2.796875 2.15625 -4.40625q1.796875 -1.609375 4.484375 -1.609375q1.78125 0 3.234375 0.75q1.453125 0.734375 2.1875 2.09375q0.734375 1.34375 0.734375 2.765625q0 2.09375 -1.484375 4.03125q-0.921875 1.203125 -5.390625 4.734375q-1.921875 1.515625 -2.859375 2.5q-0.9375 0.96875 -1.40625 1.828125l9.390625 0l-0.5 2.375l-12.515625 0zm15.951538 -6.296875l0.546875 -2.59375l7.90625 0l-0.53125 2.59375l-7.921875 0zm19.64148 4.09375q-2.234375 2.546875 -4.640625 2.546875q-2.171875 0 -3.609375 -1.59375q-1.4375 -1.59375 -1.4375 -4.640625q0 -2.765625 1.140625 -5.0625q1.140625 -2.3125 2.84375 -3.453125q1.71875 -1.140625 3.4375 -1.140625q2.828125 0 4.28125 2.734375l1.71875 -8.1875l2.578125 0l-4.390625 21.0l-2.390625 0l0.46875 -2.203125zm-7.109375 -4.171875q0 1.59375 0.3125 2.515625q0.3125 0.90625 1.0625 1.515625q0.765625 0.609375 1.828125 0.609375q1.765625 0 3.203125 -1.828125q1.90625 -2.4375 1.90625 -6.015625q0 -1.8125 -0.953125 -2.828125q-0.9375 -1.015625 -2.359375 -1.015625q-0.9375 0 -1.703125 0.421875q-0.765625 0.40625 -1.515625 1.40625q-0.75 1.0 -1.265625 2.53125q-0.515625 1.53125 -0.515625 2.6875zm16.842163 -11.6875l0.609375 -2.9375l2.578125 0l-0.609375 2.9375l-2.578125 0zm-3.78125 18.0625l3.171875 -15.203125l2.59375 0l-3.171875 15.203125l-2.59375 0zm6.593872 0l3.1875 -15.203125l2.59375 0l-0.53125 2.5q1.4375 -1.625 2.578125 -2.234375q1.140625 -0.609375 2.46875 -0.609375q1.421875 0 2.375 0.75q0.953125 0.75 1.25 2.09375q1.15625 -1.4375 2.4375 -2.140625q1.296875 -0.703125 2.703125 -0.703125q1.90625 0 2.859375 0.90625q0.953125 0.890625 0.953125 2.53125q0 0.703125 -0.328125 2.3125l-2.046875 9.796875l-2.59375 0l2.09375 -10.046875q0.265625 -1.234375 0.265625 -1.765625q0 -0.75 -0.46875 -1.171875q-0.46875 -0.4375 -1.328125 -0.4375q-1.15625 0 -2.359375 0.703125q-1.203125 0.703125 -1.875 1.84375q-0.671875 1.140625 -1.171875 3.5l-1.546875 7.375l-2.59375 0l2.15625 -10.265625q0.234375 -1.046875 0.234375 -1.484375q0 -0.75 -0.46875 -1.203125q-0.46875 -0.46875 -1.21875 -0.46875q-1.09375 0 -2.3125 0.703125q-1.203125 0.703125 -1.96875 1.953125q-0.75 1.25 -1.234375 3.578125l-1.515625 7.1875l-2.59375 0zm35.618103 -5.171875l2.53125 0.265625q-0.546875 1.875 -2.515625 3.5625q-1.953125 1.6875 -4.65625 1.6875q-1.6875 0 -3.09375 -0.78125q-1.40625 -0.78125 -2.15625 -2.265625q-0.734375 -1.5 -0.734375 -3.390625q0 -2.5 1.15625 -4.84375q1.15625 -2.34375 2.984375 -3.46875q1.828125 -1.140625 3.96875 -1.140625q2.71875 0 4.34375 1.6875q1.625 1.6875 1.625 4.609375q0 1.109375 -0.203125 2.296875l-11.1875 0q-0.0625 0.4375 -0.0625 0.796875q0 2.125 0.96875 3.25q0.984375 1.125 2.40625 1.125q1.328125 0 2.609375 -0.859375q1.296875 -0.875 2.015625 -2.53125zm-7.53125 -3.765625l8.53125 0q0.015625 -0.40625 0.015625 -0.578125q0 -1.9375 -0.96875 -2.96875q-0.96875 -1.046875 -2.5 -1.046875q-1.671875 0 -3.046875 1.15625q-1.359375 1.140625 -2.03125 3.4375zm12.670288 8.9375l3.1875 -15.203125l2.34375 0l-0.5625 2.640625q1.53125 -1.5625 2.859375 -2.265625q1.34375 -0.71875 2.734375 -0.71875q1.84375 0 2.890625 1.0q1.0625 1.0 1.0625 2.671875q0 0.84375 -0.375 2.671875l-1.9375 9.203125l-2.59375 0l2.03125 -9.640625q0.296875 -1.40625 0.296875 -2.078125q0 -0.75 -0.53125 -1.21875q-0.515625 -0.484375 -1.5 -0.484375q-2.0 0 -3.5625 1.4375q-1.546875 1.4375 -2.265625 4.90625l-1.484375 7.078125l-2.59375 0zm16.560913 -5.203125l2.59375 -0.15625q0 1.125 0.34375 1.921875q0.34375 0.78125 1.265625 1.28125q0.921875 0.5 2.15625 0.5q1.71875 0 2.578125 -0.6875q0.859375 -0.6875 0.859375 -1.625q0 -0.671875 -0.515625 -1.265625q-0.53125 -0.609375 -2.59375 -1.484375q-2.046875 -0.890625 -2.625 -1.25q-0.953125 -0.578125 -1.453125 -1.375q-0.484375 -0.796875 -0.484375 -1.828125q0 -1.796875 1.4375 -3.078125q1.4375 -1.296875 4.015625 -1.296875q2.859375 0 4.359375 1.328125q1.5 1.3125 1.546875 3.484375l-2.53125 0.171875q-0.0625 -1.375 -0.984375 -2.171875q-0.90625 -0.8125 -2.578125 -0.8125q-1.34375 0 -2.09375 0.625q-0.75 0.609375 -0.75 1.328125q0 0.703125 0.65625 1.25q0.421875 0.375 2.21875 1.15625q2.96875 1.28125 3.75 2.03125q1.234375 1.1875 1.234375 2.890625q0 1.125 -0.703125 2.21875q-0.6875 1.09375 -2.125 1.75q-1.421875 0.640625 -3.34375 0.640625q-2.640625 0 -4.484375 -1.296875q-1.859375 -1.3125 -1.75 -4.25zm18.101562 -12.859375l0.609375 -2.9375l2.578125 0l-0.609375 2.9375l-2.578125 0zm-3.78125 18.0625l3.171875 -15.203125l2.59375 0l-3.171875 15.203125l-2.59375 0zm7.078247 -5.765625q0 -4.453125 2.609375 -7.375q2.171875 -2.40625 5.671875 -2.40625q2.75 0 4.4375 1.71875q1.6875 1.71875 1.6875 4.640625q0 2.609375 -1.0625 4.875q-1.0625 2.25 -3.015625 3.453125q-1.953125 1.203125 -4.125 1.203125q-1.765625 0 -3.21875 -0.75q-1.453125 -0.765625 -2.21875 -2.15625q-0.765625 -1.390625 -0.765625 -3.203125zm2.59375 -0.265625q0 2.15625 1.03125 3.265625q1.03125 1.109375 2.609375 1.109375q0.828125 0 1.640625 -0.328125q0.828125 -0.34375 1.53125 -1.03125q0.703125 -0.6875 1.1875 -1.5625q0.5 -0.890625 0.796875 -1.90625q0.453125 -1.421875 0.453125 -2.71875q0 -2.0625 -1.046875 -3.203125q-1.03125 -1.140625 -2.609375 -1.140625q-1.21875 0 -2.21875 0.578125q-1.0 0.578125 -1.8125 1.703125q-0.8125 1.109375 -1.1875 2.59375q-0.375 1.484375 -0.375 2.640625zm13.248413 6.03125l3.1875 -15.203125l2.34375 0l-0.5625 2.640625q1.53125 -1.5625 2.859375 -2.265625q1.34375 -0.71875 2.734375 -0.71875q1.84375 0 2.890625 1.0q1.0625 1.0 1.0625 2.671875q0 0.84375 -0.375 2.671875l-1.9375 9.203125l-2.59375 0l2.03125 -9.640625q0.296875 -1.40625 0.296875 -2.078125q0 -0.75 -0.53125 -1.21875q-0.515625 -0.484375 -1.5 -0.484375q-2.0 0 -3.5625 1.4375q-1.546875 1.4375 -2.265625 4.90625l-1.484375 7.078125l-2.59375 0zm26.576538 -1.890625q-1.359375 1.15625 -2.609375 1.703125q-1.234375 0.53125 -2.65625 0.53125q-2.109375 0 -3.40625 -1.234375q-1.28125 -1.25 -1.28125 -3.171875q0 -1.28125 0.578125 -2.25q0.59375 -0.984375 1.546875 -1.578125q0.96875 -0.59375 2.34375 -0.859375q0.875 -0.171875 3.3125 -0.265625q2.453125 -0.109375 3.515625 -0.515625q0.296875 -1.0625 0.296875 -1.765625q0 -0.90625 -0.65625 -1.421875q-0.90625 -0.71875 -2.640625 -0.71875q-1.625 0 -2.671875 0.734375q-1.03125 0.71875 -1.5 2.046875l-2.625 -0.234375q0.796875 -2.25 2.53125 -3.453125q1.75 -1.203125 4.390625 -1.203125q2.828125 0 4.46875 1.34375q1.265625 1.0 1.265625 2.609375q0 1.21875 -0.359375 2.8125l-0.84375 3.78125q-0.40625 1.8125 -0.40625 2.9375q0 0.71875 0.328125 2.0625l-2.625 0q-0.21875 -0.75 -0.296875 -1.890625zm0.953125 -5.8125q-0.546875 0.21875 -1.171875 0.328125q-0.625 0.109375 -2.078125 0.25q-2.265625 0.1875 -3.203125 0.5q-0.921875 0.3125 -1.40625 0.984375q-0.46875 0.671875 -0.46875 1.484375q0 1.09375 0.75 1.796875q0.765625 0.703125 2.15625 0.703125q1.28125 0 2.46875 -0.671875q1.1875 -0.6875 1.875 -1.90625q0.6875 -1.21875 1.078125 -3.46875zm4.889038 7.703125l4.390625 -21.0l2.59375 0l-4.390625 21.0l-2.59375 0zm15.335999 -5.765625q0 -4.453125 2.609375 -7.375q2.171875 -2.40625 5.671875 -2.40625q2.75 0 4.4375 1.71875q1.6875 1.71875 1.6875 4.640625q0 2.609375 -1.0625 4.875q-1.0625 2.25 -3.015625 3.453125q-1.953125 1.203125 -4.125 1.203125q-1.765625 0 -3.21875 -0.75q-1.453125 -0.765625 -2.21875 -2.15625q-0.765625 -1.390625 -0.765625 -3.203125zm2.59375 -0.265625q0 2.15625 1.03125 3.265625q1.03125 1.109375 2.609375 1.109375q0.828125 0 1.640625 -0.328125q0.828125 -0.34375 1.53125 -1.03125q0.703125 -0.6875 1.1875 -1.5625q0.5 -0.890625 0.796875 -1.90625q0.453125 -1.421875 0.453125 -2.71875q0 -2.0625 -1.046875 -3.203125q-1.03125 -1.140625 -2.609375 -1.140625q-1.21875 0 -2.21875 0.578125q-1.0 0.578125 -1.8125 1.703125q-0.8125 1.109375 -1.1875 2.59375q-0.375 1.484375 -0.375 2.640625zm13.248413 6.03125l4.390625 -21.0l2.59375 0l-1.5625 7.515625q1.234375 -1.140625 2.234375 -1.59375q1.0 -0.46875 2.09375 -0.46875q2.125 0 3.546875 1.59375q1.421875 1.578125 1.421875 4.609375q0 2.03125 -0.578125 3.703125q-0.5625 1.671875 -1.40625 2.8125q-0.84375 1.140625 -1.75 1.828125q-0.890625 0.671875 -1.84375 1.0q-0.9375 0.34375 -1.8125 0.34375q-1.515625 0 -2.65625 -0.796875q-1.140625 -0.796875 -1.78125 -2.421875l-0.609375 2.875l-2.28125 0zm3.84375 -6.25l-0.015625 0.5q0 1.9375 0.921875 2.953125q0.9375 1.015625 2.328125 1.015625q1.359375 0 2.5 -0.953125q1.140625 -0.953125 1.859375 -2.96875q0.734375 -2.015625 0.734375 -3.71875q0 -1.921875 -0.921875 -2.984375q-0.921875 -1.0625 -2.28125 -1.0625q-1.40625 0 -2.578125 1.09375q-1.171875 1.078125 -1.953125 3.328125q-0.59375 1.671875 -0.59375 2.796875zm16.154663 -11.8125l0.609375 -2.9375l2.5625 0l-0.609375 2.9375l-2.5625 0zm-8.203125 23.78125l0.453125 -2.203125q0.890625 0.234375 1.578125 0.234375q0.828125 0 1.328125 -0.546875q0.484375 -0.546875 1.015625 -3.0625l3.203125 -15.34375l2.578125 0l-3.28125 15.8125q-0.625 2.96875 -1.421875 4.046875q-1.078125 1.4375 -3.0 1.4375q-1.015625 0 -2.453125 -0.375zm22.203308 -10.890625l2.53125 0.265625q-0.546875 1.875 -2.515625 3.5625q-1.953125 1.6875 -4.65625 1.6875q-1.6875 0 -3.09375 -0.78125q-1.40625 -0.78125 -2.15625 -2.265625q-0.734375 -1.5 -0.734375 -3.390625q0 -2.5 1.15625 -4.84375q1.15625 -2.34375 2.984375 -3.46875q1.828125 -1.140625 3.96875 -1.140625q2.71875 0 4.34375 1.6875q1.625 1.6875 1.625 4.609375q0 1.109375 -0.203125 2.296875l-11.1875 0q-0.0625 0.4375 -0.0625 0.796875q0 2.125 0.96875 3.25q0.984375 1.125 2.40625 1.125q1.328125 0 2.609375 -0.859375q1.296875 -0.875 2.015625 -2.53125zm-7.53125 -3.765625l8.53125 0q0.015625 -0.40625 0.015625 -0.578125q0 -1.9375 -0.96875 -2.96875q-0.96875 -1.046875 -2.5 -1.046875q-1.671875 0 -3.046875 1.15625q-1.359375 1.140625 -2.03125 3.4375zm23.170288 3.390625l2.59375 0.28125q-0.96875 2.84375 -2.765625 4.234375q-1.796875 1.375 -4.09375 1.375q-2.484375 0 -4.03125 -1.59375q-1.53125 -1.609375 -1.53125 -4.5q0 -2.484375 0.984375 -4.890625q1.0 -2.40625 2.828125 -3.65625q1.84375 -1.25 4.21875 -1.25q2.4375 0 3.875 1.390625q1.4375 1.375 1.4375 3.640625l-2.546875 0.171875q-0.015625 -1.4375 -0.84375 -2.25q-0.828125 -0.828125 -2.171875 -0.828125q-1.5625 0 -2.703125 1.0q-1.140625 0.984375 -1.796875 3.0q-0.65625 2.0 -0.65625 3.859375q0 1.953125 0.859375 2.9375q0.859375 0.96875 2.125 0.96875q1.25 0 2.40625 -0.953125q1.15625 -0.96875 1.8125 -2.9375zm10.2265625 3.4375l-0.421875 2.125q-0.9375 0.234375 -1.8125 0.234375q-1.546875 0 -2.46875 -0.75q-0.6875 -0.578125 -0.6875 -1.5625q0 -0.5 0.375 -2.3125l1.84375 -8.828125l-2.046875 0l0.421875 -2.0l2.046875 0l0.78125 -3.75l2.96875 -1.78125l-1.15625 5.53125l2.546875 0l-0.421875 2.0l-2.546875 0l-1.75 8.40625q-0.328125 1.609375 -0.328125 1.921875q0 0.453125 0.25 0.703125q0.265625 0.234375 0.875 0.234375q0.859375 0 1.53125 -0.171875z" fill-rule="nonzero"/></g></svg>