<svg version="1.1" viewBox="0.0 0.0 821.1259842519685 827.1417322834645" fill="none" stroke="none" stroke-linecap="square" stroke-miterlimit="10" xmlns:xlink="http://www.w3.org/1999/xlink" xmlns="http://www.w3.org/2000/svg"><clipPath id="p.0"><path d="m0 0l821.126 0l0 827.1417l-821.126 0l0 -827.1417z" clip-rule="nonzero"/></clipPath><g clip-path="url(#p.0)"><path fill="#000000" fill-opacity="0.0" d="m0 0l821.126 0l0 827.1417l-821.126 0z" fill-rule="evenodd"/><path fill="#000000" fill-opacity="0.0" d="m60.396324 53.427822l826.89764 0l0 148.34645l-826.89764 0z" fill-rule="evenodd"/><path fill="#999999" d="m120.2557 93.79094l0 51.1875l1.640625 0q3.421875 0 4.921875 1.34375q1.5000076 1.328125 1.5000076 3.484375q0 2.109375 -1.4843826 3.453125q-1.46875 1.328125 -4.9375 1.328125l-11.25 0l0 -2.34375q-3.28125 1.921875 -6.875 2.90625q-3.578125 0.984375 -7.421875 0.984375q-10.828125 0 -17.4375 -6.25q-6.609375 -6.265625 -6.609375 -15.59375q0 -9.75 6.9375 -16.640625q6.9375 -6.890625 16.921875 -6.890625q3.75 0 7.359375 1.15625q3.609375 1.140625 7.125 3.4375l0 -11.953125l-1.640625 0q-3.46875 0 -4.953125 -1.328125q-1.46875 -1.34375 -1.46875 -3.453125q0 -2.15625 1.46875 -3.484375q1.484375 -1.34375 4.953125 -1.34375l11.25 0zm-9.609375 40.78125q0 -5.953125 -4.171875 -10.078125q-4.171875 -4.125 -10.21875 -4.125q-6.0 0 -10.171875 4.125q-4.171875 4.125 -4.171875 9.9375q0 5.296875 3.75 8.703125q3.75 3.390625 10.59375 3.390625q6.796875 0 10.59375 -3.390625q3.796875 -3.40625 3.796875 -8.5625zm53.812508 20.015625l0 -2.25q-3.609375 1.921875 -7.96875 2.875q-4.359375 0.96875 -7.921875 0.96875q-7.734375 0 -12.5625 -4.09375q-4.828125 -4.109375 -4.828125 -9.078125q0 -6.046875 6.15625 -11.21875q6.171875 -5.1875 17.046875 -5.1875q4.359375 0 10.078125 0.9375l0 -2.296875q0 -2.15625 -1.859375 -3.515625q-1.84375 -1.359375 -7.046875 -1.359375q-4.265625 0 -11.0625 1.6875q-2.53125 0.609375 -3.9375 0.609375q-1.921875 0 -3.265625 -1.375q-1.328125 -1.390625 -1.328125 -3.546875q0 -1.21875 0.46875 -2.109375q0.46875 -0.890625 1.3125 -1.421875q0.84375 -0.546875 3.515625 -1.296875q3.5625 -0.984375 7.265625 -1.5625q3.703125 -0.59375 6.703125 -0.59375q8.953125 0 13.890625 3.875q4.953125 3.859375 4.953125 10.5625l0 19.78125l1.640625 0q3.46875 0 4.9375 1.34375q1.484375 1.328125 1.484375 3.484375q0 2.109375 -1.484375 3.453125q-1.46875 1.328125 -4.9375 1.328125l-11.25 0zm0 -17.203125q-5.765625 -1.125 -10.640625 -1.125q-5.859375 0 -10.078125 2.859375q-2.625 1.828125 -2.625 3.703125q0 1.359375 1.265625 2.203125q2.34375 1.546875 6.421875 1.546875q3.46875 0 7.84375 -1.359375q4.390625 -1.359375 7.8125 -3.703125l0 -4.125zm46.59375 -15.75l0 19.265625q0 3.09375 1.265625 4.078125q1.96875 1.546875 7.03125 1.546875q7.359375 0 13.59375 -3.140625q2.390625 -1.21875 3.75 -1.21875q1.875 0 3.25 1.40625q1.390625 1.40625 1.390625 3.421875q0 1.875 -1.5 3.234375q-2.296875 2.203125 -9.078125 4.0625q-6.765625 1.84375 -11.40625 1.84375q-8.953125 0 -13.4375 -3.859375q-4.46875 -3.875 -4.46875 -9.5l0 -21.140625l-3.46875 0q-3.46875 0 -4.953125 -1.328125q-1.46875 -1.34375 -1.46875 -3.5q0 -2.109375 1.46875 -3.4375q1.484375 -1.34375 4.953125 -1.34375l3.46875 0l0 -8.671875q0 -3.46875 1.328125 -4.9375q1.34375 -1.484375 3.5 -1.484375q2.109375 0 3.4375 1.484375q1.34375 1.46875 1.34375 4.9375l0 8.671875l17.765625 0q3.46875 0 4.9375 1.34375q1.484375 1.328125 1.484375 3.484375q0 2.109375 -1.484375 3.453125q-1.46875 1.328125 -4.9375 1.328125l-17.765625 0z" fill-rule="nonzero"/><path fill="#ff5454" d="m275.74008 103.54094l0 56.4375l5.8125 0q3.46875 0 4.9375 1.3125q1.484375 1.3125 1.484375 3.46875q0 2.15625 -1.484375 3.484375q-1.46875 1.34375 -4.9375 1.34375l-15.421875 0l0 -75.65625l15.375 0q3.46875 0 4.9375 1.34375q1.484375 1.328125 1.484375 3.484375q0 2.109375 -1.484375 3.453125q-1.46875 1.328125 -4.9375 1.328125l-5.765625 0z" fill-rule="nonzero"/><path fill="#ff5454" d="m383.97446 141.65031l12.84375 0l-13.828125 26.0625q-1.21875 2.296875 -3.046875 2.296875q-1.21875 0 -2.09375 -0.796875q-0.859375 -0.796875 -0.859375 -1.78125q0 -0.703125 0.328125 -1.921875l6.65625 -23.859375z" fill-rule="nonzero"/><path fill="#ff9900" d="m427.08383 113.10344l10.625 0l-1.09375 5.390625q3.984375 -3.4375 7.4375 -4.90625q3.46875 -1.46875 7.296875 -1.46875q5.109375 0 8.0625 2.9375q2.953125 2.921875 2.953125 7.765625q0 2.1875 -1.296875 8.28125l-4.875 23.484375l-11.21875 0l4.921875 -23.5625q1.09375 -5.265625 1.09375 -6.28125q0 -2.15625 -1.265625 -3.375q-1.265625 -1.234375 -3.53125 -1.234375q-2.46875 0 -5.484375 2.078125q-3.0 2.0625 -4.71875 5.453125q-1.25 2.421875 -2.8125 9.890625l-3.546875 17.03125l-11.21875 0l8.671875 -41.484375zm55.867188 11.75l-10.9375 -0.9375q1.875 -5.546875 6.53125 -8.671875q4.671875 -3.125 12.375 -3.125q8.0 0 11.828125 3.234375q3.828125 3.21875 3.828125 7.859375q0 1.875 -0.328125 3.984375q-0.328125 2.109375 -2.328125 11.09375q-1.640625 7.421875 -1.640625 10.390625q0 2.65625 0.9375 5.90625l-10.890625 0q-0.671875 -2.265625 -0.828125 -4.6875q-2.453125 2.734375 -5.65625 4.203125q-3.203125 1.46875 -6.453125 1.46875q-5.15625 0 -8.515625 -3.375q-3.359375 -3.390625 -3.359375 -8.703125q0 -5.9375 3.6875 -9.484375q3.703125 -3.5625 13.1875 -4.3125q8.015625 -0.65625 10.703125 -1.59375q0.703125 -2.34375 0.703125 -3.75q0 -1.796875 -1.453125 -3.0q-1.4375 -1.21875 -4.28125 -1.21875q-3.015625 0 -4.75 1.234375q-1.734375 1.21875 -2.359375 3.484375zm10.65625 10.390625q-1.015625 0.28125 -2.6875 0.515625q-8.4375 1.015625 -11.015625 2.96875q-1.84375 1.40625 -1.84375 3.78125q0 1.953125 1.40625 3.3125q1.40625 1.34375 3.71875 1.34375q2.53125 0 4.78125 -1.234375q2.25 -1.234375 3.359375 -3.15625q1.109375 -1.9375 1.96875 -6.046875l0.3125 -1.484375zm26.335907 -22.140625l10.546875 0l-1.0625 5.03125q6.171875 -6.015625 12.96875 -6.015625q4.6875 0 7.21875 1.953125q2.546875 1.953125 3.25 5.390625q2.15625 -3.125 6.171875 -5.234375q4.03125 -2.109375 8.359375 -2.109375q4.96875 0 7.734375 2.65625q2.78125 2.65625 2.78125 7.03125q0 2.15625 -1.09375 7.421875l-5.3125 25.359375l-11.21875 0l5.3125 -25.359375q0.984375 -4.765625 0.984375 -5.390625q0 -1.71875 -1.046875 -2.703125q-1.03125 -1.0 -3.09375 -1.0q-4.1875 0 -7.46875 4.40625q-2.375 3.171875 -4.0625 11.21875l-3.9375 18.828125l-11.21875 0l5.234375 -25.078125q0.90625 -4.34375 0.90625 -5.625q0 -1.640625 -1.125 -2.6875q-1.109375 -1.0625 -3.0625 -1.0625q-1.828125 0 -3.78125 1.09375q-1.953125 1.09375 -3.421875 3.015625q-1.46875 1.90625 -2.515625 4.90625q-0.46875 1.40625 -1.53125 6.375l-3.984375 19.0625l-11.2030945 0l8.6718445 -41.484375zm103.19531 24.21875l-28.125 0q-0.03125 0.65625 -0.03125 1.015625q0 4.140625 2.359375 6.6875q2.359375 2.53125 5.765625 2.53125q5.578125 0 8.703125 -5.78125l10.046875 1.671875q-2.9375 6.0625 -7.84375 9.09375q-4.890625 3.03125 -10.984375 3.03125q-8.359375 0 -13.59375 -5.296875q-5.234375 -5.296875 -5.234375 -14.015625q0 -8.515625 4.71875 -15.15625q6.453125 -8.984375 18.40625 -8.984375q7.609375 0 12.09375 4.71875q4.5 4.703125 4.5 13.171875q0 4.0625 -0.78125 7.3125zm-9.453125 -6.84375q0.046875 -0.734375 0.046875 -1.125q0 -4.609375 -2.078125 -6.90625q-2.0625 -2.3125 -5.546875 -2.3125q-3.46875 0 -6.234375 2.625q-2.75 2.609375 -3.71875 7.71875l17.53125 0zm29.539062 40.953125l-7.625 0q-3.203125 -7.46875 -4.75 -15.109375q-1.53125 -7.640625 -1.53125 -14.0q0 -7.96875 2.546875 -16.0q2.5625 -8.03125 7.84375 -16.34375q3.3125 -5.3125 10.65625 -13.640625l8.515625 0q-7.453125 8.75 -11.5 16.453125q-4.046875 7.6875 -6.046875 16.75q-1.984375 9.0625 -1.984375 17.734375q0 5.859375 0.875 11.40625q0.890625 5.5625 3.0 12.75zm9.21875 -28.453125l10.859375 -1.71875q1.4375 3.4375 3.578125 4.875q2.15625 1.421875 5.875 1.421875q3.828125 0 6.125 -1.71875q1.609375 -1.171875 1.609375 -2.859375q0 -1.125 -0.828125 -2.03125q-0.859375 -0.859375 -4.640625 -2.109375q-10.15625 -3.359375 -12.578125 -5.3125q-3.796875 -3.046875 -3.796875 -7.96875q0 -4.921875 3.671875 -8.46875q5.125 -4.96875 15.203125 -4.96875q8.0 0 12.09375 2.9375q4.109375 2.921875 5.203125 7.921875l-10.34375 1.796875q-0.828125 -2.265625 -2.65625 -3.390625q-2.5 -1.53125 -6.015625 -1.53125q-3.515625 0 -5.0625 1.171875q-1.546875 1.171875 -1.546875 2.703125q0 1.5625 1.5625 2.578125q0.984375 0.625 6.296875 2.1875q8.203125 2.375 10.96875 4.6875q3.90625 3.234375 3.90625 7.8125q0 5.890625 -4.96875 10.234375q-4.953125 4.34375 -13.96875 4.34375q-8.984375 0 -13.890625 -3.296875q-4.90625 -3.3125 -6.65625 -9.296875zm52.148438 -46.640625l7.609375 0q3.203125 7.421875 4.75 15.078125q1.546875 7.65625 1.546875 13.984375q0 7.96875 -2.5625 16.0q-2.5625 8.03125 -7.828125 16.390625q-3.359375 5.3125 -10.671875 13.640625l-8.515625 0q7.421875 -8.75 11.46875 -16.421875q4.046875 -7.65625 6.03125 -16.734375q2.0 -9.078125 2.0 -17.796875q0 -5.890625 -0.859375 -11.421875q-0.859375 -5.53125 -2.96875 -12.71875z" fill-rule="nonzero"/><path fill="#ff5454" d="m745.9041 159.97844l0 -56.4375l-5.8125 0q-3.46875 0 -4.953125 -1.328125q-1.46875 -1.34375 -1.46875 -3.453125q0 -2.15625 1.46875 -3.484375q1.484375 -1.34375 4.953125 -1.34375l15.421875 0l0 75.65625l-15.375 0q-3.46875 0 -4.953125 -1.34375q-1.46875 -1.328125 -1.46875 -3.484375q0 -2.109375 1.46875 -3.453125q1.484375 -1.328125 4.953125 -1.328125l5.765625 0z" fill-rule="nonzero"/><path fill="#000000" fill-opacity="0.0" d="m383.6873 12.422572l266.55118 0l0 59.874012l-266.55118 0z" fill-rule="evenodd"/><path fill="#ff5454" d="m411.22852 47.18945l2.78125 -0.4375q0.234375 1.671875 1.296875 2.5625q1.078125 0.890625 3.0 0.890625q1.9375 0 2.875 -0.78125q0.9375 -0.796875 0.9375 -1.859375q0 -0.953125 -0.828125 -1.5q-0.578125 -0.375 -2.875 -0.953125q-3.09375 -0.78125 -4.296875 -1.34375q-1.1875 -0.578125 -1.8125 -1.578125q-0.609375 -1.015625 -0.609375 -2.234375q0 -1.109375 0.5 -2.046875q0.515625 -0.953125 1.390625 -1.578125q0.65625 -0.484375 1.78125 -0.8125q1.140625 -0.34375 2.4375 -0.34375q1.953125 0 3.421875 0.5625q1.484375 0.5625 2.1875 1.53125q0.703125 0.953125 0.96875 2.5625l-2.75 0.375q-0.1875 -1.28125 -1.09375 -2.0q-0.890625 -0.71875 -2.53125 -0.71875q-1.9375 0 -2.765625 0.640625q-0.828125 0.640625 -0.828125 1.5q0 0.546875 0.34375 0.984375q0.34375 0.453125 1.078125 0.75q0.421875 0.15625 2.484375 0.71875q2.984375 0.796875 4.15625 1.3125q1.1875 0.5 1.859375 1.46875q0.671875 0.96875 0.671875 2.40625q0 1.40625 -0.828125 2.65625q-0.8125 1.234375 -2.359375 1.921875q-1.546875 0.671875 -3.5 0.671875q-3.234375 0 -4.9375 -1.34375q-1.6875 -1.34375 -2.15625 -3.984375zm17.140625 -14.71875l0 -3.234375l2.8125 0l0 3.234375l-2.8125 0zm0 19.671875l0 -16.59375l2.8125 0l0 16.59375l-2.8125 0zm7.09375 0l0 -16.59375l2.53125 0l0 2.359375q1.828125 -2.734375 5.28125 -2.734375q1.5 0 2.75 0.546875q1.265625 0.53125 1.890625 1.40625q0.625 0.875 0.875 2.078125q0.15625 0.78125 0.15625 2.734375l0 10.203125l-2.8125 0l0 -10.09375q0 -1.71875 -0.328125 -2.5625q-0.328125 -0.859375 -1.171875 -1.359375q-0.828125 -0.515625 -1.953125 -0.515625q-1.796875 0 -3.109375 1.140625q-1.296875 1.140625 -1.296875 4.328125l0 9.0625l-2.8125 0zm17.28125 1.375l2.734375 0.40625q0.171875 1.265625 0.953125 1.84375q1.046875 0.78125 2.859375 0.78125q1.953125 0 3.015625 -0.78125q1.0625 -0.78125 1.4375 -2.1875q0.21875 -0.859375 0.203125 -3.609375q-1.84375 2.171875 -4.59375 2.171875q-3.421875 0 -5.296875 -2.46875q-1.875 -2.46875 -1.875 -5.921875q0 -2.375 0.859375 -4.375q0.859375 -2.015625 2.484375 -3.109375q1.640625 -1.09375 3.84375 -1.09375q2.9375 0 4.84375 2.375l0 -2.0l2.59375 0l0 14.34375q0 3.875 -0.796875 5.484375q-0.78125 1.625 -2.5 2.5625q-1.703125 0.9375 -4.203125 0.9375q-2.96875 0 -4.796875 -1.34375q-1.828125 -1.328125 -1.765625 -4.015625zm2.328125 -9.96875q0 3.265625 1.296875 4.765625q1.296875 1.5 3.25 1.5q1.9375 0 3.25 -1.484375q1.3125 -1.5 1.3125 -4.6875q0 -3.046875 -1.359375 -4.59375q-1.34375 -1.546875 -3.25 -1.546875q-1.875 0 -3.1875 1.53125q-1.3125 1.515625 -1.3125 4.515625zm15.921875 8.59375l0 -22.90625l2.8125 0l0 22.90625l-2.8125 0zm18.53125 -5.34375l2.90625 0.359375q-0.6875 2.546875 -2.546875 3.953125q-1.859375 1.40625 -4.75 1.40625q-3.640625 0 -5.78125 -2.234375q-2.125 -2.25 -2.125 -6.296875q0 -4.1875 2.15625 -6.5q2.15625 -2.3125 5.59375 -2.3125q3.328125 0 5.4375 2.265625q2.109375 2.265625 2.109375 6.375q0 0.25 -0.015625 0.75l-12.375 0q0.15625 2.734375 1.546875 4.1875q1.390625 1.453125 3.46875 1.453125q1.546875 0 2.640625 -0.8125q1.09375 -0.8125 1.734375 -2.59375zm-9.234375 -4.546875l9.265625 0q-0.1875 -2.09375 -1.0625 -3.140625q-1.34375 -1.625 -3.484375 -1.625q-1.9375 0 -3.265625 1.296875q-1.3125 1.296875 -1.453125 3.46875zm27.15625 9.890625l-2.609375 0l0 -22.90625l2.8125 0l0 8.171875q1.78125 -2.234375 4.546875 -2.234375q1.53125 0 2.890625 0.625q1.375 0.609375 2.25 1.734375q0.890625 1.109375 1.390625 2.6875q0.5 1.578125 0.5 3.375q0 4.265625 -2.109375 6.59375q-2.109375 2.328125 -5.0625 2.328125q-2.9375 0 -4.609375 -2.453125l0 2.078125zm-0.03125 -8.421875q0 2.984375 0.8125 4.3125q1.328125 2.171875 3.59375 2.171875q1.84375 0 3.1875 -1.59375q1.34375 -1.609375 1.34375 -4.78125q0 -3.25 -1.296875 -4.796875q-1.28125 -1.546875 -3.109375 -1.546875q-1.84375 0 -3.1875 1.609375q-1.34375 1.59375 -1.34375 4.625zm15.203125 8.421875l0 -16.59375l2.53125 0l0 2.515625q0.96875 -1.765625 1.78125 -2.328125q0.828125 -0.5625 1.8125 -0.5625q1.421875 0 2.890625 0.90625l-0.96875 2.609375q-1.03125 -0.609375 -2.0625 -0.609375q-0.921875 0 -1.65625 0.5625q-0.734375 0.546875 -1.046875 1.53125q-0.46875 1.5 -0.46875 3.28125l0 8.6875l-2.8125 0zm21.515625 -2.046875q-1.5625 1.328125 -3.015625 1.875q-1.4375 0.546875 -3.09375 0.546875q-2.734375 0 -4.203125 -1.328125q-1.46875 -1.34375 -1.46875 -3.421875q0 -1.21875 0.546875 -2.21875q0.5625 -1.015625 1.453125 -1.625q0.90625 -0.609375 2.03125 -0.921875q0.828125 -0.21875 2.5 -0.421875q3.40625 -0.40625 5.015625 -0.96875q0.015625 -0.578125 0.015625 -0.734375q0 -1.71875 -0.796875 -2.421875q-1.078125 -0.953125 -3.203125 -0.953125q-1.984375 0 -2.9375 0.703125q-0.9375 0.6875 -1.390625 2.453125l-2.75 -0.375q0.375 -1.765625 1.234375 -2.84375q0.859375 -1.09375 2.484375 -1.671875q1.625 -0.59375 3.765625 -0.59375q2.125 0 3.453125 0.5q1.328125 0.5 1.953125 1.265625q0.625 0.75 0.875 1.90625q0.140625 0.71875 0.140625 2.59375l0 3.75q0 3.921875 0.171875 4.96875q0.1875 1.03125 0.71875 1.984375l-2.9375 0q-0.4375 -0.875 -0.5625 -2.046875zm-0.234375 -6.28125q-1.53125 0.625 -4.59375 1.0625q-1.734375 0.25 -2.453125 0.5625q-0.71875 0.3125 -1.109375 0.921875q-0.390625 0.59375 -0.390625 1.328125q0 1.125 0.84375 1.875q0.859375 0.75 2.5 0.75q1.625 0 2.890625 -0.703125q1.265625 -0.71875 1.859375 -1.953125q0.453125 -0.953125 0.453125 -2.8125l0 -1.03125zm18.03125 2.25l2.765625 0.359375q-0.453125 2.859375 -2.328125 4.484375q-1.859375 1.609375 -4.578125 1.609375q-3.40625 0 -5.484375 -2.21875q-2.0625 -2.234375 -2.0625 -6.390625q0 -2.6875 0.890625 -4.703125q0.890625 -2.015625 2.703125 -3.015625q1.828125 -1.015625 3.96875 -1.015625q2.703125 0 4.421875 1.375q1.71875 1.359375 2.203125 3.875l-2.734375 0.421875q-0.390625 -1.671875 -1.390625 -2.515625q-0.984375 -0.84375 -2.390625 -0.84375q-2.125 0 -3.453125 1.53125q-1.328125 1.515625 -1.328125 4.8125q0 3.34375 1.28125 4.859375q1.28125 1.515625 3.34375 1.515625q1.65625 0 2.765625 -1.015625q1.109375 -1.015625 1.40625 -3.125zm5.1875 6.078125l0 -22.90625l2.8125 0l0 13.0625l6.65625 -6.75l3.640625 0l-6.34375 6.15625l6.984375 10.4375l-3.46875 0l-5.484375 -8.484375l-1.984375 1.90625l0 6.578125l-2.8125 0zm27.34375 -5.34375l2.90625 0.359375q-0.6875 2.546875 -2.546875 3.953125q-1.859375 1.40625 -4.75 1.40625q-3.640625 0 -5.78125 -2.234375q-2.125 -2.25 -2.125 -6.296875q0 -4.1875 2.15625 -6.5q2.15625 -2.3125 5.59375 -2.3125q3.328125 0 5.4375 2.265625q2.109375 2.265625 2.109375 6.375q0 0.25 -0.015625 0.75l-12.375 0q0.15625 2.734375 1.546875 4.1875q1.390625 1.453125 3.46875 1.453125q1.546875 0 2.640625 -0.8125q1.09375 -0.8125 1.734375 -2.59375zm-9.234375 -4.546875l9.265625 0q-0.1875 -2.09375 -1.0625 -3.140625q-1.34375 -1.625 -3.484375 -1.625q-1.9375 0 -3.265625 1.296875q-1.3125 1.296875 -1.453125 3.46875zm21.8125 7.375l0.40625 2.484375q-1.1875 0.25 -2.125 0.25q-1.53125 0 -2.375 -0.484375q-0.84375 -0.484375 -1.1875 -1.265625q-0.34375 -0.796875 -0.34375 -3.328125l0 -9.546875l-2.0625 0l0 -2.1875l2.0625 0l0 -4.109375l2.796875 -1.6875l0 5.796875l2.828125 0l0 2.1875l-2.828125 0l0 9.703125q0 1.203125 0.140625 1.546875q0.15625 0.34375 0.484375 0.546875q0.34375 0.203125 0.96875 0.203125q0.46875 0 1.234375 -0.109375zm1.625 -2.4375l2.78125 -0.4375q0.234375 1.671875 1.296875 2.5625q1.078125 0.890625 3.0 0.890625q1.9375 0 2.875 -0.78125q0.9375 -0.796875 0.9375 -1.859375q0 -0.953125 -0.828125 -1.5q-0.578125 -0.375 -2.875 -0.953125q-3.09375 -0.78125 -4.296875 -1.34375q-1.1875 -0.578125 -1.8125 -1.578125q-0.609375 -1.015625 -0.609375 -2.234375q0 -1.109375 0.5 -2.046875q0.515625 -0.953125 1.390625 -1.578125q0.65625 -0.484375 1.78125 -0.8125q1.140625 -0.34375 2.4375 -0.34375q1.953125 0 3.421875 0.5625q1.484375 0.5625 2.1875 1.53125q0.703125 0.953125 0.96875 2.5625l-2.75 0.375q-0.1875 -1.28125 -1.09375 -2.0q-0.890625 -0.71875 -2.53125 -0.71875q-1.9375 0 -2.765625 0.640625q-0.828125 0.640625 -0.828125 1.5q0 0.546875 0.34375 0.984375q0.34375 0.453125 1.078125 0.75q0.421875 0.15625 2.484375 0.71875q2.984375 0.796875 4.15625 1.3125q1.1875 0.5 1.859375 1.46875q0.671875 0.96875 0.671875 2.40625q0 1.40625 -0.828125 2.65625q-0.8125 1.234375 -2.359375 1.921875q-1.546875 0.671875 -3.5 0.671875q-3.234375 0 -4.9375 -1.34375q-1.6875 -1.34375 -2.15625 -3.984375z" fill-rule="nonzero"/><path fill="#000000" fill-opacity="0.0" d="m247.34789 170.36089l182.14174 0l0 94.45671l-182.14174 0z" fill-rule="evenodd"/><path fill="#666666" d="m269.5979 204.44026l2.75 0.28125q-0.59375 2.046875 -2.734375 3.890625q-2.125 1.84375 -5.078125 1.84375q-1.84375 0 -3.390625 -0.84375q-1.53125 -0.859375 -2.34375 -2.484375q-0.796875 -1.625 -0.796875 -3.703125q0 -2.71875 1.25 -5.265625q1.265625 -2.5625 3.265625 -3.796875q2.0 -1.25 4.328125 -1.25q2.96875 0 4.734375 1.84375q1.78125 1.84375 1.78125 5.03125q0 1.21875 -0.21875 2.5l-12.21875 0q-0.0625 0.484375 -0.0625 0.875q0 2.328125 1.0625 3.5625q1.078125 1.21875 2.625 1.21875q1.453125 0 2.859375 -0.953125q1.40625 -0.953125 2.1875 -2.75zm-8.21875 -4.109375l9.3125 0q0.015625 -0.4375 0.015625 -0.625q0 -2.125 -1.0625 -3.25q-1.0625 -1.140625 -2.734375 -1.140625q-1.8125 0 -3.3125 1.25q-1.484375 1.25 -2.21875 3.765625zm13.8125 9.75l3.46875 -16.59375l2.828125 0l-0.578125 2.734375q1.578125 -1.765625 2.8125 -2.4375q1.25 -0.671875 2.703125 -0.671875q1.546875 0 2.578125 0.828125q1.046875 0.8125 1.375 2.28125q1.265625 -1.5625 2.65625 -2.328125q1.40625 -0.78125 2.953125 -0.78125q2.078125 0 3.109375 0.984375q1.046875 0.984375 1.046875 2.765625q0 0.765625 -0.359375 2.53125l-2.234375 10.6875l-2.828125 0l2.28125 -10.96875q0.296875 -1.34375 0.296875 -1.921875q0 -0.8125 -0.515625 -1.28125q-0.515625 -0.46875 -1.453125 -0.46875q-1.265625 0 -2.578125 0.765625q-1.3125 0.765625 -2.046875 2.015625q-0.71875 1.234375 -1.265625 3.8125l-1.6875 8.046875l-2.828125 0l2.34375 -11.203125q0.25 -1.140625 0.25 -1.625q0 -0.8125 -0.515625 -1.3125q-0.5 -0.5 -1.3125 -0.5q-1.203125 0 -2.53125 0.765625q-1.3125 0.765625 -2.140625 2.140625q-0.828125 1.359375 -1.359375 3.890625l-1.640625 7.84375l-2.828125 0zm25.28125 6.359375l4.796875 -22.953125l2.609375 0l-0.484375 2.3125q1.453125 -1.515625 2.59375 -2.09375q1.15625 -0.59375 2.4375 -0.59375q2.375 0 3.9375 1.734375q1.5625 1.71875 1.5625 4.9375q0 2.59375 -0.859375 4.734375q-0.859375 2.125 -2.109375 3.421875q-1.25 1.296875 -2.53125 1.90625q-1.28125 0.609375 -2.625 0.609375q-2.984375 0 -4.625 -3.03125l-1.875 9.015625l-2.828125 0zm5.59375 -13.140625q0 1.859375 0.265625 2.578125q0.390625 1.015625 1.28125 1.640625q0.890625 0.625 2.0625 0.625q2.4375 0 3.9375 -2.734375q1.5 -2.75 1.5 -5.609375q0 -2.109375 -1.015625 -3.25q-1.0 -1.15625 -2.5 -1.15625q-1.078125 0 -2.0 0.578125q-0.921875 0.5625 -1.71875 1.703125q-0.78125 1.125 -1.296875 2.765625q-0.515625 1.640625 -0.515625 2.859375zm20.203125 4.484375l-0.46875 2.3125q-1.015625 0.265625 -1.96875 0.265625q-1.6875 0 -2.6875 -0.828125q-0.75 -0.625 -0.75 -1.703125q0 -0.546875 0.40625 -2.515625l2.015625 -9.640625l-2.234375 0l0.453125 -2.1875l2.234375 0l0.859375 -4.078125l3.234375 -1.953125l-1.265625 6.03125l2.78125 0l-0.46875 2.1875l-2.765625 0l-1.921875 9.171875q-0.359375 1.75 -0.359375 2.09375q0 0.5 0.28125 0.765625q0.296875 0.265625 0.953125 0.265625q0.9375 0 1.671875 -0.1875zm1.21875 8.703125l0.171875 -2.65625q0.875 0.25 1.703125 0.25q0.859375 0 1.390625 -0.390625q0.6875 -0.515625 1.5 -1.9375l0.90625 -1.625l-2.765625 -16.640625l2.78125 0l1.25 8.390625q0.375 2.484375 0.640625 4.96875l7.421875 -13.359375l2.953125 0l-10.578125 18.796875q-1.53125 2.75 -2.71875 3.640625q-1.1875 0.890625 -2.734375 0.890625q-0.984375 0 -1.921875 -0.328125zm25.953125 -6.40625l3.46875 -16.59375l2.5 0l-0.703125 3.390625q1.28125 -1.921875 2.5 -2.84375q1.234375 -0.921875 2.515625 -0.921875q0.84375 0 2.078125 0.609375l-1.15625 2.625q-0.734375 -0.53125 -1.609375 -0.53125q-1.484375 0 -3.046875 1.65625q-1.5625 1.65625 -2.453125 5.953125l-1.40625 6.65625l-2.6875 0zm11.15625 -6.296875q0 -4.859375 2.859375 -8.046875q2.359375 -2.625 6.1875 -2.625q3.0 0 4.828125 1.875q1.84375 1.875 1.84375 5.0625q0 2.859375 -1.15625 5.328125q-1.15625 2.453125 -3.296875 3.765625q-2.125 1.3125 -4.484375 1.3125q-1.9375 0 -3.53125 -0.828125q-1.578125 -0.828125 -2.421875 -2.34375q-0.828125 -1.515625 -0.828125 -3.5zm2.828125 -0.28125q0 2.34375 1.125 3.5625q1.125 1.203125 2.859375 1.203125q0.90625 0 1.796875 -0.359375q0.890625 -0.375 1.65625 -1.125q0.765625 -0.75 1.296875 -1.703125q0.546875 -0.96875 0.875 -2.078125q0.484375 -1.546875 0.484375 -2.96875q0 -2.25 -1.140625 -3.484375q-1.125 -1.25 -2.84375 -1.25q-1.328125 0 -2.421875 0.640625q-1.09375 0.625 -1.984375 1.84375q-0.875 1.21875 -1.296875 2.84375q-0.40625 1.609375 -0.40625 2.875zm17.625 6.578125l-1.734375 -16.59375l2.71875 0l0.75 7.453125l0.296875 4.1875q0.03125 0.46875 0.09375 1.890625q0.46875 -1.59375 0.796875 -2.4375q0.328125 -0.859375 1.046875 -2.4375l3.953125 -8.65625l3.078125 0l0.546875 8.296875q0.125 1.890625 0.15625 5.046875q0.78125 -2.09375 2.546875 -5.8125l3.5625 -7.53125l2.828125 0l-8.109375 16.59375l-2.9375 0l-0.625 -9.734375q-0.0625 -0.90625 -0.09375 -3.53125q-0.640625 1.671875 -1.515625 3.609375l-4.390625 9.65625l-2.96875 0z" fill-rule="nonzero"/><path fill="#666666" d="m261.42603 228.37776l0.671875 -3.203125l2.8125 0l-0.671875 3.203125l-2.8125 0zm-4.125 19.703125l3.46875 -16.59375l2.828125 0l-3.46875 16.59375l-2.828125 0zm7.21875 0l3.46875 -16.59375l2.5625 0l-0.609375 2.890625q1.671875 -1.703125 3.125 -2.484375q1.453125 -0.78125 2.96875 -0.78125q2.015625 0 3.15625 1.09375q1.15625 1.09375 1.15625 2.921875q0 0.921875 -0.40625 2.90625l-2.109375 10.046875l-2.828125 0l2.203125 -10.515625q0.328125 -1.53125 0.328125 -2.265625q0 -0.828125 -0.578125 -1.34375q-0.5625 -0.515625 -1.640625 -0.515625q-2.171875 0 -3.875 1.5625q-1.6875 1.5625 -2.484375 5.359375l-1.609375 7.71875l-2.828125 0zm28.984375 -2.40625q-2.421875 2.78125 -5.0625 2.78125q-2.359375 0 -3.9375 -1.734375q-1.5625 -1.75 -1.5625 -5.0625q0 -3.03125 1.234375 -5.53125q1.25 -2.515625 3.109375 -3.765625q1.875 -1.25 3.75 -1.25q3.09375 0 4.671875 2.984375l1.875 -8.921875l2.8125 0l-4.78125 22.90625l-2.609375 0l0.5 -2.40625zm-7.75 -4.546875q0 1.734375 0.34375 2.734375q0.34375 1.0 1.171875 1.671875q0.828125 0.65625 1.984375 0.65625q1.921875 0 3.484375 -2.0q2.09375 -2.65625 2.09375 -6.5625q0 -1.96875 -1.03125 -3.078125q-1.03125 -1.109375 -2.59375 -1.109375q-1.015625 0 -1.859375 0.453125q-0.828125 0.453125 -1.65625 1.546875q-0.8125 1.078125 -1.375 2.75q-0.5625 1.671875 -0.5625 2.9375zm26.546875 1.3125l2.75 0.28125q-0.59375 2.046875 -2.734375 3.890625q-2.125 1.84375 -5.078125 1.84375q-1.84375 0 -3.390625 -0.84375q-1.53125 -0.859375 -2.34375 -2.484375q-0.796875 -1.625 -0.796875 -3.703125q0 -2.71875 1.25 -5.265625q1.265625 -2.5625 3.265625 -3.796875q2.0 -1.25 4.328125 -1.25q2.96875 0 4.734375 1.84375q1.78125 1.84375 1.78125 5.03125q0 1.21875 -0.21875 2.5l-12.21875 0q-0.0625 0.484375 -0.0625 0.875q0 2.328125 1.0625 3.5625q1.078125 1.21875 2.625 1.21875q1.453125 0 2.859375 -0.953125q1.40625 -0.953125 2.1875 -2.75zm-8.21875 -4.109375l9.3125 0q0.015625 -0.4375 0.015625 -0.625q0 -2.125 -1.0625 -3.25q-1.0625 -1.140625 -2.734375 -1.140625q-1.8125 0 -3.3125 1.25q-1.484375 1.25 -2.21875 3.765625zm12.71875 9.75l7.21875 -8.421875l-4.140625 -8.171875l3.125 0l1.40625 2.953125q0.78125 1.65625 1.40625 3.171875l4.78125 -6.125l3.453125 0l-6.96875 8.390625l4.1875 8.203125l-3.125 0l-1.65625 -3.375q-0.53125 -1.078125 -1.203125 -2.671875l-4.9375 6.046875l-3.546875 0z" fill-rule="nonzero"/><path fill="#000000" fill-opacity="0.0" d="m326.89185 132.31105l0.3779602 46.551178" fill-rule="evenodd"/><path stroke="#b7b7b7" stroke-width="4.0" stroke-linejoin="round" stroke-linecap="butt" stroke-dasharray="4.0,12.0" d="m326.89185 132.31105l0.3779602 46.551178" fill-rule="evenodd"/><path fill="#000000" fill-opacity="0.0" d="m497.40945 170.3622l157.25986 0l0 94.45671l-157.25986 0z" fill-rule="evenodd"/><path fill="#ff9900" d="m537.39874 204.00407l2.765625 0.359375q-0.453125 2.859375 -2.328125 4.484375q-1.859375 1.609375 -4.578125 1.609375q-3.40625 0 -5.484375 -2.21875q-2.0625 -2.234375 -2.0625 -6.390625q0 -2.6875 0.890625 -4.703125q0.890625 -2.015625 2.703125 -3.015625q1.828125 -1.015625 3.96875 -1.015625q2.703125 0 4.421875 1.375q1.71875 1.359375 2.203125 3.875l-2.734375 0.421875q-0.390625 -1.671875 -1.390625 -2.515625q-0.984375 -0.84375 -2.390625 -0.84375q-2.125 0 -3.453125 1.53125q-1.328125 1.515625 -1.328125 4.8125q0 3.34375 1.28125 4.859375q1.28125 1.515625 3.34375 1.515625q1.65625 0 2.765625 -1.015625q1.109375 -1.015625 1.40625 -3.125zm4.125 -2.21875q0 -4.609375 2.5625 -6.828125q2.140625 -1.84375 5.21875 -1.84375q3.421875 0 5.59375 2.25q2.171875 2.234375 2.171875 6.1875q0 3.203125 -0.96875 5.046875q-0.953125 1.828125 -2.796875 2.84375q-1.828125 1.015625 -4.0 1.015625q-3.484375 0 -5.640625 -2.234375q-2.140625 -2.234375 -2.140625 -6.4375zm2.890625 0q0 3.1875 1.390625 4.78125q1.390625 1.578125 3.5 1.578125q2.09375 0 3.484375 -1.59375q1.390625 -1.59375 1.390625 -4.859375q0 -3.078125 -1.40625 -4.65625q-1.390625 -1.59375 -3.46875 -1.59375q-2.109375 0 -3.5 1.578125q-1.390625 1.578125 -1.390625 4.765625zm15.890625 8.296875l0 -22.90625l2.8125 0l0 22.90625l-2.8125 0zm18.046875 0l0 -2.4375q-1.9375 2.8125 -5.265625 2.8125q-1.46875 0 -2.75 -0.5625q-1.265625 -0.5625 -1.890625 -1.40625q-0.609375 -0.859375 -0.859375 -2.09375q-0.171875 -0.828125 -0.171875 -2.625l0 -10.28125l2.8125 0l0 9.203125q0 2.203125 0.171875 2.96875q0.265625 1.109375 1.125 1.75q0.859375 0.625 2.125 0.625q1.265625 0 2.375 -0.640625q1.109375 -0.65625 1.5625 -1.765625q0.46875 -1.125 0.46875 -3.25l0 -8.890625l2.8125 0l0 16.59375l-2.515625 0zm6.921875 0l0 -16.59375l2.515625 0l0 2.328125q0.78125 -1.21875 2.078125 -1.953125q1.296875 -0.75 2.953125 -0.75q1.84375 0 3.015625 0.765625q1.1875 0.765625 1.671875 2.140625q1.96875 -2.90625 5.125 -2.90625q2.46875 0 3.796875 1.375q1.328125 1.359375 1.328125 4.203125l0 11.390625l-2.796875 0l0 -10.453125q0 -1.6875 -0.28125 -2.421875q-0.265625 -0.75 -0.984375 -1.203125q-0.71875 -0.453125 -1.6875 -0.453125q-1.75 0 -2.90625 1.171875q-1.15625 1.15625 -1.15625 3.71875l0 9.640625l-2.8125 0l0 -10.78125q0 -1.875 -0.6875 -2.8125q-0.6875 -0.9375 -2.25 -0.9375q-1.1875 0 -2.203125 0.625q-1.0 0.625 -1.453125 1.828125q-0.453125 1.203125 -0.453125 3.46875l0 8.609375l-2.8125 0zm26.65625 0l0 -16.59375l2.53125 0l0 2.359375q1.828125 -2.734375 5.28125 -2.734375q1.5 0 2.75 0.546875q1.265625 0.53125 1.890625 1.40625q0.625 0.875 0.875 2.078125q0.15625 0.78125 0.15625 2.734375l0 10.203125l-2.8125 0l0 -10.09375q0 -1.71875 -0.328125 -2.5625q-0.328125 -0.859375 -1.171875 -1.359375q-0.828125 -0.515625 -1.953125 -0.515625q-1.796875 0 -3.109375 1.140625q-1.296875 1.140625 -1.296875 4.328125l0 9.0625l-2.8125 0z" fill-rule="nonzero"/><path fill="#ff9900" d="m519.46906 248.0822l0 -16.59375l2.53125 0l0 2.359375q1.828125 -2.734375 5.28125 -2.734375q1.5 0 2.75 0.546875q1.265625 0.53125 1.890625 1.40625q0.625 0.875 0.875 2.078125q0.15625 0.78125 0.15625 2.734375l0 10.203125l-2.8125 0l0 -10.09375q0 -1.71875 -0.328125 -2.5625q-0.328125 -0.859375 -1.171875 -1.359375q-0.828125 -0.515625 -1.953125 -0.515625q-1.796875 0 -3.109375 1.140625q-1.296875 1.140625 -1.296875 4.328125l0 9.0625l-2.8125 0zm28.625 -2.046875q-1.5625 1.328125 -3.015625 1.875q-1.4375 0.546875 -3.09375 0.546875q-2.734375 0 -4.203125 -1.328125q-1.46875 -1.34375 -1.46875 -3.421875q0 -1.21875 0.546875 -2.21875q0.5625 -1.015625 1.453125 -1.625q0.90625 -0.609375 2.03125 -0.921875q0.828125 -0.21875 2.5 -0.421875q3.40625 -0.40625 5.015625 -0.96875q0.015625 -0.578125 0.015625 -0.734375q0 -1.71875 -0.796875 -2.421875q-1.078125 -0.953125 -3.203125 -0.953125q-1.984375 0 -2.9375 0.703125q-0.9375 0.6875 -1.390625 2.453125l-2.75 -0.375q0.375 -1.765625 1.234375 -2.84375q0.859375 -1.09375 2.484375 -1.671875q1.625 -0.59375 3.765625 -0.59375q2.125 0 3.453125 0.5q1.328125 0.5 1.953125 1.265625q0.625 0.75 0.875 1.90625q0.140625 0.71875 0.140625 2.59375l0 3.75q0 3.921875 0.171875 4.96875q0.1875 1.03125 0.71875 1.984375l-2.9375 0q-0.4375 -0.875 -0.5625 -2.046875zm-0.234375 -6.28125q-1.53125 0.625 -4.59375 1.0625q-1.734375 0.25 -2.453125 0.5625q-0.71875 0.3125 -1.109375 0.921875q-0.390625 0.59375 -0.390625 1.328125q0 1.125 0.84375 1.875q0.859375 0.75 2.5 0.75q1.625 0 2.890625 -0.703125q1.265625 -0.71875 1.859375 -1.953125q0.453125 -0.953125 0.453125 -2.8125l0 -1.03125zm7.203125 8.328125l0 -16.59375l2.515625 0l0 2.328125q0.78125 -1.21875 2.078125 -1.953125q1.296875 -0.75 2.953125 -0.75q1.84375 0 3.015625 0.765625q1.1875 0.765625 1.671875 2.140625q1.96875 -2.90625 5.125 -2.90625q2.46875 0 3.796875 1.375q1.328125 1.359375 1.328125 4.203125l0 11.390625l-2.796875 0l0 -10.453125q0 -1.6875 -0.28125 -2.421875q-0.265625 -0.75 -0.984375 -1.203125q-0.71875 -0.453125 -1.6875 -0.453125q-1.75 0 -2.90625 1.171875q-1.15625 1.15625 -1.15625 3.71875l0 9.640625l-2.8125 0l0 -10.78125q0 -1.875 -0.6875 -2.8125q-0.6875 -0.9375 -2.25 -0.9375q-1.1875 0 -2.203125 0.625q-1.0 0.625 -1.453125 1.828125q-0.453125 1.203125 -0.453125 3.46875l0 8.609375l-2.8125 0zm38.015625 -5.34375l2.90625 0.359375q-0.6875 2.546875 -2.546875 3.953125q-1.859375 1.40625 -4.75 1.40625q-3.640625 0 -5.78125 -2.234375q-2.125 -2.25 -2.125 -6.296875q0 -4.1875 2.15625 -6.5q2.15625 -2.3125 5.59375 -2.3125q3.328125 0 5.4375 2.265625q2.109375 2.265625 2.109375 6.375q0 0.25 -0.015625 0.75l-12.375 0q0.15625 2.734375 1.546875 4.1875q1.390625 1.453125 3.46875 1.453125q1.546875 0 2.640625 -0.8125q1.09375 -0.8125 1.734375 -2.59375zm-9.234375 -4.546875l9.265625 0q-0.1875 -2.09375 -1.0625 -3.140625q-1.34375 -1.625 -3.484375 -1.625q-1.9375 0 -3.265625 1.296875q-1.3125 1.296875 -1.453125 3.46875zm21.046875 16.625q-2.328125 -2.9375 -3.9375 -6.875q-1.609375 -3.9375 -1.609375 -8.15625q0 -3.71875 1.203125 -7.125q1.40625 -3.953125 4.34375 -7.875l2.015625 0q-1.890625 3.25 -2.5 4.640625q-0.953125 2.15625 -1.5 4.5q-0.671875 2.921875 -0.671875 5.875q0 7.515625 4.671875 15.015625l-2.015625 0zm4.15625 -11.6875l2.78125 -0.4375q0.234375 1.671875 1.296875 2.5625q1.078125 0.890625 3.0 0.890625q1.9375 0 2.875 -0.78125q0.9375 -0.796875 0.9375 -1.859375q0 -0.953125 -0.828125 -1.5q-0.578125 -0.375 -2.875 -0.953125q-3.09375 -0.78125 -4.296875 -1.34375q-1.1875 -0.578125 -1.8125 -1.578125q-0.609375 -1.015625 -0.609375 -2.234375q0 -1.109375 0.5 -2.046875q0.515625 -0.953125 1.390625 -1.578125q0.65625 -0.484375 1.78125 -0.8125q1.140625 -0.34375 2.4375 -0.34375q1.953125 0 3.421875 0.5625q1.484375 0.5625 2.1875 1.53125q0.703125 0.953125 0.96875 2.5625l-2.75 0.375q-0.1875 -1.28125 -1.09375 -2.0q-0.890625 -0.71875 -2.53125 -0.71875q-1.9375 0 -2.765625 0.640625q-0.828125 0.640625 -0.828125 1.5q0 0.546875 0.34375 0.984375q0.34375 0.453125 1.078125 0.75q0.421875 0.15625 2.484375 0.71875q2.984375 0.796875 4.15625 1.3125q1.1875 0.5 1.859375 1.46875q0.671875 0.96875 0.671875 2.40625q0 1.40625 -0.828125 2.65625q-0.8125 1.234375 -2.359375 1.921875q-1.546875 0.671875 -3.5 0.671875q-3.234375 0 -4.9375 -1.34375q-1.6875 -1.34375 -2.15625 -3.984375zm18.96875 11.6875l-2.015625 0q4.671875 -7.5 4.671875 -15.015625q0 -2.9375 -0.671875 -5.828125q-0.53125 -2.34375 -1.484375 -4.5q-0.609375 -1.40625 -2.515625 -4.6875l2.015625 0q2.9375 3.921875 4.34375 7.875q1.203125 3.40625 1.203125 7.125q0 4.21875 -1.625 8.15625q-1.609375 3.9375 -3.921875 6.875z" fill-rule="nonzero"/><path fill="#000000" fill-opacity="0.0" d="m60.396324 317.2021l683.3701 0l0 148.34647l-683.3701 0z" fill-rule="evenodd"/><path fill="#999999" d="m120.2557 357.56522l0 51.1875l1.640625 0q3.421875 0 4.921875 1.34375q1.5000076 1.328125 1.5000076 3.484375q0 2.109375 -1.4843826 3.453125q-1.46875 1.328125 -4.9375 1.328125l-11.25 0l0 -2.34375q-3.28125 1.921875 -6.875 2.90625q-3.578125 0.984375 -7.421875 0.984375q-10.828125 0 -17.4375 -6.25q-6.609375 -6.265625 -6.609375 -15.59375q0 -9.75 6.9375 -16.640625q6.9375 -6.890625 16.921875 -6.890625q3.75 0 7.359375 1.15625q3.609375 1.140625 7.125 3.4375l0 -11.953125l-1.640625 0q-3.46875 0 -4.953125 -1.328125q-1.46875 -1.34375 -1.46875 -3.453125q0 -2.15625 1.46875 -3.484375q1.484375 -1.34375 4.953125 -1.34375l11.25 0zm-9.609375 40.78125q0 -5.953125 -4.171875 -10.078125q-4.171875 -4.125 -10.21875 -4.125q-6.0 0 -10.171875 4.125q-4.171875 4.125 -4.171875 9.9375q0 5.296875 3.75 8.703125q3.75 3.390625 10.59375 3.390625q6.796875 0 10.59375 -3.390625q3.796875 -3.40625 3.796875 -8.5625zm53.812508 20.015625l0 -2.25q-3.609375 1.921875 -7.96875 2.875q-4.359375 0.96875 -7.921875 0.96875q-7.734375 0 -12.5625 -4.09375q-4.828125 -4.109375 -4.828125 -9.078125q0 -6.046875 6.15625 -11.21875q6.171875 -5.1875 17.046875 -5.1875q4.359375 0 10.078125 0.9375l0 -2.296875q0 -2.15625 -1.859375 -3.515625q-1.84375 -1.359375 -7.046875 -1.359375q-4.265625 0 -11.0625 1.6875q-2.53125 0.609375 -3.9375 0.609375q-1.921875 0 -3.265625 -1.375q-1.328125 -1.390625 -1.328125 -3.546875q0 -1.21875 0.46875 -2.109375q0.46875 -0.890625 1.3125 -1.421875q0.84375 -0.546875 3.515625 -1.296875q3.5625 -0.984375 7.265625 -1.5625q3.703125 -0.59375 6.703125 -0.59375q8.953125 0 13.890625 3.875q4.953125 3.859375 4.953125 10.5625l0 19.78125l1.640625 0q3.46875 0 4.9375 1.34375q1.484375 1.328125 1.484375 3.484375q0 2.109375 -1.484375 3.453125q-1.46875 1.328125 -4.9375 1.328125l-11.25 0zm0 -17.203125q-5.765625 -1.125 -10.640625 -1.125q-5.859375 0 -10.078125 2.859375q-2.625 1.828125 -2.625 3.703125q0 1.359375 1.265625 2.203125q2.34375 1.546875 6.421875 1.546875q3.46875 0 7.84375 -1.359375q4.390625 -1.359375 7.8125 -3.703125l0 -4.125zm46.59375 -15.75l0 19.265625q0 3.09375 1.265625 4.078125q1.96875 1.546875 7.03125 1.546875q7.359375 0 13.59375 -3.140625q2.390625 -1.21875 3.75 -1.21875q1.875 0 3.25 1.40625q1.390625 1.40625 1.390625 3.421875q0 1.875 -1.5 3.234375q-2.296875 2.203125 -9.078125 4.0625q-6.765625 1.84375 -11.40625 1.84375q-8.953125 0 -13.4375 -3.859375q-4.46875 -3.875 -4.46875 -9.5l0 -21.140625l-3.46875 0q-3.46875 0 -4.953125 -1.328125q-1.46875 -1.34375 -1.46875 -3.5q0 -2.109375 1.46875 -3.4375q1.484375 -1.34375 4.953125 -1.34375l3.46875 0l0 -8.671875q0 -3.46875 1.328125 -4.9375q1.34375 -1.484375 3.5 -1.484375q2.109375 0 3.4375 1.484375q1.34375 1.46875 1.34375 4.9375l0 8.671875l17.765625 0q3.46875 0 4.9375 1.34375q1.484375 1.328125 1.484375 3.484375q0 2.109375 -1.484375 3.453125q-1.46875 1.328125 -4.9375 1.328125l-17.765625 0z" fill-rule="nonzero"/><path fill="#ff5454" d="m275.83383 360.65897q3.328125 0.421875 6.515625 1.875q0.75 -0.421875 1.421875 -0.625q0.6875 -0.21875 1.34375 -0.21875q2.15625 0 3.484375 1.484375q1.34375 1.46875 1.34375 4.9375l0 3.09375q0 3.46875 -1.34375 4.953125q-1.328125 1.46875 -3.4375 1.46875q-1.921875 0 -3.265625 -1.265625q-1.328125 -1.265625 -1.5625 -3.703125q-3.375 -2.671875 -8.4375 -2.671875q-5.296875 0 -7.765625 1.90625q-2.453125 1.890625 -2.453125 4.1875q0 1.78125 1.5 3.1875q1.5 1.40625 6.28125 2.390625l6.375 1.359375q8.0625 1.640625 11.578125 4.921875q4.59375 4.171875 4.59375 11.015625q0 6.0 -4.203125 10.671875q-4.1875 4.65625 -11.96875 6.15625l0 8.15625q0 3.46875 -1.34375 4.9375q-1.328125 1.484375 -3.484375 1.484375q-2.109375 0 -3.453125 -1.484375q-1.328125 -1.46875 -1.328125 -4.9375l0 -8.15625q-3.75 -0.796875 -7.5 -2.484375q-2.015625 1.6875 -3.75 1.6875q-2.296875 0 -3.640625 -1.453125q-1.328125 -1.453125 -1.328125 -4.921875l0 -6.046875q0 -3.46875 1.328125 -4.9375q1.34375 -1.484375 3.5 -1.484375q1.734375 0 2.90625 0.9375q1.171875 0.9375 1.6875 2.890625q0.515625 1.9375 1.453125 2.921875q1.40625 1.5 4.28125 2.515625q2.890625 1.0 5.9375 1.0q5.34375 0 8.90625 -2.765625q2.390625 -1.828125 2.390625 -4.734375q0 -2.390625 -1.59375 -3.9375q-1.59375 -1.5 -6.703125 -2.53125l-7.21875 -1.453125q-7.640625 -1.5 -11.203125 -5.484375q-3.5625 -3.984375 -3.5625 -9.5625q0 -5.53125 3.84375 -9.84375q3.84375 -4.3125 10.265625 -5.4375l0 -2.625q0 -3.421875 1.328125 -4.890625q1.34375 -1.484375 3.5 -1.484375q2.109375 0 3.4375 1.484375q1.34375 1.46875 1.34375 4.890625l0 2.625z" fill-rule="nonzero"/><path fill="#ff9900" d="m311.86508 376.87772l10.625 0l-1.09375 5.390625q3.984375 -3.4375 7.4375 -4.90625q3.46875 -1.46875 7.296875 -1.46875q5.109375 0 8.0625 2.9375q2.953125 2.921875 2.953125 7.765625q0 2.1875 -1.296875 8.28125l-4.875 23.484375l-11.21875 0l4.921875 -23.5625q1.09375 -5.265625 1.09375 -6.28125q0 -2.15625 -1.265625 -3.375q-1.265625 -1.234375 -3.53125 -1.234375q-2.46875 0 -5.484375 2.078125q-3.0 2.0625 -4.71875 5.453125q-1.25 2.421875 -2.8125 9.890625l-3.546875 17.03125l-11.21875 0l8.671875 -41.484375zm55.867188 11.75l-10.9375 -0.9375q1.875 -5.546875 6.53125 -8.671875q4.671875 -3.125 12.375 -3.125q8.0 0 11.828125 3.234375q3.828125 3.21875 3.828125 7.859375q0 1.875 -0.328125 3.984375q-0.328125 2.109375 -2.328125 11.09375q-1.640625 7.421875 -1.640625 10.390625q0 2.65625 0.9375 5.90625l-10.890625 0q-0.671875 -2.265625 -0.828125 -4.6875q-2.453125 2.734375 -5.65625 4.203125q-3.203125 1.46875 -6.453125 1.46875q-5.15625 0 -8.515625 -3.375q-3.359375 -3.390625 -3.359375 -8.703125q0 -5.9375 3.6875 -9.484375q3.703125 -3.5625 13.1875 -4.3125q8.015625 -0.65625 10.703125 -1.59375q0.703125 -2.34375 0.703125 -3.75q0 -1.796875 -1.453125 -3.0q-1.4375 -1.21875 -4.28125 -1.21875q-3.015625 0 -4.75 1.234375q-1.734375 1.21875 -2.359375 3.484375zm10.65625 10.390625q-1.015625 0.28125 -2.6875 0.515625q-8.4375 1.015625 -11.015625 2.96875q-1.84375 1.40625 -1.84375 3.78125q0 1.953125 1.40625 3.3125q1.40625 1.34375 3.71875 1.34375q2.53125 0 4.78125 -1.234375q2.25 -1.234375 3.359375 -3.15625q1.109375 -1.9375 1.96875 -6.046875l0.3125 -1.484375zm26.335938 -22.140625l10.546875 0l-1.0625 5.03125q6.171875 -6.015625 12.96875 -6.015625q4.6875 0 7.21875 1.953125q2.546875 1.953125 3.25 5.390625q2.15625 -3.125 6.171875 -5.234375q4.03125 -2.109375 8.359375 -2.109375q4.96875 0 7.734375 2.65625q2.78125 2.65625 2.78125 7.03125q0 2.15625 -1.09375 7.421875l-5.3125 25.359375l-11.21875 0l5.3125 -25.359375q0.984375 -4.765625 0.984375 -5.390625q0 -1.71875 -1.046875 -2.703125q-1.03125 -1.0 -3.09375 -1.0q-4.1875 0 -7.46875 4.40625q-2.375 3.171875 -4.0625 11.21875l-3.9375 18.828125l-11.21875 0l5.234375 -25.078125q0.90625 -4.34375 0.90625 -5.625q0 -1.640625 -1.125 -2.6875q-1.109375 -1.0625 -3.0625 -1.0625q-1.828125 0 -3.78125 1.09375q-1.953125 1.09375 -3.421875 3.015625q-1.46875 1.90625 -2.515625 4.90625q-0.46875 1.40625 -1.53125 6.375l-3.984375 19.0625l-11.203125 0l8.671875 -41.484375zm103.19531 24.21875l-28.125 0q-0.03125 0.65625 -0.03125 1.015625q0 4.140625 2.359375 6.6875q2.359375 2.53125 5.765625 2.53125q5.578125 0 8.703125 -5.78125l10.046875 1.671875q-2.9375 6.0625 -7.84375 9.09375q-4.890625 3.03125 -10.984375 3.03125q-8.359375 0 -13.59375 -5.296875q-5.234375 -5.296875 -5.234375 -14.015625q0 -8.515625 4.71875 -15.15625q6.453125 -8.984375 18.40625 -8.984375q7.609375 0 12.09375 4.71875q4.5 4.703125 4.5 13.171875q0 4.0625 -0.78125 7.3125zm-9.453125 -6.84375q0.046875 -0.734375 0.046875 -1.125q0 -4.609375 -2.078125 -6.90625q-2.0625 -2.3125 -5.546875 -2.3125q-3.46875 0 -6.234375 2.625q-2.75 2.609375 -3.71875 7.71875l17.53125 0z" fill-rule="nonzero"/><path fill="#000000" fill-opacity="0.0" d="m60.396324 573.2021l683.3701 0l0 148.3465l-683.3701 0z" fill-rule="evenodd"/><path fill="#999999" d="m120.2557 613.56525l0 51.1875l1.640625 0q3.421875 0 4.921875 1.34375q1.5000076 1.328125 1.5000076 3.484375q0 2.109375 -1.4843826 3.453125q-1.46875 1.328125 -4.9375 1.328125l-11.25 0l0 -2.34375q-3.28125 1.921875 -6.875 2.90625q-3.578125 0.984375 -7.421875 0.984375q-10.828125 0 -17.4375 -6.25q-6.609375 -6.265625 -6.609375 -15.59375q0 -9.75 6.9375 -16.640625q6.9375 -6.890625 16.921875 -6.890625q3.75 0 7.359375 1.15625q3.609375 1.140625 7.125 3.4375l0 -11.953125l-1.640625 0q-3.46875 0 -4.953125 -1.328125q-1.46875 -1.34375 -1.46875 -3.453125q0 -2.15625 1.46875 -3.484375q1.484375 -1.34375 4.953125 -1.34375l11.25 0zm-9.609375 40.78125q0 -5.953125 -4.171875 -10.078125q-4.171875 -4.125 -10.21875 -4.125q-6.0 0 -10.171875 4.125q-4.171875 4.125 -4.171875 9.9375q0 5.296875 3.75 8.703125q3.75 3.390625 10.59375 3.390625q6.796875 0 10.59375 -3.390625q3.796875 -3.40625 3.796875 -8.5625zm53.812508 20.015625l0 -2.25q-3.609375 1.921875 -7.96875 2.875q-4.359375 0.96875 -7.921875 0.96875q-7.734375 0 -12.5625 -4.09375q-4.828125 -4.109375 -4.828125 -9.078125q0 -6.046875 6.15625 -11.21875q6.171875 -5.1875 17.046875 -5.1875q4.359375 0 10.078125 0.9375l0 -2.296875q0 -2.15625 -1.859375 -3.515625q-1.84375 -1.359375 -7.046875 -1.359375q-4.265625 0 -11.0625 1.6875q-2.53125 0.609375 -3.9375 0.609375q-1.921875 0 -3.265625 -1.375q-1.328125 -1.390625 -1.328125 -3.546875q0 -1.21875 0.46875 -2.109375q0.46875 -0.890625 1.3125 -1.421875q0.84375 -0.546875 3.515625 -1.296875q3.5625 -0.984375 7.265625 -1.5625q3.703125 -0.59375 6.703125 -0.59375q8.953125 0 13.890625 3.875q4.953125 3.859375 4.953125 10.5625l0 19.78125l1.640625 0q3.46875 0 4.9375 1.34375q1.484375 1.328125 1.484375 3.484375q0 2.109375 -1.484375 3.453125q-1.46875 1.328125 -4.9375 1.328125l-11.25 0zm0 -17.203125q-5.765625 -1.125 -10.640625 -1.125q-5.859375 0 -10.078125 2.859375q-2.625 1.828125 -2.625 3.703125q0 1.359375 1.265625 2.203125q2.34375 1.546875 6.421875 1.546875q3.46875 0 7.84375 -1.359375q4.390625 -1.359375 7.8125 -3.703125l0 -4.125zm46.59375 -15.75l0 19.265625q0 3.09375 1.265625 4.078125q1.96875 1.546875 7.03125 1.546875q7.359375 0 13.59375 -3.140625q2.390625 -1.21875 3.75 -1.21875q1.875 0 3.25 1.40625q1.390625 1.40625 1.390625 3.421875q0 1.875 -1.5 3.234375q-2.296875 2.203125 -9.078125 4.0625q-6.765625 1.84375 -11.40625 1.84375q-8.953125 0 -13.4375 -3.859375q-4.46875 -3.875 -4.46875 -9.5l0 -21.140625l-3.46875 0q-3.46875 0 -4.953125 -1.328125q-1.46875 -1.34375 -1.46875 -3.5q0 -2.109375 1.46875 -3.4375q1.484375 -1.34375 4.953125 -1.34375l3.46875 0l0 -8.671875q0 -3.46875 1.328125 -4.9375q1.34375 -1.484375 3.5 -1.484375q2.109375 0 3.4375 1.484375q1.34375 1.46875 1.34375 4.9375l0 8.671875l17.765625 0q3.46875 0 4.9375 1.34375q1.484375 1.328125 1.484375 3.484375q0 2.109375 -1.484375 3.453125q-1.46875 1.328125 -4.9375 1.328125l-17.765625 0z" fill-rule="nonzero"/><path fill="#ff5454" d="m275.74008 623.31525l0 56.4375l5.8125 0q3.46875 0 4.9375 1.3125q1.484375 1.3125 1.484375 3.46875q0 2.15625 -1.484375 3.484375q-1.46875 1.34375 -4.9375 1.34375l-15.421875 0l0 -75.65625l15.375 0q3.46875 0 4.9375 1.34375q1.484375 1.328125 1.484375 3.484375q0 2.109375 -1.484375 3.453125q-1.46875 1.328125 -4.9375 1.328125l-5.765625 0zm57.609375 0l0 56.4375l5.8125 0q3.46875 0 4.9375 1.3125q1.484375 1.3125 1.484375 3.46875q0 2.15625 -1.484375 3.484375q-1.46875 1.34375 -4.9375 1.34375l-15.421875 0l0 -75.65625l15.375 0q3.46875 0 4.9375 1.34375q1.484375 1.328125 1.484375 3.484375q0 2.109375 -1.484375 3.453125q-1.46875 1.328125 -4.9375 1.328125l-5.765625 0z" fill-rule="nonzero"/><path fill="#ff9900" d="m408.8182 613.56525l-2.15625 10.171875l-11.484375 0l2.15625 -10.171875l11.484375 0zm-9.84375 27.84375l-19.59375 0q-3.234375 0 -4.390625 -1.0q-1.140625 -1.015625 -1.140625 -2.796875q0 -2.8125 2.671875 -4.734375q1.5 -1.078125 4.875 -1.078125l29.25 0l-9.515625 44.578125q-1.03125 4.96875 -3.9375 8.734375q-2.90625 3.78125 -7.953125 6.546875q-5.03125 2.765625 -10.5625 2.765625l-10.875 0q-3.1875 0 -4.34375 -0.984375q-1.140625 -0.984375 -1.140625 -2.8125q0 -2.859375 2.71875 -4.78125q1.5 -1.03125 4.828125 -1.03125l10.59375 0q4.359375 0 7.328125 -2.375q2.984375 -2.359375 3.734375 -6.0625l7.453125 -34.96875z" fill-rule="nonzero"/><path fill="#ff5454" d="m439.14633 679.75275l0 -56.4375l-5.8125 0q-3.46875 0 -4.953125 -1.328125q-1.46875 -1.34375 -1.46875 -3.453125q0 -2.15625 1.46875 -3.484375q1.484375 -1.34375 4.953125 -1.34375l15.421875 0l0 75.65625l-15.375 0q-3.46875 0 -4.953125 -1.34375q-1.46875 -1.328125 -1.46875 -3.484375q0 -2.109375 1.46875 -3.453125q1.484375 -1.328125 4.953125 -1.328125l5.765625 0zm57.609375 0l0 -56.4375l-5.8125 0q-3.46875 0 -4.953125 -1.328125q-1.46875 -1.34375 -1.46875 -3.453125q0 -2.15625 1.46875 -3.484375q1.484375 -1.34375 4.953125 -1.34375l15.421875 0l0 75.65625l-15.375 0q-3.46875 0 -4.953125 -1.34375q-1.46875 -1.328125 -1.46875 -3.484375q0 -2.109375 1.46875 -3.453125q1.484375 -1.328125 4.953125 -1.328125l5.765625 0z" fill-rule="nonzero"/><path fill="#000000" fill-opacity="0.0" d="m218.33858 710.37006l351.87402 0l0 94.456726l-351.87402 0z" fill-rule="evenodd"/><path fill="#ff9900" d="m254.73653 745.13696l2.7812653 -0.4375q0.234375 1.671875 1.296875 2.5625q1.078125 0.890625 3.0 0.890625q1.9375 0 2.875 -0.78125q0.9375 -0.796875 0.9375 -1.859375q0 -0.953125 -0.828125 -1.5q-0.578125 -0.375 -2.875 -0.953125q-3.09375 -0.78125 -4.296875 -1.34375q-1.1875 -0.578125 -1.8125153 -1.578125q-0.609375 -1.015625 -0.609375 -2.234375q0 -1.109375 0.5 -2.046875q0.51564026 -0.953125 1.3906403 -1.578125q0.65625 -0.484375 1.78125 -0.8125q1.140625 -0.34375 2.4375 -0.34375q1.953125 0 3.421875 0.5625q1.484375 0.5625 2.1875 1.53125q0.703125 0.953125 0.96875 2.5625l-2.75 0.375q-0.1875 -1.28125 -1.09375 -2.0q-0.890625 -0.71875 -2.53125 -0.71875q-1.9375 0 -2.765625 0.640625q-0.828125 0.640625 -0.828125 1.5q0 0.546875 0.34375 0.984375q0.34375 0.453125 1.078125 0.75q0.421875 0.15625 2.484375 0.71875q2.984375 0.796875 4.15625 1.3125q1.1875 0.5 1.859375 1.46875q0.671875 0.96875 0.671875 2.40625q0 1.40625 -0.828125 2.65625q-0.8125 1.234375 -2.359375 1.921875q-1.546875 0.671875 -3.5 0.671875q-3.234375 0 -4.9375 -1.34375q-1.6875153 -1.34375 -2.1562653 -3.984375zm17.14064 -14.71875l0 -3.234375l2.8125 0l0 3.234375l-2.8125 0zm0 19.671875l0 -16.59375l2.8125 0l0 16.59375l-2.8125 0zm7.09375 0l0 -16.59375l2.53125 0l0 2.359375q1.828125 -2.734375 5.28125 -2.734375q1.5 0 2.75 0.546875q1.265625 0.53125 1.890625 1.40625q0.625 0.875 0.875 2.078125q0.15625 0.78125 0.15625 2.734375l0 10.203125l-2.8125 0l0 -10.09375q0 -1.71875 -0.328125 -2.5625q-0.328125 -0.859375 -1.171875 -1.359375q-0.828125 -0.515625 -1.953125 -0.515625q-1.796875 0 -3.109375 1.140625q-1.296875 1.140625 -1.296875 4.328125l0 9.0625l-2.8125 0zm17.28125 1.375l2.734375 0.40625q0.171875 1.265625 0.953125 1.84375q1.046875 0.78125 2.859375 0.78125q1.953125 0 3.015625 -0.78125q1.0625 -0.78125 1.4375 -2.1875q0.21875 -0.859375 0.203125 -3.609375q-1.84375 2.171875 -4.59375 2.171875q-3.421875 0 -5.296875 -2.46875q-1.875 -2.46875 -1.875 -5.921875q0 -2.375 0.859375 -4.375q0.859375 -2.015625 2.484375 -3.109375q1.640625 -1.09375 3.84375 -1.09375q2.9375 0 4.84375 2.375l0 -2.0l2.59375 0l0 14.34375q0 3.875 -0.796875 5.484375q-0.78125 1.625 -2.5 2.5625q-1.703125 0.9375 -4.203125 0.9375q-2.96875 0 -4.796875 -1.34375q-1.828125 -1.328125 -1.765625 -4.015625zm2.328125 -9.96875q0 3.265625 1.296875 4.765625q1.296875 1.5 3.25 1.5q1.9375 0 3.25 -1.484375q1.3125 -1.5 1.3125 -4.6875q0 -3.046875 -1.359375 -4.59375q-1.34375 -1.546875 -3.25 -1.546875q-1.875 0 -3.1875 1.53125q-1.3125 1.515625 -1.3125 4.515625zm15.921875 8.59375l0 -22.90625l2.8125 0l0 22.90625l-2.8125 0zm18.53125 -5.34375l2.90625 0.359375q-0.6875 2.546875 -2.546875 3.953125q-1.859375 1.40625 -4.75 1.40625q-3.640625 0 -5.78125 -2.234375q-2.125 -2.25 -2.125 -6.296875q0 -4.1875 2.15625 -6.5q2.15625 -2.3125 5.59375 -2.3125q3.328125 0 5.4375 2.265625q2.109375 2.265625 2.109375 6.375q0 0.25 -0.015625 0.75l-12.375 0q0.15625 2.734375 1.546875 4.1875q1.390625 1.453125 3.46875 1.453125q1.546875 0 2.640625 -0.8125q1.09375 -0.8125 1.734375 -2.59375zm-9.234375 -4.546875l9.265625 0q-0.1875 -2.09375 -1.0625 -3.140625q-1.34375 -1.625 -3.484375 -1.625q-1.9375 0 -3.265625 1.296875q-1.3125 1.296875 -1.453125 3.46875zm35.390625 3.8125l2.765625 0.359375q-0.453125 2.859375 -2.328125 4.484375q-1.859375 1.609375 -4.578125 1.609375q-3.40625 0 -5.484375 -2.21875q-2.0625 -2.234375 -2.0625 -6.390625q0 -2.6875 0.890625 -4.703125q0.890625 -2.015625 2.703125 -3.015625q1.828125 -1.015625 3.96875 -1.015625q2.703125 0 4.421875 1.375q1.71875 1.359375 2.203125 3.875l-2.734375 0.421875q-0.390625 -1.671875 -1.390625 -2.515625q-0.984375 -0.84375 -2.390625 -0.84375q-2.125 0 -3.453125 1.53125q-1.328125 1.515625 -1.328125 4.8125q0 3.34375 1.28125 4.859375q1.28125 1.515625 3.34375 1.515625q1.65625 0 2.765625 -1.015625q1.109375 -1.015625 1.40625 -3.125zm4.125 -2.21875q0 -4.609375 2.5625 -6.828125q2.140625 -1.84375 5.21875 -1.84375q3.421875 0 5.59375 2.25q2.171875 2.234375 2.171875 6.1875q0 3.203125 -0.96875 5.046875q-0.953125 1.828125 -2.796875 2.84375q-1.828125 1.015625 -4.0 1.015625q-3.484375 0 -5.640625 -2.234375q-2.140625 -2.234375 -2.140625 -6.4375zm2.890625 0q0 3.1875 1.390625 4.78125q1.390625 1.578125 3.5 1.578125q2.09375 0 3.484375 -1.59375q1.390625 -1.59375 1.390625 -4.859375q0 -3.078125 -1.40625 -4.65625q-1.390625 -1.59375 -3.46875 -1.59375q-2.109375 0 -3.5 1.578125q-1.390625 1.578125 -1.390625 4.765625zm15.890625 8.296875l0 -22.90625l2.8125 0l0 22.90625l-2.8125 0zm18.046875 0l0 -2.4375q-1.9375 2.8125 -5.265625 2.8125q-1.46875 0 -2.75 -0.5625q-1.265625 -0.5625 -1.890625 -1.40625q-0.609375 -0.859375 -0.859375 -2.09375q-0.171875 -0.828125 -0.171875 -2.625l0 -10.28125l2.8125 0l0 9.203125q0 2.203125 0.171875 2.96875q0.265625 1.109375 1.125 1.75q0.859375 0.625 2.125 0.625q1.265625 0 2.375 -0.640625q1.109375 -0.65625 1.5625 -1.765625q0.46875 -1.125 0.46875 -3.25l0 -8.890625l2.8125 0l0 16.59375l-2.515625 0zm6.921875 0l0 -16.59375l2.515625 0l0 2.328125q0.78125 -1.21875 2.078125 -1.953125q1.296875 -0.75 2.953125 -0.75q1.84375 0 3.015625 0.765625q1.1875 0.765625 1.671875 2.140625q1.96875 -2.90625 5.125 -2.90625q2.46875 0 3.796875 1.375q1.328125 1.359375 1.328125 4.203125l0 11.390625l-2.796875 0l0 -10.453125q0 -1.6875 -0.28125 -2.421875q-0.265625 -0.75 -0.984375 -1.203125q-0.71875 -0.453125 -1.6875 -0.453125q-1.75 0 -2.90625 1.171875q-1.15625 1.15625 -1.15625 3.71875l0 9.640625l-2.8125 0l0 -10.78125q0 -1.875 -0.6875 -2.8125q-0.6875 -0.9375 -2.25 -0.9375q-1.1875 0 -2.203125 0.625q-1.0 0.625 -1.453125 1.828125q-0.453125 1.203125 -0.453125 3.46875l0 8.609375l-2.8125 0zm26.65625 0l0 -16.59375l2.53125 0l0 2.359375q1.828125 -2.734375 5.28125 -2.734375q1.5 0 2.75 0.546875q1.265625 0.53125 1.890625 1.40625q0.625 0.875 0.875 2.078125q0.15625 0.78125 0.15625 2.734375l0 10.203125l-2.8125 0l0 -10.09375q0 -1.71875 -0.328125 -2.5625q-0.328125 -0.859375 -1.171875 -1.359375q-0.828125 -0.515625 -1.953125 -0.515625q-1.796875 0 -3.109375 1.140625q-1.296875 1.140625 -1.296875 4.328125l0 9.0625l-2.8125 0zm26.703125 -19.671875l0 -3.234375l2.8125 0l0 3.234375l-2.8125 0zm0 19.671875l0 -16.59375l2.8125 0l0 16.59375l-2.8125 0zm7.09375 0l0 -16.59375l2.53125 0l0 2.359375q1.828125 -2.734375 5.28125 -2.734375q1.5 0 2.75 0.546875q1.265625 0.53125 1.890625 1.40625q0.625 0.875 0.875 2.078125q0.15625 0.78125 0.15625 2.734375l0 10.203125l-2.8125 0l0 -10.09375q0 -1.71875 -0.328125 -2.5625q-0.328125 -0.859375 -1.171875 -1.359375q-0.828125 -0.515625 -1.953125 -0.515625q-1.796875 0 -3.109375 1.140625q-1.296875 1.140625 -1.296875 4.328125l0 9.0625l-2.8125 0zm28.5625 0l0 -2.09375q-1.578125 2.46875 -4.640625 2.46875q-1.984375 0 -3.65625 -1.09375q-1.65625 -1.09375 -2.578125 -3.046875q-0.90625 -1.96875 -0.90625 -4.515625q0 -2.484375 0.828125 -4.5q0.828125 -2.03125 2.484375 -3.109375q1.65625 -1.078125 3.703125 -1.078125q1.5 0 2.671875 0.640625q1.171875 0.625 1.90625 1.640625l0 -8.21875l2.796875 0l0 22.90625l-2.609375 0zm-8.890625 -8.28125q0 3.1875 1.34375 4.765625q1.34375 1.578125 3.171875 1.578125q1.84375 0 3.125 -1.5q1.296875 -1.515625 1.296875 -4.609375q0 -3.40625 -1.3125 -5.0q-1.3125 -1.59375 -3.234375 -1.59375q-1.875 0 -3.140625 1.53125q-1.25 1.53125 -1.25 4.828125zm27.28122 2.9375l2.90625 0.359375q-0.6875 2.546875 -2.546875 3.953125q-1.859375 1.40625 -4.7499695 1.40625q-3.640625 0 -5.78125 -2.234375q-2.125 -2.25 -2.125 -6.296875q0 -4.1875 2.15625 -6.5q2.15625 -2.3125 5.59375 -2.3125q3.3280945 0 5.4374695 2.265625q2.109375 2.265625 2.109375 6.375q0 0.25 -0.015625 0.75l-12.3749695 0q0.15625 2.734375 1.546875 4.1875q1.390625 1.453125 3.46875 1.453125q1.546875 0 2.6405945 -0.8125q1.09375 -0.8125 1.734375 -2.59375zm-9.2343445 -4.546875l9.2655945 0q-0.1875 -2.09375 -1.0625 -3.140625q-1.34375 -1.625 -3.4843445 -1.625q-1.9375 0 -3.265625 1.296875q-1.3125 1.296875 -1.453125 3.46875zm13.7968445 9.890625l6.0625 -8.625l-5.609375 -7.96875l3.515625 0l2.546875 3.890625q0.71875 1.109375 1.15625 1.859375q0.6875 -1.03125 1.265625 -1.828125l2.796875 -3.921875l3.359375 0l-5.734375 7.8125l6.171875 8.78125l-3.453125 0l-3.40625 -5.15625l-0.90625 -1.390625l-4.359375 6.546875l-3.40625 0z" fill-rule="nonzero"/><path fill="#ff9900" d="m294.1506 794.82446q-2.328125 -2.9375 -3.9375 -6.875q-1.609375 -3.9375 -1.609375 -8.15625q0 -3.71875 1.203125 -7.125q1.40625 -3.953125 4.34375 -7.875l2.015625 0q-1.890625 3.25 -2.5 4.640625q-0.953125 2.15625 -1.5 4.5q-0.671875 2.921875 -0.671875 5.875q0 7.515625 4.671875 15.015625l-2.015625 0zm5.296875 -26.40625l0 -3.234375l2.8125 0l0 3.234375l-2.8125 0zm0 19.671875l0 -16.59375l2.8125 0l0 16.59375l-2.8125 0zm7.09375 0l0 -16.59375l2.53125 0l0 2.359375q1.828125 -2.734375 5.28125 -2.734375q1.5 0 2.75 0.546875q1.265625 0.53125 1.890625 1.40625q0.625 0.875 0.875 2.078125q0.15625 0.78125 0.15625 2.734375l0 10.203125l-2.8125 0l0 -10.09375q0 -1.71875 -0.328125 -2.5625q-0.328125 -0.859375 -1.171875 -1.359375q-0.828125 -0.515625 -1.953125 -0.515625q-1.796875 0 -3.109375 1.140625q-1.296875 1.140625 -1.296875 4.328125l0 9.0625l-2.8125 0zm23.9375 -2.515625l0.40625 2.484375q-1.1875 0.25 -2.125 0.25q-1.53125 0 -2.375 -0.484375q-0.84375 -0.484375 -1.1875 -1.265625q-0.34375 -0.796875 -0.34375 -3.328125l0 -9.546875l-2.0625 0l0 -2.1875l2.0625 0l0 -4.109375l2.796875 -1.6875l0 5.796875l2.828125 0l0 2.1875l-2.828125 0l0 9.703125q0 1.203125 0.140625 1.546875q0.15625 0.34375 0.484375 0.546875q0.34375 0.203125 0.96875 0.203125q0.46875 0 1.234375 -0.109375zm14.109375 -2.828125l2.90625 0.359375q-0.6875 2.546875 -2.546875 3.953125q-1.859375 1.40625 -4.75 1.40625q-3.640625 0 -5.78125 -2.234375q-2.125 -2.25 -2.125 -6.296875q0 -4.1875 2.15625 -6.5q2.15625 -2.3125 5.59375 -2.3125q3.328125 0 5.4375 2.265625q2.109375 2.265625 2.109375 6.375q0 0.25 -0.015625 0.75l-12.375 0q0.15625 2.734375 1.546875 4.1875q1.390625 1.453125 3.46875 1.453125q1.546875 0 2.640625 -0.8125q1.09375 -0.8125 1.734375 -2.59375zm-9.234375 -4.546875l9.265625 0q-0.1875 -2.09375 -1.0625 -3.140625q-1.34375 -1.625 -3.484375 -1.625q-1.9375 0 -3.265625 1.296875q-1.3125 1.296875 -1.453125 3.46875zm15.15625 11.265625l2.734375 0.40625q0.171875 1.265625 0.953125 1.84375q1.046875 0.78125 2.859375 0.78125q1.953125 0 3.015625 -0.78125q1.0625 -0.78125 1.4375 -2.1875q0.21875 -0.859375 0.203125 -3.609375q-1.84375 2.171875 -4.59375 2.171875q-3.421875 0 -5.296875 -2.46875q-1.875 -2.46875 -1.875 -5.921875q0 -2.375 0.859375 -4.375q0.859375 -2.015625 2.484375 -3.109375q1.640625 -1.09375 3.84375 -1.09375q2.9375 0 4.84375 2.375l0 -2.0l2.59375 0l0 14.34375q0 3.875 -0.796875 5.484375q-0.78125 1.625 -2.5 2.5625q-1.703125 0.9375 -4.203125 0.9375q-2.96875 0 -4.796875 -1.34375q-1.828125 -1.328125 -1.765625 -4.015625zm2.328125 -9.96875q0 3.265625 1.296875 4.765625q1.296875 1.5 3.25 1.5q1.9375 0 3.25 -1.484375q1.3125 -1.5 1.3125 -4.6875q0 -3.046875 -1.359375 -4.59375q-1.34375 -1.546875 -3.25 -1.546875q-1.875 0 -3.1875 1.53125q-1.3125 1.515625 -1.3125 4.515625zm27.34375 3.25l2.90625 0.359375q-0.6875 2.546875 -2.546875 3.953125q-1.859375 1.40625 -4.75 1.40625q-3.640625 0 -5.78125 -2.234375q-2.125 -2.25 -2.125 -6.296875q0 -4.1875 2.15625 -6.5q2.15625 -2.3125 5.59375 -2.3125q3.328125 0 5.4375 2.265625q2.109375 2.265625 2.109375 6.375q0 0.25 -0.015625 0.75l-12.375 0q0.15625 2.734375 1.546875 4.1875q1.390625 1.453125 3.46875 1.453125q1.546875 0 2.640625 -0.8125q1.09375 -0.8125 1.734375 -2.59375zm-9.234375 -4.546875l9.265625 0q-0.1875 -2.09375 -1.0625 -3.140625q-1.34375 -1.625 -3.484375 -1.625q-1.9375 0 -3.265625 1.296875q-1.3125 1.296875 -1.453125 3.46875zm15.640625 9.890625l0 -16.59375l2.53125 0l0 2.515625q0.96875 -1.765625 1.78125 -2.328125q0.828125 -0.5625 1.8125 -0.5625q1.421875 0 2.890625 0.90625l-0.96875 2.609375q-1.03125 -0.609375 -2.0625 -0.609375q-0.921875 0 -1.65625 0.5625q-0.734375 0.546875 -1.046875 1.53125q-0.46875 1.5 -0.46875 3.28125l0 8.6875l-2.8125 0zm9.65625 0l0 -3.203125l3.203125 0l0 3.203125q0 1.765625 -0.625 2.84375q-0.625 1.09375 -1.984375 1.6875l-0.78125 -1.203125q0.890625 -0.390625 1.3125 -1.15625q0.421875 -0.75 0.46875 -2.171875l-1.59375 0zm17.046875 0l0 -16.59375l2.53125 0l0 2.359375q1.828125 -2.734375 5.28125 -2.734375q1.5 0 2.75 0.546875q1.265625 0.53125 1.890625 1.40625q0.625 0.875 0.875 2.078125q0.15625 0.78125 0.15625 2.734375l0 10.203125l-2.8125 0l0 -10.09375q0 -1.71875 -0.328125 -2.5625q-0.328125 -0.859375 -1.171875 -1.359375q-0.828125 -0.515625 -1.953125 -0.515625q-1.796875 0 -3.109375 1.140625q-1.296875 1.140625 -1.296875 4.328125l0 9.0625l-2.8125 0zm28.625 -2.046875q-1.5625 1.328125 -3.015625 1.875q-1.4375 0.546875 -3.09375 0.546875q-2.734375 0 -4.203125 -1.328125q-1.46875 -1.34375 -1.46875 -3.421875q0 -1.21875 0.546875 -2.21875q0.5625 -1.015625 1.453125 -1.625q0.90625 -0.609375 2.03125 -0.921875q0.828125 -0.21875 2.5 -0.421875q3.40625 -0.40625 5.015625 -0.96875q0.015625 -0.578125 0.015625 -0.734375q0 -1.71875 -0.796875 -2.421875q-1.078125 -0.953125 -3.203125 -0.953125q-1.984375 0 -2.9375 0.703125q-0.9375 0.6875 -1.390625 2.453125l-2.75 -0.375q0.375 -1.765625 1.234375 -2.84375q0.859375 -1.09375 2.484375 -1.671875q1.625 -0.59375 3.765625 -0.59375q2.125 0 3.453125 0.5q1.328125 0.5 1.953125 1.265625q0.625 0.75 0.875 1.90625q0.140625 0.71875 0.140625 2.59375l0 3.75q0 3.921875 0.171875 4.96875q0.1875 1.03125 0.71875 1.984375l-2.9375 0q-0.4375 -0.875 -0.5625 -2.046875zm-0.234375 -6.28125q-1.53125 0.625 -4.59375 1.0625q-1.734375 0.25 -2.453125 0.5625q-0.71875 0.3125 -1.109375 0.921875q-0.390625 0.59375 -0.390625 1.328125q0 1.125 0.84375 1.875q0.859375 0.75 2.5 0.75q1.625 0 2.890625 -0.703125q1.265625 -0.71875 1.859375 -1.953125q0.453125 -0.953125 0.453125 -2.8125l0 -1.03125zm7.203125 8.328125l0 -16.59375l2.515625 0l0 2.328125q0.78125 -1.21875 2.078125 -1.953125q1.296875 -0.75 2.953125 -0.75q1.84375 0 3.015625 0.765625q1.1875 0.765625 1.671875 2.140625q1.96875 -2.90625 5.125 -2.90625q2.46875 0 3.796875 1.375q1.328125 1.359375 1.328125 4.203125l0 11.390625l-2.796875 0l0 -10.453125q0 -1.6875 -0.28125 -2.421875q-0.265625 -0.75 -0.984375 -1.203125q-0.71875 -0.453125 -1.6875 -0.453125q-1.75 0 -2.90625 1.171875q-1.15625 1.15625 -1.15625 3.71875l0 9.640625l-2.8125 0l0 -10.78125q0 -1.875 -0.6875 -2.8125q-0.6875 -0.9375 -2.25 -0.9375q-1.1875 0 -2.203125 0.625q-1.0 0.625 -1.453125 1.828125q-0.453125 1.203125 -0.453125 3.46875l0 8.609375l-2.8125 0zm38.015625 -5.34375l2.90625 0.359375q-0.6875 2.546875 -2.546875 3.953125q-1.859375 1.40625 -4.75 1.40625q-3.640625 0 -5.78125 -2.234375q-2.125 -2.25 -2.125 -6.296875q0 -4.1875 2.15625 -6.5q2.15625 -2.3125 5.59375 -2.3125q3.328125 0 5.4375 2.265625q2.109375 2.265625 2.109375 6.375q0 0.25 -0.015625 0.75l-12.375 0q0.15625 2.734375 1.546875 4.1875q1.390625 1.453125 3.46875 1.453125q1.546875 0 2.640625 -0.8125q1.09375 -0.8125 1.734375 -2.59375zm-9.234375 -4.546875l9.265625 0q-0.1875 -2.09375 -1.0625 -3.140625q-1.34375 -1.625 -3.484375 -1.625q-1.9375 0 -3.265625 1.296875q-1.3125 1.296875 -1.453125 3.46875zm17.515625 16.625l-2.015625 0q4.671875 -7.5 4.671875 -15.015625q0 -2.9375 -0.671875 -5.828125q-0.53125 -2.34375 -1.484375 -4.5q-0.609375 -1.40625 -2.515625 -4.6875l2.015625 0q2.9375 3.921875 4.34375 7.875q1.203125 3.40625 1.203125 7.125q0 4.21875 -1.625 8.15625q-1.609375 3.9375 -3.921875 6.875z" fill-rule="nonzero"/><path fill="#000000" fill-opacity="0.0" d="m260.99997 542.5197l266.55118 0l0 59.873962l-266.55118 0z" fill-rule="evenodd"/><path fill="#ff5454" d="m294.18964 582.2397l0 -2.09375q-1.578125 2.46875 -4.640625 2.46875q-1.984375 0 -3.65625 -1.09375q-1.65625 -1.09375 -2.578125 -3.046875q-0.90625 -1.96875 -0.90625 -4.515625q0 -2.484375 0.828125 -4.5q0.828125 -2.03125 2.484375 -3.109375q1.65625 -1.078125 3.703125 -1.078125q1.5 0 2.671875 0.640625q1.171875 0.625 1.90625 1.640625l0 -8.21875l2.796875 0l0 22.90625l-2.609375 0zm-8.890625 -8.28125q0 3.1875 1.34375 4.765625q1.34375 1.578125 3.171875 1.578125q1.84375 0 3.125 -1.5q1.296875 -1.515625 1.296875 -4.609375q0 -3.40625 -1.3125 -5.0q-1.3125 -1.59375 -3.234375 -1.59375q-1.875 0 -3.140625 1.53125q-1.25 1.53125 -1.25 4.828125zm14.875 -0.015625q0 -4.609375 2.5625 -6.828125q2.140625 -1.84375 5.21875 -1.84375q3.421875 0 5.59375 2.25q2.171875 2.234375 2.171875 6.1875q0 3.203125 -0.96875 5.046875q-0.953125 1.828125 -2.796875 2.84375q-1.828125 1.015625 -4.0 1.015625q-3.484375 0 -5.640625 -2.234375q-2.140625 -2.234375 -2.140625 -6.4375zm2.890625 0q0 3.1875 1.390625 4.78125q1.390625 1.578125 3.5 1.578125q2.09375 0 3.484375 -1.59375q1.390625 -1.59375 1.390625 -4.859375q0 -3.078125 -1.40625 -4.65625q-1.390625 -1.59375 -3.46875 -1.59375q-2.109375 0 -3.5 1.578125q-1.390625 1.578125 -1.390625 4.765625zm26.828125 8.296875l0 -2.4375q-1.9375 2.8125 -5.265625 2.8125q-1.46875 0 -2.75 -0.5625q-1.265625 -0.5625 -1.890625 -1.40625q-0.609375 -0.859375 -0.859375 -2.09375q-0.171875 -0.828125 -0.171875 -2.625l0 -10.28125l2.8125 0l0 9.203125q0 2.203125 0.171875 2.96875q0.265625 1.109375 1.125 1.75q0.859375 0.625 2.125 0.625q1.265625 0 2.375 -0.640625q1.109375 -0.65625 1.5625 -1.765625q0.46875 -1.125 0.46875 -3.25l0 -8.890625l2.8125 0l0 16.59375l-2.515625 0zm9.515625 0l-2.609375 0l0 -22.90625l2.8125 0l0 8.171875q1.78125 -2.234375 4.546875 -2.234375q1.53125 0 2.890625 0.625q1.375 0.609375 2.25 1.734375q0.890625 1.109375 1.390625 2.6875q0.5 1.578125 0.5 3.375q0 4.265625 -2.109375 6.59375q-2.109375 2.328125 -5.0625 2.328125q-2.9375 0 -4.609375 -2.453125l0 2.078125zm-0.03125 -8.421875q0 2.984375 0.8125 4.3125q1.328125 2.171875 3.59375 2.171875q1.84375 0 3.1875 -1.59375q1.34375 -1.609375 1.34375 -4.78125q0 -3.25 -1.296875 -4.796875q-1.28125 -1.546875 -3.109375 -1.546875q-1.84375 0 -3.1875 1.609375q-1.34375 1.59375 -1.34375 4.625zm15.171875 8.421875l0 -22.90625l2.8125 0l0 22.90625l-2.8125 0zm18.53125 -5.34375l2.90625 0.359375q-0.6875 2.546875 -2.546875 3.953125q-1.859375 1.40625 -4.75 1.40625q-3.640625 0 -5.78125 -2.234375q-2.125 -2.25 -2.125 -6.296875q0 -4.1875 2.15625 -6.5q2.15625 -2.3125 5.59375 -2.3125q3.328125 0 5.4375 2.265625q2.109375 2.265625 2.109375 6.375q0 0.25 -0.015625 0.75l-12.375 0q0.15625 2.734375 1.546875 4.1875q1.390625 1.453125 3.46875 1.453125q1.546875 0 2.640625 -0.8125q1.09375 -0.8125 1.734375 -2.59375zm-9.234375 -4.546875l9.265625 0q-0.1875 -2.09375 -1.0625 -3.140625q-1.34375 -1.625 -3.484375 -1.625q-1.9375 0 -3.265625 1.296875q-1.3125 1.296875 -1.453125 3.46875zm27.15625 9.890625l-2.609375 0l0 -22.90625l2.8125 0l0 8.171875q1.78125 -2.234375 4.546875 -2.234375q1.53125 0 2.890625 0.625q1.375 0.609375 2.25 1.734375q0.890625 1.109375 1.390625 2.6875q0.5 1.578125 0.5 3.375q0 4.265625 -2.109375 6.59375q-2.109375 2.328125 -5.0625 2.328125q-2.9375 0 -4.609375 -2.453125l0 2.078125zm-0.03125 -8.421875q0 2.984375 0.8125 4.3125q1.328125 2.171875 3.59375 2.171875q1.84375 0 3.1875 -1.59375q1.34375 -1.609375 1.34375 -4.78125q0 -3.25 -1.296875 -4.796875q-1.28125 -1.546875 -3.109375 -1.546875q-1.84375 0 -3.1875 1.609375q-1.34375 1.59375 -1.34375 4.625zm15.203125 8.421875l0 -16.59375l2.53125 0l0 2.515625q0.96875 -1.765625 1.78125 -2.328125q0.828125 -0.5625 1.8125 -0.5625q1.421875 0 2.890625 0.90625l-0.96875 2.609375q-1.03125 -0.609375 -2.0625 -0.609375q-0.921875 0 -1.65625 0.5625q-0.734375 0.546875 -1.046875 1.53125q-0.46875 1.5 -0.46875 3.28125l0 8.6875l-2.8125 0zm21.515625 -2.046875q-1.5625 1.328125 -3.015625 1.875q-1.4375 0.546875 -3.09375 0.546875q-2.734375 0 -4.203125 -1.328125q-1.46875 -1.34375 -1.46875 -3.421875q0 -1.21875 0.546875 -2.21875q0.5625 -1.015625 1.453125 -1.625q0.90625 -0.609375 2.03125 -0.921875q0.828125 -0.21875 2.5 -0.421875q3.40625 -0.40625 5.015625 -0.96875q0.015625 -0.578125 0.015625 -0.734375q0 -1.71875 -0.796875 -2.421875q-1.078125 -0.953125 -3.203125 -0.953125q-1.984375 0 -2.9375 0.703125q-0.9375 0.6875 -1.390625 2.453125l-2.75 -0.375q0.375 -1.765625 1.234375 -2.84375q0.859375 -1.09375 2.484375 -1.671875q1.625 -0.59375 3.765625 -0.59375q2.125 0 3.453125 0.5q1.328125 0.5 1.953125 1.265625q0.625 0.75 0.875 1.90625q0.140625 0.71875 0.140625 2.59375l0 3.75q0 3.921875 0.171875 4.96875q0.1875 1.03125 0.71875 1.984375l-2.9375 0q-0.4375 -0.875 -0.5625 -2.046875zm-0.234375 -6.28125q-1.53125 0.625 -4.59375 1.0625q-1.734375 0.25 -2.453125 0.5625q-0.71875 0.3125 -1.109375 0.921875q-0.390625 0.59375 -0.390625 1.328125q0 1.125 0.84375 1.875q0.859375 0.75 2.5 0.75q1.625 0 2.890625 -0.703125q1.265625 -0.71875 1.859375 -1.953125q0.453125 -0.953125 0.453125 -2.8125l0 -1.03125zm18.03125 2.25l2.765625 0.359375q-0.453125 2.859375 -2.328125 4.484375q-1.859375 1.609375 -4.578125 1.609375q-3.40625 0 -5.484375 -2.21875q-2.0625 -2.234375 -2.0625 -6.390625q0 -2.6875 0.890625 -4.703125q0.890625 -2.015625 2.703125 -3.015625q1.828125 -1.015625 3.96875 -1.015625q2.703125 0 4.421875 1.375q1.71875 1.359375 2.203125 3.875l-2.734375 0.421875q-0.390625 -1.671875 -1.390625 -2.515625q-0.984375 -0.84375 -2.390625 -0.84375q-2.125 0 -3.453125 1.53125q-1.328125 1.515625 -1.328125 4.8125q0 3.34375 1.28125 4.859375q1.28125 1.515625 3.34375 1.515625q1.65625 0 2.765625 -1.015625q1.109375 -1.015625 1.40625 -3.125zm5.1875 6.078125l0 -22.90625l2.8125 0l0 13.0625l6.65625 -6.75l3.640625 0l-6.34375 6.15625l6.984375 10.4375l-3.46875 0l-5.484375 -8.484375l-1.984375 1.90625l0 6.578125l-2.8125 0zm27.34375 -5.34375l2.90625 0.359375q-0.6875 2.546875 -2.546875 3.953125q-1.859375 1.40625 -4.75 1.40625q-3.640625 0 -5.78125 -2.234375q-2.125 -2.25 -2.125 -6.296875q0 -4.1875 2.15625 -6.5q2.15625 -2.3125 5.59375 -2.3125q3.328125 0 5.4375 2.265625q2.109375 2.265625 2.109375 6.375q0 0.25 -0.015625 0.75l-12.375 0q0.15625 2.734375 1.546875 4.1875q1.390625 1.453125 3.46875 1.453125q1.546875 0 2.640625 -0.8125q1.09375 -0.8125 1.734375 -2.59375zm-9.234375 -4.546875l9.265625 0q-0.1875 -2.09375 -1.0625 -3.140625q-1.34375 -1.625 -3.484375 -1.625q-1.9375 0 -3.265625 1.296875q-1.3125 1.296875 -1.453125 3.46875zm21.8125 7.375l0.40625 2.484375q-1.1875 0.25 -2.125 0.25q-1.53125 0 -2.375 -0.484375q-0.84375 -0.484375 -1.1875 -1.265625q-0.34375 -0.796875 -0.34375 -3.328125l0 -9.546875l-2.0625 0l0 -2.1875l2.0625 0l0 -4.109375l2.796875 -1.6875l0 5.796875l2.828125 0l0 2.1875l-2.828125 0l0 9.703125q0 1.203125 0.140625 1.546875q0.15625 0.34375 0.484375 0.546875q0.34375 0.203125 0.96875 0.203125q0.46875 0 1.234375 -0.109375zm1.625 -2.4375l2.78125 -0.4375q0.234375 1.671875 1.296875 2.5625q1.078125 0.890625 3.0 0.890625q1.9375 0 2.875 -0.78125q0.9375 -0.796875 0.9375 -1.859375q0 -0.953125 -0.828125 -1.5q-0.578125 -0.375 -2.875 -0.953125q-3.09375 -0.78125 -4.296875 -1.34375q-1.1875 -0.578125 -1.8125 -1.578125q-0.609375 -1.015625 -0.609375 -2.234375q0 -1.109375 0.5 -2.046875q0.515625 -0.953125 1.390625 -1.578125q0.65625 -0.484375 1.78125 -0.8125q1.140625 -0.34375 2.4375 -0.34375q1.953125 0 3.421875 0.5625q1.484375 0.5625 2.1875 1.53125q0.703125 0.953125 0.96875 2.5625l-2.75 0.375q-0.1875 -1.28125 -1.09375 -2.0q-0.890625 -0.71875 -2.53125 -0.71875q-1.9375 0 -2.765625 0.640625q-0.828125 0.640625 -0.828125 1.5q0 0.546875 0.34375 0.984375q0.34375 0.453125 1.078125 0.75q0.421875 0.15625 2.484375 0.71875q2.984375 0.796875 4.15625 1.3125q1.1875 0.5 1.859375 1.46875q0.671875 0.96875 0.671875 2.40625q0 1.40625 -0.828125 2.65625q-0.8125 1.234375 -2.359375 1.921875q-1.546875 0.671875 -3.5 0.671875q-3.234375 0 -4.9375 -1.34375q-1.6875 -1.34375 -2.15625 -3.984375z" fill-rule="nonzero"/><path fill="#000000" fill-opacity="0.0" d="m383.6873 42.35958l-92.81888 32.850395" fill-rule="evenodd"/><path stroke="#ff5454" stroke-width="2.0" stroke-linejoin="round" stroke-linecap="butt" d="m383.6873 42.35958l-81.5065 28.84671" fill-rule="evenodd"/><path fill="#ff5454" stroke="#ff5454" stroke-width="2.0" stroke-linecap="butt" d="m301.07864 68.09212l-7.4539795 6.142357l9.658295 0.085998535z" fill-rule="evenodd"/><path fill="#000000" fill-opacity="0.0" d="m650.23846 42.35958l84.28351 26.834648" fill-rule="evenodd"/><path stroke="#ff5454" stroke-width="2.0" stroke-linejoin="round" stroke-linecap="butt" d="m650.23846 42.35958l72.84906 23.194084" fill-rule="evenodd"/><path fill="#ff5454" stroke="#ff5454" stroke-width="2.0" stroke-linecap="butt" d="m722.0853 68.70144l9.650635 -0.3942337l-7.64624 -5.90131z" fill-rule="evenodd"/></g></svg>