<svg version="1.1" viewBox="0.0 0.0 694.9448818897638 486.59317585301835" fill="none" stroke="none" stroke-linecap="square" stroke-miterlimit="10" xmlns:xlink="http://www.w3.org/1999/xlink" xmlns="http://www.w3.org/2000/svg"><clipPath id="p.0"><path d="m0 0l694.9449 0l0 486.59317l-694.9449 0l0 -486.59317z" clip-rule="nonzero"/></clipPath><g clip-path="url(#p.0)"><path fill="#000000" fill-opacity="0.0" d="m0 0l694.9449 0l0 486.59317l-694.9449 0z" fill-rule="evenodd"/><path fill="#000000" fill-opacity="0.0" d="m21.097113 146.96588l651.9685 0l0 174.86615l-651.9685 0z" fill-rule="evenodd"/><path fill="#999999" d="m107.64387 197.78339l0 68.25l2.1875 0q4.5625 0 6.5625 1.78125q2.0 1.78125 2.0 4.65625q0 2.8125 -1.96875 4.59375q-1.96875 1.78125 -6.59375 1.78125l-15.0 0l0 -3.125q-4.375 2.5625 -9.15625 3.875q-4.78125 1.3125 -9.90625 1.3125q-14.4375 0 -23.25 -8.34375q-8.8125 -8.34375 -8.8125 -20.78125q0 -13.0 9.25 -22.1875q9.25 -9.1875 22.5625 -9.1875q5.0 0 9.8125 1.53125q4.8125 1.53125 9.5 4.59375l0 -15.9375l-2.1875 0q-4.625 0 -6.59375 -1.78125q-1.96875 -1.78125 -1.96875 -4.59375q0 -2.875 1.96875 -4.65625q1.96875 -1.78125 6.59375 -1.78125l15.0 0zm-12.8125 54.375q0 -7.9375 -5.5625 -13.4375q-5.5625 -5.5 -13.625 -5.5q-8.0 0 -13.5625 5.5q-5.5625 5.5 -5.5625 13.25q0 7.0625 5.0 11.59375q5.0 4.53125 14.125 4.53125q9.0625 0 14.125 -4.53125q5.0625 -4.53125 5.0625 -11.40625zm71.74999 26.6875l0 -3.0q-4.8125 2.5625 -10.625 3.84375q-5.8125 1.28125 -10.5625 1.28125q-10.3125 0 -16.75 -5.46875q-6.4374924 -5.46875 -6.4374924 -12.09375q0 -8.0625 8.218742 -14.96875q8.21875 -6.90625 22.71875 -6.90625q5.8125 0 13.4375 1.25l0 -3.0625q0 -2.875 -2.46875 -4.6875q-2.46875 -1.8125 -9.40625 -1.8125q-5.6875 0 -14.75 2.25q-3.375 0.8125 -5.25 0.8125q-2.5625 0 -4.34375 -1.84375q-1.78125 -1.84375 -1.78125 -4.71875q0 -1.625 0.625 -2.8125q0.625 -1.1875 1.75 -1.90625q1.125 -0.71875 4.6875 -1.71875q4.75 -1.3125 9.6875 -2.09375q4.9375 -0.78125 8.9375 -0.78125q11.9375 0 18.53125 5.15625q6.59375 5.15625 6.59375 14.09375l0 26.375l2.1875 0q4.625 0 6.59375 1.78125q1.96875 1.78125 1.96875 4.65625q0 2.8125 -1.96875 4.59375q-1.96875 1.78125 -6.59375 1.78125l-15.0 0zm0 -22.9375q-7.6875 -1.5 -14.1875 -1.5q-7.8125 0 -13.4375 3.8125q-3.5 2.4375 -3.5 4.9375q0 1.8125 1.6875 2.9375q3.125 2.0625 8.5625 2.0625q4.625 0 10.46875 -1.8125q5.84375 -1.8125 10.40625 -4.9375l0 -5.5zm62.125 -21.0l0 25.6875q0 4.125 1.6875 5.4375q2.625 2.0625 9.375 2.0625q9.8125 0 18.125 -4.1875q3.1875 -1.625 5.0 -1.625q2.5 0 4.34375 1.875q1.84375 1.875 1.84375 4.5625q0 2.5 -2.0 4.3125q-3.0625 2.9375 -12.09375 5.40625q-9.03125 2.46875 -15.21875 2.46875q-11.9375 0 -17.90625 -5.15625q-5.96875 -5.15625 -5.96875 -12.65625l0 -28.1875l-4.625 0q-4.625 0 -6.59375 -1.78125q-1.96875 -1.78125 -1.96875 -4.65625q0 -2.8125 1.96875 -4.59375q1.96875 -1.78125 6.59375 -1.78125l4.625 0l0 -11.5625q0 -4.625 1.78125 -6.59375q1.78125 -1.96875 4.65625 -1.96875q2.8125 0 4.59375 1.96875q1.78125 1.96875 1.78125 6.59375l0 11.5625l23.6875 0q4.625 0 6.59375 1.78125q1.96875 1.78125 1.96875 4.65625q0 2.8125 -1.96875 4.59375q-1.96875 1.78125 -6.59375 1.78125l-23.6875 0z" fill-rule="nonzero"/><path fill="#ff5454" d="m314.95636 210.78339l0 75.25l7.75 0q4.625 0 6.59375 1.75q1.96875 1.75 1.96875 4.625q0 2.875 -1.96875 4.65625q-1.96875 1.78125 -6.59375 1.78125l-20.5625 0l0 -100.875l20.5 0q4.625 0 6.59375 1.78125q1.96875 1.78125 1.96875 4.65625q0 2.8125 -1.96875 4.59375q-1.96875 1.78125 -6.59375 1.78125l-7.6875 0z" fill-rule="nonzero"/><path fill="#ff9900" d="m407.33136 197.78339l-2.875 13.5625l-15.25 0l2.875 -13.5625l15.25 0zm-3.375 24.3125l-9.375 43.9375l15.4375 0q4.25 0 5.78125 1.3125q1.53125 1.3125 1.53125 3.75q0 3.875 -3.75 6.4375q-1.875 1.3125 -6.3125 1.3125l-43.625 0q-4.25 0 -5.78125 -1.34375q-1.53125 -1.34375 -1.53125 -3.71875q0 -3.875 3.625 -6.375q2.0 -1.375 6.4375 -1.375l15.375 0l6.625 -31.125l-10.3125 0q-4.25 0 -5.78125 -1.34375q-1.53125 -1.34375 -1.53125 -3.71875q0 -3.75 3.5625 -6.3125q1.9375 -1.4375 6.5 -1.4375l23.125 0z" fill-rule="nonzero"/><path fill="#ff5454" d="m459.26886 261.5959l17.125 0l-18.4375 34.75q-1.625 3.0625 -4.0625 3.0625q-1.625 0 -2.78125 -1.0625q-1.15625 -1.0625 -1.15625 -2.375q0 -0.9375 0.4375 -2.5625l8.875 -31.8125z" fill-rule="nonzero"/><path fill="#ff9900" d="m569.20636 197.78339l-2.875 13.5625l-15.3125 0l2.875 -13.5625l15.3125 0zm-13.125 37.125l-26.125 0q-4.3125 0 -5.84375 -1.34375q-1.53125 -1.34375 -1.53125 -3.71875q0 -3.75 3.5625 -6.3125q2.0 -1.4375 6.5 -1.4375l39.0 0l-12.6875 59.4375q-1.375 6.625 -5.25 11.65625q-3.875 5.03125 -10.59375 8.71875q-6.71875 3.6875 -14.09375 3.6875l-14.5 0q-4.25 0 -5.78125 -1.3125q-1.53125 -1.3125 -1.53125 -3.75q0 -3.8125 3.625 -6.375q2.0 -1.375 6.4375 -1.375l14.125 0q5.8125 0 9.78125 -3.15625q3.96875 -3.15625 4.96875 -8.09375l9.9375 -46.625z" fill-rule="nonzero"/><path fill="#ff5454" d="m609.64386 286.0334l0 -75.25l-7.75 0q-4.625 0 -6.59375 -1.78125q-1.96875 -1.78125 -1.96875 -4.59375q0 -2.875 1.96875 -4.65625q1.96875 -1.78125 6.59375 -1.78125l20.5625 0l0 100.875l-20.5 0q-4.625 0 -6.59375 -1.78125q-1.96875 -1.78125 -1.96875 -4.65625q0 -2.8125 1.96875 -4.59375q1.96875 -1.78125 6.59375 -1.78125l7.6875 0z" fill-rule="nonzero"/><path fill="#000000" fill-opacity="0.0" d="m195.02887 295.38406l0.3779602 77.543304" fill-rule="evenodd"/><path stroke="#999999" stroke-width="4.0" stroke-linejoin="round" stroke-linecap="butt" stroke-dasharray="4.0,12.0" d="m195.02887 295.38406l0.3779602 77.543304" fill-rule="evenodd"/><path fill="#000000" fill-opacity="0.0" d="m223.84251 15.461943l157.25984 0l0 94.45669l-157.25984 0z" fill-rule="evenodd"/><path fill="#ff5454" d="m246.58963 46.885067q0 -4.609375 2.5625 -6.828125q2.140625 -1.84375 5.21875 -1.84375q3.421875 0 5.59375 2.25q2.171875 2.234375 2.171875 6.1875q0 3.203125 -0.96875 5.046875q-0.953125 1.828125 -2.796875 2.84375q-1.828125 1.015625 -4.0 1.015625q-3.484375 0 -5.640625 -2.234375q-2.140625 -2.234375 -2.140625 -6.4375zm2.890625 0q0 3.1875 1.390625 4.78125q1.390625 1.578125 3.5 1.578125q2.09375 0 3.484375 -1.59375q1.390625 -1.59375 1.390625 -4.859375q0 -3.078125 -1.40625 -4.65625q-1.390625 -1.59375 -3.46875 -1.59375q-2.109375 0 -3.5 1.578125q-1.390625 1.578125 -1.390625 4.765625zm15.953125 14.65625l0 -22.953125l2.5625 0l0 2.15625q0.90625 -1.265625 2.046875 -1.890625q1.140625 -0.640625 2.765625 -0.640625q2.125 0 3.75 1.09375q1.625 1.09375 2.453125 3.09375q0.828125 1.984375 0.828125 4.359375q0 2.546875 -0.921875 4.59375q-0.90625 2.03125 -2.65625 3.125q-1.734375 1.078125 -3.65625 1.078125q-1.40625 0 -2.53125 -0.59375q-1.109375 -0.59375 -1.828125 -1.5l0 8.078125l-2.8125 0zm2.546875 -14.5625q0 3.203125 1.296875 4.734375q1.296875 1.53125 3.140625 1.53125q1.875 0 3.203125 -1.578125q1.34375 -1.59375 1.34375 -4.921875q0 -3.171875 -1.3125 -4.75q-1.296875 -1.578125 -3.109375 -1.578125q-1.796875 0 -3.1875 1.6875q-1.375 1.671875 -1.375 4.875zm26.609375 2.859375l2.90625 0.359375q-0.6875 2.546875 -2.546875 3.953125q-1.859375 1.40625 -4.75 1.40625q-3.640625 0 -5.78125 -2.234375q-2.125 -2.25 -2.125 -6.296875q0 -4.1875 2.15625 -6.5q2.15625 -2.3125 5.59375 -2.3125q3.328125 0 5.4375 2.265625q2.109375 2.265625 2.109375 6.375q0 0.25 -0.015625 0.75l-12.375 0q0.15625 2.734375 1.546875 4.1875q1.390625 1.453125 3.46875 1.453125q1.546875 0 2.640625 -0.8125q1.09375 -0.8125 1.734375 -2.59375zm-9.234375 -4.546875l9.265625 0q-0.1875 -2.09375 -1.0625 -3.140625q-1.34375 -1.625 -3.484375 -1.625q-1.9375 0 -3.265625 1.296875q-1.3125 1.296875 -1.453125 3.46875zm15.671875 9.890625l0 -16.59375l2.53125 0l0 2.359375q1.828125 -2.734375 5.28125 -2.734375q1.5 0 2.75 0.546875q1.265625 0.53125 1.890625 1.40625q0.625 0.875 0.875 2.078125q0.15625 0.78125 0.15625 2.734375l0 10.203125l-2.8125 0l0 -10.09375q0 -1.71875 -0.328125 -2.5625q-0.328125 -0.859375 -1.171875 -1.359375q-0.828125 -0.515625 -1.953125 -0.515625q-1.796875 0 -3.109375 1.140625q-1.296875 1.140625 -1.296875 4.328125l0 9.0625l-2.8125 0zm17.8125 -19.671875l0 -3.234375l2.8125 0l0 3.234375l-2.8125 0zm0 19.671875l0 -16.59375l2.8125 0l0 16.59375l-2.8125 0zm7.09375 0l0 -16.59375l2.53125 0l0 2.359375q1.828125 -2.734375 5.28125 -2.734375q1.5 0 2.75 0.546875q1.265625 0.53125 1.890625 1.40625q0.625 0.875 0.875 2.078125q0.15625 0.78125 0.15625 2.734375l0 10.203125l-2.8125 0l0 -10.09375q0 -1.71875 -0.328125 -2.5625q-0.328125 -0.859375 -1.171875 -1.359375q-0.828125 -0.515625 -1.953125 -0.515625q-1.796875 0 -3.109375 1.140625q-1.296875 1.140625 -1.296875 4.328125l0 9.0625l-2.8125 0zm17.28125 1.375l2.734375 0.40625q0.171875 1.265625 0.953125 1.84375q1.046875 0.78125 2.859375 0.78125q1.953125 0 3.015625 -0.78125q1.0625 -0.78125 1.4375 -2.1875q0.21875 -0.859375 0.203125 -3.609375q-1.84375 2.171875 -4.59375 2.171875q-3.421875 0 -5.296875 -2.46875q-1.875 -2.46875 -1.875 -5.921875q0 -2.375 0.859375 -4.375q0.859375 -2.015625 2.484375 -3.109375q1.640625 -1.09375 3.84375 -1.09375q2.9375 0 4.84375 2.375l0 -2.0l2.59375 0l0 14.34375q0 3.875 -0.796875 5.484375q-0.78125 1.625 -2.5 2.5625q-1.703125 0.9375 -4.203125 0.9375q-2.96875 0 -4.796875 -1.34375q-1.828125 -1.328125 -1.765625 -4.015625zm2.328125 -9.96875q0 3.265625 1.296875 4.765625q1.296875 1.5 3.25 1.5q1.9375 0 3.25 -1.484375q1.3125 -1.5 1.3125 -4.6875q0 -3.046875 -1.359375 -4.59375q-1.34375 -1.546875 -3.25 -1.546875q-1.875 0 -3.1875 1.53125q-1.3125 1.515625 -1.3125 4.515625z" fill-rule="nonzero"/><path fill="#ff5454" d="m254.70682 93.181946l-2.609375 0l0 -22.90625l2.8125 0l0 8.171875q1.78125 -2.234375 4.546875 -2.234375q1.53125 0 2.890625 0.625q1.375 0.609375 2.25 1.734375q0.890625 1.109375 1.390625 2.6875q0.5 1.578125 0.5 3.375q0 4.265625 -2.109375 6.59375q-2.109375 2.328125 -5.0625 2.328125q-2.9375 0 -4.609375 -2.453125l0 2.078125zm-0.03125 -8.421875q0 2.984375 0.8125 4.3125q1.328125 2.171875 3.59375 2.171875q1.84375 0 3.1875 -1.59375q1.34375 -1.609375 1.34375 -4.78125q0 -3.25 -1.296875 -4.796875q-1.28125 -1.546875 -3.109375 -1.546875q-1.84375 0 -3.1875 1.609375q-1.34375 1.59375 -1.34375 4.625zm15.203125 8.421875l0 -16.59375l2.53125 0l0 2.515625q0.96875 -1.765625 1.78125 -2.328125q0.828125 -0.5625 1.8125 -0.5625q1.421875 0 2.890625 0.90625l-0.96875 2.609375q-1.03125 -0.609375 -2.0625 -0.609375q-0.921875 0 -1.65625 0.5625q-0.734375 0.546875 -1.046875 1.53125q-0.46875 1.5 -0.46875 3.28125l0 8.6875l-2.8125 0zm21.515625 -2.046875q-1.5625 1.328125 -3.015625 1.875q-1.4375 0.546875 -3.09375 0.546875q-2.734375 0 -4.203125 -1.328125q-1.46875 -1.34375 -1.46875 -3.421875q0 -1.21875 0.546875 -2.21875q0.5625 -1.015625 1.453125 -1.625q0.90625 -0.609375 2.03125 -0.921875q0.828125 -0.21875 2.5 -0.421875q3.40625 -0.40625 5.015625 -0.96875q0.015625 -0.578125 0.015625 -0.734375q0 -1.71875 -0.796875 -2.421875q-1.078125 -0.953125 -3.203125 -0.953125q-1.984375 0 -2.9375 0.703125q-0.9375 0.6875 -1.390625 2.453125l-2.75 -0.375q0.375 -1.765625 1.234375 -2.84375q0.859375 -1.09375 2.484375 -1.671875q1.625 -0.59375 3.765625 -0.59375q2.125 0 3.453125 0.5q1.328125 0.5 1.953125 1.265625q0.625 0.75 0.875 1.90625q0.140625 0.71875 0.140625 2.59375l0 3.75q0 3.921875 0.171875 4.96875q0.1875 1.03125 0.71875 1.984375l-2.9375 0q-0.4375 -0.875 -0.5625 -2.046875zm-0.234375 -6.28125q-1.53125 0.625 -4.59375 1.0625q-1.734375 0.25 -2.453125 0.5625q-0.71875 0.3125 -1.109375 0.921875q-0.390625 0.59375 -0.390625 1.328125q0 1.125 0.84375 1.875q0.859375 0.75 2.5 0.75q1.625 0 2.890625 -0.703125q1.265625 -0.71875 1.859375 -1.953125q0.453125 -0.953125 0.453125 -2.8125l0 -1.03125zm18.03125 2.25l2.765625 0.359375q-0.453125 2.859375 -2.328125 4.484375q-1.859375 1.609375 -4.578125 1.609375q-3.40625 0 -5.484375 -2.21875q-2.0625 -2.234375 -2.0625 -6.390625q0 -2.6875 0.890625 -4.703125q0.890625 -2.015625 2.703125 -3.015625q1.828125 -1.015625 3.96875 -1.015625q2.703125 0 4.421875 1.375q1.71875 1.359375 2.203125 3.875l-2.734375 0.421875q-0.390625 -1.671875 -1.390625 -2.515625q-0.984375 -0.84375 -2.390625 -0.84375q-2.125 0 -3.453125 1.53125q-1.328125 1.515625 -1.328125 4.8125q0 3.34375 1.28125 4.859375q1.28125 1.515625 3.34375 1.515625q1.65625 0 2.765625 -1.015625q1.109375 -1.015625 1.40625 -3.125zm5.1875 6.078125l0 -22.90625l2.8125 0l0 13.0625l6.65625 -6.75l3.640625 0l-6.34375 6.15625l6.984375 10.4375l-3.46875 0l-5.484375 -8.484375l-1.984375 1.90625l0 6.578125l-2.8125 0zm27.34375 -5.34375l2.90625 0.359375q-0.6875 2.546875 -2.546875 3.953125q-1.859375 1.40625 -4.75 1.40625q-3.640625 0 -5.78125 -2.234375q-2.125 -2.25 -2.125 -6.296875q0 -4.1875 2.15625 -6.5q2.15625 -2.3125 5.59375 -2.3125q3.328125 0 5.4375 2.265625q2.109375 2.265625 2.109375 6.375q0 0.25 -0.015625 0.75l-12.375 0q0.15625 2.734375 1.546875 4.1875q1.390625 1.453125 3.46875 1.453125q1.546875 0 2.640625 -0.8125q1.09375 -0.8125 1.734375 -2.59375zm-9.234375 -4.546875l9.265625 0q-0.1875 -2.09375 -1.0625 -3.140625q-1.34375 -1.625 -3.484375 -1.625q-1.9375 0 -3.265625 1.296875q-1.3125 1.296875 -1.453125 3.46875zm21.8125 7.375l0.40625 2.484375q-1.1875 0.25 -2.125 0.25q-1.53125 0 -2.375 -0.484375q-0.84375 -0.484375 -1.1875 -1.265625q-0.34375 -0.796875 -0.34375 -3.328125l0 -9.546875l-2.0625 0l0 -2.1875l2.0625 0l0 -4.109375l2.796875 -1.6875l0 5.796875l2.828125 0l0 2.1875l-2.828125 0l0 9.703125q0 1.203125 0.140625 1.546875q0.15625 0.34375 0.484375 0.546875q0.34375 0.203125 0.96875 0.203125q0.46875 0 1.234375 -0.109375z" fill-rule="nonzero"/><path fill="#000000" fill-opacity="0.0" d="m101.72179 369.12598l186.99211 0l0 94.456696l-186.99211 0z" fill-rule="evenodd"/><path fill="#666666" d="m131.60847 408.84598l0 -2.09375q-1.578125 2.46875 -4.640625 2.46875q-1.984375 0 -3.65625 -1.09375q-1.65625 -1.09375 -2.578125 -3.046875q-0.90625 -1.96875 -0.90625 -4.515625q0 -2.484375 0.828125 -4.5q0.828125 -2.03125 2.484375 -3.109375q1.65625 -1.078125 3.703125 -1.078125q1.5 0 2.671875 0.640625q1.171875 0.625 1.90625 1.640625l0 -8.21875l2.796875 0l0 22.90625l-2.609375 0zm-8.890625 -8.28125q0 3.1875 1.34375 4.765625q1.34375 1.578125 3.171875 1.578125q1.84375 0 3.125 -1.5q1.296875 -1.515625 1.296875 -4.609375q0 -3.40625 -1.3125 -5.0q-1.3125 -1.59375 -3.234375 -1.59375q-1.875 0 -3.140625 1.53125q-1.25 1.53125 -1.25 4.828125zm26.75 6.234375q-1.5625 1.328125 -3.015625 1.875q-1.4375 0.546875 -3.09375 0.546875q-2.734375 0 -4.203125 -1.328125q-1.46875 -1.34375 -1.46875 -3.421875q0 -1.21875 0.546875 -2.21875q0.5625 -1.015625 1.453125 -1.625q0.90625 -0.609375 2.03125 -0.921875q0.828125 -0.21875 2.5 -0.421875q3.40625 -0.40625 5.015625 -0.96875q0.015625 -0.578125 0.015625 -0.734375q0 -1.71875 -0.796875 -2.421875q-1.078125 -0.953125 -3.203125 -0.953125q-1.984375 0 -2.9375 0.703125q-0.9375 0.6875 -1.390625 2.453125l-2.75 -0.375q0.375 -1.765625 1.234375 -2.84375q0.859375 -1.09375 2.484375 -1.671875q1.625 -0.59375 3.765625 -0.59375q2.125 0 3.453125 0.5q1.328125 0.5 1.953125 1.265625q0.625 0.75 0.875 1.90625q0.140625 0.71875 0.140625 2.59375l0 3.75q0 3.921875 0.171875 4.96875q0.1875 1.03125 0.71875 1.984375l-2.9375 0q-0.4375 -0.875 -0.5625 -2.046875zm-0.234375 -6.28125q-1.53125 0.625 -4.59375 1.0625q-1.734375 0.25 -2.453125 0.5625q-0.71875 0.3125 -1.109375 0.921875q-0.390625 0.59375 -0.390625 1.328125q0 1.125 0.84375 1.875q0.859375 0.75 2.5 0.75q1.625 0 2.890625 -0.703125q1.265625 -0.71875 1.859375 -1.953125q0.453125 -0.953125 0.453125 -2.8125l0 -1.03125zm13.34375 5.8125l0.40625 2.484375q-1.1875 0.25 -2.125 0.25q-1.53125 0 -2.375 -0.484375q-0.84375 -0.484375 -1.1875 -1.265625q-0.34375 -0.796875 -0.34375 -3.328125l0 -9.546875l-2.0625 0l0 -2.1875l2.0625 0l0 -4.109375l2.796875 -1.6875l0 5.796875l2.828125 0l0 2.1875l-2.828125 0l0 9.703125q0 1.203125 0.140625 1.546875q0.15625 0.34375 0.484375 0.546875q0.34375 0.203125 0.96875 0.203125q0.46875 0 1.234375 -0.109375zm13.578125 0.46875q-1.5625 1.328125 -3.015625 1.875q-1.4375 0.546875 -3.09375 0.546875q-2.734375 0 -4.203125 -1.328125q-1.46875 -1.34375 -1.46875 -3.421875q0 -1.21875 0.546875 -2.21875q0.5625 -1.015625 1.453125 -1.625q0.90625 -0.609375 2.03125 -0.921875q0.828125 -0.21875 2.5 -0.421875q3.40625 -0.40625 5.015625 -0.96875q0.015625 -0.578125 0.015625 -0.734375q0 -1.71875 -0.796875 -2.421875q-1.078125 -0.953125 -3.203125 -0.953125q-1.984375 0 -2.9375 0.703125q-0.9375 0.6875 -1.390625 2.453125l-2.75 -0.375q0.375 -1.765625 1.234375 -2.84375q0.859375 -1.09375 2.484375 -1.671875q1.625 -0.59375 3.765625 -0.59375q2.125 0 3.453125 0.5q1.328125 0.5 1.953125 1.265625q0.625 0.75 0.875 1.90625q0.140625 0.71875 0.140625 2.59375l0 3.75q0 3.921875 0.171875 4.96875q0.1875 1.03125 0.71875 1.984375l-2.9375 0q-0.4375 -0.875 -0.5625 -2.046875zm-0.234375 -6.28125q-1.53125 0.625 -4.59375 1.0625q-1.734375 0.25 -2.453125 0.5625q-0.71875 0.3125 -1.109375 0.921875q-0.390625 0.59375 -0.390625 1.328125q0 1.125 0.84375 1.875q0.859375 0.75 2.5 0.75q1.625 0 2.890625 -0.703125q1.265625 -0.71875 1.859375 -1.953125q0.453125 -0.953125 0.453125 -2.8125l0 -1.03125zm16.765625 8.328125l0 -14.40625l-2.484375 0l0 -2.1875l2.484375 0l0 -1.765625q0 -1.671875 0.296875 -2.484375q0.40625 -1.09375 1.421875 -1.765625q1.03125 -0.6875 2.875 -0.6875q1.1875 0 2.625 0.28125l-0.421875 2.453125q-0.875 -0.15625 -1.65625 -0.15625q-1.28125 0 -1.8125 0.546875q-0.53125 0.546875 -0.53125 2.046875l0 1.53125l3.234375 0l0 2.1875l-3.234375 0l0 14.40625l-2.796875 0zm8.1875 0l0 -16.59375l2.53125 0l0 2.515625q0.96875 -1.765625 1.78125 -2.328125q0.828125 -0.5625 1.8125 -0.5625q1.421875 0 2.890625 0.90625l-0.96875 2.609375q-1.03125 -0.609375 -2.0625 -0.609375q-0.921875 0 -1.65625 0.5625q-0.734375 0.546875 -1.046875 1.53125q-0.46875 1.5 -0.46875 3.28125l0 8.6875l-2.8125 0zm21.515625 -2.046875q-1.5625 1.328125 -3.015625 1.875q-1.4375 0.546875 -3.09375 0.546875q-2.734375 0 -4.203125 -1.328125q-1.46875 -1.34375 -1.46875 -3.421875q0 -1.21875 0.546875 -2.21875q0.5625 -1.015625 1.453125 -1.625q0.90625 -0.609375 2.03125 -0.921875q0.828125 -0.21875 2.5 -0.421875q3.40625 -0.40625 5.015625 -0.96875q0.015625 -0.578125 0.015625 -0.734375q0 -1.71875 -0.796875 -2.421875q-1.078125 -0.953125 -3.203125 -0.953125q-1.984375 0 -2.9375 0.703125q-0.9375 0.6875 -1.390625 2.453125l-2.75 -0.375q0.375 -1.765625 1.234375 -2.84375q0.859375 -1.09375 2.484375 -1.671875q1.625 -0.59375 3.765625 -0.59375q2.125 0 3.453125 0.5q1.328125 0.5 1.953125 1.265625q0.625 0.75 0.875 1.90625q0.140625 0.71875 0.140625 2.59375l0 3.75q0 3.921875 0.171875 4.96875q0.1875 1.03125 0.71875 1.984375l-2.9375 0q-0.4375 -0.875 -0.5625 -2.046875zm-0.234375 -6.28125q-1.53125 0.625 -4.59375 1.0625q-1.734375 0.25 -2.453125 0.5625q-0.71875 0.3125 -1.109375 0.921875q-0.390625 0.59375 -0.390625 1.328125q0 1.125 0.84375 1.875q0.859375 0.75 2.5 0.75q1.625 0 2.890625 -0.703125q1.265625 -0.71875 1.859375 -1.953125q0.453125 -0.953125 0.453125 -2.8125l0 -1.03125zm7.203125 8.328125l0 -16.59375l2.515625 0l0 2.328125q0.78125 -1.21875 2.078125 -1.953125q1.296875 -0.75 2.953125 -0.75q1.84375 0 3.015625 0.765625q1.1875 0.765625 1.671875 2.140625q1.96875 -2.90625 5.125 -2.90625q2.46875 0 3.796875 1.375q1.328125 1.359375 1.328125 4.203125l0 11.390625l-2.796875 0l0 -10.453125q0 -1.6875 -0.28125 -2.421875q-0.265625 -0.75 -0.984375 -1.203125q-0.71875 -0.453125 -1.6875 -0.453125q-1.75 0 -2.90625 1.171875q-1.15625 1.15625 -1.15625 3.71875l0 9.640625l-2.8125 0l0 -10.78125q0 -1.875 -0.6875 -2.8125q-0.6875 -0.9375 -2.25 -0.9375q-1.1875 0 -2.203125 0.625q-1.0 0.625 -1.453125 1.828125q-0.453125 1.203125 -0.453125 3.46875l0 8.609375l-2.8125 0zm38.01561 -5.34375l2.90625 0.359375q-0.6875 2.546875 -2.546875 3.953125q-1.859375 1.40625 -4.75 1.40625q-3.640625 0 -5.78125 -2.234375q-2.1249847 -2.25 -2.1249847 -6.296875q0 -4.1875 2.1562347 -6.5q2.15625 -2.3125 5.59375 -2.3125q3.328125 0 5.4375 2.265625q2.109375 2.265625 2.109375 6.375q0 0.25 -0.015625 0.75l-12.375 0q0.15625 2.734375 1.546875 4.1875q1.390625 1.453125 3.46875 1.453125q1.546875 0 2.640625 -0.8125q1.09375 -0.8125 1.734375 -2.59375zm-9.234375 -4.546875l9.265625 0q-0.1875 -2.09375 -1.0625 -3.140625q-1.34375 -1.625 -3.484375 -1.625q-1.9375 0 -3.265625 1.296875q-1.3125 1.296875 -1.453125 3.46875z" fill-rule="nonzero"/><path fill="#666666" d="m153.58504 438.5491q0 -4.609375 2.5625 -6.828125q2.140625 -1.84375 5.21875 -1.84375q3.421875 0 5.59375 2.25q2.171875 2.234375 2.171875 6.1875q0 3.203125 -0.96875 5.046875q-0.953125 1.828125 -2.796875 2.84375q-1.828125 1.015625 -4.0 1.015625q-3.484375 0 -5.640625 -2.234375q-2.140625 -2.234375 -2.140625 -6.4375zm2.890625 0q0 3.1875 1.390625 4.78125q1.390625 1.578125 3.5 1.578125q2.09375 0 3.484375 -1.59375q1.390625 -1.59375 1.390625 -4.859375q0 -3.078125 -1.40625 -4.65625q-1.390625 -1.59375 -3.46875 -1.59375q-2.109375 0 -3.5 1.578125q-1.390625 1.578125 -1.390625 4.765625zm18.546875 8.296875l-2.609375 0l0 -22.90625l2.8125 0l0 8.171875q1.78125 -2.234375 4.546875 -2.234375q1.53125 0 2.890625 0.625q1.375 0.609375 2.25 1.734375q0.890625 1.109375 1.390625 2.6875q0.5 1.578125 0.5 3.375q0 4.265625 -2.109375 6.59375q-2.109375 2.328125 -5.0625 2.328125q-2.9375 0 -4.609375 -2.453125l0 2.078125zm-0.03125 -8.421875q0 2.984375 0.8125 4.3125q1.328125 2.171875 3.59375 2.171875q1.84375 0 3.1875 -1.59375q1.34375 -1.609375 1.34375 -4.78125q0 -3.25 -1.296875 -4.796875q-1.28125 -1.546875 -3.109375 -1.546875q-1.84375 0 -3.1875 1.609375q-1.34375 1.59375 -1.34375 4.625zm15.21875 -11.21875l0 -3.265625l2.8125 0l0 3.265625l-2.8125 0zm-3.5625 26.078125l0.53125 -2.390625q0.84375 0.21875 1.328125 0.21875q0.859375 0 1.28125 -0.578125q0.421875 -0.5625 0.421875 -2.84375l0 -17.4375l2.8125 0l0 17.5q0 3.0625 -0.796875 4.265625q-1.015625 1.5625 -3.375 1.5625q-1.140625 0 -2.203125 -0.296875zm22.046875 -11.78125l2.90625 0.359375q-0.6875 2.546875 -2.546875 3.953125q-1.859375 1.40625 -4.75 1.40625q-3.640625 0 -5.78125 -2.234375q-2.125 -2.25 -2.125 -6.296875q0 -4.1875 2.15625 -6.5q2.15625 -2.3125 5.59375 -2.3125q3.328125 0 5.4375 2.265625q2.109375 2.265625 2.109375 6.375q0 0.25 -0.015625 0.75l-12.375 0q0.15625 2.734375 1.546875 4.1875q1.390625 1.453125 3.46875 1.453125q1.546875 0 2.640625 -0.8125q1.09375 -0.8125 1.734375 -2.59375zm-9.234375 -4.546875l9.265625 0q-0.1875 -2.09375 -1.0625 -3.140625q-1.34375 -1.625 -3.484375 -1.625q-1.9375 0 -3.265625 1.296875q-1.3125 1.296875 -1.453125 3.46875zm26.5 3.8125l2.765625 0.359375q-0.453125 2.859375 -2.328125 4.484375q-1.859375 1.609375 -4.578125 1.609375q-3.40625 0 -5.484375 -2.21875q-2.0625 -2.234375 -2.0625 -6.390625q0 -2.6875 0.890625 -4.703125q0.890625 -2.015625 2.703125 -3.015625q1.828125 -1.015625 3.96875 -1.015625q2.703125 0 4.421875 1.375q1.71875 1.359375 2.203125 3.875l-2.734375 0.421875q-0.390625 -1.671875 -1.390625 -2.515625q-0.984375 -0.84375 -2.390625 -0.84375q-2.125 0 -3.453125 1.53125q-1.328125 1.515625 -1.328125 4.8125q0 3.34375 1.28125 4.859375q1.28125 1.515625 3.34375 1.515625q1.65625 0 2.765625 -1.015625q1.109375 -1.015625 1.40625 -3.125zm11.3125 3.5625l0.40625 2.484375q-1.1875 0.25 -2.125 0.25q-1.53125 0 -2.375 -0.484375q-0.84375 -0.484375 -1.1875 -1.265625q-0.34375 -0.796875 -0.34375 -3.328125l0 -9.546875l-2.0625 0l0 -2.1875l2.0625 0l0 -4.109375l2.796875 -1.6875l0 5.796875l2.828125 0l0 2.1875l-2.828125 0l0 9.703125q0 1.203125 0.140625 1.546875q0.15625 0.34375 0.484375 0.546875q0.34375 0.203125 0.96875 0.203125q0.46875 0 1.234375 -0.109375z" fill-rule="nonzero"/><path fill="#000000" fill-opacity="0.0" d="m322.01572 369.12598l114.20471 0l0 94.456696l-114.20471 0z" fill-rule="evenodd"/><path fill="#ff9900" d="m355.41495 408.84598l0 -16.59375l2.53125 0l0 2.515625q0.96875 -1.765625 1.78125 -2.328125q0.828125 -0.5625 1.8125 -0.5625q1.421875 0 2.890625 0.90625l-0.96875 2.609375q-1.03125 -0.609375 -2.0625 -0.609375q-0.921875 0 -1.65625 0.5625q-0.734375 0.546875 -1.046875 1.53125q-0.46875 1.5 -0.46875 3.28125l0 8.6875l-2.8125 0zm9.640625 -8.296875q0 -4.609375 2.5625 -6.828125q2.140625 -1.84375 5.21875 -1.84375q3.421875 0 5.59375 2.25q2.171875 2.234375 2.171875 6.1875q0 3.203125 -0.96875 5.046875q-0.953125 1.828125 -2.796875 2.84375q-1.828125 1.015625 -4.0 1.015625q-3.484375 0 -5.640625 -2.234375q-2.140625 -2.234375 -2.140625 -6.4375zm2.890625 0q0 3.1875 1.390625 4.78125q1.390625 1.578125 3.5 1.578125q2.09375 0 3.484375 -1.59375q1.390625 -1.59375 1.390625 -4.859375q0 -3.078125 -1.40625 -4.65625q-1.390625 -1.59375 -3.46875 -1.59375q-2.109375 0 -3.5 1.578125q-1.390625 1.578125 -1.390625 4.765625zm19.015625 8.296875l-5.078125 -16.59375l2.90625 0l2.640625 9.578125l0.984375 3.5625q0.0625 -0.265625 0.859375 -3.421875l2.640625 -9.71875l2.890625 0l2.484375 9.625l0.828125 3.171875l0.953125 -3.203125l2.84375 -9.59375l2.734375 0l-5.1875 16.59375l-2.921875 0l-2.640625 -9.9375l-0.640625 -2.828125l-3.359375 12.765625l-2.9375 0z" fill-rule="nonzero"/><path fill="#ff9900" d="m342.99307 427.1741l0 -3.234375l2.8125 0l0 3.234375l-2.8125 0zm0 19.671875l0 -16.59375l2.8125 0l0 16.59375l-2.8125 0zm7.09375 0l0 -16.59375l2.53125 0l0 2.359375q1.828125 -2.734375 5.28125 -2.734375q1.5 0 2.75 0.546875q1.265625 0.53125 1.890625 1.40625q0.625 0.875 0.875 2.078125q0.15625 0.78125 0.15625 2.734375l0 10.203125l-2.8125 0l0 -10.09375q0 -1.71875 -0.328125 -2.5625q-0.328125 -0.859375 -1.171875 -1.359375q-0.828125 -0.515625 -1.953125 -0.515625q-1.796875 0 -3.109375 1.140625q-1.296875 1.140625 -1.296875 4.328125l0 9.0625l-2.8125 0zm28.5625 0l0 -2.09375q-1.578125 2.46875 -4.640625 2.46875q-1.984375 0 -3.65625 -1.09375q-1.65625 -1.09375 -2.578125 -3.046875q-0.90625 -1.96875 -0.90625 -4.515625q0 -2.484375 0.828125 -4.5q0.828125 -2.03125 2.484375 -3.109375q1.65625 -1.078125 3.703125 -1.078125q1.5 0 2.671875 0.640625q1.171875 0.625 1.90625 1.640625l0 -8.21875l2.796875 0l0 22.90625l-2.609375 0zm-8.890625 -8.28125q0 3.1875 1.34375 4.765625q1.34375 1.578125 3.171875 1.578125q1.84375 0 3.125 -1.5q1.296875 -1.515625 1.296875 -4.609375q0 -3.40625 -1.3125 -5.0q-1.3125 -1.59375 -3.234375 -1.59375q-1.875 0 -3.140625 1.53125q-1.25 1.53125 -1.25 4.828125zm27.28125 2.9375l2.90625 0.359375q-0.6875 2.546875 -2.546875 3.953125q-1.859375 1.40625 -4.75 1.40625q-3.640625 0 -5.78125 -2.234375q-2.125 -2.25 -2.125 -6.296875q0 -4.1875 2.15625 -6.5q2.15625 -2.3125 5.59375 -2.3125q3.328125 0 5.4375 2.265625q2.109375 2.265625 2.109375 6.375q0 0.25 -0.015625 0.75l-12.375 0q0.15625 2.734375 1.546875 4.1875q1.390625 1.453125 3.46875 1.453125q1.546875 0 2.640625 -0.8125q1.09375 -0.8125 1.734375 -2.59375zm-9.234375 -4.546875l9.265625 0q-0.1875 -2.09375 -1.0625 -3.140625q-1.34375 -1.625 -3.484375 -1.625q-1.9375 0 -3.265625 1.296875q-1.3125 1.296875 -1.453125 3.46875zm13.796875 9.890625l6.0625 -8.625l-5.609375 -7.96875l3.515625 0l2.546875 3.890625q0.71875 1.109375 1.15625 1.859375q0.6875 -1.03125 1.265625 -1.828125l2.796875 -3.921875l3.359375 0l-5.734375 7.8125l6.171875 8.78125l-3.453125 0l-3.40625 -5.15625l-0.90625 -1.390625l-4.359375 6.546875l-3.40625 0z" fill-rule="nonzero"/><path fill="#000000" fill-opacity="0.0" d="m378.0105 295.38406l0.3779602 77.543304" fill-rule="evenodd"/><path stroke="#ffb632" stroke-width="4.0" stroke-linejoin="round" stroke-linecap="butt" stroke-dasharray="4.0,12.0" d="m378.0105 295.38406l0.3779602 77.543304" fill-rule="evenodd"/><path fill="#000000" fill-opacity="0.0" d="m303.97372 110.36569l0.3779297 77.543304" fill-rule="evenodd"/><path stroke="#ff5454" stroke-width="4.0" stroke-linejoin="round" stroke-linecap="butt" stroke-dasharray="4.0,12.0" d="m303.97372 110.36569l0.3779297 77.543304" fill-rule="evenodd"/><path fill="#000000" fill-opacity="0.0" d="m474.4671 369.12598l143.4961 0l0 94.456696l-143.4961 0z" fill-rule="evenodd"/><path fill="#ff9900" d="m507.57452 402.76785l2.765625 0.359375q-0.453125 2.859375 -2.328125 4.484375q-1.859375 1.609375 -4.578125 1.609375q-3.40625 0 -5.484375 -2.21875q-2.0625 -2.234375 -2.0625 -6.390625q0 -2.6875 0.890625 -4.703125q0.890625 -2.015625 2.703125 -3.015625q1.828125 -1.015625 3.96875 -1.015625q2.703125 0 4.421875 1.375q1.71875 1.359375 2.203125 3.875l-2.734375 0.421875q-0.390625 -1.671875 -1.390625 -2.515625q-0.984375 -0.84375 -2.390625 -0.84375q-2.125 0 -3.453125 1.53125q-1.328125 1.515625 -1.328125 4.8125q0 3.34375 1.28125 4.859375q1.28125 1.515625 3.34375 1.515625q1.65625 0 2.765625 -1.015625q1.109375 -1.015625 1.40625 -3.125zm4.125 -2.21875q0 -4.609375 2.5625 -6.828125q2.140625 -1.84375 5.21875 -1.84375q3.421875 0 5.59375 2.25q2.171875 2.234375 2.171875 6.1875q0 3.203125 -0.96875 5.046875q-0.953125 1.828125 -2.796875 2.84375q-1.828125 1.015625 -4.0 1.015625q-3.484375 0 -5.640625 -2.234375q-2.140625 -2.234375 -2.140625 -6.4375zm2.890625 0q0 3.1875 1.390625 4.78125q1.390625 1.578125 3.5 1.578125q2.09375 0 3.484375 -1.59375q1.390625 -1.59375 1.390625 -4.859375q0 -3.078125 -1.40625 -4.65625q-1.390625 -1.59375 -3.46875 -1.59375q-2.109375 0 -3.5 1.578125q-1.390625 1.578125 -1.390625 4.765625zm15.890625 8.296875l0 -22.90625l2.8125 0l0 22.90625l-2.8125 0zm18.046875 0l0 -2.4375q-1.9375 2.8125 -5.265625 2.8125q-1.46875 0 -2.75 -0.5625q-1.265625 -0.5625 -1.890625 -1.40625q-0.609375 -0.859375 -0.859375 -2.09375q-0.171875 -0.828125 -0.171875 -2.625l0 -10.28125l2.8125 0l0 9.203125q0 2.203125 0.171875 2.96875q0.265625 1.109375 1.125 1.75q0.859375 0.625 2.125 0.625q1.265625 0 2.375 -0.640625q1.109375 -0.65625 1.5625 -1.765625q0.46875 -1.125 0.46875 -3.25l0 -8.890625l2.8125 0l0 16.59375l-2.515625 0zm6.921875 0l0 -16.59375l2.515625 0l0 2.328125q0.78125 -1.21875 2.078125 -1.953125q1.296875 -0.75 2.953125 -0.75q1.84375 0 3.015625 0.765625q1.1875 0.765625 1.671875 2.140625q1.96875 -2.90625 5.125 -2.90625q2.46875 0 3.796875 1.375q1.328125 1.359375 1.328125 4.203125l0 11.390625l-2.796875 0l0 -10.453125q0 -1.6875 -0.28125 -2.421875q-0.265625 -0.75 -0.984375 -1.203125q-0.71875 -0.453125 -1.6875 -0.453125q-1.75 0 -2.90625 1.171875q-1.15625 1.15625 -1.15625 3.71875l0 9.640625l-2.8125 0l0 -10.78125q0 -1.875 -0.6875 -2.8125q-0.6875 -0.9375 -2.25 -0.9375q-1.1875 0 -2.203125 0.625q-1.0 0.625 -1.453125 1.828125q-0.453125 1.203125 -0.453125 3.46875l0 8.609375l-2.8125 0zm26.65625 0l0 -16.59375l2.53125 0l0 2.359375q1.828125 -2.734375 5.28125 -2.734375q1.5 0 2.75 0.546875q1.265625 0.53125 1.890625 1.40625q0.625 0.875 0.875 2.078125q0.15625 0.78125 0.15625 2.734375l0 10.203125l-2.8125 0l0 -10.09375q0 -1.71875 -0.328125 -2.5625q-0.328125 -0.859375 -1.171875 -1.359375q-0.828125 -0.515625 -1.953125 -0.515625q-1.796875 0 -3.109375 1.140625q-1.296875 1.140625 -1.296875 4.328125l0 9.0625l-2.8125 0z" fill-rule="nonzero"/><path fill="#ff9900" d="m510.09015 427.1741l0 -3.234375l2.8125 0l0 3.234375l-2.8125 0zm0 19.671875l0 -16.59375l2.8125 0l0 16.59375l-2.8125 0zm7.09375 0l0 -16.59375l2.53125 0l0 2.359375q1.828125 -2.734375 5.28125 -2.734375q1.5 0 2.75 0.546875q1.265625 0.53125 1.890625 1.40625q0.625 0.875 0.875 2.078125q0.15625 0.78125 0.15625 2.734375l0 10.203125l-2.8125 0l0 -10.09375q0 -1.71875 -0.328125 -2.5625q-0.328125 -0.859375 -1.171875 -1.359375q-0.828125 -0.515625 -1.953125 -0.515625q-1.796875 0 -3.109375 1.140625q-1.296875 1.140625 -1.296875 4.328125l0 9.0625l-2.8125 0zm28.5625 0l0 -2.09375q-1.578125 2.46875 -4.640625 2.46875q-1.984375 0 -3.65625 -1.09375q-1.65625 -1.09375 -2.578125 -3.046875q-0.90625 -1.96875 -0.90625 -4.515625q0 -2.484375 0.828125 -4.5q0.828125 -2.03125 2.484375 -3.109375q1.65625 -1.078125 3.703125 -1.078125q1.5 0 2.671875 0.640625q1.171875 0.625 1.90625 1.640625l0 -8.21875l2.796875 0l0 22.90625l-2.609375 0zm-8.890625 -8.28125q0 3.1875 1.34375 4.765625q1.34375 1.578125 3.171875 1.578125q1.84375 0 3.125 -1.5q1.296875 -1.515625 1.296875 -4.609375q0 -3.40625 -1.3125 -5.0q-1.3125 -1.59375 -3.234375 -1.59375q-1.875 0 -3.140625 1.53125q-1.25 1.53125 -1.25 4.828125zm27.28125 2.9375l2.90625 0.359375q-0.6875 2.546875 -2.546875 3.953125q-1.859375 1.40625 -4.75 1.40625q-3.640625 0 -5.78125 -2.234375q-2.125 -2.25 -2.125 -6.296875q0 -4.1875 2.15625 -6.5q2.15625 -2.3125 5.59375 -2.3125q3.328125 0 5.4375 2.265625q2.109375 2.265625 2.109375 6.375q0 0.25 -0.015625 0.75l-12.375 0q0.15625 2.734375 1.546875 4.1875q1.390625 1.453125 3.46875 1.453125q1.546875 0 2.640625 -0.8125q1.09375 -0.8125 1.734375 -2.59375zm-9.234375 -4.546875l9.265625 0q-0.1875 -2.09375 -1.0625 -3.140625q-1.34375 -1.625 -3.484375 -1.625q-1.9375 0 -3.265625 1.296875q-1.3125 1.296875 -1.453125 3.46875zm13.796875 9.890625l6.0625 -8.625l-5.609375 -7.96875l3.515625 0l2.546875 3.890625q0.71875 1.109375 1.15625 1.859375q0.6875 -1.03125 1.265625 -1.828125l2.796875 -3.921875l3.359375 0l-5.734375 7.8125l6.171875 8.78125l-3.453125 0l-3.40625 -5.15625l-0.90625 -1.390625l-4.359375 6.546875l-3.40625 0z" fill-rule="nonzero"/><path fill="#000000" fill-opacity="0.0" d="m546.0105 295.38406l0.3779297 77.543304" fill-rule="evenodd"/><path stroke="#ffb632" stroke-width="4.0" stroke-linejoin="round" stroke-linecap="butt" stroke-dasharray="4.0,12.0" d="m546.0105 295.38406l0.3779297 77.543304" fill-rule="evenodd"/><path fill="#000000" fill-opacity="0.0" d="m607.9737 110.36569l0.3779297 77.543304" fill-rule="evenodd"/><path stroke="#ff5454" stroke-width="4.0" stroke-linejoin="round" stroke-linecap="butt" stroke-dasharray="4.0,12.0" d="m607.9737 110.36569l0.3779297 77.543304" fill-rule="evenodd"/><path fill="#000000" fill-opacity="0.0" d="m529.87933 15.461943l157.25983 0l0 94.45669l-157.25983 0z" fill-rule="evenodd"/><path fill="#ff5454" d="m571.642 49.103817l2.765625 0.359375q-0.453125 2.859375 -2.328125 4.484375q-1.859375 1.609375 -4.578125 1.609375q-3.40625 0 -5.484375 -2.21875q-2.0625 -2.234375 -2.0625 -6.390625q0 -2.6875 0.890625 -4.703125q0.890625 -2.015625 2.703125 -3.015625q1.828125 -1.015625 3.96875 -1.015625q2.703125 0 4.421875 1.375q1.71875 1.359375 2.203125 3.875l-2.734375 0.421875q-0.390625 -1.671875 -1.390625 -2.515625q-0.984375 -0.84375 -2.390625 -0.84375q-2.125 0 -3.453125 1.53125q-1.328125 1.515625 -1.328125 4.8125q0 3.34375 1.28125 4.859375q1.28125 1.515625 3.34375 1.515625q1.65625 0 2.765625 -1.015625q1.109375 -1.015625 1.40625 -3.125zm5.109375 6.078125l0 -22.90625l2.8125 0l0 22.90625l-2.8125 0zm6.125 -8.296875q0 -4.609375 2.5625 -6.828125q2.140625 -1.84375 5.21875 -1.84375q3.421875 0 5.59375 2.25q2.171875 2.234375 2.171875 6.1875q0 3.203125 -0.96875 5.046875q-0.953125 1.828125 -2.796875 2.84375q-1.828125 1.015625 -4.0 1.015625q-3.484375 0 -5.640625 -2.234375q-2.140625 -2.234375 -2.140625 -6.4375zm2.890625 0q0 3.1875 1.390625 4.78125q1.390625 1.578125 3.5 1.578125q2.09375 0 3.484375 -1.59375q1.390625 -1.59375 1.390625 -4.859375q0 -3.078125 -1.40625 -4.65625q-1.390625 -1.59375 -3.46875 -1.59375q-2.109375 0 -3.5 1.578125q-1.390625 1.578125 -1.390625 4.765625zm14.828125 3.34375l2.78125 -0.4375q0.234375 1.671875 1.296875 2.5625q1.078125 0.890625 3.0 0.890625q1.9375 0 2.875 -0.78125q0.9375 -0.796875 0.9375 -1.859375q0 -0.953125 -0.828125 -1.5q-0.578125 -0.375 -2.875 -0.953125q-3.09375 -0.78125 -4.296875 -1.34375q-1.1875 -0.578125 -1.8125 -1.578125q-0.609375 -1.015625 -0.609375 -2.234375q0 -1.109375 0.5 -2.046875q0.515625 -0.953125 1.390625 -1.578125q0.65625 -0.484375 1.78125 -0.8125q1.140625 -0.34375 2.4375 -0.34375q1.953125 0 3.421875 0.5625q1.484375 0.5625 2.1875 1.53125q0.703125 0.953125 0.96875 2.5625l-2.75 0.375q-0.1875 -1.28125 -1.09375 -2.0q-0.890625 -0.71875 -2.53125 -0.71875q-1.9375 0 -2.765625 0.640625q-0.828125 0.640625 -0.828125 1.5q0 0.546875 0.34375 0.984375q0.34375 0.453125 1.078125 0.75q0.421875 0.15625 2.484375 0.71875q2.984375 0.796875 4.15625 1.3125q1.1875 0.5 1.859375 1.46875q0.671875 0.96875 0.671875 2.40625q0 1.40625 -0.828125 2.65625q-0.8125 1.234375 -2.359375 1.921875q-1.546875 0.671875 -3.5 0.671875q-3.234375 0 -4.9375 -1.34375q-1.6875 -1.34375 -2.15625 -3.984375zm17.140625 -14.71875l0 -3.234375l2.8125 0l0 3.234375l-2.8125 0zm0 19.671875l0 -16.59375l2.8125 0l0 16.59375l-2.8125 0zm7.09375 0l0 -16.59375l2.53125 0l0 2.359375q1.828125 -2.734375 5.28125 -2.734375q1.5 0 2.75 0.546875q1.265625 0.53125 1.890625 1.40625q0.625 0.875 0.875 2.078125q0.15625 0.78125 0.15625 2.734375l0 10.203125l-2.8125 0l0 -10.09375q0 -1.71875 -0.328125 -2.5625q-0.328125 -0.859375 -1.171875 -1.359375q-0.828125 -0.515625 -1.953125 -0.515625q-1.796875 0 -3.109375 1.140625q-1.296875 1.140625 -1.296875 4.328125l0 9.0625l-2.8125 0zm17.28125 1.375l2.734375 0.40625q0.171875 1.265625 0.953125 1.84375q1.046875 0.78125 2.859375 0.78125q1.953125 0 3.015625 -0.78125q1.0625 -0.78125 1.4375 -2.1875q0.21875 -0.859375 0.203125 -3.609375q-1.84375 2.171875 -4.59375 2.171875q-3.421875 0 -5.296875 -2.46875q-1.875 -2.46875 -1.875 -5.921875q0 -2.375 0.859375 -4.375q0.859375 -2.015625 2.484375 -3.109375q1.640625 -1.09375 3.84375 -1.09375q2.9375 0 4.84375 2.375l0 -2.0l2.59375 0l0 14.34375q0 3.875 -0.796875 5.484375q-0.78125 1.625 -2.5 2.5625q-1.703125 0.9375 -4.203125 0.9375q-2.96875 0 -4.796875 -1.34375q-1.828125 -1.328125 -1.765625 -4.015625zm2.328125 -9.96875q0 3.265625 1.296875 4.765625q1.296875 1.5 3.25 1.5q1.9375 0 3.25 -1.484375q1.3125 -1.5 1.3125 -4.6875q0 -3.046875 -1.359375 -4.59375q-1.34375 -1.546875 -3.25 -1.546875q-1.875 0 -3.1875 1.53125q-1.3125 1.515625 -1.3125 4.515625z" fill-rule="nonzero"/><path fill="#ff5454" d="m560.7436 93.181946l-2.609375 0l0 -22.90625l2.8125 0l0 8.171875q1.78125 -2.234375 4.546875 -2.234375q1.53125 0 2.890625 0.625q1.375 0.609375 2.25 1.734375q0.890625 1.109375 1.390625 2.6875q0.5 1.578125 0.5 3.375q0 4.265625 -2.109375 6.59375q-2.109375 2.328125 -5.0625 2.328125q-2.9375 0 -4.609375 -2.453125l0 2.078125zm-0.03125 -8.421875q0 2.984375 0.8125 4.3125q1.328125 2.171875 3.59375 2.171875q1.84375 0 3.1875 -1.59375q1.34375 -1.609375 1.34375 -4.78125q0 -3.25 -1.296875 -4.796875q-1.28125 -1.546875 -3.109375 -1.546875q-1.84375 0 -3.1875 1.609375q-1.34375 1.59375 -1.34375 4.625zm15.203125 8.421875l0 -16.59375l2.53125 0l0 2.515625q0.96875 -1.765625 1.78125 -2.328125q0.828125 -0.5625 1.8125 -0.5625q1.421875 0 2.890625 0.90625l-0.96875 2.609375q-1.03125 -0.609375 -2.0625 -0.609375q-0.921875 0 -1.65625 0.5625q-0.734375 0.546875 -1.046875 1.53125q-0.46875 1.5 -0.46875 3.28125l0 8.6875l-2.8125 0zm21.515625 -2.046875q-1.5625 1.328125 -3.015625 1.875q-1.4375 0.546875 -3.09375 0.546875q-2.734375 0 -4.203125 -1.328125q-1.46875 -1.34375 -1.46875 -3.421875q0 -1.21875 0.546875 -2.21875q0.5625 -1.015625 1.453125 -1.625q0.90625 -0.609375 2.03125 -0.921875q0.828125 -0.21875 2.5 -0.421875q3.40625 -0.40625 5.015625 -0.96875q0.015625 -0.578125 0.015625 -0.734375q0 -1.71875 -0.796875 -2.421875q-1.078125 -0.953125 -3.203125 -0.953125q-1.984375 0 -2.9375 0.703125q-0.9375 0.6875 -1.390625 2.453125l-2.75 -0.375q0.375 -1.765625 1.234375 -2.84375q0.859375 -1.09375 2.484375 -1.671875q1.625 -0.59375 3.765625 -0.59375q2.125 0 3.453125 0.5q1.328125 0.5 1.953125 1.265625q0.625 0.75 0.875 1.90625q0.140625 0.71875 0.140625 2.59375l0 3.75q0 3.921875 0.171875 4.96875q0.1875 1.03125 0.71875 1.984375l-2.9375 0q-0.4375 -0.875 -0.5625 -2.046875zm-0.234375 -6.28125q-1.53125 0.625 -4.59375 1.0625q-1.734375 0.25 -2.453125 0.5625q-0.71875 0.3125 -1.109375 0.921875q-0.390625 0.59375 -0.390625 1.328125q0 1.125 0.84375 1.875q0.859375 0.75 2.5 0.75q1.625 0 2.890625 -0.703125q1.265625 -0.71875 1.859375 -1.953125q0.453125 -0.953125 0.453125 -2.8125l0 -1.03125zm18.03125 2.25l2.765625 0.359375q-0.453125 2.859375 -2.328125 4.484375q-1.859375 1.609375 -4.578125 1.609375q-3.40625 0 -5.484375 -2.21875q-2.0625 -2.234375 -2.0625 -6.390625q0 -2.6875 0.890625 -4.703125q0.890625 -2.015625 2.703125 -3.015625q1.828125 -1.015625 3.96875 -1.015625q2.703125 0 4.421875 1.375q1.71875 1.359375 2.203125 3.875l-2.734375 0.421875q-0.390625 -1.671875 -1.390625 -2.515625q-0.984375 -0.84375 -2.390625 -0.84375q-2.125 0 -3.453125 1.53125q-1.328125 1.515625 -1.328125 4.8125q0 3.34375 1.28125 4.859375q1.28125 1.515625 3.34375 1.515625q1.65625 0 2.765625 -1.015625q1.109375 -1.015625 1.40625 -3.125zm5.1875 6.078125l0 -22.90625l2.8125 0l0 13.0625l6.65625 -6.75l3.640625 0l-6.34375 6.15625l6.984375 10.4375l-3.46875 0l-5.484375 -8.484375l-1.984375 1.90625l0 6.578125l-2.8125 0zm27.34375 -5.34375l2.90625 0.359375q-0.6875 2.546875 -2.546875 3.953125q-1.859375 1.40625 -4.75 1.40625q-3.640625 0 -5.78125 -2.234375q-2.125 -2.25 -2.125 -6.296875q0 -4.1875 2.15625 -6.5q2.15625 -2.3125 5.59375 -2.3125q3.328125 0 5.4375 2.265625q2.109375 2.265625 2.109375 6.375q0 0.25 -0.015625 0.75l-12.375 0q0.15625 2.734375 1.546875 4.1875q1.390625 1.453125 3.46875 1.453125q1.546875 0 2.640625 -0.8125q1.09375 -0.8125 1.734375 -2.59375zm-9.234375 -4.546875l9.265625 0q-0.1875 -2.09375 -1.0625 -3.140625q-1.34375 -1.625 -3.484375 -1.625q-1.9375 0 -3.265625 1.296875q-1.3125 1.296875 -1.453125 3.46875zm21.8125 7.375l0.40625 2.484375q-1.1875 0.25 -2.125 0.25q-1.53125 0 -2.375 -0.484375q-0.84375 -0.484375 -1.1875 -1.265625q-0.34375 -0.796875 -0.34375 -3.328125l0 -9.546875l-2.0625 0l0 -2.1875l2.0625 0l0 -4.109375l2.796875 -1.6875l0 5.796875l2.828125 0l0 2.1875l-2.828125 0l0 9.703125q0 1.203125 0.140625 1.546875q0.15625 0.34375 0.484375 0.546875q0.34375 0.203125 0.96875 0.203125q0.46875 0 1.234375 -0.109375z" fill-rule="nonzero"/></g></svg>