<svg version="1.1" viewBox="0.0 0.0 740.2808398950132 640.3228346456693" fill="none" stroke="none" stroke-linecap="square" stroke-miterlimit="10" xmlns:xlink="http://www.w3.org/1999/xlink" xmlns="http://www.w3.org/2000/svg"><clipPath id="p.0"><path d="m0 0l740.2808 0l0 640.3228l-740.2808 0l0 -640.3228z" clip-rule="nonzero"/></clipPath><g clip-path="url(#p.0)"><path fill="#000000" fill-opacity="0.0" d="m0 0l740.2808 0l0 640.3228l-740.2808 0z" fill-rule="evenodd"/><path fill="#000000" fill-opacity="0.0" d="m45.409912 412.1707l0 0c0 -4.3155212 3.498417 -7.8139343 7.8139343 -7.8139343l180.81308 0c2.0723877 0 4.0598907 0.8232422 5.525284 2.2886658c1.4653931 1.4653931 2.2886505 3.4528809 2.2886505 5.5252686l0 106.293365c0 4.3155518 -3.498413 7.813965 -7.8139343 7.813965l-180.81308 0l0 0c-4.3155174 0 -7.8139343 -3.498413 -7.8139343 -7.813965z" fill-rule="evenodd"/><path stroke="#b7b7b7" stroke-width="2.0" stroke-linejoin="round" stroke-linecap="butt" stroke-dasharray="8.0,6.0" d="m45.409912 412.1707l0 0c0 -4.3155212 3.498417 -7.8139343 7.8139343 -7.8139343l180.81308 0c2.0723877 0 4.0598907 0.8232422 5.525284 2.2886658c1.4653931 1.4653931 2.2886505 3.4528809 2.2886505 5.5252686l0 106.293365c0 4.3155518 -3.498413 7.813965 -7.8139343 7.813965l-180.81308 0l0 0c-4.3155174 0 -7.8139343 -3.498413 -7.8139343 -7.813965z" fill-rule="evenodd"/><path fill="#000000" fill-opacity="0.0" d="m329.3839 6.1424823l93.95276 0l0 61.007877l-93.95276 0z" fill-rule="evenodd"/><path fill="#434343" d="m357.3052 26.469357l0 18.484375l4.15625 0q1.25 0 1.78125 0.484375q0.53125 0.484375 0.53125 1.265625q0 0.75 -0.53125 1.234375q-0.53125 0.484375 -1.78125 0.484375l-11.796875 0q-1.25 0 -1.78125 -0.484375q-0.53125 -0.484375 -0.53125 -1.265625q0 -0.75 0.53125 -1.234375q0.53125 -0.484375 1.78125 -0.484375l4.171875 0l0 -15.015625l-2.796875 0q-1.234375 0 -1.78125 -0.46875q-0.546875 -0.484375 -0.546875 -1.265625q0 -0.765625 0.53125 -1.25q0.546875 -0.484375 1.796875 -0.484375l6.265625 0zm20.29715 0l0 3.671875l-4.125 0l0 -3.671875l4.125 0zm0.46875 6.59375l0 11.890625l4.171875 0q1.25 0 1.78125 0.484375q0.53125 0.484375 0.53125 1.265625q0 0.75 -0.53125 1.234375q-0.53125 0.484375 -1.78125 0.484375l-11.796875 0q-1.25 0 -1.78125 -0.484375q-0.53125 -0.484375 -0.53125 -1.265625q0 -0.75 0.53125 -1.234375q0.53125 -0.484375 1.78125 -0.484375l4.15625 0l0 -8.421875l-2.78125 0q-1.234375 0 -1.78125 -0.484375q-0.546875 -0.484375 -0.546875 -1.265625q0 -0.765625 0.53125 -1.234375q0.546875 -0.484375 1.796875 -0.484375l6.25 0zm22.82837 4.0625q-0.84375 -0.53125 -1.78125 -0.796875q-0.921875 -0.265625 -1.9375 -0.265625q-2.015625 0 -3.203125 0.671875q-0.515625 0.28125 -0.515625 0.625q0 0.390625 0.703125 0.75q0.546875 0.28125 2.421875 0.53125q3.453125 0.46875 4.8125 0.953125q1.78125 0.625 2.734375 1.859375q0.96875 1.234375 0.96875 2.609375q0 1.859375 -1.640625 3.109375q-2.359375 1.8125 -6.109375 1.8125q-1.5 0 -2.78125 -0.265625q-1.28125 -0.265625 -2.34375 -0.765625q-0.25 0.21875 -0.546875 0.34375q-0.28125 0.109375 -0.59375 0.109375q-0.8125 0 -1.296875 -0.53125q-0.46875 -0.53125 -0.46875 -1.78125l0 -1.171875q0 -1.25 0.46875 -1.78125q0.484375 -0.546875 1.265625 -0.546875q0.625 0 1.046875 0.359375q0.421875 0.34375 0.65625 1.1875q0.796875 0.671875 1.90625 1.03125q1.125 0.34375 2.578125 0.34375q2.390625 0 3.71875 -0.75q0.625 -0.375 0.625 -0.78125q0 -0.671875 -0.90625 -1.109375q-0.890625 -0.4375 -3.703125 -0.75q-4.171875 -0.4375 -5.578125 -1.6875q-1.40625 -1.234375 -1.40625 -3.046875q0 -1.859375 1.578125 -3.09375q2.125 -1.703125 5.578125 -1.703125q1.203125 0 2.3125 0.234375q1.109375 0.234375 2.125 0.703125q0.3125 -0.234375 0.59375 -0.34375q0.28125 -0.125 0.515625 -0.125q0.71875 0 1.1875 0.53125q0.46875 0.53125 0.46875 1.78125l0 0.84375q0 1.140625 -0.265625 1.546875q-0.546875 0.78125 -1.46875 0.78125q-0.625 0 -1.109375 -0.390625q-0.46875 -0.390625 -0.609375 -1.03125z" fill-rule="nonzero"/><path fill="#000000" fill-opacity="0.0" d="m39.74087 327.98764l210.67715 0l0 61.007874l-210.67715 0z" fill-rule="evenodd"/><path fill="#434343" d="m74.03154 348.3145l0 18.484375l4.15625 0q1.25 0 1.78125 0.484375q0.53125 0.484375 0.53125 1.265625q0 0.75 -0.53125 1.234375q-0.53125 0.484375 -1.78125 0.484375l-11.796875 0q-1.25 0 -1.78125 -0.484375q-0.53125 -0.484375 -0.53125 -1.265625q0 -0.75 0.53125 -1.234375q0.53125 -0.484375 1.78125 -0.484375l4.171875 0l0 -15.015625l-2.796875 0q-1.234375 0 -1.78125 -0.46875q-0.546875 -0.484375 -0.546875 -1.265625q0 -0.765625 0.53125 -1.25q0.546875 -0.484375 1.796875 -0.484375l6.265625 0zm20.297134 0l0 3.671875l-4.125 0l0 -3.671875l4.125 0zm0.46875 6.59375l0 11.890625l4.171875 0q1.25 0 1.78125 0.484375q0.53125 0.484375 0.53125 1.265625q0 0.75 -0.53125 1.234375q-0.53125 0.484375 -1.78125 0.484375l-11.796875 0q-1.25 0 -1.78125 -0.484375q-0.53125 -0.484375 -0.53125 -1.265625q0 -0.75 0.53125 -1.234375q0.53125 -0.484375 1.78125 -0.484375l4.15625 0l0 -8.421875l-2.78125 0q-1.234375 0 -1.78125 -0.484375q-0.546875 -0.484375 -0.546875 -1.265625q0 -0.765625 0.53125 -1.234375q0.546875 -0.484375 1.796875 -0.484375l6.25 0zm22.828384 4.0625q-0.84375 -0.53125 -1.78125 -0.796875q-0.921875 -0.265625 -1.9375 -0.265625q-2.015625 0 -3.203125 0.671875q-0.515625 0.28125 -0.515625 0.625q0 0.390625 0.703125 0.75q0.546875 0.28125 2.421875 0.53125q3.453125 0.46875 4.8125 0.953125q1.78125 0.625 2.734375 1.859375q0.96875 1.234375 0.96875 2.609375q0 1.859375 -1.640625 3.109375q-2.359375 1.8125 -6.109375 1.8125q-1.5 0 -2.78125 -0.265625q-1.28125 -0.265625 -2.34375 -0.765625q-0.25 0.21875 -0.546875 0.34375q-0.28125 0.109375 -0.59375 0.109375q-0.8125 0 -1.296875 -0.53125q-0.46875 -0.53125 -0.46875 -1.78125l0 -1.171875q0 -1.25 0.46875 -1.78125q0.484375 -0.546875 1.265625 -0.546875q0.625 0 1.046875 0.359375q0.421875 0.34375 0.65625 1.1875q0.796875 0.671875 1.90625 1.03125q1.125 0.34375 2.578125 0.34375q2.390625 0 3.71875 -0.75q0.625 -0.375 0.625 -0.78125q0 -0.671875 -0.90625 -1.109375q-0.890625 -0.4375 -3.703125 -0.75q-4.171875 -0.4375 -5.578125 -1.6875q-1.40625 -1.234375 -1.40625 -3.046875q0 -1.859375 1.578125 -3.09375q2.125 -1.703125 5.578125 -1.703125q1.203125 0 2.3125 0.234375q1.109375 0.234375 2.125 0.703125q0.3125 -0.234375 0.59375 -0.34375q0.28125 -0.125 0.515625 -0.125q0.71875 0 1.1875 0.53125q0.46875 0.53125 0.46875 1.78125l0 0.84375q0 1.140625 -0.265625 1.546875q-0.546875 0.78125 -1.46875 0.78125q-0.625 0 -1.109375 -0.390625q-0.46875 -0.390625 -0.609375 -1.03125z" fill-rule="nonzero"/><path fill="#3c78d8" d="m136.42294 349.4395q1.1875 0.15625 2.34375 0.671875q0.265625 -0.15625 0.515625 -0.21875q0.25 -0.078125 0.484375 -0.078125q0.78125 0 1.265625 0.53125q0.484375 0.53125 0.484375 1.78125l0 1.109375q0 1.265625 -0.484375 1.796875q-0.484375 0.53125 -1.25 0.53125q-0.6875 0 -1.171875 -0.453125q-0.484375 -0.46875 -0.578125 -1.34375q-1.203125 -0.96875 -3.03125 -0.96875q-1.921875 0 -2.8125 0.6875q-0.890625 0.6875 -0.890625 1.515625q0 0.640625 0.546875 1.15625q0.546875 0.5 2.265625 0.859375l2.3125 0.484375q2.90625 0.59375 4.171875 1.78125q1.65625 1.515625 1.65625 3.984375q0 2.15625 -1.515625 3.84375q-1.515625 1.6875 -4.3125 2.21875l0 2.953125q0 1.25 -0.484375 1.78125q-0.484375 0.53125 -1.265625 0.53125q-0.765625 0 -1.25 -0.53125q-0.46875 -0.53125 -0.46875 -1.78125l0 -2.953125q-1.359375 -0.28125 -2.71875 -0.890625q-0.71875 0.609375 -1.34375 0.609375q-0.828125 0 -1.3125 -0.515625q-0.484375 -0.53125 -0.484375 -1.78125l0 -2.1875q0 -1.25 0.484375 -1.78125q0.484375 -0.53125 1.25 -0.53125q0.625 0 1.046875 0.34375q0.4375 0.328125 0.609375 1.03125q0.1875 0.703125 0.53125 1.0625q0.515625 0.53125 1.546875 0.90625q1.046875 0.359375 2.140625 0.359375q1.9375 0 3.21875 -1.0q0.859375 -0.65625 0.859375 -1.703125q0 -0.875 -0.578125 -1.421875q-0.578125 -0.546875 -2.421875 -0.921875l-2.59375 -0.515625q-2.765625 -0.546875 -4.046875 -1.984375q-1.28125 -1.4375 -1.28125 -3.453125q0 -2.0 1.375 -3.546875q1.390625 -1.5625 3.71875 -1.96875l0 -0.953125q0 -1.234375 0.46875 -1.765625q0.484375 -0.53125 1.265625 -0.53125q0.765625 0 1.25 0.53125q0.484375 0.53125 0.484375 1.765625l0 0.953125z" fill-rule="nonzero"/><path fill="#434343" d="m155.50133 366.0489l3.734375 -7.671875q-1.375 0 -1.765625 -0.25q-0.84375 -0.515625 -0.84375 -1.5q0 -0.765625 0.53125 -1.234375q0.53125 -0.484375 1.78125 -0.484375l4.75 0q1.25 0 1.78125 0.484375q0.546875 0.46875 0.546875 1.25q0 0.765625 -0.546875 1.25q-0.53125 0.484375 -1.78125 0.484375l-0.578125 0l-5.796875 11.890625l-3.625 0l-5.796875 -11.890625l-0.5 0q-1.25 0 -1.78125 -0.484375q-0.53125 -0.484375 -0.53125 -1.265625q0 -0.765625 0.53125 -1.234375q0.53125 -0.484375 1.78125 -0.484375l4.65625 0q1.234375 0 1.765625 0.484375q0.53125 0.46875 0.53125 1.25q0 0.96875 -0.796875 1.46875q-0.40625 0.265625 -1.8125 0.265625l3.765625 7.671875zm29.484634 -1.703125l-14.234375 0q0.546875 1.359375 1.921875 2.1875q1.375 0.828125 3.734375 0.828125q1.921875 0 5.125 -0.828125q1.3125 -0.34375 1.828125 -0.34375q0.6875 0 1.15625 0.5q0.484375 0.484375 0.484375 1.21875q0 0.6875 -0.515625 1.15625q-0.671875 0.625 -3.296875 1.203125q-2.625 0.5625 -5.046875 0.5625q-4.15625 0 -6.65625 -2.34375q-2.5 -2.359375 -2.5 -5.796875q0 -3.65625 2.703125 -5.953125q2.703125 -2.296875 6.21875 -2.296875q2.125 0 3.890625 0.75q1.765625 0.75 2.625 1.609375q1.21875 1.25 2.015625 3.09375q0.546875 1.28125 0.546875 2.984375l0 1.46875zm-3.84375 -3.46875q-0.796875 -1.484375 -2.09375 -2.21875q-1.28125 -0.75 -3.046875 -0.75q-1.765625 0 -3.0625 0.75q-1.28125 0.734375 -2.09375 2.21875l10.296875 0zm21.344025 -5.34375q0.625 -0.59375 1.28125 -0.59375q0.734375 0 1.21875 0.53125q0.484375 0.53125 0.484375 1.765625l0 2.234375q0 1.25 -0.484375 1.78125q-0.484375 0.515625 -1.25 0.515625q-0.71875 0 -1.203125 -0.40625q-0.359375 -0.296875 -0.5625 -1.234375q-0.203125 -0.9375 -0.984375 -1.40625q-1.359375 -0.8125 -3.5 -0.8125q-2.453125 0 -3.9375 1.453125q-1.484375 1.4375 -1.484375 3.625q0 2.03125 1.421875 3.21875q1.421875 1.171875 4.734375 1.171875q2.15625 0 3.53125 -0.4375q0.8125 -0.28125 1.53125 -0.921875q0.734375 -0.65625 1.328125 -0.65625q0.703125 0 1.21875 0.53125q0.53125 0.515625 0.53125 1.234375q0 1.140625 -1.578125 2.171875q-2.34375 1.546875 -6.84375 1.546875q-4.046875 0 -6.296875 -1.671875q-3.046875 -2.25 -3.046875 -6.171875q0 -3.703125 2.46875 -6.125q2.484375 -2.4375 6.453125 -2.4375q1.4375 0 2.671875 0.28125q1.234375 0.265625 2.296875 0.8125zm17.156494 -7.71875l0 18.984375l3.5 0q1.25 0 1.78125 0.484375q0.53125 0.484375 0.53125 1.265625q0 0.75 -0.53125 1.234375q-0.53125 0.484375 -1.78125 0.484375l-10.484375 0q-1.25 0 -1.78125 -0.484375q-0.53125 -0.484375 -0.53125 -1.265625q0 -0.75 0.53125 -1.234375q0.53125 -0.484375 1.78125 -0.484375l3.515625 0l0 -14.46875l-3.109375 0.8125q-0.734375 0.203125 -1.109375 0.203125q-0.65625 0 -1.140625 -0.515625q-0.484375 -0.53125 -0.484375 -1.296875q0 -0.6875 0.359375 -1.078125q0.359375 -0.40625 1.484375 -0.71875l7.46875 -1.921875z" fill-rule="nonzero"/><path stroke="#3c78d8" stroke-width="2.0" stroke-linecap="butt" d="m59.37486 458.5644l0 55.700806" fill-rule="nonzero"/><path stroke="#3c78d8" stroke-width="2.0" stroke-linecap="butt" d="m115.81318 458.5644l0 55.700806" fill-rule="nonzero"/><path stroke="#3c78d8" stroke-width="2.0" stroke-linecap="butt" d="m172.2515 458.5644l0 55.700806" fill-rule="nonzero"/><path stroke="#3c78d8" stroke-width="2.0" stroke-linecap="butt" d="m228.68982 458.5644l0 55.700806" fill-rule="nonzero"/><path stroke="#3c78d8" stroke-width="2.0" stroke-linecap="butt" d="m58.37486 459.5644l171.31496 0" fill-rule="nonzero"/><path stroke="#3c78d8" stroke-width="2.0" stroke-linecap="butt" d="m58.37486 513.2652l171.31496 0" fill-rule="nonzero"/><path fill="#000000" d="m90.11905 496.0148l-2.34375 0l0 -14.921875q-0.859375 0.796875 -2.234375 1.609375q-1.359375 0.796875 -2.453125 1.203125l0 -2.265625q1.96875 -0.921875 3.4375 -2.234375q1.46875 -1.3125 2.078125 -2.546875l1.515625 0l0 19.15625z" fill-rule="nonzero"/><path fill="#000000" d="m150.04175 493.7648l0 2.25l-12.609375 0q-0.03125 -0.84375 0.265625 -1.625q0.484375 -1.296875 1.546875 -2.546875q1.0625 -1.25 3.0625 -2.875q3.109375 -2.5625 4.203125 -4.046875q1.09375 -1.5 1.09375 -2.8125q0 -1.40625 -1.0 -2.359375q-0.984375 -0.953125 -2.59375 -0.953125q-1.6875 0 -2.703125 1.015625q-1.015625 1.015625 -1.03125 2.8125l-2.40625 -0.25q0.25 -2.6875 1.859375 -4.09375q1.609375 -1.421875 4.328125 -1.421875q2.75 0 4.34375 1.53125q1.609375 1.515625 1.609375 3.765625q0 1.140625 -0.46875 2.25q-0.46875 1.109375 -1.5625 2.328125q-1.078125 1.21875 -3.609375 3.359375q-2.09375 1.765625 -2.703125 2.40625q-0.59375 0.625 -0.984375 1.265625l9.359375 0z" fill-rule="nonzero"/><path fill="#000000" d="m194.1832 490.98355l2.34375 -0.3125q0.390625 1.984375 1.359375 2.875q0.984375 0.875 2.375 0.875q1.640625 0 2.78125 -1.140625q1.140625 -1.15625 1.140625 -2.84375q0 -1.625 -1.0625 -2.671875q-1.046875 -1.046875 -2.671875 -1.046875q-0.65625 0 -1.65625 0.265625l0.265625 -2.0625q0.234375 0.03125 0.375 0.03125q1.5 0 2.6875 -0.78125q1.203125 -0.78125 1.203125 -2.40625q0 -1.296875 -0.875 -2.140625q-0.859375 -0.84375 -2.25 -0.84375q-1.359375 0 -2.28125 0.859375q-0.90625 0.859375 -1.15625 2.578125l-2.34375 -0.421875q0.421875 -2.34375 1.9375 -3.640625q1.53125 -1.296875 3.796875 -1.296875q1.5625 0 2.875 0.671875q1.3125 0.671875 2.0 1.828125q0.703125 1.15625 0.703125 2.453125q0 1.234375 -0.671875 2.25q-0.65625 1.015625 -1.953125 1.625q1.6875 0.390625 2.625 1.625q0.9375 1.21875 0.9375 3.0625q0 2.5 -1.828125 4.25q-1.8125 1.734375 -4.59375 1.734375q-2.515625 0 -4.171875 -1.5q-1.65625 -1.5 -1.890625 -3.875z" fill-rule="nonzero"/><path fill="#000000" fill-opacity="0.0" d="m323.23657 327.98688l261.3858 0l0 61.007874l-261.3858 0z" fill-rule="evenodd"/><path fill="#434343" d="m351.68585 348.31375l0 18.484375l4.15625 0q1.25 0 1.78125 0.484375q0.53125 0.484375 0.53125 1.265625q0 0.75 -0.53125 1.234375q-0.53125 0.484375 -1.78125 0.484375l-11.796875 0q-1.25 0 -1.78125 -0.484375q-0.53125 -0.484375 -0.53125 -1.265625q0 -0.75 0.53125 -1.234375q0.53125 -0.484375 1.78125 -0.484375l4.171875 0l0 -15.015625l-2.796875 0q-1.234375 0 -1.78125 -0.46875q-0.546875 -0.484375 -0.546875 -1.265625q0 -0.765625 0.53125 -1.25q0.546875 -0.484375 1.796875 -0.484375l6.265625 0zm20.29715 0l0 3.671875l-4.125 0l0 -3.671875l4.125 0zm0.46875 6.59375l0 11.890625l4.171875 0q1.25 0 1.78125 0.484375q0.53125 0.484375 0.53125 1.265625q0 0.75 -0.53125 1.234375q-0.53125 0.484375 -1.78125 0.484375l-11.796875 0q-1.25 0 -1.78125 -0.484375q-0.53125 -0.484375 -0.53125 -1.265625q0 -0.75 0.53125 -1.234375q0.53125 -0.484375 1.78125 -0.484375l4.15625 0l0 -8.421875l-2.78125 0q-1.234375 0 -1.78125 -0.484375q-0.546875 -0.484375 -0.546875 -1.265625q0 -0.765625 0.53125 -1.234375q0.546875 -0.484375 1.796875 -0.484375l6.25 0zm22.82837 4.0625q-0.84375 -0.53125 -1.78125 -0.796875q-0.921875 -0.265625 -1.9375 -0.265625q-2.015625 0 -3.203125 0.671875q-0.515625 0.28125 -0.515625 0.625q0 0.390625 0.703125 0.75q0.546875 0.28125 2.421875 0.53125q3.453125 0.46875 4.8125 0.953125q1.78125 0.625 2.734375 1.859375q0.96875 1.234375 0.96875 2.609375q0 1.859375 -1.640625 3.109375q-2.359375 1.8125 -6.109375 1.8125q-1.5 0 -2.78125 -0.265625q-1.28125 -0.265625 -2.34375 -0.765625q-0.25 0.21875 -0.546875 0.34375q-0.28125 0.109375 -0.59375 0.109375q-0.8125 0 -1.296875 -0.53125q-0.46875 -0.53125 -0.46875 -1.78125l0 -1.171875q0 -1.25 0.46875 -1.78125q0.484375 -0.546875 1.265625 -0.546875q0.625 0 1.046875 0.359375q0.421875 0.34375 0.65625 1.1875q0.796875 0.671875 1.90625 1.03125q1.125 0.34375 2.578125 0.34375q2.390625 0 3.71875 -0.75q0.625 -0.375 0.625 -0.78125q0 -0.671875 -0.90625 -1.109375q-0.890625 -0.4375 -3.703125 -0.75q-4.171875 -0.4375 -5.578125 -1.6875q-1.40625 -1.234375 -1.40625 -3.046875q0 -1.859375 1.578125 -3.09375q2.125 -1.703125 5.578125 -1.703125q1.203125 0 2.3125 0.234375q1.109375 0.234375 2.125 0.703125q0.3125 -0.234375 0.59375 -0.34375q0.28125 -0.125 0.515625 -0.125q0.71875 0 1.1875 0.53125q0.46875 0.53125 0.46875 1.78125l0 0.84375q0 1.140625 -0.265625 1.546875q-0.546875 0.78125 -1.46875 0.78125q-0.625 0 -1.109375 -0.390625q-0.46875 -0.390625 -0.609375 -1.03125z" fill-rule="nonzero"/><path fill="#3c78d8" d="m414.07727 349.43875q1.1875 0.15625 2.34375 0.671875q0.265625 -0.15625 0.515625 -0.21875q0.25 -0.078125 0.484375 -0.078125q0.78125 0 1.265625 0.53125q0.484375 0.53125 0.484375 1.78125l0 1.109375q0 1.265625 -0.484375 1.796875q-0.484375 0.53125 -1.25 0.53125q-0.6875 0 -1.171875 -0.453125q-0.484375 -0.46875 -0.578125 -1.34375q-1.203125 -0.96875 -3.03125 -0.96875q-1.921875 0 -2.8125 0.6875q-0.890625 0.6875 -0.890625 1.515625q0 0.640625 0.546875 1.15625q0.546875 0.5 2.265625 0.859375l2.3125 0.484375q2.90625 0.59375 4.171875 1.78125q1.65625 1.515625 1.65625 3.984375q0 2.15625 -1.515625 3.84375q-1.515625 1.6875 -4.3125 2.21875l0 2.953125q0 1.25 -0.484375 1.78125q-0.484375 0.53125 -1.265625 0.53125q-0.765625 0 -1.25 -0.53125q-0.46875 -0.53125 -0.46875 -1.78125l0 -2.953125q-1.359375 -0.28125 -2.71875 -0.890625q-0.71875 0.609375 -1.34375 0.609375q-0.828125 0 -1.3125 -0.515625q-0.484375 -0.53125 -0.484375 -1.78125l0 -2.1875q0 -1.25 0.484375 -1.78125q0.484375 -0.53125 1.25 -0.53125q0.625 0 1.046875 0.34375q0.4375 0.328125 0.609375 1.03125q0.1875 0.703125 0.53125 1.0625q0.515625 0.53125 1.546875 0.90625q1.046875 0.359375 2.140625 0.359375q1.9375 0 3.21875 -1.0q0.859375 -0.65625 0.859375 -1.703125q0 -0.875 -0.578125 -1.421875q-0.578125 -0.546875 -2.421875 -0.921875l-2.59375 -0.515625q-2.765625 -0.546875 -4.046875 -1.984375q-1.28125 -1.4375 -1.28125 -3.453125q0 -2.0 1.375 -3.546875q1.390625 -1.5625 3.71875 -1.96875l0 -0.953125q0 -1.234375 0.46875 -1.765625q0.484375 -0.53125 1.265625 -0.53125q0.765625 0 1.25 0.53125q0.484375 0.53125 0.484375 1.765625l0 0.953125z" fill-rule="nonzero"/><path fill="#434343" d="m433.15564 366.04813l3.734375 -7.671875q-1.375 0 -1.765625 -0.25q-0.84375 -0.515625 -0.84375 -1.5q0 -0.765625 0.53125 -1.234375q0.53125 -0.484375 1.78125 -0.484375l4.75 0q1.25 0 1.78125 0.484375q0.546875 0.46875 0.546875 1.25q0 0.765625 -0.546875 1.25q-0.53125 0.484375 -1.78125 0.484375l-0.578125 0l-5.796875 11.890625l-3.625 0l-5.796875 -11.890625l-0.5 0q-1.25 0 -1.78125 -0.484375q-0.53125 -0.484375 -0.53125 -1.265625q0 -0.765625 0.53125 -1.234375q0.53125 -0.484375 1.78125 -0.484375l4.65625 0q1.234375 0 1.765625 0.484375q0.53125 0.46875 0.53125 1.25q0 0.96875 -0.796875 1.46875q-0.40625 0.265625 -1.8125 0.265625l3.765625 7.671875zm29.48465 -1.703125l-14.234375 0q0.546875 1.359375 1.921875 2.1875q1.375 0.828125 3.734375 0.828125q1.921875 0 5.125 -0.828125q1.3125 -0.34375 1.828125 -0.34375q0.6875 0 1.15625 0.5q0.484375 0.484375 0.484375 1.21875q0 0.6875 -0.515625 1.15625q-0.671875 0.625 -3.296875 1.203125q-2.625 0.5625 -5.046875 0.5625q-4.15625 0 -6.65625 -2.34375q-2.5 -2.359375 -2.5 -5.796875q0 -3.65625 2.703125 -5.953125q2.703125 -2.296875 6.21875 -2.296875q2.125 0 3.890625 0.75q1.765625 0.75 2.625 1.609375q1.21875 1.25 2.015625 3.09375q0.546875 1.28125 0.546875 2.984375l0 1.46875zm-3.84375 -3.46875q-0.796875 -1.484375 -2.09375 -2.21875q-1.28125 -0.75 -3.046875 -0.75q-1.765625 0 -3.0625 0.75q-1.28125 0.734375 -2.09375 2.21875l10.296875 0zm21.344025 -5.34375q0.625 -0.59375 1.28125 -0.59375q0.734375 0 1.21875 0.53125q0.484375 0.53125 0.484375 1.765625l0 2.234375q0 1.25 -0.484375 1.78125q-0.484375 0.515625 -1.25 0.515625q-0.71875 0 -1.203125 -0.40625q-0.359375 -0.296875 -0.5625 -1.234375q-0.203125 -0.9375 -0.984375 -1.40625q-1.359375 -0.8125 -3.5 -0.8125q-2.453125 0 -3.9375 1.453125q-1.484375 1.4375 -1.484375 3.625q0 2.03125 1.421875 3.21875q1.421875 1.171875 4.734375 1.171875q2.15625 0 3.53125 -0.4375q0.8125 -0.28125 1.53125 -0.921875q0.734375 -0.65625 1.328125 -0.65625q0.703125 0 1.21875 0.53125q0.53125 0.515625 0.53125 1.234375q0 1.140625 -1.578125 2.171875q-2.34375 1.546875 -6.84375 1.546875q-4.046875 0 -6.296875 -1.671875q-3.046875 -2.25 -3.046875 -6.171875q0 -3.703125 2.46875 -6.125q2.484375 -2.4375 6.453125 -2.4375q1.4375 0 2.671875 0.28125q1.234375 0.265625 2.296875 0.8125zm17.156494 -7.71875l0 18.984375l3.5 0q1.25 0 1.78125 0.484375q0.53125 0.484375 0.53125 1.265625q0 0.75 -0.53125 1.234375q-0.53125 0.484375 -1.78125 0.484375l-10.484375 0q-1.25 0 -1.78125 -0.484375q-0.53125 -0.484375 -0.53125 -1.265625q0 -0.75 0.53125 -1.234375q0.53125 -0.484375 1.78125 -0.484375l3.515625 0l0 -14.46875l-3.109375 0.8125q-0.734375 0.203125 -1.109375 0.203125q-0.65625 0 -1.140625 -0.515625q-0.484375 -0.53125 -0.484375 -1.296875q0 -0.6875 0.359375 -1.078125q0.359375 -0.40625 1.484375 -0.71875l7.46875 -1.921875z" fill-rule="nonzero"/><path fill="#ff9900" d="m518.01605 351.845l0 20.375l2.109375 0q1.25 0 1.78125 0.46875q0.53125 0.46875 0.53125 1.25q0 0.78125 -0.53125 1.265625q-0.53125 0.484375 -1.78125 0.484375l-5.578125 0l0 -27.3125l5.5625 0q1.25 0 1.78125 0.484375q0.53125 0.46875 0.53125 1.25q0 0.765625 -0.53125 1.25q-0.53125 0.484375 -1.78125 0.484375l-2.09375 0z" fill-rule="nonzero"/><path fill="#434343" d="m533.8757 366.79813l7.59375 0q0.625 -0.515625 1.1875 -0.515625q0.796875 0 1.265625 0.53125q0.46875 0.53125 0.46875 1.796875l0 1.65625l-15.8125 0l0 -3.671875q9.375 -7.734375 11.328125 -9.953125q0.96875 -1.125 0.96875 -2.140625q0 -1.28125 -1.109375 -2.25q-1.09375 -0.96875 -2.9375 -0.96875q-1.875 0 -3.109375 1.078125q-0.640625 0.578125 -1.03125 1.71875q-0.234375 0.703125 -0.65625 1.015625q-0.40625 0.296875 -1.015625 0.296875q-0.703125 0 -1.21875 -0.5q-0.515625 -0.515625 -0.515625 -1.1875q0 -1.015625 0.9375 -2.53125q0.9375 -1.53125 2.734375 -2.4375q1.796875 -0.921875 3.921875 -0.921875q3.28125 0 5.375 1.984375q2.09375 1.984375 2.09375 4.8125q0 1.4375 -0.59375 2.671875q-0.59375 1.21875 -2.890625 3.390625q-1.78125 1.703125 -6.984375 6.125z" fill-rule="nonzero"/><path fill="#ff9900" d="m556.2197 372.22l0 -20.375l-2.109375 0q-1.25 0 -1.78125 -0.484375q-0.53125 -0.484375 -0.53125 -1.25q0 -0.78125 0.53125 -1.25q0.53125 -0.484375 1.78125 -0.484375l5.578125 0l0 27.3125l-5.5625 0q-1.25 0 -1.78125 -0.484375q-0.53125 -0.484375 -0.53125 -1.265625q0 -0.765625 0.53125 -1.25q0.53125 -0.46875 1.78125 -0.46875l2.09375 0z" fill-rule="nonzero"/><path fill="#000000" fill-opacity="0.0" d="m350.8586 412.1707l0 0c0 -4.3155212 3.498413 -7.8139343 7.8139343 -7.8139343l180.81305 0c2.0723877 0 4.0599365 0.8232422 5.5253296 2.2886658c1.4653931 1.4653931 2.2886353 3.4528809 2.2886353 5.5252686l0 106.293365c0 4.3155518 -3.498413 7.813965 -7.813965 7.813965l-180.81305 0l0 0c-4.3155212 0 -7.8139343 -3.498413 -7.8139343 -7.813965z" fill-rule="evenodd"/><path stroke="#b7b7b7" stroke-width="2.0" stroke-linejoin="round" stroke-linecap="butt" stroke-dasharray="8.0,6.0" d="m350.8586 412.1707l0 0c0 -4.3155212 3.498413 -7.8139343 7.8139343 -7.8139343l180.81305 0c2.0723877 0 4.0599365 0.8232422 5.5253296 2.2886658c1.4653931 1.4653931 2.2886353 3.4528809 2.2886353 5.5252686l0 106.293365c0 4.3155518 -3.498413 7.813965 -7.813965 7.813965l-180.81305 0l0 0c-4.3155212 0 -7.8139343 -3.498413 -7.8139343 -7.813965z" fill-rule="evenodd"/><path shape-rendering="crispEdges" fill="#ff9900" d="m419.81317 459.5644l56.438324 0l0 53.700806l-56.438324 0l0 -53.700806z" fill-rule="nonzero"/><path stroke="#3c78d8" stroke-width="2.0" stroke-linecap="butt" d="m363.37485 458.5644l0 55.700806" fill-rule="nonzero"/><path stroke="#3c78d8" stroke-width="2.0" stroke-linecap="butt" d="m419.81317 458.5644l0 55.700806" fill-rule="nonzero"/><path stroke="#3c78d8" stroke-width="2.0" stroke-linecap="butt" d="m476.2515 458.5644l0 55.700806" fill-rule="nonzero"/><path stroke="#3c78d8" stroke-width="2.0" stroke-linecap="butt" d="m532.6898 458.5644l0 55.700806" fill-rule="nonzero"/><path stroke="#3c78d8" stroke-width="2.0" stroke-linecap="butt" d="m362.37485 459.5644l171.31497 0" fill-rule="nonzero"/><path stroke="#3c78d8" stroke-width="2.0" stroke-linecap="butt" d="m362.37485 513.2652l171.31497 0" fill-rule="nonzero"/><path fill="#000000" d="m394.11905 496.0148l-2.34375 0l0 -14.921875q-0.859375 0.796875 -2.234375 1.609375q-1.359375 0.796875 -2.453125 1.203125l0 -2.265625q1.96875 -0.921875 3.4375 -2.234375q1.46875 -1.3125 2.078125 -2.546875l1.515625 0l0 19.15625z" fill-rule="nonzero"/><path fill="#000000" d="m454.04175 493.7648l0 2.25l-12.609375 0q-0.03125 -0.84375 0.265625 -1.625q0.484375 -1.296875 1.546875 -2.546875q1.0625 -1.25 3.0625 -2.875q3.109375 -2.5625 4.203125 -4.046875q1.09375 -1.5 1.09375 -2.8125q0 -1.40625 -1.0 -2.359375q-0.984375 -0.953125 -2.59375 -0.953125q-1.6875 0 -2.703125 1.015625q-1.015625 1.015625 -1.03125 2.8125l-2.40625 -0.25q0.25 -2.6875 1.859375 -4.09375q1.609375 -1.421875 4.328125 -1.421875q2.75 0 4.34375 1.53125q1.609375 1.515625 1.609375 3.765625q0 1.140625 -0.46875 2.25q-0.46875 1.109375 -1.5625 2.328125q-1.078125 1.21875 -3.609375 3.359375q-2.09375 1.765625 -2.703125 2.40625q-0.59375 0.625 -0.984375 1.265625l9.359375 0z" fill-rule="nonzero"/><path fill="#000000" d="m498.1832 490.98355l2.34375 -0.3125q0.390625 1.984375 1.359375 2.875q0.984375 0.875 2.375 0.875q1.640625 0 2.78125 -1.140625q1.140625 -1.15625 1.140625 -2.84375q0 -1.625 -1.0625 -2.671875q-1.046875 -1.046875 -2.671875 -1.046875q-0.65625 0 -1.65625 0.265625l0.265625 -2.0625q0.234375 0.03125 0.375 0.03125q1.5 0 2.6875 -0.78125q1.203125 -0.78125 1.203125 -2.40625q0 -1.296875 -0.875 -2.140625q-0.859375 -0.84375 -2.25 -0.84375q-1.359375 0 -2.28125 0.859375q-0.90625 0.859375 -1.15625 2.578125l-2.34375 -0.421875q0.421875 -2.34375 1.9375 -3.640625q1.53125 -1.296875 3.796875 -1.296875q1.5625 0 2.875 0.671875q1.3125 0.671875 2.0 1.828125q0.703125 1.15625 0.703125 2.453125q0 1.234375 -0.671875 2.25q-0.65625 1.015625 -1.953125 1.625q1.6875 0.390625 2.625 1.625q0.9375 1.21875 0.9375 3.0625q0 2.5 -1.828125 4.25q-1.8125 1.734375 -4.59375 1.734375q-2.515625 0 -4.171875 -1.5q-1.65625 -1.5 -1.890625 -3.875z" fill-rule="nonzero"/><path fill="#000000" fill-opacity="0.0" d="m42.851105 535.96796l231.18109 0l0 91.46454l-231.18109 0z" fill-rule="evenodd"/><path fill="#666666" d="m63.08548 556.0342l-0.625 2.9375l-2.953125 0l0.546875 -2.578125q0.46875 -2.3125 1.484375 -3.375q1.03125 -1.078125 2.421875 -1.25l-0.21875 1.140625q-1.6875 0.453125 -2.265625 3.125l1.609375 0zm-4.578125 0l-0.609375 2.9375l-2.953125 0l0.546875 -2.578125q0.46875 -2.3125 1.484375 -3.375q1.03125 -1.078125 2.421875 -1.25l-0.234375 1.140625q-1.671875 0.453125 -2.25 3.125l1.59375 0zm14.46962 14.34375q-2.734375 3.09375 -5.609375 3.09375q-1.75 0 -2.84375 -1.0q-1.078125 -1.015625 -1.078125 -2.484375q0 -0.953125 0.484375 -3.296875l1.84375 -8.765625l2.59375 0l-2.03125 9.71875q-0.265625 1.21875 -0.265625 1.890625q0 0.859375 0.515625 1.34375q0.53125 0.46875 1.546875 0.46875q1.09375 0 2.125 -0.515625q1.046875 -0.53125 1.796875 -1.4375q0.75 -0.90625 1.21875 -2.140625q0.3125 -0.78125 0.734375 -2.765625l1.375 -6.5625l2.59375 0l-3.1875 15.203125l-2.390625 0l0.578125 -2.75zm5.920288 2.75l3.1875 -15.203125l2.34375 0l-0.5625 2.640625q1.53125 -1.5625 2.859375 -2.265625q1.34375 -0.71875 2.734375 -0.71875q1.84375 0 2.890625 1.0q1.0625 1.0 1.0625 2.671875q0 0.84375 -0.375 2.671875l-1.9375 9.203125l-2.59375 0l2.03125 -9.640625q0.296875 -1.40625 0.296875 -2.078125q0 -0.75 -0.53125 -1.21875q-0.515625 -0.484375 -1.5 -0.484375q-2.0 0 -3.5625 1.4375q-1.546875 1.4375 -2.265625 4.90625l-1.484375 7.078125l-2.59375 0zm16.310913 0l4.390625 -21.0l2.59375 0l-1.5625 7.515625q1.234375 -1.140625 2.234375 -1.59375q1.0 -0.46875 2.09375 -0.46875q2.125 0 3.546875 1.59375q1.421875 1.578125 1.421875 4.609375q0 2.03125 -0.578125 3.703125q-0.5625 1.671875 -1.40625 2.8125q-0.84375 1.140625 -1.75 1.828125q-0.890625 0.671875 -1.84375 1.0q-0.9375 0.34375 -1.8125 0.34375q-1.515625 0 -2.65625 -0.796875q-1.140625 -0.796875 -1.78125 -2.421875l-0.609375 2.875l-2.28125 0zm3.84375 -6.25l-0.015625 0.5q0 1.9375 0.921875 2.953125q0.9375 1.015625 2.328125 1.015625q1.359375 0 2.5 -0.953125q1.140625 -0.953125 1.859375 -2.96875q0.734375 -2.015625 0.734375 -3.71875q0 -1.921875 -0.921875 -2.984375q-0.921875 -1.0625 -2.28125 -1.0625q-1.40625 0 -2.578125 1.09375q-1.171875 1.078125 -1.953125 3.328125q-0.59375 1.671875 -0.59375 2.796875zm12.935913 0.484375q0 -4.453125 2.609375 -7.375q2.171875 -2.40625 5.671875 -2.40625q2.75 0 4.4375 1.71875q1.6875 1.71875 1.6875 4.640625q0 2.609375 -1.0625 4.875q-1.0625 2.25 -3.015625 3.453125q-1.953125 1.203125 -4.125 1.203125q-1.765625 0 -3.21875 -0.75q-1.453125 -0.765625 -2.21875 -2.15625q-0.765625 -1.390625 -0.765625 -3.203125zm2.59375 -0.265625q0 2.15625 1.03125 3.265625q1.03125 1.109375 2.609375 1.109375q0.828125 0 1.640625 -0.328125q0.828125 -0.34375 1.53125 -1.03125q0.703125 -0.6875 1.1875 -1.5625q0.5 -0.890625 0.796875 -1.90625q0.453125 -1.421875 0.453125 -2.71875q0 -2.0625 -1.046875 -3.203125q-1.03125 -1.140625 -2.609375 -1.140625q-1.21875 0 -2.21875 0.578125q-1.0 0.578125 -1.8125 1.703125q-0.8125 1.109375 -1.1875 2.59375q-0.375 1.484375 -0.375 2.640625zm12.232788 6.03125l6.625 -7.71875l-3.796875 -7.484375l2.859375 0l1.296875 2.703125q0.703125 1.515625 1.28125 2.90625l4.390625 -5.609375l3.15625 0l-6.390625 7.6875l3.84375 7.515625l-2.859375 0l-1.53125 -3.09375q-0.484375 -0.984375 -1.09375 -2.453125l-4.53125 5.546875l-3.25 0zm26.851562 -5.171875l2.53125 0.265625q-0.546875 1.875 -2.515625 3.5625q-1.953125 1.6875 -4.65625 1.6875q-1.6875 0 -3.09375 -0.78125q-1.40625 -0.78125 -2.15625 -2.265625q-0.734375 -1.5 -0.734375 -3.390625q0 -2.5 1.15625 -4.84375q1.15625 -2.34375 2.984375 -3.46875q1.828125 -1.140625 3.96875 -1.140625q2.71875 0 4.34375 1.6875q1.625 1.6875 1.625 4.609375q0 1.109375 -0.203125 2.296875l-11.1875 0q-0.0625 0.4375 -0.0625 0.796875q0 2.125 0.96875 3.25q0.984375 1.125 2.40625 1.125q1.328125 0 2.609375 -0.859375q1.296875 -0.875 2.015625 -2.53125zm-7.53125 -3.765625l8.53125 0q0.015625 -0.40625 0.015625 -0.578125q0 -1.9375 -0.96875 -2.96875q-0.96875 -1.046875 -2.5 -1.046875q-1.671875 0 -3.046875 1.15625q-1.359375 1.140625 -2.03125 3.4375zm22.935913 6.734375q-2.234375 2.546875 -4.640625 2.546875q-2.171875 0 -3.609375 -1.59375q-1.4375 -1.59375 -1.4375 -4.640625q0 -2.765625 1.140625 -5.0625q1.140625 -2.3125 2.84375 -3.453125q1.71875 -1.140625 3.4375 -1.140625q2.828125 0 4.28125 2.734375l1.71875 -8.1875l2.578125 0l-4.390625 21.0l-2.390625 0l0.46875 -2.203125zm-7.109375 -4.171875q0 1.59375 0.3125 2.515625q0.3125 0.90625 1.0625 1.515625q0.765625 0.609375 1.828125 0.609375q1.765625 0 3.203125 -1.828125q1.90625 -2.4375 1.90625 -6.015625q0 -1.8125 -0.953125 -2.828125q-0.9375 -1.015625 -2.359375 -1.015625q-0.9375 0 -1.703125 0.421875q-0.765625 0.40625 -1.515625 1.40625q-0.75 1.0 -1.265625 2.53125q-0.515625 1.53125 -0.515625 2.6875zm16.139038 -11.59375l0.609375 -2.9375l2.953125 0l-0.53125 2.578125q-0.484375 2.296875 -1.515625 3.375q-1.015625 1.0625 -2.40625 1.234375l0.25 -1.125q1.6875 -0.484375 2.25 -3.125l-1.609375 0zm4.71875 0l0.625 -2.9375l2.953125 0l-0.546875 2.578125q-0.46875 2.296875 -1.5 3.375q-1.03125 1.0625 -2.40625 1.234375l0.21875 -1.125q1.6875 -0.484375 2.265625 -3.125l-1.609375 0z" fill-rule="nonzero"/><path fill="#666666" d="m61.42923 604.5654l4.546875 -6.5q-1.203125 0 -1.515625 -0.25q-0.421875 -0.34375 -0.421875 -0.921875q0 -0.859375 0.828125 -1.453125q0.453125 -0.3125 1.484375 -0.3125l4.015625 0q0.96875 0 1.3125 0.3125q0.359375 0.296875 0.359375 0.859375q0 0.84375 -0.796875 1.4375q-0.453125 0.328125 -1.5 0.328125l-0.484375 0l-7.046875 10.0625l-3.0625 0l-2.78125 -10.0625l-0.421875 0q-0.96875 0 -1.328125 -0.3125q-0.34375 -0.3125 -0.34375 -0.859375q0 -0.859375 0.828125 -1.453125q0.4375 -0.3125 1.46875 -0.3125l3.9375 0q0.984375 0 1.328125 0.3125q0.359375 0.296875 0.359375 0.859375q0 0.46875 -0.34375 0.96875q-0.328125 0.484375 -0.828125 0.65625q-0.34375 0.140625 -1.40625 0.140625l1.8125 6.5zm25.255997 -1.453125l-12.03125 0q0.203125 1.140625 1.203125 1.84375q1.0 0.703125 3.0 0.703125q1.65625 0 4.515625 -0.703125q1.1875 -0.28125 1.625 -0.28125q0.484375 0 0.796875 0.3125q0.3125 0.3125 0.3125 0.8125q0 0.71875 -0.65625 1.296875q-0.65625 0.5625 -3.078125 1.03125q-2.40625 0.46875 -4.359375 0.46875q-3.0625 0 -4.734375 -1.53125q-1.671875 -1.546875 -1.671875 -3.9375q0 -1.984375 1.203125 -3.984375q1.21875 -2.015625 3.453125 -3.203125q2.25 -1.203125 4.609375 -1.203125q2.78125 0 4.5 1.53125q1.734375 1.53125 1.734375 4.28125q0 0.59375 -0.140625 1.3125l-0.28125 1.25zm-2.625 -2.9375q-0.390625 -1.203125 -1.359375 -1.84375q-0.953125 -0.65625 -2.453125 -0.65625q-1.5 0 -2.71875 0.625q-1.21875 0.625 -2.15625 1.875l8.6875 0zm19.021622 -4.515625q0.640625 -0.5 1.1875 -0.5q0.5 0 0.828125 0.328125q0.34375 0.3125 0.34375 0.75q0 0.28125 -0.125 0.859375l-0.40625 1.890625q-0.234375 1.0625 -0.734375 1.515625q-0.5 0.4375 -1.15625 0.4375q-0.625 0 -0.953125 -0.34375q-0.25 -0.265625 -0.25 -1.046875q0 -0.78125 -0.53125 -1.171875q-1.015625 -0.703125 -2.84375 -0.703125q-2.828125 0 -4.46875 2.109375q-1.140625 1.4375 -1.140625 3.0625q0 1.28125 1.0 2.0625q1.0 0.765625 3.515625 0.765625q1.796875 0 3.046875 -0.375q0.75 -0.21875 1.484375 -0.765625q0.734375 -0.5625 1.234375 -0.5625q0.515625 0 0.84375 0.34375q0.34375 0.34375 0.34375 0.859375q0 1.03125 -1.40625 1.9375q-2.359375 1.5 -6.453125 1.5q-3.390625 0 -5.0 -1.421875q-1.609375 -1.4375 -1.609375 -3.671875q0 -2.109375 1.21875 -4.25q1.234375 -2.140625 3.390625 -3.328125q2.15625 -1.203125 4.640625 -1.203125q1.203125 0 2.203125 0.234375q1.0 0.21875 1.796875 0.6875zm15.896622 -6.53125l-3.421875 16.0625l2.96875 0q0.984375 0 1.328125 0.3125q0.34375 0.296875 0.34375 0.84375q0 0.890625 -0.84375 1.484375q-0.4375 0.296875 -1.4375 0.296875l-8.890625 0q-0.96875 0 -1.328125 -0.296875q-0.34375 -0.3125 -0.34375 -0.859375q0 -0.890625 0.828125 -1.46875q0.46875 -0.3125 1.484375 -0.3125l2.953125 0l2.609375 -12.234375l-2.765625 0.671875q-0.65625 0.171875 -0.984375 0.171875q-0.484375 0 -0.78125 -0.3125q-0.296875 -0.328125 -0.296875 -0.875q0 -0.671875 0.390625 -1.109375q0.40625 -0.453125 1.53125 -0.75l6.65625 -1.625z" fill-rule="nonzero"/><path fill="#666666" d="m131.83589 602.3623q0 -4.453125 2.609375 -7.375q2.171875 -2.40625 5.671875 -2.40625q2.75 0 4.4375 1.71875q1.6875 1.71875 1.6875 4.640625q0 2.609375 -1.0625 4.875q-1.0625 2.25 -3.015625 3.453125q-1.953125 1.203125 -4.125 1.203125q-1.765625 0 -3.21875 -0.75q-1.453125 -0.765625 -2.21875 -2.15625q-0.765625 -1.390625 -0.765625 -3.203125zm2.59375 -0.265625q0 2.15625 1.03125 3.265625q1.03125 1.109375 2.609375 1.109375q0.828125 0 1.640625 -0.328125q0.828125 -0.34375 1.53125 -1.03125q0.703125 -0.6875 1.1875 -1.5625q0.5 -0.890625 0.796875 -1.90625q0.453125 -1.421875 0.453125 -2.71875q0 -2.0625 -1.046875 -3.203125q-1.03125 -1.140625 -2.609375 -1.140625q-1.21875 0 -2.21875 0.578125q-1.0 0.578125 -1.8125 1.703125q-0.8125 1.109375 -1.1875 2.59375q-0.375 1.484375 -0.375 2.640625zm13.248413 6.03125l4.390625 -21.0l2.59375 0l-1.5625 7.515625q1.234375 -1.140625 2.234375 -1.59375q1.0 -0.46875 2.09375 -0.46875q2.125 0 3.546875 1.59375q1.421875 1.578125 1.421875 4.609375q0 2.03125 -0.578125 3.703125q-0.5625 1.671875 -1.40625 2.8125q-0.84375 1.140625 -1.75 1.828125q-0.890625 0.671875 -1.84375 1.0q-0.9375 0.34375 -1.8125 0.34375q-1.515625 0 -2.65625 -0.796875q-1.140625 -0.796875 -1.78125 -2.421875l-0.609375 2.875l-2.28125 0zm3.84375 -6.25l-0.015625 0.5q0 1.9375 0.921875 2.953125q0.9375 1.015625 2.328125 1.015625q1.359375 0 2.5 -0.953125q1.140625 -0.953125 1.859375 -2.96875q0.734375 -2.015625 0.734375 -3.71875q0 -1.921875 -0.921875 -2.984375q-0.921875 -1.0625 -2.28125 -1.0625q-1.40625 0 -2.578125 1.09375q-1.171875 1.078125 -1.953125 3.328125q-0.59375 1.671875 -0.59375 2.796875zm16.154663 -11.8125l0.609375 -2.9375l2.5625 0l-0.609375 2.9375l-2.5625 0zm-8.203125 23.78125l0.453125 -2.203125q0.890625 0.234375 1.578125 0.234375q0.828125 0 1.328125 -0.546875q0.484375 -0.546875 1.015625 -3.0625l3.203125 -15.34375l2.578125 0l-3.28125 15.8125q-0.625 2.96875 -1.421875 4.046875q-1.078125 1.4375 -3.0 1.4375q-1.015625 0 -2.453125 -0.375zm22.203278 -10.890625l2.53125 0.265625q-0.546875 1.875 -2.515625 3.5625q-1.953125 1.6875 -4.65625 1.6875q-1.6875 0 -3.09375 -0.78125q-1.40625 -0.78125 -2.15625 -2.265625q-0.734375 -1.5 -0.734375 -3.390625q0 -2.5 1.15625 -4.84375q1.15625 -2.34375 2.984375 -3.46875q1.828125 -1.140625 3.96875 -1.140625q2.71875 0 4.34375 1.6875q1.625 1.6875 1.625 4.609375q0 1.109375 -0.203125 2.296875l-11.1875 0q-0.0625 0.4375 -0.0625 0.796875q0 2.125 0.96875 3.25q0.984375 1.125 2.40625 1.125q1.328125 0 2.609375 -0.859375q1.296875 -0.875 2.015625 -2.53125zm-7.53125 -3.765625l8.53125 0q0.015625 -0.40625 0.015625 -0.578125q0 -1.9375 -0.96875 -2.96875q-0.96875 -1.046875 -2.5 -1.046875q-1.671875 0 -3.046875 1.15625q-1.359375 1.140625 -2.03125 3.4375zm23.170288 3.390625l2.59375 0.28125q-0.96875 2.84375 -2.765625 4.234375q-1.796875 1.375 -4.09375 1.375q-2.484375 0 -4.03125 -1.59375q-1.53125 -1.609375 -1.53125 -4.5q0 -2.484375 0.984375 -4.890625q1.0 -2.40625 2.828125 -3.65625q1.84375 -1.25 4.21875 -1.25q2.4375 0 3.875 1.390625q1.4375 1.375 1.4375 3.640625l-2.546875 0.171875q-0.015625 -1.4375 -0.84375 -2.25q-0.828125 -0.828125 -2.171875 -0.828125q-1.5625 0 -2.703125 1.0q-1.140625 0.984375 -1.796875 3.0q-0.65625 2.0 -0.65625 3.859375q0 1.953125 0.859375 2.9375q0.859375 0.96875 2.125 0.96875q1.25 0 2.40625 -0.953125q1.15625 -0.96875 1.8125 -2.9375zm10.2265625 3.4375l-0.421875 2.125q-0.9375 0.234375 -1.8125 0.234375q-1.546875 0 -2.46875 -0.75q-0.6875 -0.578125 -0.6875 -1.5625q0 -0.5 0.375 -2.3125l1.84375 -8.828125l-2.046875 0l0.421875 -2.0l2.046875 0l0.78125 -3.75l2.96875 -1.78125l-1.15625 5.53125l2.546875 0l-0.421875 2.0l-2.546875 0l-1.75 8.40625q-0.328125 1.609375 -0.328125 1.921875q0 0.453125 0.25 0.703125q0.265625 0.234375 0.875 0.234375q0.859375 0 1.53125 -0.171875z" fill-rule="nonzero"/><path fill="#000000" fill-opacity="0.0" d="m80.81168 229.08606c-26.886215 19.203339 -21.392616 69.36023 -6.593178 98.90027" fill-rule="evenodd"/><path stroke="#999999" stroke-width="3.0" stroke-linejoin="round" stroke-linecap="butt" d="m80.811676 229.08606c-13.443108 9.601669 -18.791252 26.941711 -18.928703 45.573853c-0.068725586 9.316071 1.1652298 18.95517 3.3413315 28.111511c1.0880508 4.5781555 2.4116287 9.035645 3.9256897 13.271698c0.18925476 0.5295105 0.381485 1.055542 0.57660675 1.5779419c0.0975647 0.26119995 0.19584656 0.52145386 0.29483795 0.78082275l0.0655365 0.16983032" fill-rule="evenodd"/><path fill="#999999" stroke="#999999" stroke-width="3.0" stroke-linecap="butt" d="m70.086975 318.57172l-4.4451065 -1.7336121l6.8142395 7.132202l-0.63552094 -9.843689z" fill-rule="evenodd"/><path fill="#000000" fill-opacity="0.0" d="m225.85074 229.98425c19.77275 50.9068 59.338226 106.673645 103.533844 106.673645" fill-rule="evenodd"/><path stroke="#999999" stroke-width="3.0" stroke-linejoin="round" stroke-linecap="butt" d="m225.85074 229.98425c9.886383 25.453384 24.720932 52.121796 42.608368 72.42688c8.943695 10.152527 18.650604 18.714203 28.88382 24.737762c5.1166077 3.0118103 10.364807 5.3890686 15.714966 7.0133667c1.3375244 0.4060669 2.681427 0.7650757 4.03125 1.0751953c0.67489624 0.15505981 1.3512878 0.29788208 2.0290833 0.42825317l0.03250122 0.006072998" fill-rule="evenodd"/><path fill="#999999" stroke="#999999" stroke-width="3.0" stroke-linecap="butt" d="m319.15073 335.67178l-3.6817932 3.034607l9.550171 -2.4691162l-8.902985 -4.247284z" fill-rule="evenodd"/><path fill="#000000" fill-opacity="0.0" d="m338.8511 535.96796l231.18112 0l0 91.46454l-231.18112 0z" fill-rule="evenodd"/><path fill="#666666" d="m349.56985 573.1279q0.40625 -1.875 1.109375 -3.140625q0.703125 -1.265625 1.875 -2.40625q1.1875 -1.140625 4.53125 -3.8125q2.03125 -1.625 2.78125 -2.390625q1.078125 -1.125 1.5625 -2.203125q0.328125 -0.71875 0.328125 -1.578125q0 -1.453125 -1.03125 -2.453125q-1.015625 -1.015625 -2.5 -1.015625q-1.484375 0 -2.59375 1.03125q-1.09375 1.015625 -1.5625 3.28125l-2.53125 -0.375q0.359375 -2.796875 2.15625 -4.40625q1.796875 -1.609375 4.484375 -1.609375q1.78125 0 3.234375 0.75q1.453125 0.734375 2.1875 2.09375q0.734375 1.34375 0.734375 2.765625q0 2.09375 -1.484375 4.03125q-0.921875 1.203125 -5.390625 4.734375q-1.921875 1.515625 -2.859375 2.5q-0.9375 0.96875 -1.40625 1.828125l9.390625 0l-0.5 2.375l-12.515625 0zm15.560913 0l3.1875 -15.203125l2.34375 0l-0.5625 2.640625q1.53125 -1.5625 2.859375 -2.265625q1.34375 -0.71875 2.734375 -0.71875q1.84375 0 2.890625 1.0q1.0625 1.0 1.0625 2.671875q0 0.84375 -0.375 2.671875l-1.9375 9.203125l-2.59375 0l2.03125 -9.640625q0.296875 -1.40625 0.296875 -2.078125q0 -0.75 -0.53125 -1.21875q-0.515625 -0.484375 -1.5 -0.484375q-2.0 0 -3.5625 1.4375q-1.546875 1.4375 -2.265625 4.90625l-1.484375 7.078125l-2.59375 0zm26.576538 -2.203125q-2.234375 2.546875 -4.640625 2.546875q-2.171875 0 -3.609375 -1.59375q-1.4375 -1.59375 -1.4375 -4.640625q0 -2.765625 1.140625 -5.0625q1.140625 -2.3125 2.84375 -3.453125q1.71875 -1.140625 3.4375 -1.140625q2.828125 0 4.28125 2.734375l1.71875 -8.1875l2.578125 0l-4.390625 21.0l-2.390625 0l0.46875 -2.203125zm-7.109375 -4.171875q0 1.59375 0.3125 2.515625q0.3125 0.90625 1.0625 1.515625q0.765625 0.609375 1.828125 0.609375q1.765625 0 3.203125 -1.828125q1.90625 -2.4375 1.90625 -6.015625q0 -1.8125 -0.953125 -2.828125q-0.9375 -1.015625 -2.359375 -1.015625q-0.9375 0 -1.703125 0.421875q-0.765625 0.40625 -1.515625 1.40625q-0.75 1.0 -1.265625 2.53125q-0.515625 1.53125 -0.515625 2.6875zm32.474854 1.203125l2.53125 0.265625q-0.546875 1.875 -2.515625 3.5625q-1.953125 1.6875 -4.65625 1.6875q-1.6875 0 -3.09375 -0.78125q-1.40625 -0.78125 -2.15625 -2.265625q-0.734375 -1.5 -0.734375 -3.390625q0 -2.5 1.15625 -4.84375q1.15625 -2.34375 2.984375 -3.46875q1.828125 -1.140625 3.96875 -1.140625q2.71875 0 4.34375 1.6875q1.625 1.6875 1.625 4.609375q0 1.109375 -0.203125 2.296875l-11.1875 0q-0.0625 0.4375 -0.0625 0.796875q0 2.125 0.96875 3.25q0.984375 1.125 2.40625 1.125q1.328125 0 2.609375 -0.859375q1.296875 -0.875 2.015625 -2.53125zm-7.53125 -3.765625l8.53125 0q0.015625 -0.40625 0.015625 -0.578125q0 -1.9375 -0.96875 -2.96875q-0.96875 -1.046875 -2.5 -1.046875q-1.671875 0 -3.046875 1.15625q-1.359375 1.140625 -2.03125 3.4375zm12.467163 8.9375l4.390625 -21.0l2.59375 0l-4.390625 21.0l-2.59375 0zm17.890778 -5.171875l2.53125 0.265625q-0.546875 1.875 -2.515625 3.5625q-1.953125 1.6875 -4.65625 1.6875q-1.6875 0 -3.09375 -0.78125q-1.40625 -0.78125 -2.15625 -2.265625q-0.734375 -1.5 -0.734375 -3.390625q0 -2.5 1.15625 -4.84375q1.15625 -2.34375 2.984375 -3.46875q1.828125 -1.140625 3.96875 -1.140625q2.71875 0 4.34375 1.6875q1.625 1.6875 1.625 4.609375q0 1.109375 -0.203125 2.296875l-11.1875 0q-0.0625 0.4375 -0.0625 0.796875q0 2.125 0.96875 3.25q0.984375 1.125 2.40625 1.125q1.328125 0 2.609375 -0.859375q1.296875 -0.875 2.015625 -2.53125zm-7.53125 -3.765625l8.53125 0q0.015625 -0.40625 0.015625 -0.578125q0 -1.9375 -0.96875 -2.96875q-0.96875 -1.046875 -2.5 -1.046875q-1.671875 0 -3.046875 1.15625q-1.359375 1.140625 -2.03125 3.4375zm12.654663 8.9375l3.1875 -15.203125l2.59375 0l-0.53125 2.5q1.4375 -1.625 2.578125 -2.234375q1.140625 -0.609375 2.46875 -0.609375q1.421875 0 2.375 0.75q0.953125 0.75 1.25 2.09375q1.15625 -1.4375 2.4375 -2.140625q1.296875 -0.703125 2.703125 -0.703125q1.90625 0 2.859375 0.90625q0.953125 0.890625 0.953125 2.53125q0 0.703125 -0.328125 2.3125l-2.046875 9.796875l-2.59375 0l2.09375 -10.046875q0.265625 -1.234375 0.265625 -1.765625q0 -0.75 -0.46875 -1.171875q-0.46875 -0.4375 -1.328125 -0.4375q-1.15625 0 -2.359375 0.703125q-1.203125 0.703125 -1.875 1.84375q-0.671875 1.140625 -1.171875 3.5l-1.546875 7.375l-2.59375 0l2.15625 -10.265625q0.234375 -1.046875 0.234375 -1.484375q0 -0.75 -0.46875 -1.203125q-0.46875 -0.46875 -1.21875 -0.46875q-1.09375 0 -2.3125 0.703125q-1.203125 0.703125 -1.96875 1.953125q-0.75 1.25 -1.234375 3.578125l-1.515625 7.1875l-2.59375 0zm35.618042 -5.171875l2.53125 0.265625q-0.546875 1.875 -2.515625 3.5625q-1.953125 1.6875 -4.65625 1.6875q-1.6875 0 -3.09375 -0.78125q-1.40625 -0.78125 -2.15625 -2.265625q-0.734375 -1.5 -0.734375 -3.390625q0 -2.5 1.15625 -4.84375q1.15625 -2.34375 2.984375 -3.46875q1.828125 -1.140625 3.96875 -1.140625q2.71875 0 4.34375 1.6875q1.625 1.6875 1.625 4.609375q0 1.109375 -0.203125 2.296875l-11.1875 0q-0.0625 0.4375 -0.0625 0.796875q0 2.125 0.96875 3.25q0.984375 1.125 2.40625 1.125q1.328125 0 2.609375 -0.859375q1.296875 -0.875 2.015625 -2.53125zm-7.53125 -3.765625l8.53125 0q0.015625 -0.40625 0.015625 -0.578125q0 -1.9375 -0.96875 -2.96875q-0.96875 -1.046875 -2.5 -1.046875q-1.671875 0 -3.046875 1.15625q-1.359375 1.140625 -2.03125 3.4375zm12.670288 8.9375l3.1875 -15.203125l2.34375 0l-0.5625 2.640625q1.53125 -1.5625 2.859375 -2.265625q1.34375 -0.71875 2.734375 -0.71875q1.84375 0 2.890625 1.0q1.0625 1.0 1.0625 2.671875q0 0.84375 -0.375 2.671875l-1.9375 9.203125l-2.59375 0l2.03125 -9.640625q0.296875 -1.40625 0.296875 -2.078125q0 -0.75 -0.53125 -1.21875q-0.515625 -0.484375 -1.5 -0.484375q-2.0 0 -3.5625 1.4375q-1.546875 1.4375 -2.265625 4.90625l-1.484375 7.078125l-2.59375 0zm22.373413 -2.109375l-0.421875 2.125q-0.9375 0.234375 -1.8125 0.234375q-1.546875 0 -2.46875 -0.75q-0.6875 -0.578125 -0.6875 -1.5625q0 -0.5 0.375 -2.3125l1.84375 -8.828125l-2.046875 0l0.421875 -2.0l2.046875 0l0.78125 -3.75l2.96875 -1.78125l-1.15625 5.53125l2.546875 0l-0.421875 2.0l-2.546875 0l-1.75 8.40625q-0.328125 1.609375 -0.328125 1.921875q0 0.453125 0.25 0.703125q0.265625 0.234375 0.875 0.234375q0.859375 0 1.53125 -0.171875zm10.702881 -3.65625q0 -4.453125 2.609375 -7.375q2.171875 -2.40625 5.671875 -2.40625q2.75 0 4.4375 1.71875q1.6875 1.71875 1.6875 4.640625q0 2.609375 -1.0625 4.875q-1.0625 2.25 -3.015625 3.453125q-1.953125 1.203125 -4.125 1.203125q-1.765625 0 -3.21875 -0.75q-1.453125 -0.765625 -2.21875 -2.15625q-0.765625 -1.390625 -0.765625 -3.203125zm2.59375 -0.265625q0 2.15625 1.03125 3.265625q1.03125 1.109375 2.609375 1.109375q0.828125 0 1.640625 -0.328125q0.828125 -0.34375 1.53125 -1.03125q0.703125 -0.6875 1.1875 -1.5625q0.5 -0.890625 0.796875 -1.90625q0.453125 -1.421875 0.453125 -2.71875q0 -2.0625 -1.046875 -3.203125q-1.03125 -1.140625 -2.609375 -1.140625q-1.21875 0 -2.21875 0.578125q-1.0 0.578125 -1.8125 1.703125q-0.8125 1.109375 -1.1875 2.59375q-0.375 1.484375 -0.375 2.640625zm13.607788 6.03125l2.765625 -13.203125l-2.3125 0l0.40625 -2.0l2.328125 0l0.4375 -2.171875q0.34375 -1.609375 0.703125 -2.328125q0.375 -0.71875 1.1875 -1.1875q0.828125 -0.46875 2.25 -0.46875q0.984375 0 2.859375 0.421875l-0.46875 2.265625q-1.3125 -0.34375 -2.203125 -0.34375q-0.765625 0 -1.15625 0.375q-0.390625 0.375 -0.671875 1.796875l-0.34375 1.640625l2.890625 0l-0.421875 2.0l-2.890625 0l-2.765625 13.203125l-2.59375 0z" fill-rule="nonzero"/><path fill="#666666" d="m357.42923 604.5654l4.546875 -6.5q-1.203125 0 -1.515625 -0.25q-0.421875 -0.34375 -0.421875 -0.921875q0 -0.859375 0.828125 -1.453125q0.453125 -0.3125 1.484375 -0.3125l4.015625 0q0.96875 0 1.3125 0.3125q0.359375 0.296875 0.359375 0.859375q0 0.84375 -0.796875 1.4375q-0.453125 0.328125 -1.5 0.328125l-0.484375 0l-7.046875 10.0625l-3.0625 0l-2.78125 -10.0625l-0.421875 0q-0.96875 0 -1.328125 -0.3125q-0.34375 -0.3125 -0.34375 -0.859375q0 -0.859375 0.828125 -1.453125q0.4375 -0.3125 1.46875 -0.3125l3.9375 0q0.984375 0 1.328125 0.3125q0.359375 0.296875 0.359375 0.859375q0 0.46875 -0.34375 0.96875q-0.328125 0.484375 -0.828125 0.65625q-0.34375 0.140625 -1.40625 0.140625l1.8125 6.5zm25.256012 -1.453125l-12.03125 0q0.203125 1.140625 1.203125 1.84375q1.0 0.703125 3.0 0.703125q1.65625 0 4.515625 -0.703125q1.1875 -0.28125 1.625 -0.28125q0.484375 0 0.796875 0.3125q0.3125 0.3125 0.3125 0.8125q0 0.71875 -0.65625 1.296875q-0.65625 0.5625 -3.078125 1.03125q-2.40625 0.46875 -4.359375 0.46875q-3.0625 0 -4.734375 -1.53125q-1.671875 -1.546875 -1.671875 -3.9375q0 -1.984375 1.203125 -3.984375q1.21875 -2.015625 3.453125 -3.203125q2.25 -1.203125 4.609375 -1.203125q2.78125 0 4.5 1.53125q1.734375 1.53125 1.734375 4.28125q0 0.59375 -0.140625 1.3125l-0.28125 1.25zm-2.625 -2.9375q-0.390625 -1.203125 -1.359375 -1.84375q-0.953125 -0.65625 -2.453125 -0.65625q-1.5 0 -2.71875 0.625q-1.21875 0.625 -2.15625 1.875l8.6875 0zm19.021606 -4.515625q0.640625 -0.5 1.1875 -0.5q0.5 0 0.828125 0.328125q0.34375 0.3125 0.34375 0.75q0 0.28125 -0.125 0.859375l-0.40625 1.890625q-0.234375 1.0625 -0.734375 1.515625q-0.5 0.4375 -1.15625 0.4375q-0.625 0 -0.953125 -0.34375q-0.25 -0.265625 -0.25 -1.046875q0 -0.78125 -0.53125 -1.171875q-1.015625 -0.703125 -2.84375 -0.703125q-2.828125 0 -4.46875 2.109375q-1.140625 1.4375 -1.140625 3.0625q0 1.28125 1.0 2.0625q1.0 0.765625 3.515625 0.765625q1.796875 0 3.046875 -0.375q0.75 -0.21875 1.484375 -0.765625q0.734375 -0.5625 1.234375 -0.5625q0.515625 0 0.84375 0.34375q0.34375 0.34375 0.34375 0.859375q0 1.03125 -1.40625 1.9375q-2.359375 1.5 -6.453125 1.5q-3.390625 0 -5.0 -1.421875q-1.609375 -1.4375 -1.609375 -3.671875q0 -2.109375 1.21875 -4.25q1.234375 -2.140625 3.390625 -3.328125q2.15625 -1.203125 4.640625 -1.203125q1.203125 0 2.203125 0.234375q1.0 0.21875 1.796875 0.6875zm15.896637 -6.53125l-3.421875 16.0625l2.96875 0q0.984375 0 1.328125 0.3125q0.34375 0.296875 0.34375 0.84375q0 0.890625 -0.84375 1.484375q-0.4375 0.296875 -1.4375 0.296875l-8.890625 0q-0.96875 0 -1.328125 -0.296875q-0.34375 -0.3125 -0.34375 -0.859375q0 -0.890625 0.828125 -1.46875q0.46875 -0.3125 1.484375 -0.3125l2.953125 0l2.609375 -12.234375l-2.765625 0.671875q-0.65625 0.171875 -0.984375 0.171875q-0.484375 0 -0.78125 -0.3125q-0.296875 -0.328125 -0.296875 -0.875q0 -0.671875 0.390625 -1.109375q0.40625 -0.453125 1.53125 -0.75l6.65625 -1.625z" fill-rule="nonzero"/><path fill="#666666" d="m427.8359 602.3623q0 -4.453125 2.609375 -7.375q2.171875 -2.40625 5.671875 -2.40625q2.75 0 4.4375 1.71875q1.6875 1.71875 1.6875 4.640625q0 2.609375 -1.0625 4.875q-1.0625 2.25 -3.015625 3.453125q-1.953125 1.203125 -4.125 1.203125q-1.765625 0 -3.21875 -0.75q-1.453125 -0.765625 -2.21875 -2.15625q-0.765625 -1.390625 -0.765625 -3.203125zm2.59375 -0.265625q0 2.15625 1.03125 3.265625q1.03125 1.109375 2.609375 1.109375q0.828125 0 1.640625 -0.328125q0.828125 -0.34375 1.53125 -1.03125q0.703125 -0.6875 1.1875 -1.5625q0.5 -0.890625 0.796875 -1.90625q0.453125 -1.421875 0.453125 -2.71875q0 -2.0625 -1.046875 -3.203125q-1.03125 -1.140625 -2.609375 -1.140625q-1.21875 0 -2.21875 0.578125q-1.0 0.578125 -1.8125 1.703125q-0.8125 1.109375 -1.1875 2.59375q-0.375 1.484375 -0.375 2.640625zm13.248413 6.03125l4.390625 -21.0l2.59375 0l-1.5625 7.515625q1.234375 -1.140625 2.234375 -1.59375q1.0 -0.46875 2.09375 -0.46875q2.125 0 3.546875 1.59375q1.421875 1.578125 1.421875 4.609375q0 2.03125 -0.578125 3.703125q-0.5625 1.671875 -1.40625 2.8125q-0.84375 1.140625 -1.75 1.828125q-0.890625 0.671875 -1.84375 1.0q-0.9375 0.34375 -1.8125 0.34375q-1.515625 0 -2.65625 -0.796875q-1.140625 -0.796875 -1.78125 -2.421875l-0.609375 2.875l-2.28125 0zm3.84375 -6.25l-0.015625 0.5q0 1.9375 0.921875 2.953125q0.9375 1.015625 2.328125 1.015625q1.359375 0 2.5 -0.953125q1.140625 -0.953125 1.859375 -2.96875q0.734375 -2.015625 0.734375 -3.71875q0 -1.921875 -0.921875 -2.984375q-0.921875 -1.0625 -2.28125 -1.0625q-1.40625 0 -2.578125 1.09375q-1.171875 1.078125 -1.953125 3.328125q-0.59375 1.671875 -0.59375 2.796875zm16.154663 -11.8125l0.609375 -2.9375l2.5625 0l-0.609375 2.9375l-2.5625 0zm-8.203125 23.78125l0.453125 -2.203125q0.890625 0.234375 1.578125 0.234375q0.828125 0 1.328125 -0.546875q0.484375 -0.546875 1.015625 -3.0625l3.203125 -15.34375l2.578125 0l-3.28125 15.8125q-0.625 2.96875 -1.421875 4.046875q-1.078125 1.4375 -3.0 1.4375q-1.015625 0 -2.453125 -0.375zm22.203278 -10.890625l2.53125 0.265625q-0.546875 1.875 -2.515625 3.5625q-1.953125 1.6875 -4.65625 1.6875q-1.6875 0 -3.09375 -0.78125q-1.40625 -0.78125 -2.15625 -2.265625q-0.734375 -1.5 -0.734375 -3.390625q0 -2.5 1.15625 -4.84375q1.15625 -2.34375 2.984375 -3.46875q1.828125 -1.140625 3.96875 -1.140625q2.71875 0 4.34375 1.6875q1.625 1.6875 1.625 4.609375q0 1.109375 -0.203125 2.296875l-11.1875 0q-0.0625 0.4375 -0.0625 0.796875q0 2.125 0.96875 3.25q0.984375 1.125 2.40625 1.125q1.328125 0 2.609375 -0.859375q1.296875 -0.875 2.015625 -2.53125zm-7.53125 -3.765625l8.53125 0q0.015625 -0.40625 0.015625 -0.578125q0 -1.9375 -0.96875 -2.96875q-0.96875 -1.046875 -2.5 -1.046875q-1.671875 0 -3.046875 1.15625q-1.359375 1.140625 -2.03125 3.4375zm23.170288 3.390625l2.59375 0.28125q-0.96875 2.84375 -2.765625 4.234375q-1.796875 1.375 -4.09375 1.375q-2.484375 0 -4.03125 -1.59375q-1.53125 -1.609375 -1.53125 -4.5q0 -2.484375 0.984375 -4.890625q1.0 -2.40625 2.828125 -3.65625q1.84375 -1.25 4.21875 -1.25q2.4375 0 3.875 1.390625q1.4375 1.375 1.4375 3.640625l-2.546875 0.171875q-0.015625 -1.4375 -0.84375 -2.25q-0.828125 -0.828125 -2.171875 -0.828125q-1.5625 0 -2.703125 1.0q-1.140625 0.984375 -1.796875 3.0q-0.65625 2.0 -0.65625 3.859375q0 1.953125 0.859375 2.9375q0.859375 0.96875 2.125 0.96875q1.25 0 2.40625 -0.953125q1.15625 -0.96875 1.8125 -2.9375zm10.2265625 3.4375l-0.421875 2.125q-0.9375 0.234375 -1.8125 0.234375q-1.546875 0 -2.46875 -0.75q-0.6875 -0.578125 -0.6875 -1.5625q0 -0.5 0.375 -2.3125l1.84375 -8.828125l-2.046875 0l0.421875 -2.0l2.046875 0l0.78125 -3.75l2.96875 -1.78125l-1.15625 5.53125l2.546875 0l-0.421875 2.0l-2.546875 0l-1.75 8.40625q-0.328125 1.609375 -0.328125 1.921875q0 0.453125 0.25 0.703125q0.265625 0.234375 0.875 0.234375q0.859375 0 1.53125 -0.171875z" fill-rule="nonzero"/><path fill="#000000" fill-opacity="0.0" d="m44.926846 89.39919l0 0c0 -4.3155212 3.4984207 -7.8139343 7.8139343 -7.8139343l180.81308 0c2.0723724 0 4.0598907 0.8232498 5.525284 2.2886505c1.4653931 1.4653931 2.2886505 3.452896 2.2886505 5.525284l0 106.29339c0 4.3155212 -3.4984283 7.8139343 -7.8139343 7.8139343l-180.81308 0l0 0c-4.3155136 0 -7.8139343 -3.498413 -7.8139343 -7.8139343z" fill-rule="evenodd"/><path stroke="#434343" stroke-width="2.0" stroke-linejoin="round" stroke-linecap="butt" stroke-dasharray="8.0,6.0" d="m44.926846 89.39919l0 0c0 -4.3155212 3.4984207 -7.8139343 7.8139343 -7.8139343l180.81308 0c2.0723724 0 4.0598907 0.8232498 5.525284 2.2886505c1.4653931 1.4653931 2.2886505 3.452896 2.2886505 5.525284l0 106.29339c0 4.3155212 -3.4984283 7.8139343 -7.8139343 7.8139343l-180.81308 0l0 0c-4.3155136 0 -7.8139343 -3.498413 -7.8139343 -7.8139343z" fill-rule="evenodd"/><path fill="#000000" fill-opacity="0.0" d="m276.03836 89.39919l0 0c0 -4.3155212 3.498413 -7.8139343 7.8139343 -7.8139343l180.81308 0c2.0723877 0 4.059906 0.8232498 5.525299 2.2886505c1.4653931 1.4653931 2.2886353 3.452896 2.2886353 5.525284l0 106.29339c0 4.3155212 -3.498413 7.8139343 -7.8139343 7.8139343l-180.81308 0l0 0c-4.3155212 0 -7.8139343 -3.498413 -7.8139343 -7.8139343z" fill-rule="evenodd"/><path stroke="#434343" stroke-width="2.0" stroke-linejoin="round" stroke-linecap="butt" stroke-dasharray="8.0,6.0" d="m276.03836 89.39919l0 0c0 -4.3155212 3.498413 -7.8139343 7.8139343 -7.8139343l180.81308 0c2.0723877 0 4.059906 0.8232498 5.525299 2.2886505c1.4653931 1.4653931 2.2886353 3.452896 2.2886353 5.525284l0 106.29339c0 4.3155212 -3.498413 7.8139343 -7.8139343 7.8139343l-180.81308 0l0 0c-4.3155212 0 -7.8139343 -3.498413 -7.8139343 -7.8139343z" fill-rule="evenodd"/><path fill="#000000" fill-opacity="0.0" d="m507.14987 89.39919l0 0c0 -4.3155212 3.4984436 -7.8139343 7.8139343 -7.8139343l180.81311 0c2.0723877 0 4.0598755 0.8232498 5.5252686 2.2886505c1.4653931 1.4653931 2.2886353 3.452896 2.2886353 5.525284l0 106.29339c0 4.3155212 -3.498413 7.8139343 -7.813904 7.8139343l-180.81311 0l0 0c-4.3154907 0 -7.8139343 -3.498413 -7.8139343 -7.8139343z" fill-rule="evenodd"/><path stroke="#434343" stroke-width="2.0" stroke-linejoin="round" stroke-linecap="butt" stroke-dasharray="8.0,6.0" d="m507.14987 89.39919l0 0c0 -4.3155212 3.4984436 -7.8139343 7.8139343 -7.8139343l180.81311 0c2.0723877 0 4.0598755 0.8232498 5.5252686 2.2886505c1.4653931 1.4653931 2.2886353 3.452896 2.2886353 5.525284l0 106.29339c0 4.3155212 -3.498413 7.8139343 -7.813904 7.8139343l-180.81311 0l0 0c-4.3154907 0 -7.8139343 -3.498413 -7.8139343 -7.8139343z" fill-rule="evenodd"/><path fill="#000000" fill-opacity="0.0" d="m69.814964 81.58432l142.20471 0l0 53.70079l-142.20471 0z" fill-rule="evenodd"/><path fill="#434343" d="m91.89934 101.02557l3.78125 0l-0.9375 7.015625q-0.0625 0.546875 -0.296875 0.765625q-0.234375 0.21875 -0.609375 0.21875q-0.390625 0 -0.625 -0.21875q-0.21875 -0.21875 -0.296875 -0.75l-1.015625 -7.03125zm6.109375 0l3.78125 0l-0.921875 7.015625q-0.078125 0.546875 -0.3125 0.765625q-0.21875 0.21875 -0.609375 0.21875q-0.390625 0 -0.625 -0.21875q-0.21875 -0.21875 -0.296875 -0.75l-1.015625 -7.03125zm16.537247 14.15625l3.15625 -6.5q-1.171875 0 -1.5 -0.203125q-0.71875 -0.453125 -0.71875 -1.28125q0 -0.640625 0.453125 -1.046875q0.453125 -0.40625 1.515625 -0.40625l4.015625 0q1.0625 0 1.515625 0.40625q0.453125 0.40625 0.453125 1.0625q0 0.640625 -0.453125 1.0625q-0.453125 0.40625 -1.515625 0.40625l-0.484375 0l-4.90625 10.0625l-3.0625 0l-4.921875 -10.0625l-0.40625 0q-1.0625 0 -1.515625 -0.40625q-0.453125 -0.421875 -0.453125 -1.078125q0 -0.640625 0.453125 -1.046875q0.453125 -0.40625 1.515625 -0.40625l3.9375 0q1.046875 0 1.484375 0.40625q0.453125 0.40625 0.453125 1.0625q0 0.8125 -0.6875 1.25q-0.34375 0.21875 -1.53125 0.21875l3.203125 6.5zm24.943497 -1.453125l-12.046875 0q0.453125 1.15625 1.625 1.859375q1.171875 0.6875 3.15625 0.6875q1.640625 0 4.34375 -0.703125q1.109375 -0.28125 1.546875 -0.28125q0.578125 0 0.984375 0.421875q0.40625 0.40625 0.40625 1.046875q0 0.5625 -0.4375 0.96875q-0.578125 0.53125 -2.796875 1.015625q-2.21875 0.46875 -4.265625 0.46875q-3.515625 0 -5.640625 -1.984375q-2.109375 -2.0 -2.109375 -4.90625q0 -3.09375 2.28125 -5.03125q2.296875 -1.9375 5.265625 -1.9375q1.796875 0 3.296875 0.640625q1.5 0.625 2.21875 1.34375q1.03125 1.0625 1.703125 2.625q0.46875 1.09375 0.46875 2.515625l0 1.25zm-3.25 -2.9375q-0.671875 -1.25 -1.765625 -1.875q-1.09375 -0.625 -2.59375 -0.625q-1.484375 0 -2.578125 0.625q-1.09375 0.625 -1.78125 1.875l8.71875 0zm18.052872 -4.515625q0.53125 -0.5 1.09375 -0.5q0.625 0 1.03125 0.453125q0.40625 0.4375 0.40625 1.484375l0 1.890625q0 1.0625 -0.40625 1.515625q-0.40625 0.4375 -1.0625 0.4375q-0.609375 0 -1.015625 -0.34375q-0.296875 -0.265625 -0.46875 -1.046875q-0.171875 -0.796875 -0.84375 -1.1875q-1.15625 -0.6875 -2.953125 -0.6875q-2.078125 0 -3.34375 1.21875q-1.25 1.21875 -1.25 3.078125q0 1.71875 1.203125 2.71875q1.203125 0.984375 4.0 0.984375q1.828125 0 3.0 -0.375q0.6875 -0.21875 1.296875 -0.765625q0.609375 -0.5625 1.109375 -0.5625q0.609375 0 1.046875 0.453125q0.4375 0.4375 0.4375 1.046875q0 0.96875 -1.328125 1.84375q-1.984375 1.296875 -5.796875 1.296875q-3.421875 0 -5.328125 -1.421875q-2.578125 -1.890625 -2.578125 -5.203125q0 -3.140625 2.09375 -5.1875q2.09375 -2.0625 5.453125 -2.0625q1.21875 0 2.265625 0.234375q1.046875 0.21875 1.9375 0.6875zm14.521622 -6.53125l0 16.0625l2.96875 0q1.0625 0 1.5 0.40625q0.453125 0.40625 0.453125 1.078125q0 0.640625 -0.453125 1.046875q-0.4375 0.40625 -1.5 0.40625l-8.875 0q-1.046875 0 -1.5 -0.40625q-0.453125 -0.40625 -0.453125 -1.0625q0 -0.65625 0.453125 -1.0625q0.453125 -0.40625 1.5 -0.40625l2.96875 0l0 -12.234375l-2.625 0.671875q-0.625 0.171875 -0.9375 0.171875q-0.5625 0 -0.96875 -0.4375q-0.40625 -0.4375 -0.40625 -1.09375q0 -0.578125 0.296875 -0.90625q0.296875 -0.34375 1.265625 -0.609375l6.3125 -1.625zm11.084122 1.28125l3.78125 0l-0.9375 7.015625q-0.0625 0.546875 -0.296875 0.765625q-0.234375 0.21875 -0.609375 0.21875q-0.390625 0 -0.625 -0.21875q-0.21875 -0.21875 -0.296875 -0.75l-1.015625 -7.03125zm6.109375 0l3.78125 0l-0.921875 7.015625q-0.078125 0.546875 -0.3125 0.765625q-0.21875 0.21875 -0.609375 0.21875q-0.390625 0 -0.625 -0.21875q-0.21875 -0.21875 -0.296875 -0.75l-1.015625 -7.03125z" fill-rule="nonzero"/><path fill="#000000" fill-opacity="0.0" d="m305.34155 81.58432l142.20471 0l0 53.70079l-142.20471 0z" fill-rule="evenodd"/><path fill="#434343" d="m327.42593 101.02557l3.78125 0l-0.9375 7.015625q-0.0625 0.546875 -0.296875 0.765625q-0.234375 0.21875 -0.609375 0.21875q-0.390625 0 -0.625 -0.21875q-0.21875 -0.21875 -0.296875 -0.75l-1.015625 -7.03125zm6.109375 0l3.78125 0l-0.921875 7.015625q-0.078125 0.546875 -0.3125 0.765625q-0.21875 0.21875 -0.609375 0.21875q-0.390625 0 -0.625 -0.21875q-0.21875 -0.21875 -0.296875 -0.75l-1.015625 -7.03125zm16.537231 14.15625l3.15625 -6.5q-1.171875 0 -1.5 -0.203125q-0.71875 -0.453125 -0.71875 -1.28125q0 -0.640625 0.453125 -1.046875q0.453125 -0.40625 1.515625 -0.40625l4.015625 0q1.0625 0 1.515625 0.40625q0.453125 0.40625 0.453125 1.0625q0 0.640625 -0.453125 1.0625q-0.453125 0.40625 -1.515625 0.40625l-0.484375 0l-4.90625 10.0625l-3.0625 0l-4.921875 -10.0625l-0.40625 0q-1.0625 0 -1.515625 -0.40625q-0.453125 -0.421875 -0.453125 -1.078125q0 -0.640625 0.453125 -1.046875q0.453125 -0.40625 1.515625 -0.40625l3.9375 0q1.046875 0 1.484375 0.40625q0.453125 0.40625 0.453125 1.0625q0 0.8125 -0.6875 1.25q-0.34375 0.21875 -1.53125 0.21875l3.203125 6.5zm24.943512 -1.453125l-12.046875 0q0.453125 1.15625 1.625 1.859375q1.171875 0.6875 3.15625 0.6875q1.640625 0 4.34375 -0.703125q1.109375 -0.28125 1.546875 -0.28125q0.578125 0 0.984375 0.421875q0.40625 0.40625 0.40625 1.046875q0 0.5625 -0.4375 0.96875q-0.578125 0.53125 -2.796875 1.015625q-2.21875 0.46875 -4.265625 0.46875q-3.515625 0 -5.640625 -1.984375q-2.109375 -2.0 -2.109375 -4.90625q0 -3.09375 2.28125 -5.03125q2.296875 -1.9375 5.265625 -1.9375q1.796875 0 3.296875 0.640625q1.5 0.625 2.21875 1.34375q1.03125 1.0625 1.703125 2.625q0.46875 1.09375 0.46875 2.515625l0 1.25zm-3.25 -2.9375q-0.671875 -1.25 -1.765625 -1.875q-1.09375 -0.625 -2.59375 -0.625q-1.484375 0 -2.578125 0.625q-1.09375 0.625 -1.78125 1.875l8.71875 0zm18.052856 -4.515625q0.53125 -0.5 1.09375 -0.5q0.625 0 1.03125 0.453125q0.40625 0.4375 0.40625 1.484375l0 1.890625q0 1.0625 -0.40625 1.515625q-0.40625 0.4375 -1.0625 0.4375q-0.609375 0 -1.015625 -0.34375q-0.296875 -0.265625 -0.46875 -1.046875q-0.171875 -0.796875 -0.84375 -1.1875q-1.15625 -0.6875 -2.953125 -0.6875q-2.078125 0 -3.34375 1.21875q-1.25 1.21875 -1.25 3.078125q0 1.71875 1.203125 2.71875q1.203125 0.984375 4.0 0.984375q1.828125 0 3.0 -0.375q0.6875 -0.21875 1.296875 -0.765625q0.609375 -0.5625 1.109375 -0.5625q0.609375 0 1.046875 0.453125q0.4375 0.4375 0.4375 1.046875q0 0.96875 -1.328125 1.84375q-1.984375 1.296875 -5.796875 1.296875q-3.421875 0 -5.328125 -1.421875q-2.578125 -1.890625 -2.578125 -5.203125q0 -3.140625 2.09375 -5.1875q2.09375 -2.0625 5.453125 -2.0625q1.21875 0 2.265625 0.234375q1.046875 0.21875 1.9375 0.6875zm10.287262 9.53125l6.421875 0q0.53125 -0.421875 1.0 -0.421875q0.671875 0 1.0625 0.4375q0.40625 0.4375 0.40625 1.515625l0 1.40625l-13.375 0l0 -3.109375q7.9375 -6.546875 9.578125 -8.421875q0.828125 -0.953125 0.828125 -1.8125q0 -1.078125 -0.9375 -1.890625q-0.9375 -0.828125 -2.5 -0.828125q-1.578125 0 -2.625 0.90625q-0.53125 0.484375 -0.859375 1.453125q-0.203125 0.59375 -0.5625 0.859375q-0.34375 0.25 -0.859375 0.25q-0.609375 0 -1.046875 -0.421875q-0.4375 -0.4375 -0.4375 -1.0q0 -0.859375 0.796875 -2.140625q0.796875 -1.296875 2.3125 -2.0625q1.53125 -0.78125 3.328125 -0.78125q2.78125 0 4.546875 1.6875q1.78125 1.671875 1.78125 4.0625q0 1.21875 -0.515625 2.265625q-0.5 1.03125 -2.4375 2.859375q-1.515625 1.453125 -5.90625 5.1875zm15.318481 -14.78125l3.78125 0l-0.9375 7.015625q-0.0625 0.546875 -0.296875 0.765625q-0.234375 0.21875 -0.609375 0.21875q-0.390625 0 -0.625 -0.21875q-0.21875 -0.21875 -0.296875 -0.75l-1.015625 -7.03125zm6.109375 0l3.78125 0l-0.921875 7.015625q-0.078125 0.546875 -0.3125 0.765625q-0.21875 0.21875 -0.609375 0.21875q-0.390625 0 -0.625 -0.21875q-0.21875 -0.21875 -0.296875 -0.75l-1.015625 -7.03125z" fill-rule="nonzero"/><path fill="#000000" fill-opacity="0.0" d="m536.4229 81.58432l142.20471 0l0 53.70079l-142.20471 0z" fill-rule="evenodd"/><path fill="#434343" d="m558.5073 101.02557l3.78125 0l-0.9375 7.015625q-0.0625 0.546875 -0.296875 0.765625q-0.234375 0.21875 -0.609375 0.21875q-0.390625 0 -0.625 -0.21875q-0.21875 -0.21875 -0.296875 -0.75l-1.015625 -7.03125zm6.109375 0l3.78125 0l-0.921875 7.015625q-0.078125 0.546875 -0.3125 0.765625q-0.21875 0.21875 -0.609375 0.21875q-0.390625 0 -0.625 -0.21875q-0.21875 -0.21875 -0.296875 -0.75l-1.015625 -7.03125zm16.537231 14.15625l3.15625 -6.5q-1.171875 0 -1.5 -0.203125q-0.71875 -0.453125 -0.71875 -1.28125q0 -0.640625 0.453125 -1.046875q0.453125 -0.40625 1.515625 -0.40625l4.015625 0q1.0625 0 1.515625 0.40625q0.453125 0.40625 0.453125 1.0625q0 0.640625 -0.453125 1.0625q-0.453125 0.40625 -1.515625 0.40625l-0.484375 0l-4.90625 10.0625l-3.0625 0l-4.921875 -10.0625l-0.40625 0q-1.0625 0 -1.515625 -0.40625q-0.453125 -0.421875 -0.453125 -1.078125q0 -0.640625 0.453125 -1.046875q0.453125 -0.40625 1.515625 -0.40625l3.9375 0q1.046875 0 1.484375 0.40625q0.453125 0.40625 0.453125 1.0625q0 0.8125 -0.6875 1.25q-0.34375 0.21875 -1.53125 0.21875l3.203125 6.5zm24.943481 -1.453125l-12.046875 0q0.453125 1.15625 1.625 1.859375q1.171875 0.6875 3.15625 0.6875q1.640625 0 4.34375 -0.703125q1.109375 -0.28125 1.546875 -0.28125q0.578125 0 0.984375 0.421875q0.40625 0.40625 0.40625 1.046875q0 0.5625 -0.4375 0.96875q-0.578125 0.53125 -2.796875 1.015625q-2.21875 0.46875 -4.265625 0.46875q-3.515625 0 -5.640625 -1.984375q-2.109375 -2.0 -2.109375 -4.90625q0 -3.09375 2.28125 -5.03125q2.296875 -1.9375 5.265625 -1.9375q1.796875 0 3.296875 0.640625q1.5 0.625 2.21875 1.34375q1.03125 1.0625 1.703125 2.625q0.46875 1.09375 0.46875 2.515625l0 1.25zm-3.25 -2.9375q-0.671875 -1.25 -1.765625 -1.875q-1.09375 -0.625 -2.59375 -0.625q-1.484375 0 -2.578125 0.625q-1.09375 0.625 -1.78125 1.875l8.71875 0zm18.052856 -4.515625q0.53125 -0.5 1.09375 -0.5q0.625 0 1.03125 0.453125q0.40625 0.4375 0.40625 1.484375l0 1.890625q0 1.0625 -0.40625 1.515625q-0.40625 0.4375 -1.0625 0.4375q-0.609375 0 -1.015625 -0.34375q-0.296875 -0.265625 -0.46875 -1.046875q-0.171875 -0.796875 -0.84375 -1.1875q-1.15625 -0.6875 -2.953125 -0.6875q-2.078125 0 -3.34375 1.21875q-1.25 1.21875 -1.25 3.078125q0 1.71875 1.203125 2.71875q1.203125 0.984375 4.0 0.984375q1.828125 0 3.0 -0.375q0.6875 -0.21875 1.296875 -0.765625q0.609375 -0.5625 1.109375 -0.5625q0.609375 0 1.046875 0.453125q0.4375 0.4375 0.4375 1.046875q0 0.96875 -1.328125 1.84375q-1.984375 1.296875 -5.796875 1.296875q-3.421875 0 -5.328125 -1.421875q-2.578125 -1.890625 -2.578125 -5.203125q0 -3.140625 2.09375 -5.1875q2.09375 -2.0625 5.453125 -2.0625q1.21875 0 2.265625 0.234375q1.046875 0.21875 1.9375 0.6875zm17.209167 2.65625q1.3125 0.890625 1.953125 2.0625q0.640625 1.15625 0.640625 2.609375q0 1.5625 -0.859375 2.890625q-0.84375 1.3125 -2.46875 2.0q-1.609375 0.671875 -4.234375 0.671875q-3.40625 0 -5.125 -1.046875q-0.953125 -0.609375 -0.953125 -1.4375q0 -0.625 0.421875 -1.0625q0.421875 -0.4375 1.015625 -0.4375q0.421875 0 0.859375 0.28125q0.640625 0.4375 1.1875 0.578125q0.859375 0.203125 2.375 0.203125q2.5625 0 3.703125 -0.671875q1.140625 -0.671875 1.140625 -1.890625q0 -0.890625 -0.671875 -1.71875q-0.65625 -0.84375 -1.765625 -1.3125q-0.65625 -0.25 -2.1875 -0.359375q-0.71875 -0.03125 -1.125 -0.4375q-0.390625 -0.421875 -0.390625 -1.015625q0 -0.640625 0.421875 -1.0625q0.4375 -0.4375 1.09375 -0.4375q1.46875 0 1.5625 0q0.578125 -0.0625 1.140625 -0.375q0.578125 -0.3125 0.921875 -0.859375q0.359375 -0.5625 0.359375 -1.15625q0 -0.921875 -0.828125 -1.59375q-0.8125 -0.6875 -2.46875 -0.6875q-2.109375 0 -3.234375 1.234375q-0.328125 0.34375 -0.53125 0.453125q-0.296875 0.15625 -0.671875 0.15625q-0.59375 0 -1.03125 -0.421875q-0.421875 -0.4375 -0.421875 -1.0625q0 -1.0 1.3125 -1.921875q1.921875 -1.359375 4.796875 -1.359375q2.71875 0 4.359375 1.546875q1.65625 1.546875 1.65625 3.71875q0 1.125 -0.484375 2.109375q-0.484375 0.984375 -1.46875 1.8125zm8.396606 -7.90625l3.78125 0l-0.9375 7.015625q-0.0625 0.546875 -0.296875 0.765625q-0.234375 0.21875 -0.609375 0.21875q-0.390625 0 -0.625 -0.21875q-0.21875 -0.21875 -0.296875 -0.75l-1.015625 -7.03125zm6.109375 0l3.78125 0l-0.921875 7.015625q-0.078125 0.546875 -0.3125 0.765625q-0.21875 0.21875 -0.609375 0.21875q-0.390625 0 -0.625 -0.21875q-0.21875 -0.21875 -0.296875 -0.75l-1.015625 -7.03125z" fill-rule="nonzero"/><path stroke="#434343" stroke-width="1.0" stroke-linecap="butt" d="m57.442726 133.96391l0 54.698166" fill-rule="nonzero"/><path stroke="#434343" stroke-width="1.0" stroke-linecap="butt" d="m113.88104 133.96391l0 54.698166" fill-rule="nonzero"/><path stroke="#434343" stroke-width="1.0" stroke-linecap="butt" d="m170.31937 133.96391l0 54.698166" fill-rule="nonzero"/><path stroke="#434343" stroke-width="1.0" stroke-linecap="butt" d="m226.75769 133.96391l0 54.698166" fill-rule="nonzero"/><path stroke="#434343" stroke-width="1.0" stroke-linecap="butt" d="m56.94404 134.4626l170.31235 0" fill-rule="nonzero"/><path stroke="#434343" stroke-width="1.0" stroke-linecap="butt" d="m56.94404 188.16339l170.31235 0" fill-rule="nonzero"/><path fill="#000000" d="m88.18692 170.913l-2.34375 0l0 -14.921875q-0.859375 0.796875 -2.234375 1.609375q-1.359375 0.796875 -2.453125 1.203125l0 -2.265625q1.96875 -0.921875 3.4375 -2.234375q1.46875 -1.3125 2.078125 -2.546875l1.515625 0l0 19.15625z" fill-rule="nonzero"/><path fill="#000000" d="m148.10962 168.663l0 2.25l-12.609375 0q-0.03125 -0.84375 0.265625 -1.625q0.484375 -1.296875 1.546875 -2.546875q1.0625 -1.25 3.0625 -2.875q3.109375 -2.5625 4.203125 -4.046875q1.09375 -1.5 1.09375 -2.8125q0 -1.40625 -1.0 -2.359375q-0.984375 -0.953125 -2.59375 -0.953125q-1.6875 0 -2.703125 1.015625q-1.015625 1.015625 -1.03125 2.8125l-2.40625 -0.25q0.25 -2.6875 1.859375 -4.09375q1.609375 -1.421875 4.328125 -1.421875q2.75 0 4.34375 1.53125q1.609375 1.515625 1.609375 3.765625q0 1.140625 -0.46875 2.25q-0.46875 1.109375 -1.5625 2.328125q-1.078125 1.21875 -3.609375 3.359375q-2.09375 1.765625 -2.703125 2.40625q-0.59375 0.625 -0.984375 1.265625l9.359375 0z" fill-rule="nonzero"/><path fill="#000000" d="m192.25105 165.88174l2.34375 -0.3125q0.390625 1.984375 1.359375 2.875q0.984375 0.875 2.375 0.875q1.640625 0 2.78125 -1.140625q1.140625 -1.15625 1.140625 -2.84375q0 -1.625 -1.0625 -2.671875q-1.046875 -1.046875 -2.671875 -1.046875q-0.65625 0 -1.65625 0.265625l0.265625 -2.0625q0.234375 0.03125 0.375 0.03125q1.5 0 2.6875 -0.78125q1.203125 -0.78125 1.203125 -2.40625q0 -1.296875 -0.875 -2.140625q-0.859375 -0.84375 -2.25 -0.84375q-1.359375 0 -2.28125 0.859375q-0.90625 0.859375 -1.15625 2.578125l-2.34375 -0.421875q0.421875 -2.34375 1.9375 -3.640625q1.53125 -1.296875 3.796875 -1.296875q1.5625 0 2.875 0.671875q1.3125 0.671875 2.0 1.828125q0.703125 1.15625 0.703125 2.453125q0 1.234375 -0.671875 2.25q-0.65625 1.015625 -1.953125 1.625q1.6875 0.390625 2.625 1.625q0.9375 1.21875 0.9375 3.0625q0 2.5 -1.828125 4.25q-1.8125 1.734375 -4.59375 1.734375q-2.515625 0 -4.171875 -1.5q-1.65625 -1.5 -1.890625 -3.875z" fill-rule="nonzero"/><path stroke="#434343" stroke-width="1.0" stroke-linecap="butt" d="m289.6004 133.96391l0 54.698166" fill-rule="nonzero"/><path stroke="#434343" stroke-width="1.0" stroke-linecap="butt" d="m346.03873 133.96391l0 54.698166" fill-rule="nonzero"/><path stroke="#434343" stroke-width="1.0" stroke-linecap="butt" d="m402.47705 133.96391l0 54.698166" fill-rule="nonzero"/><path stroke="#434343" stroke-width="1.0" stroke-linecap="butt" d="m458.91537 133.96391l0 54.698166" fill-rule="nonzero"/><path stroke="#434343" stroke-width="1.0" stroke-linecap="butt" d="m289.1017 134.4626l170.31235 0" fill-rule="nonzero"/><path stroke="#434343" stroke-width="1.0" stroke-linecap="butt" d="m289.1017 188.16339l170.31235 0" fill-rule="nonzero"/><path fill="#000000" d="m319.01648 170.913l0 -4.5625l-8.265625 0l0 -2.15625l8.703125 -12.359375l1.90625 0l0 12.359375l2.578125 0l0 2.15625l-2.578125 0l0 4.5625l-2.34375 0zm0 -6.71875l0 -8.59375l-5.96875 8.59375l5.96875 0z" fill-rule="nonzero"/><path fill="#000000" d="m367.9548 165.913l2.453125 -0.203125q0.28125 1.796875 1.265625 2.703125q1.0 0.90625 2.40625 0.90625q1.6875 0 2.859375 -1.28125q1.171875 -1.28125 1.171875 -3.390625q0 -2.0 -1.125 -3.15625q-1.125 -1.15625 -2.9375 -1.15625q-1.140625 0 -2.046875 0.515625q-0.90625 0.515625 -1.4375 1.328125l-2.203125 -0.28125l1.859375 -9.8125l9.484375 0l0 2.25l-7.609375 0l-1.03125 5.125q1.71875 -1.203125 3.609375 -1.203125q2.5 0 4.203125 1.734375q1.71875 1.734375 1.71875 4.453125q0 2.59375 -1.5 4.484375q-1.84375 2.3125 -5.015625 2.3125q-2.59375 0 -4.25 -1.453125q-1.640625 -1.46875 -1.875 -3.875z" fill-rule="nonzero"/><path fill="#000000" d="m436.54938 156.50674l-2.328125 0.1875q-0.3125 -1.390625 -0.890625 -2.015625q-0.953125 -1.0 -2.34375 -1.0q-1.109375 0 -1.96875 0.625q-1.09375 0.8125 -1.734375 2.359375q-0.640625 1.546875 -0.671875 4.40625q0.84375 -1.28125 2.0625 -1.90625q1.234375 -0.625 2.578125 -0.625q2.34375 0 3.984375 1.734375q1.640625 1.71875 1.640625 4.4375q0 1.796875 -0.78125 3.34375q-0.765625 1.546875 -2.125 2.375q-1.34375 0.8125 -3.0625 0.8125q-2.921875 0 -4.78125 -2.15625q-1.84375 -2.15625 -1.84375 -7.09375q0 -5.53125 2.046875 -8.046875q1.78125 -2.1875 4.796875 -2.1875q2.25 0 3.6875 1.265625q1.453125 1.25 1.734375 3.484375zm-9.5625 8.21875q0 1.21875 0.5 2.328125q0.515625 1.09375 1.4375 1.6875q0.9375 0.578125 1.953125 0.578125q1.484375 0 2.546875 -1.203125q1.0625 -1.203125 1.0625 -3.25q0 -1.984375 -1.0625 -3.125q-1.046875 -1.140625 -2.640625 -1.140625q-1.59375 0 -2.703125 1.140625q-1.09375 1.140625 -1.09375 2.984375z" fill-rule="nonzero"/><path stroke="#434343" stroke-width="1.0" stroke-linecap="butt" d="m521.17993 133.96391l0 54.698166" fill-rule="nonzero"/><path stroke="#434343" stroke-width="1.0" stroke-linecap="butt" d="m577.6182 133.96391l0 54.698166" fill-rule="nonzero"/><path stroke="#434343" stroke-width="1.0" stroke-linecap="butt" d="m634.0566 133.96391l0 54.698166" fill-rule="nonzero"/><path stroke="#434343" stroke-width="1.0" stroke-linecap="butt" d="m690.4949 133.96391l0 54.698166" fill-rule="nonzero"/><path stroke="#434343" stroke-width="1.0" stroke-linecap="butt" d="m520.6812 134.4626l170.31232 0" fill-rule="nonzero"/><path stroke="#434343" stroke-width="1.0" stroke-linecap="butt" d="m520.6812 188.16339l170.31232 0" fill-rule="nonzero"/><path fill="#000000" d="m543.25226 154.33487l0 -2.25l12.34375 0l0 1.8125q-1.8125 1.9375 -3.609375 5.15625q-1.78125 3.21875 -2.765625 6.609375q-0.703125 2.40625 -0.890625 5.25l-2.40625 0q0.03125 -2.25 0.875 -5.4375q0.84375 -3.1875 2.421875 -6.140625q1.59375 -2.96875 3.375 -5.0l-9.34375 0z" fill-rule="nonzero"/><path fill="#000000" d="m603.1437 160.56924q-1.46875 -0.53125 -2.171875 -1.515625q-0.703125 -1.0 -0.703125 -2.375q0 -2.09375 1.5 -3.5q1.5 -1.421875 3.984375 -1.421875q2.5 0 4.015625 1.453125q1.53125 1.453125 1.53125 3.53125q0 1.328125 -0.703125 2.3125q-0.6875 0.984375 -2.109375 1.515625q1.75 0.5625 2.671875 1.84375q0.921875 1.28125 0.921875 3.046875q0 2.453125 -1.734375 4.125q-1.734375 1.65625 -4.5625 1.65625q-2.8125 0 -4.546875 -1.671875q-1.734375 -1.671875 -1.734375 -4.171875q0 -1.859375 0.9375 -3.109375q0.953125 -1.265625 2.703125 -1.71875zm-0.46875 -3.96875q0 1.34375 0.859375 2.203125q0.875 0.859375 2.265625 0.859375q1.359375 0 2.21875 -0.84375q0.875 -0.859375 0.875 -2.09375q0 -1.28125 -0.890625 -2.15625q-0.890625 -0.890625 -2.21875 -0.890625q-1.34375 0 -2.234375 0.859375q-0.875 0.859375 -0.875 2.0625zm-0.765625 8.8125q0 1.0 0.46875 1.9375q0.484375 0.9375 1.421875 1.453125q0.9375 0.515625 2.015625 0.515625q1.6875 0 2.78125 -1.078125q1.09375 -1.09375 1.09375 -2.75q0 -1.703125 -1.140625 -2.796875q-1.125 -1.109375 -2.8125 -1.109375q-1.65625 0 -2.75 1.09375q-1.078125 1.09375 -1.078125 2.734375z" fill-rule="nonzero"/><path fill="#000000" d="m656.31635 166.50674l2.25 -0.21875q0.296875 1.59375 1.09375 2.3125q0.8125 0.71875 2.078125 0.71875q1.078125 0 1.890625 -0.5q0.8125 -0.5 1.328125 -1.328125q0.53125 -0.828125 0.875 -2.21875q0.359375 -1.40625 0.359375 -2.875q0 -0.15625 -0.015625 -0.46875q-0.703125 1.125 -1.921875 1.828125q-1.21875 0.6875 -2.640625 0.6875q-2.359375 0 -4.0 -1.71875q-1.640625 -1.71875 -1.640625 -4.53125q0 -2.90625 1.703125 -4.671875q1.71875 -1.765625 4.296875 -1.765625q1.859375 0 3.390625 1.0q1.546875 1.0 2.34375 2.859375q0.8125 1.859375 0.8125 5.359375q0 3.65625 -0.796875 5.828125q-0.796875 2.171875 -2.375 3.3125q-1.5625 1.125 -3.671875 1.125q-2.234375 0 -3.65625 -1.234375q-1.40625 -1.25 -1.703125 -3.5zm9.59375 -8.421875q0 -2.015625 -1.078125 -3.203125q-1.0625 -1.1875 -2.578125 -1.1875q-1.5625 0 -2.71875 1.28125q-1.15625 1.265625 -1.15625 3.296875q0 1.828125 1.09375 2.96875q1.109375 1.140625 2.71875 1.140625q1.625 0 2.671875 -1.140625q1.046875 -1.140625 1.046875 -3.15625z" fill-rule="nonzero"/><path fill="#000000" fill-opacity="0.0" d="m241.3678 142.54588l34.677155 0" fill-rule="evenodd"/><path stroke="#434343" stroke-width="3.0" stroke-linejoin="round" stroke-linecap="butt" stroke-dasharray="12.0,9.0" d="m241.3678 142.54588l34.677155 0" fill-rule="evenodd"/><path fill="#000000" fill-opacity="0.0" d="m472.4793 142.54588l34.677155 0" fill-rule="evenodd"/><path stroke="#434343" stroke-width="3.0" stroke-linejoin="round" stroke-linecap="butt" stroke-dasharray="12.0,9.0" d="m472.4793 142.54588l34.677155 0" fill-rule="evenodd"/><path fill="#000000" fill-opacity="0.0" d="m75.37665 404.356l142.20473 0l0 53.700775l-142.20473 0z" fill-rule="evenodd"/><path fill="#434343" d="m97.46102 423.7972l3.78125 0l-0.9375 7.015625q-0.0625 0.546875 -0.296875 0.765625q-0.234375 0.21875 -0.609375 0.21875q-0.390625 0 -0.625 -0.21875q-0.21875 -0.21875 -0.296875 -0.75l-1.015625 -7.03125zm6.109375 0l3.78125 0l-0.921875 7.015625q-0.078125 0.546875 -0.3125 0.765625q-0.21875 0.21875 -0.609375 0.21875q-0.390625 0 -0.625 -0.21875q-0.21875 -0.21875 -0.296875 -0.75l-1.015625 -7.03125zm16.537247 14.15625l3.15625 -6.5q-1.171875 0 -1.5 -0.203125q-0.71875 -0.453125 -0.71875 -1.28125q0 -0.640625 0.453125 -1.046875q0.453125 -0.40625 1.515625 -0.40625l4.015625 0q1.0624924 0 1.5156174 0.40625q0.453125 0.40625 0.453125 1.0625q0 0.640625 -0.453125 1.0625q-0.453125 0.40625 -1.5156174 0.40625l-0.484375 0l-4.90625 10.0625l-3.0625 0l-4.921875 -10.0625l-0.40625 0q-1.0625 0 -1.515625 -0.40625q-0.453125 -0.421875 -0.453125 -1.078125q0 -0.640625 0.453125 -1.046875q0.453125 -0.40625 1.515625 -0.40625l3.9375 0q1.046875 0 1.484375 0.40625q0.453125 0.40625 0.453125 1.0625q0 0.8125 -0.6875 1.25q-0.34375 0.21875 -1.53125 0.21875l3.203125 6.5zm24.94349 -1.453125l-12.046875 0q0.453125 1.15625 1.625 1.859375q1.171875 0.6875 3.15625 0.6875q1.640625 0 4.34375 -0.703125q1.109375 -0.28125 1.546875 -0.28125q0.578125 0 0.984375 0.421875q0.40625 0.40625 0.40625 1.046875q0 0.5625 -0.4375 0.96875q-0.578125 0.53125 -2.796875 1.015625q-2.21875 0.46875 -4.265625 0.46875q-3.515625 0 -5.640625 -1.984375q-2.109375 -2.0 -2.109375 -4.90625q0 -3.09375 2.28125 -5.03125q2.296875 -1.9375 5.265625 -1.9375q1.796875 0 3.296875 0.640625q1.5 0.625 2.21875 1.34375q1.03125 1.0625 1.703125 2.625q0.46875 1.09375 0.46875 2.515625l0 1.25zm-3.25 -2.9375q-0.671875 -1.25 -1.765625 -1.875q-1.09375 -0.625 -2.59375 -0.625q-1.484375 0 -2.578125 0.625q-1.09375 0.625 -1.78125 1.875l8.71875 0zm18.052872 -4.515625q0.53125 -0.5 1.09375 -0.5q0.625 0 1.03125 0.453125q0.40625 0.4375 0.40625 1.484375l0 1.890625q0 1.0625 -0.40625 1.515625q-0.40625 0.4375 -1.0625 0.4375q-0.609375 0 -1.015625 -0.34375q-0.296875 -0.265625 -0.46875 -1.046875q-0.171875 -0.796875 -0.84375 -1.1875q-1.15625 -0.6875 -2.953125 -0.6875q-2.078125 0 -3.34375 1.21875q-1.25 1.21875 -1.25 3.078125q0 1.71875 1.203125 2.71875q1.203125 0.984375 4.0 0.984375q1.828125 0 3.0 -0.375q0.6875 -0.21875 1.296875 -0.765625q0.609375 -0.5625 1.109375 -0.5625q0.609375 0 1.046875 0.453125q0.4375 0.4375 0.4375 1.046875q0 0.96875 -1.328125 1.84375q-1.984375 1.296875 -5.796875 1.296875q-3.421875 0 -5.328125 -1.421875q-2.578125 -1.890625 -2.578125 -5.203125q0 -3.140625 2.09375 -5.1875q2.09375 -2.0625 5.453125 -2.0625q1.21875 0 2.265625 0.234375q1.046875 0.21875 1.9375 0.6875zm14.521622 -6.53125l0 16.0625l2.96875 0q1.0625 0 1.5 0.40625q0.453125 0.40625 0.453125 1.078125q0 0.640625 -0.453125 1.046875q-0.4375 0.40625 -1.5 0.40625l-8.875 0q-1.046875 0 -1.5 -0.40625q-0.453125 -0.40625 -0.453125 -1.0625q0 -0.65625 0.453125 -1.0625q0.453125 -0.40625 1.5 -0.40625l2.96875 0l0 -12.234375l-2.625 0.671875q-0.625 0.171875 -0.9375 0.171875q-0.5625 0 -0.96875 -0.4375q-0.40625 -0.4375 -0.40625 -1.09375q0 -0.578125 0.296875 -0.90625q0.296875 -0.34375 1.265625 -0.609375l6.3125 -1.625zm11.084122 1.28125l3.78125 0l-0.9375 7.015625q-0.0625 0.546875 -0.296875 0.765625q-0.234375 0.21875 -0.609375 0.21875q-0.390625 0 -0.625 -0.21875q-0.21875 -0.21875 -0.296875 -0.75l-1.015625 -7.03125zm6.109375 0l3.78125 0l-0.921875 7.015625q-0.078125 0.546875 -0.3125 0.765625q-0.21875 0.21875 -0.609375 0.21875q-0.390625 0 -0.625 -0.21875q-0.21875 -0.21875 -0.296875 -0.75l-1.015625 -7.03125z" fill-rule="nonzero"/><path fill="#000000" fill-opacity="0.0" d="m379.37665 404.356l142.20471 0l0 53.700775l-142.20471 0z" fill-rule="evenodd"/><path fill="#434343" d="m401.46103 423.7972l3.78125 0l-0.9375 7.015625q-0.0625 0.546875 -0.296875 0.765625q-0.234375 0.21875 -0.609375 0.21875q-0.390625 0 -0.625 -0.21875q-0.21875 -0.21875 -0.296875 -0.75l-1.015625 -7.03125zm6.109375 0l3.78125 0l-0.921875 7.015625q-0.078125 0.546875 -0.3125 0.765625q-0.21875 0.21875 -0.609375 0.21875q-0.390625 0 -0.625 -0.21875q-0.21875 -0.21875 -0.296875 -0.75l-1.015625 -7.03125zm16.537231 14.15625l3.15625 -6.5q-1.171875 0 -1.5 -0.203125q-0.71875 -0.453125 -0.71875 -1.28125q0 -0.640625 0.453125 -1.046875q0.453125 -0.40625 1.515625 -0.40625l4.015625 0q1.0625 0 1.515625 0.40625q0.453125 0.40625 0.453125 1.0625q0 0.640625 -0.453125 1.0625q-0.453125 0.40625 -1.515625 0.40625l-0.484375 0l-4.90625 10.0625l-3.0625 0l-4.921875 -10.0625l-0.40625 0q-1.0625 0 -1.515625 -0.40625q-0.453125 -0.421875 -0.453125 -1.078125q0 -0.640625 0.453125 -1.046875q0.453125 -0.40625 1.515625 -0.40625l3.9375 0q1.046875 0 1.484375 0.40625q0.453125 0.40625 0.453125 1.0625q0 0.8125 -0.6875 1.25q-0.34375 0.21875 -1.53125 0.21875l3.203125 6.5zm24.943512 -1.453125l-12.046875 0q0.453125 1.15625 1.625 1.859375q1.171875 0.6875 3.15625 0.6875q1.640625 0 4.34375 -0.703125q1.109375 -0.28125 1.546875 -0.28125q0.578125 0 0.984375 0.421875q0.40625 0.40625 0.40625 1.046875q0 0.5625 -0.4375 0.96875q-0.578125 0.53125 -2.796875 1.015625q-2.21875 0.46875 -4.265625 0.46875q-3.515625 0 -5.640625 -1.984375q-2.109375 -2.0 -2.109375 -4.90625q0 -3.09375 2.28125 -5.03125q2.296875 -1.9375 5.265625 -1.9375q1.796875 0 3.296875 0.640625q1.5 0.625 2.21875 1.34375q1.03125 1.0625 1.703125 2.625q0.46875 1.09375 0.46875 2.515625l0 1.25zm-3.25 -2.9375q-0.671875 -1.25 -1.765625 -1.875q-1.09375 -0.625 -2.59375 -0.625q-1.484375 0 -2.578125 0.625q-1.09375 0.625 -1.78125 1.875l8.71875 0zm18.052856 -4.515625q0.53125 -0.5 1.09375 -0.5q0.625 0 1.03125 0.453125q0.40625 0.4375 0.40625 1.484375l0 1.890625q0 1.0625 -0.40625 1.515625q-0.40625 0.4375 -1.0625 0.4375q-0.609375 0 -1.015625 -0.34375q-0.296875 -0.265625 -0.46875 -1.046875q-0.171875 -0.796875 -0.84375 -1.1875q-1.15625 -0.6875 -2.953125 -0.6875q-2.078125 0 -3.34375 1.21875q-1.25 1.21875 -1.25 3.078125q0 1.71875 1.203125 2.71875q1.203125 0.984375 4.0 0.984375q1.828125 0 3.0 -0.375q0.6875 -0.21875 1.296875 -0.765625q0.609375 -0.5625 1.109375 -0.5625q0.609375 0 1.046875 0.453125q0.4375 0.4375 0.4375 1.046875q0 0.96875 -1.328125 1.84375q-1.984375 1.296875 -5.796875 1.296875q-3.421875 0 -5.328125 -1.421875q-2.578125 -1.890625 -2.578125 -5.203125q0 -3.140625 2.09375 -5.1875q2.09375 -2.0625 5.453125 -2.0625q1.21875 0 2.265625 0.234375q1.046875 0.21875 1.9375 0.6875zm14.521637 -6.53125l0 16.0625l2.96875 0q1.0625 0 1.5 0.40625q0.453125 0.40625 0.453125 1.078125q0 0.640625 -0.453125 1.046875q-0.4375 0.40625 -1.5 0.40625l-8.875 0q-1.046875 0 -1.5 -0.40625q-0.453125 -0.40625 -0.453125 -1.0625q0 -0.65625 0.453125 -1.0625q0.453125 -0.40625 1.5 -0.40625l2.96875 0l0 -12.234375l-2.625 0.671875q-0.625 0.171875 -0.9375 0.171875q-0.5625 0 -0.96875 -0.4375q-0.40625 -0.4375 -0.40625 -1.09375q0 -0.578125 0.296875 -0.90625q0.296875 -0.34375 1.265625 -0.609375l6.3125 -1.625zm11.084106 1.28125l3.78125 0l-0.9375 7.015625q-0.0625 0.546875 -0.296875 0.765625q-0.234375 0.21875 -0.609375 0.21875q-0.390625 0 -0.625 -0.21875q-0.21875 -0.21875 -0.296875 -0.75l-1.015625 -7.03125zm6.109375 0l3.78125 0l-0.921875 7.015625q-0.078125 0.546875 -0.3125 0.765625q-0.21875 0.21875 -0.609375 0.21875q-0.390625 0 -0.625 -0.21875q-0.21875 -0.21875 -0.296875 -0.75l-1.015625 -7.03125z" fill-rule="nonzero"/></g></svg>