<svg version="1.1" viewBox="0.0 0.0 605.2755905511812 720.0" fill="none" stroke="none" stroke-linecap="square" stroke-miterlimit="10" xmlns:xlink="http://www.w3.org/1999/xlink" xmlns="http://www.w3.org/2000/svg"><clipPath id="p.0"><path d="m0 0l605.2756 0l0 720.0l-605.2756 0l0 -720.0z" clip-rule="nonzero"/></clipPath><g clip-path="url(#p.0)"><path fill="#000000" fill-opacity="0.0" d="m0 0l605.2756 0l0 720.0l-605.2756 0z" fill-rule="evenodd"/><path fill="#ffffff" d="m206.27821 120.2231l224.22047 0l0 61.007874l-224.22047 0z" fill-rule="evenodd"/><path stroke="#434343" stroke-width="2.0" stroke-linejoin="round" stroke-linecap="butt" d="m206.27821 120.2231l224.22047 0l0 61.007874l-224.22047 0z" fill-rule="evenodd"/><path fill="#000000" fill-opacity="0.0" d="m241.86613 64.75857l145.44884 0l0 53.70079l-145.44884 0z" fill-rule="evenodd"/><path fill="#000000" d="m277.73898 104.47857l-6.3125 -16.59375l2.96875 0l3.5625 9.9375q0.578125 1.609375 1.0625 3.34375q0.375 -1.3125 1.046875 -3.15625l3.6875 -10.125l2.890625 0l-6.28125 16.59375l-2.625 0zm22.75 -5.34375l2.90625 0.359375q-0.6875 2.546875 -2.546875 3.953125q-1.859375 1.40625 -4.75 1.40625q-3.640625 0 -5.78125 -2.234375q-2.125 -2.25 -2.125 -6.296875q0 -4.1875 2.15625 -6.5q2.15625 -2.3125 5.59375 -2.3125q3.328125 0 5.4375 2.265625q2.109375 2.265625 2.109375 6.375q0 0.25 -0.015625 0.75l-12.375 0q0.15625 2.734375 1.546875 4.1875q1.390625 1.453125 3.46875 1.453125q1.546875 0 2.640625 -0.8125q1.09375 -0.8125 1.734375 -2.59375zm-9.234375 -4.546875l9.265625 0q-0.1875 -2.09375 -1.0625 -3.140625q-1.34375 -1.625 -3.484375 -1.625q-1.9375 0 -3.265625 1.296875q-1.3125 1.296875 -1.453125 3.46875zm26.5 3.8125l2.765625 0.359375q-0.453125 2.859375 -2.328125 4.484375q-1.859375 1.609375 -4.578125 1.609375q-3.40625 0 -5.484375 -2.21875q-2.0625 -2.234375 -2.0625 -6.390625q0 -2.6875 0.890625 -4.703125q0.890625 -2.015625 2.703125 -3.015625q1.828125 -1.015625 3.96875 -1.015625q2.703125 0 4.421875 1.375q1.71875 1.359375 2.203125 3.875l-2.734375 0.421875q-0.390625 -1.671875 -1.390625 -2.515625q-0.984375 -0.84375 -2.390625 -0.84375q-2.125 0 -3.453125 1.53125q-1.328125 1.515625 -1.328125 4.8125q0 3.34375 1.28125 4.859375q1.28125 1.515625 3.34375 1.515625q1.65625 0 2.765625 -1.015625q1.109375 -1.015625 1.40625 -3.125zm11.3125 3.5625l0.40625 2.484375q-1.1875 0.25 -2.125 0.25q-1.53125 0 -2.375 -0.484375q-0.84375 -0.484375 -1.1875 -1.265625q-0.34375 -0.796875 -0.34375 -3.328125l0 -9.546875l-2.0625 0l0 -2.1875l2.0625 0l0 -4.109375l2.796875 -1.6875l0 5.796875l2.828125 0l0 2.1875l-2.828125 0l0 9.703125q0 1.203125 0.140625 1.546875q0.15625 0.34375 0.484375 0.546875q0.34375 0.203125 0.96875 0.203125q0.46875 0 1.234375 -0.109375zm1.703125 -5.78125q0 -4.609375 2.5625 -6.828125q2.140625 -1.84375 5.21875 -1.84375q3.421875 0 5.59375 2.25q2.171875 2.234375 2.171875 6.1875q0 3.203125 -0.96875 5.046875q-0.953125 1.828125 -2.796875 2.84375q-1.828125 1.015625 -4.0 1.015625q-3.484375 0 -5.640625 -2.234375q-2.140625 -2.234375 -2.140625 -6.4375zm2.890625 0q0 3.1875 1.390625 4.78125q1.390625 1.578125 3.5 1.578125q2.09375 0 3.484375 -1.59375q1.390625 -1.59375 1.390625 -4.859375q0 -3.078125 -1.40625 -4.65625q-1.390625 -1.59375 -3.46875 -1.59375q-2.109375 0 -3.5 1.578125q-1.390625 1.578125 -1.390625 4.765625zm15.921875 8.296875l0 -16.59375l2.53125 0l0 2.515625q0.96875 -1.765625 1.78125 -2.328125q0.828125 -0.5625 1.8125 -0.5625q1.421875 0 2.890625 0.90625l-0.96875 2.609375q-1.03125 -0.609375 -2.0625 -0.609375q-0.921875 0 -1.65625 0.5625q-0.734375 0.546875 -1.046875 1.53125q-0.46875 1.5 -0.46875 3.28125l0 8.6875l-2.8125 0z" fill-rule="nonzero"/><path fill="#000000" fill-opacity="0.0" d="m283.2021 120.2231l0 61.007874" fill-rule="evenodd"/><path stroke="#999999" stroke-width="2.0" stroke-linejoin="round" stroke-linecap="butt" stroke-dasharray="8.0,6.0" d="m283.2021 120.2231l0 61.007874" fill-rule="evenodd"/><path fill="#000000" fill-opacity="0.0" d="m356.3981 120.2231l0 61.007874" fill-rule="evenodd"/><path stroke="#999999" stroke-width="2.0" stroke-linejoin="round" stroke-linecap="butt" stroke-dasharray="8.0,6.0" d="m356.3981 120.2231l0 61.007874" fill-rule="evenodd"/><path fill="#000000" fill-opacity="0.0" d="m241.86613 198.38698l145.44884 0l0 53.70079l-145.44884 0z" fill-rule="evenodd"/><path fill="#000000" d="m273.14523 238.10698l0 -16.59375l2.515625 0l0 2.328125q0.78125 -1.21875 2.078125 -1.953125q1.296875 -0.75 2.953125 -0.75q1.84375 0 3.015625 0.765625q1.1875 0.765625 1.671875 2.140625q1.96875 -2.90625 5.125 -2.90625q2.46875 0 3.796875 1.375q1.328125 1.359375 1.328125 4.203125l0 11.390625l-2.796875 0l0 -10.453125q0 -1.6875 -0.28125 -2.421875q-0.265625 -0.75 -0.984375 -1.203125q-0.71875 -0.453125 -1.6875 -0.453125q-1.75 0 -2.90625 1.171875q-1.15625 1.15625 -1.15625 3.71875l0 9.640625l-2.8125 0l0 -10.78125q0 -1.875 -0.6875 -2.8125q-0.6875 -0.9375 -2.25 -0.9375q-1.1875 0 -2.203125 0.625q-1.0 0.625 -1.453125 1.828125q-0.453125 1.203125 -0.453125 3.46875l0 8.609375l-2.8125 0zm37.484375 -2.046875q-1.5625 1.328125 -3.015625 1.875q-1.4375 0.546875 -3.09375 0.546875q-2.734375 0 -4.203125 -1.328125q-1.46875 -1.34375 -1.46875 -3.421875q0 -1.21875 0.546875 -2.21875q0.5625 -1.015625 1.453125 -1.625q0.90625 -0.609375 2.03125 -0.921875q0.828125 -0.21875 2.5 -0.421875q3.40625 -0.40625 5.015625 -0.96875q0.015625 -0.578125 0.015625 -0.734375q0 -1.71875 -0.796875 -2.421875q-1.078125 -0.953125 -3.203125 -0.953125q-1.984375 0 -2.9375 0.703125q-0.9375 0.6875 -1.390625 2.453125l-2.75 -0.375q0.375 -1.765625 1.234375 -2.84375q0.859375 -1.09375 2.484375 -1.671875q1.625 -0.59375 3.765625 -0.59375q2.125 0 3.453125 0.5q1.328125 0.5 1.953125 1.265625q0.625 0.75 0.875 1.90625q0.140625 0.71875 0.140625 2.59375l0 3.75q0 3.921875 0.171875 4.96875q0.1875 1.03125 0.71875 1.984375l-2.9375 0q-0.4375 -0.875 -0.5625 -2.046875zm-0.234375 -6.28125q-1.53125 0.625 -4.59375 1.0625q-1.734375 0.25 -2.453125 0.5625q-0.71875 0.3125 -1.109375 0.921875q-0.390625 0.59375 -0.390625 1.328125q0 1.125 0.84375 1.875q0.859375 0.75 2.5 0.75q1.625 0 2.890625 -0.703125q1.265625 -0.71875 1.859375 -1.953125q0.453125 -0.953125 0.453125 -2.8125l0 -1.03125zm13.34375 5.8125l0.40625 2.484375q-1.1875 0.25 -2.125 0.25q-1.53125 0 -2.375 -0.484375q-0.84375 -0.484375 -1.1875 -1.265625q-0.34375 -0.796875 -0.34375 -3.328125l0 -9.546875l-2.0625 0l0 -2.1875l2.0625 0l0 -4.109375l2.796875 -1.6875l0 5.796875l2.828125 0l0 2.1875l-2.828125 0l0 9.703125q0 1.203125 0.140625 1.546875q0.15625 0.34375 0.484375 0.546875q0.34375 0.203125 0.96875 0.203125q0.46875 0 1.234375 -0.109375zm2.71875 2.515625l0 -16.59375l2.53125 0l0 2.515625q0.96875 -1.765625 1.78125 -2.328125q0.828125 -0.5625 1.8125 -0.5625q1.421875 0 2.890625 0.90625l-0.96875 2.609375q-1.03125 -0.609375 -2.0625 -0.609375q-0.921875 0 -1.65625 0.5625q-0.734375 0.546875 -1.046875 1.53125q-0.46875 1.5 -0.46875 3.28125l0 8.6875l-2.8125 0zm10.703125 -19.671875l0 -3.234375l2.8125 0l0 3.234375l-2.8125 0zm0 19.671875l0 -16.59375l2.8125 0l0 16.59375l-2.8125 0zm5.21875 0l6.0625 -8.625l-5.609375 -7.96875l3.515625 0l2.546875 3.890625q0.71875 1.109375 1.15625 1.859375q0.6875 -1.03125 1.265625 -1.828125l2.796875 -3.921875l3.359375 0l-5.734375 7.8125l6.171875 8.78125l-3.453125 0l-3.40625 -5.15625l-0.90625 -1.390625l-4.359375 6.546875l-3.40625 0z" fill-rule="nonzero"/><path fill="#ffffff" d="m195.06227 500.51727l224.22047 0l0 162.34784l-224.22047 0z" fill-rule="evenodd"/><path stroke="#000000" stroke-width="2.0" stroke-linejoin="round" stroke-linecap="butt" d="m195.06227 500.51727l224.22047 0l0 162.34784l-224.22047 0z" fill-rule="evenodd"/><path fill="#000000" fill-opacity="0.0" d="m270.06488 500.5172l0 164.68445" fill-rule="evenodd"/><path stroke="#999999" stroke-width="2.0" stroke-linejoin="round" stroke-linecap="butt" stroke-dasharray="8.0,6.0" d="m270.06488 500.5172l0 164.68445" fill-rule="evenodd"/><path fill="#000000" fill-opacity="0.0" d="m346.47684 500.5172l0 164.68445" fill-rule="evenodd"/><path stroke="#999999" stroke-width="2.0" stroke-linejoin="round" stroke-linecap="butt" stroke-dasharray="8.0,6.0" d="m346.47684 500.5172l0 164.68445" fill-rule="evenodd"/><path fill="#000000" fill-opacity="0.0" d="m195.37723 553.91766l223.59055 0" fill-rule="evenodd"/><path stroke="#999999" stroke-width="2.0" stroke-linejoin="round" stroke-linecap="butt" stroke-dasharray="8.0,6.0" d="m195.37723 553.91766l223.59055 0" fill-rule="evenodd"/><path fill="#000000" fill-opacity="0.0" d="m195.68694 605.0395l223.59056 0" fill-rule="evenodd"/><path stroke="#999999" stroke-width="2.0" stroke-linejoin="round" stroke-linecap="butt" stroke-dasharray="8.0,6.0" d="m195.68694 605.0395l223.59056 0" fill-rule="evenodd"/><path fill="#ffffff" d="m219.06227 524.48413l224.22047 0l0 162.3479l-224.22047 0z" fill-rule="evenodd"/><path stroke="#000000" stroke-width="2.0" stroke-linejoin="round" stroke-linecap="butt" d="m219.06227 524.48413l224.22047 0l0 162.3479l-224.22047 0z" fill-rule="evenodd"/><path fill="#000000" fill-opacity="0.0" d="m294.06488 524.48413l0 164.68439" fill-rule="evenodd"/><path stroke="#999999" stroke-width="2.0" stroke-linejoin="round" stroke-linecap="butt" stroke-dasharray="8.0,6.0" d="m294.06488 524.48413l0 164.68439" fill-rule="evenodd"/><path fill="#000000" fill-opacity="0.0" d="m370.47684 524.48413l0 164.68439" fill-rule="evenodd"/><path stroke="#999999" stroke-width="2.0" stroke-linejoin="round" stroke-linecap="butt" stroke-dasharray="8.0,6.0" d="m370.47684 524.48413l0 164.68439" fill-rule="evenodd"/><path fill="#000000" fill-opacity="0.0" d="m219.37723 577.8846l223.59055 0" fill-rule="evenodd"/><path stroke="#999999" stroke-width="2.0" stroke-linejoin="round" stroke-linecap="butt" stroke-dasharray="8.0,6.0" d="m219.37723 577.8846l223.59055 0" fill-rule="evenodd"/><path fill="#000000" fill-opacity="0.0" d="m219.68694 629.00635l223.59056 0" fill-rule="evenodd"/><path stroke="#999999" stroke-width="2.0" stroke-linejoin="round" stroke-linecap="butt" stroke-dasharray="8.0,6.0" d="m219.68694 629.00635l223.59056 0" fill-rule="evenodd"/><path fill="#ffffff" d="m243.06227 548.3554l224.22047 0l0 162.3479l-224.22047 0z" fill-rule="evenodd"/><path stroke="#000000" stroke-width="2.0" stroke-linejoin="round" stroke-linecap="butt" d="m243.06227 548.3554l224.22047 0l0 162.3479l-224.22047 0z" fill-rule="evenodd"/><path fill="#000000" fill-opacity="0.0" d="m318.06488 548.3554l0 164.68439" fill-rule="evenodd"/><path stroke="#999999" stroke-width="2.0" stroke-linejoin="round" stroke-linecap="butt" stroke-dasharray="8.0,6.0" d="m318.06488 548.3554l0 164.68439" fill-rule="evenodd"/><path fill="#000000" fill-opacity="0.0" d="m394.47684 548.3554l0 164.68439" fill-rule="evenodd"/><path stroke="#999999" stroke-width="2.0" stroke-linejoin="round" stroke-linecap="butt" stroke-dasharray="8.0,6.0" d="m394.47684 548.3554l0 164.68439" fill-rule="evenodd"/><path fill="#000000" fill-opacity="0.0" d="m243.37723 602.95184l223.59055 0" fill-rule="evenodd"/><path stroke="#999999" stroke-width="2.0" stroke-linejoin="round" stroke-linecap="butt" stroke-dasharray="8.0,6.0" d="m243.37723 602.95184l223.59055 0" fill-rule="evenodd"/><path fill="#000000" fill-opacity="0.0" d="m243.68694 654.0736l223.59056 0" fill-rule="evenodd"/><path stroke="#999999" stroke-width="2.0" stroke-linejoin="round" stroke-linecap="butt" stroke-dasharray="8.0,6.0" d="m243.68694 654.0736l223.59056 0" fill-rule="evenodd"/><path fill="#000000" fill-opacity="0.0" d="m241.86542 442.3766l145.44882 0l0 53.700806l-145.44882 0z" fill-rule="evenodd"/><path fill="#000000" d="m291.0742 480.0497q-1.5625 1.328125 -3.015625 1.875q-1.4375 0.546875 -3.09375 0.546875q-2.734375 0 -4.203125 -1.328125q-1.46875 -1.34375 -1.46875 -3.421875q0 -1.21875 0.546875 -2.21875q0.5625 -1.015625 1.453125 -1.625q0.90625 -0.609375 2.03125 -0.921875q0.828125 -0.21875 2.5 -0.421875q3.40625 -0.40625 5.015625 -0.96875q0.015625 -0.578125 0.015625 -0.734375q0 -1.71875 -0.796875 -2.421875q-1.078125 -0.953125 -3.203125 -0.953125q-1.984375 0 -2.9375 0.703125q-0.9375 0.6875 -1.390625 2.453125l-2.75 -0.375q0.375 -1.765625 1.234375 -2.84375q0.859375 -1.09375 2.484375 -1.671875q1.625 -0.59375 3.765625 -0.59375q2.125 0 3.453125 0.5q1.328125 0.5 1.953125 1.265625q0.625 0.75 0.875 1.90625q0.140625 0.71875 0.140625 2.59375l0 3.75q0 3.921875 0.171875 4.96875q0.1875 1.03125 0.71875 1.984375l-2.9375 0q-0.4375 -0.875 -0.5625 -2.046875zm-0.234375 -6.28125q-1.53125 0.625 -4.59375 1.0625q-1.734375 0.25 -2.453125 0.5625q-0.71875 0.3125 -1.109375 0.921875q-0.390625 0.59375 -0.390625 1.328125q0 1.125 0.84375 1.875q0.859375 0.75 2.5 0.75q1.625 0 2.890625 -0.703125q1.265625 -0.71875 1.859375 -1.953125q0.453125 -0.953125 0.453125 -2.8125l0 -1.03125zm7.171875 8.328125l0 -16.59375l2.53125 0l0 2.515625q0.96875 -1.765625 1.78125 -2.328125q0.828125 -0.5625 1.8125 -0.5625q1.421875 0 2.890625 0.90625l-0.96875 2.609375q-1.03125 -0.609375 -2.0625 -0.609375q-0.921875 0 -1.65625 0.5625q-0.734375 0.546875 -1.046875 1.53125q-0.46875 1.5 -0.46875 3.28125l0 8.6875l-2.8125 0zm10.65625 0l0 -16.59375l2.53125 0l0 2.515625q0.96875 -1.765625 1.78125 -2.328125q0.828125 -0.5625 1.8125 -0.5625q1.421875 0 2.890625 0.90625l-0.96875 2.609375q-1.03125 -0.609375 -2.0625 -0.609375q-0.921875 0 -1.65625 0.5625q-0.734375 0.546875 -1.046875 1.53125q-0.46875 1.5 -0.46875 3.28125l0 8.6875l-2.8125 0zm21.515625 -2.046875q-1.5625 1.328125 -3.015625 1.875q-1.4375 0.546875 -3.09375 0.546875q-2.734375 0 -4.203125 -1.328125q-1.46875 -1.34375 -1.46875 -3.421875q0 -1.21875 0.546875 -2.21875q0.5625 -1.015625 1.453125 -1.625q0.90625 -0.609375 2.03125 -0.921875q0.828125 -0.21875 2.5 -0.421875q3.40625 -0.40625 5.015625 -0.96875q0.015625 -0.578125 0.015625 -0.734375q0 -1.71875 -0.796875 -2.421875q-1.078125 -0.953125 -3.203125 -0.953125q-1.984375 0 -2.9375 0.703125q-0.9375 0.6875 -1.390625 2.453125l-2.75 -0.375q0.375 -1.765625 1.234375 -2.84375q0.859375 -1.09375 2.484375 -1.671875q1.625 -0.59375 3.765625 -0.59375q2.125 0 3.453125 0.5q1.328125 0.5 1.953125 1.265625q0.625 0.75 0.875 1.90625q0.140625 0.71875 0.140625 2.59375l0 3.75q0 3.921875 0.171875 4.96875q0.1875 1.03125 0.71875 1.984375l-2.9375 0q-0.4375 -0.875 -0.5625 -2.046875zm-0.234375 -6.28125q-1.53125 0.625 -4.59375 1.0625q-1.734375 0.25 -2.453125 0.5625q-0.71875 0.3125 -1.109375 0.921875q-0.390625 0.59375 -0.390625 1.328125q0 1.125 0.84375 1.875q0.859375 0.75 2.5 0.75q1.625 0 2.890625 -0.703125q1.265625 -0.71875 1.859375 -1.953125q0.453125 -0.953125 0.453125 -2.8125l0 -1.03125zm7.078125 14.71875l-0.3125 -2.640625q0.921875 0.25 1.609375 0.25q0.9375 0 1.5 -0.3125q0.5625 -0.3125 0.921875 -0.875q0.265625 -0.421875 0.859375 -2.09375q0.078125 -0.234375 0.25 -0.6875l-6.296875 -16.625l3.03125 0l3.453125 9.609375q0.671875 1.828125 1.203125 3.84375q0.484375 -1.9375 1.15625 -3.78125l3.546875 -9.671875l2.8125 0l-6.3125 16.875q-1.015625 2.734375 -1.578125 3.765625q-0.75 1.390625 -1.71875 2.03125q-0.96875 0.65625 -2.3125 0.65625q-0.8125 0 -1.8125 -0.34375z" fill-rule="nonzero"/><path fill="#ffffff" d="m206.27821 262.47244l224.22047 0l0 164.6929l-224.22047 0z" fill-rule="evenodd"/><path stroke="#000000" stroke-width="2.0" stroke-linejoin="round" stroke-linecap="butt" d="m206.27821 262.47244l224.22047 0l0 164.6929l-224.22047 0z" fill-rule="evenodd"/><path fill="#000000" fill-opacity="0.0" d="m206.59317 316.47314l223.59055 0" fill-rule="evenodd"/><path stroke="#999999" stroke-width="2.0" stroke-linejoin="round" stroke-linecap="butt" stroke-dasharray="8.0,6.0" d="m206.59317 316.47314l223.59055 0" fill-rule="evenodd"/><path fill="#000000" fill-opacity="0.0" d="m206.9029 372.47318l223.59055 0" fill-rule="evenodd"/><path stroke="#999999" stroke-width="2.0" stroke-linejoin="round" stroke-linecap="butt" stroke-dasharray="8.0,6.0" d="m206.9029 372.47318l223.59055 0" fill-rule="evenodd"/><path fill="#000000" fill-opacity="0.0" d="m284.07373 262.47244l0 169.6063" fill-rule="evenodd"/><path stroke="#999999" stroke-width="2.0" stroke-linejoin="round" stroke-linecap="butt" stroke-dasharray="8.0,6.0" d="m284.07373 262.47244l0 169.6063" fill-rule="evenodd"/><path fill="#000000" fill-opacity="0.0" d="m357.26974 262.47244l0 169.6063" fill-rule="evenodd"/><path stroke="#999999" stroke-width="2.0" stroke-linejoin="round" stroke-linecap="butt" stroke-dasharray="8.0,6.0" d="m357.26974 262.47244l0 169.6063" fill-rule="evenodd"/><path fill="#000000" fill-opacity="0.0" d="m29.099737 1.2939633l592.0945 0l0 53.700787l-592.0945 0z" fill-rule="evenodd"/><path fill="#3c78d8" d="m99.49854 41.013966l12.984375 -22.906252l3.609375 0l3.78125 22.906252l-2.96875 0l-1.109375 -6.59375l-9.265625 0l-3.671875 6.59375l-3.359375 0zm8.34375 -8.953125l7.578125 0l-0.890625 -5.750002q-0.515625 -3.421875 -0.640625 -5.703125q-0.78125 1.96875 -2.28125 4.671875l-3.765625 6.781252zm21.312492 6.65625l-0.46875 2.3125q-1.0156174 0.265625 -1.9687424 0.265625q-1.6875 0 -2.6875 -0.828125q-0.75 -0.625 -0.75 -1.703125q0 -0.546875 0.40625 -2.515625l2.015625 -9.640627l-2.234375 0l0.453125 -2.1875l2.234375 0l0.859375 -4.078125l3.2343674 -1.953125l-1.265625 6.03125l2.78125 0l-0.46875 2.1875l-2.765625 0l-1.9218674 9.171877q-0.359375 1.75 -0.359375 2.09375q0 0.5 0.28125 0.765625q0.296875 0.265625 0.953125 0.265625q0.9374924 0 1.6718674 -0.1875zm2.78125 -4.0q0 -4.859377 2.859375 -8.046877q2.359375 -2.625 6.1875 -2.625q3.0 0 4.828125 1.875q1.84375 1.875 1.84375 5.0625q0 2.859377 -1.15625 5.328127q-1.15625 2.453125 -3.296875 3.765625q-2.125 1.3125 -4.484375 1.3125q-1.9375 0 -3.53125 -0.828125q-1.578125 -0.828125 -2.421875 -2.34375q-0.828125 -1.515625 -0.828125 -3.5zm2.828125 -0.28125q0 2.34375 1.125 3.5625q1.125 1.203125 2.859375 1.203125q0.90625 0 1.796875 -0.359375q0.890625 -0.375 1.65625 -1.125q0.765625 -0.75 1.296875 -1.703125q0.546875 -0.96875 0.875 -2.078125q0.484375 -1.546875 0.484375 -2.968752q0 -2.25 -1.140625 -3.484375q-1.125 -1.25 -2.84375 -1.25q-1.328125 0 -2.421875 0.640625q-1.09375 0.625 -1.984375 1.84375q-0.875 1.21875 -1.296875 2.84375q-0.40625 1.6093769 -0.40625 2.875002zm14.453125 6.578125l3.46875 -16.593752l2.828125 0l-0.578125 2.734375q1.578125 -1.765625 2.8125 -2.4375q1.25 -0.671875 2.703125 -0.671875q1.546875 0 2.578125 0.828125q1.046875 0.8125 1.375 2.28125q1.265625 -1.5625 2.65625 -2.328125q1.40625 -0.78125 2.953125 -0.78125q2.078125 0 3.109375 0.984375q1.046875 0.984375 1.046875 2.765625q0 0.765625 -0.359375 2.53125l-2.234375 10.687502l-2.828125 0l2.28125 -10.968752q0.296875 -1.34375 0.296875 -1.921875q0 -0.8125 -0.515625 -1.28125q-0.515625 -0.46875 -1.453125 -0.46875q-1.265625 0 -2.578125 0.765625q-1.3125 0.765625 -2.046875 2.015625q-0.71875 1.234375 -1.265625 3.812502l-1.6875 8.046875l-2.828125 0l2.34375 -11.203127q0.25 -1.140625 0.25 -1.625q0 -0.8125 -0.515625 -1.3125q-0.5 -0.5 -1.3125 -0.5q-1.203125 0 -2.53125 0.765625q-1.3125 0.765625 -2.140625 2.140625q-0.828125 1.359375 -1.359375 3.890627l-1.640625 7.84375l-2.828125 0zm30.6875 -19.703127l0.671875 -3.203125l2.8125 0l-0.671875 3.203125l-2.8125 0zm-4.125 19.703127l3.46875 -16.593752l2.828125 0l-3.46875 16.593752l-2.828125 0zm18.671875 -6.046875l2.828125 0.296875q-1.0625 3.109375 -3.03125 4.625q-1.953125 1.5 -4.453125 1.5q-2.703125 0 -4.390625 -1.75q-1.671875 -1.75 -1.671875 -4.890625q0 -2.71875 1.078125 -5.343752q1.078125 -2.625 3.078125 -3.984375q2.015625 -1.375 4.59375 -1.375q2.671875 0 4.234375 1.515625q1.5625 1.5 1.5625 3.984375l-2.78125 0.1875q-0.015625 -1.578125 -0.921875 -2.46875q-0.890625 -0.890625 -2.359375 -0.890625q-1.703125 0 -2.953125 1.078125q-1.25 1.078125 -1.96875 3.28125q-0.703125 2.187502 -0.703125 4.218752q0 2.125 0.9375 3.1875q0.9375 1.0625 2.3125 1.0625q1.375 0 2.625 -1.046875q1.265625 -1.046875 1.984375 -3.1875zm13.9375 -0.25q0 -4.859377 2.859375 -8.046877q2.359375 -2.625 6.1875 -2.625q3.0 0 4.828125 1.875q1.84375 1.875 1.84375 5.0625q0 2.859377 -1.15625 5.328127q-1.15625 2.453125 -3.296875 3.765625q-2.125 1.3125 -4.484375 1.3125q-1.9375 0 -3.53125 -0.828125q-1.578125 -0.828125 -2.421875 -2.34375q-0.828125 -1.515625 -0.828125 -3.5zm2.828125 -0.28125q0 2.34375 1.125 3.5625q1.125 1.203125 2.859375 1.203125q0.90625 0 1.796875 -0.359375q0.890625 -0.375 1.65625 -1.125q0.765625 -0.75 1.296875 -1.703125q0.546875 -0.96875 0.875 -2.078125q0.484375 -1.546875 0.484375 -2.968752q0 -2.25 -1.140625 -3.484375q-1.125 -1.25 -2.84375 -1.25q-1.328125 0 -2.421875 0.640625q-1.09375 0.625 -1.984375 1.84375q-0.875 1.21875 -1.296875 2.84375q-0.40625 1.6093769 -0.40625 2.875002zm14.46875 6.578125l4.78125 -22.906252l2.828125 0l-1.703125 8.1875q1.34375 -1.234375 2.4375 -1.734375q1.09375 -0.515625 2.28125 -0.515625q2.328125 0 3.875 1.734375q1.5625 1.734375 1.5625 5.046875q0 2.203127 -0.625 4.031252q-0.625 1.828125 -1.546875 3.078125q-0.921875 1.234375 -1.90625 1.984375q-0.984375 0.734375 -2.015625 1.09375q-1.03125 0.375 -1.984375 0.375q-1.640625 0 -2.890625 -0.859375q-1.25 -0.875 -1.953125 -2.65625l-0.65625 3.140625l-2.484375 0zm4.1875 -6.8125l-0.015625 0.53125q0 2.125 1.015625 3.234375q1.015625 1.109375 2.53125 1.109375q1.484375 0 2.71875 -1.03125q1.25 -1.046875 2.046875 -3.25q0.796875 -2.203125 0.796875 -4.062502q0 -2.09375 -1.015625 -3.25q-1.0 -1.15625 -2.484375 -1.15625q-1.53125 0 -2.8125 1.1875q-1.28125 1.171875 -2.140625 3.625q-0.640625 1.8281269 -0.640625 3.062502zm17.625 -12.890627l0.671875 -3.203125l2.796875 0l-0.671875 3.203125l-2.796875 0zm-8.953125 25.937502l0.5 -2.40625q0.96875 0.265625 1.71875 0.265625q0.90625 0 1.453125 -0.609375q0.53125 -0.59375 1.109375 -3.328125l3.484375 -16.750002l2.828125 0l-3.59375 17.265627q-0.671875 3.234375 -1.546875 4.40625q-1.171875 1.5625 -3.265625 1.5625q-1.109375 0 -2.6875 -0.40625zm24.234375 -11.875l2.75 0.28125q-0.59375 2.046875 -2.734375 3.890625q-2.125 1.84375 -5.078125 1.84375q-1.84375 0 -3.390625 -0.84375q-1.53125 -0.859375 -2.34375 -2.484375q-0.796875 -1.625 -0.796875 -3.703125q0 -2.718752 1.25 -5.265627q1.265625 -2.5625 3.265625 -3.796875q2.0 -1.25 4.328125 -1.25q2.96875 0 4.734375 1.84375q1.78125 1.84375 1.78125 5.03125q0 1.2187519 -0.21875 2.500002l-12.21875 0q-0.0625 0.484375 -0.0625 0.875q0 2.328125 1.0625 3.5625q1.078125 1.21875 2.625 1.21875q1.453125 0 2.859375 -0.953125q1.40625 -0.953125 2.1875 -2.75zm-8.21875 -4.109377l9.3125 0q0.015625 -0.4375 0.015625 -0.625q0 -2.125 -1.0625 -3.25q-1.0625 -1.140625 -2.734375 -1.140625q-1.8125 0 -3.3125 1.25q-1.484375 1.25 -2.21875 3.765625zm25.28125 3.703127l2.828125 0.296875q-1.0625 3.109375 -3.03125 4.625q-1.953125 1.5 -4.453125 1.5q-2.703125 0 -4.390625 -1.75q-1.671875 -1.75 -1.671875 -4.890625q0 -2.71875 1.078125 -5.343752q1.078125 -2.625 3.078125 -3.984375q2.015625 -1.375 4.59375 -1.375q2.671875 0 4.234375 1.515625q1.5625 1.5 1.5625 3.984375l-2.78125 0.1875q-0.015625 -1.578125 -0.921875 -2.46875q-0.890625 -0.890625 -2.359375 -0.890625q-1.703125 0 -2.953125 1.078125q-1.25 1.078125 -1.96875 3.28125q-0.703125 2.187502 -0.703125 4.218752q0 2.125 0.9375 3.1875q0.9375 1.0625 2.3125 1.0625q1.375 0 2.625 -1.046875q1.265625 -1.046875 1.984375 -3.1875zm11.15625 3.75l-0.46875 2.3125q-1.015625 0.265625 -1.96875 0.265625q-1.6875 0 -2.6875 -0.828125q-0.75 -0.625 -0.75 -1.703125q0 -0.546875 0.40625 -2.515625l2.015625 -9.640627l-2.234375 0l0.453125 -2.1875l2.234375 0l0.859375 -4.078125l3.234375 -1.953125l-1.265625 6.03125l2.78125 0l-0.46875 2.1875l-2.765625 0l-1.921875 9.171877q-0.359375 1.75 -0.359375 2.09375q0 0.5 0.28125 0.765625q0.296875 0.265625 0.953125 0.265625q0.9375 0 1.671875 -0.1875zm2.546875 -3.375l2.828125 -0.171875q0 1.21875 0.375 2.078125q0.375 0.859375 1.375 1.40625q1.015625 0.546875 2.359375 0.546875q1.875 0 2.8125 -0.75q0.9375 -0.75 0.9375 -1.765625q0 -0.734375 -0.5625 -1.390625q-0.578125 -0.65625 -2.828125 -1.609375q-2.234375 -0.96875 -2.859375 -1.359375q-1.046875 -0.6406269 -1.578125 -1.5000019q-0.53125 -0.875 -0.53125 -2.0q0 -1.96875 1.5625 -3.375q1.5625 -1.40625 4.375 -1.40625q3.125 0 4.75 1.453125q1.640625 1.4375 1.703125 3.796875l-2.765625 0.1875q-0.0625 -1.5 -1.0625 -2.375q-1.0 -0.875 -2.828125 -0.875q-1.46875 0 -2.28125 0.671875q-0.8125 0.671875 -0.8125 1.453125q0 0.78125 0.703125 1.375q0.46875 0.40625 2.421875 1.25q3.25 1.4062519 4.09375 2.218752q1.34375 1.296875 1.34375 3.15625q0 1.234375 -0.765625 2.421875q-0.75 1.1875 -2.3125 1.90625q-1.546875 0.703125 -3.65625 0.703125q-2.875 0 -4.890625 -1.421875q-2.015625 -1.421875 -1.90625 -4.625zm19.296875 -7.718752l0.671875 -3.203125l3.1875 0l-0.65625 3.203125l-3.203125 0zm-2.796875 13.390627l0.671875 -3.203125l3.203125 0l-0.6875 3.203125l-3.1875 0zm17.28125 -5.671875l2.828125 -0.171875q0 1.21875 0.375 2.078125q0.375 0.859375 1.375 1.40625q1.015625 0.546875 2.359375 0.546875q1.875 0 2.8125 -0.75q0.9375 -0.75 0.9375 -1.765625q0 -0.734375 -0.5625 -1.390625q-0.578125 -0.65625 -2.828125 -1.609375q-2.234375 -0.96875 -2.859375 -1.359375q-1.046875 -0.6406269 -1.578125 -1.5000019q-0.53125 -0.875 -0.53125 -2.0q0 -1.96875 1.5625 -3.375q1.5625 -1.40625 4.375 -1.40625q3.125 0 4.75 1.453125q1.640625 1.4375 1.703125 3.796875l-2.765625 0.1875q-0.0625 -1.5 -1.0625 -2.375q-1.0 -0.875 -2.828125 -0.875q-1.46875 0 -2.28125 0.671875q-0.8125 0.671875 -0.8125 1.453125q0 0.78125 0.703125 1.375q0.46875 0.40625 2.421875 1.25q3.25 1.4062519 4.09375 2.218752q1.34375 1.296875 1.34375 3.15625q0 1.234375 -0.765625 2.421875q-0.75 1.1875 -2.3125 1.90625q-1.546875 0.703125 -3.65625 0.703125q-2.875 0 -4.890625 -1.421875q-2.015625 -1.421875 -1.90625 -4.625zm19.75 -14.031252l0.671875 -3.203125l2.8125 0l-0.671875 3.203125l-2.8125 0zm-4.125 19.703127l3.46875 -16.593752l2.828125 0l-3.46875 16.593752l-2.828125 0zm7.21875 0l3.46875 -16.593752l2.5625 0l-0.609375 2.890625q1.671875 -1.703125 3.125 -2.484375q1.453125 -0.78125 2.96875 -0.78125q2.015625 0 3.15625 1.09375q1.15625 1.09375 1.15625 2.921875q0 0.921875 -0.40625 2.90625l-2.109375 10.046877l-2.828125 0l2.203125 -10.515627q0.328125 -1.53125 0.328125 -2.265625q0 -0.828125 -0.578125 -1.34375q-0.5625 -0.515625 -1.640625 -0.515625q-2.171875 0 -3.875 1.5625q-1.6875 1.5625 -2.484375 5.359377l-1.609375 7.71875l-2.828125 0zm17.640625 1.5l2.859375 0.265625q-0.03125 0.96875 0.234375 1.453125q0.265625 0.484375 0.84375 0.75q0.765625 0.34375 1.984375 0.34375q2.5625 0 3.6875 -1.328125q0.734375 -0.890625 1.359375 -3.875l0.28125 -1.34375q-2.203125 2.234375 -4.6875 2.234375q-2.515625 0 -4.21875 -1.84375q-1.6875 -1.859375 -1.6875 -5.25q0 -2.796877 1.328125 -5.140627q1.34375 -2.34375 3.1875 -3.53125q1.84375 -1.203125 3.796875 -1.203125q3.265625 0 5.03125 3.09375l0.5625 -2.71875l2.59375 0l-3.34375 16.015627q-0.546875 2.640625 -1.4375 4.109375q-0.890625 1.484375 -2.484375 2.296875q-1.578125 0.8125 -3.65625 0.8125q-2.0 0 -3.453125 -0.515625q-1.4375 -0.515625 -2.15625 -1.515625q-0.703125 -0.984375 -0.703125 -2.265625q0 -0.390625 0.078125 -0.84375zm3.53125 -8.84375q0 1.703125 0.328125 2.5625q0.46875 1.203125 1.328125 1.84375q0.875 0.625 1.9375 0.625q1.390625 0 2.765625 -0.96875q1.375 -0.984375 2.21875 -3.03125q0.859375 -2.046875 0.859375 -3.906252q0 -2.046875 -1.140625 -3.25q-1.125 -1.21875 -2.796875 -1.21875q-1.03125 0 -2.0 0.5625q-0.96875 0.546875 -1.8125 1.6875q-0.828125 1.125 -1.265625 2.703125q-0.421875 1.5781269 -0.421875 2.390627zm14.203125 7.34375l4.78125 -22.906252l2.828125 0l-4.78125 22.906252l-2.828125 0zm19.515625 -5.640625l2.75 0.28125q-0.59375 2.046875 -2.734375 3.890625q-2.125 1.84375 -5.078125 1.84375q-1.84375 0 -3.390625 -0.84375q-1.53125 -0.859375 -2.34375 -2.484375q-0.796875 -1.625 -0.796875 -3.703125q0 -2.718752 1.25 -5.265627q1.265625 -2.5625 3.265625 -3.796875q2.0 -1.25 4.328125 -1.25q2.96875 0 4.734375 1.84375q1.78125 1.84375 1.78125 5.03125q0 1.2187519 -0.21875 2.500002l-12.21875 0q-0.0625 0.484375 -0.0625 0.875q0 2.328125 1.0625 3.5625q1.078125 1.21875 2.625 1.21875q1.453125 0 2.859375 -0.953125q1.40625 -0.953125 2.1875 -2.75zm-8.21875 -4.109377l9.3125 0q0.015625 -0.4375 0.015625 -0.625q0 -2.125 -1.0625 -3.25q-1.0625 -1.140625 -2.734375 -1.140625q-1.8125 0 -3.3125 1.25q-1.484375 1.25 -2.21875 3.765625zm33.90625 7.343752q-2.421875 2.78125 -5.0625 2.78125q-2.359375 0 -3.9375 -1.734375q-1.5625 -1.75 -1.5625 -5.0625q0 -3.031252 1.234375 -5.531252q1.25 -2.515625 3.109375 -3.765625q1.875 -1.25 3.75 -1.25q3.09375 0 4.671875 2.984375l1.875 -8.921875l2.8125 0l-4.78125 22.906252l-2.609375 0l0.5 -2.40625zm-7.75 -4.546875q0 1.734375 0.34375 2.734375q0.34375 1.0 1.171875 1.671875q0.828125 0.65625 1.984375 0.65625q1.921875 0 3.484375 -2.0q2.09375 -2.65625 2.09375 -6.562502q0 -1.96875 -1.03125 -3.078125q-1.03125 -1.109375 -2.59375 -1.109375q-1.015625 0 -1.859375 0.453125q-0.828125 0.453125 -1.65625 1.546875q-0.8125 1.078125 -1.375 2.75q-0.5625 1.6718769 -0.5625 2.937502zm25.546875 4.890625q-1.46875 1.265625 -2.828125 1.859375q-1.359375 0.578125 -2.90625 0.578125q-2.296875 0 -3.703125 -1.34375q-1.40625 -1.359375 -1.40625 -3.46875q0 -1.390625 0.625 -2.453125q0.640625 -1.078125 1.6875 -1.71875q1.046875 -0.6562519 2.5625 -0.9375019q0.953125 -0.1875 3.609375 -0.296875q2.671875 -0.109375 3.828125 -0.5625q0.328125 -1.15625 0.328125 -1.921875q0 -0.984375 -0.71875 -1.546875q-0.984375 -0.78125 -2.875 -0.78125q-1.78125 0 -2.921875 0.796875q-1.125 0.78125 -1.640625 2.234375l-2.859375 -0.25q0.875 -2.46875 2.765625 -3.78125q1.90625 -1.3125 4.796875 -1.3125q3.078125 0 4.875 1.46875q1.375 1.09375 1.375 2.84375q0 1.328125 -0.390625 3.078125l-0.921875 4.125002q-0.4375 1.96875 -0.4375 3.203125q0 0.78125 0.34375 2.25l-2.859375 0q-0.234375 -0.8125 -0.328125 -2.0625zm1.046875 -6.34375q-0.59375 0.234375 -1.28125 0.359375q-0.671875 0.125 -2.265625 0.265625q-2.46875 0.21875 -3.484375 0.5625q-1.015625 0.328125 -1.53125 1.0625q-0.515625 0.734375 -0.515625 1.625q0 1.1875 0.8125 1.953125q0.828125 0.765625 2.34375 0.765625q1.40625 0 2.703125 -0.734375q1.296875 -0.75 2.046875 -2.078125q0.75 -1.328125 1.171875 -3.78125zm12.171875 6.109375l-0.46875 2.3125q-1.015625 0.265625 -1.96875 0.265625q-1.6875 0 -2.6875 -0.828125q-0.75 -0.625 -0.75 -1.703125q0 -0.546875 0.40625 -2.515625l2.015625 -9.640627l-2.234375 0l0.453125 -2.1875l2.234375 0l0.859375 -4.078125l3.234375 -1.953125l-1.265625 6.03125l2.78125 0l-0.46875 2.1875l-2.765625 0l-1.921875 9.171877q-0.359375 1.75 -0.359375 2.09375q0 0.5 0.28125 0.765625q0.296875 0.265625 0.953125 0.265625q0.9375 0 1.671875 -0.1875zm13.46875 0.234375q-1.46875 1.265625 -2.828125 1.859375q-1.359375 0.578125 -2.90625 0.578125q-2.296875 0 -3.703125 -1.34375q-1.40625 -1.359375 -1.40625 -3.46875q0 -1.390625 0.625 -2.453125q0.640625 -1.078125 1.6875 -1.71875q1.046875 -0.6562519 2.5625 -0.9375019q0.953125 -0.1875 3.609375 -0.296875q2.671875 -0.109375 3.828125 -0.5625q0.328125 -1.15625 0.328125 -1.921875q0 -0.984375 -0.71875 -1.546875q-0.984375 -0.78125 -2.875 -0.78125q-1.78125 0 -2.921875 0.796875q-1.125 0.78125 -1.640625 2.234375l-2.859375 -0.25q0.875 -2.46875 2.765625 -3.78125q1.90625 -1.3125 4.796875 -1.3125q3.078125 0 4.875 1.46875q1.375 1.09375 1.375 2.84375q0 1.328125 -0.390625 3.078125l-0.921875 4.125002q-0.4375 1.96875 -0.4375 3.203125q0 0.78125 0.34375 2.25l-2.859375 0q-0.234375 -0.8125 -0.328125 -2.0625zm1.046875 -6.34375q-0.59375 0.234375 -1.28125 0.359375q-0.671875 0.125 -2.265625 0.265625q-2.46875 0.21875 -3.484375 0.5625q-1.015625 0.328125 -1.53125 1.0625q-0.515625 0.734375 -0.515625 1.625q0 1.1875 0.8125 1.953125q0.828125 0.765625 2.34375 0.765625q1.40625 0 2.703125 -0.734375q1.296875 -0.75 2.046875 -2.078125q0.75 -1.328125 1.171875 -3.78125zm21.0625 6.109375l-0.46875 2.3125q-1.015625 0.265625 -1.96875 0.265625q-1.6875 0 -2.6875 -0.828125q-0.75 -0.625 -0.75 -1.703125q0 -0.546875 0.40625 -2.515625l2.015625 -9.640627l-2.234375 0l0.453125 -2.1875l2.234375 0l0.859375 -4.078125l3.234375 -1.953125l-1.265625 6.03125l2.78125 0l-0.46875 2.1875l-2.765625 0l-1.921875 9.171877q-0.359375 1.75 -0.359375 2.09375q0 0.5 0.28125 0.765625q0.296875 0.265625 0.953125 0.265625q0.9375 0 1.671875 -0.1875zm1.21875 8.703125l0.171875 -2.65625q0.875 0.25 1.703125 0.25q0.859375 0 1.390625 -0.390625q0.6875 -0.515625 1.5 -1.9375l0.90625 -1.625l-2.765625 -16.640627l2.78125 0l1.25 8.390627q0.375 2.484375 0.640625 4.96875l7.421875 -13.359377l2.953125 0l-10.578125 18.796877q-1.53125 2.75 -2.71875 3.640625q-1.1875 0.890625 -2.734375 0.890625q-0.984375 0 -1.921875 -0.328125zm15.671875 -0.046875l4.796875 -22.953127l2.609375 0l-0.484375 2.3125q1.453125 -1.515625 2.59375 -2.09375q1.15625 -0.59375 2.4375 -0.59375q2.375 0 3.9375 1.734375q1.5625 1.71875 1.5625 4.9375q0 2.593752 -0.859375 4.734377q-0.859375 2.125 -2.109375 3.421875q-1.25 1.296875 -2.53125 1.90625q-1.28125 0.609375 -2.625 0.609375q-2.984375 0 -4.625 -3.03125l-1.875 9.015625l-2.828125 0zm5.59375 -13.140625q0 1.859375 0.265625 2.578125q0.390625 1.015625 1.28125 1.640625q0.890625 0.625 2.0625 0.625q2.4375 0 3.9375 -2.734375q1.5 -2.75 1.5 -5.609377q0 -2.109375 -1.015625 -3.25q-1.0 -1.15625 -2.5 -1.15625q-1.078125 0 -2.0 0.578125q-0.921875 0.5625 -1.71875 1.703125q-0.78125 1.125 -1.296875 2.765625q-0.515625 1.6406269 -0.515625 2.859377zm25.78125 1.140625l2.75 0.28125q-0.59375 2.046875 -2.734375 3.890625q-2.125 1.84375 -5.078125 1.84375q-1.84375 0 -3.390625 -0.84375q-1.53125 -0.859375 -2.34375 -2.484375q-0.796875 -1.625 -0.796875 -3.703125q0 -2.718752 1.25 -5.265627q1.265625 -2.5625 3.265625 -3.796875q2.0 -1.25 4.328125 -1.25q2.96875 0 4.734375 1.84375q1.78125 1.84375 1.78125 5.03125q0 1.2187519 -0.21875 2.500002l-12.21875 0q-0.0625 0.484375 -0.0625 0.875q0 2.328125 1.0625 3.5625q1.078125 1.21875 2.625 1.21875q1.453125 0 2.859375 -0.953125q1.40625 -0.953125 2.1875 -2.75zm-8.21875 -4.109377l9.3125 0q0.015625 -0.4375 0.015625 -0.625q0 -2.125 -1.0625 -3.25q-1.0625 -1.140625 -2.734375 -1.140625q-1.8125 0 -3.3125 1.25q-1.484375 1.25 -2.21875 3.765625z" fill-rule="nonzero"/><path fill="#000000" fill-opacity="0.0" d="m65.49344 125.5958l110.77165 0l0 53.511803l-110.77165 0z" fill-rule="evenodd"/><path fill="#666666" d="m94.95259 165.3158l3.625 -17.296875q-2.34375 1.84375 -6.59375 2.953125l0.53125 -2.5625q2.109375 -0.84375 4.15625 -2.203125q2.0625 -1.359375 3.09375 -2.375q0.625 -0.625 1.1875 -1.515625l1.640625 0l-4.796875 23.0l-2.84375 0zm11.578125 -6.875l0.59375 -2.828125l8.625 0l-0.578125 2.828125l-8.640625 0zm21.421875 4.46875q-2.421875 2.78125 -5.0625 2.78125q-2.359375 0 -3.9375 -1.734375q-1.5625 -1.75 -1.5625 -5.0625q0 -3.03125 1.234375 -5.53125q1.25 -2.515625 3.109375 -3.765625q1.875 -1.25 3.75 -1.25q3.09375 0 4.671875 2.984375l1.875 -8.921875l2.8125 0l-4.78125 22.90625l-2.609375 0l0.5 -2.40625zm-7.75 -4.546875q0 1.734375 0.34375 2.734375q0.34375 1.0 1.171875 1.671875q0.828125 0.65625 1.984375 0.65625q1.921875 0 3.484375 -2.0q2.09375 -2.65625 2.09375 -6.5625q0 -1.96875 -1.03125 -3.078125q-1.03125 -1.109375 -2.59375 -1.109375q-1.015625 0 -1.859375 0.453125q-0.828125 0.453125 -1.65625 1.546875q-0.8125 1.078125 -1.375 2.75q-0.5625 1.671875 -0.5625 2.9375zm18.375 -12.75l0.671875 -3.203125l2.8125 0l-0.671875 3.203125l-2.8125 0zm-4.125 19.703125l3.46875 -16.59375l2.828125 0l-3.46875 16.59375l-2.828125 0zm7.203125 0l3.46875 -16.59375l2.828125 0l-0.578125 2.734375q1.578125 -1.765625 2.8125 -2.4375q1.25 -0.671875 2.703125 -0.671875q1.546875 0 2.578125 0.828125q1.046875 0.8125 1.375 2.28125q1.265625 -1.5625 2.65625 -2.328125q1.40625 -0.78125 2.953125 -0.78125q2.078125 0 3.109375 0.984375q1.046875 0.984375 1.046875 2.765625q0 0.765625 -0.359375 2.53125l-2.234375 10.6875l-2.828125 0l2.28125 -10.96875q0.296875 -1.34375 0.296875 -1.921875q0 -0.8125 -0.515625 -1.28125q-0.515625 -0.46875 -1.453125 -0.46875q-1.265625 0 -2.578125 0.765625q-1.3125 0.765625 -2.046875 2.015625q-0.71875 1.234375 -1.265625 3.8125l-1.6875 8.046875l-2.828125 0l2.34375 -11.203125q0.25 -1.140625 0.25 -1.625q0 -0.8125 -0.515625 -1.3125q-0.5 -0.5 -1.3125 -0.5q-1.203125 0 -2.53125 0.765625q-1.3125 0.765625 -2.140625 2.140625q-0.828125 1.359375 -1.359375 3.890625l-1.640625 7.84375l-2.828125 0z" fill-rule="nonzero"/><path fill="#000000" fill-opacity="0.0" d="m65.49344 321.44882l110.77165 0l0 53.51181l-110.77165 0z" fill-rule="evenodd"/><path fill="#666666" d="m89.124466 361.16882q0.4375 -2.046875 1.203125 -3.421875q0.78125 -1.390625 2.0625 -2.625q1.28125 -1.25 4.9375 -4.171875q2.21875 -1.765625 3.03125 -2.609375q1.171875 -1.21875 1.703125 -2.390625q0.359375 -0.796875 0.359375 -1.734375q0 -1.578125 -1.125 -2.671875q-1.109375 -1.109375 -2.734375 -1.109375q-1.609375 0 -2.8125 1.125q-1.203125 1.109375 -1.71875 3.578125l-2.765625 -0.40625q0.40625 -3.046875 2.359375 -4.796875q1.96875 -1.765625 4.890625 -1.765625q1.953125 0 3.53125 0.8125q1.59375 0.8125 2.390625 2.28125q0.796875 1.46875 0.796875 3.03125q0 2.28125 -1.625 4.390625q-1.0 1.3125 -5.875 5.171875q-2.09375 1.65625 -3.125 2.71875q-1.015625 1.0625 -1.53125 2.0l10.25 0l-0.546875 2.59375l-13.65625 0zm17.40625 -6.875l0.59375 -2.828125l8.625 0l-0.578125 2.828125l-8.640625 0zm21.421875 4.46875q-2.421875 2.78125 -5.0625 2.78125q-2.359375 0 -3.9375 -1.734375q-1.5625 -1.75 -1.5625 -5.0625q0 -3.03125 1.234375 -5.53125q1.25 -2.515625 3.109375 -3.765625q1.875 -1.25 3.75 -1.25q3.09375 0 4.671875 2.984375l1.875 -8.921875l2.8125 0l-4.78125 22.90625l-2.609375 0l0.5 -2.40625zm-7.75 -4.546875q0 1.734375 0.34375 2.734375q0.34375 1.0 1.171875 1.671875q0.828125 0.65625 1.984375 0.65625q1.921875 0 3.484375 -2.0q2.09375 -2.65625 2.09375 -6.5625q0 -1.96875 -1.03125 -3.078125q-1.03125 -1.109375 -2.59375 -1.109375q-1.015625 0 -1.859375 0.453125q-0.828125 0.453125 -1.65625 1.546875q-0.8125 1.078125 -1.375 2.75q-0.5625 1.671875 -0.5625 2.9375zm18.375 -12.75l0.671875 -3.203125l2.8125 0l-0.671875 3.203125l-2.8125 0zm-4.125 19.703125l3.46875 -16.59375l2.828125 0l-3.46875 16.59375l-2.828125 0zm7.203125 0l3.46875 -16.59375l2.828125 0l-0.578125 2.734375q1.578125 -1.765625 2.8125 -2.4375q1.25 -0.671875 2.703125 -0.671875q1.546875 0 2.578125 0.828125q1.046875 0.8125 1.375 2.28125q1.265625 -1.5625 2.65625 -2.328125q1.40625 -0.78125 2.953125 -0.78125q2.078125 0 3.109375 0.984375q1.046875 0.984375 1.046875 2.765625q0 0.765625 -0.359375 2.53125l-2.234375 10.6875l-2.828125 0l2.28125 -10.96875q0.296875 -1.34375 0.296875 -1.921875q0 -0.8125 -0.515625 -1.28125q-0.515625 -0.46875 -1.453125 -0.46875q-1.265625 0 -2.578125 0.765625q-1.3125 0.765625 -2.046875 2.015625q-0.71875 1.234375 -1.265625 3.8125l-1.6875 8.046875l-2.828125 0l2.34375 -11.203125q0.25 -1.140625 0.25 -1.625q0 -0.8125 -0.515625 -1.3125q-0.5 -0.5 -1.3125 -0.5q-1.203125 0 -2.53125 0.765625q-1.3125 0.765625 -2.140625 2.140625q-0.828125 1.359375 -1.359375 3.890625l-1.640625 7.84375l-2.828125 0z" fill-rule="nonzero"/><path fill="#000000" fill-opacity="0.0" d="m72.08662 556.19946l110.771645 0l0 53.51184l-110.771645 0z" fill-rule="evenodd"/><path fill="#666666" d="m94.90514 595.9195l3.46875 -16.59375l2.5625 0l-0.609375 2.890625q1.671875 -1.703125 3.125 -2.484375q1.453125 -0.78125 2.96875 -0.78125q2.015625 0 3.15625 1.09375q1.15625 1.09375 1.15625 2.921875q0 0.921875 -0.40625 2.90625l-2.109375 10.046875l-2.828125 0l2.203125 -10.515625q0.328125 -1.53125 0.328125 -2.265625q0 -0.828125 -0.578125 -1.34375q-0.5625 -0.515625 -1.640625 -0.515625q-2.171875 0 -3.875 1.5625q-1.6875 1.5625 -2.484375 5.359375l-1.609375 7.71875l-2.828125 0zm18.21875 -6.875l0.59375 -2.828125l8.625 0l-0.578125 2.828125l-8.640625 0zm21.421867 4.46875q-2.421875 2.78125 -5.0625 2.78125q-2.3593674 0 -3.9374924 -1.734375q-1.5625 -1.75 -1.5625 -5.0625q0 -3.03125 1.234375 -5.53125q1.25 -2.515625 3.1093674 -3.765625q1.875 -1.25 3.75 -1.25q3.09375 0 4.671875 2.984375l1.875 -8.921875l2.8125 0l-4.78125 22.90625l-2.609375 0l0.5 -2.40625zm-7.7499924 -4.546875q0 1.734375 0.34375 2.734375q0.34375 1.0 1.1718674 1.671875q0.828125 0.65625 1.984375 0.65625q1.921875 0 3.484375 -2.0q2.09375 -2.65625 2.09375 -6.5625q0 -1.96875 -1.03125 -3.078125q-1.03125 -1.109375 -2.59375 -1.109375q-1.015625 0 -1.859375 0.453125q-0.828125 0.453125 -1.65625 1.546875q-0.8124924 1.078125 -1.3749924 2.75q-0.5625 1.671875 -0.5625 2.9375zm18.374992 -12.75l0.671875 -3.203125l2.8125 0l-0.671875 3.203125l-2.8125 0zm-4.125 19.703125l3.46875 -16.59375l2.828125 0l-3.46875 16.59375l-2.828125 0zm7.203125 0l3.46875 -16.59375l2.828125 0l-0.578125 2.734375q1.578125 -1.765625 2.8125 -2.4375q1.25 -0.671875 2.703125 -0.671875q1.546875 0 2.578125 0.828125q1.046875 0.8125 1.375 2.28125q1.265625 -1.5625 2.65625 -2.328125q1.40625 -0.78125 2.953125 -0.78125q2.078125 0 3.109375 0.984375q1.046875 0.984375 1.046875 2.765625q0 0.765625 -0.359375 2.53125l-2.234375 10.6875l-2.828125 0l2.28125 -10.96875q0.296875 -1.34375 0.296875 -1.921875q0 -0.8125 -0.515625 -1.28125q-0.515625 -0.46875 -1.453125 -0.46875q-1.265625 0 -2.578125 0.765625q-1.3125 0.765625 -2.046875 2.015625q-0.71875 1.234375 -1.265625 3.8125l-1.6875 8.046875l-2.828125 0l2.34375 -11.203125q0.25 -1.140625 0.25 -1.625q0 -0.8125 -0.515625 -1.3125q-0.5 -0.5 -1.3125 -0.5q-1.203125 0 -2.53125 0.765625q-1.3125 0.765625 -2.140625 2.140625q-0.828125 1.359375 -1.359375 3.890625l-1.640625 7.84375l-2.828125 0z" fill-rule="nonzero"/><path fill="#000000" fill-opacity="0.0" d="m13.902887 509.90027l0 -272.22046l53.70079 0l0 272.22046z" fill-rule="evenodd"/><path fill="#666666" d="m51.216637 442.46973q2.78125 2.421875 2.78125 5.0625q0 2.359375 -1.734375 3.9375q-1.75 1.5625 -5.0625 1.5625q-3.03125 0 -5.53125 -1.234375q-2.515625 -1.25 -3.765625 -3.109375q-1.25 -1.875 -1.25 -3.75q0 -3.09375 2.984375 -4.671875l-8.921873 -1.875l0 -2.8125l22.906248 4.78125l0 2.609375l-2.40625 -0.5zm-4.546875 7.75q1.734375 0 2.734375 -0.34375q1.0 -0.34375 1.671875 -1.171875q0.65625 -0.828125 0.65625 -1.984375q0 -1.921875 -2.0 -3.484375q-2.65625 -2.09375 -6.5625 -2.09375q-1.96875 0 -3.078125 1.03125q-1.109375 1.03125 -1.109375 2.59375q0 1.015625 0.453125 1.859375q0.453125 0.828125 1.546875 1.65625q1.078125 0.8125 2.75 1.375q1.671875 0.5625 2.9375 0.5625zm-12.75 -18.375l-3.203123 -0.671875l0 -2.8125l3.203123 0.671875l0 2.8125zm19.703125 4.125l-16.59375 -3.46875l0 -2.828125l16.59375 3.46875l0 2.828125zm0 -7.203125l-16.59375 -3.46875l0 -2.828125l2.734375 0.578125q-1.765625 -1.578125 -2.4375 -2.8125q-0.671875 -1.25 -0.671875 -2.703125q0 -1.546875 0.828125 -2.578125q0.8125 -1.046875 2.28125 -1.375q-1.5625 -1.265625 -2.328125 -2.65625q-0.78125 -1.40625 -0.78125 -2.953125q0 -2.078125 0.984375 -3.109375q0.984375 -1.046875 2.765625 -1.046875q0.765625 0 2.53125 0.359375l10.6875 2.234375l0 2.828125l-10.96875 -2.28125q-1.34375 -0.296875 -1.921875 -0.296875q-0.8125 0 -1.28125 0.515625q-0.46875 0.515625 -0.46875 1.453125q0 1.265625 0.765625 2.578125q0.765625 1.3125 2.015625 2.046875q1.234375 0.71875 3.8125 1.265625l8.046875 1.6875l0 2.828125l-11.203125 -2.34375q-1.140625 -0.25 -1.625 -0.25q-0.8125 0 -1.3125 0.515625q-0.5 0.5 -0.5 1.3125q0 1.203125 0.765625 2.53125q0.765625 1.3125 2.140625 2.140625q1.359375 0.828125 3.890625 1.359375l7.84375 1.640625l0 2.828125zm-5.640625 -38.859375l0.28125 -2.75q2.046875 0.59375 3.890625 2.734375q1.84375 2.125 1.84375 5.078125q0 1.84375 -0.84375 3.390625q-0.859375 1.53125 -2.484375 2.34375q-1.625 0.796875 -3.703125 0.796875q-2.71875 0 -5.265625 -1.25q-2.5625 -1.265625 -3.796875 -3.265625q-1.25 -2.0 -1.25 -4.328125q0 -2.96875 1.84375 -4.734375q1.84375 -1.78125 5.03125 -1.78125q1.21875 0 2.5 0.21875l0 12.21875q0.484375 0.0625 0.875 0.0625q2.328125 0 3.5625 -1.0625q1.21875 -1.078125 1.21875 -2.625q0 -1.453125 -0.953125 -2.859375q-0.953125 -1.40625 -2.75 -2.1875zm-4.109375 8.21875l0 -9.3125q-0.4375 -0.015625 -0.625 -0.015625q-2.125 0 -3.25 1.0625q-1.140625 1.0625 -1.140625 2.734375q0 1.8125 1.25 3.3125q1.25 1.484375 3.765625 2.21875zm9.75 -13.828125l-16.59375 -3.46875l0 -2.5625l2.890625 0.609375q-1.703125 -1.671875 -2.484375 -3.125q-0.78125 -1.453125 -0.78125 -2.96875q0 -2.015625 1.09375 -3.15625q1.09375 -1.15625 2.921875 -1.15625q0.921875 0 2.90625 0.40625l10.046875 2.109375l0 2.828125l-10.515625 -2.203125q-1.53125 -0.328125 -2.265625 -0.328125q-0.828125 0 -1.34375 0.578125q-0.515625 0.5625 -0.515625 1.640625q0 2.171875 1.5625 3.875q1.5625 1.6875 5.359375 2.484375l7.71875 1.609375l0 2.828125zm-5.671875 -18.0625l-0.171875 -2.828125q1.21875 0 2.078125 -0.375q0.859375 -0.375 1.40625 -1.375q0.546875 -1.015625 0.546875 -2.359375q0 -1.875 -0.75 -2.8125q-0.75 -0.9375 -1.765625 -0.9375q-0.734375 0 -1.390625 0.5625q-0.65625 0.578125 -1.609375 2.828125q-0.96875 2.234375 -1.359375 2.859375q-0.640625 1.046875 -1.5 1.578125q-0.875 0.53125 -2.0 0.53125q-1.96875 0 -3.375 -1.5625q-1.40625 -1.5625 -1.40625 -4.375q0 -3.125 1.453125 -4.75q1.4375 -1.640625 3.796875 -1.703125l0.1875 2.765625q-1.5 0.0625 -2.375 1.0625q-0.875 1.0 -0.875 2.828125q0 1.46875 0.671875 2.28125q0.671875 0.8125 1.453125 0.8125q0.78125 0 1.375 -0.703125q0.40625 -0.46875 1.25 -2.421875q1.40625 -3.25 2.21875 -4.09375q1.296875 -1.34375 3.15625 -1.34375q1.234375 0 2.421875 0.765625q1.1875 0.75 1.90625 2.3125q0.703125 1.546875 0.703125 3.65625q0 2.875 -1.421875 4.890625q-1.421875 2.015625 -4.625 1.90625zm-14.03125 -19.75l-3.203123 -0.671875l0 -2.8125l3.203123 0.671875l0 2.8125zm19.703125 4.125l-16.59375 -3.46875l0 -2.828125l16.59375 3.46875l0 2.828125zm-6.296875 -7.71875q-4.859375 0 -8.046875 -2.859375q-2.625 -2.359375 -2.625 -6.1875q0 -3.0 1.875 -4.828125q1.875 -1.84375 5.0625 -1.84375q2.859375 0 5.328125 1.15625q2.453125 1.15625 3.765625 3.296875q1.3125 2.125 1.3125 4.484375q0 1.9375 -0.828125 3.53125q-0.828125 1.578125 -2.34375 2.421875q-1.515625 0.828125 -3.5 0.828125zm-0.28125 -2.828125q2.34375 0 3.5625 -1.125q1.203125 -1.125 1.203125 -2.859375q0 -0.90625 -0.359375 -1.796875q-0.375 -0.890625 -1.125 -1.65625q-0.75 -0.765625 -1.703125 -1.296875q-0.96875 -0.546875 -2.078125 -0.875q-1.546875 -0.484375 -2.96875 -0.484375q-2.25 0 -3.484375 1.140625q-1.25 1.125 -1.25 2.84375q0 1.328125 0.640625 2.421875q0.625 1.09375 1.84375 1.984375q1.21875 0.875 2.84375 1.296875q1.609375 0.40625 2.875 0.40625zm6.578125 -14.46875l-16.59375 -3.46875l0 -2.5625l2.890625 0.609375q-1.703125 -1.671875 -2.484375 -3.125q-0.78125 -1.453125 -0.78125 -2.96875q0 -2.015625 1.09375 -3.15625q1.09375 -1.15625 2.921875 -1.15625q0.921875 0 2.90625 0.40625l10.046875 2.109375l0 2.828125l-10.515625 -2.203125q-1.53125 -0.328125 -2.265625 -0.328125q-0.828125 0 -1.34375 0.578125q-0.515625 0.5625 -0.515625 1.640625q0 2.171875 1.5625 3.875q1.5625 1.6875 5.359375 2.484375l7.71875 1.609375l0 2.828125zm-5.671875 -18.0625l-0.171875 -2.828125q1.21875 0 2.078125 -0.375q0.859375 -0.375 1.40625 -1.375q0.546875 -1.015625 0.546875 -2.359375q0 -1.875 -0.75 -2.8125q-0.75 -0.9375 -1.765625 -0.9375q-0.734375 0 -1.390625 0.5625q-0.65625 0.578125 -1.609375 2.828125q-0.96875 2.234375 -1.359375 2.859375q-0.640625 1.046875 -1.5 1.578125q-0.875 0.53125 -2.0 0.53125q-1.96875 0 -3.375 -1.5625q-1.40625 -1.5625 -1.40625 -4.375q0 -3.125 1.453125 -4.75q1.4375 -1.640625 3.796875 -1.703125l0.1875 2.765625q-1.5 0.0625 -2.375 1.0625q-0.875 1.0 -0.875 2.828125q0 1.46875 0.671875 2.28125q0.671875 0.8125 1.453125 0.8125q0.78125 0 1.375 -0.703125q0.40625 -0.46875 1.25 -2.421875q1.40625 -3.25 2.21875 -4.09375q1.296875 -1.34375 3.15625 -1.34375q1.234375 0 2.421875 0.765625q1.1875 0.75 1.90625 2.3125q0.703125 1.546875 0.703125 3.65625q0 2.875 -1.421875 4.890625q-1.421875 2.015625 -4.625 1.90625z" fill-rule="nonzero"/></g></svg>