<svg version="1.1" viewBox="0.0 0.0 840.6062992125984 326.66141732283467" fill="none" stroke="none" stroke-linecap="square" stroke-miterlimit="10" xmlns:xlink="http://www.w3.org/1999/xlink" xmlns="http://www.w3.org/2000/svg"><clipPath id="p.0"><path d="m0 0l840.6063 0l0 326.6614l-840.6063 0l0 -326.6614z" clip-rule="nonzero"/></clipPath><g clip-path="url(#p.0)"><path fill="#000000" fill-opacity="0.0" d="m0 0l840.6063 0l0 326.6614l-840.6063 0z" fill-rule="evenodd"/><path fill="#000000" fill-opacity="0.0" d="m41.815777 23.56179l165.88976 0l0 53.039368l-165.88976 0z" fill-rule="evenodd"/><path fill="#434343" d="m65.4677 40.398666l0 12.796875l0.40625 0q0.859375 0 1.234375 0.34375q0.375 0.328125 0.375 0.859375q0 0.53125 -0.375 0.875q-0.359375 0.328125 -1.234375 0.328125l-2.8125038 0l0 -0.59375q-0.8125 0.484375 -1.71875 0.734375q-0.890625 0.25 -1.859375 0.25q-2.703125 0 -4.359375 -1.5625q-1.640625 -1.578125 -1.640625 -3.90625q0 -2.4375 1.734375 -4.15625q1.734375 -1.71875 4.21875 -1.71875q0.9375 0 1.84375 0.28125q0.90625 0.28125 1.78125 0.859375l0 -2.984375l-0.40625 0q-0.875 0 -1.25 -0.328125q-0.359375 -0.34375 -0.359375 -0.875q0 -0.53125 0.359375 -0.859375q0.375 -0.34375 1.25 -0.34375l2.8125038 0zm-2.4062538 10.203125q0 -1.5 -1.046875 -2.53125q-1.03125 -1.03125 -2.546875 -1.03125q-1.5 0 -2.546875 1.03125q-1.046875 1.03125 -1.046875 2.484375q0 1.328125 0.9375 2.1875q0.9375 0.84375 2.65625 0.84375q1.703125 0 2.640625 -0.84375q0.953125 -0.859375 0.953125 -2.140625zm13.449223 5.0l0 -0.5625q-0.890625 0.484375 -1.984375 0.71875q-1.09375 0.25 -1.984375 0.25q-1.9375 0 -3.140625 -1.03125q-1.203125 -1.03125 -1.203125 -2.265625q0 -1.515625 1.53125 -2.8125q1.546875 -1.296875 4.265625 -1.296875q1.09375 0 2.515625 0.234375l0 -0.578125q0 -0.53125 -0.46875 -0.875q-0.453125 -0.34375 -1.75 -0.34375q-1.0625 0 -2.765625 0.421875q-0.640625 0.15625 -0.984375 0.15625q-0.484375 0 -0.828125 -0.34375q-0.328125 -0.34375 -0.328125 -0.890625q0 -0.296875 0.109375 -0.515625q0.125 -0.234375 0.328125 -0.359375q0.21875 -0.140625 0.890625 -0.328125q0.890625 -0.25 1.8125 -0.390625q0.9375 -0.140625 1.6875 -0.140625q2.234375 0 3.46875 0.96875q1.234375 0.953125 1.234375 2.640625l0 4.9375l0.40625 0q0.875 0 1.234375 0.34375q0.375 0.328125 0.375 0.859375q0 0.53125 -0.375 0.875q-0.359375 0.328125 -1.234375 0.328125l-2.8125 0zm0 -4.296875q-1.4375 -0.28125 -2.65625 -0.28125q-1.46875 0 -2.515625 0.703125q-0.65625 0.46875 -0.65625 0.9375q0 0.328125 0.3125 0.546875q0.59375 0.390625 1.609375 0.390625q0.859375 0 1.953125 -0.34375q1.109375 -0.34375 1.953125 -0.921875l0 -1.03125zm11.652344 -3.9375l0 4.8125q0 0.765625 0.3125 1.015625q0.5 0.390625 1.765625 0.390625q1.84375 0 3.390625 -0.78125q0.609375 -0.3125 0.9375 -0.3125q0.46875 0 0.8125 0.359375q0.359375 0.34375 0.359375 0.84375q0 0.46875 -0.375 0.8125q-0.578125 0.546875 -2.28125 1.015625q-1.6875 0.46875 -2.84375 0.46875q-2.234375 0 -3.359375 -0.96875q-1.125 -0.96875 -1.125 -2.375l0 -5.28125l-0.859375 0q-0.875 0 -1.25 -0.328125q-0.359375 -0.34375 -0.359375 -0.890625q0 -0.515625 0.359375 -0.84375q0.375 -0.34375 1.25 -0.34375l0.859375 0l0 -2.171875q0 -0.859375 0.328125 -1.234375q0.34375 -0.375 0.890625 -0.375q0.515625 0 0.84375 0.375q0.34375 0.375 0.34375 1.234375l0 2.171875l4.4375 0q0.875 0 1.234375 0.34375q0.375 0.328125 0.375 0.859375q0 0.53125 -0.375 0.875q-0.359375 0.328125 -1.234375 0.328125l-4.4375 0zm16.167969 -4.53125l0 14.109375l1.453125 0q0.875 0 1.234375 0.328125q0.375 0.328125 0.375 0.875q0 0.53125 -0.375 0.859375q-0.359375 0.34375 -1.234375 0.34375l-3.84375 0l0 -18.921875l3.84375 0q0.859375 0 1.21875 0.34375q0.375 0.328125 0.375 0.875q0 0.515625 -0.375 0.859375q-0.359375 0.328125 -1.21875 0.328125l-1.453125 0zm18.261719 7.046875l-10.03125 0l0 -2.1875l10.03125 0l0 2.1875zm7.1210938 3.3125l5.265625 0q0.4375 -0.34375 0.828125 -0.34375q0.546875 0 0.859375 0.359375q0.328125 0.359375 0.328125 1.234375l0 1.15625l-10.9375 0l0 -2.546875q6.484375 -5.359375 7.828125 -6.890625q0.6875 -0.78125 0.6875 -1.484375q0 -0.875 -0.765625 -1.546875q-0.765625 -0.6875 -2.046875 -0.6875q-1.296875 0 -2.140625 0.75q-0.453125 0.40625 -0.71875 1.1875q-0.171875 0.5 -0.453125 0.71875q-0.28125 0.203125 -0.703125 0.203125q-0.5 0 -0.859375 -0.34375q-0.359375 -0.359375 -0.359375 -0.828125q0 -0.703125 0.65625 -1.75q0.65625 -1.0625 1.890625 -1.6875q1.25 -0.640625 2.71875 -0.640625q2.28125 0 3.734375 1.375q1.453125 1.375 1.453125 3.328125q0 1.0 -0.421875 1.859375q-0.421875 0.84375 -2.0 2.34375q-1.234375 1.171875 -4.84375 4.234375zm16.089844 -0.828125l3.203125 0l-3.453125 6.515625q-0.3125 0.578125 -0.765625 0.578125q-0.296875 0 -0.515625 -0.203125q-0.21875 -0.203125 -0.21875 -0.4375q0 -0.1875 0.078125 -0.484375l1.671875 -5.96875zm19.996094 -2.484375l-10.03125 0l0 -2.1875l10.03125 0l0 2.1875zm7.1210938 3.3125l5.265625 0q0.4375 -0.34375 0.828125 -0.34375q0.546875 0 0.859375 0.359375q0.328125 0.359375 0.328125 1.234375l0 1.15625l-10.9375 0l0 -2.546875q6.484375 -5.359375 7.828125 -6.890625q0.6875 -0.78125 0.6875 -1.484375q0 -0.875 -0.765625 -1.546875q-0.765625 -0.6875 -2.046875 -0.6875q-1.296875 0 -2.140625 0.75q-0.453125 0.40625 -0.71875 1.1875q-0.171875 0.5 -0.453125 0.71875q-0.28125 0.203125 -0.703125 0.203125q-0.5 0 -0.859375 -0.34375q-0.359375 -0.359375 -0.359375 -0.828125q0 -0.703125 0.65625 -1.75q0.65625 -1.0625 1.890625 -1.6875q1.25 -0.640625 2.71875 -0.640625q2.28125 0 3.734375 1.375q1.453125 1.375 1.453125 3.328125q0 1.0 -0.421875 1.859375q-0.421875 0.84375 -2.0 2.34375q-1.234375 1.171875 -4.84375 4.234375zm15.480469 3.75l0 -14.109375l-1.453125 0q-0.875 0 -1.25 -0.328125q-0.359375 -0.34375 -0.359375 -0.859375q0 -0.546875 0.359375 -0.875q0.375 -0.34375 1.25 -0.34375l3.84375 0l0 18.921875l-3.84375 0q-0.859375 0 -1.234375 -0.34375q-0.359375 -0.328125 -0.359375 -0.859375q0 -0.53125 0.359375 -0.875q0.375 -0.328125 1.234375 -0.328125l1.453125 0z" fill-rule="nonzero"/><path fill="#000000" fill-opacity="0.0" d="m327.38583 7.56168l196.31497 0l0 75.74803l-196.31497 0z" fill-rule="evenodd"/><path fill="#434343" d="m359.04916 24.398556l0 12.796875l0.40625 0q0.859375 0 1.234375 0.34375q0.375 0.328125 0.375 0.859375q0 0.53125 -0.375 0.875q-0.359375 0.328125 -1.234375 0.328125l-2.8125 0l0 -0.59375q-0.8125 0.484375 -1.71875 0.734375q-0.890625 0.25 -1.859375 0.25q-2.703125 0 -4.359375 -1.5625q-1.640625 -1.578125 -1.640625 -3.90625q0 -2.4375 1.734375 -4.15625q1.734375 -1.71875 4.21875 -1.71875q0.9375 0 1.84375 0.28125q0.90625 0.28125 1.78125 0.859375l0 -2.984375l-0.40625 0q-0.875 0 -1.25 -0.328125q-0.359375 -0.34375 -0.359375 -0.875q0 -0.53125 0.359375 -0.859375q0.375 -0.34375 1.25 -0.34375l2.8125 0zm-2.40625 10.203125q0 -1.5 -1.046875 -2.53125q-1.03125 -1.03125 -2.546875 -1.03125q-1.5 0 -2.546875 1.03125q-1.046875 1.03125 -1.046875 2.484375q0 1.328125 0.9375 2.1875q0.9375 0.84375 2.65625 0.84375q1.703125 0 2.640625 -0.84375q0.953125 -0.859375 0.953125 -2.140625zm13.449219 5.0l0 -0.5625q-0.890625 0.484375 -1.984375 0.71875q-1.09375 0.25 -1.984375 0.25q-1.9375 0 -3.140625 -1.03125q-1.203125 -1.03125 -1.203125 -2.265625q0 -1.515625 1.53125 -2.8125q1.546875 -1.296875 4.265625 -1.296875q1.09375 0 2.515625 0.234375l0 -0.578125q0 -0.53125 -0.46875 -0.875q-0.453125 -0.34375 -1.75 -0.34375q-1.0625 0 -2.765625 0.421875q-0.640625 0.15625 -0.984375 0.15625q-0.484375 0 -0.828125 -0.34375q-0.328125 -0.34375 -0.328125 -0.890625q0 -0.296875 0.109375 -0.515625q0.125 -0.234375 0.328125 -0.359375q0.21875 -0.140625 0.890625 -0.328125q0.890625 -0.25 1.8125 -0.390625q0.9375 -0.140625 1.6875 -0.140625q2.234375 0 3.46875 0.96875q1.234375 0.953125 1.234375 2.640625l0 4.9375l0.40625 0q0.875 0 1.234375 0.34375q0.375 0.328125 0.375 0.859375q0 0.53125 -0.375 0.875q-0.359375 0.328125 -1.234375 0.328125l-2.8125 0zm0 -4.296875q-1.4375 -0.28125 -2.65625 -0.28125q-1.46875 0 -2.515625 0.703125q-0.65625 0.46875 -0.65625 0.9375q0 0.328125 0.3125 0.546875q0.59375 0.390625 1.609375 0.390625q0.859375 0 1.953125 -0.34375q1.109375 -0.34375 1.953125 -0.921875l0 -1.03125zm11.652344 -3.9375l0 4.8125q0 0.765625 0.3125 1.015625q0.5 0.390625 1.765625 0.390625q1.84375 0 3.390625 -0.78125q0.609375 -0.3125 0.9375 -0.3125q0.46875 0 0.8125 0.359375q0.359375 0.34375 0.359375 0.84375q0 0.46875 -0.375 0.8125q-0.578125 0.546875 -2.28125 1.015625q-1.6875 0.46875 -2.84375 0.46875q-2.234375 0 -3.359375 -0.96875q-1.125 -0.96875 -1.125 -2.375l0 -5.28125l-0.859375 0q-0.875 0 -1.25 -0.328125q-0.359375 -0.34375 -0.359375 -0.890625q0 -0.515625 0.359375 -0.84375q0.375 -0.34375 1.25 -0.34375l0.859375 0l0 -2.171875q0 -0.859375 0.328125 -1.234375q0.34375 -0.375 0.890625 -0.375q0.515625 0 0.84375 0.375q0.34375 0.375 0.34375 1.234375l0 2.171875l4.4375 0q0.875 0 1.234375 0.34375q0.375 0.328125 0.375 0.859375q0 0.53125 -0.375 0.875q-0.359375 0.328125 -1.234375 0.328125l-4.4375 0zm16.167969 -4.53125l0 14.109375l1.453125 0q0.875 0 1.234375 0.328125q0.375 0.328125 0.375 0.875q0 0.53125 -0.375 0.859375q-0.359375 0.34375 -1.234375 0.34375l-3.84375 0l0 -18.921875l3.84375 0q0.859375 0 1.21875 0.34375q0.375 0.328125 0.375 0.875q0 0.515625 -0.375 0.859375q-0.359375 0.328125 -1.21875 0.328125l-1.453125 0zm18.261719 7.046875l-10.03125 0l0 -2.1875l10.03125 0l0 2.1875zm8.511719 -0.125q0 -2.046875 0.671875 -4.140625q0.515625 -1.546875 1.5625 -3.453125q0.765625 -1.359375 1.125 -1.65625q0.359375 -0.3125 0.8125 -0.3125q0.515625 0 0.859375 0.359375q0.359375 0.34375 0.359375 0.828125q0 0.34375 -0.28125 0.8125q-1.265625 2.078125 -1.84375 3.890625q-0.578125 1.8125 -0.578125 3.671875q0 1.875 0.578125 3.703125q0.578125 1.8125 1.84375 3.890625q0.28125 0.453125 0.28125 0.8125q0 0.484375 -0.359375 0.828125q-0.34375 0.359375 -0.859375 0.359375q-0.4375 0 -0.765625 -0.28125q-0.46875 -0.40625 -1.234375 -1.84375q-1.125 -2.078125 -1.53125 -3.421875q-0.640625 -2.0625 -0.640625 -4.046875zm13.011719 3.4375l5.265625 0q0.4375 -0.34375 0.828125 -0.34375q0.546875 0 0.859375 0.359375q0.328125 0.359375 0.328125 1.234375l0 1.15625l-10.9375 0l0 -2.546875q6.484375 -5.359375 7.828125 -6.890625q0.6875 -0.78125 0.6875 -1.484375q0 -0.875 -0.765625 -1.546875q-0.765625 -0.6875 -2.046875 -0.6875q-1.296875 0 -2.140625 0.75q-0.453125 0.40625 -0.71875 1.1875q-0.171875 0.5 -0.453125 0.71875q-0.28125 0.203125 -0.703125 0.203125q-0.5 0 -0.859375 -0.34375q-0.359375 -0.359375 -0.359375 -0.828125q0 -0.703125 0.65625 -1.75q0.65625 -1.0625 1.890625 -1.6875q1.25 -0.640625 2.71875 -0.640625q2.28125 0 3.734375 1.375q1.453125 1.375 1.453125 3.328125q0 1.0 -0.421875 1.859375q-0.421875 0.84375 -2.0 2.34375q-1.234375 1.171875 -4.84375 4.234375zm18.464844 -6.625q0 0.671875 -0.484375 1.140625q-0.484375 0.453125 -1.328125 0.453125q-0.84375 0 -1.328125 -0.453125q-0.46875 -0.46875 -0.46875 -1.140625q0 -0.6875 0.46875 -1.140625q0.484375 -0.453125 1.328125 -0.453125q0.84375 0 1.328125 0.453125q0.484375 0.453125 0.484375 1.140625zm0.015625 7.859375q0 0.671875 -0.484375 1.140625q-0.46875 0.453125 -1.3125 0.453125q-0.84375 0 -1.328125 -0.453125q-0.484375 -0.46875 -0.484375 -1.140625q0 -0.6875 0.484375 -1.140625q0.484375 -0.453125 1.328125 -0.453125q0.84375 0 1.3125 0.453125q0.484375 0.453125 0.484375 1.140625zm15.996094 -6.859375q1.078125 0.734375 1.59375 1.6875q0.53125 0.953125 0.53125 2.140625q0 1.265625 -0.703125 2.359375q-0.6875 1.078125 -2.015625 1.640625q-1.328125 0.5625 -3.46875 0.5625q-2.78125 0 -4.1875 -0.875q-0.796875 -0.5 -0.796875 -1.171875q0 -0.515625 0.34375 -0.875q0.359375 -0.359375 0.84375 -0.359375q0.34375 0 0.703125 0.234375q0.515625 0.359375 0.96875 0.46875q0.703125 0.171875 1.9375 0.171875q2.09375 0 3.03125 -0.546875q0.9375 -0.546875 0.9375 -1.546875q0 -0.734375 -0.546875 -1.421875q-0.53125 -0.6875 -1.453125 -1.0625q-0.53125 -0.203125 -1.78125 -0.296875q-0.59375 -0.03125 -0.921875 -0.359375q-0.3125 -0.34375 -0.3125 -0.828125q0 -0.515625 0.34375 -0.859375q0.359375 -0.359375 0.890625 -0.359375q1.203125 0 1.28125 -0.015625q0.46875 -0.046875 0.9375 -0.296875q0.46875 -0.265625 0.75 -0.71875q0.296875 -0.453125 0.296875 -0.921875q0 -0.765625 -0.6875 -1.3125q-0.671875 -0.5625 -2.015625 -0.5625q-1.734375 0 -2.640625 1.0q-0.28125 0.296875 -0.4375 0.375q-0.25 0.125 -0.546875 0.125q-0.5 0 -0.859375 -0.34375q-0.34375 -0.359375 -0.34375 -0.875q0 -0.796875 1.078125 -1.5625q1.578125 -1.109375 3.921875 -1.109375q2.234375 0 3.578125 1.265625q1.34375 1.265625 1.34375 3.046875q0 0.921875 -0.40625 1.734375q-0.390625 0.796875 -1.1875 1.46875zm12.011719 2.1875q0 2.0625 -0.6875 4.171875q-0.5 1.546875 -1.5625 3.4375q-0.75 1.359375 -1.125 1.671875q-0.359375 0.3125 -0.796875 0.3125q-0.515625 0 -0.875 -0.359375q-0.34375 -0.34375 -0.34375 -0.828125q0 -0.359375 0.28125 -0.8125q1.265625 -2.078125 1.84375 -3.890625q0.578125 -1.828125 0.578125 -3.703125q0 -1.859375 -0.578125 -3.671875q-0.578125 -1.8125 -1.84375 -3.890625q-0.28125 -0.46875 -0.28125 -0.8125q0 -0.484375 0.34375 -0.828125q0.359375 -0.359375 0.875 -0.359375q0.421875 0 0.75 0.28125q0.46875 0.390625 1.25 1.828125q1.109375 2.078125 1.515625 3.421875q0.65625 2.0625 0.65625 4.03125zm12.808594 2.609375l3.203125 0l-3.453125 6.515625q-0.3125 0.578125 -0.765625 0.578125q-0.296875 0 -0.515625 -0.203125q-0.21875 -0.203125 -0.21875 -0.4375q0 -0.1875 0.078125 -0.484375l1.671875 -5.96875z" fill-rule="nonzero"/><path fill="#434343" d="m416.17416 62.88293l-10.03125 0l0 -2.1875l10.03125 0l0 2.1875zm8.511719 -0.125q0 -2.046875 0.671875 -4.140625q0.515625 -1.546875 1.5625 -3.453125q0.765625 -1.359375 1.125 -1.65625q0.359375 -0.3125 0.8125 -0.3125q0.515625 0 0.859375 0.359375q0.359375 0.34375 0.359375 0.828125q0 0.34375 -0.28125 0.8125q-1.265625 2.078125 -1.84375 3.890625q-0.578125 1.8125 -0.578125 3.671875q0 1.8749962 0.578125 3.7031212q0.578125 1.8125 1.84375 3.890625q0.28125 0.453125 0.28125 0.8125q0 0.484375 -0.359375 0.828125q-0.34375 0.359375 -0.859375 0.359375q-0.4375 0 -0.765625 -0.28125q-0.46875 -0.40625 -1.234375 -1.84375q-1.125 -2.078125 -1.53125 -3.421875q-0.640625 -2.0625 -0.640625 -4.046871zm13.011719 3.4374962l5.265625 0q0.4375 -0.34375 0.828125 -0.34375q0.546875 0 0.859375 0.359375q0.328125 0.359375 0.328125 1.234375l0 1.15625l-10.9375 0l0 -2.546875q6.484375 -5.359371 7.828125 -6.890621q0.6875 -0.78125 0.6875 -1.484375q0 -0.875 -0.765625 -1.546875q-0.765625 -0.6875 -2.046875 -0.6875q-1.296875 0 -2.140625 0.75q-0.453125 0.40625 -0.71875 1.1875q-0.171875 0.5 -0.453125 0.71875q-0.28125 0.203125 -0.703125 0.203125q-0.5 0 -0.859375 -0.34375q-0.359375 -0.359375 -0.359375 -0.828125q0 -0.703125 0.65625 -1.75q0.65625 -1.0625 1.890625 -1.6875q1.25 -0.640625 2.71875 -0.640625q2.28125 0 3.734375 1.375q1.453125 1.375 1.453125 3.328125q0 1.0 -0.421875 1.859375q-0.421875 0.84375 -2.0 2.34375q-1.234375 1.171875 -4.84375 4.234371zm18.464844 -6.624996q0 0.671875 -0.484375 1.140625q-0.484375 0.453125 -1.328125 0.453125q-0.84375 0 -1.328125 -0.453125q-0.46875 -0.46875 -0.46875 -1.140625q0 -0.6875 0.46875 -1.140625q0.484375 -0.453125 1.328125 -0.453125q0.84375 0 1.328125 0.453125q0.484375 0.453125 0.484375 1.140625zm0.015625 7.859371q0 0.671875 -0.484375 1.140625q-0.46875 0.453125 -1.3125 0.453125q-0.84375 0 -1.328125 -0.453125q-0.484375 -0.46875 -0.484375 -1.140625q0 -0.6875 0.484375 -1.140625q0.484375 -0.453125 1.328125 -0.453125q0.84375 0 1.3125 0.453125q0.484375 0.453125 0.484375 1.140625zm15.996094 -6.859371q1.078125 0.734375 1.59375 1.6875q0.53125 0.953125 0.53125 2.1406212q0 1.265625 -0.703125 2.359375q-0.6875 1.078125 -2.015625 1.640625q-1.328125 0.5625 -3.46875 0.5625q-2.78125 0 -4.1875 -0.875q-0.796875 -0.5 -0.796875 -1.171875q0 -0.515625 0.34375 -0.875q0.359375 -0.359375 0.84375 -0.359375q0.34375 0 0.703125 0.234375q0.515625 0.359375 0.96875 0.46875q0.703125 0.171875 1.9375 0.171875q2.09375 0 3.03125 -0.546875q0.9375 -0.546875 0.9375 -1.546875q0 -0.7343712 -0.546875 -1.4218712q-0.53125 -0.6875 -1.453125 -1.0625q-0.53125 -0.203125 -1.78125 -0.296875q-0.59375 -0.03125 -0.921875 -0.359375q-0.3125 -0.34375 -0.3125 -0.828125q0 -0.515625 0.34375 -0.859375q0.359375 -0.359375 0.890625 -0.359375q1.203125 0 1.28125 -0.015625q0.46875 -0.046875 0.9375 -0.296875q0.46875 -0.265625 0.75 -0.71875q0.296875 -0.453125 0.296875 -0.921875q0 -0.765625 -0.6875 -1.3125q-0.671875 -0.5625 -2.015625 -0.5625q-1.734375 0 -2.640625 1.0q-0.28125 0.296875 -0.4375 0.375q-0.25 0.125 -0.546875 0.125q-0.5 0 -0.859375 -0.34375q-0.34375 -0.359375 -0.34375 -0.875q0 -0.796875 1.078125 -1.5625q1.578125 -1.109375 3.921875 -1.109375q2.234375 0 3.578125 1.265625q1.34375 1.265625 1.34375 3.046875q0 0.921875 -0.40625 1.734375q-0.390625 0.796875 -1.1875 1.46875zm12.011719 2.1875q0 2.0624962 -0.6875 4.171871q-0.5 1.546875 -1.5625 3.4375q-0.75 1.359375 -1.125 1.671875q-0.359375 0.3125 -0.796875 0.3125q-0.515625 0 -0.875 -0.359375q-0.34375 -0.34375 -0.34375 -0.828125q0 -0.359375 0.28125 -0.8125q1.265625 -2.078125 1.84375 -3.890625q0.578125 -1.828125 0.578125 -3.7031212q0 -1.859375 -0.578125 -3.671875q-0.578125 -1.8125 -1.84375 -3.890625q-0.28125 -0.46875 -0.28125 -0.8125q0 -0.484375 0.34375 -0.828125q0.359375 -0.359375 0.875 -0.359375q0.421875 0 0.75 0.28125q0.46875 0.390625 1.25 1.828125q1.109375 2.078125 1.515625 3.421875q0.65625 2.0625 0.65625 4.03125zm12.199219 7.187496l0 -14.109371l-1.453125 0q-0.875 0 -1.25 -0.328125q-0.359375 -0.34375 -0.359375 -0.859375q0 -0.546875 0.359375 -0.875q0.375 -0.34375 1.25 -0.34375l3.84375 0l0 18.921871l-3.84375 0q-0.859375 0 -1.234375 -0.34375q-0.359375 -0.328125 -0.359375 -0.859375q0 -0.53125 0.359375 -0.875q0.375 -0.328125 1.234375 -0.328125l1.453125 0z" fill-rule="nonzero"/><path fill="#000000" fill-opacity="0.0" d="m612.1312 7.56168l218.6142 0l0 75.74803l-218.6142 0z" fill-rule="evenodd"/><path fill="#434343" d="m647.743 24.398556l0 12.796875l0.40625 0q0.859375 0 1.234375 0.34375q0.375 0.328125 0.375 0.859375q0 0.53125 -0.375 0.875q-0.359375 0.328125 -1.234375 0.328125l-2.8125 0l0 -0.59375q-0.8125 0.484375 -1.71875 0.734375q-0.890625 0.25 -1.859375 0.25q-2.703125 0 -4.359375 -1.5625q-1.640625 -1.578125 -1.640625 -3.90625q0 -2.4375 1.734375 -4.15625q1.734375 -1.71875 4.21875 -1.71875q0.9375 0 1.84375 0.28125q0.90625 0.28125 1.78125 0.859375l0 -2.984375l-0.40625 0q-0.875 0 -1.25 -0.328125q-0.359375 -0.34375 -0.359375 -0.875q0 -0.53125 0.359375 -0.859375q0.375 -0.34375 1.25 -0.34375l2.8125 0zm-2.40625 10.203125q0 -1.5 -1.046875 -2.53125q-1.03125 -1.03125 -2.546875 -1.03125q-1.5 0 -2.546875 1.03125q-1.046875 1.03125 -1.046875 2.484375q0 1.328125 0.9375 2.1875q0.9375 0.84375 2.65625 0.84375q1.703125 0 2.640625 -0.84375q0.953125 -0.859375 0.953125 -2.140625zm13.449219 5.0l0 -0.5625q-0.890625 0.484375 -1.984375 0.71875q-1.09375 0.25 -1.984375 0.25q-1.9375 0 -3.140625 -1.03125q-1.203125 -1.03125 -1.203125 -2.265625q0 -1.515625 1.53125 -2.8125q1.546875 -1.296875 4.265625 -1.296875q1.09375 0 2.515625 0.234375l0 -0.578125q0 -0.53125 -0.46875 -0.875q-0.453125 -0.34375 -1.75 -0.34375q-1.0625 0 -2.765625 0.421875q-0.640625 0.15625 -0.984375 0.15625q-0.484375 0 -0.828125 -0.34375q-0.328125 -0.34375 -0.328125 -0.890625q0 -0.296875 0.109375 -0.515625q0.125 -0.234375 0.328125 -0.359375q0.21875 -0.140625 0.890625 -0.328125q0.890625 -0.25 1.8125 -0.390625q0.9375 -0.140625 1.6875 -0.140625q2.234375 0 3.46875 0.96875q1.234375 0.953125 1.234375 2.640625l0 4.9375l0.40625 0q0.875 0 1.234375 0.34375q0.375 0.328125 0.375 0.859375q0 0.53125 -0.375 0.875q-0.359375 0.328125 -1.234375 0.328125l-2.8125 0zm0 -4.296875q-1.4375 -0.28125 -2.65625 -0.28125q-1.46875 0 -2.515625 0.703125q-0.65625 0.46875 -0.65625 0.9375q0 0.328125 0.3125 0.546875q0.59375 0.390625 1.609375 0.390625q0.859375 0 1.953125 -0.34375q1.109375 -0.34375 1.953125 -0.921875l0 -1.03125zm11.652344 -3.9375l0 4.8125q0 0.765625 0.3125 1.015625q0.5 0.390625 1.765625 0.390625q1.84375 0 3.390625 -0.78125q0.609375 -0.3125 0.9375 -0.3125q0.46875 0 0.8125 0.359375q0.359375 0.34375 0.359375 0.84375q0 0.46875 -0.375 0.8125q-0.578125 0.546875 -2.28125 1.015625q-1.6875 0.46875 -2.84375 0.46875q-2.234375 0 -3.359375 -0.96875q-1.125 -0.96875 -1.125 -2.375l0 -5.28125l-0.859375 0q-0.875 0 -1.25 -0.328125q-0.359375 -0.34375 -0.359375 -0.890625q0 -0.515625 0.359375 -0.84375q0.375 -0.34375 1.25 -0.34375l0.859375 0l0 -2.171875q0 -0.859375 0.328125 -1.234375q0.34375 -0.375 0.890625 -0.375q0.515625 0 0.84375 0.375q0.34375 0.375 0.34375 1.234375l0 2.171875l4.4375 0q0.875 0 1.234375 0.34375q0.375 0.328125 0.375 0.859375q0 0.53125 -0.375 0.875q-0.359375 0.328125 -1.234375 0.328125l-4.4375 0zm16.167969 -4.53125l0 14.109375l1.453125 0q0.875 0 1.234375 0.328125q0.375 0.328125 0.375 0.875q0 0.53125 -0.375 0.859375q-0.359375 0.34375 -1.234375 0.34375l-3.84375 0l0 -18.921875l3.84375 0q0.859375 0 1.21875 0.34375q0.375 0.328125 0.375 0.875q0 0.515625 -0.375 0.859375q-0.359375 0.328125 -1.21875 0.328125l-1.453125 0zm18.261719 7.046875l-10.03125 0l0 -2.1875l10.03125 0l0 2.1875zm13.121094 -4.484375q0.421875 -0.421875 0.890625 -0.421875q0.515625 0 0.84375 0.375q0.328125 0.375 0.328125 1.21875l0 1.546875q0 0.875 -0.328125 1.234375q-0.328125 0.359375 -0.875 0.359375q-0.484375 0 -0.828125 -0.28125q-0.25 -0.203125 -0.390625 -0.84375q-0.140625 -0.65625 -0.671875 -0.984375q-0.953125 -0.5625 -2.4375 -0.5625q-1.6875 0 -2.71875 1.0q-1.03125 1.0 -1.03125 2.515625q0 1.40625 0.984375 2.234375q0.984375 0.8125 3.28125 0.8125q1.5 0 2.4375 -0.3125q0.5625 -0.1875 1.0625 -0.640625q0.515625 -0.453125 0.921875 -0.453125q0.5 0 0.84375 0.375q0.359375 0.359375 0.359375 0.84375q0 0.796875 -1.078125 1.515625q-1.625 1.078125 -4.734375 1.078125q-2.8125 0 -4.359375 -1.171875q-2.109375 -1.5625 -2.109375 -4.265625q0 -2.5625 1.703125 -4.234375q1.71875 -1.6875 4.46875 -1.6875q1.0 0 1.84375 0.1875q0.859375 0.1875 1.59375 0.5625zm9.792969 4.359375q0 -2.046875 0.671875 -4.140625q0.515625 -1.546875 1.5625 -3.453125q0.765625 -1.359375 1.125 -1.65625q0.359375 -0.3125 0.8125 -0.3125q0.515625 0 0.859375 0.359375q0.359375 0.34375 0.359375 0.828125q0 0.34375 -0.28125 0.8125q-1.265625 2.078125 -1.84375 3.890625q-0.578125 1.8125 -0.578125 3.671875q0 1.875 0.578125 3.703125q0.578125 1.8125 1.84375 3.890625q0.28125 0.453125 0.28125 0.8125q0 0.484375 -0.359375 0.828125q-0.34375 0.359375 -0.859375 0.359375q-0.4375 0 -0.765625 -0.28125q-0.46875 -0.40625 -1.234375 -1.84375q-1.125 -2.078125 -1.53125 -3.421875q-0.640625 -2.0625 -0.640625 -4.046875zm16.480469 -9.703125l0 13.140625l2.4375 0q0.859375 0 1.21875 0.34375q0.375 0.328125 0.375 0.859375q0 0.53125 -0.375 0.875q-0.359375 0.328125 -1.21875 0.328125l-7.265625 0q-0.859375 0 -1.234375 -0.328125q-0.359375 -0.34375 -0.359375 -0.875q0 -0.53125 0.359375 -0.859375q0.375 -0.34375 1.234375 -0.34375l2.4375 0l0 -10.015625l-2.15625 0.5625q-0.515625 0.140625 -0.765625 0.140625q-0.453125 0 -0.796875 -0.359375q-0.328125 -0.375 -0.328125 -0.890625q0 -0.484375 0.234375 -0.75q0.25 -0.28125 1.046875 -0.5l5.15625 -1.328125zm12.621094 12.3125l3.203125 0l-3.453125 6.515625q-0.3125 0.578125 -0.765625 0.578125q-0.296875 0 -0.515625 -0.203125q-0.21875 -0.203125 -0.21875 -0.4375q0 -0.1875 0.078125 -0.484375l1.671875 -5.96875zm18.386719 -4.796875q1.078125 0.734375 1.59375 1.6875q0.53125 0.953125 0.53125 2.140625q0 1.265625 -0.703125 2.359375q-0.6875 1.078125 -2.015625 1.640625q-1.328125 0.5625 -3.46875 0.5625q-2.78125 0 -4.1875 -0.875q-0.796875 -0.5 -0.796875 -1.171875q0 -0.515625 0.34375 -0.875q0.359375 -0.359375 0.84375 -0.359375q0.34375 0 0.703125 0.234375q0.515625 0.359375 0.96875 0.46875q0.703125 0.171875 1.9375 0.171875q2.09375 0 3.03125 -0.546875q0.9375 -0.546875 0.9375 -1.546875q0 -0.734375 -0.546875 -1.421875q-0.53125 -0.6875 -1.453125 -1.0625q-0.53125 -0.203125 -1.78125 -0.296875q-0.59375 -0.03125 -0.921875 -0.359375q-0.3125 -0.34375 -0.3125 -0.828125q0 -0.515625 0.34375 -0.859375q0.359375 -0.359375 0.890625 -0.359375q1.203125 0 1.28125 -0.015625q0.46875 -0.046875 0.9375 -0.296875q0.46875 -0.265625 0.75 -0.71875q0.296875 -0.453125 0.296875 -0.921875q0 -0.765625 -0.6875 -1.3125q-0.671875 -0.5625 -2.015625 -0.5625q-1.734375 0 -2.640625 1.0q-0.28125 0.296875 -0.4375 0.375q-0.25 0.125 -0.546875 0.125q-0.5 0 -0.859375 -0.34375q-0.34375 -0.359375 -0.34375 -0.875q0 -0.796875 1.078125 -1.5625q1.578125 -1.109375 3.921875 -1.109375q2.234375 0 3.578125 1.265625q1.34375 1.265625 1.34375 3.046875q0 0.921875 -0.40625 1.734375q-0.390625 0.796875 -1.1875 1.46875zm12.011719 2.1875q0 2.0625 -0.6875 4.171875q-0.5 1.546875 -1.5625 3.4375q-0.75 1.359375 -1.125 1.671875q-0.359375 0.3125 -0.796875 0.3125q-0.515625 0 -0.875 -0.359375q-0.34375 -0.34375 -0.34375 -0.828125q0 -0.359375 0.28125 -0.8125q1.265625 -2.078125 1.84375 -3.890625q0.578125 -1.828125 0.578125 -3.703125q0 -1.859375 -0.578125 -3.671875q-0.578125 -1.8125 -1.84375 -3.890625q-0.28125 -0.46875 -0.28125 -0.8125q0 -0.484375 0.34375 -0.828125q0.359375 -0.359375 0.875 -0.359375q0.421875 0 0.75 0.28125q0.46875 0.390625 1.25 1.828125q1.109375 2.078125 1.515625 3.421875q0.65625 2.0625 0.65625 4.03125zm12.808594 2.609375l3.203125 0l-3.453125 6.515625q-0.3125 0.578125 -0.765625 0.578125q-0.296875 0 -0.515625 -0.203125q-0.21875 -0.203125 -0.21875 -0.4375q0 -0.1875 0.078125 -0.484375l1.671875 -5.96875z" fill-rule="nonzero"/><path fill="#434343" d="m704.868 62.88293l-10.03125 0l0 -2.1875l10.03125 0l0 2.1875zm13.121094 -4.484375q0.421875 -0.421875 0.890625 -0.421875q0.515625 0 0.84375 0.375q0.328125 0.375 0.328125 1.21875l0 1.546875q0 0.875 -0.328125 1.234375q-0.328125 0.359375 -0.875 0.359375q-0.484375 0 -0.828125 -0.28125q-0.25 -0.203125 -0.390625 -0.84375q-0.140625 -0.65625 -0.671875 -0.984375q-0.953125 -0.5625 -2.4375 -0.5625q-1.6875 0 -2.71875 1.0q-1.03125 1.0 -1.03125 2.515625q0 1.4062462 0.984375 2.2343712q0.984375 0.8125 3.28125 0.8125q1.5 0 2.4375 -0.3125q0.5625 -0.1875 1.0625 -0.640625q0.515625 -0.453125 0.921875 -0.453125q0.5 0 0.84375 0.375q0.359375 0.359375 0.359375 0.84375q0 0.796875 -1.078125 1.515625q-1.625 1.078125 -4.734375 1.078125q-2.8125 0 -4.359375 -1.171875q-2.109375 -1.5625 -2.109375 -4.265621q0 -2.5625 1.703125 -4.234375q1.71875 -1.6875 4.46875 -1.6875q1.0 0 1.84375 0.1875q0.859375 0.1875 1.59375 0.5625zm9.792969 4.359375q0 -2.046875 0.671875 -4.140625q0.515625 -1.546875 1.5625 -3.453125q0.765625 -1.359375 1.125 -1.65625q0.359375 -0.3125 0.8125 -0.3125q0.515625 0 0.859375 0.359375q0.359375 0.34375 0.359375 0.828125q0 0.34375 -0.28125 0.8125q-1.265625 2.078125 -1.84375 3.890625q-0.578125 1.8125 -0.578125 3.671875q0 1.8749962 0.578125 3.7031212q0.578125 1.8125 1.84375 3.890625q0.28125 0.453125 0.28125 0.8125q0 0.484375 -0.359375 0.828125q-0.34375 0.359375 -0.859375 0.359375q-0.4375 0 -0.765625 -0.28125q-0.46875 -0.40625 -1.234375 -1.84375q-1.125 -2.078125 -1.53125 -3.421875q-0.640625 -2.0625 -0.640625 -4.046871zm13.011719 3.4374962l5.265625 0q0.4375 -0.34375 0.828125 -0.34375q0.546875 0 0.859375 0.359375q0.328125 0.359375 0.328125 1.234375l0 1.15625l-10.9375 0l0 -2.546875q6.484375 -5.359371 7.828125 -6.890621q0.6875 -0.78125 0.6875 -1.484375q0 -0.875 -0.765625 -1.546875q-0.765625 -0.6875 -2.046875 -0.6875q-1.296875 0 -2.140625 0.75q-0.453125 0.40625 -0.71875 1.1875q-0.171875 0.5 -0.453125 0.71875q-0.28125 0.203125 -0.703125 0.203125q-0.5 0 -0.859375 -0.34375q-0.359375 -0.359375 -0.359375 -0.828125q0 -0.703125 0.65625 -1.75q0.65625 -1.0625 1.890625 -1.6875q1.25 -0.640625 2.71875 -0.640625q2.28125 0 3.734375 1.375q1.453125 1.375 1.453125 3.328125q0 1.0 -0.421875 1.859375q-0.421875 0.84375 -2.0 2.34375q-1.234375 1.171875 -4.84375 4.234371zm16.089844 -0.828125l3.203125 0l-3.453125 6.515625q-0.3125 0.578125 -0.765625 0.578125q-0.296875 0 -0.515625 -0.203125q-0.21875 -0.203125 -0.21875 -0.4375q0 -0.1875 0.078125 -0.484375l1.671875 -5.96875zm18.480469 -11.937496l0 9.40625q0.765625 0 1.125 0.34375q0.375 0.328125 0.375 0.8437462q0 0.53125 -0.375 0.875q-0.375 0.34375 -1.125 0.34375l0 0.953125q0.765625 0 1.125 0.34375q0.375 0.34375 0.375 0.859375q0 0.53125 -0.375 0.875q-0.375 0.328125 -1.234375 0.328125l-3.21875 0q-0.875 0 -1.25 -0.328125q-0.359375 -0.34375 -0.359375 -0.875q0 -0.53125 0.359375 -0.859375q0.375 -0.34375 1.25 -0.34375l0.9375 0l0 -0.953125l-6.53125 0l0 -2.0156212l5.75 -9.796875l3.171875 0zm-2.390625 9.40625l0 -5.90625l-3.484375 5.90625l3.484375 0zm14.308594 -0.078125q0 2.0624962 -0.6875 4.171871q-0.5 1.546875 -1.5625 3.4375q-0.75 1.359375 -1.125 1.671875q-0.359375 0.3125 -0.796875 0.3125q-0.515625 0 -0.875 -0.359375q-0.34375 -0.34375 -0.34375 -0.828125q0 -0.359375 0.28125 -0.8125q1.265625 -2.078125 1.84375 -3.890625q0.578125 -1.828125 0.578125 -3.7031212q0 -1.859375 -0.578125 -3.671875q-0.578125 -1.8125 -1.84375 -3.890625q-0.28125 -0.46875 -0.28125 -0.8125q0 -0.484375 0.34375 -0.828125q0.359375 -0.359375 0.875 -0.359375q0.421875 0 0.75 0.28125q0.46875 0.390625 1.25 1.828125q1.109375 2.078125 1.515625 3.421875q0.65625 2.0625 0.65625 4.03125zm12.199219 7.187496l0 -14.109371l-1.453125 0q-0.875 0 -1.25 -0.328125q-0.359375 -0.34375 -0.359375 -0.859375q0 -0.546875 0.359375 -0.875q0.375 -0.34375 1.25 -0.34375l3.84375 0l0 18.921871l-3.84375 0q-0.859375 0 -1.234375 -0.34375q-0.359375 -0.328125 -0.359375 -0.859375q0 -0.53125 0.359375 -0.875q0.375 -0.328125 1.234375 -0.328125l1.453125 0z" fill-rule="nonzero"/><path shape-rendering="crispEdges" fill="#ffd966" d="m44.391075 89.15255l40.19423 0l0 42.304466l-40.19423 0l0 -42.304466z" fill-rule="nonzero"/><path shape-rendering="crispEdges" fill="#ffd966" d="m124.779526 89.15255l40.19423 0l0 42.304466l-40.19423 0l0 -42.304466z" fill-rule="nonzero"/><path shape-rendering="crispEdges" fill="#ffd966" d="m164.97375 89.15255l40.19423 0l0 42.304466l-40.19423 0l0 -42.304466z" fill-rule="nonzero"/><path shape-rendering="crispEdges" fill="#ffd966" d="m44.391075 173.76147l40.19423 0l0 46.475067l-40.19423 0l0 -46.475067z" fill-rule="nonzero"/><path shape-rendering="crispEdges" fill="#ffd966" d="m124.779526 173.76147l40.19423 0l0 46.475067l-40.19423 0l0 -46.475067z" fill-rule="nonzero"/><path shape-rendering="crispEdges" fill="#ffd966" d="m164.97375 173.76147l40.19423 0l0 46.475067l-40.19423 0l0 -46.475067z" fill-rule="nonzero"/><path shape-rendering="crispEdges" fill="#ffd966" d="m44.391075 220.23654l40.19423 0l0 42.304474l-40.19423 0l0 -42.304474z" fill-rule="nonzero"/><path shape-rendering="crispEdges" fill="#ffd966" d="m124.779526 220.23654l40.19423 0l0 42.304474l-40.19423 0l0 -42.304474z" fill-rule="nonzero"/><path shape-rendering="crispEdges" fill="#ffd966" d="m164.97375 220.23654l40.19423 0l0 42.304474l-40.19423 0l0 -42.304474z" fill-rule="nonzero"/><path shape-rendering="crispEdges" fill="#ffd966" d="m44.391075 262.54102l40.19423 0l0 42.304443l-40.19423 0l0 -42.304443z" fill-rule="nonzero"/><path shape-rendering="crispEdges" fill="#ffd966" d="m124.779526 262.54102l40.19423 0l0 42.304443l-40.19423 0l0 -42.304443z" fill-rule="nonzero"/><path shape-rendering="crispEdges" fill="#ffd966" d="m164.97375 262.54102l40.19423 0l0 42.304443l-40.19423 0l0 -42.304443z" fill-rule="nonzero"/><path stroke="#666666" stroke-width="1.0" stroke-linecap="butt" d="m44.391075 88.65386l0 216.69028" fill-rule="nonzero"/><path stroke="#666666" stroke-width="1.0" stroke-linecap="butt" d="m84.585304 88.65386l0 216.69028" fill-rule="nonzero"/><path stroke="#666666" stroke-width="1.0" stroke-linecap="butt" d="m124.779526 88.65386l0 216.69028" fill-rule="nonzero"/><path stroke="#666666" stroke-width="1.0" stroke-linecap="butt" d="m164.97375 88.65386l0 216.69028" fill-rule="nonzero"/><path stroke="#666666" stroke-width="1.0" stroke-linecap="butt" d="m205.16798 88.65386l0 216.69028" fill-rule="nonzero"/><path stroke="#666666" stroke-width="1.0" stroke-linecap="butt" d="m43.892387 89.15255l161.77429 0" fill-rule="nonzero"/><path stroke="#666666" stroke-width="1.0" stroke-linecap="butt" d="m43.892387 131.45702l161.77429 0" fill-rule="nonzero"/><path stroke="#666666" stroke-width="1.0" stroke-linecap="butt" d="m43.892387 173.76147l161.77429 0" fill-rule="nonzero"/><path stroke="#666666" stroke-width="1.0" stroke-linecap="butt" d="m43.892387 220.23654l161.77429 0" fill-rule="nonzero"/><path stroke="#666666" stroke-width="1.0" stroke-linecap="butt" d="m43.892387 262.54102l161.77429 0" fill-rule="nonzero"/><path stroke="#666666" stroke-width="1.0" stroke-linecap="butt" d="m43.892387 304.84546l161.77429 0" fill-rule="nonzero"/><path shape-rendering="crispEdges" fill="#ffd966" d="m637.95966 131.45702l40.194214 0l0 42.30446l-40.194214 0l0 -42.30446z" fill-rule="nonzero"/><path shape-rendering="crispEdges" fill="#ffd966" d="m718.3481 131.45702l40.194214 0l0 42.30446l-40.194214 0l0 -42.30446z" fill-rule="nonzero"/><path shape-rendering="crispEdges" fill="#ffd966" d="m637.95966 220.23654l40.194214 0l0 42.304474l-40.194214 0l0 -42.304474z" fill-rule="nonzero"/><path shape-rendering="crispEdges" fill="#ffd966" d="m718.3481 220.23654l40.194214 0l0 42.304474l-40.194214 0l0 -42.304474z" fill-rule="nonzero"/><path shape-rendering="crispEdges" fill="#ffd966" d="m637.95966 262.54102l40.194214 0l0 42.304443l-40.194214 0l0 -42.304443z" fill-rule="nonzero"/><path shape-rendering="crispEdges" fill="#ffd966" d="m718.3481 262.54102l40.194214 0l0 42.304443l-40.194214 0l0 -42.304443z" fill-rule="nonzero"/><path stroke="#666666" stroke-width="1.0" stroke-linecap="butt" d="m637.95966 88.65386l0 216.69028" fill-rule="nonzero"/><path stroke="#666666" stroke-width="1.0" stroke-linecap="butt" d="m678.1539 88.65386l0 216.69028" fill-rule="nonzero"/><path stroke="#666666" stroke-width="1.0" stroke-linecap="butt" d="m718.3481 88.65386l0 216.69028" fill-rule="nonzero"/><path stroke="#666666" stroke-width="1.0" stroke-linecap="butt" d="m758.5423 88.65386l0 216.69028" fill-rule="nonzero"/><path stroke="#666666" stroke-width="1.0" stroke-linecap="butt" d="m798.7365 88.65386l0 216.69028" fill-rule="nonzero"/><path stroke="#666666" stroke-width="1.0" stroke-linecap="butt" d="m637.46094 89.15255l161.77429 0" fill-rule="nonzero"/><path stroke="#666666" stroke-width="1.0" stroke-linecap="butt" d="m637.46094 131.45702l161.77429 0" fill-rule="nonzero"/><path stroke="#666666" stroke-width="1.0" stroke-linecap="butt" d="m637.46094 173.76147l161.77429 0" fill-rule="nonzero"/><path stroke="#666666" stroke-width="1.0" stroke-linecap="butt" d="m637.46094 220.23654l161.77429 0" fill-rule="nonzero"/><path stroke="#666666" stroke-width="1.0" stroke-linecap="butt" d="m637.46094 262.54102l161.77429 0" fill-rule="nonzero"/><path stroke="#666666" stroke-width="1.0" stroke-linecap="butt" d="m637.46094 304.84546l161.77429 0" fill-rule="nonzero"/><path shape-rendering="crispEdges" fill="#ffd966" d="m340.48392 89.15255l40.194244 0l0 42.304466l-40.194244 0l0 -42.304466z" fill-rule="nonzero"/><path shape-rendering="crispEdges" fill="#ffd966" d="m461.06662 89.15255l40.194214 0l0 42.304466l-40.194214 0l0 -42.304466z" fill-rule="nonzero"/><path shape-rendering="crispEdges" fill="#ffd966" d="m340.48392 220.23654l40.194244 0l0 42.304474l-40.194244 0l0 -42.304474z" fill-rule="nonzero"/><path shape-rendering="crispEdges" fill="#ffd966" d="m461.06662 220.23654l40.194214 0l0 42.304474l-40.194214 0l0 -42.304474z" fill-rule="nonzero"/><path shape-rendering="crispEdges" fill="#ffd966" d="m340.48392 262.54102l40.194244 0l0 42.304443l-40.194244 0l0 -42.304443z" fill-rule="nonzero"/><path shape-rendering="crispEdges" fill="#ffd966" d="m461.06662 262.54102l40.194214 0l0 42.304443l-40.194214 0l0 -42.304443z" fill-rule="nonzero"/><path stroke="#666666" stroke-width="1.0" stroke-linecap="butt" d="m340.48392 88.65386l0 216.69028" fill-rule="nonzero"/><path stroke="#666666" stroke-width="1.0" stroke-linecap="butt" d="m380.67816 88.65386l0 216.69028" fill-rule="nonzero"/><path stroke="#666666" stroke-width="1.0" stroke-linecap="butt" d="m420.87238 88.65386l0 216.69028" fill-rule="nonzero"/><path stroke="#666666" stroke-width="1.0" stroke-linecap="butt" d="m461.06662 88.65386l0 216.69028" fill-rule="nonzero"/><path stroke="#666666" stroke-width="1.0" stroke-linecap="butt" d="m501.26083 88.65386l0 216.69028" fill-rule="nonzero"/><path stroke="#666666" stroke-width="1.0" stroke-linecap="butt" d="m339.98523 89.15255l161.77429 0" fill-rule="nonzero"/><path stroke="#666666" stroke-width="1.0" stroke-linecap="butt" d="m339.98523 131.45702l161.77429 0" fill-rule="nonzero"/><path stroke="#666666" stroke-width="1.0" stroke-linecap="butt" d="m339.98523 173.76147l161.77429 0" fill-rule="nonzero"/><path stroke="#666666" stroke-width="1.0" stroke-linecap="butt" d="m339.98523 220.23654l161.77429 0" fill-rule="nonzero"/><path stroke="#666666" stroke-width="1.0" stroke-linecap="butt" d="m339.98523 262.54102l161.77429 0" fill-rule="nonzero"/><path stroke="#666666" stroke-width="1.0" stroke-linecap="butt" d="m339.98523 304.84546l161.77429 0" fill-rule="nonzero"/></g></svg>