<svg version="1.1" viewBox="0.0 0.0 737.1417322834645 485.2755905511811" fill="none" stroke="none" stroke-linecap="square" stroke-miterlimit="10" xmlns:xlink="http://www.w3.org/1999/xlink" xmlns="http://www.w3.org/2000/svg"><clipPath id="p.0"><path d="m0 0l737.1417 0l0 485.2756l-737.1417 0l0 -485.2756z" clip-rule="nonzero"/></clipPath><g clip-path="url(#p.0)"><path fill="#000000" fill-opacity="0.0" d="m0 0l737.1417 0l0 485.2756l-737.1417 0z" fill-rule="evenodd"/><path stroke="#434343" stroke-width="1.0" stroke-linecap="butt" d="m50.790028 114.00787l0 54.698166" fill-rule="nonzero"/><path stroke="#434343" stroke-width="1.0" stroke-linecap="butt" d="m107.22835 114.00787l0 54.698166" fill-rule="nonzero"/><path stroke="#434343" stroke-width="1.0" stroke-linecap="butt" d="m163.66667 114.00787l0 54.698166" fill-rule="nonzero"/><path stroke="#434343" stroke-width="1.0" stroke-linecap="butt" d="m220.10498 114.00787l0 54.698166" fill-rule="nonzero"/><path stroke="#434343" stroke-width="1.0" stroke-linecap="butt" d="m50.29134 114.50656l170.31233 0" fill-rule="nonzero"/><path stroke="#434343" stroke-width="1.0" stroke-linecap="butt" d="m50.29134 168.20735l170.31233 0" fill-rule="nonzero"/><path fill="#000000" d="m81.53422 150.95695l-2.34375 0l0 -14.921875q-0.859375 0.796875 -2.234375 1.609375q-1.359375 0.796875 -2.453125 1.203125l0 -2.265625q1.96875 -0.921875 3.4375 -2.234375q1.46875 -1.3125 2.078125 -2.546875l1.515625 0l0 19.15625z" fill-rule="nonzero"/><path fill="#000000" d="m141.45691 148.70695l0 2.25l-12.609375 0q-0.03125 -0.84375 0.265625 -1.625q0.484375 -1.296875 1.546875 -2.546875q1.0625 -1.25 3.0625 -2.875q3.109375 -2.5625 4.203125 -4.046875q1.09375 -1.5 1.09375 -2.8125q0 -1.40625 -1.0 -2.359375q-0.984375 -0.953125 -2.59375 -0.953125q-1.6875 0 -2.703125 1.015625q-1.015625 1.015625 -1.03125 2.8125l-2.40625 -0.25q0.25 -2.6875 1.859375 -4.09375q1.609375 -1.421875 4.328125 -1.421875q2.75 0 4.34375 1.53125q1.609375 1.515625 1.609375 3.765625q0 1.140625 -0.46875 2.25q-0.46875 1.109375 -1.5625 2.328125q-1.078125 1.21875 -3.609375 3.359375q-2.09375 1.765625 -2.703125 2.40625q-0.59375 0.625 -0.984375 1.265625l9.359375 0z" fill-rule="nonzero"/><path fill="#000000" d="m185.59836 145.9257l2.34375 -0.3125q0.390625 1.984375 1.359375 2.875q0.984375 0.875 2.375 0.875q1.640625 0 2.78125 -1.140625q1.140625 -1.15625 1.140625 -2.84375q0 -1.625 -1.0625 -2.671875q-1.046875 -1.046875 -2.671875 -1.046875q-0.65625 0 -1.65625 0.265625l0.265625 -2.0625q0.234375 0.03125 0.375 0.03125q1.5 0 2.6875 -0.78125q1.203125 -0.78125 1.203125 -2.40625q0 -1.296875 -0.875 -2.140625q-0.859375 -0.84375 -2.25 -0.84375q-1.359375 0 -2.28125 0.859375q-0.90625 0.859375 -1.15625 2.578125l-2.34375 -0.421875q0.421875 -2.34375 1.9375 -3.640625q1.53125 -1.296875 3.796875 -1.296875q1.5625 0 2.875 0.671875q1.3125 0.671875 2.0 1.828125q0.703125 1.15625 0.703125 2.453125q0 1.234375 -0.671875 2.25q-0.65625 1.015625 -1.953125 1.625q1.6875 0.390625 2.625 1.625q0.9375 1.21875 0.9375 3.0625q0 2.5 -1.828125 4.25q-1.8125 1.734375 -4.59375 1.734375q-2.515625 0 -4.171875 -1.5q-1.65625 -1.5 -1.890625 -3.875z" fill-rule="nonzero"/><path stroke="#434343" stroke-width="1.0" stroke-linecap="butt" d="m282.0 114.00787l0 54.698166" fill-rule="nonzero"/><path stroke="#434343" stroke-width="1.0" stroke-linecap="butt" d="m338.43832 114.00787l0 54.698166" fill-rule="nonzero"/><path stroke="#434343" stroke-width="1.0" stroke-linecap="butt" d="m394.87665 114.00787l0 54.698166" fill-rule="nonzero"/><path stroke="#434343" stroke-width="1.0" stroke-linecap="butt" d="m451.31497 114.00787l0 54.698166" fill-rule="nonzero"/><path stroke="#434343" stroke-width="1.0" stroke-linecap="butt" d="m281.5013 114.50656l170.31235 0" fill-rule="nonzero"/><path stroke="#434343" stroke-width="1.0" stroke-linecap="butt" d="m281.5013 168.20735l170.31235 0" fill-rule="nonzero"/><path fill="#000000" d="m311.41608 150.95695l0 -4.5625l-8.265625 0l0 -2.15625l8.703125 -12.359375l1.90625 0l0 12.359375l2.578125 0l0 2.15625l-2.578125 0l0 4.5625l-2.34375 0zm0 -6.71875l0 -8.59375l-5.96875 8.59375l5.96875 0z" fill-rule="nonzero"/><path fill="#000000" d="m360.3544 145.95695l2.453125 -0.203125q0.28125 1.796875 1.265625 2.703125q1.0 0.90625 2.40625 0.90625q1.6875 0 2.859375 -1.28125q1.171875 -1.28125 1.171875 -3.390625q0 -2.0 -1.125 -3.15625q-1.125 -1.15625 -2.9375 -1.15625q-1.140625 0 -2.046875 0.515625q-0.90625 0.515625 -1.4375 1.328125l-2.203125 -0.28125l1.859375 -9.8125l9.484375 0l0 2.25l-7.609375 0l-1.03125 5.125q1.71875 -1.203125 3.609375 -1.203125q2.5 0 4.203125 1.734375q1.71875 1.734375 1.71875 4.453125q0 2.59375 -1.5 4.484375q-1.84375 2.3125 -5.015625 2.3125q-2.59375 0 -4.25 -1.453125q-1.640625 -1.46875 -1.875 -3.875z" fill-rule="nonzero"/><path fill="#000000" d="m428.94897 136.5507l-2.3281555 0.1875q-0.3125 -1.390625 -0.890625 -2.015625q-0.953125 -1.0 -2.34375 -1.0q-1.109375 0 -1.96875 0.625q-1.09375 0.8125 -1.734375 2.359375q-0.640625 1.546875 -0.671875 4.40625q0.84375 -1.28125 2.0625 -1.90625q1.234375 -0.625 2.578125 -0.625q2.34375 0 3.9844055 1.734375q1.640625 1.71875 1.640625 4.4375q0 1.796875 -0.78125 3.34375q-0.765625 1.546875 -2.1250305 2.375q-1.34375 0.8125 -3.0625 0.8125q-2.921875 0 -4.78125 -2.15625q-1.84375 -2.15625 -1.84375 -7.09375q0 -5.53125 2.046875 -8.046875q1.78125 -2.1875 4.796875 -2.1875q2.25 0 3.6875305 1.265625q1.453125 1.25 1.734375 3.484375zm-9.5625305 8.21875q0 1.21875 0.5 2.328125q0.515625 1.09375 1.4375 1.6875q0.9375 0.578125 1.953125 0.578125q1.484375 0 2.546875 -1.203125q1.0625305 -1.203125 1.0625305 -3.25q0 -1.984375 -1.0625305 -3.125q-1.046875 -1.140625 -2.640625 -1.140625q-1.59375 0 -2.703125 1.140625q-1.09375 1.140625 -1.09375 2.984375z" fill-rule="nonzero"/><path stroke="#434343" stroke-width="1.0" stroke-linecap="butt" d="m515.32806 114.00787l0 54.698166" fill-rule="nonzero"/><path stroke="#434343" stroke-width="1.0" stroke-linecap="butt" d="m571.7664 114.00787l0 54.698166" fill-rule="nonzero"/><path stroke="#434343" stroke-width="1.0" stroke-linecap="butt" d="m628.2047 114.00787l0 54.698166" fill-rule="nonzero"/><path stroke="#434343" stroke-width="1.0" stroke-linecap="butt" d="m684.64307 114.00787l0 54.698166" fill-rule="nonzero"/><path stroke="#434343" stroke-width="1.0" stroke-linecap="butt" d="m514.8294 114.50656l170.31232 0" fill-rule="nonzero"/><path stroke="#434343" stroke-width="1.0" stroke-linecap="butt" d="m514.8294 168.20735l170.31232 0" fill-rule="nonzero"/><path fill="#000000" d="m537.4004 134.37883l0 -2.25l12.34375 0l0 1.8125q-1.8125 1.9375 -3.609375 5.15625q-1.78125 3.21875 -2.765625 6.609375q-0.703125 2.40625 -0.890625 5.25l-2.40625 0q0.03125 -2.25 0.875 -5.4375q0.84375 -3.1875 2.421875 -6.140625q1.59375 -2.96875 3.375 -5.0l-9.34375 0z" fill-rule="nonzero"/><path fill="#000000" d="m597.2919 140.6132q-1.46875 -0.53125 -2.171875 -1.515625q-0.703125 -1.0 -0.703125 -2.375q0 -2.09375 1.5 -3.5q1.5 -1.421875 3.984375 -1.421875q2.5 0 4.015625 1.453125q1.53125 1.453125 1.53125 3.53125q0 1.328125 -0.703125 2.3125q-0.6875 0.984375 -2.109375 1.515625q1.75 0.5625 2.671875 1.84375q0.921875 1.28125 0.921875 3.046875q0 2.453125 -1.734375 4.125q-1.734375 1.65625 -4.5625 1.65625q-2.8125 0 -4.546875 -1.671875q-1.734375 -1.671875 -1.734375 -4.171875q0 -1.859375 0.9375 -3.109375q0.953125 -1.265625 2.703125 -1.71875zm-0.46875 -3.96875q0 1.34375 0.859375 2.203125q0.875 0.859375 2.265625 0.859375q1.359375 0 2.21875 -0.84375q0.875 -0.859375 0.875 -2.09375q0 -1.28125 -0.890625 -2.15625q-0.890625 -0.890625 -2.21875 -0.890625q-1.34375 0 -2.234375 0.859375q-0.875 0.859375 -0.875 2.0625zm-0.765625 8.8125q0 1.0 0.46875 1.9375q0.484375 0.9375 1.421875 1.453125q0.9375 0.515625 2.015625 0.515625q1.6875 0 2.78125 -1.078125q1.09375 -1.09375 1.09375 -2.75q0 -1.703125 -1.140625 -2.796875q-1.125 -1.109375 -2.8125 -1.109375q-1.65625 0 -2.75 1.09375q-1.078125 1.09375 -1.078125 2.734375z" fill-rule="nonzero"/><path fill="#000000" d="m650.46454 146.5507l2.25 -0.21875q0.296875 1.59375 1.09375 2.3125q0.8125 0.71875 2.078125 0.71875q1.078125 0 1.890625 -0.5q0.8125 -0.5 1.328125 -1.328125q0.53125 -0.828125 0.875 -2.21875q0.359375 -1.40625 0.359375 -2.875q0 -0.15625 -0.015625 -0.46875q-0.703125 1.125 -1.921875 1.828125q-1.21875 0.6875 -2.640625 0.6875q-2.359375 0 -4.0 -1.71875q-1.640625 -1.71875 -1.640625 -4.53125q0 -2.90625 1.703125 -4.671875q1.71875 -1.765625 4.296875 -1.765625q1.859375 0 3.390625 1.0q1.546875 1.0 2.34375 2.859375q0.8125 1.859375 0.8125 5.359375q0 3.65625 -0.796875 5.828125q-0.796875 2.171875 -2.375 3.3125q-1.5625 1.125 -3.671875 1.125q-2.234375 0 -3.65625 -1.234375q-1.40625 -1.25 -1.703125 -3.5zm9.59375 -8.421875q0 -2.015625 -1.078125 -3.203125q-1.0625 -1.1875 -2.578125 -1.1875q-1.5625 0 -2.71875 1.28125q-1.15625 1.265625 -1.15625 3.296875q0 1.828125 1.09375 2.96875q1.109375 1.140625 2.71875 1.140625q1.625 0 2.671875 -1.140625q1.046875 -1.140625 1.046875 -3.15625z" fill-rule="nonzero"/><path fill="#000000" fill-opacity="0.0" d="m5.3648295 417.39764l746.36224 0l0 53.700775l-746.36224 0z" fill-rule="evenodd"/><path fill="#3c78d8" d="m56.544456 454.55765l4.390625 -21.0l2.59375 0l-4.390625 21.0l-2.59375 0zm10.406403 -18.0625l0.609375 -2.9375l2.578125 0l-0.609375 2.9375l-2.578125 0zm-3.78125 18.0625l3.171875 -15.203125l2.59375 0l-3.171875 15.203125l-2.59375 0zm6.8595276 -5.203125l2.59375 -0.15625q0 1.125 0.34375 1.921875q0.34375 0.78125 1.265625 1.28125q0.921875 0.5 2.15625 0.5q1.71875 0 2.578125 -0.6875q0.859375 -0.6875 0.859375 -1.625q0 -0.671875 -0.515625 -1.265625q-0.53125 -0.609375 -2.59375 -1.484375q-2.046875 -0.890625 -2.625 -1.25q-0.953125 -0.578125 -1.453125 -1.375q-0.484375 -0.796875 -0.484375 -1.828125q0 -1.796875 1.4375 -3.078125q1.4375 -1.296875 4.015625 -1.296875q2.859375 0 4.359375 1.328125q1.5 1.3125 1.546875 3.484375l-2.53125 0.171875q-0.0625 -1.375 -0.984375 -2.171875q-0.90625 -0.8125 -2.578125 -0.8125q-1.34375 0 -2.09375 0.625q-0.75 0.609375 -0.75 1.328125q0 0.703125 0.65625 1.25q0.421875 0.375 2.21875 1.15625q2.96875 1.28125 3.75 2.03125q1.234375 1.1875 1.234375 2.890625q0 1.125 -0.703125 2.21875q-0.6875 1.09375 -2.125 1.75q-1.421875 0.640625 -3.34375 0.640625q-2.640625 0 -4.484375 -1.296875q-1.859375 -1.3125 -1.75 -4.25zm20.476562 3.09375l-0.421875 2.125q-0.9375 0.234375 -1.8125 0.234375q-1.546875 0 -2.46875 -0.75q-0.6875 -0.578125 -0.6875 -1.5625q0 -0.5 0.375 -2.3125l1.84375 -8.828125l-2.046875 0l0.421875 -2.0l2.046875 0l0.78125 -3.75l2.96875 -1.78125l-1.15625 5.53125l2.546875 0l-0.421875 2.0l-2.546875 0l-1.75 8.40625q-0.328125 1.609375 -0.328125 1.921875q0 0.453125 0.25 0.703125q0.265625 0.234375 0.875 0.234375q0.859375 0 1.53125 -0.171875zm13.124725 2.109375l-1.578125 -15.203125l2.484375 0l0.6875 6.828125l0.28125 3.828125q0.015625 0.4375 0.078125 1.734375q0.4375 -1.453125 0.734375 -2.234375q0.296875 -0.78125 0.953125 -2.234375l3.625 -7.921875l2.828125 0l0.5 7.59375q0.109375 1.734375 0.140625 4.625q0.71875 -1.90625 2.328125 -5.328125l3.265625 -6.890625l2.59375 0l-7.4375 15.203125l-2.6875 0l-0.5625 -8.921875q-0.0625 -0.828125 -0.09375 -3.234375q-0.59375 1.53125 -1.390625 3.3125l-4.015625 8.84375l-2.734375 0zm21.976715 -18.0625l0.609375 -2.9375l2.5781174 0l-0.609375 2.9375l-2.5781174 0zm-3.78125 18.0625l3.171875 -15.203125l2.59375 0l-3.171875 15.203125l-2.59375 0zm12.67202 -2.109375l-0.421875 2.125q-0.9375 0.234375 -1.8125 0.234375q-1.546875 0 -2.46875 -0.75q-0.6875 -0.578125 -0.6875 -1.5625q0 -0.5 0.375 -2.3125l1.84375 -8.828125l-2.046875 0l0.421875 -2.0l2.046875 0l0.78125 -3.75l2.96875 -1.78125l-1.15625 5.53125l2.546875 0l-0.421875 2.0l-2.546875 0l-1.75 8.40625q-0.328125 1.609375 -0.328125 1.921875q0 0.453125 0.25 0.703125q0.265625 0.234375 0.875 0.234375q0.859375 0 1.53125 -0.171875zm2.0858002 2.109375l4.390625 -21.0l2.59375 0l-1.6875 8.0625q1.453125 -1.390625 2.6875 -2.0q1.25 -0.609375 2.578125 -0.609375q1.890625 0 2.9375 1.0q1.046875 0.984375 1.046875 2.625q0 0.796875 -0.46875 2.9375l-1.875 8.984375l-2.59375 0l1.9375 -9.203125q0.421875 -2.015625 0.421875 -2.53125q0 -0.734375 -0.515625 -1.203125q-0.515625 -0.484375 -1.5 -0.484375q-1.40625 0 -2.6875 0.75q-1.265625 0.734375 -1.984375 2.015625q-0.71875 1.28125 -1.328125 4.125l-1.359375 6.53125l-2.59375 0zm30.521713 -2.109375l-0.421875 2.125q-0.9375 0.234375 -1.8125 0.234375q-1.546875 0 -2.46875 -0.75q-0.6875 -0.578125 -0.6875 -1.5625q0 -0.5 0.375 -2.3125l1.84375 -8.828125l-2.046875 0l0.421875 -2.0l2.046875 0l0.78125 -3.75l2.96875 -1.78125l-1.15625 5.53125l2.546875 0l-0.421875 2.0l-2.546875 0l-1.75 8.40625q-0.328125 1.609375 -0.328125 1.921875q0 0.453125 0.25 0.703125q0.265625 0.234375 0.875 0.234375q0.859375 0 1.53125 -0.171875zm2.0858002 2.109375l4.390625 -21.0l2.59375 0l-1.6875 8.0625q1.453125 -1.390625 2.6875 -2.0q1.25 -0.609375 2.578125 -0.609375q1.890625 0 2.9375 1.0q1.046875 0.984375 1.046875 2.625q0 0.796875 -0.46875 2.9375l-1.875 8.984375l-2.59375 0l1.9375 -9.203125q0.421875 -2.015625 0.421875 -2.53125q0 -0.734375 -0.515625 -1.203125q-0.515625 -0.484375 -1.5 -0.484375q-1.40625 0 -2.6875 0.75q-1.265625 0.734375 -1.984375 2.015625q-0.71875 1.28125 -1.328125 4.125l-1.359375 6.53125l-2.59375 0zm16.310913 0l3.1875 -15.203125l2.28125 0l-0.640625 3.109375q1.171875 -1.765625 2.296875 -2.609375q1.125 -0.84375 2.296875 -0.84375q0.78125 0 1.90625 0.546875l-1.0625 2.40625q-0.671875 -0.484375 -1.46875 -0.484375q-1.359375 0 -2.796875 1.53125q-1.421875 1.515625 -2.25 5.453125l-1.28125 6.09375l-2.46875 0zm20.93837 -5.171875l2.53125 0.265625q-0.546875 1.875 -2.515625 3.5625q-1.953125 1.6875 -4.65625 1.6875q-1.6875 0 -3.09375 -0.78125q-1.40625 -0.78125 -2.15625 -2.265625q-0.734375 -1.5 -0.734375 -3.390625q0 -2.5 1.15625 -4.84375q1.15625 -2.34375 2.984375 -3.46875q1.828125 -1.140625 3.96875 -1.140625q2.71875 0 4.34375 1.6875q1.625 1.6875 1.625 4.609375q0 1.109375 -0.203125 2.296875l-11.1875 0q-0.0625 0.4375 -0.0625 0.796875q0 2.125 0.96875 3.25q0.984375 1.125 2.40625 1.125q1.328125 0 2.609375 -0.859375q1.296875 -0.875 2.015625 -2.53125zm-7.53125 -3.765625l8.53125 0q0.015625 -0.40625 0.015625 -0.578125q0 -1.9375 -0.96875 -2.96875q-0.96875 -1.046875 -2.5 -1.046875q-1.671875 0 -3.046875 1.15625q-1.359375 1.140625 -2.03125 3.4375zm23.842163 3.765625l2.53125 0.265625q-0.546875 1.875 -2.515625 3.5625q-1.953125 1.6875 -4.65625 1.6875q-1.6875 0 -3.09375 -0.78125q-1.40625 -0.78125 -2.15625 -2.265625q-0.734375 -1.5 -0.734375 -3.390625q0 -2.5 1.15625 -4.84375q1.15625 -2.34375 2.984375 -3.46875q1.828125 -1.140625 3.96875 -1.140625q2.71875 0 4.34375 1.6875q1.625 1.6875 1.625 4.609375q0 1.109375 -0.203125 2.296875l-11.1875 0q-0.0625 0.4375 -0.0625 0.796875q0 2.125 0.96875 3.25q0.984375 1.125 2.40625 1.125q1.328125 0 2.609375 -0.859375q1.296875 -0.875 2.015625 -2.53125zm-7.53125 -3.765625l8.53125 0q0.015625 -0.40625 0.015625 -0.578125q0 -1.9375 -0.96875 -2.96875q-0.96875 -1.046875 -2.5 -1.046875q-1.671875 0 -3.046875 1.15625q-1.359375 1.140625 -2.03125 3.4375zm31.990463 3.765625l2.53125 0.265625q-0.546875 1.875 -2.515625 3.5625q-1.953125 1.6875 -4.65625 1.6875q-1.6875 0 -3.09375 -0.78125q-1.40625 -0.78125 -2.15625 -2.265625q-0.734375 -1.5 -0.734375 -3.390625q0 -2.5 1.15625 -4.84375q1.15625 -2.34375 2.984375 -3.46875q1.828125 -1.140625 3.96875 -1.140625q2.71875 0 4.34375 1.6875q1.625 1.6875 1.625 4.609375q0 1.109375 -0.203125 2.296875l-11.1875 0q-0.0625 0.4375 -0.0625 0.796875q0 2.125 0.96875 3.25q0.984375 1.125 2.40625 1.125q1.328125 0 2.609375 -0.859375q1.296875 -0.875 2.015625 -2.53125zm-7.53125 -3.765625l8.53125 0q0.015625 -0.40625 0.015625 -0.578125q0 -1.9375 -0.96875 -2.96875q-0.96875 -1.046875 -2.5 -1.046875q-1.671875 0 -3.046875 1.15625q-1.359375 1.140625 -2.03125 3.4375zm12.467163 8.9375l4.390625 -21.0l2.59375 0l-4.390625 21.0l-2.59375 0zm17.890778 -5.171875l2.53125 0.265625q-0.546875 1.875 -2.515625 3.5625q-1.953125 1.6875 -4.65625 1.6875q-1.6875 0 -3.09375 -0.78125q-1.40625 -0.78125 -2.15625 -2.265625q-0.734375 -1.5 -0.734375 -3.390625q0 -2.5 1.15625 -4.84375q1.15625 -2.34375 2.984375 -3.46875q1.828125 -1.140625 3.96875 -1.140625q2.71875 0 4.34375 1.6875q1.625 1.6875 1.625 4.609375q0 1.109375 -0.203125 2.296875l-11.1875 0q-0.0625 0.4375 -0.0625 0.796875q0 2.125 0.96875 3.25q0.984375 1.125 2.40625 1.125q1.328125 0 2.609375 -0.859375q1.296875 -0.875 2.015625 -2.53125zm-7.53125 -3.765625l8.53125 0q0.015625 -0.40625 0.015625 -0.578125q0 -1.9375 -0.96875 -2.96875q-0.96875 -1.046875 -2.5 -1.046875q-1.671875 0 -3.046875 1.15625q-1.359375 1.140625 -2.03125 3.4375zm12.654663 8.9375l3.1875 -15.203125l2.59375 0l-0.53125 2.5q1.4375 -1.625 2.578125 -2.234375q1.140625 -0.609375 2.46875 -0.609375q1.421875 0 2.375 0.75q0.953125 0.75 1.25 2.09375q1.15625 -1.4375 2.4375 -2.140625q1.296875 -0.703125 2.703125 -0.703125q1.90625 0 2.859375 0.90625q0.953125 0.890625 0.953125 2.53125q0 0.703125 -0.328125 2.3125l-2.046875 9.796875l-2.59375 0l2.09375 -10.046875q0.265625 -1.234375 0.265625 -1.765625q0 -0.75 -0.46875 -1.171875q-0.46875 -0.4375 -1.328125 -0.4375q-1.15625 0 -2.359375 0.703125q-1.203125 0.703125 -1.875 1.84375q-0.671875 1.140625 -1.171875 3.5l-1.546875 7.375l-2.59375 0l2.15625 -10.265625q0.234375 -1.046875 0.234375 -1.484375q0 -0.75 -0.46875 -1.203125q-0.46875 -0.46875 -1.21875 -0.46875q-1.09375 0 -2.3125 0.703125q-1.203125 0.703125 -1.96875 1.953125q-0.75 1.25 -1.234375 3.578125l-1.515625 7.1875l-2.59375 0zm35.618073 -5.171875l2.53125 0.265625q-0.546875 1.875 -2.515625 3.5625q-1.953125 1.6875 -4.65625 1.6875q-1.6875 0 -3.09375 -0.78125q-1.40625 -0.78125 -2.15625 -2.265625q-0.734375 -1.5 -0.734375 -3.390625q0 -2.5 1.15625 -4.84375q1.15625 -2.34375 2.984375 -3.46875q1.828125 -1.140625 3.96875 -1.140625q2.71875 0 4.34375 1.6875q1.625 1.6875 1.625 4.609375q0 1.109375 -0.203125 2.296875l-11.1875 0q-0.0625 0.4375 -0.0625 0.796875q0 2.125 0.96875 3.25q0.984375 1.125 2.40625 1.125q1.328125 0 2.609375 -0.859375q1.296875 -0.875 2.015625 -2.53125zm-7.53125 -3.765625l8.53125 0q0.015625 -0.40625 0.015625 -0.578125q0 -1.9375 -0.96875 -2.96875q-0.96875 -1.046875 -2.5 -1.046875q-1.671875 0 -3.046875 1.15625q-1.359375 1.140625 -2.03125 3.4375zm12.670288 8.9375l3.1875 -15.203125l2.34375 0l-0.5625 2.640625q1.53125 -1.5625 2.859375 -2.265625q1.34375 -0.71875 2.734375 -0.71875q1.84375 0 2.890625 1.0q1.0625 1.0 1.0625 2.671875q0 0.84375 -0.375 2.671875l-1.9375 9.203125l-2.59375 0l2.03125 -9.640625q0.296875 -1.40625 0.296875 -2.078125q0 -0.75 -0.53125 -1.21875q-0.515625 -0.484375 -1.5 -0.484375q-2.0 0 -3.5625 1.4375q-1.546875 1.4375 -2.265625 4.90625l-1.484375 7.078125l-2.59375 0zm22.373413 -2.109375l-0.421875 2.125q-0.9375 0.234375 -1.8125 0.234375q-1.546875 0 -2.46875 -0.75q-0.6875 -0.578125 -0.6875 -1.5625q0 -0.5 0.375 -2.3125l1.84375 -8.828125l-2.046875 0l0.421875 -2.0l2.046875 0l0.78125 -3.75l2.96875 -1.78125l-1.15625 5.53125l2.546875 0l-0.421875 2.0l-2.546875 0l-1.75 8.40625q-0.328125 1.609375 -0.328125 1.921875q0 0.453125 0.25 0.703125q0.265625 0.234375 0.875 0.234375q0.859375 0 1.53125 -0.171875zm2.335785 -3.09375l2.59375 -0.15625q0 1.125 0.34375 1.921875q0.34375 0.78125 1.265625 1.28125q0.921875 0.5 2.15625 0.5q1.71875 0 2.578125 -0.6875q0.859375 -0.6875 0.859375 -1.625q0 -0.671875 -0.515625 -1.265625q-0.53125 -0.609375 -2.59375 -1.484375q-2.046875 -0.890625 -2.625 -1.25q-0.953125 -0.578125 -1.453125 -1.375q-0.484375 -0.796875 -0.484375 -1.828125q0 -1.796875 1.4375 -3.078125q1.4375 -1.296875 4.015625 -1.296875q2.859375 0 4.359375 1.328125q1.5 1.3125 1.546875 3.484375l-2.53125 0.171875q-0.0625 -1.375 -0.984375 -2.171875q-0.90625 -0.8125 -2.578125 -0.8125q-1.34375 0 -2.09375 0.625q-0.75 0.609375 -0.75 1.328125q0 0.703125 0.65625 1.25q0.421875 0.375 2.21875 1.15625q2.96875 1.28125 3.75 2.03125q1.234375 1.1875 1.234375 2.890625q0 1.125 -0.703125 2.21875q-0.6875 1.09375 -2.125 1.75q-1.421875 0.640625 -3.34375 0.640625q-2.640625 0 -4.484375 -1.296875q-1.859375 -1.3125 -1.75 -4.25zm26.312378 11.375q-2.234375 -4.921875 -2.234375 -10.125q0 -3.46875 0.90625 -6.453125q0.90625 -2.984375 2.765625 -5.90625q1.234375 -1.953125 3.9375 -5.046875l2.015625 0q-1.671875 1.796875 -3.546875 5.046875q-1.859375 3.25 -2.703125 6.390625q-0.84375 3.140625 -0.84375 6.296875q0 4.734375 1.640625 9.796875l-1.9375 0zm6.6571045 -11.671875l2.515625 -0.3125q0.28125 2.203125 1.265625 3.15625q0.984375 0.953125 2.578125 0.953125q1.90625 0 3.296875 -1.375q1.40625 -1.375 1.40625 -3.15625q0 -1.546875 -1.046875 -2.546875q-1.046875 -1.015625 -2.796875 -1.015625q-0.203125 0 -0.84375 0.0625l0.453125 -2.171875q0.375 0.0625 0.71875 0.0625q2.21875 0 3.40625 -1.078125q1.203125 -1.078125 1.203125 -2.65625q0 -1.453125 -0.984375 -2.4375q-0.984375 -0.984375 -2.40625 -0.984375q-1.375 0 -2.484375 1.015625q-1.109375 1.0 -1.4375 2.84375l-2.546875 -0.515625q0.640625 -2.59375 2.421875 -4.0q1.796875 -1.421875 4.234375 -1.421875q2.578125 0 4.171875 1.5625q1.609375 1.5625 1.609375 3.828125q0 1.671875 -0.875 2.90625q-0.859375 1.234375 -2.59375 2.0625q1.234375 0.71875 1.84375 1.75q0.609375 1.03125 0.609375 2.359375q0 2.828125 -2.125 4.90625q-2.109375 2.0625 -5.046875 2.0625q-2.84375 0 -4.609375 -1.59375q-1.75 -1.59375 -1.9375 -4.265625zm27.662354 5.5l-2.5 -15.203125l2.53125 0l1.296875 8.375q0.21875 1.375 0.53125 4.484375q0.75 -1.625 1.90625 -3.71875l5.078125 -9.140625l2.734375 0l-8.703125 15.203125l-2.875 0zm21.992188 -5.171875l2.53125 0.265625q-0.546875 1.875 -2.515625 3.5625q-1.953125 1.6875 -4.65625 1.6875q-1.6875 0 -3.09375 -0.78125q-1.40625 -0.78125 -2.15625 -2.265625q-0.734375 -1.5 -0.734375 -3.390625q0 -2.5 1.15625 -4.84375q1.15625 -2.34375 2.984375 -3.46875q1.828125 -1.140625 3.96875 -1.140625q2.71875 0 4.34375 1.6875q1.625 1.6875 1.625 4.609375q0 1.109375 -0.203125 2.296875l-11.1875 0q-0.0625 0.4375 -0.0625 0.796875q0 2.125 0.96875 3.25q0.984375 1.125 2.40625 1.125q1.328125 0 2.609375 -0.859375q1.296875 -0.875 2.015625 -2.53125zm-7.53125 -3.765625l8.53125 0q0.015625 -0.40625 0.015625 -0.578125q0 -1.9375 -0.96875 -2.96875q-0.96875 -1.046875 -2.5 -1.046875q-1.671875 0 -3.046875 1.15625q-1.359375 1.140625 -2.03125 3.4375zm23.170288 3.390625l2.59375 0.28125q-0.96875 2.84375 -2.765625 4.234375q-1.796875 1.375 -4.09375 1.375q-2.484375 0 -4.03125 -1.59375q-1.53125 -1.609375 -1.53125 -4.5q0 -2.484375 0.984375 -4.890625q1.0 -2.40625 2.828125 -3.65625q1.84375 -1.25 4.21875 -1.25q2.4375 0 3.875 1.390625q1.4375 1.375 1.4375 3.640625l-2.546875 0.171875q-0.015625 -1.4375 -0.84375 -2.25q-0.828125 -0.828125 -2.171875 -0.828125q-1.5625 0 -2.703125 1.0q-1.140625 0.984375 -1.796875 3.0q-0.65625 2.0 -0.65625 3.859375q0 1.953125 0.859375 2.9375q0.859375 0.96875 2.125 0.96875q1.25 0 2.40625 -0.953125q1.15625 -0.96875 1.8125 -2.9375zm10.2265625 3.4375l-0.421875 2.125q-0.9375 0.234375 -1.8125 0.234375q-1.546875 0 -2.46875 -0.75q-0.6875 -0.578125 -0.6875 -1.5625q0 -0.5 0.375 -2.3125l1.84375 -8.828125l-2.046875 0l0.421875 -2.0l2.046875 0l0.78125 -3.75l2.96875 -1.78125l-1.15625 5.53125l2.546875 0l-0.421875 2.0l-2.546875 0l-1.75 8.40625q-0.328125 1.609375 -0.328125 1.921875q0 0.453125 0.25 0.703125q0.265625 0.234375 0.875 0.234375q0.859375 0 1.53125 -0.171875zm2.5545654 -3.65625q0 -4.453125 2.609375 -7.375q2.171875 -2.40625 5.671875 -2.40625q2.75 0 4.4375 1.71875q1.6875 1.71875 1.6875 4.640625q0 2.609375 -1.0625 4.875q-1.0625 2.25 -3.015625 3.453125q-1.953125 1.203125 -4.125 1.203125q-1.765625 0 -3.21875 -0.75q-1.453125 -0.765625 -2.21875 -2.15625q-0.765625 -1.390625 -0.765625 -3.203125zm2.59375 -0.265625q0 2.15625 1.03125 3.265625q1.03125 1.109375 2.609375 1.109375q0.828125 0 1.640625 -0.328125q0.828125 -0.34375 1.53125 -1.03125q0.703125 -0.6875 1.1875 -1.5625q0.5 -0.890625 0.796875 -1.90625q0.453125 -1.421875 0.453125 -2.71875q0 -2.0625 -1.046875 -3.203125q-1.03125 -1.140625 -2.609375 -1.140625q-1.21875 0 -2.21875 0.578125q-1.0 0.578125 -1.8125 1.703125q-0.8125 1.109375 -1.1875 2.59375q-0.375 1.484375 -0.375 2.640625zm13.248413 6.03125l3.1875 -15.203125l2.28125 0l-0.640625 3.109375q1.171875 -1.765625 2.296875 -2.609375q1.125 -0.84375 2.296875 -0.84375q0.78125 0 1.90625 0.546875l-1.0625 2.40625q-0.671875 -0.484375 -1.46875 -0.484375q-1.359375 0 -2.796875 1.53125q-1.421875 1.515625 -2.25 5.453125l-1.28125 6.09375l-2.46875 0zm10.0164795 -5.203125l2.59375 -0.15625q0 1.125 0.34375 1.921875q0.34375 0.78125 1.265625 1.28125q0.921875 0.5 2.15625 0.5q1.71875 0 2.578125 -0.6875q0.859375 -0.6875 0.859375 -1.625q0 -0.671875 -0.515625 -1.265625q-0.53125 -0.609375 -2.59375 -1.484375q-2.046875 -0.890625 -2.625 -1.25q-0.953125 -0.578125 -1.453125 -1.375q-0.484375 -0.796875 -0.484375 -1.828125q0 -1.796875 1.4375 -3.078125q1.4375 -1.296875 4.015625 -1.296875q2.859375 0 4.359375 1.328125q1.5 1.3125 1.546875 3.484375l-2.53125 0.171875q-0.0625 -1.375 -0.984375 -2.171875q-0.90625 -0.8125 -2.578125 -0.8125q-1.34375 0 -2.09375 0.625q-0.75 0.609375 -0.75 1.328125q0 0.703125 0.65625 1.25q0.421875 0.375 2.21875 1.15625q2.96875 1.28125 3.75 2.03125q1.234375 1.1875 1.234375 2.890625q0 1.125 -0.703125 2.21875q-0.6875 1.09375 -2.125 1.75q-1.421875 0.640625 -3.34375 0.640625q-2.640625 0 -4.484375 -1.296875q-1.859375 -1.3125 -1.75 -4.25zm23.031128 -0.5625q0 -4.453125 2.609375 -7.375q2.171875 -2.40625 5.671875 -2.40625q2.75 0 4.4374695 1.71875q1.6875 1.71875 1.6875 4.640625q0 2.609375 -1.0625 4.875q-1.0625 2.25 -3.0155945 3.453125q-1.953125 1.203125 -4.125 1.203125q-1.765625 0 -3.21875 -0.75q-1.453125 -0.765625 -2.21875 -2.15625q-0.765625 -1.390625 -0.765625 -3.203125zm2.59375 -0.265625q0 2.15625 1.03125 3.265625q1.03125 1.109375 2.609375 1.109375q0.828125 0 1.640625 -0.328125q0.828125 -0.34375 1.53125 -1.03125q0.703125 -0.6875 1.1875 -1.5625q0.5 -0.890625 0.796875 -1.90625q0.45309448 -1.421875 0.45309448 -2.71875q0 -2.0625 -1.0468445 -3.203125q-1.03125 -1.140625 -2.609375 -1.140625q-1.21875 0 -2.21875 0.578125q-1.0 0.578125 -1.8125 1.703125q-0.8125 1.109375 -1.1875 2.59375q-0.375 1.484375 -0.375 2.640625zm13.607758 6.03125l2.765625 -13.203125l-2.3125 0l0.40625 -2.0l2.328125 0l0.4375 -2.171875q0.34375 -1.609375 0.703125 -2.328125q0.375 -0.71875 1.1875 -1.1875q0.828125 -0.46875 2.25 -0.46875q0.984375 0 2.859375 0.421875l-0.46875 2.265625q-1.3125 -0.34375 -2.203125 -0.34375q-0.765625 0 -1.15625 0.375q-0.390625 0.375 -0.671875 1.796875l-0.34375 1.640625l2.890625 0l-0.421875 2.0l-2.890625 0l-2.765625 13.203125l-2.59375 0zm27.10913 -5.171875l2.53125 0.265625q-0.546875 1.875 -2.515625 3.5625q-1.953125 1.6875 -4.65625 1.6875q-1.6875 0 -3.09375 -0.78125q-1.40625 -0.78125 -2.15625 -2.265625q-0.734375 -1.5 -0.734375 -3.390625q0 -2.5 1.15625 -4.84375q1.15625 -2.34375 2.984375 -3.46875q1.828125 -1.140625 3.96875 -1.140625q2.71875 0 4.34375 1.6875q1.625 1.6875 1.625 4.609375q0 1.109375 -0.203125 2.296875l-11.1875 0q-0.0625 0.4375 -0.0625 0.796875q0 2.125 0.96875 3.25q0.984375 1.125 2.40625 1.125q1.328125 0 2.609375 -0.859375q1.296875 -0.875 2.015625 -2.53125zm-7.53125 -3.765625l8.53125 0q0.015625 -0.40625 0.015625 -0.578125q0 -1.9375 -0.96875 -2.96875q-0.96875 -1.046875 -2.5 -1.046875q-1.671875 0 -3.046875 1.15625q-1.359375 1.140625 -2.03125 3.4375zm22.498413 7.21875q-2.21875 2.0625 -4.25 2.0625q-2.125 0 -3.59375 -1.609375q-1.453125 -1.609375 -1.453125 -4.578125q0 -2.828125 1.109375 -5.125q1.109375 -2.296875 2.828125 -3.4375q1.734375 -1.140625 3.5625 -1.140625q1.390625 0 2.53125 0.78125q1.140625 0.78125 1.84375 2.34375l0.59375 -2.78125l2.234375 0l-4.390625 21.03125l-2.59375 0l1.578125 -7.546875zm-6.734375 -4.46875q0 2.25 0.921875 3.328125q0.9375 1.078125 2.328125 1.078125q1.171875 0 2.375 -0.96875q1.203125 -0.96875 1.96875 -2.921875q0.765625 -1.953125 0.765625 -3.765625q0 -1.859375 -0.96875 -2.921875q-0.953125 -1.0625 -2.34375 -1.0625q-1.359375 0 -2.375 0.890625q-1.328125 1.140625 -2.09375 3.3125q-0.578125 1.65625 -0.578125 3.03125zm23.607788 3.4375q-2.734375 3.09375 -5.609375 3.09375q-1.75 0 -2.84375 -1.0q-1.078125 -1.015625 -1.078125 -2.484375q0 -0.953125 0.484375 -3.296875l1.84375 -8.765625l2.59375 0l-2.03125 9.71875q-0.265625 1.21875 -0.265625 1.890625q0 0.859375 0.515625 1.34375q0.53125 0.46875 1.546875 0.46875q1.09375 0 2.125 -0.515625q1.046875 -0.53125 1.796875 -1.4375q0.75 -0.90625 1.21875 -2.140625q0.3125 -0.78125 0.734375 -2.765625l1.375 -6.5625l2.59375 0l-3.1875 15.203125l-2.390625 0l0.578125 -2.75zm16.185913 0.859375q-1.359375 1.15625 -2.609375 1.703125q-1.234375 0.53125 -2.65625 0.53125q-2.109375 0 -3.40625 -1.234375q-1.28125 -1.25 -1.28125 -3.171875q0 -1.28125 0.578125 -2.25q0.59375 -0.984375 1.546875 -1.578125q0.96875 -0.59375 2.34375 -0.859375q0.875 -0.171875 3.3125 -0.265625q2.453125 -0.109375 3.515625 -0.515625q0.296875 -1.0625 0.296875 -1.765625q0 -0.90625 -0.65625 -1.421875q-0.90625 -0.71875 -2.640625 -0.71875q-1.625 0 -2.671875 0.734375q-1.03125 0.71875 -1.5 2.046875l-2.625 -0.234375q0.796875 -2.25 2.53125 -3.453125q1.75 -1.203125 4.390625 -1.203125q2.828125 0 4.46875 1.34375q1.265625 1.0 1.265625 2.609375q0 1.21875 -0.359375 2.8125l-0.84375 3.78125q-0.40625 1.8125 -0.40625 2.9375q0 0.71875 0.328125 2.0625l-2.625 0q-0.21875 -0.75 -0.296875 -1.890625zm0.953125 -5.8125q-0.546875 0.21875 -1.171875 0.328125q-0.625 0.109375 -2.078125 0.25q-2.265625 0.1875 -3.203125 0.5q-0.921875 0.3125 -1.40625 0.984375q-0.46875 0.671875 -0.46875 1.484375q0 1.09375 0.75 1.796875q0.765625 0.703125 2.15625 0.703125q1.28125 0 2.46875 -0.671875q1.1875 -0.6875 1.875 -1.90625q0.6875 -1.21875 1.078125 -3.46875zm4.889038 7.703125l4.390625 -21.0l2.59375 0l-4.390625 21.0l-2.59375 0zm14.664124 0l4.390625 -21.0l2.59375 0l-4.390625 21.0l-2.59375 0zm17.890747 -5.171875l2.53125 0.265625q-0.546875 1.875 -2.515625 3.5625q-1.953125 1.6875 -4.65625 1.6875q-1.6875 0 -3.09375 -0.78125q-1.40625 -0.78125 -2.15625 -2.265625q-0.734375 -1.5 -0.734375 -3.390625q0 -2.5 1.15625 -4.84375q1.15625 -2.34375 2.984375 -3.46875q1.828125 -1.140625 3.96875 -1.140625q2.71875 0 4.34375 1.6875q1.625 1.6875 1.625 4.609375q0 1.109375 -0.203125 2.296875l-11.1875 0q-0.0625 0.4375 -0.0625 0.796875q0 2.125 0.96875 3.25q0.984375 1.125 2.40625 1.125q1.328125 0 2.609375 -0.859375q1.296875 -0.875 2.015625 -2.53125zm-7.53125 -3.765625l8.53125 0q0.015625 -0.40625 0.015625 -0.578125q0 -1.9375 -0.96875 -2.96875q-0.96875 -1.046875 -2.5 -1.046875q-1.671875 0 -3.046875 1.15625q-1.359375 1.140625 -2.03125 3.4375zm12.670288 8.9375l3.1875 -15.203125l2.34375 0l-0.5625 2.640625q1.53125 -1.5625 2.859375 -2.265625q1.34375 -0.71875 2.734375 -0.71875q1.84375 0 2.890625 1.0q1.0625 1.0 1.0625 2.671875q0 0.84375 -0.375 2.671875l-1.9375 9.203125l-2.59375 0l2.03125 -9.640625q0.296875 -1.40625 0.296875 -2.078125q0 -0.75 -0.53125 -1.21875q-0.515625 -0.484375 -1.5 -0.484375q-2.0 0 -3.5625 1.4375q-1.546875 1.4375 -2.265625 4.90625l-1.484375 7.078125l-2.59375 0zm16.170288 1.375l2.625 0.25q-0.03125 0.875 0.203125 1.3125q0.25 0.453125 0.78125 0.703125q0.703125 0.3125 1.828125 0.3125q2.34375 0 3.375 -1.21875q0.671875 -0.8125 1.25 -3.546875l0.25 -1.234375q-2.015625 2.046875 -4.296875 2.046875q-2.296875 0 -3.859375 -1.6875q-1.546875 -1.703125 -1.546875 -4.8125q0 -2.5625 1.21875 -4.703125q1.21875 -2.15625 2.90625 -3.25q1.703125 -1.09375 3.484375 -1.09375q3.0 0 4.609375 2.828125l0.515625 -2.484375l2.375 0l-3.0625 14.671875q-0.5 2.421875 -1.3125 3.765625q-0.8125 1.359375 -2.265625 2.109375q-1.453125 0.75 -3.359375 0.75q-1.828125 0 -3.15625 -0.484375q-1.328125 -0.46875 -1.984375 -1.375q-0.640625 -0.90625 -0.640625 -2.09375q0 -0.34375 0.0625 -0.765625zm3.234375 -8.109375q0 1.5625 0.3125 2.359375q0.421875 1.09375 1.21875 1.671875q0.796875 0.578125 1.765625 0.578125q1.28125 0 2.53125 -0.890625q1.265625 -0.890625 2.046875 -2.765625q0.78125 -1.875 0.78125 -3.578125q0 -1.875 -1.046875 -2.984375q-1.03125 -1.125 -2.5625 -1.125q-0.953125 0 -1.84375 0.515625q-0.875 0.515625 -1.640625 1.546875q-0.765625 1.03125 -1.171875 2.484375q-0.390625 1.453125 -0.390625 2.1875zm19.279663 4.625l-0.421875 2.125q-0.9375 0.234375 -1.8125 0.234375q-1.546875 0 -2.46875 -0.75q-0.6875 -0.578125 -0.6875 -1.5625q0 -0.5 0.375 -2.3125l1.84375 -8.828125l-2.046875 0l0.421875 -2.0l2.046875 0l0.78125 -3.75l2.96875 -1.78125l-1.15625 5.53125l2.546875 0l-0.421875 2.0l-2.546875 0l-1.75 8.40625q-0.328125 1.609375 -0.328125 1.921875q0 0.453125 0.25 0.703125q0.265625 0.234375 0.875 0.234375q0.859375 0 1.53125 -0.171875zm2.0858154 2.109375l4.390625 -21.0l2.59375 0l-1.6875 8.0625q1.453125 -1.390625 2.6875 -2.0q1.25 -0.609375 2.578125 -0.609375q1.890625 0 2.9375 1.0q1.046875 0.984375 1.046875 2.625q0 0.796875 -0.46875 2.9375l-1.875 8.984375l-2.59375 0l1.9375 -9.203125q0.421875 -2.015625 0.421875 -2.53125q0 -0.734375 -0.515625 -1.203125q-0.515625 -0.484375 -1.5 -0.484375q-1.40625 0 -2.6875 0.75q-1.265625 0.734375 -1.984375 2.015625q-0.71875 1.28125 -1.328125 4.125l-1.359375 6.53125l-2.59375 0zm21.154663 -21.359375q2.265625 4.9375 2.265625 10.125q0 3.46875 -0.90625 6.453125q-0.90625 2.984375 -2.78125 5.90625q-1.234375 1.953125 -3.9375 5.046875l-2.015625 0q1.65625 -1.796875 3.53125 -5.0625q1.890625 -3.25 2.71875 -6.375q0.84375 -3.125 0.84375 -6.3125q0 -4.71875 -1.65625 -9.78125l1.9375 0z" fill-rule="nonzero"/><path fill="#000000" fill-opacity="0.0" d="m320.74014 249.04068l93.95276 0l0 61.007874l-93.95276 0z" fill-rule="evenodd"/><path fill="#434343" d="m348.66147 269.36755l0 18.484375l4.15625 0q1.25 0 1.78125 0.484375q0.53125 0.484375 0.53125 1.265625q0 0.75 -0.53125 1.234375q-0.53125 0.484375 -1.78125 0.484375l-11.796875 0q-1.25 0 -1.78125 -0.484375q-0.53125 -0.484375 -0.53125 -1.265625q0 -0.75 0.53125 -1.234375q0.53125 -0.484375 1.78125 -0.484375l4.171875 0l0 -15.015625l-2.796875 0q-1.234375 0 -1.78125 -0.46875q-0.546875 -0.484375 -0.546875 -1.265625q0 -0.765625 0.53125 -1.25q0.546875 -0.484375 1.796875 -0.484375l6.265625 0zm20.29712 0l0 3.671875l-4.125 0l0 -3.671875l4.125 0zm0.46875 6.59375l0 11.890625l4.171875 0q1.25 0 1.78125 0.484375q0.53125 0.484375 0.53125 1.265625q0 0.75 -0.53125 1.234375q-0.53125 0.484375 -1.78125 0.484375l-11.796875 0q-1.25 0 -1.78125 -0.484375q-0.53125 -0.484375 -0.53125 -1.265625q0 -0.75 0.53125 -1.234375q0.53125 -0.484375 1.78125 -0.484375l4.15625 0l0 -8.421875l-2.78125 0q-1.234375 0 -1.78125 -0.484375q-0.546875 -0.484375 -0.546875 -1.265625q0 -0.765625 0.53125 -1.234375q0.546875 -0.484375 1.796875 -0.484375l6.25 0zm22.8284 4.0625q-0.84375 -0.53125 -1.78125 -0.796875q-0.921875 -0.265625 -1.9375 -0.265625q-2.015625 0 -3.203125 0.671875q-0.515625 0.28125 -0.515625 0.625q0 0.390625 0.703125 0.75q0.546875 0.28125 2.421875 0.53125q3.453125 0.46875 4.8125 0.953125q1.78125 0.625 2.734375 1.859375q0.96875 1.234375 0.96875 2.609375q0 1.859375 -1.640625 3.109375q-2.359375 1.8125 -6.109375 1.8125q-1.5 0 -2.78125 -0.265625q-1.28125 -0.265625 -2.34375 -0.765625q-0.25 0.21875 -0.546875 0.34375q-0.28125 0.109375 -0.59375 0.109375q-0.8125 0 -1.296875 -0.53125q-0.46875 -0.53125 -0.46875 -1.78125l0 -1.171875q0 -1.25 0.46875 -1.78125q0.484375 -0.546875 1.265625 -0.546875q0.625 0 1.046875 0.359375q0.421875 0.34375 0.65625 1.1875q0.796875 0.671875 1.90625 1.03125q1.125 0.34375 2.578125 0.34375q2.390625 0 3.71875 -0.75q0.625 -0.375 0.625 -0.78125q0 -0.671875 -0.90625 -1.109375q-0.890625 -0.4375 -3.703125 -0.75q-4.171875 -0.4375 -5.578125 -1.6875q-1.40625 -1.234375 -1.40625 -3.046875q0 -1.859375 1.578125 -3.09375q2.125 -1.703125 5.578125 -1.703125q1.203125 0 2.3125 0.234375q1.109375 0.234375 2.125 0.703125q0.3125 -0.234375 0.59375 -0.34375q0.28125 -0.125 0.515625 -0.125q0.71875 0 1.1875 0.53125q0.46875 0.53125 0.46875 1.78125l0 0.84375q0 1.140625 -0.265625 1.546875q-0.546875 0.78125 -1.46875 0.78125q-0.625 0 -1.109375 -0.390625q-0.46875 -0.390625 -0.609375 -1.03125z" fill-rule="nonzero"/><path fill="#000000" fill-opacity="0.0" d="m82.203415 56.695538l106.48819 0l0 53.700787l-106.48819 0z" fill-rule="evenodd"/><path fill="#434343" d="m106.66626 92.52492l3.453125 -7.09375q-1.28125 0 -1.640625 -0.21875q-0.78125 -0.484375 -0.78125 -1.390625q0 -0.703125 0.484375 -1.140625q0.5 -0.453125 1.65625 -0.453125l4.390625 0q1.15625 0 1.640625 0.453125q0.5 0.4375 0.5 1.15625q0 0.703125 -0.5 1.15625q-0.484375 0.4375 -1.640625 0.4375l-0.53125 0l-5.359375 10.984375l-3.34375 0l-5.359375 -10.984375l-0.453125 0q-1.15625 0 -1.65625 -0.4375q-0.484375 -0.453125 -0.484375 -1.171875q0 -0.703125 0.484375 -1.140625q0.5 -0.453125 1.65625 -0.453125l4.296875 0q1.140625 0 1.625 0.453125q0.5 0.4375 0.5 1.15625q0 0.890625 -0.75 1.359375q-0.375 0.234375 -1.671875 0.234375l3.484375 7.09375zm27.21875 -1.578125l-13.140625 0q0.5 1.25 1.765625 2.015625q1.28125 0.765625 3.453125 0.765625q1.78125 0 4.734375 -0.765625q1.21875 -0.3125 1.6875 -0.3125q0.640625 0 1.078125 0.453125q0.4375 0.453125 0.4375 1.140625q0 0.625 -0.46875 1.0625q-0.625 0.578125 -3.046875 1.109375q-2.421875 0.515625 -4.65625 0.515625q-3.84375 0 -6.15625 -2.171875q-2.296875 -2.171875 -2.296875 -5.34375q0 -3.375 2.484375 -5.484375q2.5 -2.125 5.75 -2.125q1.953125 0 3.578125 0.6875q1.640625 0.6875 2.4375 1.484375q1.125 1.15625 1.859375 2.859375q0.5 1.1875 0.5 2.75l0 1.359375zm-3.546875 -3.203125q-0.734375 -1.375 -1.921875 -2.046875q-1.1875 -0.6875 -2.828125 -0.6875q-1.625 0 -2.8125 0.6875q-1.1875 0.671875 -1.9375 2.046875l9.5 0zm19.703125 -4.9375q0.578125 -0.546875 1.1875 -0.546875q0.6875 0 1.125 0.5q0.453125 0.484375 0.453125 1.625l0 2.0625q0 1.15625 -0.453125 1.640625q-0.4375 0.484375 -1.15625 0.484375q-0.65625 0 -1.109375 -0.375q-0.328125 -0.28125 -0.515625 -1.140625q-0.1875 -0.875 -0.90625 -1.296875q-1.265625 -0.75 -3.234375 -0.75q-2.265625 0 -3.640625 1.328125q-1.359375 1.328125 -1.359375 3.359375q0 1.875 1.3125 2.96875q1.3125 1.078125 4.359375 1.078125q2.0 0 3.265625 -0.40625q0.75 -0.25 1.421875 -0.84375q0.671875 -0.609375 1.21875 -0.609375q0.65625 0 1.125 0.484375q0.484375 0.484375 0.484375 1.140625q0 1.0625 -1.453125 2.015625q-2.15625 1.421875 -6.3125 1.421875q-3.734375 0 -5.8125 -1.546875q-2.8125 -2.078125 -2.8125 -5.6875q0 -3.421875 2.28125 -5.65625q2.28125 -2.25 5.953125 -2.25q1.328125 0 2.46875 0.25q1.140625 0.25 2.109375 0.75zm15.84375 -7.125l0 17.53125l3.234375 0q1.15625 0 1.640625 0.453125q0.5 0.4375 0.5 1.15625q0 0.703125 -0.5 1.15625q-0.484375 0.4375 -1.640625 0.4375l-9.671875 0q-1.15625 0 -1.65625 -0.4375q-0.484375 -0.453125 -0.484375 -1.171875q0 -0.703125 0.484375 -1.140625q0.5 -0.453125 1.65625 -0.453125l3.234375 0l0 -13.359375l-2.859375 0.75q-0.6875 0.1875 -1.03125 0.1875q-0.609375 0 -1.0625 -0.484375q-0.4375 -0.484375 -0.4375 -1.1875q0 -0.640625 0.328125 -1.0q0.328125 -0.375 1.375 -0.65625l6.890625 -1.78125z" fill-rule="nonzero"/><path fill="#000000" fill-opacity="0.0" d="m313.41223 56.695538l106.48819 0l0 53.700787l-106.48819 0z" fill-rule="evenodd"/><path fill="#434343" d="m337.87506 92.52492l3.453125 -7.09375q-1.28125 0 -1.640625 -0.21875q-0.78125 -0.484375 -0.78125 -1.390625q0 -0.703125 0.484375 -1.140625q0.5 -0.453125 1.65625 -0.453125l4.390625 0q1.15625 0 1.640625 0.453125q0.5 0.4375 0.5 1.15625q0 0.703125 -0.5 1.15625q-0.484375 0.4375 -1.640625 0.4375l-0.53125 0l-5.359375 10.984375l-3.34375 0l-5.359375 -10.984375l-0.453125 0q-1.15625 0 -1.65625 -0.4375q-0.484375 -0.453125 -0.484375 -1.171875q0 -0.703125 0.484375 -1.140625q0.5 -0.453125 1.65625 -0.453125l4.296875 0q1.140625 0 1.625 0.453125q0.5 0.4375 0.5 1.15625q0 0.890625 -0.75 1.359375q-0.375 0.234375 -1.671875 0.234375l3.484375 7.09375zm27.21875 -1.578125l-13.140625 0q0.5 1.25 1.765625 2.015625q1.28125 0.765625 3.453125 0.765625q1.78125 0 4.734375 -0.765625q1.21875 -0.3125 1.6875 -0.3125q0.640625 0 1.078125 0.453125q0.4375 0.453125 0.4375 1.140625q0 0.625 -0.46875 1.0625q-0.625 0.578125 -3.046875 1.109375q-2.421875 0.515625 -4.65625 0.515625q-3.84375 0 -6.15625 -2.171875q-2.296875 -2.171875 -2.296875 -5.34375q0 -3.375 2.484375 -5.484375q2.5 -2.125 5.75 -2.125q1.953125 0 3.578125 0.6875q1.640625 0.6875 2.4375 1.484375q1.125 1.15625 1.859375 2.859375q0.5 1.1875 0.5 2.75l0 1.359375zm-3.546875 -3.203125q-0.734375 -1.375 -1.921875 -2.046875q-1.1875 -0.6875 -2.828125 -0.6875q-1.625 0 -2.8125 0.6875q-1.1875 0.671875 -1.9375 2.046875l9.5 0zm19.703125 -4.9375q0.578125 -0.546875 1.1875 -0.546875q0.6875 0 1.125 0.5q0.453125 0.484375 0.453125 1.625l0 2.0625q0 1.15625 -0.453125 1.640625q-0.4375 0.484375 -1.15625 0.484375q-0.65625 0 -1.109375 -0.375q-0.328125 -0.28125 -0.515625 -1.140625q-0.1875 -0.875 -0.90625 -1.296875q-1.265625 -0.75 -3.234375 -0.75q-2.265625 0 -3.640625 1.328125q-1.359375 1.328125 -1.359375 3.359375q0 1.875 1.3125 2.96875q1.3125 1.078125 4.359375 1.078125q2.0 0 3.265625 -0.40625q0.75 -0.25 1.421875 -0.84375q0.671875 -0.609375 1.21875 -0.609375q0.65625 0 1.125 0.484375q0.484375 0.484375 0.484375 1.140625q0 1.0625 -1.453125 2.015625q-2.15625 1.421875 -6.3125 1.421875q-3.734375 0 -5.8125 -1.546875q-2.8125 -2.078125 -2.8125 -5.6875q0 -3.421875 2.28125 -5.65625q2.28125 -2.25 5.953125 -2.25q1.328125 0 2.46875 0.25q1.140625 0.25 2.109375 0.75zm11.21875 10.40625l7.015625 0q0.578125 -0.46875 1.09375 -0.46875q0.734375 0 1.15625 0.484375q0.4375 0.484375 0.4375 1.65625l0 1.53125l-14.59375 0l0 -3.390625q8.65625 -7.140625 10.453125 -9.1875q0.90625 -1.046875 0.90625 -1.984375q0 -1.171875 -1.03125 -2.0625q-1.015625 -0.90625 -2.71875 -0.90625q-1.71875 0 -2.859375 1.0q-0.59375 0.53125 -0.953125 1.578125q-0.21875 0.65625 -0.609375 0.9375q-0.375 0.28125 -0.9375 0.28125q-0.65625 0 -1.140625 -0.46875q-0.46875 -0.46875 -0.46875 -1.09375q0 -0.9375 0.859375 -2.34375q0.875 -1.40625 2.53125 -2.25q1.671875 -0.84375 3.625 -0.84375q3.03125 0 4.96875 1.84375q1.9375 1.828125 1.9375 4.4375q0 1.328125 -0.5625 2.46875q-0.546875 1.125 -2.65625 3.125q-1.65625 1.578125 -6.453125 5.65625z" fill-rule="nonzero"/><path fill="#000000" fill-opacity="0.0" d="m546.7414 56.695538l106.48822 0l0 53.700787l-106.48822 0z" fill-rule="evenodd"/><path fill="#434343" d="m571.2042 92.52492l3.453125 -7.09375q-1.28125 0 -1.640625 -0.21875q-0.78125 -0.484375 -0.78125 -1.390625q0 -0.703125 0.484375 -1.140625q0.5 -0.453125 1.65625 -0.453125l4.390625 0q1.15625 0 1.640625 0.453125q0.5 0.4375 0.5 1.15625q0 0.703125 -0.5 1.15625q-0.484375 0.4375 -1.640625 0.4375l-0.53125 0l-5.359375 10.984375l-3.34375 0l-5.359375 -10.984375l-0.453125 0q-1.15625 0 -1.65625 -0.4375q-0.484375 -0.453125 -0.484375 -1.171875q0 -0.703125 0.484375 -1.140625q0.5 -0.453125 1.65625 -0.453125l4.296875 0q1.140625 0 1.625 0.453125q0.5 0.4375 0.5 1.15625q0 0.890625 -0.75 1.359375q-0.375 0.234375 -1.671875 0.234375l3.484375 7.09375zm27.21875 -1.578125l-13.140625 0q0.5 1.25 1.765625 2.015625q1.28125 0.765625 3.453125 0.765625q1.78125 0 4.734375 -0.765625q1.21875 -0.3125 1.6875 -0.3125q0.640625 0 1.078125 0.453125q0.4375 0.453125 0.4375 1.140625q0 0.625 -0.46875 1.0625q-0.625 0.578125 -3.046875 1.109375q-2.421875 0.515625 -4.65625 0.515625q-3.84375 0 -6.15625 -2.171875q-2.296875 -2.171875 -2.296875 -5.34375q0 -3.375 2.484375 -5.484375q2.5 -2.125 5.75 -2.125q1.953125 0 3.578125 0.6875q1.640625 0.6875 2.4375 1.484375q1.125 1.15625 1.859375 2.859375q0.5 1.1875 0.5 2.75l0 1.359375zm-3.546875 -3.203125q-0.734375 -1.375 -1.921875 -2.046875q-1.1875 -0.6875 -2.828125 -0.6875q-1.625 0 -2.8125 0.6875q-1.1875 0.671875 -1.9375 2.046875l9.5 0zm19.703125 -4.9375q0.578125 -0.546875 1.1875 -0.546875q0.6875 0 1.125 0.5q0.453125 0.484375 0.453125 1.625l0 2.0625q0 1.15625 -0.453125 1.640625q-0.4375 0.484375 -1.15625 0.484375q-0.65625 0 -1.109375 -0.375q-0.328125 -0.28125 -0.515625 -1.140625q-0.1875 -0.875 -0.90625 -1.296875q-1.265625 -0.75 -3.234375 -0.75q-2.265625 0 -3.640625 1.328125q-1.359375 1.328125 -1.359375 3.359375q0 1.875 1.3125 2.96875q1.3125 1.078125 4.359375 1.078125q2.0 0 3.265625 -0.40625q0.75 -0.25 1.421875 -0.84375q0.671875 -0.609375 1.21875 -0.609375q0.65625 0 1.125 0.484375q0.484375 0.484375 0.484375 1.140625q0 1.0625 -1.453125 2.015625q-2.15625 1.421875 -6.3125 1.421875q-3.734375 0 -5.8125 -1.546875q-2.8125 -2.078125 -2.8125 -5.6875q0 -3.421875 2.28125 -5.65625q2.28125 -2.25 5.953125 -2.25q1.328125 0 2.46875 0.25q1.140625 0.25 2.109375 0.75zm18.78125 2.90625q1.421875 0.96875 2.125 2.25q0.703125 1.265625 0.703125 2.84375q0 1.703125 -0.9375 3.15625q-0.921875 1.4375 -2.6875 2.1875q-1.765625 0.734375 -4.625 0.734375q-3.71875 0 -5.59375 -1.15625q-1.046875 -0.65625 -1.046875 -1.5625q0 -0.6875 0.453125 -1.15625q0.46875 -0.484375 1.125 -0.484375q0.453125 0 0.9375 0.3125q0.6875 0.46875 1.296875 0.625q0.9375 0.21875 2.578125 0.21875q2.796875 0 4.046875 -0.71875q1.25 -0.734375 1.25 -2.0625q0 -0.984375 -0.734375 -1.890625q-0.71875 -0.921875 -1.9375 -1.421875q-0.703125 -0.28125 -2.375 -0.390625q-0.796875 -0.046875 -1.234375 -0.484375q-0.421875 -0.453125 -0.421875 -1.109375q0 -0.6875 0.46875 -1.15625q0.46875 -0.46875 1.1875 -0.46875q1.59375 0 1.703125 -0.015625q0.625 -0.0625 1.25 -0.40625q0.625 -0.34375 1.0 -0.9375q0.390625 -0.609375 0.390625 -1.25q0 -1.015625 -0.90625 -1.75q-0.890625 -0.75 -2.6875 -0.75q-2.3125 0 -3.53125 1.34375q-0.359375 0.390625 -0.578125 0.5q-0.328125 0.171875 -0.734375 0.171875q-0.65625 0 -1.125 -0.46875q-0.46875 -0.46875 -0.46875 -1.15625q0 -1.078125 1.4375 -2.09375q2.09375 -1.484375 5.234375 -1.484375q2.96875 0 4.765625 1.6875q1.796875 1.6875 1.796875 4.0625q0 1.234375 -0.53125 2.3125q-0.53125 1.0625 -1.59375 1.96875z" fill-rule="nonzero"/><path fill="#000000" fill-opacity="0.0" d="m121.43307 8.6955385l524.56696 0l0 53.700787l-524.56696 0z" fill-rule="evenodd"/><path fill="#3c78d8" d="m240.97899 45.855537l-2.5 -15.203125l2.53125 0l1.296875 8.375q0.21875 1.375 0.53125 4.484375q0.75 -1.625 1.90625 -3.71875l5.078125 -9.140625l2.734375 0l-8.703125 15.203125l-2.875 0zm21.992172 -5.171875l2.53125 0.265625q-0.546875 1.875 -2.515625 3.5625q-1.953125 1.6875 -4.65625 1.6875q-1.6875 0 -3.0937347 -0.78125q-1.40625 -0.78125 -2.15625 -2.265625q-0.734375 -1.5 -0.734375 -3.390625q0 -2.5 1.15625 -4.84375q1.15625 -2.34375 2.9843597 -3.46875q1.828125 -1.140625 3.96875 -1.140625q2.71875 0 4.34375 1.6875q1.625 1.6875 1.625 4.609375q0 1.109375 -0.203125 2.296875l-11.187485 0q-0.0625 0.4375 -0.0625 0.796875q0 2.125 0.96875 3.25q0.98435974 1.125 2.4062347 1.125q1.328125 0 2.609375 -0.859375q1.296875 -0.875 2.015625 -2.53125zm-7.5312347 -3.765625l8.531235 0q0.015625 -0.40625 0.015625 -0.578125q0 -1.9375 -0.96875 -2.96875q-0.96875 -1.046875 -2.5 -1.046875q-1.671875 0 -3.046875 1.15625q-1.359375 1.140625 -2.0312347 3.4375zm23.170273 3.390625l2.59375 0.28125q-0.96875 2.84375 -2.765625 4.234375q-1.796875 1.375 -4.09375 1.375q-2.484375 0 -4.03125 -1.59375q-1.53125 -1.609375 -1.53125 -4.5q0 -2.484375 0.984375 -4.890625q1.0 -2.40625 2.828125 -3.65625q1.84375 -1.25 4.21875 -1.25q2.4375 0 3.875 1.390625q1.4375 1.375 1.4375 3.640625l-2.546875 0.171875q-0.015625 -1.4375 -0.84375 -2.25q-0.828125 -0.828125 -2.171875 -0.828125q-1.5625 0 -2.703125 1.0q-1.140625 0.984375 -1.796875 3.0q-0.65625 2.0 -0.65625 3.859375q0 1.953125 0.859375 2.9375q0.859375 0.96875 2.125 0.96875q1.25 0 2.40625 -0.953125q1.15625 -0.96875 1.8125 -2.9375zm10.2265625 3.4375l-0.421875 2.125q-0.9375 0.234375 -1.8125 0.234375q-1.546875 0 -2.46875 -0.75q-0.6875 -0.578125 -0.6875 -1.5625q0 -0.5 0.375 -2.3125l1.84375 -8.828125l-2.046875 0l0.421875 -2.0l2.046875 0l0.78125 -3.75l2.96875 -1.78125l-1.15625 5.53125l2.546875 0l-0.421875 2.0l-2.546875 0l-1.75 8.40625q-0.328125 1.609375 -0.328125 1.921875q0 0.453125 0.25 0.703125q0.265625 0.234375 0.875 0.234375q0.859375 0 1.53125 -0.171875zm2.5545654 -3.65625q0 -4.453125 2.609375 -7.375q2.171875 -2.40625 5.671875 -2.40625q2.75 0 4.4375 1.71875q1.6875 1.71875 1.6875 4.640625q0 2.609375 -1.0625 4.875q-1.0625 2.25 -3.015625 3.453125q-1.953125 1.203125 -4.125 1.203125q-1.765625 0 -3.21875 -0.75q-1.453125 -0.765625 -2.21875 -2.15625q-0.765625 -1.390625 -0.765625 -3.203125zm2.59375 -0.265625q0 2.15625 1.03125 3.265625q1.03125 1.109375 2.609375 1.109375q0.828125 0 1.640625 -0.328125q0.828125 -0.34375 1.53125 -1.03125q0.703125 -0.6875 1.1875 -1.5625q0.5 -0.890625 0.796875 -1.90625q0.453125 -1.421875 0.453125 -2.71875q0 -2.0625 -1.046875 -3.203125q-1.03125 -1.140625 -2.609375 -1.140625q-1.21875 0 -2.21875 0.578125q-1.0 0.578125 -1.8125 1.703125q-0.8125 1.109375 -1.1875 2.59375q-0.375 1.484375 -0.375 2.640625zm13.248413 6.03125l3.1875 -15.203125l2.28125 0l-0.640625 3.109375q1.171875 -1.765625 2.296875 -2.609375q1.125 -0.84375 2.296875 -0.84375q0.78125 0 1.90625 0.546875l-1.0625 2.40625q-0.671875 -0.484375 -1.46875 -0.484375q-1.359375 0 -2.796875 1.53125q-1.421875 1.515625 -2.25 5.453125l-1.28125 6.09375l-2.46875 0zm10.0164795 -5.203125l2.59375 -0.15625q0 1.125 0.34375 1.921875q0.34375 0.78125 1.265625 1.28125q0.921875 0.5 2.15625 0.5q1.71875 0 2.578125 -0.6875q0.859375 -0.6875 0.859375 -1.625q0 -0.671875 -0.515625 -1.265625q-0.53125 -0.609375 -2.59375 -1.484375q-2.046875 -0.890625 -2.625 -1.25q-0.953125 -0.578125 -1.453125 -1.375q-0.484375 -0.796875 -0.484375 -1.828125q0 -1.796875 1.4375 -3.078125q1.4375 -1.296875 4.015625 -1.296875q2.859375 0 4.359375 1.328125q1.5 1.3125 1.546875 3.484375l-2.53125 0.171875q-0.0625 -1.375 -0.984375 -2.171875q-0.90625 -0.8125 -2.578125 -0.8125q-1.34375 0 -2.09375 0.625q-0.75 0.609375 -0.75 1.328125q0 0.703125 0.65625 1.25q0.421875 0.375 2.21875 1.15625q2.96875 1.28125 3.75 2.03125q1.234375 1.1875 1.234375 2.890625q0 1.125 -0.703125 2.21875q-0.6875 1.09375 -2.125 1.75q-1.421875 0.640625 -3.34375 0.640625q-2.640625 0 -4.484375 -1.296875q-1.859375 -1.3125 -1.75 -4.25zm23.031128 -0.5625q0 -4.453125 2.609375 -7.375q2.171875 -2.40625 5.671875 -2.40625q2.75 0 4.4375 1.71875q1.6875 1.71875 1.6875 4.640625q0 2.609375 -1.0625 4.875q-1.0625 2.25 -3.015625 3.453125q-1.953125 1.203125 -4.125 1.203125q-1.765625 0 -3.21875 -0.75q-1.453125 -0.765625 -2.21875 -2.15625q-0.765625 -1.390625 -0.765625 -3.203125zm2.59375 -0.265625q0 2.15625 1.03125 3.265625q1.03125 1.109375 2.609375 1.109375q0.828125 0 1.640625 -0.328125q0.828125 -0.34375 1.53125 -1.03125q0.703125 -0.6875 1.1875 -1.5625q0.5 -0.890625 0.796875 -1.90625q0.453125 -1.421875 0.453125 -2.71875q0 -2.0625 -1.046875 -3.203125q-1.03125 -1.140625 -2.609375 -1.140625q-1.21875 0 -2.21875 0.578125q-1.0 0.578125 -1.8125 1.703125q-0.8125 1.109375 -1.1875 2.59375q-0.375 1.484375 -0.375 2.640625zm13.607788 6.03125l2.765625 -13.203125l-2.3125 0l0.40625 -2.0l2.328125 0l0.4375 -2.171875q0.34375 -1.609375 0.703125 -2.328125q0.375 -0.71875 1.1875 -1.1875q0.828125 -0.46875 2.25 -0.46875q0.984375 0 2.859375 0.421875l-0.46875 2.265625q-1.3125 -0.34375 -2.203125 -0.34375q-0.765625 0 -1.15625 0.375q-0.390625 0.375 -0.671875 1.796875l-0.34375 1.640625l2.890625 0l-0.421875 2.0l-2.890625 0l-2.765625 13.203125l-2.59375 0zm27.1091 -5.171875l2.53125 0.265625q-0.546875 1.875 -2.515625 3.5625q-1.953125 1.6875 -4.65625 1.6875q-1.6875 0 -3.09375 -0.78125q-1.40625 -0.78125 -2.15625 -2.265625q-0.734375 -1.5 -0.734375 -3.390625q0 -2.5 1.15625 -4.84375q1.15625 -2.34375 2.984375 -3.46875q1.828125 -1.140625 3.96875 -1.140625q2.71875 0 4.34375 1.6875q1.625 1.6875 1.625 4.609375q0 1.109375 -0.203125 2.296875l-11.1875 0q-0.0625 0.4375 -0.0625 0.796875q0 2.125 0.96875 3.25q0.984375 1.125 2.40625 1.125q1.328125 0 2.609375 -0.859375q1.296875 -0.875 2.015625 -2.53125zm-7.53125 -3.765625l8.53125 0q0.015625 -0.40625 0.015625 -0.578125q0 -1.9375 -0.96875 -2.96875q-0.96875 -1.046875 -2.5 -1.046875q-1.671875 0 -3.046875 1.15625q-1.359375 1.140625 -2.03125 3.4375zm22.498413 7.21875q-2.21875 2.0625 -4.25 2.0625q-2.125 0 -3.59375 -1.609375q-1.453125 -1.609375 -1.453125 -4.578125q0 -2.828125 1.109375 -5.125q1.109375 -2.296875 2.828125 -3.4375q1.734375 -1.140625 3.5625 -1.140625q1.390625 0 2.53125 0.78125q1.140625 0.78125 1.84375 2.34375l0.59375 -2.78125l2.234375 0l-4.390625 21.03125l-2.59375 0l1.578125 -7.546875zm-6.734375 -4.46875q0 2.25 0.921875 3.328125q0.9375 1.078125 2.328125 1.078125q1.171875 0 2.375 -0.96875q1.203125 -0.96875 1.96875 -2.921875q0.765625 -1.953125 0.765625 -3.765625q0 -1.859375 -0.96875 -2.921875q-0.953125 -1.0625 -2.34375 -1.0625q-1.359375 0 -2.375 0.890625q-1.328125 1.140625 -2.09375 3.3125q-0.578125 1.65625 -0.578125 3.03125zm23.607788 3.4375q-2.734375 3.09375 -5.609375 3.09375q-1.75 0 -2.84375 -1.0q-1.078125 -1.015625 -1.078125 -2.484375q0 -0.953125 0.484375 -3.296875l1.84375 -8.765625l2.59375 0l-2.03125 9.71875q-0.265625 1.21875 -0.265625 1.890625q0 0.859375 0.515625 1.34375q0.53125 0.46875 1.546875 0.46875q1.09375 0 2.125 -0.515625q1.046875 -0.53125 1.796875 -1.4375q0.75 -0.90625 1.21875 -2.140625q0.3125 -0.78125 0.734375 -2.765625l1.375 -6.5625l2.59375 0l-3.1875 15.203125l-2.390625 0l0.578125 -2.75zm16.185913 0.859375q-1.359375 1.15625 -2.609375 1.703125q-1.234375 0.53125 -2.65625 0.53125q-2.109375 0 -3.40625 -1.234375q-1.28125 -1.25 -1.28125 -3.171875q0 -1.28125 0.578125 -2.25q0.59375 -0.984375 1.546875 -1.578125q0.96875 -0.59375 2.34375 -0.859375q0.875 -0.171875 3.3125 -0.265625q2.453125 -0.109375 3.515625 -0.515625q0.296875 -1.0625 0.296875 -1.765625q0 -0.90625 -0.65625 -1.421875q-0.90625 -0.71875 -2.640625 -0.71875q-1.625 0 -2.671875 0.734375q-1.03125 0.71875 -1.5 2.046875l-2.625 -0.234375q0.796875 -2.25 2.53125 -3.453125q1.75 -1.203125 4.390625 -1.203125q2.828125 0 4.46875 1.34375q1.265625 1.0 1.265625 2.609375q0 1.21875 -0.359375 2.8125l-0.84375 3.78125q-0.40625 1.8125 -0.40625 2.9375q0 0.71875 0.328125 2.0625l-2.625 0q-0.21875 -0.75 -0.296875 -1.890625zm0.953125 -5.8125q-0.546875 0.21875 -1.171875 0.328125q-0.625 0.109375 -2.078125 0.25q-2.265625 0.1875 -3.203125 0.5q-0.921875 0.3125 -1.40625 0.984375q-0.46875 0.671875 -0.46875 1.484375q0 1.09375 0.75 1.796875q0.765625 0.703125 2.15625 0.703125q1.28125 0 2.46875 -0.671875q1.1875 -0.6875 1.875 -1.90625q0.6875 -1.21875 1.078125 -3.46875zm4.889038 7.703125l4.390625 -21.0l2.59375 0l-4.390625 21.0l-2.59375 0zm14.664093 0l4.390625 -21.0l2.59375 0l-4.390625 21.0l-2.59375 0zm17.890747 -5.171875l2.53125 0.265625q-0.546875 1.875 -2.515625 3.5625q-1.953125 1.6875 -4.65625 1.6875q-1.6875 0 -3.09375 -0.78125q-1.40625 -0.78125 -2.15625 -2.265625q-0.734375 -1.5 -0.734375 -3.390625q0 -2.5 1.15625 -4.84375q1.15625 -2.34375 2.984375 -3.46875q1.828125 -1.140625 3.96875 -1.140625q2.71875 0 4.34375 1.6875q1.625 1.6875 1.625 4.609375q0 1.109375 -0.203125 2.296875l-11.1875 0q-0.0625 0.4375 -0.0625 0.796875q0 2.125 0.96875 3.25q0.984375 1.125 2.40625 1.125q1.328125 0 2.609375 -0.859375q1.296875 -0.875 2.015625 -2.53125zm-7.53125 -3.765625l8.53125 0q0.015625 -0.40625 0.015625 -0.578125q0 -1.9375 -0.96875 -2.96875q-0.96875 -1.046875 -2.5 -1.046875q-1.671875 0 -3.046875 1.15625q-1.359375 1.140625 -2.03125 3.4375zm12.670288 8.9375l3.1875 -15.203125l2.34375 0l-0.5625 2.640625q1.53125 -1.5625 2.859375 -2.265625q1.34375 -0.71875 2.734375 -0.71875q1.84375 0 2.890625 1.0q1.0625 1.0 1.0625 2.671875q0 0.84375 -0.375 2.671875l-1.9375 9.203125l-2.59375 0l2.03125 -9.640625q0.296875 -1.40625 0.296875 -2.078125q0 -0.75 -0.53125 -1.21875q-0.515625 -0.484375 -1.5 -0.484375q-2.0 0 -3.5625 1.4375q-1.546875 1.4375 -2.265625 4.90625l-1.484375 7.078125l-2.59375 0zm16.170288 1.375l2.625 0.25q-0.03125 0.875 0.203125 1.3125q0.25 0.453125 0.78125 0.703125q0.703125 0.3125 1.828125 0.3125q2.34375 0 3.375 -1.21875q0.671875 -0.8125 1.25 -3.546875l0.25 -1.234375q-2.015625 2.046875 -4.296875 2.046875q-2.296875 0 -3.859375 -1.6875q-1.546875 -1.703125 -1.546875 -4.8125q0 -2.5625 1.21875 -4.703125q1.21875 -2.15625 2.90625 -3.25q1.703125 -1.09375 3.484375 -1.09375q3.0 0 4.609375 2.828125l0.515625 -2.484375l2.375 0l-3.0625 14.671875q-0.5 2.421875 -1.3125 3.765625q-0.8125 1.359375 -2.265625 2.109375q-1.453125 0.75 -3.359375 0.75q-1.828125 0 -3.15625 -0.484375q-1.328125 -0.46875 -1.984375 -1.375q-0.640625 -0.90625 -0.640625 -2.09375q0 -0.34375 0.0625 -0.765625zm3.234375 -8.109375q0 1.5625 0.3125 2.359375q0.421875 1.09375 1.21875 1.671875q0.796875 0.578125 1.765625 0.578125q1.28125 0 2.53125 -0.890625q1.265625 -0.890625 2.046875 -2.765625q0.78125 -1.875 0.78125 -3.578125q0 -1.875 -1.046875 -2.984375q-1.03125 -1.125 -2.5625 -1.125q-0.953125 0 -1.84375 0.515625q-0.875 0.515625 -1.640625 1.546875q-0.765625 1.03125 -1.171875 2.484375q-0.390625 1.453125 -0.390625 2.1875zm19.279633 4.625l-0.421875 2.125q-0.9375 0.234375 -1.8124695 0.234375q-1.546875 0 -2.46875 -0.75q-0.6875 -0.578125 -0.6875 -1.5625q0 -0.5 0.375 -2.3125l1.84375 -8.828125l-2.046875 0l0.421875 -2.0l2.046875 0l0.78125 -3.75l2.9687195 -1.78125l-1.15625 5.53125l2.546875 0l-0.421875 2.0l-2.546875 0l-1.7499695 8.40625q-0.328125 1.609375 -0.328125 1.921875q0 0.453125 0.25 0.703125q0.265625 0.234375 0.8749695 0.234375q0.859375 0 1.53125 -0.171875zm2.0858154 2.109375l4.390625 -21.0l2.59375 0l-1.6875 8.0625q1.453125 -1.390625 2.6875 -2.0q1.25 -0.609375 2.578125 -0.609375q1.890625 0 2.9375 1.0q1.046875 0.984375 1.046875 2.625q0 0.796875 -0.46875 2.9375l-1.875 8.984375l-2.59375 0l1.9375 -9.203125q0.421875 -2.015625 0.421875 -2.53125q0 -0.734375 -0.515625 -1.203125q-0.515625 -0.484375 -1.5 -0.484375q-1.40625 0 -2.6875 0.75q-1.265625 0.734375 -1.984375 2.015625q-0.71875 1.28125 -1.328125 4.125l-1.359375 6.53125l-2.59375 0z" fill-rule="nonzero"/><path fill="#000000" fill-opacity="0.0" d="m307.41208 176.66937c-37.50479 35.368484 -17.232971 92.87033 10.696228 132.42374" fill-rule="evenodd"/><path stroke="#999999" stroke-width="2.0" stroke-linejoin="round" stroke-linecap="butt" d="m307.41208 176.66937c-18.75241 17.684235 -23.060638 40.901825 -19.189636 64.64253c1.9355164 11.870346 5.9158325 23.871475 11.157837 35.37712c2.6210022 5.7528076 5.557434 11.381744 8.711395 16.808502c1.5769958 2.7134094 3.2083435 5.376251 4.8818665 7.97876c0.418396 0.65063477 0.8394165 1.2974854 1.2628784 1.9404297l0.0093688965 0.014190674" fill-rule="evenodd"/><path fill="#999999" stroke="#999999" stroke-width="2.0" stroke-linecap="butt" d="m314.2458 303.4309l-3.1254883 -0.5905762l5.3403625 3.8374329l-1.6242981 -6.3723755z" fill-rule="evenodd"/><path fill="#000000" fill-opacity="0.0" d="m542.43243 176.66937c-37.50482 35.368484 -17.232971 92.87033 10.696228 132.42374" fill-rule="evenodd"/><path stroke="#999999" stroke-width="2.0" stroke-linejoin="round" stroke-linecap="butt" d="m542.43243 176.66937c-18.75238 17.684235 -23.060669 40.901825 -19.189636 64.64253c1.9354858 11.870346 5.9157715 23.871475 11.157837 35.37712c2.6209717 5.7528076 5.557434 11.381744 8.711426 16.808502c1.5769653 2.7134094 3.208313 5.376251 4.881836 7.97876c0.418396 0.65063477 0.8394165 1.2974854 1.2628174 1.9404297l0.009399414 0.014190674" fill-rule="evenodd"/><path fill="#999999" stroke="#999999" stroke-width="2.0" stroke-linecap="butt" d="m549.2661 303.4309l-3.1254883 -0.5905762l5.340393 3.8374329l-1.6243286 -6.372345z" fill-rule="evenodd"/><path fill="#000000" fill-opacity="0.0" d="m99.41208 176.66937c-37.504807 35.368484 -17.232971 92.87033 10.696236 132.42374" fill-rule="evenodd"/><path stroke="#999999" stroke-width="2.0" stroke-linejoin="round" stroke-linecap="butt" d="m99.41207 176.66937c-18.752396 17.684235 -23.060638 40.901825 -19.189629 64.64253c1.9355011 11.870346 5.915825 23.871475 11.157837 35.37712c2.6210022 5.7528076 5.557434 11.381744 8.7114105 16.808502c1.576973 2.7134094 3.2083511 5.376251 4.8818665 7.97876c0.41838074 0.65063477 0.8393936 1.2974854 1.2628479 1.9404297l0.009384155 0.014190674" fill-rule="evenodd"/><path fill="#999999" stroke="#999999" stroke-width="2.0" stroke-linecap="butt" d="m106.24579 303.4309l-3.125496 -0.5905762l5.34037 3.8374329l-1.6243134 -6.3723755z" fill-rule="evenodd"/><path stroke="#434343" stroke-width="1.0" stroke-linecap="butt" d="m50.731102 333.96393l0 54.69815" fill-rule="nonzero"/><path stroke="#434343" stroke-width="1.0" stroke-linecap="butt" d="m107.16942 333.96393l0 54.69815" fill-rule="nonzero"/><path stroke="#434343" stroke-width="1.0" stroke-linecap="butt" d="m163.60774 333.96393l0 54.69815" fill-rule="nonzero"/><path stroke="#434343" stroke-width="1.0" stroke-linecap="butt" d="m220.04607 333.96393l0 54.69815" fill-rule="nonzero"/><path stroke="#434343" stroke-width="1.0" stroke-linecap="butt" d="m50.232414 334.46262l170.31235 0" fill-rule="nonzero"/><path stroke="#434343" stroke-width="1.0" stroke-linecap="butt" d="m50.232414 388.1634l170.31235 0" fill-rule="nonzero"/><path fill="#000000" d="m81.475296 370.913l-2.34375 0l0 -14.921875q-0.859375 0.796875 -2.234375 1.609375q-1.359375 0.796875 -2.453125 1.203125l0 -2.265625q1.96875 -0.921875 3.4375 -2.234375q1.46875 -1.3125 2.078125 -2.546875l1.515625 0l0 19.15625z" fill-rule="nonzero"/><path fill="#000000" d="m141.398 368.663l0 2.25l-12.609375 0q-0.03125 -0.84375 0.265625 -1.625q0.484375 -1.296875 1.546875 -2.546875q1.0625 -1.25 3.0625 -2.875q3.109375 -2.5625 4.203125 -4.046875q1.09375 -1.5 1.09375 -2.8125q0 -1.40625 -1.0 -2.359375q-0.984375 -0.953125 -2.59375 -0.953125q-1.6875 0 -2.703125 1.015625q-1.015625 1.015625 -1.03125 2.8125l-2.40625 -0.25q0.25 -2.6875 1.859375 -4.09375q1.609375 -1.421875 4.328125 -1.421875q2.75 0 4.34375 1.53125q1.609375 1.515625 1.609375 3.765625q0 1.140625 -0.46875 2.25q-0.46875 1.109375 -1.5625 2.328125q-1.078125 1.21875 -3.609375 3.359375q-2.09375 1.765625 -2.703125 2.40625q-0.59375 0.625 -0.984375 1.265625l9.359375 0z" fill-rule="nonzero"/><path fill="#000000" d="m185.53943 365.88174l2.34375 -0.3125q0.390625 1.984375 1.359375 2.875q0.984375 0.875 2.375 0.875q1.640625 0 2.78125 -1.140625q1.140625 -1.15625 1.140625 -2.84375q0 -1.625 -1.0625 -2.671875q-1.046875 -1.046875 -2.671875 -1.046875q-0.65625 0 -1.65625 0.265625l0.265625 -2.0625q0.234375 0.03125 0.375 0.03125q1.5 0 2.6875 -0.78125q1.203125 -0.78125 1.203125 -2.40625q0 -1.296875 -0.875 -2.140625q-0.859375 -0.84375 -2.25 -0.84375q-1.359375 0 -2.28125 0.859375q-0.90625 0.859375 -1.15625 2.578125l-2.34375 -0.421875q0.421875 -2.34375 1.9375 -3.640625q1.53125 -1.296875 3.796875 -1.296875q1.5625 0 2.875 0.671875q1.3125 0.671875 2.0 1.828125q0.703125 1.15625 0.703125 2.453125q0 1.234375 -0.671875 2.25q-0.65625 1.015625 -1.953125 1.625q1.6875 0.390625 2.625 1.625q0.9375 1.21875 0.9375 3.0625q0 2.5 -1.828125 4.25q-1.8125 1.734375 -4.59375 1.734375q-2.515625 0 -4.171875 -1.5q-1.65625 -1.5 -1.890625 -3.875z" fill-rule="nonzero"/><path stroke="#434343" stroke-width="1.0" stroke-linecap="butt" d="m282.8888 333.96393l0 54.69815" fill-rule="nonzero"/><path stroke="#434343" stroke-width="1.0" stroke-linecap="butt" d="m339.32712 333.96393l0 54.69815" fill-rule="nonzero"/><path stroke="#434343" stroke-width="1.0" stroke-linecap="butt" d="m395.7654 333.96393l0 54.69815" fill-rule="nonzero"/><path stroke="#434343" stroke-width="1.0" stroke-linecap="butt" d="m452.20374 333.96393l0 54.69815" fill-rule="nonzero"/><path stroke="#434343" stroke-width="1.0" stroke-linecap="butt" d="m282.3901 334.46262l170.31232 0" fill-rule="nonzero"/><path stroke="#434343" stroke-width="1.0" stroke-linecap="butt" d="m282.3901 388.1634l170.31232 0" fill-rule="nonzero"/><path fill="#000000" d="m312.30484 370.913l0 -4.5625l-8.265625 0l0 -2.15625l8.703125 -12.359375l1.90625 0l0 12.359375l2.578125 0l0 2.15625l-2.578125 0l0 4.5625l-2.34375 0zm0 -6.71875l0 -8.59375l-5.96875 8.59375l5.96875 0z" fill-rule="nonzero"/><path fill="#000000" d="m361.24316 365.913l2.453125 -0.203125q0.28125 1.796875 1.265625 2.703125q1.0 0.90625 2.40625 0.90625q1.6875 0 2.859375 -1.28125q1.171875 -1.28125 1.171875 -3.390625q0 -2.0 -1.125 -3.15625q-1.125 -1.15625 -2.9375 -1.15625q-1.140625 0 -2.046875 0.515625q-0.90625 0.515625 -1.4375 1.328125l-2.203125 -0.28125l1.859375 -9.8125l9.484375 0l0 2.25l-7.609375 0l-1.03125 5.125q1.71875 -1.203125 3.609375 -1.203125q2.5 0 4.203125 1.734375q1.71875 1.734375 1.71875 4.453125q0 2.59375 -1.5 4.484375q-1.84375 2.3125 -5.015625 2.3125q-2.59375 0 -4.25 -1.453125q-1.640625 -1.46875 -1.875 -3.875z" fill-rule="nonzero"/><path fill="#000000" d="m429.83774 356.50674l-2.328125 0.1875q-0.3125 -1.390625 -0.890625 -2.015625q-0.953125 -1.0 -2.34375 -1.0q-1.109375 0 -1.96875 0.625q-1.09375 0.8125 -1.734375 2.359375q-0.640625 1.546875 -0.671875 4.40625q0.84375 -1.28125 2.0625 -1.90625q1.234375 -0.625 2.578125 -0.625q2.34375 0 3.984375 1.734375q1.640625 1.71875 1.640625 4.4375q0 1.796875 -0.78125 3.34375q-0.765625 1.546875 -2.125 2.375q-1.34375 0.8125 -3.0625 0.8125q-2.921875 0 -4.78125 -2.15625q-1.84375 -2.15625 -1.84375 -7.09375q0 -5.53125 2.046875 -8.046875q1.78125 -2.1875 4.796875 -2.1875q2.25 0 3.6875 1.265625q1.453125 1.25 1.734375 3.484375zm-9.5625 8.21875q0 1.21875 0.5 2.328125q0.515625 1.09375 1.4375 1.6875q0.9375 0.578125 1.953125 0.578125q1.484375 0 2.546875 -1.203125q1.0625 -1.203125 1.0625 -3.25q0 -1.984375 -1.0625 -3.125q-1.046875 -1.140625 -2.640625 -1.140625q-1.59375 0 -2.703125 1.140625q-1.09375 1.140625 -1.09375 2.984375z" fill-rule="nonzero"/><path stroke="#434343" stroke-width="1.0" stroke-linecap="butt" d="m514.46826 333.96393l0 54.69815" fill-rule="nonzero"/><path stroke="#434343" stroke-width="1.0" stroke-linecap="butt" d="m570.9066 333.96393l0 54.69815" fill-rule="nonzero"/><path stroke="#434343" stroke-width="1.0" stroke-linecap="butt" d="m627.3449 333.96393l0 54.69815" fill-rule="nonzero"/><path stroke="#434343" stroke-width="1.0" stroke-linecap="butt" d="m683.78326 333.96393l0 54.69815" fill-rule="nonzero"/><path stroke="#434343" stroke-width="1.0" stroke-linecap="butt" d="m513.9696 334.46262l170.31232 0" fill-rule="nonzero"/><path stroke="#434343" stroke-width="1.0" stroke-linecap="butt" d="m513.9696 388.1634l170.31232 0" fill-rule="nonzero"/><path fill="#000000" d="m536.5406 354.33487l0 -2.25l12.34375 0l0 1.8125q-1.8125 1.9375 -3.609375 5.15625q-1.78125 3.21875 -2.765625 6.609375q-0.703125 2.40625 -0.890625 5.25l-2.40625 0q0.03125 -2.25 0.875 -5.4375q0.84375 -3.1875 2.421875 -6.140625q1.59375 -2.96875 3.375 -5.0l-9.34375 0z" fill-rule="nonzero"/><path fill="#000000" d="m596.43207 360.56924q-1.46875 -0.53125 -2.171875 -1.515625q-0.703125 -1.0 -0.703125 -2.375q0 -2.09375 1.5 -3.5q1.5 -1.421875 3.984375 -1.421875q2.5 0 4.015625 1.453125q1.53125 1.453125 1.53125 3.53125q0 1.328125 -0.703125 2.3125q-0.6875 0.984375 -2.109375 1.515625q1.75 0.5625 2.671875 1.84375q0.921875 1.28125 0.921875 3.046875q0 2.453125 -1.734375 4.125q-1.734375 1.65625 -4.5625 1.65625q-2.8125 0 -4.546875 -1.671875q-1.734375 -1.671875 -1.734375 -4.171875q0 -1.859375 0.9375 -3.109375q0.953125 -1.265625 2.703125 -1.71875zm-0.46875 -3.96875q0 1.34375 0.859375 2.203125q0.875 0.859375 2.265625 0.859375q1.359375 0 2.21875 -0.84375q0.875 -0.859375 0.875 -2.09375q0 -1.28125 -0.890625 -2.15625q-0.890625 -0.890625 -2.21875 -0.890625q-1.34375 0 -2.234375 0.859375q-0.875 0.859375 -0.875 2.0625zm-0.765625 8.8125q0 1.0 0.46875 1.9375q0.484375 0.9375 1.421875 1.453125q0.9375 0.515625 2.015625 0.515625q1.6875 0 2.78125 -1.078125q1.09375 -1.09375 1.09375 -2.75q0 -1.703125 -1.140625 -2.796875q-1.125 -1.109375 -2.8125 -1.109375q-1.65625 0 -2.75 1.09375q-1.078125 1.09375 -1.078125 2.734375z" fill-rule="nonzero"/><path fill="#000000" d="m649.60474 366.50674l2.25 -0.21875q0.296875 1.59375 1.09375 2.3125q0.8125 0.71875 2.078125 0.71875q1.078125 0 1.890625 -0.5q0.8125 -0.5 1.328125 -1.328125q0.53125 -0.828125 0.875 -2.21875q0.359375 -1.40625 0.359375 -2.875q0 -0.15625 -0.015625 -0.46875q-0.703125 1.125 -1.921875 1.828125q-1.21875 0.6875 -2.640625 0.6875q-2.359375 0 -4.0 -1.71875q-1.640625 -1.71875 -1.640625 -4.53125q0 -2.90625 1.703125 -4.671875q1.71875 -1.765625 4.296875 -1.765625q1.859375 0 3.390625 1.0q1.546875 1.0 2.34375 2.859375q0.8125 1.859375 0.8125 5.359375q0 3.65625 -0.796875 5.828125q-0.796875 2.171875 -2.375 3.3125q-1.5625 1.125 -3.671875 1.125q-2.234375 0 -3.65625 -1.234375q-1.40625 -1.25 -1.703125 -3.5zm9.59375 -8.421875q0 -2.015625 -1.078125 -3.203125q-1.0625 -1.1875 -2.578125 -1.1875q-1.5625 0 -2.71875 1.28125q-1.15625 1.265625 -1.15625 3.296875q0 1.828125 1.09375 2.96875q1.109375 1.140625 2.71875 1.140625q1.625 0 2.671875 -1.140625q1.046875 -1.140625 1.046875 -3.15625z" fill-rule="nonzero"/><path fill="#000000" fill-opacity="0.0" d="m38.21522 324.65527l0 0c0 -2.9821777 2.4175339 -5.3996887 5.3997116 -5.3996887l185.64153 0c1.4320984 0 2.8055267 0.5688782 3.8181763 1.5815125c1.0126343 1.0126648 1.581543 2.3861084 1.581543 3.8181763l0 73.452545c0 2.9821777 -2.4175415 5.399719 -5.399719 5.399719l-185.64153 0c-2.9821777 0 -5.3997116 -2.4175415 -5.3997116 -5.399719z" fill-rule="evenodd"/><path stroke="#434343" stroke-width="2.0" stroke-linejoin="round" stroke-linecap="butt" stroke-dasharray="8.0,6.0" d="m38.21522 324.65527l0 0c0 -2.9821777 2.4175339 -5.3996887 5.3997116 -5.3996887l185.64153 0c1.4320984 0 2.8055267 0.5688782 3.8181763 1.5815125c1.0126343 1.0126648 1.581543 2.3861084 1.581543 3.8181763l0 73.452545c0 2.9821777 -2.4175415 5.399719 -5.399719 5.399719l-185.64153 0c-2.9821777 0 -5.3997116 -2.4175415 -5.3997116 -5.399719z" fill-rule="evenodd"/><path fill="#000000" fill-opacity="0.0" d="m269.32645 324.65527l0 0c0 -2.9821777 2.417511 -5.3996887 5.3996887 -5.3996887l185.64154 0c1.4320984 0 2.805542 0.5688782 3.8181763 1.5815125c1.0126343 1.0126648 1.581543 2.3861084 1.581543 3.8181763l0 73.452545c0 2.9821777 -2.4175415 5.399719 -5.399719 5.399719l-185.64154 0c-2.9821777 0 -5.3996887 -2.4175415 -5.3996887 -5.399719z" fill-rule="evenodd"/><path stroke="#434343" stroke-width="2.0" stroke-linejoin="round" stroke-linecap="butt" stroke-dasharray="8.0,6.0" d="m269.32645 324.65527l0 0c0 -2.9821777 2.417511 -5.3996887 5.3996887 -5.3996887l185.64154 0c1.4320984 0 2.805542 0.5688782 3.8181763 1.5815125c1.0126343 1.0126648 1.581543 2.3861084 1.581543 3.8181763l0 73.452545c0 2.9821777 -2.4175415 5.399719 -5.399719 5.399719l-185.64154 0c-2.9821777 0 -5.3996887 -2.4175415 -5.3996887 -5.399719z" fill-rule="evenodd"/><path fill="#000000" fill-opacity="0.0" d="m500.43765 324.65527l0 0c0 -2.9821777 2.4175415 -5.3996887 5.399719 -5.3996887l185.64151 0c1.4321289 0 2.805542 0.5688782 3.8181763 1.5815125c1.0126343 1.0126648 1.581543 2.3861084 1.581543 3.8181763l0 73.452545c0 2.9821777 -2.4175415 5.399719 -5.399719 5.399719l-185.64151 0c-2.9821777 0 -5.399719 -2.4175415 -5.399719 -5.399719z" fill-rule="evenodd"/><path stroke="#434343" stroke-width="2.0" stroke-linejoin="round" stroke-linecap="butt" stroke-dasharray="8.0,6.0" d="m500.43765 324.65527l0 0c0 -2.9821777 2.4175415 -5.3996887 5.399719 -5.3996887l185.64151 0c1.4321289 0 2.805542 0.5688782 3.8181763 1.5815125c1.0126343 1.0126648 1.581543 2.3861084 1.581543 3.8181763l0 73.452545c0 2.9821777 -2.4175415 5.399719 -5.399719 5.399719l-185.64151 0c-2.9821777 0 -5.399719 -2.4175415 -5.399719 -5.399719z" fill-rule="evenodd"/><path fill="#000000" fill-opacity="0.0" d="m234.65617 361.38156l34.67717 0" fill-rule="evenodd"/><path stroke="#434343" stroke-width="3.0" stroke-linejoin="round" stroke-linecap="butt" stroke-dasharray="12.0,9.0" d="m234.65617 361.38156l34.67717 0" fill-rule="evenodd"/><path fill="#000000" fill-opacity="0.0" d="m465.7674 361.38156l34.677155 0" fill-rule="evenodd"/><path stroke="#434343" stroke-width="3.0" stroke-linejoin="round" stroke-linecap="butt" stroke-dasharray="12.0,9.0" d="m465.7674 361.38156l34.677155 0" fill-rule="evenodd"/></g></svg>