<svg version="1.1" viewBox="0.0 0.0 741.0997375328084 737.0288713910761" fill="none" stroke="none" stroke-linecap="square" stroke-miterlimit="10" xmlns:xlink="http://www.w3.org/1999/xlink" xmlns="http://www.w3.org/2000/svg"><clipPath id="p.0"><path d="m0 0l741.09973 0l0 737.0289l-741.09973 0l0 -737.0289z" clip-rule="nonzero"/></clipPath><g clip-path="url(#p.0)"><path fill="#000000" fill-opacity="0.0" d="m0 0l741.09973 0l0 737.0289l-741.09973 0z" fill-rule="evenodd"/><path shape-rendering="crispEdges" fill="#ffd966" d="m58.8084 59.300526l40.194225 0l0 42.304462l-40.194225 0l0 -42.304462z" fill-rule="nonzero"/><path shape-rendering="crispEdges" fill="#ffd966" d="m99.002625 59.300526l40.19423 0l0 42.304462l-40.19423 0l0 -42.304462z" fill-rule="nonzero"/><path shape-rendering="crispEdges" fill="#ffd966" d="m139.19685 59.300526l40.19423 0l0 42.304462l-40.19423 0l0 -42.304462z" fill-rule="nonzero"/><path shape-rendering="crispEdges" fill="#ffd966" d="m179.39108 59.300526l40.194214 0l0 42.304462l-40.194214 0l0 -42.304462z" fill-rule="nonzero"/><path shape-rendering="crispEdges" fill="#ffd966" d="m58.8084 101.60499l40.194225 0l0 42.304466l-40.194225 0l0 -42.304466z" fill-rule="nonzero"/><path shape-rendering="crispEdges" fill="#ffd966" d="m99.002625 101.60499l40.19423 0l0 42.304466l-40.19423 0l0 -42.304466z" fill-rule="nonzero"/><path shape-rendering="crispEdges" fill="#ffd966" d="m139.19685 101.60499l40.19423 0l0 42.304466l-40.19423 0l0 -42.304466z" fill-rule="nonzero"/><path shape-rendering="crispEdges" fill="#ffd966" d="m179.39108 101.60499l40.194214 0l0 42.304466l-40.194214 0l0 -42.304466z" fill-rule="nonzero"/><path stroke="#666666" stroke-width="1.0" stroke-linecap="butt" d="m58.8084 58.801838l0 85.60631" fill-rule="nonzero"/><path stroke="#666666" stroke-width="1.0" stroke-linecap="butt" d="m99.002625 58.801838l0 85.60631" fill-rule="nonzero"/><path stroke="#666666" stroke-width="1.0" stroke-linecap="butt" d="m139.19685 58.801838l0 85.60631" fill-rule="nonzero"/><path stroke="#666666" stroke-width="1.0" stroke-linecap="butt" d="m179.39108 58.801838l0 85.60631" fill-rule="nonzero"/><path stroke="#666666" stroke-width="1.0" stroke-linecap="butt" d="m219.5853 58.801838l0 85.60631" fill-rule="nonzero"/><path stroke="#666666" stroke-width="1.0" stroke-linecap="butt" d="m58.30971 59.300526l161.77428 0" fill-rule="nonzero"/><path stroke="#666666" stroke-width="1.0" stroke-linecap="butt" d="m58.30971 101.60499l161.77428 0" fill-rule="nonzero"/><path stroke="#666666" stroke-width="1.0" stroke-linecap="butt" d="m58.30971 143.90945l161.77428 0" fill-rule="nonzero"/><path shape-rendering="crispEdges" fill="#ffd966" d="m391.82153 117.93789l40.194214 0l0 42.304466l-40.194214 0l0 -42.304466z" fill-rule="nonzero"/><path shape-rendering="crispEdges" fill="#ffd966" d="m432.01575 117.93789l40.194214 0l0 42.304466l-40.194214 0l0 -42.304466z" fill-rule="nonzero"/><path shape-rendering="crispEdges" fill="#ffd966" d="m472.20996 117.93789l40.194214 0l0 42.304466l-40.194214 0l0 -42.304466z" fill-rule="nonzero"/><path shape-rendering="crispEdges" fill="#ffd966" d="m512.4042 117.93789l40.194275 0l0 42.304466l-40.194275 0l0 -42.304466z" fill-rule="nonzero"/><path shape-rendering="crispEdges" fill="#ffd966" d="m391.82153 160.24236l40.194214 0l0 42.30446l-40.194214 0l0 -42.30446z" fill-rule="nonzero"/><path shape-rendering="crispEdges" fill="#ffd966" d="m432.01575 160.24236l40.194214 0l0 42.30446l-40.194214 0l0 -42.30446z" fill-rule="nonzero"/><path shape-rendering="crispEdges" fill="#ffd966" d="m472.20996 160.24236l40.194214 0l0 42.30446l-40.194214 0l0 -42.30446z" fill-rule="nonzero"/><path shape-rendering="crispEdges" fill="#ffd966" d="m512.4042 160.24236l40.194275 0l0 42.30446l-40.194275 0l0 -42.30446z" fill-rule="nonzero"/><path shape-rendering="crispEdges" fill="#a4c2f4" d="m391.82153 202.54681l40.194214 0l0 46.475067l-40.194214 0l0 -46.475067z" fill-rule="nonzero"/><path shape-rendering="crispEdges" fill="#a4c2f4" d="m432.01575 202.54681l40.194214 0l0 46.475067l-40.194214 0l0 -46.475067z" fill-rule="nonzero"/><path shape-rendering="crispEdges" fill="#a4c2f4" d="m472.20996 202.54681l40.194214 0l0 46.475067l-40.194214 0l0 -46.475067z" fill-rule="nonzero"/><path shape-rendering="crispEdges" fill="#a4c2f4" d="m512.4042 202.54681l40.194275 0l0 46.475067l-40.194275 0l0 -46.475067z" fill-rule="nonzero"/><path shape-rendering="crispEdges" fill="#a4c2f4" d="m391.82153 249.02188l40.194214 0l0 42.304443l-40.194214 0l0 -42.304443z" fill-rule="nonzero"/><path shape-rendering="crispEdges" fill="#a4c2f4" d="m432.01575 249.02188l40.194214 0l0 42.304443l-40.194214 0l0 -42.304443z" fill-rule="nonzero"/><path shape-rendering="crispEdges" fill="#a4c2f4" d="m472.20996 249.02188l40.194214 0l0 42.304443l-40.194214 0l0 -42.304443z" fill-rule="nonzero"/><path shape-rendering="crispEdges" fill="#a4c2f4" d="m512.4042 249.02188l40.194275 0l0 42.304443l-40.194275 0l0 -42.304443z" fill-rule="nonzero"/><path shape-rendering="crispEdges" fill="#a4c2f4" d="m391.82153 291.32632l40.194214 0l0 42.304474l-40.194214 0l0 -42.304474z" fill-rule="nonzero"/><path shape-rendering="crispEdges" fill="#a4c2f4" d="m432.01575 291.32632l40.194214 0l0 42.304474l-40.194214 0l0 -42.304474z" fill-rule="nonzero"/><path shape-rendering="crispEdges" fill="#a4c2f4" d="m472.20996 291.32632l40.194214 0l0 42.304474l-40.194214 0l0 -42.304474z" fill-rule="nonzero"/><path shape-rendering="crispEdges" fill="#a4c2f4" d="m512.4042 291.32632l40.194275 0l0 42.304474l-40.194275 0l0 -42.304474z" fill-rule="nonzero"/><path stroke="#666666" stroke-width="1.0" stroke-linecap="butt" d="m391.82153 117.4392l0 216.69028" fill-rule="nonzero"/><path stroke="#666666" stroke-width="1.0" stroke-linecap="butt" d="m432.01575 117.4392l0 216.69028" fill-rule="nonzero"/><path stroke="#666666" stroke-width="1.0" stroke-linecap="butt" d="m472.20996 117.4392l0 216.69028" fill-rule="nonzero"/><path stroke="#666666" stroke-width="1.0" stroke-linecap="butt" d="m512.4042 117.4392l0 216.69028" fill-rule="nonzero"/><path stroke="#666666" stroke-width="1.0" stroke-linecap="butt" d="m552.59845 117.4392l0 216.69028" fill-rule="nonzero"/><path stroke="#666666" stroke-width="1.0" stroke-linecap="butt" d="m391.32285 117.93789l161.77426 0" fill-rule="nonzero"/><path stroke="#666666" stroke-width="1.0" stroke-linecap="butt" d="m391.32285 160.24236l161.77426 0" fill-rule="nonzero"/><path stroke="#666666" stroke-width="1.0" stroke-linecap="butt" d="m391.32285 202.54681l161.77426 0" fill-rule="nonzero"/><path stroke="#666666" stroke-width="1.0" stroke-linecap="butt" d="m391.32285 249.02188l161.77426 0" fill-rule="nonzero"/><path stroke="#666666" stroke-width="1.0" stroke-linecap="butt" d="m391.32285 291.32632l161.77426 0" fill-rule="nonzero"/><path stroke="#666666" stroke-width="1.0" stroke-linecap="butt" d="m391.32285 333.6308l161.77426 0" fill-rule="nonzero"/><path fill="#000000" fill-opacity="0.0" d="m56.25197 7.5617905l165.88977 0l0 53.03937l-165.88977 0z" fill-rule="evenodd"/><path fill="#434343" d="m113.892166 28.961166l0 0.671875q0.578125 -0.5625 1.046875 -0.78125q0.484375 -0.21875 1.109375 -0.21875q0.515625 0 1.03125 0.265625q0.515625 0.25 1.015625 0.765625q0.625 -0.515625 1.25 -0.765625q0.640625 -0.25 1.3125 -0.25q1.34375 0 2.171875 0.703125q1.09375 0.9375 1.09375 2.46875l0 5.375q0.75 0 1.109375 0.34375q0.375 0.34375 0.375 0.859375q0 0.53125 -0.375 0.875q-0.359375 0.328125 -1.21875 0.328125l-2.28125 0l0 -7.578125q0 -0.5625 -0.203125 -0.765625q-0.203125 -0.21875 -0.609375 -0.21875q-0.40625 0 -0.734375 0.21875q-0.4375 0.296875 -1.0625 1.09375l0 4.84375q0.75 0 1.109375 0.34375q0.375 0.34375 0.375 0.859375q0 0.53125 -0.375 0.875q-0.359375 0.328125 -1.21875 0.328125l-2.296875 0l0 -7.578125q0 -0.546875 -0.203125 -0.765625q-0.203125 -0.21875 -0.609375 -0.21875q-0.421875 0 -0.84375 0.265625q-0.40625 0.265625 -0.96875 1.046875l0 4.84375q0.75 0 1.109375 0.34375q0.375 0.34375 0.375 0.859375q0 0.53125 -0.375 0.875q-0.359375 0.328125 -1.234375 0.328125l-2.171875 0q-0.859375 0 -1.234375 -0.328125q-0.375 -0.34375 -0.375 -0.875q0 -0.53125 0.375 -0.859375q0.359375 -0.34375 1.125 -0.34375l0 -5.828125q-0.765625 0 -1.125 -0.34375q-0.375 -0.34375 -0.375 -0.875q0 -0.515625 0.375 -0.84375q0.375 -0.34375 1.234375 -0.34375l2.296875 0zm20.261719 10.640625l0 -0.5625q-0.890625 0.484375 -1.984375 0.71875q-1.09375 0.25 -1.984375 0.25q-1.9375 0 -3.140625 -1.03125q-1.203125 -1.03125 -1.203125 -2.265625q0 -1.515625 1.53125 -2.8125q1.546875 -1.296875 4.265625 -1.296875q1.09375 0 2.515625 0.234375l0 -0.578125q0 -0.53125 -0.46875 -0.875q-0.453125 -0.34375 -1.75 -0.34375q-1.0625 0 -2.765625 0.421875q-0.640625 0.15625 -0.984375 0.15625q-0.484375 0 -0.828125 -0.34375q-0.328125 -0.34375 -0.328125 -0.890625q0 -0.296875 0.109375 -0.515625q0.125 -0.234375 0.328125 -0.359375q0.21875 -0.140625 0.890625 -0.328125q0.890625 -0.25 1.8125 -0.390625q0.9375 -0.140625 1.6875 -0.140625q2.234375 0 3.46875 0.96875q1.234375 0.953125 1.234375 2.640625l0 4.9375l0.40625 0q0.875 0 1.234375 0.34375q0.375 0.328125 0.375 0.859375q0 0.53125 -0.375 0.875q-0.359375 0.328125 -1.234375 0.328125l-2.8125 0zm0 -4.296875q-1.4375 -0.28125 -2.65625 -0.28125q-1.46875 0 -2.515625 0.703125q-0.65625 0.46875 -0.65625 0.9375q0 0.328125 0.3125 0.546875q0.59375 0.390625 1.609375 0.390625q0.859375 0 1.953125 -0.34375q1.109375 -0.34375 1.953125 -0.921875l0 -1.03125zm11.652344 -3.9375l0 4.8125q0 0.765625 0.3125 1.015625q0.5 0.390625 1.765625 0.390625q1.84375 0 3.390625 -0.78125q0.609375 -0.3125 0.9375 -0.3125q0.46875 0 0.8125 0.359375q0.359375 0.34375 0.359375 0.84375q0 0.46875 -0.375 0.8125q-0.578125 0.546875 -2.28125 1.015625q-1.6875 0.46875 -2.84375 0.46875q-2.234375 0 -3.359375 -0.96875q-1.125 -0.96875 -1.125 -2.375l0 -5.28125l-0.859375 0q-0.875 0 -1.25 -0.328125q-0.359375 -0.34375 -0.359375 -0.890625q0 -0.515625 0.359375 -0.84375q0.375 -0.34375 1.25 -0.34375l0.859375 0l0 -2.171875q0 -0.859375 0.328125 -1.234375q0.34375 -0.375 0.890625 -0.375q0.515625 0 0.84375 0.375q0.34375 0.375 0.34375 1.234375l0 2.171875l4.4375 0q0.875 0 1.234375 0.34375q0.375 0.328125 0.375 0.859375q0 0.53125 -0.375 0.875q-0.359375 0.328125 -1.234375 0.328125l-4.4375 0zm16.214844 -7.3125l0 13.140625l2.4375 0q0.859375 0 1.21875 0.34375q0.375 0.328125 0.375 0.859375q0 0.53125 -0.375 0.875q-0.359375 0.328125 -1.21875 0.328125l-7.265625 0q-0.859375 0 -1.234375 -0.328125q-0.359375 -0.34375 -0.359375 -0.875q0 -0.53125 0.359375 -0.859375q0.375 -0.34375 1.234375 -0.34375l2.4375 0l0 -10.015625l-2.15625 0.5625q-0.515625 0.140625 -0.765625 0.140625q-0.453125 0 -0.796875 -0.359375q-0.328125 -0.375 -0.328125 -0.890625q0 -0.484375 0.234375 -0.75q0.25 -0.28125 1.046875 -0.5l5.15625 -1.328125z" fill-rule="nonzero"/><path shape-rendering="crispEdges" fill="#a4c2f4" d="m58.8084 219.30052l40.194225 0l0 42.30446l-40.194225 0l0 -42.30446z" fill-rule="nonzero"/><path shape-rendering="crispEdges" fill="#a4c2f4" d="m99.002625 219.30052l40.19423 0l0 42.30446l-40.19423 0l0 -42.30446z" fill-rule="nonzero"/><path shape-rendering="crispEdges" fill="#a4c2f4" d="m139.19685 219.30052l40.19423 0l0 42.30446l-40.19423 0l0 -42.30446z" fill-rule="nonzero"/><path shape-rendering="crispEdges" fill="#a4c2f4" d="m179.39108 219.30052l40.194214 0l0 42.30446l-40.194214 0l0 -42.30446z" fill-rule="nonzero"/><path shape-rendering="crispEdges" fill="#a4c2f4" d="m58.8084 261.60498l40.194225 0l0 42.304474l-40.194225 0l0 -42.304474z" fill-rule="nonzero"/><path shape-rendering="crispEdges" fill="#a4c2f4" d="m99.002625 261.60498l40.19423 0l0 42.304474l-40.19423 0l0 -42.304474z" fill-rule="nonzero"/><path shape-rendering="crispEdges" fill="#a4c2f4" d="m139.19685 261.60498l40.19423 0l0 42.304474l-40.19423 0l0 -42.304474z" fill-rule="nonzero"/><path shape-rendering="crispEdges" fill="#a4c2f4" d="m179.39108 261.60498l40.194214 0l0 42.304474l-40.194214 0l0 -42.304474z" fill-rule="nonzero"/><path shape-rendering="crispEdges" fill="#a4c2f4" d="m58.8084 303.90945l40.194225 0l0 46.475067l-40.194225 0l0 -46.475067z" fill-rule="nonzero"/><path shape-rendering="crispEdges" fill="#a4c2f4" d="m99.002625 303.90945l40.19423 0l0 46.475067l-40.19423 0l0 -46.475067z" fill-rule="nonzero"/><path shape-rendering="crispEdges" fill="#a4c2f4" d="m139.19685 303.90945l40.19423 0l0 46.475067l-40.19423 0l0 -46.475067z" fill-rule="nonzero"/><path shape-rendering="crispEdges" fill="#a4c2f4" d="m179.39108 303.90945l40.194214 0l0 46.475067l-40.194214 0l0 -46.475067z" fill-rule="nonzero"/><path stroke="#666666" stroke-width="1.0" stroke-linecap="butt" d="m58.8084 218.80183l0 132.08138" fill-rule="nonzero"/><path stroke="#666666" stroke-width="1.0" stroke-linecap="butt" d="m99.002625 218.80183l0 132.08138" fill-rule="nonzero"/><path stroke="#666666" stroke-width="1.0" stroke-linecap="butt" d="m139.19685 218.80183l0 132.08138" fill-rule="nonzero"/><path stroke="#666666" stroke-width="1.0" stroke-linecap="butt" d="m179.39108 218.80183l0 132.08138" fill-rule="nonzero"/><path stroke="#666666" stroke-width="1.0" stroke-linecap="butt" d="m219.5853 218.80183l0 132.08138" fill-rule="nonzero"/><path stroke="#666666" stroke-width="1.0" stroke-linecap="butt" d="m58.30971 219.30052l161.77428 0" fill-rule="nonzero"/><path stroke="#666666" stroke-width="1.0" stroke-linecap="butt" d="m58.30971 261.60498l161.77428 0" fill-rule="nonzero"/><path stroke="#666666" stroke-width="1.0" stroke-linecap="butt" d="m58.30971 303.90945l161.77428 0" fill-rule="nonzero"/><path stroke="#666666" stroke-width="1.0" stroke-linecap="butt" d="m58.30971 350.38452l161.77428 0" fill-rule="nonzero"/><path fill="#000000" fill-opacity="0.0" d="m58.600616 167.26247l160.7874 0l0 53.039368l-160.7874 0z" fill-rule="evenodd"/><path fill="#434343" d="m113.68963 188.66185l0 0.671875q0.578125 -0.5625 1.046875 -0.78125q0.484375 -0.21875 1.109375 -0.21875q0.515625 0 1.03125 0.265625q0.515625 0.25 1.015625 0.765625q0.625 -0.515625 1.25 -0.765625q0.640625 -0.25 1.3125 -0.25q1.34375 0 2.171875 0.703125q1.09375 0.9375 1.09375 2.46875l0 5.375q0.75 0 1.109375 0.34375q0.375 0.34375 0.375 0.859375q0 0.53125 -0.375 0.875q-0.359375 0.328125 -1.21875 0.328125l-2.28125 0l0 -7.578125q0 -0.5625 -0.203125 -0.765625q-0.203125 -0.21875 -0.609375 -0.21875q-0.40625 0 -0.734375 0.21875q-0.4375 0.296875 -1.0625 1.09375l0 4.84375q0.75 0 1.109375 0.34375q0.375 0.34375 0.375 0.859375q0 0.53125 -0.375 0.875q-0.359375 0.328125 -1.21875 0.328125l-2.296875 0l0 -7.578125q0 -0.546875 -0.203125 -0.765625q-0.203125 -0.21875 -0.609375 -0.21875q-0.421875 0 -0.84375 0.265625q-0.40625 0.265625 -0.96875 1.046875l0 4.84375q0.75 0 1.109375 0.34375q0.375 0.34375 0.375 0.859375q0 0.53125 -0.375 0.875q-0.359375 0.328125 -1.234375 0.328125l-2.171875 0q-0.859375 0 -1.234375 -0.328125q-0.375 -0.34375 -0.375 -0.875q0 -0.53125 0.375 -0.859375q0.359375 -0.34375 1.125 -0.34375l0 -5.828125q-0.765625 0 -1.125 -0.34375q-0.375 -0.34375 -0.375 -0.875q0 -0.515625 0.375 -0.84375q0.375 -0.34375 1.234375 -0.34375l2.296875 0zm20.261726 10.640625l0 -0.5625q-0.890625 0.484375 -1.984375 0.71875q-1.09375 0.25 -1.984375 0.25q-1.9375 0 -3.1406326 -1.03125q-1.203125 -1.03125 -1.203125 -2.265625q0 -1.515625 1.53125 -2.8125q1.5468826 -1.296875 4.2656326 -1.296875q1.09375 0 2.515625 0.234375l0 -0.578125q0 -0.53125 -0.46875 -0.875q-0.453125 -0.34375 -1.75 -0.34375q-1.0625 0 -2.765625 0.421875q-0.640625 0.15625 -0.9843826 0.15625q-0.484375 0 -0.828125 -0.34375q-0.328125 -0.34375 -0.328125 -0.890625q0 -0.296875 0.109375 -0.515625q0.125 -0.234375 0.328125 -0.359375q0.21875 -0.140625 0.8906326 -0.328125q0.890625 -0.25 1.8125 -0.390625q0.9375 -0.140625 1.6875 -0.140625q2.234375 0 3.46875 0.96875q1.234375 0.953125 1.234375 2.640625l0 4.9375l0.40625 0q0.875 0 1.234375 0.34375q0.375 0.328125 0.375 0.859375q0 0.53125 -0.375 0.875q-0.359375 0.328125 -1.234375 0.328125l-2.8125 0zm0 -4.296875q-1.4375 -0.28125 -2.65625 -0.28125q-1.46875 0 -2.515625 0.703125q-0.65625 0.46875 -0.65625 0.9375q0 0.328125 0.3125 0.546875q0.59375 0.390625 1.609375 0.390625q0.859375 0 1.953125 -0.34375q1.109375 -0.34375 1.953125 -0.921875l0 -1.03125zm11.652344 -3.9375l0 4.8125q0 0.765625 0.3125 1.015625q0.5 0.390625 1.765625 0.390625q1.84375 0 3.390625 -0.78125q0.609375 -0.3125 0.9375 -0.3125q0.46875 0 0.8125 0.359375q0.359375 0.34375 0.359375 0.84375q0 0.46875 -0.375 0.8125q-0.578125 0.546875 -2.28125 1.015625q-1.6875 0.46875 -2.84375 0.46875q-2.234375 0 -3.359375 -0.96875q-1.125 -0.96875 -1.125 -2.375l0 -5.28125l-0.859375 0q-0.875 0 -1.25 -0.328125q-0.359375 -0.34375 -0.359375 -0.890625q0 -0.515625 0.359375 -0.84375q0.375 -0.34375 1.25 -0.34375l0.859375 0l0 -2.171875q0 -0.859375 0.328125 -1.234375q0.34375 -0.375 0.890625 -0.375q0.515625 0 0.84375 0.375q0.34375 0.375 0.34375 1.234375l0 2.171875l4.4375 0q0.875 0 1.234375 0.34375q0.375 0.328125 0.375 0.859375q0 0.53125 -0.375 0.875q-0.359375 0.328125 -1.234375 0.328125l-4.4375 0zm12.746094 5.828125l5.265625 0q0.4375 -0.34375 0.828125 -0.34375q0.546875 0 0.859375 0.359375q0.328125 0.359375 0.328125 1.234375l0 1.15625l-10.9375 0l0 -2.546875q6.484375 -5.359375 7.828125 -6.890625q0.6875 -0.78125 0.6875 -1.484375q0 -0.875 -0.765625 -1.546875q-0.765625 -0.6875 -2.046875 -0.6875q-1.296875 0 -2.140625 0.75q-0.453125 0.40625 -0.71875 1.1875q-0.171875 0.5 -0.453125 0.71875q-0.28125 0.203125 -0.703125 0.203125q-0.5 0 -0.859375 -0.34375q-0.359375 -0.359375 -0.359375 -0.828125q0 -0.703125 0.65625 -1.75q0.65625 -1.0625 1.890625 -1.6875q1.25 -0.640625 2.71875 -0.640625q2.28125 0 3.734375 1.375q1.453125 1.375 1.453125 3.328125q0 1.0 -0.421875 1.859375q-0.421875 0.84375 -2.0 2.34375q-1.234375 1.171875 -4.84375 4.234375z" fill-rule="nonzero"/><path fill="#000000" fill-opacity="0.0" d="m304.12073 57.32021l392.22046 0l0 53.03937l-392.22046 0z" fill-rule="evenodd"/><path fill="#434343" d="m323.70166 78.71959l0 0.671875q0.578125 -0.5625 1.046875 -0.78125q0.484375 -0.21875 1.109375 -0.21875q0.515625 0 1.03125 0.265625q0.515625 0.25 1.015625 0.765625q0.625 -0.515625 1.25 -0.765625q0.640625 -0.25 1.3125 -0.25q1.34375 0 2.171875 0.703125q1.09375 0.9375 1.09375 2.46875l0 5.375q0.75 0 1.109375 0.34375q0.375 0.34375 0.375 0.859375q0 0.53125 -0.375 0.875q-0.359375 0.328125 -1.21875 0.328125l-2.28125 0l0 -7.578125q0 -0.5625 -0.203125 -0.765625q-0.203125 -0.21875 -0.609375 -0.21875q-0.40625 0 -0.734375 0.21875q-0.4375 0.296875 -1.0625 1.09375l0 4.84375q0.75 0 1.109375 0.34375q0.375 0.34375 0.375 0.859375q0 0.53125 -0.375 0.875q-0.359375 0.328125 -1.21875 0.328125l-2.296875 0l0 -7.578125q0 -0.546875 -0.203125 -0.765625q-0.203125 -0.21875 -0.609375 -0.21875q-0.421875 0 -0.84375 0.265625q-0.40625 0.265625 -0.96875 1.046875l0 4.84375q0.75 0 1.109375 0.34375q0.375 0.34375 0.375 0.859375q0 0.53125 -0.375 0.875q-0.359375 0.328125 -1.234375 0.328125l-2.171875 0q-0.859375 0 -1.234375 -0.328125q-0.375 -0.34375 -0.375 -0.875q0 -0.53125 0.375 -0.859375q0.359375 -0.34375 1.125 -0.34375l0 -5.828125q-0.765625 0 -1.125 -0.34375q-0.375 -0.34375 -0.375 -0.875q0 -0.515625 0.375 -0.84375q0.375 -0.34375 1.234375 -0.34375l2.296875 0zm20.261719 10.640625l0 -0.5625q-0.890625 0.484375 -1.984375 0.71875q-1.09375 0.25 -1.984375 0.25q-1.9375 0 -3.140625 -1.03125q-1.203125 -1.03125 -1.203125 -2.265625q0 -1.515625 1.53125 -2.8125q1.546875 -1.296875 4.265625 -1.296875q1.09375 0 2.515625 0.234375l0 -0.578125q0 -0.53125 -0.46875 -0.875q-0.453125 -0.34375 -1.75 -0.34375q-1.0625 0 -2.765625 0.421875q-0.640625 0.15625 -0.984375 0.15625q-0.484375 0 -0.828125 -0.34375q-0.328125 -0.34375 -0.328125 -0.890625q0 -0.296875 0.109375 -0.515625q0.125 -0.234375 0.328125 -0.359375q0.21875 -0.140625 0.890625 -0.328125q0.890625 -0.25 1.8125 -0.390625q0.9375 -0.140625 1.6875 -0.140625q2.234375 0 3.46875 0.96875q1.234375 0.953125 1.234375 2.640625l0 4.9375l0.40625 0q0.875 0 1.234375 0.34375q0.375 0.328125 0.375 0.859375q0 0.53125 -0.375 0.875q-0.359375 0.328125 -1.234375 0.328125l-2.8125 0zm0 -4.296875q-1.4375 -0.28125 -2.65625 -0.28125q-1.46875 0 -2.515625 0.703125q-0.65625 0.46875 -0.65625 0.9375q0 0.328125 0.3125 0.546875q0.59375 0.390625 1.609375 0.390625q0.859375 0 1.953125 -0.34375q1.109375 -0.34375 1.953125 -0.921875l0 -1.03125zm11.652344 -3.9375l0 4.8125q0 0.765625 0.3125 1.015625q0.5 0.390625 1.765625 0.390625q1.84375 0 3.390625 -0.78125q0.609375 -0.3125 0.9375 -0.3125q0.46875 0 0.8125 0.359375q0.359375 0.34375 0.359375 0.84375q0 0.46875 -0.375 0.8125q-0.578125 0.546875 -2.28125 1.015625q-1.6875 0.46875 -2.84375 0.46875q-2.234375 0 -3.359375 -0.96875q-1.125 -0.96875 -1.125 -2.375l0 -5.28125l-0.859375 0q-0.875 0 -1.25 -0.328125q-0.359375 -0.34375 -0.359375 -0.890625q0 -0.515625 0.359375 -0.84375q0.375 -0.34375 1.25 -0.34375l0.859375 0l0 -2.171875q0 -0.859375 0.328125 -1.234375q0.34375 -0.375 0.890625 -0.375q0.515625 0 0.84375 0.375q0.34375 0.375 0.34375 1.234375l0 2.171875l4.4375 0q0.875 0 1.234375 0.34375q0.375 0.328125 0.375 0.859375q0 0.53125 -0.375 0.875q-0.359375 0.328125 -1.234375 0.328125l-4.4375 0zm18.417969 0.203125q1.078125 0.734375 1.59375 1.6875q0.53125 0.953125 0.53125 2.140625q0 1.265625 -0.703125 2.359375q-0.6875 1.078125 -2.015625 1.640625q-1.328125 0.5625 -3.46875 0.5625q-2.78125 0 -4.1875 -0.875q-0.796875 -0.5 -0.796875 -1.171875q0 -0.515625 0.34375 -0.875q0.359375 -0.359375 0.84375 -0.359375q0.34375 0 0.703125 0.234375q0.515625 0.359375 0.96875 0.46875q0.703125 0.171875 1.9375 0.171875q2.09375 0 3.03125 -0.546875q0.9375 -0.546875 0.9375 -1.546875q0 -0.734375 -0.546875 -1.421875q-0.53125 -0.6875 -1.453125 -1.0625q-0.53125 -0.203125 -1.78125 -0.296875q-0.59375 -0.03125 -0.921875 -0.359375q-0.3125 -0.34375 -0.3125 -0.828125q0 -0.515625 0.34375 -0.859375q0.359375 -0.359375 0.890625 -0.359375q1.203125 0 1.28125 -0.015625q0.46875 -0.046875 0.9375 -0.296875q0.46875 -0.265625 0.75 -0.71875q0.296875 -0.453125 0.296875 -0.921875q0 -0.765625 -0.6875 -1.3125q-0.671875 -0.5625 -2.015625 -0.5625q-1.734375 0 -2.640625 1.0q-0.28125 0.296875 -0.4375 0.375q-0.25 0.125 -0.546875 0.125q-0.5 0 -0.859375 -0.34375q-0.34375 -0.359375 -0.34375 -0.875q0 -0.796875 1.078125 -1.5625q1.578125 -1.109375 3.921875 -1.109375q2.234375 0 3.578125 1.265625q1.34375 1.265625 1.34375 3.046875q0 0.921875 -0.40625 1.734375q-0.390625 0.796875 -1.1875 1.46875zm22.867188 1.1875l7.78125 4.3125q0.59375 0.328125 0.78125 0.59375q0.1875 0.25 0.1875 0.640625q0 0.515625 -0.359375 0.890625q-0.359375 0.359375 -0.84375 0.359375q-0.3125 0 -0.953125 -0.359375l-11.59375 -6.4375l11.59375 -6.453125q0.640625 -0.328125 0.9375 -0.328125q0.5 0 0.859375 0.359375q0.359375 0.359375 0.359375 0.859375q0 0.40625 -0.1875 0.671875q-0.1875 0.25 -0.78125 0.578125l-7.78125 4.3125zm21.949219 1.125l-10.03125 0l0 -2.1875l10.03125 0l0 2.1875zm23.273438 -4.921875l0 1.5q1.515625 -1.09375 2.390625 -1.453125q0.875 -0.359375 1.625 -0.359375q1.171875 0 2.28125 0.859375q0.75 0.59375 0.75 1.203125q0 0.515625 -0.359375 0.875q-0.359375 0.34375 -0.859375 0.34375q-0.453125 0 -0.953125 -0.4375q-0.484375 -0.453125 -0.859375 -0.453125q-0.515625 0 -1.515625 0.640625q-1.0 0.625 -2.5 1.890625l0 3.625l3.421875 0q0.875 0 1.234375 0.34375q0.375 0.328125 0.375 0.859375q0 0.53125 -0.375 0.875q-0.359375 0.328125 -1.234375 0.328125l-7.25 0q-0.875 0 -1.25 -0.328125q-0.359375 -0.34375 -0.359375 -0.875q0 -0.53125 0.359375 -0.859375q0.375 -0.34375 1.25 -0.34375l1.421875 0l0 -5.828125l-0.859375 0q-0.875 0 -1.25 -0.328125q-0.359375 -0.34375 -0.359375 -0.890625q0 -0.515625 0.359375 -0.84375q0.375 -0.34375 1.25 -0.34375l3.265625 0zm11.871094 -4.5625l0 5.390625q0.875 -0.578125 1.78125 -0.859375q0.921875 -0.28125 1.84375 -0.28125q2.5 0 4.234375 1.71875q1.734375 1.71875 1.734375 4.15625q0 2.328125 -1.65625 3.90625q-1.65625 1.5625 -4.359375 1.5625q-0.96875 0 -1.859375 -0.25q-0.890625 -0.25 -1.71875 -0.734375l0 0.59375l-2.8125 0q-0.859375 0 -1.234375 -0.328125q-0.375 -0.34375 -0.375 -0.875q0 -0.53125 0.375 -0.859375q0.375 -0.34375 1.234375 -0.34375l0.40625 0l0 -10.390625l-0.40625 0q-0.859375 0 -1.234375 -0.328125q-0.375 -0.34375 -0.375 -0.875q0 -0.53125 0.375 -0.859375q0.375 -0.34375 1.234375 -0.34375l2.8125 0zm7.1875 10.203125q0 -1.5 -1.046875 -2.53125q-1.046875 -1.03125 -2.546875 -1.03125q-1.5 0 -2.546875 1.03125q-1.046875 1.03125 -1.046875 2.484375q0 1.328125 0.9375 2.1875q0.9375 0.84375 2.65625 0.84375q1.703125 0 2.640625 -0.84375q0.953125 -0.859375 0.953125 -2.140625zm11.105469 -10.203125l0 2.546875l-2.859375 0l0 -2.546875l2.859375 0zm0.328125 4.5625l0 8.234375l2.890625 0q0.859375 0 1.21875 0.34375q0.375 0.328125 0.375 0.859375q0 0.53125 -0.375 0.875q-0.359375 0.328125 -1.21875 0.328125l-8.171875 0q-0.875 0 -1.25 -0.328125q-0.359375 -0.34375 -0.359375 -0.875q0 -0.53125 0.359375 -0.859375q0.375 -0.34375 1.25 -0.34375l2.875 0l0 -5.828125l-1.921875 0q-0.859375 0 -1.234375 -0.328125q-0.375 -0.34375 -0.375 -0.890625q0 -0.515625 0.359375 -0.84375q0.375 -0.34375 1.25 -0.34375l4.328125 0zm10.777344 0l0 0.8125q0.65625 -0.5625 1.453125 -0.84375q0.796875 -0.28125 1.71875 -0.28125q2.125 0 3.375 1.3125q0.984375 1.0625 0.984375 2.765625l0 4.46875q0.765625 0 1.125 0.34375q0.359375 0.328125 0.359375 0.859375q0 0.53125 -0.375 0.875q-0.359375 0.328125 -1.234375 0.328125l-2.15625 0q-0.875 0 -1.25 -0.328125q-0.359375 -0.34375 -0.359375 -0.875q0 -0.53125 0.359375 -0.859375q0.359375 -0.34375 1.125 -0.34375l0 -4.53125q0 -0.78125 -0.421875 -1.15625q-0.546875 -0.46875 -1.65625 -0.46875q-0.828125 0 -1.453125 0.328125q-0.625 0.328125 -1.59375 1.359375l0 4.46875q0.9375 0 1.203125 0.171875q0.578125 0.359375 0.578125 1.03125q0 0.53125 -0.375 0.875q-0.375 0.328125 -1.234375 0.328125l-2.734375 0q-0.859375 0 -1.234375 -0.328125q-0.375 -0.34375 -0.375 -0.875q0 -0.65625 0.5625 -1.03125q0.28125 -0.171875 1.21875 -0.171875l0 -5.828125q-0.765625 0 -1.140625 -0.34375q-0.359375 -0.34375 -0.359375 -0.875q0 -0.515625 0.375 -0.84375q0.375 -0.34375 1.234375 -0.34375l2.28125 0zm22.355469 -4.5625l0 12.796875l0.40625 0q0.859375 0 1.234375 0.34375q0.375 0.328125 0.375 0.859375q0 0.53125 -0.375 0.875q-0.359375 0.328125 -1.234375 0.328125l-2.8125 0l0 -0.59375q-0.8125 0.484375 -1.71875 0.734375q-0.890625 0.25 -1.859375 0.25q-2.703125 0 -4.359375 -1.5625q-1.640625 -1.578125 -1.640625 -3.90625q0 -2.4375 1.734375 -4.15625q1.734375 -1.71875 4.21875 -1.71875q0.9375 0 1.84375 0.28125q0.90625 0.28125 1.78125 0.859375l0 -2.984375l-0.40625 0q-0.875 0 -1.25 -0.328125q-0.359375 -0.34375 -0.359375 -0.875q0 -0.53125 0.359375 -0.859375q0.375 -0.34375 1.25 -0.34375l2.8125 0zm-2.40625 10.203125q0 -1.5 -1.046875 -2.53125q-1.03125 -1.03125 -2.546875 -1.03125q-1.5 0 -2.546875 1.03125q-1.046875 1.03125 -1.046875 2.484375q0 1.328125 0.9375 2.1875q0.9375 0.84375 2.65625 0.84375q1.703125 0 2.640625 -0.84375q0.953125 -0.859375 0.953125 -2.140625zm10.433594 -0.84375q0 -2.046875 0.671875 -4.140625q0.515625 -1.546875 1.5625 -3.453125q0.765625 -1.359375 1.125 -1.65625q0.359375 -0.3125 0.8125 -0.3125q0.515625 0 0.859375 0.359375q0.359375 0.34375 0.359375 0.828125q0 0.34375 -0.28125 0.8125q-1.265625 2.078125 -1.84375 3.890625q-0.578125 1.8125 -0.578125 3.671875q0 1.875 0.578125 3.703125q0.578125 1.8125 1.84375 3.890625q0.28125 0.453125 0.28125 0.8125q0 0.484375 -0.359375 0.828125q-0.34375 0.359375 -0.859375 0.359375q-0.4375 0 -0.765625 -0.28125q-0.46875 -0.40625 -1.234375 -1.84375q-1.125 -2.078125 -1.53125 -3.421875q-0.640625 -2.0625 -0.640625 -4.046875zm11.558594 -4.796875l0 0.671875q0.578125 -0.5625 1.046875 -0.78125q0.484375 -0.21875 1.109375 -0.21875q0.515625 0 1.03125 0.265625q0.515625 0.25 1.015625 0.765625q0.625 -0.515625 1.25 -0.765625q0.640625 -0.25 1.3125 -0.25q1.34375 0 2.171875 0.703125q1.09375 0.9375 1.09375 2.46875l0 5.375q0.75 0 1.109375 0.34375q0.375 0.34375 0.375 0.859375q0 0.53125 -0.375 0.875q-0.359375 0.328125 -1.21875 0.328125l-2.28125 0l0 -7.578125q0 -0.5625 -0.203125 -0.765625q-0.203125 -0.21875 -0.609375 -0.21875q-0.40625 0 -0.734375 0.21875q-0.4375 0.296875 -1.0625 1.09375l0 4.84375q0.75 0 1.109375 0.34375q0.375 0.34375 0.375 0.859375q0 0.53125 -0.375 0.875q-0.359375 0.328125 -1.21875 0.328125l-2.296875 0l0 -7.578125q0 -0.546875 -0.203125 -0.765625q-0.203125 -0.21875 -0.609375 -0.21875q-0.421875 0 -0.84375 0.265625q-0.40625 0.265625 -0.96875 1.046875l0 4.84375q0.75 0 1.109375 0.34375q0.375 0.34375 0.375 0.859375q0 0.53125 -0.375 0.875q-0.359375 0.328125 -1.234375 0.328125l-2.171875 0q-0.859375 0 -1.234375 -0.328125q-0.375 -0.34375 -0.375 -0.875q0 -0.53125 0.375 -0.859375q0.359375 -0.34375 1.125 -0.34375l0 -5.828125q-0.765625 0 -1.125 -0.34375q-0.375 -0.34375 -0.375 -0.875q0 -0.515625 0.375 -0.84375q0.375 -0.34375 1.234375 -0.34375l2.296875 0zm20.261719 10.640625l0 -0.5625q-0.890625 0.484375 -1.984375 0.71875q-1.09375 0.25 -1.984375 0.25q-1.9375 0 -3.140625 -1.03125q-1.203125 -1.03125 -1.203125 -2.265625q0 -1.515625 1.53125 -2.8125q1.546875 -1.296875 4.265625 -1.296875q1.09375 0 2.515625 0.234375l0 -0.578125q0 -0.53125 -0.46875 -0.875q-0.453125 -0.34375 -1.75 -0.34375q-1.0625 0 -2.765625 0.421875q-0.640625 0.15625 -0.984375 0.15625q-0.484375 0 -0.828125 -0.34375q-0.328125 -0.34375 -0.328125 -0.890625q0 -0.296875 0.109375 -0.515625q0.125 -0.234375 0.328125 -0.359375q0.21875 -0.140625 0.890625 -0.328125q0.890625 -0.25 1.8125 -0.390625q0.9375 -0.140625 1.6875 -0.140625q2.234375 0 3.46875 0.96875q1.234375 0.953125 1.234375 2.640625l0 4.9375l0.40625 0q0.875 0 1.234375 0.34375q0.375 0.328125 0.375 0.859375q0 0.53125 -0.375 0.875q-0.359375 0.328125 -1.234375 0.328125l-2.8125 0zm0 -4.296875q-1.4375 -0.28125 -2.65625 -0.28125q-1.46875 0 -2.515625 0.703125q-0.65625 0.46875 -0.65625 0.9375q0 0.328125 0.3125 0.546875q0.59375 0.390625 1.609375 0.390625q0.859375 0 1.953125 -0.34375q1.109375 -0.34375 1.953125 -0.921875l0 -1.03125zm11.652344 -3.9375l0 4.8125q0 0.765625 0.3125 1.015625q0.5 0.390625 1.765625 0.390625q1.84375 0 3.390625 -0.78125q0.609375 -0.3125 0.9375 -0.3125q0.46875 0 0.8125 0.359375q0.359375 0.34375 0.359375 0.84375q0 0.46875 -0.375 0.8125q-0.578125 0.546875 -2.28125 1.015625q-1.6875 0.46875 -2.84375 0.46875q-2.234375 0 -3.359375 -0.96875q-1.125 -0.96875 -1.125 -2.375l0 -5.28125l-0.859375 0q-0.875 0 -1.25 -0.328125q-0.359375 -0.34375 -0.359375 -0.890625q0 -0.515625 0.359375 -0.84375q0.375 -0.34375 1.25 -0.34375l0.859375 0l0 -2.171875q0 -0.859375 0.328125 -1.234375q0.34375 -0.375 0.890625 -0.375q0.515625 0 0.84375 0.375q0.34375 0.375 0.34375 1.234375l0 2.171875l4.4375 0q0.875 0 1.234375 0.34375q0.375 0.328125 0.375 0.859375q0 0.53125 -0.375 0.875q-0.359375 0.328125 -1.234375 0.328125l-4.4375 0zm16.214844 -7.3125l0 13.140625l2.4375 0q0.859375 0 1.21875 0.34375q0.375 0.328125 0.375 0.859375q0 0.53125 -0.375 0.875q-0.359375 0.328125 -1.21875 0.328125l-7.265625 0q-0.859375 0 -1.234375 -0.328125q-0.359375 -0.34375 -0.359375 -0.875q0 -0.53125 0.359375 -0.859375q0.375 -0.34375 1.234375 -0.34375l2.4375 0l0 -10.015625l-2.15625 0.5625q-0.515625 0.140625 -0.765625 0.140625q-0.453125 0 -0.796875 -0.359375q-0.328125 -0.375 -0.328125 -0.890625q0 -0.484375 0.234375 -0.75q0.25 -0.28125 1.046875 -0.5l5.15625 -1.328125zm12.621094 12.3125l3.203125 0l-3.453125 6.515625q-0.3125 0.578125 -0.765625 0.578125q-0.296875 0 -0.515625 -0.203125q-0.21875 -0.203125 -0.21875 -0.4375q0 -0.1875 0.078125 -0.484375l1.671875 -5.96875zm25.664062 -7.40625l0 0.671875q0.578125 -0.5625 1.046875 -0.78125q0.484375 -0.21875 1.109375 -0.21875q0.515625 0 1.03125 0.265625q0.515625 0.25 1.015625 0.765625q0.625 -0.515625 1.25 -0.765625q0.640625 -0.25 1.3125 -0.25q1.34375 0 2.171875 0.703125q1.09375 0.9375 1.09375 2.46875l0 5.375q0.75 0 1.109375 0.34375q0.375 0.34375 0.375 0.859375q0 0.53125 -0.375 0.875q-0.359375 0.328125 -1.21875 0.328125l-2.28125 0l0 -7.578125q0 -0.5625 -0.203125 -0.765625q-0.203125 -0.21875 -0.609375 -0.21875q-0.40625 0 -0.734375 0.21875q-0.4375 0.296875 -1.0625 1.09375l0 4.84375q0.75 0 1.109375 0.34375q0.375 0.34375 0.375 0.859375q0 0.53125 -0.375 0.875q-0.359375 0.328125 -1.21875 0.328125l-2.296875 0l0 -7.578125q0 -0.546875 -0.203125 -0.765625q-0.203125 -0.21875 -0.609375 -0.21875q-0.421875 0 -0.84375 0.265625q-0.40625 0.265625 -0.96875 1.046875l0 4.84375q0.75 0 1.109375 0.34375q0.375 0.34375 0.375 0.859375q0 0.53125 -0.375 0.875q-0.359375 0.328125 -1.234375 0.328125l-2.171875 0q-0.859375 0 -1.234375 -0.328125q-0.375 -0.34375 -0.375 -0.875q0 -0.53125 0.375 -0.859375q0.359375 -0.34375 1.125 -0.34375l0 -5.828125q-0.765625 0 -1.125 -0.34375q-0.375 -0.34375 -0.375 -0.875q0 -0.515625 0.375 -0.84375q0.375 -0.34375 1.234375 -0.34375l2.296875 0zm20.261719 10.640625l0 -0.5625q-0.890625 0.484375 -1.984375 0.71875q-1.09375 0.25 -1.984375 0.25q-1.9375 0 -3.140625 -1.03125q-1.203125 -1.03125 -1.203125 -2.265625q0 -1.515625 1.53125 -2.8125q1.546875 -1.296875 4.265625 -1.296875q1.09375 0 2.515625 0.234375l0 -0.578125q0 -0.53125 -0.46875 -0.875q-0.453125 -0.34375 -1.75 -0.34375q-1.0625 0 -2.765625 0.421875q-0.640625 0.15625 -0.984375 0.15625q-0.484375 0 -0.828125 -0.34375q-0.328125 -0.34375 -0.328125 -0.890625q0 -0.296875 0.109375 -0.515625q0.125 -0.234375 0.328125 -0.359375q0.21875 -0.140625 0.890625 -0.328125q0.890625 -0.25 1.8125 -0.390625q0.9375 -0.140625 1.6875 -0.140625q2.234375 0 3.46875 0.96875q1.234375 0.953125 1.234375 2.640625l0 4.9375l0.40625 0q0.875 0 1.234375 0.34375q0.375 0.328125 0.375 0.859375q0 0.53125 -0.375 0.875q-0.359375 0.328125 -1.234375 0.328125l-2.8125 0zm0 -4.296875q-1.4375 -0.28125 -2.65625 -0.28125q-1.46875 0 -2.515625 0.703125q-0.65625 0.46875 -0.65625 0.9375q0 0.328125 0.3125 0.546875q0.59375 0.390625 1.609375 0.390625q0.859375 0 1.953125 -0.34375q1.109375 -0.34375 1.953125 -0.921875l0 -1.03125zm11.652344 -3.9375l0 4.8125q0 0.765625 0.3125 1.015625q0.5 0.390625 1.765625 0.390625q1.84375 0 3.390625 -0.78125q0.609375 -0.3125 0.9375 -0.3125q0.46875 0 0.8125 0.359375q0.359375 0.34375 0.359375 0.84375q0 0.46875 -0.375 0.8125q-0.578125 0.546875 -2.28125 1.015625q-1.6875 0.46875 -2.84375 0.46875q-2.234375 0 -3.359375 -0.96875q-1.125 -0.96875 -1.125 -2.375l0 -5.28125l-0.859375 0q-0.875 0 -1.25 -0.328125q-0.359375 -0.34375 -0.359375 -0.890625q0 -0.515625 0.359375 -0.84375q0.375 -0.34375 1.25 -0.34375l0.859375 0l0 -2.171875q0 -0.859375 0.328125 -1.234375q0.34375 -0.375 0.890625 -0.375q0.515625 0 0.84375 0.375q0.34375 0.375 0.34375 1.234375l0 2.171875l4.4375 0q0.875 0 1.234375 0.34375q0.375 0.328125 0.375 0.859375q0 0.53125 -0.375 0.875q-0.359375 0.328125 -1.234375 0.328125l-4.4375 0zm12.746094 5.828125l5.265625 0q0.4375 -0.34375 0.828125 -0.34375q0.546875 0 0.859375 0.359375q0.328125 0.359375 0.328125 1.234375l0 1.15625l-10.9375 0l0 -2.546875q6.484375 -5.359375 7.828125 -6.890625q0.6875 -0.78125 0.6875 -1.484375q0 -0.875 -0.765625 -1.546875q-0.765625 -0.6875 -2.046875 -0.6875q-1.296875 0 -2.140625 0.75q-0.453125 0.40625 -0.71875 1.1875q-0.171875 0.5 -0.453125 0.71875q-0.28125 0.203125 -0.703125 0.203125q-0.5 0 -0.859375 -0.34375q-0.359375 -0.359375 -0.359375 -0.828125q0 -0.703125 0.65625 -1.75q0.65625 -1.0625 1.890625 -1.6875q1.25 -0.640625 2.71875 -0.640625q2.28125 0 3.734375 1.375q1.453125 1.375 1.453125 3.328125q0 1.0 -0.421875 1.859375q-0.421875 0.84375 -2.0 2.34375q-1.234375 1.171875 -4.84375 4.234375zm17.683594 -3.4375q0 2.0625 -0.6875 4.171875q-0.5 1.546875 -1.5625 3.4375q-0.75 1.359375 -1.125 1.671875q-0.359375 0.3125 -0.796875 0.3125q-0.515625 0 -0.875 -0.359375q-0.34375 -0.34375 -0.34375 -0.828125q0 -0.359375 0.28125 -0.8125q1.265625 -2.078125 1.84375 -3.890625q0.578125 -1.828125 0.578125 -3.703125q0 -1.859375 -0.578125 -3.671875q-0.578125 -1.8125 -1.84375 -3.890625q-0.28125 -0.46875 -0.28125 -0.8125q0 -0.484375 0.34375 -0.828125q0.359375 -0.359375 0.875 -0.359375q0.421875 0 0.75 0.28125q0.46875 0.390625 1.25 1.828125q1.109375 2.078125 1.515625 3.421875q0.65625 2.0625 0.65625 4.03125z" fill-rule="nonzero"/><path fill="#000000" fill-opacity="0.0" d="m360.37796 7.5617223l223.24411 0l0 53.03937l-223.24411 0z" fill-rule="evenodd"/><path fill="#434343" d="m404.72717 42.16172l2.890625 -13.828125l2.078125 0l-0.59375 2.828125q1.078125 -1.59375 2.09375 -2.359375q1.015625 -0.78125 2.09375 -0.78125q0.703125 0 1.734375 0.515625l-0.96875 2.1875q-0.609375 -0.453125 -1.34375 -0.453125q-1.234375 0 -2.546875 1.390625q-1.296875 1.375 -2.03125 4.953125l-1.171875 5.546875l-2.234375 0zm9.2829895 -5.25q0 -4.046875 2.390625 -6.703125q1.96875 -2.1875 5.15625 -2.1875q2.5 0 4.015625 1.5625q1.53125 1.5625 1.53125 4.21875q0 2.390625 -0.96875 4.4375q-0.953125 2.046875 -2.734375 3.140625q-1.765625 1.09375 -3.734375 1.09375q-1.609375 0 -2.9375 -0.6875q-1.328125 -0.6875 -2.03125 -1.953125q-0.6875 -1.265625 -0.6875 -2.921875zm2.359375 -0.234375q0 1.953125 0.9375 2.96875q0.9375 1.0 2.375 1.0q0.765625 0 1.5 -0.296875q0.75 -0.3125 1.375 -0.9375q0.640625 -0.625 1.09375 -1.421875q0.453125 -0.796875 0.71875 -1.71875q0.40625 -1.296875 0.40625 -2.484375q0 -1.875 -0.953125 -2.90625q-0.9375 -1.03125 -2.359375 -1.03125q-1.109375 0 -2.03125 0.53125q-0.90625 0.515625 -1.640625 1.53125q-0.734375 1.015625 -1.078125 2.375q-0.34375 1.34375 -0.34375 2.390625zm14.684296 5.484375l-1.453125 -13.828125l2.265625 0l0.625 6.21875l0.25 3.484375q0.03125 0.390625 0.078125 1.578125q0.390625 -1.328125 0.65625 -2.03125q0.28125 -0.71875 0.875 -2.03125l3.296875 -7.21875l2.5625 0l0.46875 6.921875q0.09375 1.5625 0.125 4.203125q0.640625 -1.75 2.125 -4.84375l2.96875 -6.28125l2.34375 0l-6.75 13.828125l-2.453125 0l-0.515625 -8.109375q-0.046875 -0.75 -0.078125 -2.9375q-0.53125 1.390625 -1.265625 3.0l-3.65625 8.046875l-2.46875 0zm24.03125 0l3.984375 -19.078125l2.34375 0l-1.40625 6.8125q1.109375 -1.03125 2.015625 -1.453125q0.921875 -0.421875 1.90625 -0.421875q1.9375 0 3.234375 1.453125q1.296875 1.4375 1.296875 4.203125q0 1.828125 -0.53125 3.359375q-0.515625 1.515625 -1.28125 2.5625q-0.765625 1.03125 -1.59375 1.65625q-0.8125 0.609375 -1.671875 0.90625q-0.859375 0.3125 -1.65625 0.3125q-1.359375 0 -2.40625 -0.71875q-1.03125 -0.71875 -1.625 -2.203125l-0.546875 2.609375l-2.0625 0zm3.484375 -5.671875l-0.015625 0.4375q0 1.765625 0.84375 2.703125q0.84375 0.921875 2.109375 0.921875q1.234375 0 2.265625 -0.859375q1.046875 -0.875 1.703125 -2.703125q0.671875 -1.84375 0.671875 -3.390625q0 -1.75 -0.84375 -2.703125q-0.84375 -0.96875 -2.078125 -0.96875q-1.28125 0 -2.34375 0.984375q-1.0625 0.984375 -1.78125 3.03125q-0.53125 1.515625 -0.53125 2.546875zm14.684326 -10.734375l0.5625 -2.671875l2.328125 0l-0.546875 2.671875l-2.34375 0zm-3.4375 16.40625l2.890625 -13.828125l2.359375 0l-2.890625 13.828125l-2.359375 0zm6.0158997 0l2.890625 -13.828125l2.125 0l-0.5 2.40625q1.390625 -1.40625 2.59375 -2.0625q1.21875 -0.65625 2.484375 -0.65625q1.671875 0 2.625 0.921875q0.953125 0.90625 0.953125 2.421875q0 0.78125 -0.328125 2.421875l-1.765625 8.375l-2.34375 0l1.828125 -8.765625q0.28125 -1.265625 0.28125 -1.875q0 -0.703125 -0.484375 -1.125q-0.46875 -0.4375 -1.375 -0.4375q-1.8125 0 -3.21875 1.3125q-1.40625 1.296875 -2.078125 4.453125l-1.34375 6.4375l-2.34375 0zm24.137451 -2.0q-2.015625 2.3125 -4.21875 2.3125q-1.96875 0 -3.28125 -1.453125q-1.296875 -1.453125 -1.296875 -4.203125q0 -2.53125 1.03125 -4.609375q1.03125 -2.09375 2.59375 -3.140625q1.5625 -1.046875 3.109375 -1.046875q2.578125 0 3.90625 2.484375l1.546875 -7.421875l2.34375 0l-3.96875 19.078125l-2.1875 0l0.421875 -2.0zm-6.453125 -3.796875q0 1.453125 0.28125 2.28125q0.296875 0.828125 0.984375 1.390625q0.6875 0.546875 1.65625 0.546875q1.59375 0 2.890625 -1.65625q1.75 -2.21875 1.75 -5.46875q0 -1.640625 -0.859375 -2.5625q-0.859375 -0.9375 -2.15625 -0.9375q-0.859375 0 -1.5625 0.390625q-0.6875 0.375 -1.375 1.28125q-0.671875 0.90625 -1.140625 2.296875q-0.46875 1.390625 -0.46875 2.4375zm15.309296 -10.609375l0.5625 -2.671875l2.328125 0l-0.546875 2.671875l-2.34375 0zm-3.4375 16.40625l2.890625 -13.828125l2.359375 0l-2.890625 13.828125l-2.359375 0zm6.01593 0l2.890625 -13.828125l2.125 0l-0.5 2.40625q1.390625 -1.40625 2.59375 -2.0625q1.21875 -0.65625 2.484375 -0.65625q1.671875 0 2.625 0.921875q0.953125 0.90625 0.953125 2.421875q0 0.78125 -0.328125 2.421875l-1.765625 8.375l-2.34375 0l1.828125 -8.765625q0.28125 -1.265625 0.28125 -1.875q0 -0.703125 -0.484375 -1.125q-0.46875 -0.4375 -1.375 -0.4375q-1.8125 0 -3.21875 1.3125q-1.40625 1.296875 -2.078125 4.453125l-1.34375 6.4375l-2.34375 0zm14.684265 1.25l2.390625 0.21875q-0.03125 0.8125 0.1875 1.203125q0.21875 0.40625 0.703125 0.640625q0.640625 0.28125 1.65625 0.28125q2.140625 0 3.078125 -1.109375q0.609375 -0.734375 1.125 -3.21875l0.234375 -1.125q-1.828125 1.859375 -3.90625 1.859375q-2.09375 0 -3.515625 -1.53125q-1.40625 -1.546875 -1.40625 -4.375q0 -2.328125 1.109375 -4.28125q1.125 -1.953125 2.65625 -2.953125q1.53125 -1.0 3.15625 -1.0q2.734375 0 4.203125 2.578125l0.46875 -2.265625l2.15625 0l-2.78125 13.34375q-0.453125 2.203125 -1.203125 3.421875q-0.734375 1.234375 -2.0625 1.90625q-1.328125 0.6875 -3.046875 0.6875q-1.671875 0 -2.875 -0.4375q-1.203125 -0.421875 -1.796875 -1.25q-0.59375 -0.828125 -0.59375 -1.890625q0 -0.328125 0.0625 -0.703125zm2.953125 -7.375q0 1.421875 0.265625 2.140625q0.390625 1.0 1.109375 1.53125q0.734375 0.53125 1.609375 0.53125q1.15625 0 2.296875 -0.8125q1.15625 -0.8125 1.859375 -2.515625q0.71875 -1.71875 0.71875 -3.265625q0 -1.703125 -0.953125 -2.703125q-0.9375 -1.015625 -2.328125 -1.015625q-0.859375 0 -1.671875 0.46875q-0.796875 0.453125 -1.5 1.40625q-0.703125 0.9375 -1.0625 2.25q-0.34375 1.3125 -0.34375 1.984375z" fill-rule="nonzero"/><path fill="#000000" fill-opacity="0.0" d="m261.09973 117.0105l100.22049 79.11812" fill-rule="evenodd"/><path stroke="#999999" stroke-width="2.0" stroke-linejoin="round" stroke-linecap="butt" d="m261.09973 117.0105l90.80173 71.68259" fill-rule="evenodd"/><path fill="#999999" stroke="#999999" stroke-width="2.0" stroke-linecap="butt" d="m349.85455 191.28595l9.170776 3.0309906l-5.076935 -8.216751z" fill-rule="evenodd"/><path fill="#000000" fill-opacity="0.0" d="m253.18636 300.13123l108.12599 -80.44093" fill-rule="evenodd"/><path stroke="#999999" stroke-width="2.0" stroke-linejoin="round" stroke-linecap="butt" d="m253.18636 300.13123l98.49812 -73.27823" fill-rule="evenodd"/><path fill="#999999" stroke="#999999" stroke-width="2.0" stroke-linecap="butt" d="m353.65628 229.50343l5.310211 -8.067947l-9.253815 2.7670593z" fill-rule="evenodd"/><path shape-rendering="crispEdges" fill="#ffd966" d="m74.808395 475.30054l40.19423 0l0 42.304443l-40.19423 0l0 -42.304443z" fill-rule="nonzero"/><path shape-rendering="crispEdges" fill="#ffd966" d="m115.002625 475.30054l40.19423 0l0 42.304443l-40.19423 0l0 -42.304443z" fill-rule="nonzero"/><path shape-rendering="crispEdges" fill="#ffd966" d="m155.19685 475.30054l40.19423 0l0 42.304443l-40.19423 0l0 -42.304443z" fill-rule="nonzero"/><path shape-rendering="crispEdges" fill="#ffd966" d="m74.808395 517.605l40.19423 0l0 42.304443l-40.19423 0l0 -42.304443z" fill-rule="nonzero"/><path shape-rendering="crispEdges" fill="#ffd966" d="m115.002625 517.605l40.19423 0l0 42.304443l-40.19423 0l0 -42.304443z" fill-rule="nonzero"/><path shape-rendering="crispEdges" fill="#ffd966" d="m155.19685 517.605l40.19423 0l0 42.304443l-40.19423 0l0 -42.304443z" fill-rule="nonzero"/><path stroke="#666666" stroke-width="1.0" stroke-linecap="butt" d="m74.808395 474.80185l0 85.60629" fill-rule="nonzero"/><path stroke="#666666" stroke-width="1.0" stroke-linecap="butt" d="m115.002625 474.80185l0 85.60629" fill-rule="nonzero"/><path stroke="#666666" stroke-width="1.0" stroke-linecap="butt" d="m155.19685 474.80185l0 85.60629" fill-rule="nonzero"/><path stroke="#666666" stroke-width="1.0" stroke-linecap="butt" d="m195.39108 474.80185l0 85.60629" fill-rule="nonzero"/><path stroke="#666666" stroke-width="1.0" stroke-linecap="butt" d="m74.30971 475.30054l121.58006 0" fill-rule="nonzero"/><path stroke="#666666" stroke-width="1.0" stroke-linecap="butt" d="m74.30971 517.605l121.58006 0" fill-rule="nonzero"/><path stroke="#666666" stroke-width="1.0" stroke-linecap="butt" d="m74.30971 559.9094l121.58006 0" fill-rule="nonzero"/><path shape-rendering="crispEdges" fill="#ffd966" d="m351.82153 549.93787l40.194214 0l0 42.304504l-40.194214 0l0 -42.304504z" fill-rule="nonzero"/><path shape-rendering="crispEdges" fill="#ffd966" d="m392.01575 549.93787l40.194214 0l0 42.304504l-40.194214 0l0 -42.304504z" fill-rule="nonzero"/><path shape-rendering="crispEdges" fill="#ffd966" d="m432.20996 549.93787l40.194244 0l0 42.304504l-40.194244 0l0 -42.304504z" fill-rule="nonzero"/><path shape-rendering="crispEdges" fill="#a4c2f4" d="m472.4042 549.93787l40.194244 0l0 42.304504l-40.194244 0l0 -42.304504z" fill-rule="nonzero"/><path shape-rendering="crispEdges" fill="#a4c2f4" d="m512.59845 549.93787l40.194214 0l0 42.304504l-40.194214 0l0 -42.304504z" fill-rule="nonzero"/><path shape-rendering="crispEdges" fill="#ffd966" d="m351.82153 592.2424l40.194214 0l0 42.304443l-40.194214 0l0 -42.304443z" fill-rule="nonzero"/><path shape-rendering="crispEdges" fill="#ffd966" d="m392.01575 592.2424l40.194214 0l0 42.304443l-40.194214 0l0 -42.304443z" fill-rule="nonzero"/><path shape-rendering="crispEdges" fill="#ffd966" d="m432.20996 592.2424l40.194244 0l0 42.304443l-40.194244 0l0 -42.304443z" fill-rule="nonzero"/><path shape-rendering="crispEdges" fill="#a4c2f4" d="m472.4042 592.2424l40.194244 0l0 42.304443l-40.194244 0l0 -42.304443z" fill-rule="nonzero"/><path shape-rendering="crispEdges" fill="#a4c2f4" d="m512.59845 592.2424l40.194214 0l0 42.304443l-40.194214 0l0 -42.304443z" fill-rule="nonzero"/><path stroke="#666666" stroke-width="1.0" stroke-linecap="butt" d="m351.82153 549.4392l0 85.60626" fill-rule="nonzero"/><path stroke="#666666" stroke-width="1.0" stroke-linecap="butt" d="m392.01575 549.4392l0 85.60626" fill-rule="nonzero"/><path stroke="#666666" stroke-width="1.0" stroke-linecap="butt" d="m432.20996 549.4392l0 85.60626" fill-rule="nonzero"/><path stroke="#666666" stroke-width="1.0" stroke-linecap="butt" d="m472.4042 549.4392l0 85.60626" fill-rule="nonzero"/><path stroke="#666666" stroke-width="1.0" stroke-linecap="butt" d="m512.59845 549.4392l0 85.60626" fill-rule="nonzero"/><path stroke="#666666" stroke-width="1.0" stroke-linecap="butt" d="m552.79266 549.4392l0 85.60626" fill-rule="nonzero"/><path stroke="#666666" stroke-width="1.0" stroke-linecap="butt" d="m351.32285 549.93787l201.96848 0" fill-rule="nonzero"/><path stroke="#666666" stroke-width="1.0" stroke-linecap="butt" d="m351.32285 592.2424l201.96848 0" fill-rule="nonzero"/><path stroke="#666666" stroke-width="1.0" stroke-linecap="butt" d="m351.32285 634.5468l201.96848 0" fill-rule="nonzero"/><path fill="#000000" fill-opacity="0.0" d="m82.026245 423.56168l108.12599 0l0 53.039368l-108.12599 0z" fill-rule="evenodd"/><path fill="#434343" d="m110.78455 444.96106l0 0.671875q0.578125 -0.5625 1.046875 -0.78125q0.484375 -0.21875 1.109375 -0.21875q0.515625 0 1.03125 0.265625q0.515625 0.25 1.015625 0.765625q0.625 -0.515625 1.25 -0.765625q0.640625 -0.25 1.3125 -0.25q1.34375 0 2.171875 0.703125q1.09375 0.9375 1.09375 2.46875l0 5.375q0.75 0 1.109375 0.34375q0.375 0.34375 0.375 0.859375q0 0.53125 -0.375 0.875q-0.359375 0.328125 -1.21875 0.328125l-2.28125 0l0 -7.578125q0 -0.5625 -0.203125 -0.765625q-0.203125 -0.21875 -0.609375 -0.21875q-0.40625 0 -0.734375 0.21875q-0.4375 0.296875 -1.0625 1.09375l0 4.84375q0.75 0 1.109375 0.34375q0.375 0.34375 0.375 0.859375q0 0.53125 -0.375 0.875q-0.359375 0.328125 -1.21875 0.328125l-2.296875 0l0 -7.578125q0 -0.546875 -0.203125 -0.765625q-0.203125 -0.21875 -0.609375 -0.21875q-0.421875 0 -0.84375 0.265625q-0.40625 0.265625 -0.96875 1.046875l0 4.84375q0.75 0 1.109375 0.34375q0.375 0.34375 0.375 0.859375q0 0.53125 -0.375 0.875q-0.359375 0.328125 -1.234375 0.328125l-2.171875 0q-0.859375 0 -1.234375 -0.328125q-0.375 -0.34375 -0.375 -0.875q0 -0.53125 0.375 -0.859375q0.359375 -0.34375 1.125 -0.34375l0 -5.828125q-0.765625 0 -1.125 -0.34375q-0.375 -0.34375 -0.375 -0.875q0 -0.515625 0.375 -0.84375q0.375 -0.34375 1.234375 -0.34375l2.296875 0zm20.261711 10.640625l0 -0.5625q-0.890625 0.484375 -1.984375 0.71875q-1.0937424 0.25 -1.9843674 0.25q-1.9375 0 -3.140625 -1.03125q-1.203125 -1.03125 -1.203125 -2.265625q0 -1.515625 1.53125 -2.8125q1.546875 -1.296875 4.2656174 -1.296875q1.09375 0 2.515625 0.234375l0 -0.578125q0 -0.53125 -0.46875 -0.875q-0.453125 -0.34375 -1.75 -0.34375q-1.0624924 0 -2.7656174 0.421875q-0.640625 0.15625 -0.984375 0.15625q-0.484375 0 -0.828125 -0.34375q-0.328125 -0.34375 -0.328125 -0.890625q0 -0.296875 0.109375 -0.515625q0.125 -0.234375 0.328125 -0.359375q0.21875 -0.140625 0.890625 -0.328125q0.890625 -0.25 1.8125 -0.390625q0.9375 -0.140625 1.6874924 -0.140625q2.234375 0 3.46875 0.96875q1.234375 0.953125 1.234375 2.640625l0 4.9375l0.40625 0q0.875 0 1.234375 0.34375q0.375 0.328125 0.375 0.859375q0 0.53125 -0.375 0.875q-0.359375 0.328125 -1.234375 0.328125l-2.8125 0zm0 -4.296875q-1.4375 -0.28125 -2.65625 -0.28125q-1.4687424 0 -2.5156174 0.703125q-0.65625 0.46875 -0.65625 0.9375q0 0.328125 0.3125 0.546875q0.59375 0.390625 1.609375 0.390625q0.859375 0 1.9531174 -0.34375q1.109375 -0.34375 1.953125 -0.921875l0 -1.03125zm11.652344 -3.9375l0 4.8125q0 0.765625 0.3125 1.015625q0.5 0.390625 1.765625 0.390625q1.84375 0 3.390625 -0.78125q0.609375 -0.3125 0.9375 -0.3125q0.46875 0 0.8125 0.359375q0.359375 0.34375 0.359375 0.84375q0 0.46875 -0.375 0.8125q-0.578125 0.546875 -2.28125 1.015625q-1.6875 0.46875 -2.84375 0.46875q-2.234375 0 -3.359375 -0.96875q-1.125 -0.96875 -1.125 -2.375l0 -5.28125l-0.859375 0q-0.875 0 -1.25 -0.328125q-0.359375 -0.34375 -0.359375 -0.890625q0 -0.515625 0.359375 -0.84375q0.375 -0.34375 1.25 -0.34375l0.859375 0l0 -2.171875q0 -0.859375 0.328125 -1.234375q0.34375 -0.375 0.890625 -0.375q0.515625 0 0.84375 0.375q0.34375 0.375 0.34375 1.234375l0 2.171875l4.4375 0q0.875 0 1.234375 0.34375q0.375 0.328125 0.375 0.859375q0 0.53125 -0.375 0.875q-0.359375 0.328125 -1.234375 0.328125l-4.4375 0zm16.214844 -7.3125l0 13.140625l2.4375 0q0.859375 0 1.21875 0.34375q0.375 0.328125 0.375 0.859375q0 0.53125 -0.375 0.875q-0.359375 0.328125 -1.21875 0.328125l-7.265625 0q-0.859375 0 -1.234375 -0.328125q-0.359375 -0.34375 -0.359375 -0.875q0 -0.53125 0.359375 -0.859375q0.375 -0.34375 1.234375 -0.34375l2.4375 0l0 -10.015625l-2.15625 0.5625q-0.515625 0.140625 -0.765625 0.140625q-0.453125 0 -0.796875 -0.359375q-0.328125 -0.375 -0.328125 -0.890625q0 -0.484375 0.234375 -0.75q0.25 -0.28125 1.046875 -0.5l5.15625 -1.328125z" fill-rule="nonzero"/><path shape-rendering="crispEdges" fill="#a4c2f4" d="m93.533676 627.30054l40.19423 0l0 42.304443l-40.19423 0l0 -42.304443z" fill-rule="nonzero"/><path shape-rendering="crispEdges" fill="#a4c2f4" d="m133.7279 627.30054l40.194214 0l0 42.304443l-40.194214 0l0 -42.304443z" fill-rule="nonzero"/><path shape-rendering="crispEdges" fill="#a4c2f4" d="m93.533676 669.605l40.19423 0l0 42.304443l-40.19423 0l0 -42.304443z" fill-rule="nonzero"/><path shape-rendering="crispEdges" fill="#a4c2f4" d="m133.7279 669.605l40.194214 0l0 42.304443l-40.194214 0l0 -42.304443z" fill-rule="nonzero"/><path stroke="#666666" stroke-width="1.0" stroke-linecap="butt" d="m93.533676 626.8018l0 85.60632" fill-rule="nonzero"/><path stroke="#666666" stroke-width="1.0" stroke-linecap="butt" d="m133.7279 626.8018l0 85.60632" fill-rule="nonzero"/><path stroke="#666666" stroke-width="1.0" stroke-linecap="butt" d="m173.92212 626.8018l0 85.60632" fill-rule="nonzero"/><path stroke="#666666" stroke-width="1.0" stroke-linecap="butt" d="m93.03499 627.30054l81.38582 0" fill-rule="nonzero"/><path stroke="#666666" stroke-width="1.0" stroke-linecap="butt" d="m93.03499 669.605l81.38582 0" fill-rule="nonzero"/><path stroke="#666666" stroke-width="1.0" stroke-linecap="butt" d="m93.03499 711.9094l81.38582 0" fill-rule="nonzero"/><path fill="#000000" fill-opacity="0.0" d="m58.850395 575.26245l165.88977 0l0 53.039368l-165.88977 0z" fill-rule="evenodd"/><path fill="#434343" d="m116.49059 596.66187l0 0.671875q0.578125 -0.5625 1.046875 -0.78125q0.484375 -0.21875 1.109375 -0.21875q0.515625 0 1.03125 0.265625q0.515625 0.25 1.015625 0.765625q0.625 -0.515625 1.25 -0.765625q0.640625 -0.25 1.3125 -0.25q1.34375 0 2.171875 0.703125q1.09375 0.9375 1.09375 2.46875l0 5.375q0.75 0 1.109375 0.34375q0.37499237 0.34375 0.37499237 0.859375q0 0.53125 -0.37499237 0.875q-0.359375 0.328125 -1.21875 0.328125l-2.28125 0l0 -7.578125q0 -0.5625 -0.203125 -0.765625q-0.203125 -0.21875 -0.609375 -0.21875q-0.40625 0 -0.734375 0.21875q-0.4375 0.296875 -1.0625 1.09375l0 4.84375q0.75 0 1.109375 0.34375q0.375 0.34375 0.375 0.859375q0 0.53125 -0.375 0.875q-0.359375 0.328125 -1.21875 0.328125l-2.296875 0l0 -7.578125q0 -0.546875 -0.203125 -0.765625q-0.203125 -0.21875 -0.609375 -0.21875q-0.421875 0 -0.84375 0.265625q-0.40625 0.265625 -0.96875 1.046875l0 4.84375q0.75 0 1.109375 0.34375q0.375 0.34375 0.375 0.859375q0 0.53125 -0.375 0.875q-0.359375 0.328125 -1.234375 0.328125l-2.171875 0q-0.859375 0 -1.234375 -0.328125q-0.375 -0.34375 -0.375 -0.875q0 -0.53125 0.375 -0.859375q0.359375 -0.34375 1.125 -0.34375l0 -5.828125q-0.765625 0 -1.125 -0.34375q-0.375 -0.34375 -0.375 -0.875q0 -0.515625 0.375 -0.84375q0.375 -0.34375 1.234375 -0.34375l2.296875 0zm20.261711 10.640625l0 -0.5625q-0.890625 0.484375 -1.984375 0.71875q-1.09375 0.25 -1.984375 0.25q-1.9375 0 -3.140625 -1.03125q-1.203125 -1.03125 -1.203125 -2.265625q0 -1.515625 1.53125 -2.8125q1.546875 -1.296875 4.265625 -1.296875q1.09375 0 2.515625 0.234375l0 -0.578125q0 -0.53125 -0.46875 -0.875q-0.453125 -0.34375 -1.75 -0.34375q-1.0625 0 -2.765625 0.421875q-0.640625 0.15625 -0.984375 0.15625q-0.484375 0 -0.828125 -0.34375q-0.328125 -0.34375 -0.328125 -0.890625q0 -0.296875 0.109375 -0.515625q0.125 -0.234375 0.328125 -0.359375q0.21875 -0.140625 0.890625 -0.328125q0.890625 -0.25 1.8125 -0.390625q0.9375 -0.140625 1.6875 -0.140625q2.234375 0 3.46875 0.96875q1.234375 0.953125 1.234375 2.640625l0 4.9375l0.40625 0q0.875 0 1.234375 0.34375q0.375 0.328125 0.375 0.859375q0 0.53125 -0.375 0.875q-0.359375 0.328125 -1.234375 0.328125l-2.8125 0zm0 -4.296875q-1.4375 -0.28125 -2.65625 -0.28125q-1.46875 0 -2.515625 0.703125q-0.65625 0.46875 -0.65625 0.9375q0 0.328125 0.3125 0.546875q0.59375 0.390625 1.609375 0.390625q0.859375 0 1.953125 -0.34375q1.109375 -0.34375 1.953125 -0.921875l0 -1.03125zm11.652344 -3.9375l0 4.8125q0 0.765625 0.3125 1.015625q0.5 0.390625 1.765625 0.390625q1.84375 0 3.390625 -0.78125q0.609375 -0.3125 0.9375 -0.3125q0.46875 0 0.8125 0.359375q0.359375 0.34375 0.359375 0.84375q0 0.46875 -0.375 0.8125q-0.578125 0.546875 -2.28125 1.015625q-1.6875 0.46875 -2.84375 0.46875q-2.234375 0 -3.359375 -0.96875q-1.125 -0.96875 -1.125 -2.375l0 -5.28125l-0.859375 0q-0.875 0 -1.25 -0.328125q-0.359375 -0.34375 -0.359375 -0.890625q0 -0.515625 0.359375 -0.84375q0.375 -0.34375 1.25 -0.34375l0.859375 0l0 -2.171875q0 -0.859375 0.328125 -1.234375q0.34375 -0.375 0.890625 -0.375q0.515625 0 0.84375 0.375q0.34375 0.375 0.34375 1.234375l0 2.171875l4.4375 0q0.875 0 1.234375 0.34375q0.375 0.328125 0.375 0.859375q0 0.53125 -0.375 0.875q-0.359375 0.328125 -1.234375 0.328125l-4.4375 0zm12.746094 5.828125l5.265625 0q0.4375 -0.34375 0.828125 -0.34375q0.546875 0 0.859375 0.359375q0.328125 0.359375 0.328125 1.234375l0 1.15625l-10.9375 0l0 -2.546875q6.484375 -5.359375 7.828125 -6.890625q0.6875 -0.78125 0.6875 -1.484375q0 -0.875 -0.765625 -1.546875q-0.765625 -0.6875 -2.046875 -0.6875q-1.296875 0 -2.140625 0.75q-0.453125 0.40625 -0.71875 1.1875q-0.171875 0.5 -0.453125 0.71875q-0.28125 0.203125 -0.703125 0.203125q-0.5 0 -0.859375 -0.34375q-0.359375 -0.359375 -0.359375 -0.828125q0 -0.703125 0.65625 -1.75q0.65625 -1.0625 1.890625 -1.6875q1.25 -0.640625 2.71875 -0.640625q2.28125 0 3.734375 1.375q1.453125 1.375 1.453125 3.328125q0 1.0 -0.421875 1.859375q-0.421875 0.84375 -2.0 2.34375q-1.234375 1.171875 -4.84375 4.234375z" fill-rule="nonzero"/><path fill="#000000" fill-opacity="0.0" d="m320.12073 489.32022l392.22046 0l0 53.039337l-392.22046 0z" fill-rule="evenodd"/><path fill="#434343" d="m339.70166 510.71957l0 0.671875q0.578125 -0.5625 1.046875 -0.78125q0.484375 -0.21875 1.109375 -0.21875q0.515625 0 1.03125 0.265625q0.515625 0.25 1.015625 0.765625q0.625 -0.515625 1.25 -0.765625q0.640625 -0.25 1.3125 -0.25q1.34375 0 2.171875 0.703125q1.09375 0.9375305 1.09375 2.4687805l0 5.375q0.75 0 1.109375 0.34375q0.375 0.34375 0.375 0.859375q0 0.53125 -0.375 0.875q-0.359375 0.328125 -1.21875 0.328125l-2.28125 0l0 -7.578125q0 -0.5625 -0.203125 -0.765625q-0.203125 -0.21875 -0.609375 -0.21875q-0.40625 0 -0.734375 0.21875q-0.4375 0.296875 -1.0625 1.09375l0 4.84375q0.75 0 1.109375 0.34375q0.375 0.34375 0.375 0.859375q0 0.53125 -0.375 0.875q-0.359375 0.328125 -1.21875 0.328125l-2.296875 0l0 -7.578125q0 -0.546875 -0.203125 -0.765625q-0.203125 -0.21875 -0.609375 -0.21875q-0.421875 0 -0.84375 0.265625q-0.40625 0.265625 -0.96875 1.046875l0 4.84375q0.75 0 1.109375 0.34375q0.375 0.34375 0.375 0.859375q0 0.53125 -0.375 0.875q-0.359375 0.328125 -1.234375 0.328125l-2.171875 0q-0.859375 0 -1.234375 -0.328125q-0.375 -0.34375 -0.375 -0.875q0 -0.53125 0.375 -0.859375q0.359375 -0.34375 1.125 -0.34375l0 -5.828125q-0.765625 0 -1.125 -0.34375q-0.375 -0.34375 -0.375 -0.8750305q0 -0.515625 0.375 -0.84375q0.375 -0.34375 1.234375 -0.34375l2.296875 0zm20.261719 10.6406555l0 -0.5625q-0.890625 0.484375 -1.984375 0.71875q-1.09375 0.25 -1.984375 0.25q-1.9375 0 -3.140625 -1.03125q-1.203125 -1.03125 -1.203125 -2.265625q0 -1.515625 1.53125 -2.8125q1.546875 -1.296875 4.265625 -1.296875q1.09375 0 2.515625 0.234375l0 -0.578125q0 -0.53125 -0.46875 -0.875q-0.453125 -0.34375 -1.75 -0.34375q-1.0625 0 -2.765625 0.421875q-0.640625 0.15625 -0.984375 0.15625q-0.484375 0 -0.828125 -0.34375q-0.328125 -0.34375 -0.328125 -0.890625q0 -0.29690552 0.109375 -0.5156555q0.125 -0.234375 0.328125 -0.359375q0.21875 -0.140625 0.890625 -0.328125q0.890625 -0.25 1.8125 -0.390625q0.9375 -0.140625 1.6875 -0.140625q2.234375 0 3.46875 0.96875q1.234375 0.9531555 1.234375 2.6406555l0 4.9375l0.40625 0q0.875 0 1.234375 0.34375q0.375 0.328125 0.375 0.859375q0 0.53125 -0.375 0.875q-0.359375 0.328125 -1.234375 0.328125l-2.8125 0zm0 -4.296875q-1.4375 -0.28125 -2.65625 -0.28125q-1.46875 0 -2.515625 0.703125q-0.65625 0.46875 -0.65625 0.9375q0 0.328125 0.3125 0.546875q0.59375 0.390625 1.609375 0.390625q0.859375 0 1.953125 -0.34375q1.109375 -0.34375 1.953125 -0.921875l0 -1.03125zm11.652344 -3.9375l0 4.8125q0 0.765625 0.3125 1.015625q0.5 0.390625 1.765625 0.390625q1.84375 0 3.390625 -0.78125q0.609375 -0.3125 0.9375 -0.3125q0.46875 0 0.8125 0.359375q0.359375 0.34375 0.359375 0.84375q0 0.46875 -0.375 0.8125q-0.578125 0.546875 -2.28125 1.015625q-1.6875 0.46875 -2.84375 0.46875q-2.234375 0 -3.359375 -0.96875q-1.125 -0.96875 -1.125 -2.375l0 -5.28125l-0.859375 0q-0.875 0 -1.25 -0.328125q-0.359375 -0.34375 -0.359375 -0.8906555q0 -0.515625 0.359375 -0.84375q0.375 -0.34375 1.25 -0.34375l0.859375 0l0 -2.171875q0 -0.859375 0.328125 -1.234375q0.34375 -0.375 0.890625 -0.375q0.515625 0 0.84375 0.375q0.34375 0.375 0.34375 1.234375l0 2.171875l4.4375 0q0.875 0 1.234375 0.34375q0.375 0.328125 0.375 0.859375q0 0.5312805 -0.375 0.8750305q-0.359375 0.328125 -1.234375 0.328125l-4.4375 0zm18.417969 0.203125q1.078125 0.734375 1.59375 1.6875q0.53125 0.953125 0.53125 2.140625q0 1.265625 -0.703125 2.359375q-0.6875 1.078125 -2.015625 1.640625q-1.328125 0.5625 -3.46875 0.5625q-2.78125 0 -4.1875 -0.875q-0.796875 -0.5 -0.796875 -1.171875q0 -0.515625 0.34375 -0.875q0.359375 -0.359375 0.84375 -0.359375q0.34375 0 0.703125 0.234375q0.515625 0.359375 0.96875 0.46875q0.703125 0.171875 1.9375 0.171875q2.09375 0 3.03125 -0.546875q0.9375 -0.546875 0.9375 -1.546875q0 -0.734375 -0.546875 -1.421875q-0.53125 -0.6875 -1.453125 -1.0625q-0.53125 -0.203125 -1.78125 -0.296875q-0.59375 -0.03125 -0.921875 -0.359375q-0.3125 -0.34375 -0.3125 -0.828125q0 -0.515625 0.34375 -0.859375q0.359375 -0.359375 0.890625 -0.359375q1.203125 0 1.28125 -0.015625q0.46875 -0.046905518 0.9375 -0.29690552q0.46875 -0.265625 0.75 -0.71875q0.296875 -0.453125 0.296875 -0.921875q0 -0.765625 -0.6875 -1.3125q-0.671875 -0.5625 -2.015625 -0.5625q-1.734375 0 -2.640625 1.0q-0.28125 0.296875 -0.4375 0.375q-0.25 0.125 -0.546875 0.125q-0.5 0 -0.859375 -0.34375q-0.34375 -0.359375 -0.34375 -0.875q0 -0.796875 1.078125 -1.5625q1.578125 -1.109375 3.921875 -1.109375q2.234375 0 3.578125 1.265625q1.34375 1.265625 1.34375 3.046875q0 0.921875 -0.40625 1.734375q-0.390625 0.7969055 -1.1875 1.4687805zm22.867188 1.1875l7.78125 4.3125q0.59375 0.328125 0.78125 0.59375q0.1875 0.25 0.1875 0.640625q0 0.515625 -0.359375 0.890625q-0.359375 0.359375 -0.84375 0.359375q-0.3125 0 -0.953125 -0.359375l-11.59375 -6.4375l11.59375 -6.4531555q0.640625 -0.328125 0.9375 -0.328125q0.5 0 0.859375 0.359375q0.359375 0.359375 0.359375 0.859375q0 0.40625 -0.1875 0.671875q-0.1875 0.25 -0.78125 0.578125l-7.78125 4.3125305zm21.949219 1.125l-10.03125 0l0 -2.1875l10.03125 0l0 2.1875zm27.523438 -4.4844055q0.421875 -0.421875 0.890625 -0.421875q0.515625 0 0.84375 0.375q0.328125 0.375 0.328125 1.2187805l0 1.546875q0 0.875 -0.328125 1.234375q-0.328125 0.359375 -0.875 0.359375q-0.484375 0 -0.828125 -0.28125q-0.25 -0.203125 -0.390625 -0.84375q-0.140625 -0.65625 -0.671875 -0.984375q-0.953125 -0.5625 -2.4375 -0.5625q-1.6875 0 -2.71875 1.0q-1.03125 1.0 -1.03125 2.515625q0 1.40625 0.984375 2.234375q0.984375 0.8125 3.28125 0.8125q1.5 0 2.4375 -0.3125q0.5625 -0.1875 1.0625 -0.640625q0.515625 -0.453125 0.921875 -0.453125q0.5 0 0.84375 0.375q0.359375 0.359375 0.359375 0.84375q0 0.796875 -1.078125 1.515625q-1.625 1.078125 -4.734375 1.078125q-2.8125 0 -4.359375 -1.171875q-2.109375 -1.5625 -2.109375 -4.265625q0 -2.5625 1.703125 -4.234375q1.71875 -1.6875305 4.46875 -1.6875305q1.0 0 1.84375 0.1875q0.859375 0.1875 1.59375 0.5625zm7.6210938 -5.0l0 5.390625q0.875 -0.578125 1.78125 -0.859375q0.921875 -0.28125 1.84375 -0.28125q2.5 0 4.234375 1.7187805q1.734375 1.71875 1.734375 4.15625q0 2.328125 -1.65625 3.90625q-1.65625 1.5625 -4.359375 1.5625q-0.96875 0 -1.859375 -0.25q-0.890625 -0.25 -1.71875 -0.734375l0 0.59375l-2.8125 0q-0.859375 0 -1.234375 -0.328125q-0.375 -0.34375 -0.375 -0.875q0 -0.53125 0.375 -0.859375q0.375 -0.34375 1.234375 -0.34375l0.40625 0l0 -10.3906555l-0.40625 0q-0.859375 0 -1.234375 -0.328125q-0.375 -0.34375 -0.375 -0.875q0 -0.53125 0.375 -0.859375q0.375 -0.34375 1.234375 -0.34375l2.8125 0zm7.1875 10.2031555q0 -1.5 -1.046875 -2.53125q-1.046875 -1.03125 -2.546875 -1.03125q-1.5 0 -2.546875 1.03125q-1.046875 1.03125 -1.046875 2.484375q0 1.328125 0.9375 2.1875q0.9375 0.84375 2.65625 0.84375q1.703125 0 2.640625 -0.84375q0.953125 -0.859375 0.953125 -2.140625zm11.105469 -10.2031555l0 2.546875l-2.859375 0l0 -2.546875l2.859375 0zm0.328125 4.5625l0 8.2344055l2.890625 0q0.859375 0 1.21875 0.34375q0.375 0.328125 0.375 0.859375q0 0.53125 -0.375 0.875q-0.359375 0.328125 -1.21875 0.328125l-8.171875 0q-0.875 0 -1.25 -0.328125q-0.359375 -0.34375 -0.359375 -0.875q0 -0.53125 0.359375 -0.859375q0.375 -0.34375 1.25 -0.34375l2.875 0l0 -5.828125l-1.921875 0q-0.859375 0 -1.234375 -0.328125q-0.375 -0.34375 -0.375 -0.8906555q0 -0.515625 0.359375 -0.84375q0.375 -0.34375 1.25 -0.34375l4.328125 0zm10.777344 0l0 0.8125q0.65625 -0.5625 1.453125 -0.84375q0.796875 -0.28125 1.71875 -0.28125q2.125 0 3.375 1.3125q0.984375 1.0625305 0.984375 2.7656555l0 4.46875q0.765625 0 1.125 0.34375q0.359375 0.328125 0.359375 0.859375q0 0.53125 -0.375 0.875q-0.359375 0.328125 -1.234375 0.328125l-2.15625 0q-0.875 0 -1.25 -0.328125q-0.359375 -0.34375 -0.359375 -0.875q0 -0.53125 0.359375 -0.859375q0.359375 -0.34375 1.125 -0.34375l0 -4.53125q0 -0.78125 -0.421875 -1.15625q-0.546875 -0.46875 -1.65625 -0.46875q-0.828125 0 -1.453125 0.328125q-0.625 0.328125 -1.59375 1.359375l0 4.46875q0.9375 0 1.203125 0.171875q0.578125 0.359375 0.578125 1.03125q0 0.53125 -0.375 0.875q-0.375 0.328125 -1.234375 0.328125l-2.734375 0q-0.859375 0 -1.234375 -0.328125q-0.375 -0.34375 -0.375 -0.875q0 -0.65625 0.5625 -1.03125q0.28125 -0.171875 1.21875 -0.171875l0 -5.828125q-0.765625 0 -1.140625 -0.34375q-0.359375 -0.34375 -0.359375 -0.8750305q0 -0.515625 0.375 -0.84375q0.375 -0.34375 1.234375 -0.34375l2.28125 0zm22.355469 -4.5625l0 12.7969055l0.40625 0q0.859375 0 1.234375 0.34375q0.375 0.328125 0.375 0.859375q0 0.53125 -0.375 0.875q-0.359375 0.328125 -1.234375 0.328125l-2.8125 0l0 -0.59375q-0.8125 0.484375 -1.71875 0.734375q-0.890625 0.25 -1.859375 0.25q-2.703125 0 -4.359375 -1.5625q-1.640625 -1.578125 -1.640625 -3.90625q0 -2.4375 1.734375 -4.15625q1.734375 -1.7187805 4.21875 -1.7187805q0.9375 0 1.84375 0.28125q0.90625 0.28125 1.78125 0.859375l0 -2.984375l-0.40625 0q-0.875 0 -1.25 -0.328125q-0.359375 -0.34375 -0.359375 -0.875q0 -0.53125 0.359375 -0.859375q0.375 -0.34375 1.25 -0.34375l2.8125 0zm-2.40625 10.2031555q0 -1.5 -1.046875 -2.53125q-1.03125 -1.03125 -2.546875 -1.03125q-1.5 0 -2.546875 1.03125q-1.046875 1.03125 -1.046875 2.484375q0 1.328125 0.9375 2.1875q0.9375 0.84375 2.65625 0.84375q1.703125 0 2.640625 -0.84375q0.953125 -0.859375 0.953125 -2.140625zm10.433594 -0.84375q0 -2.046875 0.671875 -4.1406555q0.515625 -1.546875 1.5625 -3.453125q0.765625 -1.359375 1.125 -1.65625q0.359375 -0.3125 0.8125 -0.3125q0.515625 0 0.859375 0.359375q0.359375 0.34375 0.359375 0.828125q0 0.34375 -0.28125 0.8125q-1.265625 2.078125 -1.84375 3.890625q-0.578125 1.8125305 -0.578125 3.6719055q0 1.875 0.578125 3.703125q0.578125 1.8125 1.84375 3.890625q0.28125 0.453125 0.28125 0.8125q0 0.484375 -0.359375 0.828125q-0.34375 0.359375 -0.859375 0.359375q-0.4375 0 -0.765625 -0.28125q-0.46875 -0.40625 -1.234375 -1.84375q-1.125 -2.078125 -1.53125 -3.421875q-0.640625 -2.0625 -0.640625 -4.046875zm11.558594 -4.7969055l0 0.671875q0.578125 -0.5625 1.046875 -0.78125q0.484375 -0.21875 1.109375 -0.21875q0.515625 0 1.03125 0.265625q0.515625 0.25 1.015625 0.765625q0.625 -0.515625 1.25 -0.765625q0.640625 -0.25 1.3125 -0.25q1.34375 0 2.171875 0.703125q1.09375 0.9375305 1.09375 2.4687805l0 5.375q0.75 0 1.109375 0.34375q0.375 0.34375 0.375 0.859375q0 0.53125 -0.375 0.875q-0.359375 0.328125 -1.21875 0.328125l-2.28125 0l0 -7.578125q0 -0.5625 -0.203125 -0.765625q-0.203125 -0.21875 -0.609375 -0.21875q-0.40625 0 -0.734375 0.21875q-0.4375 0.296875 -1.0625 1.09375l0 4.84375q0.75 0 1.109375 0.34375q0.375 0.34375 0.375 0.859375q0 0.53125 -0.375 0.875q-0.359375 0.328125 -1.21875 0.328125l-2.296875 0l0 -7.578125q0 -0.546875 -0.203125 -0.765625q-0.203125 -0.21875 -0.609375 -0.21875q-0.421875 0 -0.84375 0.265625q-0.40625 0.265625 -0.96875 1.046875l0 4.84375q0.75 0 1.109375 0.34375q0.375 0.34375 0.375 0.859375q0 0.53125 -0.375 0.875q-0.359375 0.328125 -1.234375 0.328125l-2.171875 0q-0.859375 0 -1.234375 -0.328125q-0.375 -0.34375 -0.375 -0.875q0 -0.53125 0.375 -0.859375q0.359375 -0.34375 1.125 -0.34375l0 -5.828125q-0.765625 0 -1.125 -0.34375q-0.375 -0.34375 -0.375 -0.8750305q0 -0.515625 0.375 -0.84375q0.375 -0.34375 1.234375 -0.34375l2.296875 0zm20.261719 10.6406555l0 -0.5625q-0.890625 0.484375 -1.984375 0.71875q-1.09375 0.25 -1.984375 0.25q-1.9375 0 -3.140625 -1.03125q-1.203125 -1.03125 -1.203125 -2.265625q0 -1.515625 1.53125 -2.8125q1.546875 -1.296875 4.265625 -1.296875q1.09375 0 2.515625 0.234375l0 -0.578125q0 -0.53125 -0.46875 -0.875q-0.453125 -0.34375 -1.75 -0.34375q-1.0625 0 -2.765625 0.421875q-0.640625 0.15625 -0.984375 0.15625q-0.484375 0 -0.828125 -0.34375q-0.328125 -0.34375 -0.328125 -0.890625q0 -0.29690552 0.109375 -0.5156555q0.125 -0.234375 0.328125 -0.359375q0.21875 -0.140625 0.890625 -0.328125q0.890625 -0.25 1.8125 -0.390625q0.9375 -0.140625 1.6875 -0.140625q2.234375 0 3.46875 0.96875q1.234375 0.9531555 1.234375 2.6406555l0 4.9375l0.40625 0q0.875 0 1.234375 0.34375q0.375 0.328125 0.375 0.859375q0 0.53125 -0.375 0.875q-0.359375 0.328125 -1.234375 0.328125l-2.8125 0zm0 -4.296875q-1.4375 -0.28125 -2.65625 -0.28125q-1.46875 0 -2.515625 0.703125q-0.65625 0.46875 -0.65625 0.9375q0 0.328125 0.3125 0.546875q0.59375 0.390625 1.609375 0.390625q0.859375 0 1.953125 -0.34375q1.109375 -0.34375 1.953125 -0.921875l0 -1.03125zm11.652344 -3.9375l0 4.8125q0 0.765625 0.3125 1.015625q0.5 0.390625 1.765625 0.390625q1.84375 0 3.390625 -0.78125q0.609375 -0.3125 0.9375 -0.3125q0.46875 0 0.8125 0.359375q0.359375 0.34375 0.359375 0.84375q0 0.46875 -0.375 0.8125q-0.578125 0.546875 -2.28125 1.015625q-1.6875 0.46875 -2.84375 0.46875q-2.234375 0 -3.359375 -0.96875q-1.125 -0.96875 -1.125 -2.375l0 -5.28125l-0.859375 0q-0.875 0 -1.25 -0.328125q-0.359375 -0.34375 -0.359375 -0.8906555q0 -0.515625 0.359375 -0.84375q0.375 -0.34375 1.25 -0.34375l0.859375 0l0 -2.171875q0 -0.859375 0.328125 -1.234375q0.34375 -0.375 0.890625 -0.375q0.515625 0 0.84375 0.375q0.34375 0.375 0.34375 1.234375l0 2.171875l4.4375 0q0.875 0 1.234375 0.34375q0.375 0.328125 0.375 0.859375q0 0.5312805 -0.375 0.8750305q-0.359375 0.328125 -1.234375 0.328125l-4.4375 0zm16.214844 -7.3125305l0 13.1406555l2.4375 0q0.859375 0 1.21875 0.34375q0.375 0.328125 0.375 0.859375q0 0.53125 -0.375 0.875q-0.359375 0.328125 -1.21875 0.328125l-7.265625 0q-0.859375 0 -1.234375 -0.328125q-0.359375 -0.34375 -0.359375 -0.875q0 -0.53125 0.359375 -0.859375q0.375 -0.34375 1.234375 -0.34375l2.4375 0l0 -10.0156555l-2.15625 0.5625q-0.515625 0.140625 -0.765625 0.140625q-0.453125 0 -0.796875 -0.359375q-0.328125 -0.375 -0.328125 -0.890625q0 -0.484375 0.234375 -0.75q0.25 -0.28125 1.046875 -0.5l5.15625 -1.328125zm12.621094 12.3125305l3.203125 0l-3.453125 6.515625q-0.3125 0.578125 -0.765625 0.578125q-0.296875 0 -0.515625 -0.203125q-0.21875 -0.203125 -0.21875 -0.4375q0 -0.1875 0.078125 -0.484375l1.671875 -5.96875zm25.664062 -7.4062805l0 0.671875q0.578125 -0.5625 1.046875 -0.78125q0.484375 -0.21875 1.109375 -0.21875q0.515625 0 1.03125 0.265625q0.515625 0.25 1.015625 0.765625q0.625 -0.515625 1.25 -0.765625q0.640625 -0.25 1.3125 -0.25q1.34375 0 2.171875 0.703125q1.09375 0.9375305 1.09375 2.4687805l0 5.375q0.75 0 1.109375 0.34375q0.375 0.34375 0.375 0.859375q0 0.53125 -0.375 0.875q-0.359375 0.328125 -1.21875 0.328125l-2.28125 0l0 -7.578125q0 -0.5625 -0.203125 -0.765625q-0.203125 -0.21875 -0.609375 -0.21875q-0.40625 0 -0.734375 0.21875q-0.4375 0.296875 -1.0625 1.09375l0 4.84375q0.75 0 1.109375 0.34375q0.375 0.34375 0.375 0.859375q0 0.53125 -0.375 0.875q-0.359375 0.328125 -1.21875 0.328125l-2.296875 0l0 -7.578125q0 -0.546875 -0.203125 -0.765625q-0.203125 -0.21875 -0.609375 -0.21875q-0.421875 0 -0.84375 0.265625q-0.40625 0.265625 -0.96875 1.046875l0 4.84375q0.75 0 1.109375 0.34375q0.375 0.34375 0.375 0.859375q0 0.53125 -0.375 0.875q-0.359375 0.328125 -1.234375 0.328125l-2.171875 0q-0.859375 0 -1.234375 -0.328125q-0.375 -0.34375 -0.375 -0.875q0 -0.53125 0.375 -0.859375q0.359375 -0.34375 1.125 -0.34375l0 -5.828125q-0.765625 0 -1.125 -0.34375q-0.375 -0.34375 -0.375 -0.8750305q0 -0.515625 0.375 -0.84375q0.375 -0.34375 1.234375 -0.34375l2.296875 0zm20.261719 10.6406555l0 -0.5625q-0.890625 0.484375 -1.984375 0.71875q-1.09375 0.25 -1.984375 0.25q-1.9375 0 -3.140625 -1.03125q-1.203125 -1.03125 -1.203125 -2.265625q0 -1.515625 1.53125 -2.8125q1.546875 -1.296875 4.265625 -1.296875q1.09375 0 2.515625 0.234375l0 -0.578125q0 -0.53125 -0.46875 -0.875q-0.453125 -0.34375 -1.75 -0.34375q-1.0625 0 -2.765625 0.421875q-0.640625 0.15625 -0.984375 0.15625q-0.484375 0 -0.828125 -0.34375q-0.328125 -0.34375 -0.328125 -0.890625q0 -0.29690552 0.109375 -0.5156555q0.125 -0.234375 0.328125 -0.359375q0.21875 -0.140625 0.890625 -0.328125q0.890625 -0.25 1.8125 -0.390625q0.9375 -0.140625 1.6875 -0.140625q2.234375 0 3.46875 0.96875q1.234375 0.9531555 1.234375 2.6406555l0 4.9375l0.40625 0q0.875 0 1.234375 0.34375q0.375 0.328125 0.375 0.859375q0 0.53125 -0.375 0.875q-0.359375 0.328125 -1.234375 0.328125l-2.8125 0zm0 -4.296875q-1.4375 -0.28125 -2.65625 -0.28125q-1.46875 0 -2.515625 0.703125q-0.65625 0.46875 -0.65625 0.9375q0 0.328125 0.3125 0.546875q0.59375 0.390625 1.609375 0.390625q0.859375 0 1.953125 -0.34375q1.109375 -0.34375 1.953125 -0.921875l0 -1.03125zm11.652344 -3.9375l0 4.8125q0 0.765625 0.3125 1.015625q0.5 0.390625 1.765625 0.390625q1.84375 0 3.390625 -0.78125q0.609375 -0.3125 0.9375 -0.3125q0.46875 0 0.8125 0.359375q0.359375 0.34375 0.359375 0.84375q0 0.46875 -0.375 0.8125q-0.578125 0.546875 -2.28125 1.015625q-1.6875 0.46875 -2.84375 0.46875q-2.234375 0 -3.359375 -0.96875q-1.125 -0.96875 -1.125 -2.375l0 -5.28125l-0.859375 0q-0.875 0 -1.25 -0.328125q-0.359375 -0.34375 -0.359375 -0.8906555q0 -0.515625 0.359375 -0.84375q0.375 -0.34375 1.25 -0.34375l0.859375 0l0 -2.171875q0 -0.859375 0.328125 -1.234375q0.34375 -0.375 0.890625 -0.375q0.515625 0 0.84375 0.375q0.34375 0.375 0.34375 1.234375l0 2.171875l4.4375 0q0.875 0 1.234375 0.34375q0.375 0.328125 0.375 0.859375q0 0.5312805 -0.375 0.8750305q-0.359375 0.328125 -1.234375 0.328125l-4.4375 0zm12.746094 5.828125l5.265625 0q0.4375 -0.34375 0.828125 -0.34375q0.546875 0 0.859375 0.359375q0.328125 0.359375 0.328125 1.234375l0 1.15625l-10.9375 0l0 -2.546875q6.484375 -5.359375 7.828125 -6.8906555q0.6875 -0.78125 0.6875 -1.484375q0 -0.875 -0.765625 -1.546875q-0.765625 -0.6875 -2.046875 -0.6875q-1.296875 0 -2.140625 0.75q-0.453125 0.40625 -0.71875 1.1875q-0.171875 0.5 -0.453125 0.71875q-0.28125 0.203125 -0.703125 0.203125q-0.5 0 -0.859375 -0.34375q-0.359375 -0.359375 -0.359375 -0.828125q0 -0.703125 0.65625 -1.75q0.65625 -1.0625 1.890625 -1.6875q1.25 -0.640625 2.71875 -0.640625q2.28125 0 3.734375 1.375q1.453125 1.375 1.453125 3.328125q0 1.0 -0.421875 1.8594055q-0.421875 0.84375 -2.0 2.34375q-1.234375 1.171875 -4.84375 4.234375zm17.683594 -3.4375q0 2.0625 -0.6875 4.171875q-0.5 1.546875 -1.5625 3.4375q-0.75 1.359375 -1.125 1.671875q-0.359375 0.3125 -0.796875 0.3125q-0.515625 0 -0.875 -0.359375q-0.34375 -0.34375 -0.34375 -0.828125q0 -0.359375 0.28125 -0.8125q1.265625 -2.078125 1.84375 -3.890625q0.578125 -1.828125 0.578125 -3.703125q0 -1.859375 -0.578125 -3.6719055q-0.578125 -1.8125 -1.84375 -3.890625q-0.28125 -0.46875 -0.28125 -0.8125q0 -0.484375 0.34375 -0.828125q0.359375 -0.359375 0.875 -0.359375q0.421875 0 0.75 0.28125q0.46875 0.390625 1.25 1.828125q1.109375 2.078125 1.515625 3.421875q0.65625 2.0625305 0.65625 4.0312805z" fill-rule="nonzero"/><path fill="#000000" fill-opacity="0.0" d="m213.80315 505.40683l100.220474 79.11813" fill-rule="evenodd"/><path stroke="#999999" stroke-width="2.0" stroke-linejoin="round" stroke-linecap="butt" d="m213.80315 505.40683l90.80174 71.68259" fill-rule="evenodd"/><path fill="#999999" stroke="#999999" stroke-width="2.0" stroke-linecap="butt" d="m302.55795 579.68225l9.170776 3.0310059l-5.076935 -8.216736z" fill-rule="evenodd"/><path fill="#000000" fill-opacity="0.0" d="m205.89764 688.7008l108.12598 -80.44098" fill-rule="evenodd"/><path stroke="#999999" stroke-width="2.0" stroke-linejoin="round" stroke-linecap="butt" d="m205.89764 688.7008l98.49814 -73.27826" fill-rule="evenodd"/><path fill="#999999" stroke="#999999" stroke-width="2.0" stroke-linecap="butt" d="m306.36758 618.073l5.310211 -8.067932l-9.253845 2.7670288z" fill-rule="evenodd"/><path fill="#000000" fill-opacity="0.0" d="m349.95056 443.17065l223.24408 0l0 53.039368l-223.24408 0z" fill-rule="evenodd"/><path fill="#434343" d="m382.342 472.73938l2.359375 0.234375q-0.890625 2.59375 -2.53125 3.859375q-1.625 1.25 -3.703125 1.25q-2.25 0 -3.65625 -1.453125q-1.390625 -1.46875 -1.390625 -4.078125q0 -2.265625 0.890625 -4.453125q0.90625 -2.1875 2.578125 -3.328125q1.671875 -1.140625 3.8125 -1.140625q2.234375 0 3.53125 1.265625q1.296875 1.25 1.296875 3.328125l-2.3125 0.15625q-0.015625 -1.328125 -0.765625 -2.0625q-0.75 -0.75 -1.96875 -0.75q-1.421875 0 -2.46875 0.90625q-1.03125 0.890625 -1.625 2.734375q-0.59375 1.828125 -0.59375 3.515625q0 1.765625 0.78125 2.65625q0.78125 0.875 1.9375 0.875q1.140625 0 2.1875 -0.859375q1.046875 -0.875 1.640625 -2.65625zm4.203125 -0.21875q0 -4.046875 2.390625 -6.703125q1.96875 -2.1875 5.15625 -2.1875q2.5 0 4.015625 1.5625q1.53125 1.5625 1.53125 4.21875q0 2.390625 -0.96875 4.4375q-0.953125 2.046875 -2.734375 3.140625q-1.765625 1.09375 -3.734375 1.09375q-1.609375 0 -2.9375 -0.6875q-1.328125 -0.6875 -2.03125 -1.953125q-0.6875 -1.265625 -0.6875 -2.921875zm2.359375 -0.234375q0 1.953125 0.9375 2.96875q0.9375 1.0 2.375 1.0q0.765625 0 1.5 -0.296875q0.75 -0.3125 1.375 -0.9375q0.640625 -0.625 1.09375 -1.421875q0.453125 -0.796875 0.71875 -1.71875q0.40625 -1.296875 0.40625 -2.484375q0 -1.875 -0.953125 -2.90625q-0.9375 -1.03125 -2.359375 -1.03125q-1.109375 0 -2.03125 0.53125q-0.90625 0.515625 -1.640625 1.53125q-0.734375 1.015625 -1.078125 2.375q-0.34375 1.34375 -0.34375 2.390625zm11.871826 5.484375l3.984375 -19.078125l2.359375 0l-3.984375 19.078125l-2.359375 0zm15.54715 -2.5q-2.5 2.8125 -5.09375 2.8125q-1.609375 0 -2.59375 -0.90625q-0.96875 -0.921875 -0.96875 -2.25q0 -0.875 0.4375 -3.0l1.671875 -7.984375l2.34375 0l-1.84375 8.84375q-0.234375 1.109375 -0.234375 1.71875q0 0.78125 0.46875 1.21875q0.484375 0.4375 1.40625 0.4375q0.984375 0 1.921875 -0.484375q0.953125 -0.484375 1.640625 -1.296875q0.6875 -0.828125 1.109375 -1.953125q0.28125 -0.703125 0.671875 -2.5l1.25 -5.984375l2.34375 0l-2.890625 13.828125l-2.171875 0l0.53125 -2.5zm5.371826 2.5l2.890625 -13.828125l2.359375 0l-0.484375 2.28125q1.3125 -1.46875 2.34375 -2.03125q1.03125 -0.5625 2.25 -0.5625q1.28125 0 2.140625 0.6875q0.875 0.6875 1.140625 1.90625q1.0625 -1.296875 2.21875 -1.9375q1.171875 -0.65625 2.46875 -0.65625q1.71875 0 2.578125 0.828125q0.875 0.8125 0.875 2.296875q0 0.640625 -0.296875 2.109375l-1.859375 8.90625l-2.359375 0l1.90625 -9.140625q0.25 -1.109375 0.25 -1.59375q0 -0.6875 -0.4375 -1.078125q-0.421875 -0.390625 -1.203125 -0.390625q-1.0625 0 -2.15625 0.640625q-1.09375 0.640625 -1.703125 1.6875q-0.59375 1.03125 -1.046875 3.171875l-1.40625 6.703125l-2.359375 0l1.953125 -9.328125q0.203125 -0.953125 0.203125 -1.359375q0 -0.671875 -0.421875 -1.09375q-0.421875 -0.421875 -1.09375 -0.421875q-1.015625 0 -2.109375 0.640625q-1.09375 0.640625 -1.796875 1.78125q-0.6875 1.140625 -1.125 3.25l-1.359375 6.53125l-2.359375 0zm22.22049 0l2.890625 -13.828125l2.125 0l-0.5 2.40625q1.390625 -1.40625 2.59375 -2.0625q1.21875 -0.65625 2.484375 -0.65625q1.671875 0 2.625 0.921875q0.953125 0.90625 0.953125 2.421875q0 0.78125 -0.328125 2.421875l-1.765625 8.375l-2.34375 0l1.828125 -8.765625q0.28125 -1.265625 0.28125 -1.875q0 -0.703125 -0.484375 -1.125q-0.46875 -0.4375 -1.375 -0.4375q-1.8125 0 -3.21875 1.3125q-1.40625 1.296875 -2.078125 4.453125l-1.34375 6.4375l-2.34375 0zm22.230896 0l3.984375 -19.078125l2.34375 0l-1.40625 6.8125q1.109375 -1.03125 2.015625 -1.453125q0.921875 -0.421875 1.90625 -0.421875q1.9375 0 3.234375 1.453125q1.296875 1.4375 1.296875 4.203125q0 1.828125 -0.53125 3.359375q-0.515625 1.515625 -1.28125 2.5625q-0.765625 1.03125 -1.59375 1.65625q-0.8125 0.609375 -1.671875 0.90625q-0.859375 0.3125 -1.65625 0.3125q-1.359375 0 -2.40625 -0.71875q-1.03125 -0.71875 -1.625 -2.203125l-0.546875 2.609375l-2.0625 0zm3.484375 -5.671875l-0.015625 0.4375q0 1.765625 0.84375 2.703125q0.84375 0.921875 2.109375 0.921875q1.234375 0 2.265625 -0.859375q1.046875 -0.875 1.703125 -2.703125q0.671875 -1.84375 0.671875 -3.390625q0 -1.75 -0.84375 -2.703125q-0.84375 -0.96875 -2.078125 -0.96875q-1.28125 0 -2.34375 0.984375q-1.0625 0.984375 -1.78125 3.03125q-0.53125 1.515625 -0.53125 2.546875zm14.684296 -10.734375l0.5625 -2.671875l2.328125 0l-0.546875 2.671875l-2.34375 0zm-3.4375 16.40625l2.890625 -13.828125l2.359375 0l-2.890625 13.828125l-2.359375 0zm6.01593 0l2.890625 -13.828125l2.125 0l-0.5 2.40625q1.390625 -1.40625 2.59375 -2.0625q1.21875 -0.65625 2.484375 -0.65625q1.671875 0 2.625 0.921875q0.953125 0.90625 0.953125 2.421875q0 0.78125 -0.328125 2.421875l-1.765625 8.375l-2.34375 0l1.828125 -8.765625q0.28125 -1.265625 0.28125 -1.875q0 -0.703125 -0.484375 -1.125q-0.46875 -0.4375 -1.375 -0.4375q-1.8125 0 -3.21875 1.3125q-1.40625 1.296875 -2.078125 4.453125l-1.34375 6.4375l-2.34375 0zm24.13742 -2.0q-2.015625 2.3125 -4.21875 2.3125q-1.96875 0 -3.28125 -1.453125q-1.296875 -1.453125 -1.296875 -4.203125q0 -2.53125 1.03125 -4.609375q1.03125 -2.09375 2.59375 -3.140625q1.5625 -1.046875 3.109375 -1.046875q2.578125 0 3.9062805 2.484375l1.546875 -7.421875l2.34375 0l-3.96875 19.078125l-2.1875305 0l0.421875 -2.0zm-6.453125 -3.796875q0 1.453125 0.28125 2.28125q0.296875 0.828125 0.984375 1.390625q0.6875 0.546875 1.65625 0.546875q1.59375 0 2.890625 -1.65625q1.7500305 -2.21875 1.7500305 -5.46875q0 -1.640625 -0.8594055 -2.5625q-0.859375 -0.9375 -2.15625 -0.9375q-0.859375 0 -1.5625 0.390625q-0.6875 0.375 -1.375 1.28125q-0.671875 0.90625 -1.140625 2.296875q-0.46875 1.390625 -0.46875 2.4375zm15.309357 -10.609375l0.5625 -2.671875l2.328125 0l-0.546875 2.671875l-2.34375 0zm-3.4375 16.40625l2.890625 -13.828125l2.359375 0l-2.890625 13.828125l-2.359375 0zm6.015869 0l2.890625 -13.828125l2.125 0l-0.5 2.40625q1.390625 -1.40625 2.59375 -2.0625q1.21875 -0.65625 2.484375 -0.65625q1.671875 0 2.625 0.921875q0.953125 0.90625 0.953125 2.421875q0 0.78125 -0.328125 2.421875l-1.765625 8.375l-2.34375 0l1.828125 -8.765625q0.28125 -1.265625 0.28125 -1.875q0 -0.703125 -0.484375 -1.125q-0.46875 -0.4375 -1.375 -0.4375q-1.8125 0 -3.21875 1.3125q-1.40625 1.296875 -2.078125 4.453125l-1.34375 6.4375l-2.34375 0zm14.684326 1.25l2.390625 0.21875q-0.03125 0.8125 0.1875 1.203125q0.21875 0.40625 0.703125 0.640625q0.640625 0.28125 1.65625 0.28125q2.140625 0 3.078125 -1.109375q0.609375 -0.734375 1.125 -3.21875l0.234375 -1.125q-1.828125 1.859375 -3.90625 1.859375q-2.09375 0 -3.515625 -1.53125q-1.40625 -1.546875 -1.40625 -4.375q0 -2.328125 1.109375 -4.28125q1.125 -1.953125 2.65625 -2.953125q1.53125 -1.0 3.15625 -1.0q2.734375 0 4.203125 2.578125l0.46875 -2.265625l2.15625 0l-2.78125 13.34375q-0.453125 2.203125 -1.203125 3.421875q-0.734375 1.234375 -2.0625 1.90625q-1.328125 0.6875 -3.046875 0.6875q-1.671875 0 -2.875 -0.4375q-1.203125 -0.421875 -1.796875 -1.25q-0.59375 -0.828125 -0.59375 -1.890625q0 -0.328125 0.0625 -0.703125zm2.953125 -7.375q0 1.421875 0.265625 2.140625q0.390625 1.0 1.109375 1.53125q0.734375 0.53125 1.609375 0.53125q1.15625 0 2.296875 -0.8125q1.15625 -0.8125 1.859375 -2.515625q0.71875 -1.71875 0.71875 -3.265625q0 -1.703125 -0.953125 -2.703125q-0.9375 -1.015625 -2.328125 -1.015625q-0.859375 0 -1.671875 0.46875q-0.796875 0.453125 -1.5 1.40625q-0.703125 0.9375 -1.0625 2.25q-0.34375 1.3125 -0.34375 1.984375z" fill-rule="nonzero"/></g></svg>