<svg version="1.1" viewBox="0.0 0.0 925.7139107611548 527.4724409448819" fill="none" stroke="none" stroke-linecap="square" stroke-miterlimit="10" xmlns:xlink="http://www.w3.org/1999/xlink" xmlns="http://www.w3.org/2000/svg"><clipPath id="p.0"><path d="m0 0l925.7139 0l0 527.4724l-925.7139 0l0 -527.4724z" clip-rule="nonzero"/></clipPath><g clip-path="url(#p.0)"><path fill="#000000" fill-opacity="0.0" d="m0 0l925.7139 0l0 527.4724l-925.7139 0z" fill-rule="evenodd"/><path fill="#000000" fill-opacity="0.0" d="m40.147358 321.75708l0 0c0 -2.9821777 2.41753 -5.399719 5.399708 -5.399719l185.64154 0c1.4320831 0 2.8055267 0.5689087 3.818161 1.581543c1.0126495 1.0126648 1.581543 2.386078 1.581543 3.8181763l0 73.452545c0 2.9821777 -2.4175262 5.399719 -5.399704 5.399719l-185.64154 0c-2.9821777 0 -5.399708 -2.4175415 -5.399708 -5.399719z" fill-rule="evenodd"/><path stroke="#fb6524" stroke-width="3.0" stroke-linejoin="round" stroke-linecap="butt" stroke-dasharray="12.0,9.0" d="m40.147358 321.75708l0 0c0 -2.9821777 2.41753 -5.399719 5.399708 -5.399719l185.64154 0c1.4320831 0 2.8055267 0.5689087 3.818161 1.581543c1.0126495 1.0126648 1.581543 2.386078 1.581543 3.8181763l0 73.452545c0 2.9821777 -2.4175262 5.399719 -5.399704 5.399719l-185.64154 0c-2.9821777 0 -5.399708 -2.4175415 -5.399708 -5.399719z" fill-rule="evenodd"/><path fill="#000000" fill-opacity="0.0" d="m434.6723 14.142483l93.95276 0l0 61.007877l-93.95276 0z" fill-rule="evenodd"/><path fill="#434343" d="m462.5936 34.469357l0 18.484375l4.15625 0q1.25 0 1.78125 0.484375q0.53125 0.484375 0.53125 1.265625q0 0.75 -0.53125 1.234375q-0.53125 0.484375 -1.78125 0.484375l-11.796875 0q-1.25 0 -1.78125 -0.484375q-0.53125 -0.484375 -0.53125 -1.265625q0 -0.75 0.53125 -1.234375q0.53125 -0.484375 1.78125 -0.484375l4.171875 0l0 -15.015625l-2.796875 0q-1.234375 0 -1.78125 -0.46875q-0.546875 -0.484375 -0.546875 -1.265625q0 -0.765625 0.53125 -1.25q0.546875 -0.484375 1.796875 -0.484375l6.265625 0zm20.29712 0l0 3.671875l-4.125 0l0 -3.671875l4.125 0zm0.46875 6.59375l0 11.890625l4.171875 0q1.25 0 1.78125 0.484375q0.53125 0.484375 0.53125 1.265625q0 0.75 -0.53125 1.234375q-0.53125 0.484375 -1.78125 0.484375l-11.796875 0q-1.25 0 -1.78125 -0.484375q-0.53125 -0.484375 -0.53125 -1.265625q0 -0.75 0.53125 -1.234375q0.53125 -0.484375 1.78125 -0.484375l4.15625 0l0 -8.421875l-2.78125 0q-1.234375 0 -1.78125 -0.484375q-0.546875 -0.484375 -0.546875 -1.265625q0 -0.765625 0.53125 -1.234375q0.546875 -0.484375 1.796875 -0.484375l6.25 0zm22.8284 4.0625q-0.84375 -0.53125 -1.78125 -0.796875q-0.921875 -0.265625 -1.9375 -0.265625q-2.015625 0 -3.203125 0.671875q-0.515625 0.28125 -0.515625 0.625q0 0.390625 0.703125 0.75q0.546875 0.28125 2.421875 0.53125q3.453125 0.46875 4.8125 0.953125q1.78125 0.625 2.734375 1.859375q0.96875 1.234375 0.96875 2.609375q0 1.859375 -1.640625 3.109375q-2.359375 1.8125 -6.109375 1.8125q-1.5 0 -2.78125 -0.265625q-1.28125 -0.265625 -2.34375 -0.765625q-0.25 0.21875 -0.546875 0.34375q-0.28125 0.109375 -0.59375 0.109375q-0.8125 0 -1.296875 -0.53125q-0.46875 -0.53125 -0.46875 -1.78125l0 -1.171875q0 -1.25 0.46875 -1.78125q0.484375 -0.546875 1.265625 -0.546875q0.625 0 1.046875 0.359375q0.421875 0.34375 0.65625 1.1875q0.796875 0.671875 1.90625 1.03125q1.125 0.34375 2.578125 0.34375q2.390625 0 3.71875 -0.75q0.625 -0.375 0.625 -0.78125q0 -0.671875 -0.90625 -1.109375q-0.890625 -0.4375 -3.703125 -0.75q-4.171875 -0.4375 -5.578125 -1.6875q-1.40625 -1.234375 -1.40625 -3.046875q0 -1.859375 1.578125 -3.09375q2.125 -1.703125 5.578125 -1.703125q1.203125 0 2.3125 0.234375q1.109375 0.234375 2.125 0.703125q0.3125 -0.234375 0.59375 -0.34375q0.28125 -0.125 0.515625 -0.125q0.71875 0 1.1875 0.53125q0.46875 0.53125 0.46875 1.78125l0 0.84375q0 1.140625 -0.265625 1.546875q-0.546875 0.78125 -1.46875 0.78125q-0.625 0 -1.109375 -0.390625q-0.46875 -0.390625 -0.609375 -1.03125z" fill-rule="nonzero"/><path stroke="#434343" stroke-width="1.0" stroke-linecap="butt" d="m164.66324 99.06572l0 54.698166" fill-rule="nonzero"/><path stroke="#434343" stroke-width="1.0" stroke-linecap="butt" d="m221.10155 99.06572l0 54.698166" fill-rule="nonzero"/><path stroke="#434343" stroke-width="1.0" stroke-linecap="butt" d="m277.5399 99.06572l0 54.698166" fill-rule="nonzero"/><path stroke="#434343" stroke-width="1.0" stroke-linecap="butt" d="m333.9782 99.06572l0 54.698166" fill-rule="nonzero"/><path stroke="#434343" stroke-width="1.0" stroke-linecap="butt" d="m164.16455 99.56441l170.31235 0" fill-rule="nonzero"/><path stroke="#434343" stroke-width="1.0" stroke-linecap="butt" d="m164.16455 153.2652l170.31235 0" fill-rule="nonzero"/><path fill="#000000" d="m195.40742 136.0148l-2.34375 0l0 -14.921875q-0.859375 0.796875 -2.234375 1.609375q-1.359375 0.796875 -2.453125 1.203125l0 -2.265625q1.96875 -0.921875 3.4375 -2.234375q1.46875 -1.3125 2.078125 -2.546875l1.515625 0l0 19.15625z" fill-rule="nonzero"/><path fill="#000000" d="m255.33012 133.7648l0 2.25l-12.609375 0q-0.03125 -0.84375 0.265625 -1.625q0.484375 -1.296875 1.546875 -2.546875q1.0625 -1.25 3.0625 -2.875q3.109375 -2.5625 4.203125 -4.046875q1.09375 -1.5 1.09375 -2.8125q0 -1.40625 -1.0 -2.359375q-0.984375 -0.953125 -2.59375 -0.953125q-1.6875 0 -2.703125 1.015625q-1.015625 1.015625 -1.03125 2.8125l-2.40625 -0.25q0.25 -2.6875 1.859375 -4.09375q1.609375 -1.421875 4.328125 -1.421875q2.75 0 4.34375 1.53125q1.609375 1.515625 1.609375 3.765625q0 1.140625 -0.46875 2.25q-0.46875 1.109375 -1.5625 2.328125q-1.078125 1.21875 -3.609375 3.359375q-2.09375 1.765625 -2.703125 2.40625q-0.59375 0.625 -0.984375 1.265625l9.359375 0z" fill-rule="nonzero"/><path fill="#000000" d="m299.47156 130.98355l2.34375 -0.3125q0.390625 1.984375 1.359375 2.875q0.984375 0.875 2.375 0.875q1.640625 0 2.78125 -1.140625q1.140625 -1.15625 1.140625 -2.84375q0 -1.625 -1.0625 -2.671875q-1.046875 -1.046875 -2.671875 -1.046875q-0.65625 0 -1.65625 0.265625l0.265625 -2.0625q0.234375 0.03125 0.375 0.03125q1.5 0 2.6875 -0.78125q1.203125 -0.78125 1.203125 -2.40625q0 -1.296875 -0.875 -2.140625q-0.859375 -0.84375 -2.25 -0.84375q-1.359375 0 -2.28125 0.859375q-0.90625 0.859375 -1.15625 2.578125l-2.34375 -0.421875q0.421875 -2.34375 1.9375 -3.640625q1.53125 -1.296875 3.796875 -1.296875q1.5625 0 2.875 0.671875q1.3125 0.671875 2.0 1.828125q0.703125 1.15625 0.703125 2.453125q0 1.234375 -0.671875 2.25q-0.65625 1.015625 -1.953125 1.625q1.6875 0.390625 2.625 1.625q0.9375 1.21875 0.9375 3.0625q0 2.5 -1.828125 4.25q-1.8125 1.734375 -4.59375 1.734375q-2.515625 0 -4.171875 -1.5q-1.65625 -1.5 -1.890625 -3.875z" fill-rule="nonzero"/><path stroke="#434343" stroke-width="1.0" stroke-linecap="butt" d="m396.82092 99.06572l0 54.698166" fill-rule="nonzero"/><path stroke="#434343" stroke-width="1.0" stroke-linecap="butt" d="m453.25925 99.06572l0 54.698166" fill-rule="nonzero"/><path stroke="#434343" stroke-width="1.0" stroke-linecap="butt" d="m509.69757 99.06572l0 54.698166" fill-rule="nonzero"/><path stroke="#434343" stroke-width="1.0" stroke-linecap="butt" d="m566.13586 99.06572l0 54.698166" fill-rule="nonzero"/><path stroke="#434343" stroke-width="1.0" stroke-linecap="butt" d="m396.32224 99.56441l170.31235 0" fill-rule="nonzero"/><path stroke="#434343" stroke-width="1.0" stroke-linecap="butt" d="m396.32224 153.2652l170.31235 0" fill-rule="nonzero"/><path fill="#000000" d="m426.23697 136.0148l0 -4.5625l-8.265625 0l0 -2.15625l8.703125 -12.359375l1.90625 0l0 12.359375l2.5781555 0l0 2.15625l-2.5781555 0l0 4.5625l-2.34375 0zm0 -6.71875l0 -8.59375l-5.96875 8.59375l5.96875 0z" fill-rule="nonzero"/><path fill="#000000" d="m475.1753 131.0148l2.453125 -0.203125q0.28125 1.796875 1.265625 2.703125q1.0 0.90625 2.40625 0.90625q1.6875 0 2.859375 -1.28125q1.171875 -1.28125 1.171875 -3.390625q0 -2.0 -1.125 -3.15625q-1.125 -1.15625 -2.9375 -1.15625q-1.140625 0 -2.046875 0.515625q-0.90625 0.515625 -1.4375 1.328125l-2.203125 -0.28125l1.859375 -9.8125l9.484375 0l0 2.25l-7.609375 0l-1.03125 5.125q1.71875 -1.203125 3.609375 -1.203125q2.5 0 4.203125 1.734375q1.71875 1.734375 1.71875 4.453125q0 2.59375 -1.5 4.484375q-1.84375 2.3125 -5.015625 2.3125q-2.59375 0 -4.25 -1.453125q-1.640625 -1.46875 -1.875 -3.875z" fill-rule="nonzero"/><path fill="#000000" d="m543.7699 121.60855l-2.328125 0.1875q-0.3125 -1.390625 -0.890625 -2.015625q-0.953125 -1.0 -2.34375 -1.0q-1.109375 0 -1.96875 0.625q-1.09375 0.8125 -1.734375 2.359375q-0.640625 1.546875 -0.671875 4.40625q0.84375 -1.28125 2.0625 -1.90625q1.234375 -0.625 2.578125 -0.625q2.34375 0 3.984375 1.734375q1.640625 1.71875 1.640625 4.4375q0 1.796875 -0.78125 3.34375q-0.765625 1.546875 -2.125 2.375q-1.34375 0.8125 -3.0625 0.8125q-2.921875 0 -4.78125 -2.15625q-1.84375 -2.15625 -1.84375 -7.09375q0 -5.53125 2.046875 -8.046875q1.78125 -2.1875 4.796875 -2.1875q2.25 0 3.6875 1.265625q1.453125 1.25 1.734375 3.484375zm-9.5625 8.21875q0 1.21875 0.5 2.328125q0.515625 1.09375 1.4375 1.6875q0.9375 0.578125 1.953125 0.578125q1.484375 0 2.546875 -1.203125q1.0625 -1.203125 1.0625 -3.25q0 -1.984375 -1.0625 -3.125q-1.046875 -1.140625 -2.640625 -1.140625q-1.59375 0 -2.703125 1.140625q-1.09375 1.140625 -1.09375 2.984375z" fill-rule="nonzero"/><path stroke="#434343" stroke-width="1.0" stroke-linecap="butt" d="m628.4004 99.06572l0 54.698166" fill-rule="nonzero"/><path stroke="#434343" stroke-width="1.0" stroke-linecap="butt" d="m684.83875 99.06572l0 54.698166" fill-rule="nonzero"/><path stroke="#434343" stroke-width="1.0" stroke-linecap="butt" d="m741.27704 99.06572l0 54.698166" fill-rule="nonzero"/><path stroke="#434343" stroke-width="1.0" stroke-linecap="butt" d="m797.7154 99.06572l0 54.698166" fill-rule="nonzero"/><path stroke="#434343" stroke-width="1.0" stroke-linecap="butt" d="m627.90173 99.56441l170.31232 0" fill-rule="nonzero"/><path stroke="#434343" stroke-width="1.0" stroke-linecap="butt" d="m627.90173 153.2652l170.31232 0" fill-rule="nonzero"/><path fill="#000000" d="m650.4727 119.436676l0 -2.25l12.34375 0l0 1.8125q-1.8125 1.9375 -3.609375 5.15625q-1.78125 3.21875 -2.765625 6.609375q-0.703125 2.40625 -0.890625 5.25l-2.40625 0q0.03125 -2.25 0.875 -5.4375q0.84375 -3.1875 2.421875 -6.140625q1.59375 -2.96875 3.375 -5.0l-9.34375 0z" fill-rule="nonzero"/><path fill="#000000" d="m710.3642 125.67105q-1.46875 -0.53125 -2.171875 -1.515625q-0.703125 -1.0 -0.703125 -2.375q0 -2.09375 1.5 -3.5q1.5 -1.421875 3.984375 -1.421875q2.5 0 4.015625 1.453125q1.53125 1.453125 1.53125 3.53125q0 1.328125 -0.703125 2.3125q-0.6875 0.984375 -2.109375 1.515625q1.75 0.5625 2.671875 1.84375q0.921875 1.28125 0.921875 3.046875q0 2.453125 -1.734375 4.125q-1.734375 1.65625 -4.5625 1.65625q-2.8125 0 -4.546875 -1.671875q-1.734375 -1.671875 -1.734375 -4.171875q0 -1.859375 0.9375 -3.109375q0.953125 -1.265625 2.703125 -1.71875zm-0.46875 -3.96875q0 1.34375 0.859375 2.203125q0.875 0.859375 2.265625 0.859375q1.359375 0 2.21875 -0.84375q0.875 -0.859375 0.875 -2.09375q0 -1.28125 -0.890625 -2.15625q-0.890625 -0.890625 -2.21875 -0.890625q-1.34375 0 -2.234375 0.859375q-0.875 0.859375 -0.875 2.0625zm-0.765625 8.8125q0 1.0 0.46875 1.9375q0.484375 0.9375 1.421875 1.453125q0.9375 0.515625 2.015625 0.515625q1.6875 0 2.78125 -1.078125q1.09375 -1.09375 1.09375 -2.75q0 -1.703125 -1.140625 -2.796875q-1.125 -1.109375 -2.8125 -1.109375q-1.65625 0 -2.75 1.09375q-1.078125 1.09375 -1.078125 2.734375z" fill-rule="nonzero"/><path fill="#000000" d="m763.53687 131.60855l2.25 -0.21875q0.296875 1.59375 1.09375 2.3125q0.8125 0.71875 2.078125 0.71875q1.078125 0 1.890625 -0.5q0.8125 -0.5 1.328125 -1.328125q0.53125 -0.828125 0.875 -2.21875q0.359375 -1.40625 0.359375 -2.875q0 -0.15625 -0.015625 -0.46875q-0.703125 1.125 -1.921875 1.828125q-1.21875 0.6875 -2.640625 0.6875q-2.359375 0 -4.0 -1.71875q-1.640625 -1.71875 -1.640625 -4.53125q0 -2.90625 1.703125 -4.671875q1.71875 -1.765625 4.296875 -1.765625q1.859375 0 3.390625 1.0q1.546875 1.0 2.34375 2.859375q0.8125 1.859375 0.8125 5.359375q0 3.65625 -0.796875 5.828125q-0.796875 2.171875 -2.375 3.3125q-1.5625 1.125 -3.671875 1.125q-2.234375 0 -3.65625 -1.234375q-1.40625 -1.25 -1.703125 -3.5zm9.59375 -8.421875q0 -2.015625 -1.078125 -3.203125q-1.0625 -1.1875 -2.578125 -1.1875q-1.5625 0 -2.71875 1.28125q-1.15625 1.265625 -1.15625 3.296875q0 1.828125 1.09375 2.96875q1.109375 1.140625 2.71875 1.140625q1.625 0 2.671875 -1.140625q1.046875 -1.140625 1.046875 -3.15625z" fill-rule="nonzero"/><path fill="#000000" fill-opacity="0.0" d="m152.14735 89.75708l0 0c0 -2.9821777 2.4175415 -5.399704 5.399704 -5.399704l185.64154 0c1.4320984 0 2.8055115 0.56889343 3.8181763 1.5815353c1.0126343 1.0126419 1.5815125 2.386078 1.5815125 3.8181686l0 73.45256c0 2.9821625 -2.417511 5.399704 -5.3996887 5.399704l-185.64154 0c-2.9821625 0 -5.399704 -2.4175415 -5.399704 -5.399704z" fill-rule="evenodd"/><path stroke="#fb6524" stroke-width="3.0" stroke-linejoin="round" stroke-linecap="butt" stroke-dasharray="12.0,9.0" d="m152.14735 89.75708l0 0c0 -2.9821777 2.4175415 -5.399704 5.399704 -5.399704l185.64154 0c1.4320984 0 2.8055115 0.56889343 3.8181763 1.5815353c1.0126343 1.0126419 1.5815125 2.386078 1.5815125 3.8181686l0 73.45256c0 2.9821625 -2.417511 5.399704 -5.3996887 5.399704l-185.64154 0c-2.9821625 0 -5.399704 -2.4175415 -5.399704 -5.399704z" fill-rule="evenodd"/><path fill="#000000" fill-opacity="0.0" d="m383.25858 89.75708l0 0c0 -2.9821777 2.4175415 -5.399704 5.399719 -5.399704l185.64151 0c1.4320679 0 2.805542 0.56889343 3.8181763 1.5815353c1.0126343 1.0126419 1.581543 2.386078 1.581543 3.8181686l0 73.45256c0 2.9821625 -2.4175415 5.399704 -5.399719 5.399704l-185.64151 0c-2.9821777 0 -5.399719 -2.4175415 -5.399719 -5.399704z" fill-rule="evenodd"/><path stroke="#ff9900" stroke-width="3.0" stroke-linejoin="round" stroke-linecap="butt" stroke-dasharray="12.0,9.0" d="m383.25858 89.75708l0 0c0 -2.9821777 2.4175415 -5.399704 5.399719 -5.399704l185.64151 0c1.4320679 0 2.805542 0.56889343 3.8181763 1.5815353c1.0126343 1.0126419 1.581543 2.386078 1.581543 3.8181686l0 73.45256c0 2.9821625 -2.4175415 5.399704 -5.399719 5.399704l-185.64151 0c-2.9821777 0 -5.399719 -2.4175415 -5.399719 -5.399704z" fill-rule="evenodd"/><path fill="#000000" fill-opacity="0.0" d="m614.3698 89.75708l0 0c0 -2.9821777 2.4174805 -5.399704 5.399658 -5.399704l185.64154 0c1.4321289 0 2.805542 0.56889343 3.8181763 1.5815353c1.0126343 1.0126419 1.581543 2.386078 1.581543 3.8181686l0 73.45256c0 2.9821625 -2.4175415 5.399704 -5.399719 5.399704l-185.64154 0c-2.9821777 0 -5.399658 -2.4175415 -5.399658 -5.399704z" fill-rule="evenodd"/><path stroke="#3c78d8" stroke-width="3.0" stroke-linejoin="round" stroke-linecap="butt" stroke-dasharray="12.0,9.0" d="m614.3698 89.75708l0 0c0 -2.9821777 2.4174805 -5.399704 5.399658 -5.399704l185.64154 0c1.4321289 0 2.805542 0.56889343 3.8181763 1.5815353c1.0126343 1.0126419 1.581543 2.386078 1.581543 3.8181686l0 73.45256c0 2.9821625 -2.4175415 5.399704 -5.399719 5.399704l-185.64154 0c-2.9821777 0 -5.399658 -2.4175415 -5.399658 -5.399704z" fill-rule="evenodd"/><path fill="#000000" fill-opacity="0.0" d="m348.5883 126.48336l34.677185 0" fill-rule="evenodd"/><path stroke="#434343" stroke-width="3.0" stroke-linejoin="round" stroke-linecap="butt" stroke-dasharray="12.0,9.0" d="m348.5883 126.48336l34.677185 0" fill-rule="evenodd"/><path fill="#000000" fill-opacity="0.0" d="m579.6995 126.48336l34.677185 0" fill-rule="evenodd"/><path stroke="#434343" stroke-width="3.0" stroke-linejoin="round" stroke-linecap="butt" stroke-dasharray="12.0,9.0" d="m579.6995 126.48336l34.677185 0" fill-rule="evenodd"/><path fill="#000000" fill-opacity="0.0" d="m33.029247 239.98763l210.67715 0l0 61.00789l-210.67715 0z" fill-rule="evenodd"/><path fill="#434343" d="m88.11705 260.3145l0 18.484375l4.15625 0q1.25 0 1.78125 0.484375q0.53125 0.484375 0.53125 1.265625q0 0.75 -0.53125 1.234375q-0.53125 0.484375 -1.78125 0.484375l-11.796875 0q-1.25 0 -1.78125 -0.484375q-0.53125 -0.484375 -0.53125 -1.265625q0 -0.75 0.53125 -1.234375q0.53125 -0.484375 1.78125 -0.484375l4.171875 0l0 -15.015625l-2.796875 0q-1.234375 0 -1.78125 -0.46875q-0.546875 -0.484375 -0.546875 -1.265625q0 -0.765625 0.53125 -1.25q0.546875 -0.484375 1.796875 -0.484375l6.265625 0zm20.297134 0l0 3.671875l-4.125 0l0 -3.671875l4.125 0zm0.46875 6.59375l0 11.890625l4.171875 0q1.25 0 1.78125 0.484375q0.53125 0.484375 0.53125 1.265625q0 0.75 -0.53125 1.234375q-0.53125 0.484375 -1.78125 0.484375l-11.796875 0q-1.25 0 -1.78125 -0.484375q-0.53125 -0.484375 -0.53125 -1.265625q0 -0.75 0.53125 -1.234375q0.53125 -0.484375 1.78125 -0.484375l4.15625 0l0 -8.421875l-2.78125 0q-1.234375 0 -1.78125 -0.484375q-0.546875 -0.484375 -0.546875 -1.265625q0 -0.765625 0.53125 -1.234375q0.546875 -0.484375 1.796875 -0.484375l6.25 0zm22.828384 4.0625q-0.84375 -0.53125 -1.78125 -0.796875q-0.921875 -0.265625 -1.9375 -0.265625q-2.015625 0 -3.203125 0.671875q-0.515625 0.28125 -0.515625 0.625q0 0.390625 0.703125 0.75q0.546875 0.28125 2.421875 0.53125q3.453125 0.46875 4.8125 0.953125q1.78125 0.625 2.734375 1.859375q0.96875 1.234375 0.96875 2.609375q0 1.859375 -1.640625 3.109375q-2.359375 1.8125 -6.109375 1.8125q-1.5 0 -2.78125 -0.265625q-1.28125 -0.265625 -2.34375 -0.765625q-0.25 0.21875 -0.546875 0.34375q-0.28125 0.109375 -0.59375 0.109375q-0.8125 0 -1.296875 -0.53125q-0.46875 -0.53125 -0.46875 -1.78125l0 -1.171875q0 -1.25 0.46875 -1.78125q0.484375 -0.546875 1.265625 -0.546875q0.625 0 1.046875 0.359375q0.421875 0.34375 0.65625 1.1875q0.796875 0.671875 1.90625 1.03125q1.125 0.34375 2.578125 0.34375q2.390625 0 3.71875 -0.75q0.625 -0.375 0.625 -0.78125q0 -0.671875 -0.90625 -1.109375q-0.890625 -0.4375 -3.703125 -0.75q-4.171875 -0.4375 -5.578125 -1.6875q-1.40625 -1.234375 -1.40625 -3.046875q0 -1.859375 1.578125 -3.09375q2.125 -1.703125 5.578125 -1.703125q1.203125 0 2.3125 0.234375q1.109375 0.234375 2.125 0.703125q0.3125 -0.234375 0.59375 -0.34375q0.28125 -0.125 0.515625 -0.125q0.71875 0 1.1875 0.53125q0.46875 0.53125 0.46875 1.78125l0 0.84375q0 1.140625 -0.265625 1.546875q-0.546875 0.78125 -1.46875 0.78125q-0.625 0 -1.109375 -0.390625q-0.46875 -0.390625 -0.609375 -1.03125z" fill-rule="nonzero"/><path fill="#fb6524" d="m150.46158 263.84576l0 20.375l2.109375 0q1.25 0 1.78125 0.46875q0.53125 0.46875 0.53125 1.25q0 0.78125 -0.53125 1.265625q-0.53125 0.484375 -1.78125 0.484375l-5.578125 0l0 -27.3125l5.5625 0q1.25 0 1.78125 0.484375q0.53125 0.46875 0.53125 1.25q0 0.765625 -0.53125 1.25q-0.53125 0.484375 -1.78125 0.484375l-2.09375 0z" fill-rule="nonzero"/><path fill="#434343" d="m171.33684 259.8145l0 18.984375l3.5 0q1.25 0 1.78125 0.484375q0.53125 0.484375 0.53125 1.265625q0 0.75 -0.53125 1.234375q-0.53125 0.484375 -1.78125 0.484375l-10.484375 0q-1.25 0 -1.78125 -0.484375q-0.53125 -0.484375 -0.53125 -1.265625q0 -0.75 0.53125 -1.234375q0.53125 -0.484375 1.78125 -0.484375l3.515625 0l0 -14.46875l-3.109375 0.8125q-0.734375 0.203125 -1.109375 0.203125q-0.65625 0 -1.140625 -0.515625q-0.484375 -0.53125 -0.484375 -1.296875q0 -0.6875 0.359375 -1.078125q0.359375 -0.40625 1.484375 -0.71875l7.46875 -1.921875z" fill-rule="nonzero"/><path fill="#fb6524" d="m188.66524 284.22076l0 -20.375l-2.109375 0q-1.25 0 -1.78125 -0.484375q-0.53125 -0.484375 -0.53125 -1.25q0 -0.78125 0.53125 -1.25q0.53125 -0.484375 1.78125 -0.484375l5.578125 0l0 27.3125l-5.5625 0q-1.25 0 -1.78125 -0.484375q-0.53125 -0.484375 -0.53125 -1.265625q0 -0.765625 0.53125 -1.25q0.53125 -0.46875 1.78125 -0.46875l2.09375 0z" fill-rule="nonzero"/><path stroke="#434343" stroke-width="1.0" stroke-linecap="butt" d="m52.663235 331.0657l0 54.69818" fill-rule="nonzero"/><path stroke="#434343" stroke-width="1.0" stroke-linecap="butt" d="m109.101555 331.0657l0 54.69818" fill-rule="nonzero"/><path stroke="#434343" stroke-width="1.0" stroke-linecap="butt" d="m165.53987 331.0657l0 54.69818" fill-rule="nonzero"/><path stroke="#434343" stroke-width="1.0" stroke-linecap="butt" d="m221.9782 331.0657l0 54.69818" fill-rule="nonzero"/><path stroke="#434343" stroke-width="1.0" stroke-linecap="butt" d="m52.164547 331.5644l170.31233 0" fill-rule="nonzero"/><path stroke="#434343" stroke-width="1.0" stroke-linecap="butt" d="m52.164547 385.2652l170.31233 0" fill-rule="nonzero"/><path fill="#000000" d="m83.407425 368.0148l-2.34375 0l0 -14.921875q-0.859375 0.796875 -2.234375 1.609375q-1.359375 0.796875 -2.453125 1.203125l0 -2.265625q1.96875 -0.921875 3.4375 -2.234375q1.46875 -1.3125 2.078125 -2.546875l1.515625 0l0 19.15625z" fill-rule="nonzero"/><path fill="#000000" d="m143.33012 365.7648l0 2.25l-12.609375 0q-0.03125 -0.84375 0.265625 -1.625q0.484375 -1.296875 1.546875 -2.546875q1.0625 -1.25 3.0625 -2.875q3.109375 -2.5625 4.203125 -4.046875q1.09375 -1.5 1.09375 -2.8125q0 -1.40625 -1.0 -2.359375q-0.984375 -0.953125 -2.59375 -0.953125q-1.6875 0 -2.703125 1.015625q-1.015625 1.015625 -1.03125 2.8125l-2.40625 -0.25q0.25 -2.6875 1.859375 -4.09375q1.609375 -1.421875 4.328125 -1.421875q2.75 0 4.34375 1.53125q1.609375 1.515625 1.609375 3.765625q0 1.140625 -0.46875 2.25q-0.46875 1.109375 -1.5625 2.328125q-1.078125 1.21875 -3.609375 3.359375q-2.09375 1.765625 -2.703125 2.40625q-0.59375 0.625 -0.984375 1.265625l9.359375 0z" fill-rule="nonzero"/><path fill="#000000" d="m187.47157 362.98355l2.34375 -0.3125q0.390625 1.984375 1.359375 2.875q0.984375 0.875 2.375 0.875q1.640625 0 2.78125 -1.140625q1.140625 -1.15625 1.140625 -2.84375q0 -1.625 -1.0625 -2.671875q-1.046875 -1.046875 -2.671875 -1.046875q-0.65625 0 -1.65625 0.265625l0.265625 -2.0625q0.234375 0.03125 0.375 0.03125q1.5 0 2.6875 -0.78125q1.203125 -0.78125 1.203125 -2.40625q0 -1.296875 -0.875 -2.140625q-0.859375 -0.84375 -2.25 -0.84375q-1.359375 0 -2.28125 0.859375q-0.90625 0.859375 -1.15625 2.578125l-2.34375 -0.421875q0.421875 -2.34375 1.9375 -3.640625q1.53125 -1.296875 3.796875 -1.296875q1.5625 0 2.875 0.671875q1.3125 0.671875 2.0 1.828125q0.703125 1.15625 0.703125 2.453125q0 1.234375 -0.671875 2.25q-0.65625 1.015625 -1.953125 1.625q1.6875 0.390625 2.625 1.625q0.9375 1.21875 0.9375 3.0625q0 2.5 -1.828125 4.25q-1.8125 1.734375 -4.59375 1.734375q-2.515625 0 -4.171875 -1.5q-1.65625 -1.5 -1.890625 -3.875z" fill-rule="nonzero"/><path fill="#000000" fill-opacity="0.0" d="m337.02924 239.98763l210.67719 0l0 61.00789l-210.67719 0z" fill-rule="evenodd"/><path fill="#434343" d="m392.11707 260.3145l0 18.484375l4.15625 0q1.25 0 1.78125 0.484375q0.53125 0.484375 0.53125 1.265625q0 0.75 -0.53125 1.234375q-0.53125 0.484375 -1.78125 0.484375l-11.796875 0q-1.25 0 -1.78125 -0.484375q-0.53125 -0.484375 -0.53125 -1.265625q0 -0.75 0.53125 -1.234375q0.53125 -0.484375 1.78125 -0.484375l4.171875 0l0 -15.015625l-2.796875 0q-1.234375 0 -1.78125 -0.46875q-0.546875 -0.484375 -0.546875 -1.265625q0 -0.765625 0.53125 -1.25q0.546875 -0.484375 1.796875 -0.484375l6.265625 0zm20.29712 0l0 3.671875l-4.125 0l0 -3.671875l4.125 0zm0.46875 6.59375l0 11.890625l4.171875 0q1.25 0 1.78125 0.484375q0.53125 0.484375 0.53125 1.265625q0 0.75 -0.53125 1.234375q-0.53125 0.484375 -1.78125 0.484375l-11.796875 0q-1.25 0 -1.78125 -0.484375q-0.53125 -0.484375 -0.53125 -1.265625q0 -0.75 0.53125 -1.234375q0.53125 -0.484375 1.78125 -0.484375l4.15625 0l0 -8.421875l-2.78125 0q-1.234375 0 -1.78125 -0.484375q-0.546875 -0.484375 -0.546875 -1.265625q0 -0.765625 0.53125 -1.234375q0.546875 -0.484375 1.796875 -0.484375l6.25 0zm22.8284 4.0625q-0.84375 -0.53125 -1.78125 -0.796875q-0.921875 -0.265625 -1.9375 -0.265625q-2.015625 0 -3.203125 0.671875q-0.515625 0.28125 -0.515625 0.625q0 0.390625 0.703125 0.75q0.546875 0.28125 2.421875 0.53125q3.453125 0.46875 4.8125 0.953125q1.78125 0.625 2.734375 1.859375q0.96875 1.234375 0.96875 2.609375q0 1.859375 -1.640625 3.109375q-2.359375 1.8125 -6.109375 1.8125q-1.5 0 -2.78125 -0.265625q-1.28125 -0.265625 -2.34375 -0.765625q-0.25 0.21875 -0.546875 0.34375q-0.28125 0.109375 -0.59375 0.109375q-0.8125 0 -1.296875 -0.53125q-0.46875 -0.53125 -0.46875 -1.78125l0 -1.171875q0 -1.25 0.46875 -1.78125q0.484375 -0.546875 1.265625 -0.546875q0.625 0 1.046875 0.359375q0.421875 0.34375 0.65625 1.1875q0.796875 0.671875 1.90625 1.03125q1.125 0.34375 2.578125 0.34375q2.390625 0 3.71875 -0.75q0.625 -0.375 0.625 -0.78125q0 -0.671875 -0.90625 -1.109375q-0.890625 -0.4375 -3.703125 -0.75q-4.171875 -0.4375 -5.578125 -1.6875q-1.40625 -1.234375 -1.40625 -3.046875q0 -1.859375 1.578125 -3.09375q2.125 -1.703125 5.578125 -1.703125q1.203125 0 2.3125 0.234375q1.109375 0.234375 2.125 0.703125q0.3125 -0.234375 0.59375 -0.34375q0.28125 -0.125 0.515625 -0.125q0.71875 0 1.1875 0.53125q0.46875 0.53125 0.46875 1.78125l0 0.84375q0 1.140625 -0.265625 1.546875q-0.546875 0.78125 -1.46875 0.78125q-0.625 0 -1.109375 -0.390625q-0.46875 -0.390625 -0.609375 -1.03125z" fill-rule="nonzero"/><path fill="#ff9900" d="m454.46158 263.84576l0 20.375l2.109375 0q1.25 0 1.78125 0.46875q0.53125 0.46875 0.53125 1.25q0 0.78125 -0.53125 1.265625q-0.53125 0.484375 -1.78125 0.484375l-5.578125 0l0 -27.3125l5.5625 0q1.25 0 1.78125 0.484375q0.53125 0.46875 0.53125 1.25q0 0.765625 -0.53125 1.25q-0.53125 0.484375 -1.78125 0.484375l-2.09375 0z" fill-rule="nonzero"/><path fill="#434343" d="m470.3212 278.7989l7.59375 0q0.625 -0.515625 1.1875 -0.515625q0.796875 0 1.265625 0.53125q0.46875 0.53125 0.46875 1.796875l0 1.65625l-15.8124695 0l0 -3.671875q9.3749695 -7.734375 11.3280945 -9.953125q0.96875 -1.125 0.96875 -2.140625q0 -1.28125 -1.109375 -2.25q-1.09375 -0.96875 -2.9375 -0.96875q-1.875 0 -3.109375 1.078125q-0.640625 0.578125 -1.03125 1.71875q-0.234375 0.703125 -0.65625 1.015625q-0.40625 0.296875 -1.015625 0.296875q-0.703125 0 -1.21875 -0.5q-0.515625 -0.515625 -0.515625 -1.1875q0 -1.015625 0.9375 -2.53125q0.9375 -1.53125 2.734375 -2.4375q1.796875 -0.921875 3.921875 -0.921875q3.28125 0 5.375 1.984375q2.09375 1.984375 2.09375 4.8125q0 1.4375 -0.59375 2.671875q-0.59375 1.21875 -2.890625 3.390625q-1.78125 1.703125 -6.984375 6.125z" fill-rule="nonzero"/><path fill="#ff9900" d="m492.66522 284.22076l0 -20.375l-2.109375 0q-1.25 0 -1.78125 -0.484375q-0.53125 -0.484375 -0.53125 -1.25q0 -0.78125 0.53125 -1.25q0.53125 -0.484375 1.78125 -0.484375l5.578125 0l0 27.3125l-5.5625 0q-1.25 0 -1.78125 -0.484375q-0.53125 -0.484375 -0.53125 -1.265625q0 -0.765625 0.53125 -1.25q0.53125 -0.46875 1.78125 -0.46875l2.09375 0z" fill-rule="nonzero"/><path fill="#000000" fill-opacity="0.0" d="m619.6666 239.98894l261.3858 0l0 61.00789l-261.3858 0z" fill-rule="evenodd"/><path fill="#434343" d="m700.10876 260.31583l0 18.484375l4.15625 0q1.25 0 1.78125 0.484375q0.53125 0.484375 0.53125 1.265625q0 0.75 -0.53125 1.234375q-0.53125 0.484375 -1.78125 0.484375l-11.796875 0q-1.25 0 -1.78125 -0.484375q-0.53125 -0.484375 -0.53125 -1.265625q0 -0.75 0.53125 -1.234375q0.53125 -0.484375 1.78125 -0.484375l4.171875 0l0 -15.015625l-2.796875 0q-1.234375 0 -1.78125 -0.46875q-0.546875 -0.484375 -0.546875 -1.265625q0 -0.765625 0.53125 -1.25q0.546875 -0.484375 1.796875 -0.484375l6.265625 0zm20.29712 0l0 3.671875l-4.125 0l0 -3.671875l4.125 0zm0.46875 6.59375l0 11.890625l4.171875 0q1.25 0 1.78125 0.484375q0.53125 0.484375 0.53125 1.265625q0 0.75 -0.53125 1.234375q-0.53125 0.484375 -1.78125 0.484375l-11.796875 0q-1.25 0 -1.78125 -0.484375q-0.53125 -0.484375 -0.53125 -1.265625q0 -0.75 0.53125 -1.234375q0.53125 -0.484375 1.78125 -0.484375l4.15625 0l0 -8.421875l-2.78125 0q-1.234375 0 -1.78125 -0.484375q-0.546875 -0.484375 -0.546875 -1.265625q0 -0.765625 0.53125 -1.234375q0.546875 -0.484375 1.796875 -0.484375l6.25 0zm22.82837 4.0625q-0.84375 -0.53125 -1.78125 -0.796875q-0.921875 -0.265625 -1.9375 -0.265625q-2.015625 0 -3.203125 0.671875q-0.515625 0.28125 -0.515625 0.625q0 0.390625 0.703125 0.75q0.546875 0.28125 2.421875 0.53125q3.453125 0.46875 4.8125 0.953125q1.78125 0.625 2.734375 1.859375q0.96875 1.234375 0.96875 2.609375q0 1.859375 -1.640625 3.109375q-2.359375 1.8125 -6.109375 1.8125q-1.5 0 -2.78125 -0.265625q-1.28125 -0.265625 -2.34375 -0.765625q-0.25 0.21875 -0.546875 0.34375q-0.28125 0.109375 -0.59375 0.109375q-0.8125 0 -1.296875 -0.53125q-0.46875 -0.53125 -0.46875 -1.78125l0 -1.171875q0 -1.25 0.46875 -1.78125q0.484375 -0.546875 1.265625 -0.546875q0.625 0 1.046875 0.359375q0.421875 0.34375 0.65625 1.1875q0.796875 0.671875 1.90625 1.03125q1.125 0.34375 2.578125 0.34375q2.390625 0 3.71875 -0.75q0.625 -0.375 0.625 -0.78125q0 -0.671875 -0.90625 -1.109375q-0.890625 -0.4375 -3.703125 -0.75q-4.171875 -0.4375 -5.578125 -1.6875q-1.40625 -1.234375 -1.40625 -3.046875q0 -1.859375 1.578125 -3.09375q2.125 -1.703125 5.578125 -1.703125q1.203125 0 2.3125 0.234375q1.109375 0.234375 2.125 0.703125q0.3125 -0.234375 0.59375 -0.34375q0.28125 -0.125 0.515625 -0.125q0.71875 0 1.1875 0.53125q0.46875 0.53125 0.46875 1.78125l0 0.84375q0 1.140625 -0.265625 1.546875q-0.546875 0.78125 -1.46875 0.78125q-0.625 0 -1.109375 -0.390625q-0.46875 -0.390625 -0.609375 -1.03125z" fill-rule="nonzero"/><path fill="#3c78d8" d="m762.45325 263.84708l0 20.375l2.109375 0q1.25 0 1.78125 0.46875q0.53125 0.46875 0.53125 1.25q0 0.78125 -0.53125 1.265625q-0.53125 0.484375 -1.78125 0.484375l-5.578125 0l0 -27.3125l5.5625 0q1.25 0 1.78125 0.484375q0.53125 0.46875 0.53125 1.25q0 0.765625 -0.53125 1.25q-0.53125 0.484375 -1.78125 0.484375l-2.09375 0z" fill-rule="nonzero"/><path fill="#434343" d="m786.5004 270.6752q1.546875 1.046875 2.296875 2.4375q0.765625 1.375 0.765625 3.078125q0 1.84375 -1.015625 3.421875q-1.0 1.5625 -2.90625 2.359375q-1.90625 0.796875 -5.015625 0.796875q-4.015625 0 -6.046875 -1.25q-1.140625 -0.703125 -1.140625 -1.6875q0 -0.75 0.5 -1.265625q0.5 -0.515625 1.21875 -0.515625q0.484375 0 1.015625 0.34375q0.734375 0.5 1.390625 0.671875q1.015625 0.234375 2.796875 0.234375q3.03125 0 4.375 -0.78125q1.359375 -0.78125 1.359375 -2.21875q0 -1.078125 -0.78125 -2.0625q-0.78125 -0.984375 -2.109375 -1.53125q-0.765625 -0.296875 -2.578125 -0.421875q-0.859375 -0.046875 -1.328125 -0.53125q-0.453125 -0.484375 -0.453125 -1.1875q0 -0.75 0.5 -1.25q0.515625 -0.515625 1.28125 -0.515625q1.734375 0 1.859375 -0.015625q0.671875 -0.0625 1.34375 -0.4375q0.671875 -0.375 1.09375 -1.03125q0.421875 -0.65625 0.421875 -1.34375q0 -1.09375 -0.984375 -1.890625q-0.96875 -0.8125 -2.921875 -0.8125q-2.5 0 -3.8125 1.453125q-0.390625 0.421875 -0.625 0.546875q-0.359375 0.171875 -0.796875 0.171875q-0.71875 0 -1.234375 -0.5q-0.5 -0.5 -0.5 -1.25q0 -1.171875 1.5625 -2.265625q2.265625 -1.609375 5.671875 -1.609375q3.203125 0 5.15625 1.828125q1.953125 1.828125 1.953125 4.390625q0 1.34375 -0.578125 2.5q-0.578125 1.15625 -1.734375 2.140625z" fill-rule="nonzero"/><path fill="#3c78d8" d="m800.6569 284.22208l0 -20.375l-2.109375 0q-1.25 0 -1.78125 -0.484375q-0.53125 -0.484375 -0.53125 -1.25q0 -0.78125 0.53125 -1.25q0.53125 -0.484375 1.78125 -0.484375l5.578125 0l0 27.3125l-5.5625 0q-1.25 0 -1.78125 -0.484375q-0.53125 -0.484375 -0.53125 -1.265625q0 -0.765625 0.53125 -1.25q0.53125 -0.46875 1.78125 -0.46875l2.09375 0z" fill-rule="nonzero"/><path fill="#000000" fill-opacity="0.0" d="m344.14737 321.75708l0 0c0 -2.9821777 2.417511 -5.399719 5.3996887 -5.399719l185.64154 0c1.4320679 0 2.805542 0.5689087 3.8181763 1.581543c1.0126343 1.0126648 1.581543 2.386078 1.581543 3.8181763l0 73.452545c0 2.9821777 -2.4175415 5.399719 -5.399719 5.399719l-185.64154 0c-2.9821777 0 -5.3996887 -2.4175415 -5.3996887 -5.399719z" fill-rule="evenodd"/><path stroke="#ff9900" stroke-width="3.0" stroke-linejoin="round" stroke-linecap="butt" stroke-dasharray="12.0,9.0" d="m344.14737 321.75708l0 0c0 -2.9821777 2.417511 -5.399719 5.3996887 -5.399719l185.64154 0c1.4320679 0 2.805542 0.5689087 3.8181763 1.581543c1.0126343 1.0126648 1.581543 2.386078 1.581543 3.8181763l0 73.452545c0 2.9821777 -2.4175415 5.399719 -5.399719 5.399719l-185.64154 0c-2.9821777 0 -5.3996887 -2.4175415 -5.3996887 -5.399719z" fill-rule="evenodd"/><path stroke="#434343" stroke-width="1.0" stroke-linecap="butt" d="m356.66324 331.0657l0 54.69818" fill-rule="nonzero"/><path stroke="#434343" stroke-width="1.0" stroke-linecap="butt" d="m413.10156 331.0657l0 54.69818" fill-rule="nonzero"/><path stroke="#434343" stroke-width="1.0" stroke-linecap="butt" d="m469.5399 331.0657l0 54.69818" fill-rule="nonzero"/><path stroke="#434343" stroke-width="1.0" stroke-linecap="butt" d="m525.9782 331.0657l0 54.69818" fill-rule="nonzero"/><path stroke="#434343" stroke-width="1.0" stroke-linecap="butt" d="m356.16455 331.5644l170.31232 0" fill-rule="nonzero"/><path stroke="#434343" stroke-width="1.0" stroke-linecap="butt" d="m356.16455 385.2652l170.31232 0" fill-rule="nonzero"/><path fill="#000000" d="m387.40744 368.0148l-2.34375 0l0 -14.921875q-0.859375 0.796875 -2.234375 1.609375q-1.359375 0.796875 -2.453125 1.203125l0 -2.265625q1.96875 -0.921875 3.4375 -2.234375q1.46875 -1.3125 2.078125 -2.546875l1.515625 0l0 19.15625z" fill-rule="nonzero"/><path fill="#000000" d="m447.3301 365.7648l0 2.25l-12.609375 0q-0.03125 -0.84375 0.265625 -1.625q0.484375 -1.296875 1.546875 -2.546875q1.0625 -1.25 3.0625 -2.875q3.109375 -2.5625 4.203125 -4.046875q1.09375 -1.5 1.09375 -2.8125q0 -1.40625 -1.0 -2.359375q-0.984375 -0.953125 -2.59375 -0.953125q-1.6875 0 -2.703125 1.015625q-1.015625 1.015625 -1.03125 2.8125l-2.40625 -0.25q0.25 -2.6875 1.859375 -4.09375q1.609375 -1.421875 4.328125 -1.421875q2.75 0 4.34375 1.53125q1.609375 1.515625 1.609375 3.765625q0 1.140625 -0.46875 2.25q-0.46875 1.109375 -1.5625 2.328125q-1.078125 1.21875 -3.609375 3.359375q-2.09375 1.765625 -2.703125 2.40625q-0.59375 0.625 -0.984375 1.265625l9.359375 0z" fill-rule="nonzero"/><path fill="#000000" d="m491.47156 362.98355l2.34375 -0.3125q0.390625 1.984375 1.359375 2.875q0.984375 0.875 2.375 0.875q1.640625 0 2.78125 -1.140625q1.140625 -1.15625 1.140625 -2.84375q0 -1.625 -1.0625 -2.671875q-1.046875 -1.046875 -2.671875 -1.046875q-0.65625 0 -1.65625 0.265625l0.265625 -2.0625q0.234375 0.03125 0.375 0.03125q1.5 0 2.6875 -0.78125q1.203125 -0.78125 1.203125 -2.40625q0 -1.296875 -0.875 -2.140625q-0.859375 -0.84375 -2.25 -0.84375q-1.359375 0 -2.28125 0.859375q-0.90625 0.859375 -1.15625 2.578125l-2.34375 -0.421875q0.421875 -2.34375 1.9375 -3.640625q1.53125 -1.296875 3.796875 -1.296875q1.5625 0 2.875 0.671875q1.3125 0.671875 2.0 1.828125q0.703125 1.15625 0.703125 2.453125q0 1.234375 -0.671875 2.25q-0.65625 1.015625 -1.953125 1.625q1.6875 0.390625 2.625 1.625q0.9375 1.21875 0.9375 3.0625q0 2.5 -1.828125 4.25q-1.8125 1.734375 -4.59375 1.734375q-2.515625 0 -4.171875 -1.5q-1.65625 -1.5 -1.890625 -3.875z" fill-rule="nonzero"/><path fill="#000000" fill-opacity="0.0" d="m648.14734 321.75708l0 0c0 -2.9821777 2.4175415 -5.399719 5.399719 -5.399719l185.64154 0c1.4320679 0 2.805542 0.5689087 3.8181763 1.581543c1.0126343 1.0126648 1.581543 2.386078 1.581543 3.8181763l0 73.452545c0 2.9821777 -2.4175415 5.399719 -5.399719 5.399719l-185.64154 0c-2.9821777 0 -5.399719 -2.4175415 -5.399719 -5.399719z" fill-rule="evenodd"/><path stroke="#3c78d8" stroke-width="3.0" stroke-linejoin="round" stroke-linecap="butt" stroke-dasharray="12.0,9.0" d="m648.14734 321.75708l0 0c0 -2.9821777 2.4175415 -5.399719 5.399719 -5.399719l185.64154 0c1.4320679 0 2.805542 0.5689087 3.8181763 1.581543c1.0126343 1.0126648 1.581543 2.386078 1.581543 3.8181763l0 73.452545c0 2.9821777 -2.4175415 5.399719 -5.399719 5.399719l-185.64154 0c-2.9821777 0 -5.399719 -2.4175415 -5.399719 -5.399719z" fill-rule="evenodd"/><path stroke="#434343" stroke-width="1.0" stroke-linecap="butt" d="m660.6632 331.0657l0 54.69818" fill-rule="nonzero"/><path stroke="#434343" stroke-width="1.0" stroke-linecap="butt" d="m717.10156 331.0657l0 54.69818" fill-rule="nonzero"/><path stroke="#434343" stroke-width="1.0" stroke-linecap="butt" d="m773.53986 331.0657l0 54.69818" fill-rule="nonzero"/><path stroke="#434343" stroke-width="1.0" stroke-linecap="butt" d="m829.9782 331.0657l0 54.69818" fill-rule="nonzero"/><path stroke="#434343" stroke-width="1.0" stroke-linecap="butt" d="m660.16455 331.5644l170.31232 0" fill-rule="nonzero"/><path stroke="#434343" stroke-width="1.0" stroke-linecap="butt" d="m660.16455 385.2652l170.31232 0" fill-rule="nonzero"/><path fill="#000000" d="m691.4074 368.0148l-2.34375 0l0 -14.921875q-0.859375 0.796875 -2.234375 1.609375q-1.359375 0.796875 -2.453125 1.203125l0 -2.265625q1.96875 -0.921875 3.4375 -2.234375q1.46875 -1.3125 2.078125 -2.546875l1.515625 0l0 19.15625z" fill-rule="nonzero"/><path fill="#000000" d="m751.33014 365.7648l0 2.25l-12.609375 0q-0.03125 -0.84375 0.265625 -1.625q0.484375 -1.296875 1.546875 -2.546875q1.0625 -1.25 3.0625 -2.875q3.109375 -2.5625 4.203125 -4.046875q1.09375 -1.5 1.09375 -2.8125q0 -1.40625 -1.0 -2.359375q-0.984375 -0.953125 -2.59375 -0.953125q-1.6875 0 -2.703125 1.015625q-1.015625 1.015625 -1.03125 2.8125l-2.40625 -0.25q0.25 -2.6875 1.859375 -4.09375q1.609375 -1.421875 4.328125 -1.421875q2.75 0 4.34375 1.53125q1.609375 1.515625 1.609375 3.765625q0 1.140625 -0.46875 2.25q-0.46875 1.109375 -1.5625 2.328125q-1.078125 1.21875 -3.609375 3.359375q-2.09375 1.765625 -2.703125 2.40625q-0.59375 0.625 -0.984375 1.265625l9.359375 0z" fill-rule="nonzero"/><path fill="#000000" d="m795.47156 362.98355l2.34375 -0.3125q0.390625 1.984375 1.359375 2.875q0.984375 0.875 2.375 0.875q1.640625 0 2.78125 -1.140625q1.140625 -1.15625 1.140625 -2.84375q0 -1.625 -1.0625 -2.671875q-1.046875 -1.046875 -2.671875 -1.046875q-0.65625 0 -1.65625 0.265625l0.265625 -2.0625q0.234375 0.03125 0.375 0.03125q1.5 0 2.6875 -0.78125q1.203125 -0.78125 1.203125 -2.40625q0 -1.296875 -0.875 -2.140625q-0.859375 -0.84375 -2.25 -0.84375q-1.359375 0 -2.28125 0.859375q-0.90625 0.859375 -1.15625 2.578125l-2.34375 -0.421875q0.421875 -2.34375 1.9375 -3.640625q1.53125 -1.296875 3.796875 -1.296875q1.5625 0 2.875 0.671875q1.3125 0.671875 2.0 1.828125q0.703125 1.15625 0.703125 2.453125q0 1.234375 -0.671875 2.25q-0.65625 1.015625 -1.953125 1.625q1.6875 0.390625 2.625 1.625q0.9375 1.21875 0.9375 3.0625q0 2.5 -1.828125 4.25q-1.8125 1.734375 -4.59375 1.734375q-2.515625 0 -4.171875 -1.5q-1.65625 -1.5 -1.890625 -3.875z" fill-rule="nonzero"/><path fill="#000000" fill-opacity="0.0" d="m28.139482 415.96796l231.1811 0l0 91.46454l-231.1811 0z" fill-rule="evenodd"/><path fill="#666666" d="m44.20198 453.12793l3.3125 -15.859375q-2.140625 1.703125 -6.03125 2.71875l0.484375 -2.359375q1.9375 -0.765625 3.8125 -2.015625q1.890625 -1.25 2.828125 -2.171875q0.578125 -0.578125 1.09375 -1.390625l1.5 0l-4.390625 21.078125l-2.609375 0zm10.467163 -5.203125l2.59375 -0.15625q0 1.125 0.34375 1.921875q0.34375 0.78125 1.265625 1.28125q0.921875 0.5 2.15625 0.5q1.71875 0 2.578125 -0.6875q0.859375 -0.6875 0.859375 -1.625q0 -0.671875 -0.515625 -1.265625q-0.53125 -0.609375 -2.59375 -1.484375q-2.046875 -0.890625 -2.625 -1.25q-0.953125 -0.578125 -1.453125 -1.375q-0.484375 -0.796875 -0.484375 -1.828125q0 -1.796875 1.4375 -3.078125q1.4375 -1.296875 4.015625 -1.296875q2.859375 0 4.359375 1.328125q1.5 1.3125 1.546875 3.484375l-2.53125 0.171875q-0.0625 -1.375 -0.984375 -2.171875q-0.90625 -0.8125 -2.578125 -0.8125q-1.34375 0 -2.09375 0.625q-0.75 0.609375 -0.75 1.328125q0 0.703125 0.65625 1.25q0.421875 0.375 2.21875 1.15625q2.96875 1.28125 3.75 2.03125q1.234375 1.1875 1.234375 2.890625q0 1.125 -0.703125 2.21875q-0.6875 1.09375 -2.125 1.75q-1.421875 0.640625 -3.34375 0.640625q-2.640625 0 -4.484375 -1.296875q-1.859375 -1.3125 -1.75 -4.25zm20.476562 3.09375l-0.421875 2.125q-0.9375 0.234375 -1.8125 0.234375q-1.546875 0 -2.46875 -0.75q-0.6875 -0.578125 -0.6875 -1.5625q0 -0.5 0.375 -2.3125l1.84375 -8.828125l-2.046875 0l0.421875 -2.0l2.046875 0l0.78125 -3.75l2.96875 -1.78125l-1.15625 5.53125l2.546875 0l-0.421875 2.0l-2.546875 0l-1.75 8.40625q-0.328125 1.609375 -0.328125 1.921875q0 0.453125 0.25 0.703125q0.265625 0.234375 0.875 0.234375q0.859375 0 1.53125 -0.171875zm10.030975 2.109375l4.390625 -21.0l2.59375 0l-4.390625 21.0l-2.59375 0zm10.406403 -18.0625l0.609375 -2.9375l2.578125 0l-0.609375 2.9375l-2.578125 0zm-3.78125 18.0625l3.171875 -15.203125l2.59375 0l-3.171875 15.203125l-2.59375 0zm6.8595276 -5.203125l2.59375 -0.15625q0 1.125 0.34375 1.921875q0.34375 0.78125 1.265625 1.28125q0.921875 0.5 2.15625 0.5q1.71875 0 2.578125 -0.6875q0.859375 -0.6875 0.859375 -1.625q0 -0.671875 -0.515625 -1.265625q-0.53125 -0.609375 -2.59375 -1.484375q-2.046875 -0.890625 -2.625 -1.25q-0.953125 -0.578125 -1.453125 -1.375q-0.484375 -0.796875 -0.484375 -1.828125q0 -1.796875 1.4375 -3.078125q1.4375 -1.296875 4.015625 -1.296875q2.859375 0 4.359375 1.328125q1.5 1.3125 1.546875 3.484375l-2.53125 0.171875q-0.0625 -1.375 -0.984375 -2.171875q-0.90625 -0.8125 -2.578125 -0.8125q-1.34375 0 -2.09375 0.625q-0.75 0.609375 -0.75 1.328125q0 0.703125 0.65625 1.25q0.421875 0.375 2.21875 1.15625q2.96875 1.28125 3.75 2.03125q1.234375 1.1875 1.234375 2.890625q0 1.125 -0.703125 2.21875q-0.6875 1.09375 -2.125 1.75q-1.421875 0.640625 -3.34375 0.640625q-2.640625 0 -4.484375 -1.296875q-1.859375 -1.3125 -1.75 -4.25zm20.476562 3.09375l-0.421875 2.125q-0.9375 0.234375 -1.8125 0.234375q-1.546875 0 -2.46875 -0.75q-0.6875 -0.578125 -0.6875 -1.5625q0 -0.5 0.375 -2.3125l1.84375 -8.828125l-2.046875 0l0.421875 -2.0l2.046875 0l0.78125 -3.75l2.96875 -1.78125l-1.15625 5.53125l2.546875 0l-0.421875 2.0l-2.546875 0l-1.75 8.40625q-0.328125 1.609375 -0.328125 1.921875q0 0.453125 0.25 0.703125q0.265625 0.234375 0.875 0.234375q0.859375 0 1.53125 -0.171875zm21.405975 -3.0625l2.53125 0.265625q-0.546875 1.875 -2.515625 3.5625q-1.953125 1.6875 -4.65625 1.6875q-1.6875 0 -3.09375 -0.78125q-1.40625 -0.78125 -2.15625 -2.265625q-0.734375 -1.5 -0.734375 -3.390625q0 -2.5 1.15625 -4.84375q1.15625 -2.34375 2.984375 -3.46875q1.828125 -1.140625 3.96875 -1.140625q2.71875 0 4.34375 1.6875q1.625 1.6875 1.625 4.609375q0 1.109375 -0.203125 2.296875l-11.1875 0q-0.0625 0.4375 -0.0625 0.796875q0 2.125 0.96875 3.25q0.984375 1.125 2.40625 1.125q1.328125 0 2.609375 -0.859375q1.296875 -0.875 2.015625 -2.53125zm-7.53125 -3.765625l8.53125 0q0.015625 -0.40625 0.015625 -0.578125q0 -1.9375 -0.96875 -2.96875q-0.96875 -1.046875 -2.5 -1.046875q-1.671875 0 -3.046875 1.15625q-1.359375 1.140625 -2.03125 3.4375zm12.467163 8.9375l4.390625 -21.0l2.59375 0l-4.390625 21.0l-2.59375 0zm17.890778 -5.171875l2.53125 0.265625q-0.546875 1.875 -2.515625 3.5625q-1.953125 1.6875 -4.65625 1.6875q-1.6875 0 -3.09375 -0.78125q-1.40625 -0.78125 -2.15625 -2.265625q-0.734375 -1.5 -0.734375 -3.390625q0 -2.5 1.15625 -4.84375q1.15625 -2.34375 2.984375 -3.46875q1.828125 -1.140625 3.96875 -1.140625q2.71875 0 4.34375 1.6875q1.625 1.6875 1.625 4.609375q0 1.109375 -0.203125 2.296875l-11.1875 0q-0.0625 0.4375 -0.0625 0.796875q0 2.125 0.96875 3.25q0.984375 1.125 2.40625 1.125q1.328125 0 2.609375 -0.859375q1.296875 -0.875 2.015625 -2.53125zm-7.53125 -3.765625l8.53125 0q0.015625 -0.40625 0.015625 -0.578125q0 -1.9375 -0.96875 -2.96875q-0.96875 -1.046875 -2.5 -1.046875q-1.671875 0 -3.046875 1.15625q-1.359375 1.140625 -2.03125 3.4375zm12.654663 8.9375l3.1875 -15.203125l2.59375 0l-0.53125 2.5q1.4375 -1.625 2.578125 -2.234375q1.140625 -0.609375 2.46875 -0.609375q1.421875 0 2.375 0.75q0.953125 0.75 1.25 2.09375q1.15625 -1.4375 2.4375 -2.140625q1.296875 -0.703125 2.703125 -0.703125q1.90625 0 2.859375 0.90625q0.953125 0.890625 0.953125 2.53125q0 0.703125 -0.328125 2.3125l-2.046875 9.796875l-2.59375 0l2.09375 -10.046875q0.265625 -1.234375 0.265625 -1.765625q0 -0.75 -0.46875 -1.171875q-0.46875 -0.4375 -1.328125 -0.4375q-1.15625 0 -2.359375 0.703125q-1.203125 0.703125 -1.875 1.84375q-0.671875 1.140625 -1.171875 3.5l-1.546875 7.375l-2.59375 0l2.15625 -10.265625q0.234375 -1.046875 0.234375 -1.484375q0 -0.75 -0.46875 -1.203125q-0.46875 -0.46875 -1.21875 -0.46875q-1.09375 0 -2.3125 0.703125q-1.203125 0.703125 -1.96875 1.953125q-0.75 1.25 -1.234375 3.578125l-1.515625 7.1875l-2.59375 0zm35.618057 -5.171875l2.53125 0.265625q-0.546875 1.875 -2.515625 3.5625q-1.953125 1.6875 -4.65625 1.6875q-1.6875 0 -3.09375 -0.78125q-1.40625 -0.78125 -2.15625 -2.265625q-0.734375 -1.5 -0.734375 -3.390625q0 -2.5 1.15625 -4.84375q1.15625 -2.34375 2.984375 -3.46875q1.828125 -1.140625 3.96875 -1.140625q2.71875 0 4.34375 1.6875q1.625 1.6875 1.625 4.609375q0 1.109375 -0.203125 2.296875l-11.1875 0q-0.0625 0.4375 -0.0625 0.796875q0 2.125 0.96875 3.25q0.984375 1.125 2.40625 1.125q1.328125 0 2.609375 -0.859375q1.296875 -0.875 2.015625 -2.53125zm-7.53125 -3.765625l8.53125 0q0.015625 -0.40625 0.015625 -0.578125q0 -1.9375 -0.96875 -2.96875q-0.96875 -1.046875 -2.5 -1.046875q-1.671875 0 -3.046875 1.15625q-1.359375 1.140625 -2.03125 3.4375zm12.670288 8.9375l3.1875 -15.203125l2.34375 0l-0.5625 2.640625q1.53125 -1.5625 2.859375 -2.265625q1.34375 -0.71875 2.734375 -0.71875q1.84375 0 2.890625 1.0q1.0625 1.0 1.0625 2.671875q0 0.84375 -0.375 2.671875l-1.9375 9.203125l-2.59375 0l2.03125 -9.640625q0.296875 -1.40625 0.296875 -2.078125q0 -0.75 -0.53125 -1.21875q-0.515625 -0.484375 -1.5 -0.484375q-2.0 0 -3.5625 1.4375q-1.546875 1.4375 -2.265625 4.90625l-1.484375 7.078125l-2.59375 0zm22.373413 -2.109375l-0.421875 2.125q-0.9375 0.234375 -1.8125 0.234375q-1.546875 0 -2.46875 -0.75q-0.6875 -0.578125 -0.6875 -1.5625q0 -0.5 0.375 -2.3125l1.84375 -8.828125l-2.046875 0l0.421875 -2.0l2.046875 0l0.78125 -3.75l2.96875 -1.78125l-1.15625 5.53125l2.546875 0l-0.421875 2.0l-2.546875 0l-1.75 8.40625q-0.328125 1.609375 -0.328125 1.921875q0 0.453125 0.25 0.703125q0.265625 0.234375 0.875 0.234375q0.859375 0 1.53125 -0.171875z" fill-rule="nonzero"/><path fill="#666666" d="m41.85823 494.29984q-2.234375 -4.921875 -2.234375 -10.125q0 -3.46875 0.90625 -6.453125q0.90625 -2.984375 2.765625 -5.90625q1.234375 -1.953125 3.9375 -5.046875l2.015625 0q-1.671875 1.796875 -3.546875 5.046875q-1.859375 3.25 -2.703125 6.390625q-0.84375 3.140625 -0.84375 6.296875q0 4.734375 1.640625 9.796875l-1.9375 0zm9.703995 -24.234375l0.609375 -2.9375l2.578125 0l-0.609375 2.9375l-2.578125 0zm-3.78125 18.0625l3.171875 -15.203125l2.59375 0l-3.171875 15.203125l-2.59375 0zm6.6095276 0l3.1875 -15.203125l2.34375 0l-0.5625 2.640625q1.53125 -1.5625 2.859375 -2.265625q1.34375 -0.71875 2.734375 -0.71875q1.84375 0 2.890625 1.0q1.0625 1.0 1.0625 2.671875q0 0.84375 -0.375 2.671875l-1.9375 9.203125l-2.59375 0l2.03125 -9.640625q0.296875 -1.40625 0.296875 -2.078125q0 -0.75 -0.53125 -1.21875q-0.515625 -0.484375 -1.5 -0.484375q-2.0 0 -3.5625 1.4375q-1.546875 1.4375 -2.265625 4.90625l-1.484375 7.078125l-2.59375 0zm28.146713 -18.0625l0.609375 -2.9375l2.578125 0l-0.609375 2.9375l-2.578125 0zm-3.78125 18.0625l3.171875 -15.203125l2.59375 0l-3.171875 15.203125l-2.59375 0zm12.672028 -2.109375l-0.421875 2.125q-0.9375 0.234375 -1.8125 0.234375q-1.546875 0 -2.46875 -0.75q-0.6875 -0.578125 -0.6875 -1.5625q0 -0.5 0.375 -2.3125l1.84375 -8.828125l-2.046875 0l0.421875 -2.0l2.046875 0l0.78125 -3.75l2.96875 -1.78125l-1.15625 5.53125l2.546875 0l-0.421875 2.0l-2.546875 0l-1.75 8.40625q-0.328125 1.609375 -0.328125 1.921875q0 0.453125 0.25 0.703125q0.265625 0.234375 0.875 0.234375q0.859375 0 1.53125 -0.171875zm2.3358002 -3.09375l2.59375 -0.15625q0 1.125 0.34375 1.921875q0.34375 0.78125 1.265625 1.28125q0.921875 0.5 2.15625 0.5q1.71875 0 2.578125 -0.6875q0.859375 -0.6875 0.859375 -1.625q0 -0.671875 -0.515625 -1.265625q-0.53125 -0.609375 -2.59375 -1.484375q-2.046875 -0.890625 -2.625 -1.25q-0.953125 -0.578125 -1.453125 -1.375q-0.484375 -0.796875 -0.484375 -1.828125q0 -1.796875 1.4375 -3.078125q1.4375 -1.296875 4.015625 -1.296875q2.859375 0 4.359375 1.328125q1.5 1.3125 1.546875 3.484375l-2.53125 0.171875q-0.0625 -1.375 -0.984375 -2.171875q-0.90625 -0.8125 -2.578125 -0.8125q-1.34375 0 -2.09375 0.625q-0.75 0.609375 -0.75 1.328125q0 0.703125 0.65625 1.25q0.421875 0.375 2.21875 1.15625q2.96875 1.28125 3.75 2.03125q1.234375 1.1875 1.234375 2.890625q0 1.125 -0.703125 2.21875q-0.6875 1.09375 -2.125 1.75q-1.421875 0.640625 -3.34375 0.640625q-2.640625 0 -4.484375 -1.296875q-1.859375 -1.3125 -1.75 -4.25zm32.827988 -11.890625l-0.625 2.9375l-2.953125 0l0.546875 -2.578125q0.46875 -2.3125 1.484375 -3.375q1.03125 -1.078125 2.421875 -1.25l-0.21875 1.140625q-1.6875 0.453125 -2.265625 3.125l1.609375 0zm-4.578125 0l-0.609375 2.9375l-2.953125 0l0.546875 -2.578125q0.46875 -2.3125 1.484375 -3.375q1.03125 -1.078125 2.421875 -1.25l-0.234375 1.140625q-1.671875 0.453125 -2.25 3.125l1.59375 0zm4.0789948 17.09375l4.390625 -21.0l2.59375 0l-1.5625 7.515625q1.234375 -1.140625 2.234375 -1.59375q1.0 -0.46875 2.09375 -0.46875q2.125 0 3.546875 1.59375q1.421875 1.578125 1.421875 4.609375q0 2.03125 -0.578125 3.703125q-0.5625 1.671875 -1.40625 2.8125q-0.84375 1.140625 -1.75 1.828125q-0.890625 0.671875 -1.84375 1.0q-0.9375 0.34375 -1.8125 0.34375q-1.515625 0 -2.65625 -0.796875q-1.140625 -0.796875 -1.78125 -2.421875l-0.609375 2.875l-2.28125 0zm3.84375 -6.25l-0.015625 0.5q0 1.9375 0.921875 2.953125q0.9375 1.015625 2.328125 1.015625q1.359375 0 2.5 -0.953125q1.140625 -0.953125 1.859375 -2.96875q0.734375 -2.015625 0.734375 -3.71875q0 -1.921875 -0.921875 -2.984375q-0.921875 -1.0625 -2.28125 -1.0625q-1.40625 0 -2.578125 1.09375q-1.171875 1.078125 -1.953125 3.328125q-0.59375 1.671875 -0.59375 2.796875zm12.935913 0.484375q0 -4.453125 2.609375 -7.375q2.171875 -2.40625 5.671875 -2.40625q2.75 0 4.4375 1.71875q1.6875 1.71875 1.6875 4.640625q0 2.609375 -1.0625 4.875q-1.0625 2.25 -3.015625 3.453125q-1.953125 1.203125 -4.125 1.203125q-1.765625 0 -3.21875 -0.75q-1.453125 -0.765625 -2.21875 -2.15625q-0.765625 -1.390625 -0.765625 -3.203125zm2.59375 -0.265625q0 2.15625 1.03125 3.265625q1.03125 1.109375 2.609375 1.109375q0.828125 0 1.640625 -0.328125q0.828125 -0.34375 1.53125 -1.03125q0.703125 -0.6875 1.1875 -1.5625q0.5 -0.890625 0.796875 -1.90625q0.453125 -1.421875 0.453125 -2.71875q0 -2.0625 -1.046875 -3.203125q-1.03125 -1.140625 -2.609375 -1.140625q-1.21875 0 -2.21875 0.578125q-1.0 0.578125 -1.8125 1.703125q-0.8125 1.109375 -1.1875 2.59375q-0.375 1.484375 -0.375 2.640625zm12.232788 6.03125l6.625 -7.71875l-3.796875 -7.484375l2.859375 0l1.296875 2.703125q0.703125 1.515625 1.28125 2.90625l4.390625 -5.609375l3.15625 0l-6.390625 7.6875l3.84375 7.515625l-2.859375 0l-1.53125 -3.09375q-0.484375 -0.984375 -1.09375 -2.453125l-4.53125 5.546875l-3.25 0zm18.664062 -17.96875l0.609375 -2.9375l2.953125 0l-0.53125 2.578125q-0.484375 2.296875 -1.515625 3.375q-1.015625 1.0625 -2.40625 1.234375l0.25 -1.125q1.6875 -0.484375 2.25 -3.125l-1.609375 0zm4.71875 0l0.625 -2.9375l2.953125 0l-0.546875 2.578125q-0.46875 2.296875 -1.5 3.375q-1.03125 1.0625 -2.40625 1.234375l0.21875 -1.125q1.6875 -0.484375 2.265625 -3.125l-1.609375 0zm6.9071198 -3.390625q2.265625 4.9375 2.265625 10.125q0 3.46875 -0.90625 6.453125q-0.90625 2.984375 -2.78125 5.90625q-1.234375 1.953125 -3.9375 5.046875l-2.015625 0q1.65625 -1.796875 3.53125 -5.0625q1.890625 -3.25 2.71875 -6.375q0.84375 -3.125 0.84375 -6.3125q0 -4.71875 -1.65625 -9.78125l1.9375 0z" fill-rule="nonzero"/><path fill="#000000" fill-opacity="0.0" d="m340.1395 415.96796l231.18106 0l0 91.46454l-231.18106 0z" fill-rule="evenodd"/><path fill="#666666" d="m350.85825 453.12793q0.40625 -1.875 1.109375 -3.140625q0.703125 -1.265625 1.875 -2.40625q1.1875 -1.140625 4.53125 -3.8125q2.03125 -1.625 2.78125 -2.390625q1.078125 -1.125 1.5625 -2.203125q0.328125 -0.71875 0.328125 -1.578125q0 -1.453125 -1.03125 -2.453125q-1.015625 -1.015625 -2.5 -1.015625q-1.484375 0 -2.59375 1.03125q-1.09375 1.015625 -1.5625 3.28125l-2.53125 -0.375q0.359375 -2.796875 2.15625 -4.40625q1.796875 -1.609375 4.484375 -1.609375q1.78125 0 3.234375 0.75q1.453125 0.734375 2.1875 2.09375q0.734375 1.34375 0.734375 2.765625q0 2.09375 -1.484375 4.03125q-0.921875 1.203125 -5.390625 4.734375q-1.921875 1.515625 -2.859375 2.5q-0.9375 0.96875 -1.40625 1.828125l9.390625 0l-0.5 2.375l-12.515625 0zm15.560913 0l3.1875 -15.203125l2.34375 0l-0.5625 2.640625q1.53125 -1.5625 2.859375 -2.265625q1.34375 -0.71875 2.734375 -0.71875q1.84375 0 2.890625 1.0q1.0625 1.0 1.0625 2.671875q0 0.84375 -0.375 2.671875l-1.9375 9.203125l-2.59375 0l2.03125 -9.640625q0.296875 -1.40625 0.296875 -2.078125q0 -0.75 -0.53125 -1.21875q-0.515625 -0.484375 -1.5 -0.484375q-2.0 0 -3.5625 1.4375q-1.546875 1.4375 -2.265625 4.90625l-1.484375 7.078125l-2.59375 0zm26.576538 -2.203125q-2.234375 2.546875 -4.640625 2.546875q-2.171875 0 -3.609375 -1.59375q-1.4375 -1.59375 -1.4375 -4.640625q0 -2.765625 1.140625 -5.0625q1.140625 -2.3125 2.84375 -3.453125q1.71875 -1.140625 3.4375 -1.140625q2.828125 0 4.28125 2.734375l1.71875 -8.1875l2.578125 0l-4.390625 21.0l-2.390625 0l0.46875 -2.203125zm-7.109375 -4.171875q0 1.59375 0.3125 2.515625q0.3125 0.90625 1.0625 1.515625q0.765625 0.609375 1.828125 0.609375q1.765625 0 3.203125 -1.828125q1.90625 -2.4375 1.90625 -6.015625q0 -1.8125 -0.953125 -2.828125q-0.9375 -1.015625 -2.359375 -1.015625q-0.9375 0 -1.703125 0.421875q-0.765625 0.40625 -1.515625 1.40625q-0.75 1.0 -1.265625 2.53125q-0.515625 1.53125 -0.515625 2.6875zm21.099823 6.375l4.390625 -21.0l2.59375 0l-4.390625 21.0l-2.59375 0zm10.406403 -18.0625l0.609375 -2.9375l2.578125 0l-0.609375 2.9375l-2.578125 0zm-3.78125 18.0625l3.171875 -15.203125l2.59375 0l-3.171875 15.203125l-2.59375 0zm6.8595276 -5.203125l2.59375 -0.15625q0 1.125 0.34375 1.921875q0.34375 0.78125 1.265625 1.28125q0.921875 0.5 2.15625 0.5q1.71875 0 2.578125 -0.6875q0.859375 -0.6875 0.859375 -1.625q0 -0.671875 -0.515625 -1.265625q-0.53125 -0.609375 -2.59375 -1.484375q-2.046875 -0.890625 -2.625 -1.25q-0.953125 -0.578125 -1.453125 -1.375q-0.484375 -0.796875 -0.484375 -1.828125q0 -1.796875 1.4375 -3.078125q1.4375 -1.296875 4.015625 -1.296875q2.859375 0 4.359375 1.328125q1.5 1.3125 1.546875 3.484375l-2.53125 0.171875q-0.0625 -1.375 -0.984375 -2.171875q-0.90625 -0.8125 -2.578125 -0.8125q-1.34375 0 -2.09375 0.625q-0.75 0.609375 -0.75 1.328125q0 0.703125 0.65625 1.25q0.421875 0.375 2.21875 1.15625q2.96875 1.28125 3.75 2.03125q1.234375 1.1875 1.234375 2.890625q0 1.125 -0.703125 2.21875q-0.6875 1.09375 -2.125 1.75q-1.421875 0.640625 -3.34375 0.640625q-2.640625 0 -4.484375 -1.296875q-1.859375 -1.3125 -1.75 -4.25zm20.476562 3.09375l-0.421875 2.125q-0.9375 0.234375 -1.8125 0.234375q-1.546875 0 -2.46875 -0.75q-0.6875 -0.578125 -0.6875 -1.5625q0 -0.5 0.375 -2.3125l1.84375 -8.828125l-2.046875 0l0.421875 -2.0l2.046875 0l0.78125 -3.75l2.96875 -1.78125l-1.15625 5.53125l2.546875 0l-0.421875 2.0l-2.546875 0l-1.75 8.40625q-0.328125 1.609375 -0.328125 1.921875q0 0.453125 0.25 0.703125q0.265625 0.234375 0.875 0.234375q0.859375 0 1.53125 -0.171875zm21.405975 -3.0625l2.53125 0.265625q-0.546875 1.875 -2.515625 3.5625q-1.953125 1.6875 -4.65625 1.6875q-1.6875 0 -3.09375 -0.78125q-1.40625 -0.78125 -2.15625 -2.265625q-0.734375 -1.5 -0.734375 -3.390625q0 -2.5 1.15625 -4.84375q1.15625 -2.34375 2.984375 -3.46875q1.828125 -1.140625 3.96875 -1.140625q2.71875 0 4.34375 1.6875q1.625 1.6875 1.625 4.609375q0 1.109375 -0.203125 2.296875l-11.1875 0q-0.0625 0.4375 -0.0625 0.796875q0 2.125 0.96875 3.25q0.984375 1.125 2.40625 1.125q1.328125 0 2.609375 -0.859375q1.296875 -0.875 2.015625 -2.53125zm-7.53125 -3.765625l8.53125 0q0.015625 -0.40625 0.015625 -0.578125q0 -1.9375 -0.96875 -2.96875q-0.96875 -1.046875 -2.5 -1.046875q-1.671875 0 -3.046875 1.15625q-1.359375 1.140625 -2.03125 3.4375zm12.467163 8.9375l4.390625 -21.0l2.59375 0l-4.390625 21.0l-2.59375 0zm17.890778 -5.171875l2.53125 0.265625q-0.546875 1.875 -2.515625 3.5625q-1.953125 1.6875 -4.65625 1.6875q-1.6875 0 -3.09375 -0.78125q-1.40625 -0.78125 -2.15625 -2.265625q-0.734375 -1.5 -0.734375 -3.390625q0 -2.5 1.15625 -4.84375q1.15625 -2.34375 2.984375 -3.46875q1.828125 -1.140625 3.96875 -1.140625q2.71875 0 4.34375 1.6875q1.625 1.6875 1.625 4.609375q0 1.109375 -0.203125 2.296875l-11.1875 0q-0.0625 0.4375 -0.0625 0.796875q0 2.125 0.96875 3.25q0.984375 1.125 2.40625 1.125q1.328125 0 2.609375 -0.859375q1.296875 -0.875 2.015625 -2.53125zm-7.53125 -3.765625l8.53125 0q0.015625 -0.40625 0.015625 -0.578125q0 -1.9375 -0.96875 -2.96875q-0.96875 -1.046875 -2.5 -1.046875q-1.671875 0 -3.046875 1.15625q-1.359375 1.140625 -2.03125 3.4375zm12.654663 8.9375l3.1875 -15.203125l2.59375 0l-0.53125 2.5q1.4375 -1.625 2.578125 -2.234375q1.140625 -0.609375 2.46875 -0.609375q1.421875 0 2.375 0.75q0.953125 0.75 1.25 2.09375q1.15625 -1.4375 2.4375 -2.140625q1.296875 -0.703125 2.703125 -0.703125q1.90625 0 2.859375 0.90625q0.953125 0.890625 0.953125 2.53125q0 0.703125 -0.328125 2.3125l-2.046875 9.796875l-2.59375 0l2.09375 -10.046875q0.265625 -1.234375 0.265625 -1.765625q0 -0.75 -0.46875 -1.171875q-0.46875 -0.4375 -1.328125 -0.4375q-1.15625 0 -2.359375 0.703125q-1.203125 0.703125 -1.875 1.84375q-0.671875 1.140625 -1.171875 3.5l-1.546875 7.375l-2.59375 0l2.15625 -10.265625q0.234375 -1.046875 0.234375 -1.484375q0 -0.75 -0.46875 -1.203125q-0.46875 -0.46875 -1.21875 -0.46875q-1.09375 0 -2.3125 0.703125q-1.203125 0.703125 -1.96875 1.953125q-0.75 1.25 -1.234375 3.578125l-1.515625 7.1875l-2.59375 0zm35.618042 -5.171875l2.53125 0.265625q-0.546875 1.875 -2.515625 3.5625q-1.953125 1.6875 -4.65625 1.6875q-1.6875 0 -3.09375 -0.78125q-1.40625 -0.78125 -2.15625 -2.265625q-0.734375 -1.5 -0.734375 -3.390625q0 -2.5 1.15625 -4.84375q1.15625 -2.34375 2.984375 -3.46875q1.828125 -1.140625 3.96875 -1.140625q2.71875 0 4.34375 1.6875q1.625 1.6875 1.625 4.609375q0 1.109375 -0.203125 2.296875l-11.1875 0q-0.0625 0.4375 -0.0625 0.796875q0 2.125 0.96875 3.25q0.984375 1.125 2.40625 1.125q1.328125 0 2.609375 -0.859375q1.296875 -0.875 2.015625 -2.53125zm-7.53125 -3.765625l8.53125 0q0.015625 -0.40625 0.015625 -0.578125q0 -1.9375 -0.96875 -2.96875q-0.96875 -1.046875 -2.5 -1.046875q-1.671875 0 -3.046875 1.15625q-1.359375 1.140625 -2.03125 3.4375zm12.670288 8.9375l3.1875 -15.203125l2.34375 0l-0.5625 2.640625q1.53125 -1.5625 2.859375 -2.265625q1.34375 -0.71875 2.734375 -0.71875q1.84375 0 2.890625 1.0q1.0625 1.0 1.0625 2.671875q0 0.84375 -0.375 2.671875l-1.9375 9.203125l-2.59375 0l2.03125 -9.640625q0.296875 -1.40625 0.296875 -2.078125q0 -0.75 -0.53125 -1.21875q-0.515625 -0.484375 -1.5 -0.484375q-2.0 0 -3.5625 1.4375q-1.546875 1.4375 -2.265625 4.90625l-1.484375 7.078125l-2.59375 0zm22.373413 -2.109375l-0.421875 2.125q-0.9375 0.234375 -1.8125 0.234375q-1.546875 0 -2.46875 -0.75q-0.6875 -0.578125 -0.6875 -1.5625q0 -0.5 0.375 -2.3125l1.84375 -8.828125l-2.046875 0l0.421875 -2.0l2.046875 0l0.78125 -3.75l2.96875 -1.78125l-1.15625 5.53125l2.546875 0l-0.421875 2.0l-2.546875 0l-1.75 8.40625q-0.328125 1.609375 -0.328125 1.921875q0 0.453125 0.25 0.703125q0.265625 0.234375 0.875 0.234375q0.859375 0 1.53125 -0.171875z" fill-rule="nonzero"/><path fill="#666666" d="m353.85825 494.29984q-2.234375 -4.921875 -2.234375 -10.125q0 -3.46875 0.90625 -6.453125q0.90625 -2.984375 2.765625 -5.90625q1.234375 -1.953125 3.9375 -5.046875l2.015625 0q-1.671875 1.796875 -3.546875 5.046875q-1.859375 3.25 -2.703125 6.390625q-0.84375 3.140625 -0.84375 6.296875q0 4.734375 1.640625 9.796875l-1.9375 0zm9.7039795 -24.234375l0.609375 -2.9375l2.578125 0l-0.609375 2.9375l-2.578125 0zm-3.78125 18.0625l3.171875 -15.203125l2.59375 0l-3.171875 15.203125l-2.59375 0zm6.6095276 0l3.1875 -15.203125l2.34375 0l-0.5625 2.640625q1.53125 -1.5625 2.859375 -2.265625q1.34375 -0.71875 2.734375 -0.71875q1.84375 0 2.890625 1.0q1.0625 1.0 1.0625 2.671875q0 0.84375 -0.375 2.671875l-1.9375 9.203125l-2.59375 0l2.03125 -9.640625q0.296875 -1.40625 0.296875 -2.078125q0 -0.75 -0.53125 -1.21875q-0.515625 -0.484375 -1.5 -0.484375q-2.0 0 -3.5625 1.4375q-1.546875 1.4375 -2.265625 4.90625l-1.484375 7.078125l-2.59375 0zm28.146729 -18.0625l0.609375 -2.9375l2.578125 0l-0.609375 2.9375l-2.578125 0zm-3.78125 18.0625l3.171875 -15.203125l2.59375 0l-3.171875 15.203125l-2.59375 0zm12.672028 -2.109375l-0.421875 2.125q-0.9375 0.234375 -1.8125 0.234375q-1.546875 0 -2.46875 -0.75q-0.6875 -0.578125 -0.6875 -1.5625q0 -0.5 0.375 -2.3125l1.84375 -8.828125l-2.046875 0l0.421875 -2.0l2.046875 0l0.78125 -3.75l2.96875 -1.78125l-1.15625 5.53125l2.546875 0l-0.421875 2.0l-2.546875 0l-1.75 8.40625q-0.328125 1.609375 -0.328125 1.921875q0 0.453125 0.25 0.703125q0.265625 0.234375 0.875 0.234375q0.859375 0 1.53125 -0.171875zm2.335785 -3.09375l2.59375 -0.15625q0 1.125 0.34375 1.921875q0.34375 0.78125 1.265625 1.28125q0.921875 0.5 2.15625 0.5q1.71875 0 2.578125 -0.6875q0.859375 -0.6875 0.859375 -1.625q0 -0.671875 -0.515625 -1.265625q-0.53125 -0.609375 -2.59375 -1.484375q-2.046875 -0.890625 -2.625 -1.25q-0.953125 -0.578125 -1.453125 -1.375q-0.484375 -0.796875 -0.484375 -1.828125q0 -1.796875 1.4375 -3.078125q1.4375 -1.296875 4.015625 -1.296875q2.859375 0 4.359375 1.328125q1.5 1.3125 1.546875 3.484375l-2.53125 0.171875q-0.0625 -1.375 -0.984375 -2.171875q-0.90625 -0.8125 -2.578125 -0.8125q-1.34375 0 -2.09375 0.625q-0.75 0.609375 -0.75 1.328125q0 0.703125 0.65625 1.25q0.421875 0.375 2.21875 1.15625q2.96875 1.28125 3.75 2.03125q1.234375 1.1875 1.234375 2.890625q0 1.125 -0.703125 2.21875q-0.6875 1.09375 -2.125 1.75q-1.421875 0.640625 -3.34375 0.640625q-2.640625 0 -4.484375 -1.296875q-1.859375 -1.3125 -1.75 -4.25zm32.828003 -11.890625l-0.625 2.9375l-2.953125 0l0.546875 -2.578125q0.46875 -2.3125 1.484375 -3.375q1.03125 -1.078125 2.421875 -1.25l-0.21875 1.140625q-1.6875 0.453125 -2.265625 3.125l1.609375 0zm-4.578125 0l-0.609375 2.9375l-2.953125 0l0.546875 -2.578125q0.46875 -2.3125 1.484375 -3.375q1.03125 -1.078125 2.421875 -1.25l-0.234375 1.140625q-1.671875 0.453125 -2.25 3.125l1.59375 0zm4.0789795 17.09375l4.390625 -21.0l2.59375 0l-1.5625 7.515625q1.234375 -1.140625 2.234375 -1.59375q1.0 -0.46875 2.09375 -0.46875q2.125 0 3.546875 1.59375q1.421875 1.578125 1.421875 4.609375q0 2.03125 -0.578125 3.703125q-0.5625 1.671875 -1.40625 2.8125q-0.84375 1.140625 -1.75 1.828125q-0.890625 0.671875 -1.84375 1.0q-0.9375 0.34375 -1.8125 0.34375q-1.515625 0 -2.65625 -0.796875q-1.140625 -0.796875 -1.78125 -2.421875l-0.609375 2.875l-2.28125 0zm3.84375 -6.25l-0.015625 0.5q0 1.9375 0.921875 2.953125q0.9375 1.015625 2.328125 1.015625q1.359375 0 2.5 -0.953125q1.140625 -0.953125 1.859375 -2.96875q0.734375 -2.015625 0.734375 -3.71875q0 -1.921875 -0.921875 -2.984375q-0.921875 -1.0625 -2.28125 -1.0625q-1.40625 0 -2.578125 1.09375q-1.171875 1.078125 -1.953125 3.328125q-0.59375 1.671875 -0.59375 2.796875zm12.935913 0.484375q0 -4.453125 2.609375 -7.375q2.171875 -2.40625 5.671875 -2.40625q2.75 0 4.4375 1.71875q1.6875 1.71875 1.6875 4.640625q0 2.609375 -1.0625 4.875q-1.0625 2.25 -3.015625 3.453125q-1.953125 1.203125 -4.125 1.203125q-1.765625 0 -3.21875 -0.75q-1.453125 -0.765625 -2.21875 -2.15625q-0.765625 -1.390625 -0.765625 -3.203125zm2.59375 -0.265625q0 2.15625 1.03125 3.265625q1.03125 1.109375 2.609375 1.109375q0.828125 0 1.640625 -0.328125q0.828125 -0.34375 1.53125 -1.03125q0.703125 -0.6875 1.1875 -1.5625q0.5 -0.890625 0.796875 -1.90625q0.453125 -1.421875 0.453125 -2.71875q0 -2.0625 -1.046875 -3.203125q-1.03125 -1.140625 -2.609375 -1.140625q-1.21875 0 -2.21875 0.578125q-1.0 0.578125 -1.8125 1.703125q-0.8125 1.109375 -1.1875 2.59375q-0.375 1.484375 -0.375 2.640625zm12.232788 6.03125l6.625 -7.71875l-3.796875 -7.484375l2.859375 0l1.296875 2.703125q0.703125 1.515625 1.28125 2.90625l4.390625 -5.609375l3.15625 0l-6.390625 7.6875l3.84375 7.515625l-2.859375 0l-1.53125 -3.09375q-0.484375 -0.984375 -1.09375 -2.453125l-4.53125 5.546875l-3.25 0zm18.664062 -17.96875l0.609375 -2.9375l2.953125 0l-0.53125 2.578125q-0.484375 2.296875 -1.515625 3.375q-1.015625 1.0625 -2.40625 1.234375l0.25 -1.125q1.6875 -0.484375 2.25 -3.125l-1.609375 0zm4.71875 0l0.625 -2.9375l2.953125 0l-0.546875 2.578125q-0.46875 2.296875 -1.5 3.375q-1.03125 1.0625 -2.40625 1.234375l0.21875 -1.125q1.6875 -0.484375 2.265625 -3.125l-1.609375 0zm6.907135 -3.390625q2.265625 4.9375 2.265625 10.125q0 3.46875 -0.90625 6.453125q-0.90625 2.984375 -2.78125 5.90625q-1.234375 1.953125 -3.9375 5.046875l-2.015625 0q1.65625 -1.796875 3.53125 -5.0625q1.890625 -3.25 2.71875 -6.375q0.84375 -3.125 0.84375 -6.3125q0 -4.71875 -1.65625 -9.78125l1.9375 0z" fill-rule="nonzero"/><path fill="#000000" fill-opacity="0.0" d="m143.03181 148.75009c-26.886208 19.203354 -21.392616 69.36023 -6.59317 98.90027" fill-rule="evenodd"/><path stroke="#999999" stroke-width="3.0" stroke-linejoin="round" stroke-linecap="butt" d="m143.03181 148.75009c-13.443115 9.601669 -18.79126 26.941742 -18.928703 45.573868c-0.068725586 9.316071 1.1652298 18.955185 3.3413315 28.111511c1.0880432 4.5781403 2.4116364 9.035645 3.9256897 13.271698c0.18925476 0.5295105 0.381485 1.055542 0.5765991 1.5779419c0.0975647 0.2611847 0.19584656 0.5214691 0.29484558 0.7808075l0.0655365 0.16984558" fill-rule="evenodd"/><path fill="#999999" stroke="#999999" stroke-width="3.0" stroke-linecap="butt" d="m132.30711 238.23576l-4.445114 -1.7336121l6.8142395 7.132202l-0.6355133 -9.843704z" fill-rule="evenodd"/><path fill="#000000" fill-opacity="0.0" d="m636.13947 415.96796l231.18109 0l0 91.46454l-231.18109 0z" fill-rule="evenodd"/><path fill="#666666" d="m646.74884 447.62793l2.515625 -0.3125q0.28125 2.203125 1.265625 3.15625q0.984375 0.953125 2.578125 0.953125q1.90625 0 3.296875 -1.375q1.40625 -1.375 1.40625 -3.15625q0 -1.546875 -1.046875 -2.546875q-1.046875 -1.015625 -2.796875 -1.015625q-0.203125 0 -0.84375 0.0625l0.453125 -2.171875q0.375 0.0625 0.71875 0.0625q2.21875 0 3.40625 -1.078125q1.203125 -1.078125 1.203125 -2.65625q0 -1.453125 -0.984375 -2.4375q-0.984375 -0.984375 -2.40625 -0.984375q-1.375 0 -2.484375 1.015625q-1.109375 1.0 -1.4375 2.84375l-2.546875 -0.515625q0.640625 -2.59375 2.421875 -4.0q1.796875 -1.421875 4.234375 -1.421875q2.578125 0 4.171875 1.5625q1.609375 1.5625 1.609375 3.828125q0 1.671875 -0.875 2.90625q-0.859375 1.234375 -2.59375 2.0625q1.234375 0.71875 1.84375 1.75q0.609375 1.03125 0.609375 2.359375q0 2.828125 -2.125 4.90625q-2.109375 2.0625 -5.046875 2.0625q-2.84375 0 -4.609375 -1.59375q-1.75 -1.59375 -1.9375 -4.265625zm15.670288 5.5l3.1875 -15.203125l2.28125 0l-0.640625 3.109375q1.171875 -1.765625 2.296875 -2.609375q1.125 -0.84375 2.296875 -0.84375q0.78125 0 1.90625 0.546875l-1.0625 2.40625q-0.671875 -0.484375 -1.46875 -0.484375q-1.359375 0 -2.796875 1.53125q-1.421875 1.515625 -2.25 5.453125l-1.28125 6.09375l-2.46875 0zm20.032166 -2.203125q-2.234375 2.546875 -4.640625 2.546875q-2.171875 0 -3.609375 -1.59375q-1.4375 -1.59375 -1.4375 -4.640625q0 -2.765625 1.140625 -5.0625q1.140625 -2.3125 2.84375 -3.453125q1.71875 -1.140625 3.4375 -1.140625q2.828125 0 4.28125 2.734375l1.71875 -8.1875l2.578125 0l-4.390625 21.0l-2.390625 0l0.46875 -2.203125zm-7.109375 -4.171875q0 1.59375 0.3125 2.515625q0.3125 0.90625 1.0625 1.515625q0.765625 0.609375 1.828125 0.609375q1.765625 0 3.203125 -1.828125q1.90625 -2.4375 1.90625 -6.015625q0 -1.8125 -0.953125 -2.828125q-0.9375 -1.015625 -2.359375 -1.015625q-0.9375 0 -1.703125 0.421875q-0.765625 0.40625 -1.515625 1.40625q-0.75 1.0 -1.265625 2.53125q-0.515625 1.53125 -0.515625 2.6875zm21.099792 6.375l4.390625 -21.0l2.59375 0l-4.390625 21.0l-2.59375 0zm10.406433 -18.0625l0.609375 -2.9375l2.578125 0l-0.609375 2.9375l-2.578125 0zm-3.78125 18.0625l3.171875 -15.203125l2.59375 0l-3.171875 15.203125l-2.59375 0zm6.859497 -5.203125l2.59375 -0.15625q0 1.125 0.34375 1.921875q0.34375 0.78125 1.265625 1.28125q0.921875 0.5 2.15625 0.5q1.71875 0 2.578125 -0.6875q0.859375 -0.6875 0.859375 -1.625q0 -0.671875 -0.515625 -1.265625q-0.53125 -0.609375 -2.59375 -1.484375q-2.046875 -0.890625 -2.625 -1.25q-0.953125 -0.578125 -1.453125 -1.375q-0.484375 -0.796875 -0.484375 -1.828125q0 -1.796875 1.4375 -3.078125q1.4375 -1.296875 4.015625 -1.296875q2.859375 0 4.359375 1.328125q1.5 1.3125 1.546875 3.484375l-2.53125 0.171875q-0.0625 -1.375 -0.984375 -2.171875q-0.90625 -0.8125 -2.578125 -0.8125q-1.34375 0 -2.09375 0.625q-0.75 0.609375 -0.75 1.328125q0 0.703125 0.65625 1.25q0.421875 0.375 2.21875 1.15625q2.96875 1.28125 3.75 2.03125q1.234375 1.1875 1.234375 2.890625q0 1.125 -0.703125 2.21875q-0.6875 1.09375 -2.125 1.75q-1.421875 0.640625 -3.34375 0.640625q-2.640625 0 -4.484375 -1.296875q-1.859375 -1.3125 -1.75 -4.25zm20.476562 3.09375l-0.421875 2.125q-0.9375 0.234375 -1.8125 0.234375q-1.546875 0 -2.46875 -0.75q-0.6875 -0.578125 -0.6875 -1.5625q0 -0.5 0.375 -2.3125l1.84375 -8.828125l-2.046875 0l0.421875 -2.0l2.046875 0l0.78125 -3.75l2.96875 -1.78125l-1.15625 5.53125l2.546875 0l-0.421875 2.0l-2.546875 0l-1.75 8.40625q-0.328125 1.609375 -0.328125 1.921875q0 0.453125 0.25 0.703125q0.265625 0.234375 0.875 0.234375q0.859375 0 1.53125 -0.171875zm21.406006 -3.0625l2.53125 0.265625q-0.546875 1.875 -2.515625 3.5625q-1.953125 1.6875 -4.65625 1.6875q-1.6875 0 -3.09375 -0.78125q-1.40625 -0.78125 -2.15625 -2.265625q-0.734375 -1.5 -0.734375 -3.390625q0 -2.5 1.15625 -4.84375q1.15625 -2.34375 2.984375 -3.46875q1.828125 -1.140625 3.96875 -1.140625q2.71875 0 4.34375 1.6875q1.625 1.6875 1.625 4.609375q0 1.109375 -0.203125 2.296875l-11.1875 0q-0.0625 0.4375 -0.0625 0.796875q0 2.125 0.96875 3.25q0.984375 1.125 2.40625 1.125q1.328125 0 2.609375 -0.859375q1.296875 -0.875 2.015625 -2.53125zm-7.53125 -3.765625l8.53125 0q0.015625 -0.40625 0.015625 -0.578125q0 -1.9375 -0.96875 -2.96875q-0.96875 -1.046875 -2.5 -1.046875q-1.671875 0 -3.046875 1.15625q-1.359375 1.140625 -2.03125 3.4375zm12.467163 8.9375l4.390625 -21.0l2.59375 0l-4.390625 21.0l-2.59375 0zm17.890747 -5.171875l2.53125 0.265625q-0.546875 1.875 -2.515625 3.5625q-1.953125 1.6875 -4.65625 1.6875q-1.6875 0 -3.09375 -0.78125q-1.40625 -0.78125 -2.15625 -2.265625q-0.734375 -1.5 -0.734375 -3.390625q0 -2.5 1.15625 -4.84375q1.15625 -2.34375 2.984375 -3.46875q1.828125 -1.140625 3.96875 -1.140625q2.71875 0 4.34375 1.6875q1.625 1.6875 1.625 4.609375q0 1.109375 -0.203125 2.296875l-11.1875 0q-0.0625 0.4375 -0.0625 0.796875q0 2.125 0.96875 3.25q0.984375 1.125 2.40625 1.125q1.328125 0 2.609375 -0.859375q1.296875 -0.875 2.015625 -2.53125zm-7.53125 -3.765625l8.53125 0q0.015625 -0.40625 0.015625 -0.578125q0 -1.9375 -0.96875 -2.96875q-0.96875 -1.046875 -2.5 -1.046875q-1.671875 0 -3.046875 1.15625q-1.359375 1.140625 -2.03125 3.4375zm12.654663 8.9375l3.1875 -15.203125l2.59375 0l-0.53125 2.5q1.4375 -1.625 2.578125 -2.234375q1.140625 -0.609375 2.46875 -0.609375q1.421875 0 2.375 0.75q0.953125 0.75 1.25 2.09375q1.15625 -1.4375 2.4375 -2.140625q1.296875 -0.703125 2.703125 -0.703125q1.90625 0 2.859375 0.90625q0.953125 0.890625 0.953125 2.53125q0 0.703125 -0.328125 2.3125l-2.046875 9.796875l-2.59375 0l2.09375 -10.046875q0.265625 -1.234375 0.265625 -1.765625q0 -0.75 -0.46875 -1.171875q-0.46875 -0.4375 -1.328125 -0.4375q-1.15625 0 -2.359375 0.703125q-1.203125 0.703125 -1.875 1.84375q-0.671875 1.140625 -1.171875 3.5l-1.546875 7.375l-2.59375 0l2.15625 -10.265625q0.234375 -1.046875 0.234375 -1.484375q0 -0.75 -0.46875 -1.203125q-0.46875 -0.46875 -1.21875 -0.46875q-1.09375 0 -2.3125 0.703125q-1.203125 0.703125 -1.96875 1.953125q-0.75 1.25 -1.234375 3.578125l-1.515625 7.1875l-2.59375 0zm35.618103 -5.171875l2.53125 0.265625q-0.546875 1.875 -2.515625 3.5625q-1.953125 1.6875 -4.65625 1.6875q-1.6875 0 -3.09375 -0.78125q-1.40625 -0.78125 -2.15625 -2.265625q-0.734375 -1.5 -0.734375 -3.390625q0 -2.5 1.15625 -4.84375q1.15625 -2.34375 2.984375 -3.46875q1.828125 -1.140625 3.96875 -1.140625q2.71875 0 4.34375 1.6875q1.625 1.6875 1.625 4.609375q0 1.109375 -0.203125 2.296875l-11.1875 0q-0.0625 0.4375 -0.0625 0.796875q0 2.125 0.96875 3.25q0.984375 1.125 2.40625 1.125q1.328125 0 2.609375 -0.859375q1.296875 -0.875 2.015625 -2.53125zm-7.53125 -3.765625l8.53125 0q0.015625 -0.40625 0.015625 -0.578125q0 -1.9375 -0.96875 -2.96875q-0.96875 -1.046875 -2.5 -1.046875q-1.671875 0 -3.046875 1.15625q-1.359375 1.140625 -2.03125 3.4375zm12.670288 8.9375l3.1875 -15.203125l2.34375 0l-0.5625 2.640625q1.53125 -1.5625 2.859375 -2.265625q1.34375 -0.71875 2.734375 -0.71875q1.84375 0 2.890625 1.0q1.0625 1.0 1.0625 2.671875q0 0.84375 -0.375 2.671875l-1.9375 9.203125l-2.59375 0l2.03125 -9.640625q0.296875 -1.40625 0.296875 -2.078125q0 -0.75 -0.53125 -1.21875q-0.515625 -0.484375 -1.5 -0.484375q-2.0 0 -3.5625 1.4375q-1.546875 1.4375 -2.265625 4.90625l-1.484375 7.078125l-2.59375 0zm22.373413 -2.109375l-0.421875 2.125q-0.9375 0.234375 -1.8125 0.234375q-1.546875 0 -2.46875 -0.75q-0.6875 -0.578125 -0.6875 -1.5625q0 -0.5 0.375 -2.3125l1.84375 -8.828125l-2.046875 0l0.421875 -2.0l2.046875 0l0.78125 -3.75l2.96875 -1.78125l-1.15625 5.53125l2.546875 0l-0.421875 2.0l-2.546875 0l-1.75 8.40625q-0.328125 1.609375 -0.328125 1.921875q0 0.453125 0.25 0.703125q0.265625 0.234375 0.875 0.234375q0.859375 0 1.53125 -0.171875z" fill-rule="nonzero"/><path fill="#666666" d="m649.8582 494.29984q-2.234375 -4.921875 -2.234375 -10.125q0 -3.46875 0.90625 -6.453125q0.90625 -2.984375 2.765625 -5.90625q1.234375 -1.953125 3.9375 -5.046875l2.015625 0q-1.671875 1.796875 -3.546875 5.046875q-1.859375 3.25 -2.703125 6.390625q-0.84375 3.140625 -0.84375 6.296875q0 4.734375 1.640625 9.796875l-1.9375 0zm9.704041 -24.234375l0.609375 -2.9375l2.578125 0l-0.609375 2.9375l-2.578125 0zm-3.78125 18.0625l3.171875 -15.203125l2.59375 0l-3.171875 15.203125l-2.59375 0zm6.609497 0l3.1875 -15.203125l2.34375 0l-0.5625 2.640625q1.53125 -1.5625 2.859375 -2.265625q1.34375 -0.71875 2.734375 -0.71875q1.84375 0 2.890625 1.0q1.0625 1.0 1.0625 2.671875q0 0.84375 -0.375 2.671875l-1.9375 9.203125l-2.59375 0l2.03125 -9.640625q0.296875 -1.40625 0.296875 -2.078125q0 -0.75 -0.53125 -1.21875q-0.515625 -0.484375 -1.5 -0.484375q-2.0 0 -3.5625 1.4375q-1.546875 1.4375 -2.265625 4.90625l-1.484375 7.078125l-2.59375 0zm28.146729 -18.0625l0.609375 -2.9375l2.578125 0l-0.609375 2.9375l-2.578125 0zm-3.78125 18.0625l3.171875 -15.203125l2.59375 0l-3.171875 15.203125l-2.59375 0zm12.671997 -2.109375l-0.421875 2.125q-0.9375 0.234375 -1.8125 0.234375q-1.546875 0 -2.46875 -0.75q-0.6875 -0.578125 -0.6875 -1.5625q0 -0.5 0.375 -2.3125l1.84375 -8.828125l-2.046875 0l0.421875 -2.0l2.046875 0l0.78125 -3.75l2.96875 -1.78125l-1.15625 5.53125l2.546875 0l-0.421875 2.0l-2.546875 0l-1.75 8.40625q-0.328125 1.609375 -0.328125 1.921875q0 0.453125 0.25 0.703125q0.265625 0.234375 0.875 0.234375q0.859375 0 1.53125 -0.171875zm2.3358154 -3.09375l2.59375 -0.15625q0 1.125 0.34375 1.921875q0.34375 0.78125 1.265625 1.28125q0.921875 0.5 2.15625 0.5q1.71875 0 2.578125 -0.6875q0.859375 -0.6875 0.859375 -1.625q0 -0.671875 -0.515625 -1.265625q-0.53125 -0.609375 -2.59375 -1.484375q-2.046875 -0.890625 -2.625 -1.25q-0.953125 -0.578125 -1.453125 -1.375q-0.484375 -0.796875 -0.484375 -1.828125q0 -1.796875 1.4375 -3.078125q1.4375 -1.296875 4.015625 -1.296875q2.859375 0 4.359375 1.328125q1.5 1.3125 1.546875 3.484375l-2.53125 0.171875q-0.0625 -1.375 -0.984375 -2.171875q-0.90625 -0.8125 -2.578125 -0.8125q-1.34375 0 -2.09375 0.625q-0.75 0.609375 -0.75 1.328125q0 0.703125 0.65625 1.25q0.421875 0.375 2.21875 1.15625q2.96875 1.28125 3.75 2.03125q1.234375 1.1875 1.234375 2.890625q0 1.125 -0.703125 2.21875q-0.6875 1.09375 -2.125 1.75q-1.421875 0.640625 -3.34375 0.640625q-2.640625 0 -4.484375 -1.296875q-1.859375 -1.3125 -1.75 -4.25zm32.828003 -11.890625l-0.625 2.9375l-2.953125 0l0.546875 -2.578125q0.46875 -2.3125 1.484375 -3.375q1.03125 -1.078125 2.421875 -1.25l-0.21875 1.140625q-1.6875 0.453125 -2.265625 3.125l1.609375 0zm-4.578125 0l-0.609375 2.9375l-2.953125 0l0.546875 -2.578125q0.46875 -2.3125 1.484375 -3.375q1.03125 -1.078125 2.421875 -1.25l-0.234375 1.140625q-1.671875 0.453125 -2.25 3.125l1.59375 0zm4.0789795 17.09375l4.390625 -21.0l2.59375 0l-1.5625 7.515625q1.234375 -1.140625 2.234375 -1.59375q1.0 -0.46875 2.09375 -0.46875q2.125 0 3.546875 1.59375q1.421875 1.578125 1.421875 4.609375q0 2.03125 -0.578125 3.703125q-0.5625 1.671875 -1.40625 2.8125q-0.84375 1.140625 -1.75 1.828125q-0.890625 0.671875 -1.84375 1.0q-0.9375 0.34375 -1.8125 0.34375q-1.515625 0 -2.65625 -0.796875q-1.140625 -0.796875 -1.78125 -2.421875l-0.609375 2.875l-2.28125 0zm3.84375 -6.25l-0.015625 0.5q0 1.9375 0.921875 2.953125q0.9375 1.015625 2.328125 1.015625q1.359375 0 2.5 -0.953125q1.140625 -0.953125 1.859375 -2.96875q0.734375 -2.015625 0.734375 -3.71875q0 -1.921875 -0.921875 -2.984375q-0.921875 -1.0625 -2.28125 -1.0625q-1.40625 0 -2.578125 1.09375q-1.171875 1.078125 -1.953125 3.328125q-0.59375 1.671875 -0.59375 2.796875zm12.935913 0.484375q0 -4.453125 2.609375 -7.375q2.171875 -2.40625 5.671875 -2.40625q2.75 0 4.4375 1.71875q1.6875 1.71875 1.6875 4.640625q0 2.609375 -1.0625 4.875q-1.0625 2.25 -3.015625 3.453125q-1.953125 1.203125 -4.125 1.203125q-1.765625 0 -3.21875 -0.75q-1.453125 -0.765625 -2.21875 -2.15625q-0.765625 -1.390625 -0.765625 -3.203125zm2.59375 -0.265625q0 2.15625 1.03125 3.265625q1.03125 1.109375 2.609375 1.109375q0.828125 0 1.640625 -0.328125q0.828125 -0.34375 1.53125 -1.03125q0.703125 -0.6875 1.1875 -1.5625q0.5 -0.890625 0.796875 -1.90625q0.453125 -1.421875 0.453125 -2.71875q0 -2.0625 -1.046875 -3.203125q-1.03125 -1.140625 -2.609375 -1.140625q-1.21875 0 -2.21875 0.578125q-1.0 0.578125 -1.8125 1.703125q-0.8125 1.109375 -1.1875 2.59375q-0.375 1.484375 -0.375 2.640625zm12.232788 6.03125l6.625 -7.71875l-3.796875 -7.484375l2.859375 0l1.296875 2.703125q0.703125 1.515625 1.28125 2.90625l4.390625 -5.609375l3.15625 0l-6.390625 7.6875l3.84375 7.515625l-2.859375 0l-1.53125 -3.09375q-0.484375 -0.984375 -1.09375 -2.453125l-4.53125 5.546875l-3.25 0zm18.664062 -17.96875l0.609375 -2.9375l2.953125 0l-0.53125 2.578125q-0.484375 2.296875 -1.515625 3.375q-1.015625 1.0625 -2.40625 1.234375l0.25 -1.125q1.6875 -0.484375 2.25 -3.125l-1.609375 0zm4.71875 0l0.625 -2.9375l2.953125 0l-0.546875 2.578125q-0.46875 2.296875 -1.5 3.375q-1.03125 1.0625 -2.40625 1.234375l0.21875 -1.125q1.6875 -0.484375 2.265625 -3.125l-1.609375 0zm6.9071045 -3.390625q2.265625 4.9375 2.265625 10.125q0 3.46875 -0.90625 6.453125q-0.90625 2.984375 -2.78125 5.90625q-1.234375 1.953125 -3.9375 5.046875l-2.015625 0q1.65625 -1.796875 3.53125 -5.0625q1.890625 -3.25 2.71875 -6.375q0.84375 -3.125 0.84375 -6.3125q0 -4.71875 -1.65625 -9.78125l1.9375 0z" fill-rule="nonzero"/><path fill="#000000" fill-opacity="0.0" d="m482.06824 182.58792c-6.38797 15.969925 -27.358826 20.870956 -40.5748 31.879272c-9.074066 7.5582886 -12.592438 20.422287 -15.456696 31.879257" fill-rule="evenodd"/><path stroke="#999999" stroke-width="3.0" stroke-linejoin="round" stroke-linecap="butt" d="m482.06824 182.58792c-6.38797 15.969925 -27.358826 20.870941 -40.5748 31.879272c-4.537018 3.7791595 -7.6851196 8.88472 -10.057007 14.477631c-0.5930176 1.3982239 -1.1374512 2.8269043 -1.6429749 4.272934c-0.25274658 0.72302246 -0.49575806 1.4503632 -0.7302551 2.1804352l-0.3239441 1.0285339" fill-rule="evenodd"/><path fill="#999999" stroke="#999999" stroke-width="3.0" stroke-linecap="butt" d="m428.73926 236.42674l-2.3682861 -4.141922l0.8186035 9.830154l5.69162 -8.056534z" fill-rule="evenodd"/><path fill="#000000" fill-opacity="0.0" d="m636.1391 182.58794c0 29.977097 18.041687 65.784134 48.701782 79.219406" fill-rule="evenodd"/><path stroke="#999999" stroke-width="3.0" stroke-linejoin="round" stroke-linecap="butt" d="m636.1391 182.58795c0 14.988525 4.510437 31.43457 12.8533325 45.81288c4.171509 7.189148 9.301086 13.861374 15.304077 19.575989c3.0014648 2.8573303 6.2213135 5.4752502 9.648926 7.798706c0.42840576 0.29045105 0.8601074 0.57624817 1.295044 0.8573761l0.5281372 0.33724976" fill-rule="evenodd"/><path fill="#999999" stroke="#999999" stroke-width="3.0" stroke-linecap="butt" d="m675.7686 256.97015l-4.564331 1.38974l9.766602 1.3840332l-6.59198 -7.338089z" fill-rule="evenodd"/></g></svg>