<svg version="1.1" viewBox="0.0 0.0 639.8792650918635 400.1469816272966" fill="none" stroke="none" stroke-linecap="square" stroke-miterlimit="10" xmlns:xlink="http://www.w3.org/1999/xlink" xmlns="http://www.w3.org/2000/svg"><clipPath id="p.0"><path d="m0 0l639.8793 0l0 400.14697l-639.8793 0l0 -400.14697z" clip-rule="nonzero"/></clipPath><g clip-path="url(#p.0)"><path fill="#000000" fill-opacity="0.0" d="m0 0l639.8793 0l0 400.14697l-639.8793 0z" fill-rule="evenodd"/><path fill="#000000" fill-opacity="0.0" d="m8.270581 130.96588l562.5827 0l0 140.8819l-562.5827 0z" fill-rule="evenodd"/><path fill="#999999" d="m73.093185 189.56337l0 2.71875q2.34375 -2.296875 4.234375 -3.15625q1.90625 -0.875 4.390625 -0.875q2.109375 0 4.171875 1.03125q2.0625 1.03125 4.03125 3.09375q2.484375 -2.0625 5.03125 -3.0625q2.5625 -1.015625 5.234375 -1.015625q5.34375 0 8.671875 2.859375q4.40625 3.75 4.40625 9.84375l0 21.515625q3.0 0 4.453125 1.359375q1.453125 1.359375 1.453125 3.46875q0 2.109375 -1.453125 3.453125q-1.453125 1.328125 -4.921875 1.328125l-9.140625 0l0 -30.328125q0 -2.203125 -0.796875 -3.046875q-0.796875 -0.84375 -2.4375 -0.84375q-1.59375 0 -2.953125 0.84375q-1.734375 1.171875 -4.21875 4.40625l0 19.359375q3.0 0 4.453125 1.359375q1.453125 1.359375 1.453125 3.46875q0 2.109375 -1.453125 3.453125q-1.453125 1.328125 -4.921875 1.328125l-9.140625 0l0 -30.328125q0 -2.15625 -0.828125 -3.015625q-0.8125 -0.875 -2.453125 -0.875q-1.6875 0 -3.328125 1.0625q-1.640625 1.046875 -3.9375 4.1875l0 19.359375q3.0 0 4.46875 1.359375q1.484375 1.359375 1.484375 3.46875q0 2.109375 -1.484375 3.453125q-1.46875 1.328125 -4.9375 1.328125l-8.671879 0q-3.46875 0 -4.9375 -1.328125q-1.484375 -1.34375 -1.484375 -3.5q0 -2.109375 1.453125 -3.4375q1.453125 -1.34375 4.5 -1.34375l0 -23.34375q-3.046875 0 -4.5 -1.359375q-1.453125 -1.359375 -1.453125 -3.46875q0 -2.109375 1.484375 -3.4375q1.46875 -1.34375 4.9375 -1.34375l9.140629 0zm81.09375 42.5625l0 -2.25q-3.609375 1.921875 -7.96875 2.875q-4.359375 0.96875 -7.921875 0.96875q-7.734375 0 -12.5625 -4.09375q-4.828125 -4.109375 -4.828125 -9.078125q0 -6.046875 6.15625 -11.21875q6.171875 -5.1875 17.046875 -5.1875q4.359375 0 10.078125 0.9375l0 -2.296875q0 -2.15625 -1.859375 -3.515625q-1.84375 -1.359375 -7.046875 -1.359375q-4.265625 0 -11.0625 1.6875q-2.53125 0.609375 -3.9375 0.609375q-1.921875 0 -3.265625 -1.375q-1.328125 -1.390625 -1.328125 -3.546875q0 -1.21875 0.46875 -2.109375q0.46875 -0.890625 1.3125 -1.421875q0.84375 -0.546875 3.515625 -1.296875q3.5625 -0.984375 7.265625 -1.5625q3.703125 -0.59375 6.703125 -0.59375q8.953125 0 13.890625 3.875q4.953125 3.859375 4.953125 10.5625l0 19.78125l1.640625 0q3.46875 0 4.9375 1.34375q1.484375 1.328125 1.484375 3.484375q0 2.109375 -1.484375 3.453125q-1.46875 1.328125 -4.9375 1.328125l-11.25 0zm0 -17.203125q-5.765625 -1.125 -10.640625 -1.125q-5.859375 0 -10.078125 2.859375q-2.625 1.828125 -2.625 3.703125q0 1.359375 1.265625 2.203125q2.34375 1.546875 6.421875 1.546875q3.46875 0 7.84375 -1.359375q4.390625 -1.359375 7.8125 -3.703125l0 -4.125zm46.59375 -15.75l0 19.265625q0 3.09375 1.265625 4.078125q1.96875 1.546875 7.03125 1.546875q7.359375 0 13.59375 -3.140625q2.390625 -1.21875 3.75 -1.21875q1.875 0 3.25 1.40625q1.390625 1.40625 1.390625 3.421875q0 1.875 -1.5 3.234375q-2.296875 2.203125 -9.078125 4.0625q-6.765625 1.84375 -11.40625 1.84375q-8.953125 0 -13.4375 -3.859375q-4.46875 -3.875 -4.46875 -9.5l0 -21.140625l-3.46875 0q-3.46875 0 -4.953125 -1.328125q-1.46875 -1.34375 -1.46875 -3.5q0 -2.109375 1.46875 -3.4375q1.484375 -1.34375 4.953125 -1.34375l3.46875 0l0 -8.671875q0 -3.46875 1.328125 -4.9375q1.34375 -1.484375 3.5 -1.484375q2.109375 0 3.4375 1.484375q1.34375 1.46875 1.34375 4.9375l0 8.671875l17.765625 0q3.46875 0 4.9375 1.34375q1.484375 1.328125 1.484375 3.484375q0 2.109375 -1.484375 3.453125q-1.46875 1.328125 -4.9375 1.328125l-17.765625 0z" fill-rule="nonzero"/><path fill="#ff5454" d="m265.46817 181.079l0 56.4375l5.8125 0q3.46875 0 4.9375 1.3125q1.484375 1.3125 1.484375 3.46875q0 2.15625 -1.484375 3.484375q-1.46875 1.34375 -4.9375 1.34375l-15.42186 0l0 -75.65625l15.374985 0q3.46875 0 4.9375 1.34375q1.484375 1.328125 1.484375 3.484375q0 2.109375 -1.484375 3.453125q-1.46875 1.328125 -4.9375 1.328125l-5.765625 0z" fill-rule="nonzero"/><path fill="#ff9900" d="m334.74942 171.329l-2.15625 10.171875l-11.4375 0l2.15625 -10.171875l11.4375 0zm-2.53125 18.234375l-7.03125 32.953125l11.578125 0q3.1875 0 4.328125 0.984375q1.15625 0.984375 1.15625 2.8125q0 2.90625 -2.8125 4.828125q-1.40625 0.984375 -4.734375 0.984375l-32.71875 0q-3.1875 0 -4.34375 -1.0q-1.140625 -1.015625 -1.140625 -2.796875q0 -2.90625 2.71875 -4.78125q1.5 -1.03125 4.828125 -1.03125l11.53125 0l4.96875 -23.34375l-7.734375 0q-3.1875 0 -4.34375 -1.0q-1.140625 -1.015625 -1.140625 -2.796875q0 -2.8125 2.671875 -4.734375q1.453125 -1.078125 4.875 -1.078125l17.34375 0z" fill-rule="nonzero"/><path fill="#ff5454" d="m373.70255 219.18837l12.84375 0l-13.828125 26.0625q-1.21875 2.296875 -3.046875 2.296875q-1.21875 0 -2.09375 -0.796875q-0.859375 -0.796875 -0.859375 -1.78125q0 -0.703125 0.328125 -1.921875l6.65625 -23.859375z" fill-rule="nonzero"/><path fill="#ff9900" d="m456.15567 171.329l-2.15625 10.171875l-11.484375 0l2.15625 -10.171875l11.484375 0zm-9.84375 27.84375l-19.59375 0q-3.234375 0 -4.390625 -1.0q-1.140625 -1.015625 -1.140625 -2.796875q0 -2.8125 2.671875 -4.734375q1.5 -1.078125 4.875 -1.078125l29.25 0l-9.515625 44.578125q-1.03125 4.96875 -3.9375 8.734375q-2.90625 3.78125 -7.953125 6.546875q-5.03125 2.765625 -10.5625 2.765625l-10.875 0q-3.1875 0 -4.34375 -0.984375q-1.140625 -0.984375 -1.140625 -2.8125q0 -2.859375 2.71875 -4.78125q1.5 -1.03125 4.828125 -1.03125l10.59375 0q4.359375 0 7.328125 -2.375q2.984375 -2.359375 3.734375 -6.0625l7.453125 -34.96875z" fill-rule="nonzero"/><path fill="#ff5454" d="m486.4838 237.5165l0 -56.4375l-5.8125 0q-3.46875 0 -4.953125 -1.328125q-1.46875 -1.34375 -1.46875 -3.453125q0 -2.15625 1.46875 -3.484375q1.484375 -1.34375 4.953125 -1.34375l15.421875 0l0 75.65625l-15.375 0q-3.46875 0 -4.953125 -1.34375q-1.46875 -1.328125 -1.46875 -3.484375q0 -2.109375 1.46875 -3.453125q1.484375 -1.328125 4.953125 -1.328125l5.765625 0z" fill-rule="nonzero"/><path fill="#000000" fill-opacity="0.0" d="m123.02887 252.89503l0.37795258 56.063004" fill-rule="evenodd"/><path stroke="#999999" stroke-width="4.0" stroke-linejoin="round" stroke-linecap="butt" stroke-dasharray="4.0,12.0" d="m123.02887 252.89503l0.37795258 56.063004" fill-rule="evenodd"/><path fill="#000000" fill-opacity="0.0" d="m183.84251 7.461942l157.25984 0l0 94.45669l-157.25984 0z" fill-rule="evenodd"/><path fill="#ff5454" d="m206.58963 38.885067q0 -4.609375 2.5625 -6.828125q2.140625 -1.8437481 5.21875 -1.8437481q3.421875 0 5.59375 2.249998q2.171875 2.234375 2.171875 6.1875q0 3.203125 -0.96875 5.046875q-0.953125 1.828125 -2.796875 2.84375q-1.828125 1.015625 -4.0 1.015625q-3.484375 0 -5.640625 -2.234375q-2.140625 -2.234375 -2.140625 -6.4375zm2.890625 0q0 3.1875 1.390625 4.78125q1.390625 1.578125 3.5 1.578125q2.09375 0 3.484375 -1.59375q1.390625 -1.59375 1.390625 -4.859375q0 -3.078125 -1.40625 -4.65625q-1.390625 -1.59375 -3.46875 -1.59375q-2.109375 0 -3.5 1.578125q-1.390625 1.578125 -1.390625 4.765625zm15.953125 14.65625l0 -22.953123l2.5625 0l0 2.156248q0.90625 -1.2656231 2.046875 -1.8906231q1.140625 -0.640625 2.765625 -0.640625q2.125 0 3.75 1.09375q1.625 1.0937481 2.453125 3.093748q0.828125 1.984375 0.828125 4.359375q0 2.546875 -0.921875 4.59375q-0.90625 2.03125 -2.65625 3.125q-1.734375 1.078125 -3.65625 1.078125q-1.40625 0 -2.53125 -0.59375q-1.109375 -0.59375 -1.828125 -1.5l0 8.078125l-2.8125 0zm2.546875 -14.5625q0 3.203125 1.296875 4.734375q1.296875 1.53125 3.140625 1.53125q1.875 0 3.203125 -1.578125q1.34375 -1.59375 1.34375 -4.921875q0 -3.171875 -1.3125 -4.75q-1.296875 -1.578125 -3.109375 -1.578125q-1.796875 0 -3.1875 1.6875q-1.375 1.671875 -1.375 4.875zm26.609375 2.859375l2.90625 0.359375q-0.6875 2.546875 -2.546875 3.953125q-1.859375 1.40625 -4.75 1.40625q-3.640625 0 -5.78125 -2.234375q-2.125 -2.25 -2.125 -6.296875q0 -4.1875 2.15625 -6.5q2.15625 -2.312498 5.59375 -2.312498q3.328125 0 5.4375 2.265623q2.109375 2.265625 2.109375 6.375q0 0.25 -0.015625 0.75l-12.375 0q0.15625 2.734375 1.546875 4.1875q1.390625 1.453125 3.46875 1.453125q1.546875 0 2.640625 -0.8125q1.09375 -0.8125 1.734375 -2.59375zm-9.234375 -4.546875l9.265625 0q-0.1875 -2.09375 -1.0625 -3.140625q-1.34375 -1.625 -3.484375 -1.625q-1.9375 0 -3.265625 1.296875q-1.3125 1.296875 -1.453125 3.46875zm15.671875 9.890625l0 -16.593748l2.53125 0l0 2.359373q1.828125 -2.734373 5.28125 -2.734373q1.5 0 2.75 0.546875q1.265625 0.53125 1.890625 1.4062481q0.625 0.875 0.875 2.078125q0.15625 0.78125 0.15625 2.734375l0 10.203125l-2.8125 0l0 -10.09375q0 -1.71875 -0.328125 -2.5625q-0.328125 -0.859375 -1.171875 -1.359375q-0.828125 -0.515625 -1.953125 -0.515625q-1.796875 0 -3.109375 1.140625q-1.296875 1.140625 -1.296875 4.328125l0 9.0625l-2.8125 0zm17.8125 -19.671873l0 -3.234375l2.8125 0l0 3.234375l-2.8125 0zm0 19.671873l0 -16.593748l2.8125 0l0 16.593748l-2.8125 0zm7.09375 0l0 -16.593748l2.53125 0l0 2.359373q1.828125 -2.734373 5.28125 -2.734373q1.5 0 2.75 0.546875q1.265625 0.53125 1.890625 1.4062481q0.625 0.875 0.875 2.078125q0.15625 0.78125 0.15625 2.734375l0 10.203125l-2.8125 0l0 -10.09375q0 -1.71875 -0.328125 -2.5625q-0.328125 -0.859375 -1.171875 -1.359375q-0.828125 -0.515625 -1.953125 -0.515625q-1.796875 0 -3.109375 1.140625q-1.296875 1.140625 -1.296875 4.328125l0 9.0625l-2.8125 0zm17.28125 1.375l2.734375 0.40625q0.171875 1.265625 0.953125 1.84375q1.046875 0.78125 2.859375 0.78125q1.953125 0 3.015625 -0.78125q1.0625 -0.78125 1.4375 -2.1875q0.21875 -0.859375 0.203125 -3.609375q-1.84375 2.171875 -4.59375 2.171875q-3.421875 0 -5.296875 -2.46875q-1.875 -2.46875 -1.875 -5.921875q0 -2.375 0.859375 -4.375q0.859375 -2.015625 2.484375 -3.109373q1.640625 -1.09375 3.84375 -1.09375q2.9375 0 4.84375 2.374998l0 -1.9999981l2.59375 0l0 14.343748q0 3.875 -0.796875 5.484375q-0.78125 1.625 -2.5 2.5625q-1.703125 0.9375 -4.203125 0.9375q-2.96875 0 -4.796875 -1.34375q-1.828125 -1.328125 -1.765625 -4.015625zm2.328125 -9.96875q0 3.265625 1.296875 4.765625q1.296875 1.5 3.25 1.5q1.9375 0 3.25 -1.484375q1.3125 -1.5 1.3125 -4.6875q0 -3.046875 -1.359375 -4.59375q-1.34375 -1.546875 -3.25 -1.546875q-1.875 0 -3.1875 1.53125q-1.3125 1.515625 -1.3125 4.515625z" fill-rule="nonzero"/><path fill="#ff5454" d="m214.70682 85.181946l-2.609375 0l0 -22.906254l2.8125 0l0 8.171879q1.78125 -2.234375 4.546875 -2.234375q1.53125 0 2.890625 0.625q1.375 0.609375 2.25 1.734375q0.890625 1.109375 1.390625 2.6875q0.5 1.578125 0.5 3.375q0 4.265625 -2.109375 6.59375q-2.109375 2.328125 -5.0625 2.328125q-2.9375 0 -4.609375 -2.453125l0 2.078125zm-0.03125 -8.421875q0 2.984375 0.8125 4.3125q1.328125 2.171875 3.59375 2.171875q1.84375 0 3.1875 -1.59375q1.34375 -1.609375 1.34375 -4.78125q0 -3.25 -1.296875 -4.796875q-1.28125 -1.546875 -3.109375 -1.546875q-1.84375 0 -3.1875 1.609375q-1.34375 1.59375 -1.34375 4.625zm15.203125 8.421875l0 -16.59375l2.53125 0l0 2.515625q0.96875 -1.765625 1.78125 -2.328125q0.828125 -0.5625 1.8125 -0.5625q1.421875 0 2.890625 0.90625l-0.96875 2.609375q-1.03125 -0.609375 -2.0625 -0.609375q-0.921875 0 -1.65625 0.5625q-0.734375 0.546875 -1.046875 1.53125q-0.46875 1.5 -0.46875 3.28125l0 8.6875l-2.8125 0zm21.515625 -2.046875q-1.5625 1.328125 -3.015625 1.875q-1.4375 0.546875 -3.09375 0.546875q-2.734375 0 -4.203125 -1.328125q-1.46875 -1.34375 -1.46875 -3.421875q0 -1.21875 0.546875 -2.21875q0.5625 -1.015625 1.453125 -1.625q0.90625 -0.609375 2.03125 -0.921875q0.828125 -0.21875 2.5 -0.421875q3.40625 -0.40625 5.015625 -0.96875q0.015625 -0.578125 0.015625 -0.734375q0 -1.71875 -0.796875 -2.421875q-1.078125 -0.953125 -3.203125 -0.953125q-1.984375 0 -2.9375 0.703125q-0.9375 0.6875 -1.390625 2.453125l-2.75 -0.375q0.375 -1.765625 1.234375 -2.84375q0.859375 -1.09375 2.484375 -1.671875q1.625 -0.59375 3.765625 -0.59375q2.125 0 3.453125 0.5q1.328125 0.5 1.953125 1.265625q0.625 0.75 0.875 1.90625q0.140625 0.71875 0.140625 2.59375l0 3.75q0 3.921875 0.171875 4.96875q0.1875 1.03125 0.71875 1.984375l-2.9375 0q-0.4375 -0.875 -0.5625 -2.046875zm-0.234375 -6.28125q-1.53125 0.625 -4.59375 1.0625q-1.734375 0.25 -2.453125 0.5625q-0.71875 0.3125 -1.109375 0.921875q-0.390625 0.59375 -0.390625 1.328125q0 1.125 0.84375 1.875q0.859375 0.75 2.5 0.75q1.625 0 2.890625 -0.703125q1.265625 -0.71875 1.859375 -1.953125q0.453125 -0.953125 0.453125 -2.8125l0 -1.03125zm18.03125 2.25l2.765625 0.359375q-0.453125 2.859375 -2.328125 4.484375q-1.859375 1.609375 -4.578125 1.609375q-3.40625 0 -5.484375 -2.21875q-2.0625 -2.234375 -2.0625 -6.390625q0 -2.6875 0.890625 -4.703125q0.890625 -2.015625 2.703125 -3.015625q1.828125 -1.015625 3.96875 -1.015625q2.703125 0 4.421875 1.375q1.71875 1.359375 2.203125 3.875l-2.734375 0.421875q-0.390625 -1.671875 -1.390625 -2.515625q-0.984375 -0.84375 -2.390625 -0.84375q-2.125 0 -3.453125 1.53125q-1.328125 1.515625 -1.328125 4.8125q0 3.34375 1.28125 4.859375q1.28125 1.515625 3.34375 1.515625q1.65625 0 2.765625 -1.015625q1.109375 -1.015625 1.40625 -3.125zm5.1875 6.078125l0 -22.906254l2.8125 0l0 13.062504l6.65625 -6.75l3.640625 0l-6.34375 6.15625l6.984375 10.4375l-3.46875 0l-5.484375 -8.484375l-1.984375 1.90625l0 6.578125l-2.8125 0zm27.34375 -5.34375l2.90625 0.359375q-0.6875 2.546875 -2.546875 3.953125q-1.859375 1.40625 -4.75 1.40625q-3.640625 0 -5.78125 -2.234375q-2.125 -2.25 -2.125 -6.296875q0 -4.1875 2.15625 -6.5q2.15625 -2.3125 5.59375 -2.3125q3.328125 0 5.4375 2.265625q2.109375 2.265625 2.109375 6.375q0 0.25 -0.015625 0.75l-12.375 0q0.15625 2.734375 1.546875 4.1875q1.390625 1.453125 3.46875 1.453125q1.546875 0 2.640625 -0.8125q1.09375 -0.8125 1.734375 -2.59375zm-9.234375 -4.546875l9.265625 0q-0.1875 -2.09375 -1.0625 -3.140625q-1.34375 -1.625 -3.484375 -1.625q-1.9375 0 -3.265625 1.296875q-1.3125 1.296875 -1.453125 3.46875zm21.8125 7.375l0.40625 2.484375q-1.1875 0.25 -2.125 0.25q-1.53125 0 -2.375 -0.484375q-0.84375 -0.484375 -1.1875 -1.265625q-0.34375 -0.796875 -0.34375 -3.328125l0 -9.546875l-2.0625 0l0 -2.1875l2.0625 0l0 -4.109375l2.796875 -1.6875038l0 5.796879l2.828125 0l0 2.1875l-2.828125 0l0 9.703125q0 1.203125 0.140625 1.546875q0.15625 0.34375 0.484375 0.546875q0.34375 0.203125 0.96875 0.203125q0.46875 0 1.234375 -0.109375z" fill-rule="nonzero"/><path fill="#000000" fill-opacity="0.0" d="m29.721785 297.12598l186.99213 0l0 94.456696l-186.99213 0z" fill-rule="evenodd"/><path fill="#666666" d="m81.77254 336.84598l0 -16.59375l2.515625 0l0 2.328125q0.78125 -1.21875 2.078125 -1.953125q1.296875 -0.75 2.953125 -0.75q1.84375 0 3.015625 0.765625q1.1875 0.765625 1.671875 2.140625q1.96875 -2.90625 5.125 -2.90625q2.46875 0 3.796875 1.375q1.328125 1.359375 1.328125 4.203125l0 11.390625l-2.796875 0l0 -10.453125q0 -1.6875 -0.28125 -2.421875q-0.265625 -0.75 -0.984375 -1.203125q-0.71875 -0.453125 -1.6875 -0.453125q-1.75 0 -2.90625 1.171875q-1.15625 1.15625 -1.15625 3.71875l0 9.640625l-2.8125 0l0 -10.78125q0 -1.875 -0.6875 -2.8125q-0.6875 -0.9375 -2.25 -0.9375q-1.1875 0 -2.203125 0.625q-1.0 0.625 -1.453125 1.828125q-0.453125 1.203125 -0.453125 3.46875l0 8.609375l-2.8125 0zm37.484375 -2.046875q-1.5625 1.328125 -3.015625 1.875q-1.4375 0.546875 -3.09375 0.546875q-2.734375 0 -4.203125 -1.328125q-1.46875 -1.34375 -1.46875 -3.421875q0 -1.21875 0.546875 -2.21875q0.5625 -1.015625 1.453125 -1.625q0.90625 -0.609375 2.03125 -0.921875q0.828125 -0.21875 2.5 -0.421875q3.40625 -0.40625 5.015625 -0.96875q0.015625 -0.578125 0.015625 -0.734375q0 -1.71875 -0.796875 -2.421875q-1.078125 -0.953125 -3.203125 -0.953125q-1.984375 0 -2.9375 0.703125q-0.9375 0.6875 -1.390625 2.453125l-2.75 -0.375q0.375 -1.765625 1.234375 -2.84375q0.859375 -1.09375 2.484375 -1.671875q1.625 -0.59375 3.765625 -0.59375q2.125 0 3.453125 0.5q1.328125 0.5 1.953125 1.265625q0.625 0.75 0.875 1.90625q0.140625 0.71875 0.140625 2.59375l0 3.75q0 3.921875 0.171875 4.96875q0.1875 1.03125 0.71875 1.984375l-2.9375 0q-0.4375 -0.875 -0.5625 -2.046875zm-0.234375 -6.28125q-1.53125 0.625 -4.59375 1.0625q-1.734375 0.25 -2.453125 0.5625q-0.71875 0.3125 -1.109375 0.921875q-0.390625 0.59375 -0.390625 1.328125q0 1.125 0.84375 1.875q0.859375 0.75 2.5 0.75q1.625 0 2.890625 -0.703125q1.265625 -0.71875 1.859375 -1.953125q0.453125 -0.953125 0.453125 -2.8125l0 -1.03125zm13.34375 5.8125l0.40625 2.484375q-1.1875 0.25 -2.125 0.25q-1.53125 0 -2.375 -0.484375q-0.84375 -0.484375 -1.1875 -1.265625q-0.34375 -0.796875 -0.34375 -3.328125l0 -9.546875l-2.0625 0l0 -2.1875l2.0625 0l0 -4.109375l2.796875 -1.6875l0 5.796875l2.828125 0l0 2.1875l-2.828125 0l0 9.703125q0 1.203125 0.140625 1.546875q0.15625 0.34375 0.484375 0.546875q0.34375 0.203125 0.96875 0.203125q0.46875 0 1.234375 -0.109375zm2.71875 2.515625l0 -16.59375l2.53125 0l0 2.515625q0.96875 -1.765625 1.78125 -2.328125q0.828125 -0.5625 1.8125 -0.5625q1.421875 0 2.890625 0.90625l-0.96875 2.609375q-1.03125 -0.609375 -2.0625 -0.609375q-0.921875 0 -1.65625 0.5625q-0.734375 0.546875 -1.046875 1.53125q-0.46875 1.5 -0.46875 3.28125l0 8.6875l-2.8125 0zm10.703125 -19.671875l0 -3.234375l2.8125 0l0 3.234375l-2.8125 0zm0 19.671875l0 -16.59375l2.8125 0l0 16.59375l-2.8125 0zm5.21875 0l6.0625 -8.625l-5.609375 -7.96875l3.515625 0l2.546875 3.890625q0.71875 1.109375 1.15625 1.859375q0.6875 -1.03125 1.265625 -1.828125l2.796875 -3.921875l3.359375 0l-5.734375 7.8125l6.171875 8.78125l-3.453125 0l-3.40625 -5.15625l-0.90625 -1.390625l-4.359375 6.546875l-3.40625 0z" fill-rule="nonzero"/><path fill="#666666" d="m81.58504 366.5491q0 -4.609375 2.5625 -6.828125q2.140625 -1.84375 5.21875 -1.84375q3.421875 0 5.59375 2.25q2.171875 2.234375 2.171875 6.1875q0 3.203125 -0.96875 5.046875q-0.953125 1.828125 -2.796875 2.84375q-1.828125 1.015625 -4.0 1.015625q-3.484375 0 -5.640625 -2.234375q-2.140625 -2.234375 -2.140625 -6.4375zm2.890625 0q0 3.1875 1.390625 4.78125q1.390625 1.578125 3.5 1.578125q2.09375 0 3.484375 -1.59375q1.390625 -1.59375 1.390625 -4.859375q0 -3.078125 -1.40625 -4.65625q-1.390625 -1.59375 -3.46875 -1.59375q-2.109375 0 -3.5 1.578125q-1.390625 1.578125 -1.390625 4.765625zm18.546875 8.296875l-2.609375 0l0 -22.90625l2.8125 0l0 8.171875q1.78125 -2.234375 4.546875 -2.234375q1.53125 0 2.890625 0.625q1.375 0.609375 2.25 1.734375q0.890625 1.109375 1.390625 2.6875q0.5 1.578125 0.5 3.375q0 4.265625 -2.109375 6.59375q-2.109375 2.328125 -5.0625 2.328125q-2.9375 0 -4.609375 -2.453125l0 2.078125zm-0.03125 -8.421875q0 2.984375 0.8125 4.3125q1.328125 2.171875 3.59375 2.171875q1.84375 0 3.1875 -1.59375q1.34375 -1.609375 1.34375 -4.78125q0 -3.25 -1.296875 -4.796875q-1.28125 -1.546875 -3.109375 -1.546875q-1.84375 0 -3.1875 1.609375q-1.34375 1.59375 -1.34375 4.625zm15.21875 -11.21875l0 -3.265625l2.8125 0l0 3.265625l-2.8125 0zm-3.5625 26.078125l0.53125 -2.390625q0.84375 0.21875 1.328125 0.21875q0.859375 0 1.28125 -0.578125q0.421875 -0.5625 0.421875 -2.84375l0 -17.4375l2.8125 0l0 17.5q0 3.0625 -0.796875 4.265625q-1.015625 1.5625 -3.375 1.5625q-1.140625 0 -2.203125 -0.296875zm22.046875 -11.78125l2.90625 0.359375q-0.6875 2.546875 -2.546875 3.953125q-1.859375 1.40625 -4.75 1.40625q-3.640625 0 -5.78125 -2.234375q-2.125 -2.25 -2.125 -6.296875q0 -4.1875 2.15625 -6.5q2.15625 -2.3125 5.59375 -2.3125q3.328125 0 5.4375 2.265625q2.109375 2.265625 2.109375 6.375q0 0.25 -0.015625 0.75l-12.375 0q0.15625 2.734375 1.546875 4.1875q1.390625 1.453125 3.46875 1.453125q1.546875 0 2.640625 -0.8125q1.09375 -0.8125 1.734375 -2.59375zm-9.234375 -4.546875l9.265625 0q-0.1875 -2.09375 -1.0625 -3.140625q-1.34375 -1.625 -3.484375 -1.625q-1.9375 0 -3.265625 1.296875q-1.3125 1.296875 -1.453125 3.46875zm26.5 3.8125l2.765625 0.359375q-0.453125 2.859375 -2.328125 4.484375q-1.859375 1.609375 -4.578125 1.609375q-3.40625 0 -5.484375 -2.21875q-2.0625 -2.234375 -2.0625 -6.390625q0 -2.6875 0.890625 -4.703125q0.890625 -2.015625 2.703125 -3.015625q1.828125 -1.015625 3.96875 -1.015625q2.703125 0 4.421875 1.375q1.71875 1.359375 2.203125 3.875l-2.734375 0.421875q-0.390625 -1.671875 -1.390625 -2.515625q-0.984375 -0.84375 -2.390625 -0.84375q-2.125 0 -3.453125 1.53125q-1.328125 1.515625 -1.328125 4.8125q0 3.34375 1.28125 4.859375q1.28125 1.515625 3.34375 1.515625q1.65625 0 2.765625 -1.015625q1.109375 -1.015625 1.40625 -3.125zm11.3125 3.5625l0.40625 2.484375q-1.1875 0.25 -2.125 0.25q-1.53125 0 -2.375 -0.484375q-0.84375 -0.484375 -1.1875 -1.265625q-0.34375 -0.796875 -0.34375 -3.328125l0 -9.546875l-2.0625 0l0 -2.1875l2.0625 0l0 -4.109375l2.796875 -1.6875l0 5.796875l2.828125 0l0 2.1875l-2.828125 0l0 9.703125q0 1.203125 0.140625 1.546875q0.15625 0.34375 0.484375 0.546875q0.34375 0.203125 0.96875 0.203125q0.46875 0 1.234375 -0.109375z" fill-rule="nonzero"/><path fill="#000000" fill-opacity="0.0" d="m221.16273 297.12598l179.11812 0l0 94.456696l-179.11812 0z" fill-rule="evenodd"/><path fill="#ff9900" d="m232.24086 336.84598l0 -16.59375l2.53125 0l0 2.515625q0.96875 -1.765625 1.78125 -2.328125q0.828125 -0.5625 1.8125 -0.5625q1.421875 0 2.890625 0.90625l-0.96875 2.609375q-1.03125 -0.609375 -2.0625 -0.609375q-0.921875 0 -1.65625 0.5625q-0.734375 0.546875 -1.046875 1.53125q-0.46875 1.5 -0.46875 3.28125l0 8.6875l-2.8125 0zm9.640625 -8.296875q0 -4.609375 2.5625 -6.828125q2.140625 -1.84375 5.21875 -1.84375q3.421875 0 5.59375 2.25q2.1718597 2.234375 2.1718597 6.1875q0 3.203125 -0.96875 5.046875q-0.95310974 1.828125 -2.7968597 2.84375q-1.828125 1.015625 -4.0 1.015625q-3.484375 0 -5.640625 -2.234375q-2.140625 -2.234375 -2.140625 -6.4375zm2.890625 0q0 3.1875 1.390625 4.78125q1.390625 1.578125 3.5 1.578125q2.09375 0 3.484375 -1.59375q1.390625 -1.59375 1.390625 -4.859375q0 -3.078125 -1.40625 -4.65625q-1.390625 -1.59375 -3.46875 -1.59375q-2.109375 0 -3.5 1.578125q-1.390625 1.578125 -1.390625 4.765625zm19.01561 8.296875l-5.078125 -16.59375l2.90625 0l2.640625 9.578125l0.984375 3.5625q0.0625 -0.265625 0.859375 -3.421875l2.640625 -9.71875l2.890625 0l2.484375 9.625l0.828125 3.171875l0.953125 -3.203125l2.84375 -9.59375l2.734375 0l-5.1875 16.59375l-2.921875 0l-2.640625 -9.9375l-0.640625 -2.828125l-3.359375 12.765625l-2.9375 0zm28.953125 -19.671875l0 -3.234375l2.8125 0l0 3.234375l-2.8125 0zm0 19.671875l0 -16.59375l2.8125 0l0 16.59375l-2.8125 0zm7.09375 0l0 -16.59375l2.53125 0l0 2.359375q1.828125 -2.734375 5.28125 -2.734375q1.5 0 2.75 0.546875q1.265625 0.53125 1.890625 1.40625q0.625 0.875 0.875 2.078125q0.15625 0.78125 0.15625 2.734375l0 10.203125l-2.8125 0l0 -10.09375q0 -1.71875 -0.328125 -2.5625q-0.328125 -0.859375 -1.171875 -1.359375q-0.828125 -0.515625 -1.953125 -0.515625q-1.796875 0 -3.109375 1.140625q-1.296875 1.140625 -1.296875 4.328125l0 9.0625l-2.8125 0zm28.5625 0l0 -2.09375q-1.578125 2.46875 -4.640625 2.46875q-1.984375 0 -3.65625 -1.09375q-1.65625 -1.09375 -2.578125 -3.046875q-0.90625 -1.96875 -0.90625 -4.515625q0 -2.484375 0.828125 -4.5q0.828125 -2.03125 2.484375 -3.109375q1.65625 -1.078125 3.703125 -1.078125q1.5 0 2.671875 0.640625q1.171875 0.625 1.90625 1.640625l0 -8.21875l2.796875 0l0 22.90625l-2.609375 0zm-8.890625 -8.28125q0 3.1875 1.34375 4.765625q1.34375 1.578125 3.171875 1.578125q1.84375 0 3.125 -1.5q1.296875 -1.515625 1.296875 -4.609375q0 -3.40625 -1.3125 -5.0q-1.3125 -1.59375 -3.234375 -1.59375q-1.875 0 -3.140625 1.53125q-1.25 1.53125 -1.25 4.828125zm27.28125 2.9375l2.90625 0.359375q-0.6875 2.546875 -2.546875 3.953125q-1.859375 1.40625 -4.75 1.40625q-3.640625 0 -5.78125 -2.234375q-2.125 -2.25 -2.125 -6.296875q0 -4.1875 2.15625 -6.5q2.15625 -2.3125 5.59375 -2.3125q3.328125 0 5.4375 2.265625q2.109375 2.265625 2.109375 6.375q0 0.25 -0.015625 0.75l-12.375 0q0.15625 2.734375 1.546875 4.1875q1.390625 1.453125 3.46875 1.453125q1.546875 0 2.640625 -0.8125q1.09375 -0.8125 1.734375 -2.59375zm-9.234375 -4.546875l9.265625 0q-0.1875 -2.09375 -1.0625 -3.140625q-1.34375 -1.625 -3.484375 -1.625q-1.9375 0 -3.265625 1.296875q-1.3125 1.296875 -1.453125 3.46875zm13.796875 9.890625l6.0625 -8.625l-5.609375 -7.96875l3.515625 0l2.546875 3.890625q0.71875 1.109375 1.15625 1.859375q0.6875 -1.03125 1.265625 -1.828125l2.796875 -3.921875l3.359375 0l-5.734375 7.8125l6.171875 8.78125l-3.453125 0l-3.40625 -5.15625l-0.90625 -1.390625l-4.359375 6.546875l-3.40625 0z" fill-rule="nonzero"/><path fill="#ff9900" d="m236.88148 374.84598l-6.3125 -16.59375l2.96875 0l3.5625 9.9375q0.578125 1.609375 1.0625 3.34375q0.375 -1.3125 1.046875 -3.15625l3.6875 -10.125l2.890625 0l-6.28125 16.59375l-2.625 0zm22.749985 -5.34375l2.90625 0.359375q-0.6875 2.546875 -2.546875 3.953125q-1.859375 1.40625 -4.7499847 1.40625q-3.640625 0 -5.78125 -2.234375q-2.125 -2.25 -2.125 -6.296875q0 -4.1875 2.15625 -6.5q2.15625 -2.3125 5.59375 -2.3125q3.3281097 0 5.4374847 2.265625q2.109375 2.265625 2.109375 6.375q0 0.25 -0.015625 0.75l-12.374985 0q0.15625 2.734375 1.546875 4.1875q1.390625 1.453125 3.46875 1.453125q1.5468597 0 2.6406097 -0.8125q1.09375 -0.8125 1.734375 -2.59375zm-9.23436 -4.546875l9.26561 0q-0.1875 -2.09375 -1.0625 -3.140625q-1.34375 -1.625 -3.4843597 -1.625q-1.9375 0 -3.265625 1.296875q-1.3125 1.296875 -1.453125 3.46875zm26.499985 3.8125l2.765625 0.359375q-0.453125 2.859375 -2.328125 4.484375q-1.859375 1.609375 -4.578125 1.609375q-3.40625 0 -5.484375 -2.21875q-2.0625 -2.234375 -2.0625 -6.390625q0 -2.6875 0.890625 -4.703125q0.890625 -2.015625 2.703125 -3.015625q1.828125 -1.015625 3.96875 -1.015625q2.703125 0 4.421875 1.375q1.71875 1.359375 2.203125 3.875l-2.734375 0.421875q-0.390625 -1.671875 -1.390625 -2.515625q-0.984375 -0.84375 -2.390625 -0.84375q-2.125 0 -3.453125 1.53125q-1.328125 1.515625 -1.328125 4.8125q0 3.34375 1.28125 4.859375q1.28125 1.515625 3.34375 1.515625q1.65625 0 2.765625 -1.015625q1.109375 -1.015625 1.40625 -3.125zm11.3125 3.5625l0.40625 2.484375q-1.1875 0.25 -2.125 0.25q-1.53125 0 -2.375 -0.484375q-0.84375 -0.484375 -1.1875 -1.265625q-0.34375 -0.796875 -0.34375 -3.328125l0 -9.546875l-2.0625 0l0 -2.1875l2.0625 0l0 -4.109375l2.796875 -1.6875l0 5.796875l2.828125 0l0 2.1875l-2.828125 0l0 9.703125q0 1.203125 0.140625 1.546875q0.15625 0.34375 0.484375 0.546875q0.34375 0.203125 0.96875 0.203125q0.46875 0 1.234375 -0.109375zm1.703125 -5.78125q0 -4.609375 2.5625 -6.828125q2.140625 -1.84375 5.21875 -1.84375q3.421875 0 5.59375 2.25q2.171875 2.234375 2.171875 6.1875q0 3.203125 -0.96875 5.046875q-0.953125 1.828125 -2.796875 2.84375q-1.828125 1.015625 -4.0 1.015625q-3.484375 0 -5.640625 -2.234375q-2.140625 -2.234375 -2.140625 -6.4375zm2.890625 0q0 3.1875 1.390625 4.78125q1.390625 1.578125 3.5 1.578125q2.09375 0 3.484375 -1.59375q1.390625 -1.59375 1.390625 -4.859375q0 -3.078125 -1.40625 -4.65625q-1.390625 -1.59375 -3.46875 -1.59375q-2.109375 0 -3.5 1.578125q-1.390625 1.578125 -1.390625 4.765625zm15.921875 8.296875l0 -16.59375l2.53125 0l0 2.515625q0.96875 -1.765625 1.78125 -2.328125q0.828125 -0.5625 1.8125 -0.5625q1.421875 0 2.890625 0.90625l-0.96875 2.609375q-1.03125 -0.609375 -2.0625 -0.609375q-0.921875 0 -1.65625 0.5625q-0.734375 0.546875 -1.046875 1.53125q-0.46875 1.5 -0.46875 3.28125l0 8.6875l-2.8125 0z" fill-rule="nonzero"/><path fill="#000000" fill-opacity="0.0" d="m322.0105 252.89503l0.3779602 56.063004" fill-rule="evenodd"/><path stroke="#ffb632" stroke-width="4.0" stroke-linejoin="round" stroke-linecap="butt" stroke-dasharray="4.0,12.0" d="m322.0105 252.89503l0.3779602 56.063004" fill-rule="evenodd"/><path fill="#000000" fill-opacity="0.0" d="m263.97375 104.333534l0.3779602 59.590553" fill-rule="evenodd"/><path stroke="#ff5454" stroke-width="4.0" stroke-linejoin="round" stroke-linecap="butt" stroke-dasharray="4.0,12.0" d="m263.97375 104.333534l0.3779602 59.590553" fill-rule="evenodd"/><path fill="#000000" fill-opacity="0.0" d="m395.83728 297.12598l217.44879 0l0 94.456696l-217.44879 0z" fill-rule="evenodd"/><path fill="#ff9900" d="m417.77478 330.76785l2.765625 0.359375q-0.453125 2.859375 -2.328125 4.484375q-1.859375 1.609375 -4.578125 1.609375q-3.40625 0 -5.484375 -2.21875q-2.0625 -2.234375 -2.0625 -6.390625q0 -2.6875 0.890625 -4.703125q0.890625 -2.015625 2.703125 -3.015625q1.828125 -1.015625 3.96875 -1.015625q2.703125 0 4.421875 1.375q1.71875 1.359375 2.203125 3.875l-2.734375 0.421875q-0.390625 -1.671875 -1.390625 -2.515625q-0.984375 -0.84375 -2.390625 -0.84375q-2.125 0 -3.453125 1.53125q-1.328125 1.515625 -1.328125 4.8125q0 3.34375 1.28125 4.859375q1.28125 1.515625 3.34375 1.515625q1.65625 0 2.765625 -1.015625q1.109375 -1.015625 1.40625 -3.125zm4.125 -2.21875q0 -4.609375 2.5625 -6.828125q2.140625 -1.84375 5.21875 -1.84375q3.421875 0 5.59375 2.25q2.171875 2.234375 2.171875 6.1875q0 3.203125 -0.96875 5.046875q-0.953125 1.828125 -2.796875 2.84375q-1.828125 1.015625 -4.0 1.015625q-3.484375 0 -5.640625 -2.234375q-2.140625 -2.234375 -2.140625 -6.4375zm2.890625 0q0 3.1875 1.390625 4.78125q1.390625 1.578125 3.5 1.578125q2.09375 0 3.484375 -1.59375q1.390625 -1.59375 1.390625 -4.859375q0 -3.078125 -1.40625 -4.65625q-1.390625 -1.59375 -3.46875 -1.59375q-2.109375 0 -3.5 1.578125q-1.390625 1.578125 -1.390625 4.765625zm15.890625 8.296875l0 -22.90625l2.8125 0l0 22.90625l-2.8125 0zm18.046875 0l0 -2.4375q-1.9375 2.8125 -5.265625 2.8125q-1.46875 0 -2.75 -0.5625q-1.265625 -0.5625 -1.890625 -1.40625q-0.609375 -0.859375 -0.859375 -2.09375q-0.171875 -0.828125 -0.171875 -2.625l0 -10.28125l2.8125 0l0 9.203125q0 2.203125 0.171875 2.96875q0.265625 1.109375 1.125 1.75q0.859375 0.625 2.125 0.625q1.265625 0 2.375 -0.640625q1.109375 -0.65625 1.5625 -1.765625q0.46875 -1.125 0.46875 -3.25l0 -8.890625l2.8125 0l0 16.59375l-2.515625 0zm6.921875 0l0 -16.59375l2.515625 0l0 2.328125q0.78125 -1.21875 2.078125 -1.953125q1.296875 -0.75 2.953125 -0.75q1.84375 0 3.015625 0.765625q1.1875 0.765625 1.671875 2.140625q1.96875 -2.90625 5.125 -2.90625q2.46875 0 3.796875 1.375q1.328125 1.359375 1.328125 4.203125l0 11.390625l-2.796875 0l0 -10.453125q0 -1.6875 -0.28125 -2.421875q-0.265625 -0.75 -0.984375 -1.203125q-0.71875 -0.453125 -1.6875 -0.453125q-1.75 0 -2.90625 1.171875q-1.15625 1.15625 -1.15625 3.71875l0 9.640625l-2.8125 0l0 -10.78125q0 -1.875 -0.6875 -2.8125q-0.6875 -0.9375 -2.25 -0.9375q-1.1875 0 -2.203125 0.625q-1.0 0.625 -1.453125 1.828125q-0.453125 1.203125 -0.453125 3.46875l0 8.609375l-2.8125 0zm26.65625 0l0 -16.59375l2.53125 0l0 2.359375q1.828125 -2.734375 5.28125 -2.734375q1.5 0 2.75 0.546875q1.265625 0.53125 1.890625 1.40625q0.625 0.875 0.875 2.078125q0.15625 0.78125 0.15625 2.734375l0 10.203125l-2.8125 0l0 -10.09375q0 -1.71875 -0.328125 -2.5625q-0.328125 -0.859375 -1.171875 -1.359375q-0.828125 -0.515625 -1.953125 -0.515625q-1.796875 0 -3.109375 1.140625q-1.296875 1.140625 -1.296875 4.328125l0 9.0625l-2.8125 0zm26.703125 -19.671875l0 -3.234375l2.8125 0l0 3.234375l-2.8125 0zm0 19.671875l0 -16.59375l2.8125 0l0 16.59375l-2.8125 0zm7.09375 0l0 -16.59375l2.53125 0l0 2.359375q1.828125 -2.734375 5.28125 -2.734375q1.5 0 2.75 0.546875q1.265625 0.53125 1.890625 1.40625q0.625 0.875 0.875 2.078125q0.15625 0.78125 0.15625 2.734375l0 10.203125l-2.8125 0l0 -10.09375q0 -1.71875 -0.328125 -2.5625q-0.328125 -0.859375 -1.171875 -1.359375q-0.828125 -0.515625 -1.953125 -0.515625q-1.796875 0 -3.109375 1.140625q-1.296875 1.140625 -1.296875 4.328125l0 9.0625l-2.8125 0zm28.5625 0l0 -2.09375q-1.578125 2.46875 -4.640625 2.46875q-1.984375 0 -3.65625 -1.09375q-1.65625 -1.09375 -2.578125 -3.046875q-0.90625 -1.96875 -0.90625 -4.515625q0 -2.484375 0.828125 -4.5q0.828125 -2.03125 2.484375 -3.109375q1.65625 -1.078125 3.703125 -1.078125q1.5 0 2.671875 0.640625q1.171875 0.625 1.90625 1.640625l0 -8.21875l2.796875 0l0 22.90625l-2.609375 0zm-8.890625 -8.28125q0 3.1875 1.34375 4.765625q1.34375 1.578125 3.171875 1.578125q1.84375 0 3.125 -1.5q1.296875 -1.515625 1.296875 -4.609375q0 -3.40625 -1.3125 -5.0q-1.3125 -1.59375 -3.234375 -1.59375q-1.875 0 -3.140625 1.53125q-1.25 1.53125 -1.25 4.828125zm27.28125 2.9375l2.90625 0.359375q-0.6875 2.546875 -2.546875 3.953125q-1.859375 1.40625 -4.75 1.40625q-3.640625 0 -5.78125 -2.234375q-2.125 -2.25 -2.125 -6.296875q0 -4.1875 2.15625 -6.5q2.15625 -2.3125 5.59375 -2.3125q3.328125 0 5.4375 2.265625q2.109375 2.265625 2.109375 6.375q0 0.25 -0.015625 0.75l-12.375 0q0.15625 2.734375 1.546875 4.1875q1.390625 1.453125 3.46875 1.453125q1.546875 0 2.640625 -0.8125q1.09375 -0.8125 1.734375 -2.59375zm-9.234375 -4.546875l9.265625 0q-0.1875 -2.09375 -1.0625 -3.140625q-1.34375 -1.625 -3.484375 -1.625q-1.9375 0 -3.265625 1.296875q-1.3125 1.296875 -1.453125 3.46875zm13.796875 9.890625l6.0625 -8.625l-5.609375 -7.96875l3.515625 0l2.546875 3.890625q0.71875 1.109375 1.15625 1.859375q0.6875 -1.03125 1.265625 -1.828125l2.796875 -3.921875l3.359375 0l-5.734375 7.8125l6.171875 8.78125l-3.453125 0l-3.40625 -5.15625l-0.90625 -1.390625l-4.359375 6.546875l-3.40625 0z" fill-rule="nonzero"/><path fill="#ff9900" d="m411.55603 374.84598l-6.3125 -16.59375l2.96875 0l3.5625 9.9375q0.578125 1.609375 1.0625 3.34375q0.375 -1.3125 1.046875 -3.15625l3.6875 -10.125l2.890625 0l-6.28125 16.59375l-2.625 0zm22.75 -5.34375l2.90625 0.359375q-0.6875 2.546875 -2.546875 3.953125q-1.859375 1.40625 -4.75 1.40625q-3.640625 0 -5.78125 -2.234375q-2.125 -2.25 -2.125 -6.296875q0 -4.1875 2.15625 -6.5q2.15625 -2.3125 5.59375 -2.3125q3.328125 0 5.4375 2.265625q2.109375 2.265625 2.109375 6.375q0 0.25 -0.015625 0.75l-12.375 0q0.15625 2.734375 1.546875 4.1875q1.390625 1.453125 3.46875 1.453125q1.546875 0 2.640625 -0.8125q1.09375 -0.8125 1.734375 -2.59375zm-9.234375 -4.546875l9.265625 0q-0.1875 -2.09375 -1.0625 -3.140625q-1.34375 -1.625 -3.484375 -1.625q-1.9375 0 -3.265625 1.296875q-1.3125 1.296875 -1.453125 3.46875zm26.5 3.8125l2.765625 0.359375q-0.453125 2.859375 -2.328125 4.484375q-1.859375 1.609375 -4.578125 1.609375q-3.40625 0 -5.484375 -2.21875q-2.0625 -2.234375 -2.0625 -6.390625q0 -2.6875 0.890625 -4.703125q0.890625 -2.015625 2.703125 -3.015625q1.828125 -1.015625 3.96875 -1.015625q2.703125 0 4.421875 1.375q1.71875 1.359375 2.203125 3.875l-2.734375 0.421875q-0.390625 -1.671875 -1.390625 -2.515625q-0.984375 -0.84375 -2.390625 -0.84375q-2.125 0 -3.453125 1.53125q-1.328125 1.515625 -1.328125 4.8125q0 3.34375 1.28125 4.859375q1.28125 1.515625 3.34375 1.515625q1.65625 0 2.765625 -1.015625q1.109375 -1.015625 1.40625 -3.125zm11.3125 3.5625l0.40625 2.484375q-1.1875 0.25 -2.125 0.25q-1.53125 0 -2.375 -0.484375q-0.84375 -0.484375 -1.1875 -1.265625q-0.34375 -0.796875 -0.34375 -3.328125l0 -9.546875l-2.0625 0l0 -2.1875l2.0625 0l0 -4.109375l2.796875 -1.6875l0 5.796875l2.828125 0l0 2.1875l-2.828125 0l0 9.703125q0 1.203125 0.140625 1.546875q0.15625 0.34375 0.484375 0.546875q0.34375 0.203125 0.96875 0.203125q0.46875 0 1.234375 -0.109375zm1.703125 -5.78125q0 -4.609375 2.5625 -6.828125q2.140625 -1.84375 5.21875 -1.84375q3.421875 0 5.59375 2.25q2.171875 2.234375 2.171875 6.1875q0 3.203125 -0.96875 5.046875q-0.953125 1.828125 -2.796875 2.84375q-1.828125 1.015625 -4.0 1.015625q-3.484375 0 -5.640625 -2.234375q-2.140625 -2.234375 -2.140625 -6.4375zm2.890625 0q0 3.1875 1.390625 4.78125q1.390625 1.578125 3.5 1.578125q2.09375 0 3.484375 -1.59375q1.390625 -1.59375 1.390625 -4.859375q0 -3.078125 -1.40625 -4.65625q-1.390625 -1.59375 -3.46875 -1.59375q-2.109375 0 -3.5 1.578125q-1.390625 1.578125 -1.390625 4.765625zm15.921875 8.296875l0 -16.59375l2.53125 0l0 2.515625q0.96875 -1.765625 1.78125 -2.328125q0.828125 -0.5625 1.8125 -0.5625q1.421875 0 2.890625 0.90625l-0.96875 2.609375q-1.03125 -0.609375 -2.0625 -0.609375q-0.921875 0 -1.65625 0.5625q-0.734375 0.546875 -1.046875 1.53125q-0.46875 1.5 -0.46875 3.28125l0 8.6875l-2.8125 0z" fill-rule="nonzero"/><path fill="#000000" fill-opacity="0.0" d="m442.0105 252.89503l0.3779602 56.063004" fill-rule="evenodd"/><path stroke="#ffb632" stroke-width="4.0" stroke-linejoin="round" stroke-linecap="butt" stroke-dasharray="4.0,12.0" d="m442.0105 252.89503l0.3779602 56.063004" fill-rule="evenodd"/><path fill="#000000" fill-opacity="0.0" d="m487.97375 104.333534l0.3779602 59.590553" fill-rule="evenodd"/><path stroke="#ff5454" stroke-width="4.0" stroke-linejoin="round" stroke-linecap="butt" stroke-dasharray="4.0,12.0" d="m487.97375 104.333534l0.3779602 59.590553" fill-rule="evenodd"/><path fill="#000000" fill-opacity="0.0" d="m409.8793 7.461942l157.25986 0l0 94.45669l-157.25986 0z" fill-rule="evenodd"/><path fill="#ff5454" d="m451.64203 41.103817l2.765625 0.359375q-0.453125 2.859375 -2.328125 4.484375q-1.859375 1.609375 -4.578125 1.609375q-3.40625 0 -5.484375 -2.21875q-2.0625 -2.234375 -2.0625 -6.390625q0 -2.6875 0.890625 -4.703125q0.890625 -2.015625 2.703125 -3.015623q1.828125 -1.015625 3.96875 -1.015625q2.703125 0 4.421875 1.375q1.71875 1.3593731 2.203125 3.874998l-2.734375 0.421875q-0.390625 -1.671875 -1.390625 -2.515625q-0.984375 -0.84375 -2.390625 -0.84375q-2.125 0 -3.453125 1.53125q-1.328125 1.515625 -1.328125 4.8125q0 3.34375 1.28125 4.859375q1.28125 1.515625 3.34375 1.515625q1.65625 0 2.765625 -1.015625q1.109375 -1.015625 1.40625 -3.125zm5.109375 6.078125l0 -22.906248l2.8125 0l0 22.906248l-2.8125 0zm6.125 -8.296875q0 -4.609375 2.5625 -6.828125q2.140625 -1.8437481 5.21875 -1.8437481q3.421875 0 5.59375 2.249998q2.171875 2.234375 2.171875 6.1875q0 3.203125 -0.96875 5.046875q-0.953125 1.828125 -2.796875 2.84375q-1.828125 1.015625 -4.0 1.015625q-3.484375 0 -5.640625 -2.234375q-2.140625 -2.234375 -2.140625 -6.4375zm2.890625 0q0 3.1875 1.390625 4.78125q1.390625 1.578125 3.5 1.578125q2.09375 0 3.484375 -1.59375q1.390625 -1.59375 1.390625 -4.859375q0 -3.078125 -1.40625 -4.65625q-1.390625 -1.59375 -3.46875 -1.59375q-2.109375 0 -3.5 1.578125q-1.390625 1.578125 -1.390625 4.765625zm14.828125 3.34375l2.78125 -0.4375q0.234375 1.671875 1.296875 2.5625q1.078125 0.890625 3.0 0.890625q1.9375 0 2.875 -0.78125q0.9375 -0.796875 0.9375 -1.859375q0 -0.953125 -0.828125 -1.5q-0.578125 -0.375 -2.875 -0.953125q-3.09375 -0.78125 -4.296875 -1.34375q-1.1875 -0.578125 -1.8125 -1.578125q-0.609375 -1.015625 -0.609375 -2.234375q0 -1.109375 0.5 -2.046875q0.515625 -0.9531231 1.390625 -1.5781231q0.65625 -0.484375 1.78125 -0.8125q1.140625 -0.34375 2.4375 -0.34375q1.953125 0 3.421875 0.5625q1.484375 0.5625 2.1875 1.5312481q0.703125 0.953125 0.96875 2.5625l-2.75 0.375q-0.1875 -1.28125 -1.09375 -2.0q-0.890625 -0.71875 -2.53125 -0.71875q-1.9375 0 -2.765625 0.640625q-0.828125 0.640625 -0.828125 1.5q0 0.546875 0.34375 0.984375q0.34375 0.453125 1.078125 0.75q0.421875 0.15625 2.484375 0.71875q2.984375 0.796875 4.15625 1.3125q1.1875 0.5 1.859375 1.46875q0.671875 0.96875 0.671875 2.40625q0 1.40625 -0.828125 2.65625q-0.8125 1.234375 -2.359375 1.921875q-1.546875 0.671875 -3.5 0.671875q-3.234375 0 -4.9375 -1.34375q-1.6875 -1.34375 -2.15625 -3.984375zm17.140625 -14.718748l0 -3.234375l2.8125 0l0 3.234375l-2.8125 0zm0 19.671873l0 -16.593748l2.8125 0l0 16.593748l-2.8125 0zm7.09375 0l0 -16.593748l2.53125 0l0 2.359373q1.828125 -2.734373 5.28125 -2.734373q1.5 0 2.75 0.546875q1.265625 0.53125 1.890625 1.4062481q0.625 0.875 0.875 2.078125q0.15625 0.78125 0.15625 2.734375l0 10.203125l-2.8125 0l0 -10.09375q0 -1.71875 -0.328125 -2.5625q-0.328125 -0.859375 -1.171875 -1.359375q-0.828125 -0.515625 -1.953125 -0.515625q-1.796875 0 -3.109375 1.140625q-1.296875 1.140625 -1.296875 4.328125l0 9.0625l-2.8125 0zm17.28125 1.375l2.734375 0.40625q0.171875 1.265625 0.953125 1.84375q1.046875 0.78125 2.859375 0.78125q1.953125 0 3.015625 -0.78125q1.0625 -0.78125 1.4375 -2.1875q0.21875 -0.859375 0.203125 -3.609375q-1.84375 2.171875 -4.59375 2.171875q-3.421875 0 -5.296875 -2.46875q-1.875 -2.46875 -1.875 -5.921875q0 -2.375 0.859375 -4.375q0.859375 -2.015625 2.484375 -3.109373q1.640625 -1.09375 3.84375 -1.09375q2.9375 0 4.84375 2.374998l0 -1.9999981l2.59375 0l0 14.343748q0 3.875 -0.796875 5.484375q-0.78125 1.625 -2.5 2.5625q-1.703125 0.9375 -4.203125 0.9375q-2.96875 0 -4.796875 -1.34375q-1.828125 -1.328125 -1.765625 -4.015625zm2.328125 -9.96875q0 3.265625 1.296875 4.765625q1.296875 1.5 3.25 1.5q1.9375 0 3.25 -1.484375q1.3125 -1.5 1.3125 -4.6875q0 -3.046875 -1.359375 -4.59375q-1.34375 -1.546875 -3.25 -1.546875q-1.875 0 -3.1875 1.53125q-1.3125 1.515625 -1.3125 4.515625z" fill-rule="nonzero"/><path fill="#ff5454" d="m440.7436 85.181946l-2.609375 0l0 -22.906254l2.8125 0l0 8.171879q1.78125 -2.234375 4.546875 -2.234375q1.53125 0 2.890625 0.625q1.375 0.609375 2.25 1.734375q0.890625 1.109375 1.390625 2.6875q0.5 1.578125 0.5 3.375q0 4.265625 -2.109375 6.59375q-2.109375 2.328125 -5.0625 2.328125q-2.9375 0 -4.609375 -2.453125l0 2.078125zm-0.03125 -8.421875q0 2.984375 0.8125 4.3125q1.328125 2.171875 3.59375 2.171875q1.84375 0 3.1875 -1.59375q1.34375 -1.609375 1.34375 -4.78125q0 -3.25 -1.296875 -4.796875q-1.28125 -1.546875 -3.109375 -1.546875q-1.84375 0 -3.1875 1.609375q-1.34375 1.59375 -1.34375 4.625zm15.203125 8.421875l0 -16.59375l2.53125 0l0 2.515625q0.96875 -1.765625 1.78125 -2.328125q0.828125 -0.5625 1.8125 -0.5625q1.421875 0 2.890625 0.90625l-0.96875 2.609375q-1.03125 -0.609375 -2.0625 -0.609375q-0.921875 0 -1.65625 0.5625q-0.734375 0.546875 -1.046875 1.53125q-0.46875 1.5 -0.46875 3.28125l0 8.6875l-2.8125 0zm21.515625 -2.046875q-1.5625 1.328125 -3.015625 1.875q-1.4375 0.546875 -3.09375 0.546875q-2.734375 0 -4.203125 -1.328125q-1.46875 -1.34375 -1.46875 -3.421875q0 -1.21875 0.546875 -2.21875q0.5625 -1.015625 1.453125 -1.625q0.90625 -0.609375 2.03125 -0.921875q0.828125 -0.21875 2.5 -0.421875q3.40625 -0.40625 5.015625 -0.96875q0.015625 -0.578125 0.015625 -0.734375q0 -1.71875 -0.796875 -2.421875q-1.078125 -0.953125 -3.203125 -0.953125q-1.984375 0 -2.9375 0.703125q-0.9375 0.6875 -1.390625 2.453125l-2.75 -0.375q0.375 -1.765625 1.234375 -2.84375q0.859375 -1.09375 2.484375 -1.671875q1.625 -0.59375 3.765625 -0.59375q2.125 0 3.453125 0.5q1.328125 0.5 1.953125 1.265625q0.625 0.75 0.875 1.90625q0.140625 0.71875 0.140625 2.59375l0 3.75q0 3.921875 0.171875 4.96875q0.1875 1.03125 0.71875 1.984375l-2.9375 0q-0.4375 -0.875 -0.5625 -2.046875zm-0.234375 -6.28125q-1.53125 0.625 -4.59375 1.0625q-1.734375 0.25 -2.453125 0.5625q-0.71875 0.3125 -1.109375 0.921875q-0.390625 0.59375 -0.390625 1.328125q0 1.125 0.84375 1.875q0.859375 0.75 2.5 0.75q1.625 0 2.890625 -0.703125q1.265625 -0.71875 1.859375 -1.953125q0.453125 -0.953125 0.453125 -2.8125l0 -1.03125zm18.03125 2.25l2.765625 0.359375q-0.453125 2.859375 -2.328125 4.484375q-1.859375 1.609375 -4.578125 1.609375q-3.40625 0 -5.484375 -2.21875q-2.0625 -2.234375 -2.0625 -6.390625q0 -2.6875 0.890625 -4.703125q0.890625 -2.015625 2.703125 -3.015625q1.828125 -1.015625 3.96875 -1.015625q2.703125 0 4.421875 1.375q1.71875 1.359375 2.203125 3.875l-2.734375 0.421875q-0.390625 -1.671875 -1.390625 -2.515625q-0.984375 -0.84375 -2.390625 -0.84375q-2.125 0 -3.453125 1.53125q-1.328125 1.515625 -1.328125 4.8125q0 3.34375 1.28125 4.859375q1.28125 1.515625 3.34375 1.515625q1.65625 0 2.765625 -1.015625q1.109375 -1.015625 1.40625 -3.125zm5.1875 6.078125l0 -22.906254l2.8125 0l0 13.062504l6.65625 -6.75l3.640625 0l-6.34375 6.15625l6.984375 10.4375l-3.46875 0l-5.484375 -8.484375l-1.984375 1.90625l0 6.578125l-2.8125 0zm27.34375 -5.34375l2.90625 0.359375q-0.6875 2.546875 -2.546875 3.953125q-1.859375 1.40625 -4.75 1.40625q-3.640625 0 -5.78125 -2.234375q-2.125 -2.25 -2.125 -6.296875q0 -4.1875 2.15625 -6.5q2.15625 -2.3125 5.59375 -2.3125q3.328125 0 5.4375 2.265625q2.109375 2.265625 2.109375 6.375q0 0.25 -0.015625 0.75l-12.375 0q0.15625 2.734375 1.546875 4.1875q1.390625 1.453125 3.46875 1.453125q1.546875 0 2.640625 -0.8125q1.09375 -0.8125 1.734375 -2.59375zm-9.234375 -4.546875l9.265625 0q-0.1875 -2.09375 -1.0625 -3.140625q-1.34375 -1.625 -3.484375 -1.625q-1.9375 0 -3.265625 1.296875q-1.3125 1.296875 -1.453125 3.46875zm21.8125 7.375l0.40625 2.484375q-1.1875 0.25 -2.125 0.25q-1.53125 0 -2.375 -0.484375q-0.84375 -0.484375 -1.1875 -1.265625q-0.34375 -0.796875 -0.34375 -3.328125l0 -9.546875l-2.0625 0l0 -2.1875l2.0625 0l0 -4.109375l2.796875 -1.6875038l0 5.796879l2.828125 0l0 2.1875l-2.828125 0l0 9.703125q0 1.203125 0.140625 1.546875q0.15625 0.34375 0.484375 0.546875q0.34375 0.203125 0.96875 0.203125q0.46875 0 1.234375 -0.109375z" fill-rule="nonzero"/></g></svg>