<svg version="1.1" viewBox="0.0 0.0 925.7139107611548 527.4724409448819" fill="none" stroke="none" stroke-linecap="square" stroke-miterlimit="10" xmlns:xlink="http://www.w3.org/1999/xlink" xmlns="http://www.w3.org/2000/svg"><clipPath id="p.0"><path d="m0 0l925.7139 0l0 527.4724l-925.7139 0l0 -527.4724z" clip-rule="nonzero"/></clipPath><g clip-path="url(#p.0)"><path fill="#000000" fill-opacity="0.0" d="m0 0l925.7139 0l0 527.4724l-925.7139 0z" fill-rule="evenodd"/><path fill="#000000" fill-opacity="0.0" d="m418.6723 14.142483l93.95276 0l0 61.007877l-93.95276 0z" fill-rule="evenodd"/><path fill="#434343" d="m446.5936 34.469357l0 18.484375l4.15625 0q1.25 0 1.78125 0.484375q0.53125 0.484375 0.53125 1.265625q0 0.75 -0.53125 1.234375q-0.53125 0.484375 -1.78125 0.484375l-11.796875 0q-1.25 0 -1.78125 -0.484375q-0.53125 -0.484375 -0.53125 -1.265625q0 -0.75 0.53125 -1.234375q0.53125 -0.484375 1.78125 -0.484375l4.171875 0l0 -15.015625l-2.796875 0q-1.234375 0 -1.78125 -0.46875q-0.546875 -0.484375 -0.546875 -1.265625q0 -0.765625 0.53125 -1.25q0.546875 -0.484375 1.796875 -0.484375l6.265625 0zm20.29712 0l0 3.671875l-4.125 0l0 -3.671875l4.125 0zm0.46875 6.59375l0 11.890625l4.171875 0q1.25 0 1.78125 0.484375q0.53125 0.484375 0.53125 1.265625q0 0.75 -0.53125 1.234375q-0.53125 0.484375 -1.78125 0.484375l-11.796875 0q-1.25 0 -1.78125 -0.484375q-0.53125 -0.484375 -0.53125 -1.265625q0 -0.75 0.53125 -1.234375q0.53125 -0.484375 1.78125 -0.484375l4.15625 0l0 -8.421875l-2.78125 0q-1.234375 0 -1.78125 -0.484375q-0.546875 -0.484375 -0.546875 -1.265625q0 -0.765625 0.53125 -1.234375q0.546875 -0.484375 1.796875 -0.484375l6.25 0zm22.8284 4.0625q-0.84375 -0.53125 -1.78125 -0.796875q-0.921875 -0.265625 -1.9375 -0.265625q-2.015625 0 -3.203125 0.671875q-0.515625 0.28125 -0.515625 0.625q0 0.390625 0.703125 0.75q0.546875 0.28125 2.421875 0.53125q3.453125 0.46875 4.8125 0.953125q1.78125 0.625 2.734375 1.859375q0.96875 1.234375 0.96875 2.609375q0 1.859375 -1.640625 3.109375q-2.359375 1.8125 -6.109375 1.8125q-1.5 0 -2.78125 -0.265625q-1.28125 -0.265625 -2.34375 -0.765625q-0.25 0.21875 -0.546875 0.34375q-0.28125 0.109375 -0.59375 0.109375q-0.8125 0 -1.296875 -0.53125q-0.46875 -0.53125 -0.46875 -1.78125l0 -1.171875q0 -1.25 0.46875 -1.78125q0.484375 -0.546875 1.265625 -0.546875q0.625 0 1.046875 0.359375q0.421875 0.34375 0.65625 1.1875q0.796875 0.671875 1.90625 1.03125q1.125 0.34375 2.578125 0.34375q2.390625 0 3.71875 -0.75q0.625 -0.375 0.625 -0.78125q0 -0.671875 -0.90625 -1.109375q-0.890625 -0.4375 -3.703125 -0.75q-4.171875 -0.4375 -5.578125 -1.6875q-1.40625 -1.234375 -1.40625 -3.046875q0 -1.859375 1.578125 -3.09375q2.125 -1.703125 5.578125 -1.703125q1.203125 0 2.3125 0.234375q1.109375 0.234375 2.125 0.703125q0.3125 -0.234375 0.59375 -0.34375q0.28125 -0.125 0.515625 -0.125q0.71875 0 1.1875 0.53125q0.46875 0.53125 0.46875 1.78125l0 0.84375q0 1.140625 -0.265625 1.546875q-0.546875 0.78125 -1.46875 0.78125q-0.625 0 -1.109375 -0.390625q-0.46875 -0.390625 -0.609375 -1.03125z" fill-rule="nonzero"/><path stroke="#434343" stroke-width="1.0" stroke-linecap="butt" d="m148.66324 99.06572l0 54.698166" fill-rule="nonzero"/><path stroke="#434343" stroke-width="1.0" stroke-linecap="butt" d="m205.10155 99.06572l0 54.698166" fill-rule="nonzero"/><path stroke="#434343" stroke-width="1.0" stroke-linecap="butt" d="m261.5399 99.06572l0 54.698166" fill-rule="nonzero"/><path stroke="#434343" stroke-width="1.0" stroke-linecap="butt" d="m317.9782 99.06572l0 54.698166" fill-rule="nonzero"/><path stroke="#434343" stroke-width="1.0" stroke-linecap="butt" d="m148.16455 99.56441l170.31235 0" fill-rule="nonzero"/><path stroke="#434343" stroke-width="1.0" stroke-linecap="butt" d="m148.16455 153.2652l170.31235 0" fill-rule="nonzero"/><path fill="#000000" d="m179.40742 136.0148l-2.34375 0l0 -14.921875q-0.859375 0.796875 -2.234375 1.609375q-1.359375 0.796875 -2.453125 1.203125l0 -2.265625q1.96875 -0.921875 3.4375 -2.234375q1.46875 -1.3125 2.078125 -2.546875l1.515625 0l0 19.15625z" fill-rule="nonzero"/><path fill="#000000" d="m239.33012 133.7648l0 2.25l-12.609375 0q-0.03125 -0.84375 0.265625 -1.625q0.484375 -1.296875 1.546875 -2.546875q1.0625 -1.25 3.0625 -2.875q3.109375 -2.5625 4.203125 -4.046875q1.09375 -1.5 1.09375 -2.8125q0 -1.40625 -1.0 -2.359375q-0.984375 -0.953125 -2.59375 -0.953125q-1.6875 0 -2.703125 1.015625q-1.015625 1.015625 -1.03125 2.8125l-2.40625 -0.25q0.25 -2.6875 1.859375 -4.09375q1.609375 -1.421875 4.328125 -1.421875q2.75 0 4.34375 1.53125q1.609375 1.515625 1.609375 3.765625q0 1.140625 -0.46875 2.25q-0.46875 1.109375 -1.5625 2.328125q-1.078125 1.21875 -3.609375 3.359375q-2.09375 1.765625 -2.703125 2.40625q-0.59375 0.625 -0.984375 1.265625l9.359375 0z" fill-rule="nonzero"/><path fill="#000000" d="m283.47156 130.98355l2.34375 -0.3125q0.390625 1.984375 1.359375 2.875q0.984375 0.875 2.375 0.875q1.640625 0 2.78125 -1.140625q1.140625 -1.15625 1.140625 -2.84375q0 -1.625 -1.0625 -2.671875q-1.046875 -1.046875 -2.671875 -1.046875q-0.65625 0 -1.65625 0.265625l0.265625 -2.0625q0.234375 0.03125 0.375 0.03125q1.5 0 2.6875 -0.78125q1.203125 -0.78125 1.203125 -2.40625q0 -1.296875 -0.875 -2.140625q-0.859375 -0.84375 -2.25 -0.84375q-1.359375 0 -2.28125 0.859375q-0.90625 0.859375 -1.15625 2.578125l-2.34375 -0.421875q0.421875 -2.34375 1.9375 -3.640625q1.53125 -1.296875 3.796875 -1.296875q1.5625 0 2.875 0.671875q1.3125 0.671875 2.0 1.828125q0.703125 1.15625 0.703125 2.453125q0 1.234375 -0.671875 2.25q-0.65625 1.015625 -1.953125 1.625q1.6875 0.390625 2.625 1.625q0.9375 1.21875 0.9375 3.0625q0 2.5 -1.828125 4.25q-1.8125 1.734375 -4.59375 1.734375q-2.515625 0 -4.171875 -1.5q-1.65625 -1.5 -1.890625 -3.875z" fill-rule="nonzero"/><path stroke="#434343" stroke-width="1.0" stroke-linecap="butt" d="m380.82092 99.06572l0 54.698166" fill-rule="nonzero"/><path stroke="#434343" stroke-width="1.0" stroke-linecap="butt" d="m437.25925 99.06572l0 54.698166" fill-rule="nonzero"/><path stroke="#434343" stroke-width="1.0" stroke-linecap="butt" d="m493.69757 99.06572l0 54.698166" fill-rule="nonzero"/><path stroke="#434343" stroke-width="1.0" stroke-linecap="butt" d="m550.13586 99.06572l0 54.698166" fill-rule="nonzero"/><path stroke="#434343" stroke-width="1.0" stroke-linecap="butt" d="m380.32224 99.56441l170.31235 0" fill-rule="nonzero"/><path stroke="#434343" stroke-width="1.0" stroke-linecap="butt" d="m380.32224 153.2652l170.31235 0" fill-rule="nonzero"/><path fill="#000000" d="m410.23697 136.0148l0 -4.5625l-8.265625 0l0 -2.15625l8.703125 -12.359375l1.90625 0l0 12.359375l2.5781555 0l0 2.15625l-2.5781555 0l0 4.5625l-2.34375 0zm0 -6.71875l0 -8.59375l-5.96875 8.59375l5.96875 0z" fill-rule="nonzero"/><path fill="#000000" d="m459.1753 131.0148l2.453125 -0.203125q0.28125 1.796875 1.265625 2.703125q1.0 0.90625 2.40625 0.90625q1.6875 0 2.859375 -1.28125q1.171875 -1.28125 1.171875 -3.390625q0 -2.0 -1.125 -3.15625q-1.125 -1.15625 -2.9375 -1.15625q-1.140625 0 -2.046875 0.515625q-0.90625 0.515625 -1.4375 1.328125l-2.203125 -0.28125l1.859375 -9.8125l9.484375 0l0 2.25l-7.609375 0l-1.03125 5.125q1.71875 -1.203125 3.609375 -1.203125q2.5 0 4.203125 1.734375q1.71875 1.734375 1.71875 4.453125q0 2.59375 -1.5 4.484375q-1.84375 2.3125 -5.015625 2.3125q-2.59375 0 -4.25 -1.453125q-1.640625 -1.46875 -1.875 -3.875z" fill-rule="nonzero"/><path fill="#000000" d="m527.7699 121.60855l-2.328125 0.1875q-0.3125 -1.390625 -0.890625 -2.015625q-0.953125 -1.0 -2.34375 -1.0q-1.109375 0 -1.96875 0.625q-1.09375 0.8125 -1.734375 2.359375q-0.640625 1.546875 -0.671875 4.40625q0.84375 -1.28125 2.0625 -1.90625q1.234375 -0.625 2.578125 -0.625q2.34375 0 3.984375 1.734375q1.640625 1.71875 1.640625 4.4375q0 1.796875 -0.78125 3.34375q-0.765625 1.546875 -2.125 2.375q-1.34375 0.8125 -3.0625 0.8125q-2.921875 0 -4.78125 -2.15625q-1.84375 -2.15625 -1.84375 -7.09375q0 -5.53125 2.046875 -8.046875q1.78125 -2.1875 4.796875 -2.1875q2.25 0 3.6875 1.265625q1.453125 1.25 1.734375 3.484375zm-9.5625 8.21875q0 1.21875 0.5 2.328125q0.515625 1.09375 1.4375 1.6875q0.9375 0.578125 1.953125 0.578125q1.484375 0 2.546875 -1.203125q1.0625 -1.203125 1.0625 -3.25q0 -1.984375 -1.0625 -3.125q-1.046875 -1.140625 -2.640625 -1.140625q-1.59375 0 -2.703125 1.140625q-1.09375 1.140625 -1.09375 2.984375z" fill-rule="nonzero"/><path stroke="#434343" stroke-width="1.0" stroke-linecap="butt" d="m612.4004 99.06572l0 54.698166" fill-rule="nonzero"/><path stroke="#434343" stroke-width="1.0" stroke-linecap="butt" d="m668.83875 99.06572l0 54.698166" fill-rule="nonzero"/><path stroke="#434343" stroke-width="1.0" stroke-linecap="butt" d="m725.27704 99.06572l0 54.698166" fill-rule="nonzero"/><path stroke="#434343" stroke-width="1.0" stroke-linecap="butt" d="m781.7154 99.06572l0 54.698166" fill-rule="nonzero"/><path stroke="#434343" stroke-width="1.0" stroke-linecap="butt" d="m611.90173 99.56441l170.31232 0" fill-rule="nonzero"/><path stroke="#434343" stroke-width="1.0" stroke-linecap="butt" d="m611.90173 153.2652l170.31232 0" fill-rule="nonzero"/><path fill="#000000" d="m634.4727 119.436676l0 -2.25l12.34375 0l0 1.8125q-1.8125 1.9375 -3.609375 5.15625q-1.78125 3.21875 -2.765625 6.609375q-0.703125 2.40625 -0.890625 5.25l-2.40625 0q0.03125 -2.25 0.875 -5.4375q0.84375 -3.1875 2.421875 -6.140625q1.59375 -2.96875 3.375 -5.0l-9.34375 0z" fill-rule="nonzero"/><path fill="#000000" d="m694.3642 125.67105q-1.46875 -0.53125 -2.171875 -1.515625q-0.703125 -1.0 -0.703125 -2.375q0 -2.09375 1.5 -3.5q1.5 -1.421875 3.984375 -1.421875q2.5 0 4.015625 1.453125q1.53125 1.453125 1.53125 3.53125q0 1.328125 -0.703125 2.3125q-0.6875 0.984375 -2.109375 1.515625q1.75 0.5625 2.671875 1.84375q0.921875 1.28125 0.921875 3.046875q0 2.453125 -1.734375 4.125q-1.734375 1.65625 -4.5625 1.65625q-2.8125 0 -4.546875 -1.671875q-1.734375 -1.671875 -1.734375 -4.171875q0 -1.859375 0.9375 -3.109375q0.953125 -1.265625 2.703125 -1.71875zm-0.46875 -3.96875q0 1.34375 0.859375 2.203125q0.875 0.859375 2.265625 0.859375q1.359375 0 2.21875 -0.84375q0.875 -0.859375 0.875 -2.09375q0 -1.28125 -0.890625 -2.15625q-0.890625 -0.890625 -2.21875 -0.890625q-1.34375 0 -2.234375 0.859375q-0.875 0.859375 -0.875 2.0625zm-0.765625 8.8125q0 1.0 0.46875 1.9375q0.484375 0.9375 1.421875 1.453125q0.9375 0.515625 2.015625 0.515625q1.6875 0 2.78125 -1.078125q1.09375 -1.09375 1.09375 -2.75q0 -1.703125 -1.140625 -2.796875q-1.125 -1.109375 -2.8125 -1.109375q-1.65625 0 -2.75 1.09375q-1.078125 1.09375 -1.078125 2.734375z" fill-rule="nonzero"/><path fill="#000000" d="m747.53687 131.60855l2.25 -0.21875q0.296875 1.59375 1.09375 2.3125q0.8125 0.71875 2.078125 0.71875q1.078125 0 1.890625 -0.5q0.8125 -0.5 1.328125 -1.328125q0.53125 -0.828125 0.875 -2.21875q0.359375 -1.40625 0.359375 -2.875q0 -0.15625 -0.015625 -0.46875q-0.703125 1.125 -1.921875 1.828125q-1.21875 0.6875 -2.640625 0.6875q-2.359375 0 -4.0 -1.71875q-1.640625 -1.71875 -1.640625 -4.53125q0 -2.90625 1.703125 -4.671875q1.71875 -1.765625 4.296875 -1.765625q1.859375 0 3.390625 1.0q1.546875 1.0 2.34375 2.859375q0.8125 1.859375 0.8125 5.359375q0 3.65625 -0.796875 5.828125q-0.796875 2.171875 -2.375 3.3125q-1.5625 1.125 -3.671875 1.125q-2.234375 0 -3.65625 -1.234375q-1.40625 -1.25 -1.703125 -3.5zm9.59375 -8.421875q0 -2.015625 -1.078125 -3.203125q-1.0625 -1.1875 -2.578125 -1.1875q-1.5625 0 -2.71875 1.28125q-1.15625 1.265625 -1.15625 3.296875q0 1.828125 1.09375 2.96875q1.109375 1.140625 2.71875 1.140625q1.625 0 2.671875 -1.140625q1.046875 -1.140625 1.046875 -3.15625z" fill-rule="nonzero"/><path fill="#000000" fill-opacity="0.0" d="m136.14735 89.75708l0 0c0 -2.9821777 2.4175415 -5.399704 5.399704 -5.399704l185.64154 0c1.4320984 0 2.8055115 0.56889343 3.8181763 1.5815353c1.0126343 1.0126419 1.5815125 2.386078 1.5815125 3.8181686l0 73.45256c0 2.9821625 -2.417511 5.399704 -5.3996887 5.399704l-185.64154 0c-2.9821625 0 -5.399704 -2.4175415 -5.399704 -5.399704z" fill-rule="evenodd"/><path stroke="#434343" stroke-width="3.0" stroke-linejoin="round" stroke-linecap="butt" stroke-dasharray="12.0,9.0" d="m136.14735 89.75708l0 0c0 -2.9821777 2.4175415 -5.399704 5.399704 -5.399704l185.64154 0c1.4320984 0 2.8055115 0.56889343 3.8181763 1.5815353c1.0126343 1.0126419 1.5815125 2.386078 1.5815125 3.8181686l0 73.45256c0 2.9821625 -2.417511 5.399704 -5.3996887 5.399704l-185.64154 0c-2.9821625 0 -5.399704 -2.4175415 -5.399704 -5.399704z" fill-rule="evenodd"/><path fill="#000000" fill-opacity="0.0" d="m367.25858 89.75708l0 0c0 -2.9821777 2.4175415 -5.399704 5.399719 -5.399704l185.64151 0c1.4320679 0 2.805542 0.56889343 3.8181763 1.5815353c1.0126343 1.0126419 1.581543 2.386078 1.581543 3.8181686l0 73.45256c0 2.9821625 -2.4175415 5.399704 -5.399719 5.399704l-185.64151 0c-2.9821777 0 -5.399719 -2.4175415 -5.399719 -5.399704z" fill-rule="evenodd"/><path stroke="#999999" stroke-width="3.0" stroke-linejoin="round" stroke-linecap="butt" stroke-dasharray="12.0,9.0" d="m367.25858 89.75708l0 0c0 -2.9821777 2.4175415 -5.399704 5.399719 -5.399704l185.64151 0c1.4320679 0 2.805542 0.56889343 3.8181763 1.5815353c1.0126343 1.0126419 1.581543 2.386078 1.581543 3.8181686l0 73.45256c0 2.9821625 -2.4175415 5.399704 -5.399719 5.399704l-185.64151 0c-2.9821777 0 -5.399719 -2.4175415 -5.399719 -5.399704z" fill-rule="evenodd"/><path fill="#000000" fill-opacity="0.0" d="m598.3698 89.75708l0 0c0 -2.9821777 2.4174805 -5.399704 5.399658 -5.399704l185.64154 0c1.4321289 0 2.805542 0.56889343 3.8181763 1.5815353c1.0126343 1.0126419 1.581543 2.386078 1.581543 3.8181686l0 73.45256c0 2.9821625 -2.4175415 5.399704 -5.399719 5.399704l-185.64154 0c-2.9821777 0 -5.399658 -2.4175415 -5.399658 -5.399704z" fill-rule="evenodd"/><path stroke="#999999" stroke-width="3.0" stroke-linejoin="round" stroke-linecap="butt" stroke-dasharray="12.0,9.0" d="m598.3698 89.75708l0 0c0 -2.9821777 2.4174805 -5.399704 5.399658 -5.399704l185.64154 0c1.4321289 0 2.805542 0.56889343 3.8181763 1.5815353c1.0126343 1.0126419 1.581543 2.386078 1.581543 3.8181686l0 73.45256c0 2.9821625 -2.4175415 5.399704 -5.399719 5.399704l-185.64154 0c-2.9821777 0 -5.399658 -2.4175415 -5.399658 -5.399704z" fill-rule="evenodd"/><path fill="#000000" fill-opacity="0.0" d="m332.5883 126.48336l34.677185 0" fill-rule="evenodd"/><path stroke="#999999" stroke-width="3.0" stroke-linejoin="round" stroke-linecap="butt" stroke-dasharray="12.0,9.0" d="m332.5883 126.48336l34.677185 0" fill-rule="evenodd"/><path fill="#000000" fill-opacity="0.0" d="m563.6995 126.48336l34.677185 0" fill-rule="evenodd"/><path stroke="#999999" stroke-width="3.0" stroke-linejoin="round" stroke-linecap="butt" stroke-dasharray="12.0,9.0" d="m563.6995 126.48336l34.677185 0" fill-rule="evenodd"/><path fill="#000000" fill-opacity="0.0" d="m177.02925 239.98763l210.67717 0l0 61.00789l-210.67717 0z" fill-rule="evenodd"/><path fill="#434343" d="m211.31992 260.3145l0 18.484375l4.15625 0q1.25 0 1.78125 0.484375q0.53125 0.484375 0.53125 1.265625q0 0.75 -0.53125 1.234375q-0.53125 0.484375 -1.78125 0.484375l-11.796875 0q-1.25 0 -1.78125 -0.484375q-0.53125 -0.484375 -0.53125 -1.265625q0 -0.75 0.53125 -1.234375q0.53125 -0.484375 1.78125 -0.484375l4.171875 0l0 -15.015625l-2.796875 0q-1.234375 0 -1.78125 -0.46875q-0.546875 -0.484375 -0.546875 -1.265625q0 -0.765625 0.53125 -1.25q0.546875 -0.484375 1.796875 -0.484375l6.265625 0zm20.297134 0l0 3.671875l-4.125 0l0 -3.671875l4.125 0zm0.46875 6.59375l0 11.890625l4.171875 0q1.25 0 1.78125 0.484375q0.53125 0.484375 0.53125 1.265625q0 0.75 -0.53125 1.234375q-0.53125 0.484375 -1.78125 0.484375l-11.796875 0q-1.25 0 -1.78125 -0.484375q-0.53125 -0.484375 -0.53125 -1.265625q0 -0.75 0.53125 -1.234375q0.53125 -0.484375 1.78125 -0.484375l4.15625 0l0 -8.421875l-2.78125 0q-1.234375 0 -1.78125 -0.484375q-0.546875 -0.484375 -0.546875 -1.265625q0 -0.765625 0.53125 -1.234375q0.546875 -0.484375 1.796875 -0.484375l6.25 0zm22.828384 4.0625q-0.84375 -0.53125 -1.78125 -0.796875q-0.921875 -0.265625 -1.9375 -0.265625q-2.015625 0 -3.203125 0.671875q-0.515625 0.28125 -0.515625 0.625q0 0.390625 0.703125 0.75q0.546875 0.28125 2.421875 0.53125q3.453125 0.46875 4.8125 0.953125q1.78125 0.625 2.734375 1.859375q0.96875 1.234375 0.96875 2.609375q0 1.859375 -1.640625 3.109375q-2.359375 1.8125 -6.109375 1.8125q-1.5 0 -2.78125 -0.265625q-1.28125 -0.265625 -2.34375 -0.765625q-0.25 0.21875 -0.546875 0.34375q-0.28125 0.109375 -0.59375 0.109375q-0.8125 0 -1.296875 -0.53125q-0.46875 -0.53125 -0.46875 -1.78125l0 -1.171875q0 -1.25 0.46875 -1.78125q0.484375 -0.546875 1.265625 -0.546875q0.625 0 1.046875 0.359375q0.421875 0.34375 0.65625 1.1875q0.796875 0.671875 1.90625 1.03125q1.125 0.34375 2.578125 0.34375q2.390625 0 3.71875 -0.75q0.625 -0.375 0.625 -0.78125q0 -0.671875 -0.90625 -1.109375q-0.890625 -0.4375 -3.703125 -0.75q-4.171875 -0.4375 -5.578125 -1.6875q-1.40625 -1.234375 -1.40625 -3.046875q0 -1.859375 1.578125 -3.09375q2.125 -1.703125 5.578125 -1.703125q1.203125 0 2.3125 0.234375q1.109375 0.234375 2.125 0.703125q0.3125 -0.234375 0.59375 -0.34375q0.28125 -0.125 0.515625 -0.125q0.71875 0 1.1875 0.53125q0.46875 0.53125 0.46875 1.78125l0 0.84375q0 1.140625 -0.265625 1.546875q-0.546875 0.78125 -1.46875 0.78125q-0.625 0 -1.109375 -0.390625q-0.46875 -0.390625 -0.609375 -1.03125z" fill-rule="nonzero"/><path fill="#3c78d8" d="m273.66446 263.84576l0 20.375l2.109375 0q1.25 0 1.78125 0.46875q0.53125 0.46875 0.53125 1.25q0 0.78125 -0.53125 1.265625q-0.53125 0.484375 -1.78125 0.484375l-5.578125 0l0 -27.3125l5.5625 0q1.25 0 1.78125 0.484375q0.53125 0.46875 0.53125 1.25q0 0.765625 -0.53125 1.25q-0.53125 0.484375 -1.78125 0.484375l-2.09375 0zm20.79712 0l0 20.375l2.109375 0q1.25 0 1.78125 0.46875q0.53125 0.46875 0.53125 1.25q0 0.78125 -0.53125 1.265625q-0.53125 0.484375 -1.78125 0.484375l-5.578125 0l0 -27.3125l5.5625 0q1.25 0 1.78125 0.484375q0.53125 0.46875 0.53125 1.25q0 0.765625 -0.53125 1.25q-0.53125 0.484375 -1.78125 0.484375l-2.09375 0z" fill-rule="nonzero"/><path fill="#434343" d="m315.33682 259.8145l0 18.984375l3.5 0q1.25 0 1.78125 0.484375q0.53125 0.484375 0.53125 1.265625q0 0.75 -0.53125 1.234375q-0.53125 0.484375 -1.78125 0.484375l-10.484375 0q-1.25 0 -1.78125 -0.484375q-0.53125 -0.484375 -0.53125 -1.265625q0 -0.75 0.53125 -1.234375q0.53125 -0.484375 1.78125 -0.484375l3.515625 0l0 -14.46875l-3.109375 0.8125q-0.734375 0.203125 -1.109375 0.203125q-0.65625 0 -1.140625 -0.515625q-0.484375 -0.53125 -0.484375 -1.296875q0 -0.6875 0.359375 -1.078125q0.359375 -0.40625 1.484375 -0.71875l7.46875 -1.921875z" fill-rule="nonzero"/><path fill="#3c78d8" d="m332.66522 284.22076l0 -20.375l-2.109375 0q-1.25 0 -1.78125 -0.484375q-0.53125 -0.484375 -0.53125 -1.25q0 -0.78125 0.53125 -1.25q0.53125 -0.484375 1.78125 -0.484375l5.578125 0l0 27.3125l-5.5625 0q-1.25 0 -1.78125 -0.484375q-0.53125 -0.484375 -0.53125 -1.265625q0 -0.765625 0.53125 -1.25q0.53125 -0.46875 1.78125 -0.46875l2.09375 0zm20.79715 0l0 -20.375l-2.109375 0q-1.25 0 -1.78125 -0.484375q-0.53125 -0.484375 -0.53125 -1.25q0 -0.78125 0.53125 -1.25q0.53125 -0.484375 1.78125 -0.484375l5.578125 0l0 27.3125l-5.5625 0q-1.25 0 -1.78125 -0.484375q-0.53125 -0.484375 -0.53125 -1.265625q0 -0.765625 0.53125 -1.25q0.53125 -0.46875 1.78125 -0.46875l2.09375 0z" fill-rule="nonzero"/><path fill="#000000" fill-opacity="0.0" d="m515.6666 239.98894l261.3858 0l0 61.00789l-261.3858 0z" fill-rule="evenodd"/><path fill="#434343" d="m544.1159 260.31583l0 18.484375l4.15625 0q1.25 0 1.78125 0.484375q0.53125 0.484375 0.53125 1.265625q0 0.75 -0.53125 1.234375q-0.53125 0.484375 -1.78125 0.484375l-11.796875 0q-1.25 0 -1.78125 -0.484375q-0.53125 -0.484375 -0.53125 -1.265625q0 -0.75 0.53125 -1.234375q0.53125 -0.484375 1.78125 -0.484375l4.171875 0l0 -15.015625l-2.796875 0q-1.234375 0 -1.78125 -0.46875q-0.546875 -0.484375 -0.546875 -1.265625q0 -0.765625 0.53125 -1.25q0.546875 -0.484375 1.796875 -0.484375l6.265625 0zm20.29712 0l0 3.671875l-4.125 0l0 -3.671875l4.125 0zm0.46875 6.59375l0 11.890625l4.171875 0q1.25 0 1.78125 0.484375q0.53125 0.484375 0.53125 1.265625q0 0.75 -0.53125 1.234375q-0.53125 0.484375 -1.78125 0.484375l-11.796875 0q-1.25 0 -1.78125 -0.484375q-0.53125 -0.484375 -0.53125 -1.265625q0 -0.75 0.53125 -1.234375q0.53125 -0.484375 1.78125 -0.484375l4.15625 0l0 -8.421875l-2.78125 0q-1.234375 0 -1.78125 -0.484375q-0.546875 -0.484375 -0.546875 -1.265625q0 -0.765625 0.53125 -1.234375q0.546875 -0.484375 1.796875 -0.484375l6.25 0zm22.82843 4.0625q-0.84375 -0.53125 -1.78125 -0.796875q-0.921875 -0.265625 -1.9375 -0.265625q-2.015625 0 -3.203125 0.671875q-0.515625 0.28125 -0.515625 0.625q0 0.390625 0.703125 0.75q0.546875 0.28125 2.421875 0.53125q3.453125 0.46875 4.8125 0.953125q1.78125 0.625 2.734375 1.859375q0.96875 1.234375 0.96875 2.609375q0 1.859375 -1.640625 3.109375q-2.359375 1.8125 -6.109375 1.8125q-1.5 0 -2.78125 -0.265625q-1.28125 -0.265625 -2.34375 -0.765625q-0.25 0.21875 -0.546875 0.34375q-0.28125 0.109375 -0.59375 0.109375q-0.8125 0 -1.296875 -0.53125q-0.46875 -0.53125 -0.46875 -1.78125l0 -1.171875q0 -1.25 0.46875 -1.78125q0.484375 -0.546875 1.265625 -0.546875q0.625 0 1.046875 0.359375q0.421875 0.34375 0.65625 1.1875q0.796875 0.671875 1.90625 1.03125q1.125 0.34375 2.578125 0.34375q2.390625 0 3.71875 -0.75q0.625 -0.375 0.625 -0.78125q0 -0.671875 -0.90625 -1.109375q-0.890625 -0.4375 -3.703125 -0.75q-4.171875 -0.4375 -5.578125 -1.6875q-1.40625 -1.234375 -1.40625 -3.046875q0 -1.859375 1.578125 -3.09375q2.125 -1.703125 5.578125 -1.703125q1.203125 0 2.3125 0.234375q1.109375 0.234375 2.125 0.703125q0.3125 -0.234375 0.59375 -0.34375q0.28125 -0.125 0.515625 -0.125q0.71875 0 1.1875 0.53125q0.46875 0.53125 0.46875 1.78125l0 0.84375q0 1.140625 -0.265625 1.546875q-0.546875 0.78125 -1.46875 0.78125q-0.625 0 -1.109375 -0.390625q-0.46875 -0.390625 -0.609375 -1.03125z" fill-rule="nonzero"/><path fill="#3c78d8" d="m606.46045 263.84708l0 20.375l2.109375 0q1.25 0 1.78125 0.46875q0.53125 0.46875 0.53125 1.25q0 0.78125 -0.53125 1.265625q-0.53125 0.484375 -1.78125 0.484375l-5.578125 0l0 -27.3125l5.5625 0q1.25 0 1.78125 0.484375q0.53125 0.46875 0.53125 1.25q0 0.765625 -0.53125 1.25q-0.53125 0.484375 -1.78125 0.484375l-2.09375 0zm20.79712 0l0 20.375l2.109375 0q1.25 0 1.78125 0.46875q0.53125 0.46875 0.53125 1.25q0 0.78125 -0.53125 1.265625q-0.53125 0.484375 -1.78125 0.484375l-5.578125 0l0 -27.3125l5.5625 0q1.25 0 1.78125 0.484375q0.53125 0.46875 0.53125 1.25q0 0.765625 -0.53125 1.25q-0.53125 0.484375 -1.78125 0.484375l-2.09375 0z" fill-rule="nonzero"/><path fill="#434343" d="m648.1328 259.81583l0 18.984375l3.5 0q1.25 0 1.78125 0.484375q0.53125 0.484375 0.53125 1.265625q0 0.75 -0.53125 1.234375q-0.53125 0.484375 -1.78125 0.484375l-10.484375 0q-1.25 0 -1.78125 -0.484375q-0.53125 -0.484375 -0.53125 -1.265625q0 -0.75 0.53125 -1.234375q0.53125 -0.484375 1.78125 -0.484375l3.515625 0l0 -14.46875l-3.109375 0.8125q-0.734375 0.203125 -1.109375 0.203125q-0.65625 0 -1.140625 -0.515625q-0.484375 -0.53125 -0.484375 -1.296875q0 -0.6875 0.359375 -1.078125q0.359375 -0.40625 1.484375 -0.71875l7.46875 -1.921875z" fill-rule="nonzero"/><path fill="#3c78d8" d="m665.46124 284.22208l0 -20.375l-2.109375 0q-1.25 0 -1.78125 -0.484375q-0.53125 -0.484375 -0.53125 -1.25q0 -0.78125 0.53125 -1.25q0.53125 -0.484375 1.78125 -0.484375l5.578125 0l0 27.3125l-5.5625 0q-1.25 0 -1.78125 -0.484375q-0.53125 -0.484375 -0.53125 -1.265625q0 -0.765625 0.53125 -1.25q0.53125 -0.46875 1.78125 -0.46875l2.09375 0zm20.79712 0l0 -20.375l-2.109375 0q-1.25 0 -1.78125 -0.484375q-0.53125 -0.484375 -0.53125 -1.25q0 -0.78125 0.53125 -1.25q0.53125 -0.484375 1.78125 -0.484375l5.578125 0l0 27.3125l-5.5625 0q-1.25 0 -1.78125 -0.484375q-0.53125 -0.484375 -0.53125 -1.265625q0 -0.765625 0.53125 -1.25q0.53125 -0.46875 1.78125 -0.46875l2.09375 0z" fill-rule="nonzero"/><path fill="#ff9900" d="m710.4461 263.84708l0 20.375l2.109375 0q1.25 0 1.78125 0.46875q0.53125 0.46875 0.53125 1.25q0 0.78125 -0.53125 1.265625q-0.53125 0.484375 -1.78125 0.484375l-5.578125 0l0 -27.3125l5.5625 0q1.25 0 1.78125 0.484375q0.53125 0.46875 0.53125 1.25q0 0.765625 -0.53125 1.25q-0.53125 0.484375 -1.78125 0.484375l-2.09375 0z" fill-rule="nonzero"/><path fill="#434343" d="m726.3057 278.8002l7.59375 0q0.625 -0.515625 1.1875 -0.515625q0.796875 0 1.265625 0.53125q0.46875 0.53125 0.46875 1.796875l0 1.65625l-15.8125 0l0 -3.671875q9.375 -7.734375 11.328125 -9.953125q0.96875 -1.125 0.96875 -2.140625q0 -1.28125 -1.109375 -2.25q-1.09375 -0.96875 -2.9375 -0.96875q-1.875 0 -3.109375 1.078125q-0.640625 0.578125 -1.03125 1.71875q-0.234375 0.703125 -0.65625 1.015625q-0.40625 0.296875 -1.015625 0.296875q-0.703125 0 -1.21875 -0.5q-0.515625 -0.515625 -0.515625 -1.1875q0 -1.015625 0.9375 -2.53125q0.9375 -1.53125 2.734375 -2.4375q1.796875 -0.921875 3.921875 -0.921875q3.28125 0 5.375 1.984375q2.09375 1.984375 2.09375 4.8125q0 1.4375 -0.59375 2.671875q-0.59375 1.21875 -2.890625 3.390625q-1.78125 1.703125 -6.984375 6.125z" fill-rule="nonzero"/><path fill="#ff9900" d="m748.6498 284.22208l0 -20.375l-2.109375 0q-1.25 0 -1.78125 -0.484375q-0.53125 -0.484375 -0.53125 -1.25q0 -0.78125 0.53125 -1.25q0.53125 -0.484375 1.78125 -0.484375l5.578125 0l0 27.3125l-5.5625 0q-1.25 0 -1.78125 -0.484375q-0.53125 -0.484375 -0.53125 -1.265625q0 -0.765625 0.53125 -1.25q0.53125 -0.46875 1.78125 -0.46875l2.09375 0z" fill-rule="nonzero"/><path fill="#000000" fill-opacity="0.0" d="m184.14735 321.75708l0 0c0 -2.9821777 2.4175415 -5.399719 5.399704 -5.399719l185.64154 0c1.4320984 0 2.8055115 0.5689087 3.8181763 1.581543c1.0126343 1.0126648 1.5815125 2.386078 1.5815125 3.8181763l0 73.452545c0 2.9821777 -2.417511 5.399719 -5.3996887 5.399719l-185.64154 0c-2.9821625 0 -5.399704 -2.4175415 -5.399704 -5.399719z" fill-rule="evenodd"/><path stroke="#b7b7b7" stroke-width="2.0" stroke-linejoin="round" stroke-linecap="butt" stroke-dasharray="8.0,6.0" d="m184.14735 321.75708l0 0c0 -2.9821777 2.4175415 -5.399719 5.399704 -5.399719l185.64154 0c1.4320984 0 2.8055115 0.5689087 3.8181763 1.581543c1.0126343 1.0126648 1.5815125 2.386078 1.5815125 3.8181763l0 73.452545c0 2.9821777 -2.417511 5.399719 -5.3996887 5.399719l-185.64154 0c-2.9821625 0 -5.399704 -2.4175415 -5.399704 -5.399719z" fill-rule="evenodd"/><path stroke="#3c78d8" stroke-width="2.0" stroke-linecap="butt" d="m196.66324 330.5644l0 55.700806" fill-rule="nonzero"/><path stroke="#3c78d8" stroke-width="2.0" stroke-linecap="butt" d="m253.10155 330.5644l0 55.700806" fill-rule="nonzero"/><path stroke="#3c78d8" stroke-width="2.0" stroke-linecap="butt" d="m309.5399 330.5644l0 55.700806" fill-rule="nonzero"/><path stroke="#3c78d8" stroke-width="2.0" stroke-linecap="butt" d="m365.9782 330.5644l0 55.700806" fill-rule="nonzero"/><path stroke="#3c78d8" stroke-width="2.0" stroke-linecap="butt" d="m195.66324 331.5644l171.31497 0" fill-rule="nonzero"/><path stroke="#3c78d8" stroke-width="2.0" stroke-linecap="butt" d="m195.66324 385.2652l171.31497 0" fill-rule="nonzero"/><path fill="#000000" d="m227.40742 368.0148l-2.34375 0l0 -14.921875q-0.859375 0.796875 -2.234375 1.609375q-1.359375 0.796875 -2.453125 1.203125l0 -2.265625q1.96875 -0.921875 3.4375 -2.234375q1.46875 -1.3125 2.078125 -2.546875l1.515625 0l0 19.15625z" fill-rule="nonzero"/><path fill="#000000" d="m287.3301 365.7648l0 2.25l-12.609375 0q-0.03125 -0.84375 0.265625 -1.625q0.484375 -1.296875 1.546875 -2.546875q1.0625 -1.25 3.0625 -2.875q3.109375 -2.5625 4.203125 -4.046875q1.09375 -1.5 1.09375 -2.8125q0 -1.40625 -1.0 -2.359375q-0.984375 -0.953125 -2.59375 -0.953125q-1.6875 0 -2.703125 1.015625q-1.015625 1.015625 -1.03125 2.8125l-2.40625 -0.25q0.25 -2.6875 1.859375 -4.09375q1.609375 -1.421875 4.328125 -1.421875q2.75 0 4.34375 1.53125q1.609375 1.515625 1.609375 3.765625q0 1.140625 -0.46875 2.25q-0.46875 1.109375 -1.5625 2.328125q-1.078125 1.21875 -3.609375 3.359375q-2.09375 1.765625 -2.703125 2.40625q-0.59375 0.625 -0.984375 1.265625l9.359375 0z" fill-rule="nonzero"/><path fill="#000000" d="m331.47156 362.98355l2.34375 -0.3125q0.390625 1.984375 1.359375 2.875q0.984375 0.875 2.375 0.875q1.640625 0 2.78125 -1.140625q1.140625 -1.15625 1.140625 -2.84375q0 -1.625 -1.0625 -2.671875q-1.046875 -1.046875 -2.671875 -1.046875q-0.65625 0 -1.65625 0.265625l0.265625 -2.0625q0.234375 0.03125 0.375 0.03125q1.5 0 2.6875 -0.78125q1.203125 -0.78125 1.203125 -2.40625q0 -1.296875 -0.875 -2.140625q-0.859375 -0.84375 -2.25 -0.84375q-1.359375 0 -2.28125 0.859375q-0.90625 0.859375 -1.15625 2.578125l-2.34375 -0.421875q0.421875 -2.34375 1.9375 -3.640625q1.53125 -1.296875 3.796875 -1.296875q1.5625 0 2.875 0.671875q1.3125 0.671875 2.0 1.828125q0.703125 1.15625 0.703125 2.453125q0 1.234375 -0.671875 2.25q-0.65625 1.015625 -1.953125 1.625q1.6875 0.390625 2.625 1.625q0.9375 1.21875 0.9375 3.0625q0 2.5 -1.828125 4.25q-1.8125 1.734375 -4.59375 1.734375q-2.515625 0 -4.171875 -1.5q-1.65625 -1.5 -1.890625 -3.875z" fill-rule="nonzero"/><path fill="#000000" fill-opacity="0.0" d="m544.14734 321.75708l0 0c0 -2.9821777 2.4175415 -5.399719 5.399719 -5.399719l185.64154 0c1.4320679 0 2.805542 0.5689087 3.8181763 1.581543c1.0126343 1.0126648 1.581543 2.386078 1.581543 3.8181763l0 73.452545c0 2.9821777 -2.4175415 5.399719 -5.399719 5.399719l-185.64154 0c-2.9821777 0 -5.399719 -2.4175415 -5.399719 -5.399719z" fill-rule="evenodd"/><path stroke="#b7b7b7" stroke-width="2.0" stroke-linejoin="round" stroke-linecap="butt" stroke-dasharray="8.0,6.0" d="m544.14734 321.75708l0 0c0 -2.9821777 2.4175415 -5.399719 5.399719 -5.399719l185.64154 0c1.4320679 0 2.805542 0.5689087 3.8181763 1.581543c1.0126343 1.0126648 1.581543 2.386078 1.581543 3.8181763l0 73.452545c0 2.9821777 -2.4175415 5.399719 -5.399719 5.399719l-185.64154 0c-2.9821777 0 -5.399719 -2.4175415 -5.399719 -5.399719z" fill-rule="evenodd"/><path shape-rendering="crispEdges" fill="#ff9900" d="m613.10156 331.5644l56.438293 0l0 53.700806l-56.438293 0l0 -53.700806z" fill-rule="nonzero"/><path stroke="#3c78d8" stroke-width="2.0" stroke-linecap="butt" d="m556.6632 330.5644l0 55.700806" fill-rule="nonzero"/><path stroke="#3c78d8" stroke-width="2.0" stroke-linecap="butt" d="m613.10156 330.5644l0 55.700806" fill-rule="nonzero"/><path stroke="#3c78d8" stroke-width="2.0" stroke-linecap="butt" d="m669.53986 330.5644l0 55.700806" fill-rule="nonzero"/><path stroke="#3c78d8" stroke-width="2.0" stroke-linecap="butt" d="m725.9782 330.5644l0 55.700806" fill-rule="nonzero"/><path stroke="#3c78d8" stroke-width="2.0" stroke-linecap="butt" d="m555.6632 331.5644l171.315 0" fill-rule="nonzero"/><path stroke="#3c78d8" stroke-width="2.0" stroke-linecap="butt" d="m555.6632 385.2652l171.315 0" fill-rule="nonzero"/><path fill="#000000" d="m587.4074 368.0148l-2.34375 0l0 -14.921875q-0.859375 0.796875 -2.234375 1.609375q-1.359375 0.796875 -2.453125 1.203125l0 -2.265625q1.96875 -0.921875 3.4375 -2.234375q1.46875 -1.3125 2.078125 -2.546875l1.515625 0l0 19.15625z" fill-rule="nonzero"/><path fill="#000000" d="m647.33014 365.7648l0 2.25l-12.609375 0q-0.03125 -0.84375 0.265625 -1.625q0.484375 -1.296875 1.546875 -2.546875q1.0625 -1.25 3.0625 -2.875q3.109375 -2.5625 4.203125 -4.046875q1.09375 -1.5 1.09375 -2.8125q0 -1.40625 -1.0 -2.359375q-0.984375 -0.953125 -2.59375 -0.953125q-1.6875 0 -2.703125 1.015625q-1.015625 1.015625 -1.03125 2.8125l-2.40625 -0.25q0.25 -2.6875 1.859375 -4.09375q1.609375 -1.421875 4.328125 -1.421875q2.75 0 4.34375 1.53125q1.609375 1.515625 1.609375 3.765625q0 1.140625 -0.46875 2.25q-0.46875 1.109375 -1.5625 2.328125q-1.078125 1.21875 -3.609375 3.359375q-2.09375 1.765625 -2.703125 2.40625q-0.59375 0.625 -0.984375 1.265625l9.359375 0z" fill-rule="nonzero"/><path fill="#000000" d="m691.47156 362.98355l2.34375 -0.3125q0.390625 1.984375 1.359375 2.875q0.984375 0.875 2.375 0.875q1.640625 0 2.78125 -1.140625q1.140625 -1.15625 1.140625 -2.84375q0 -1.625 -1.0625 -2.671875q-1.046875 -1.046875 -2.671875 -1.046875q-0.65625 0 -1.65625 0.265625l0.265625 -2.0625q0.234375 0.03125 0.375 0.03125q1.5 0 2.6875 -0.78125q1.203125 -0.78125 1.203125 -2.40625q0 -1.296875 -0.875 -2.140625q-0.859375 -0.84375 -2.25 -0.84375q-1.359375 0 -2.28125 0.859375q-0.90625 0.859375 -1.15625 2.578125l-2.34375 -0.421875q0.421875 -2.34375 1.9375 -3.640625q1.53125 -1.296875 3.796875 -1.296875q1.5625 0 2.875 0.671875q1.3125 0.671875 2.0 1.828125q0.703125 1.15625 0.703125 2.453125q0 1.234375 -0.671875 2.25q-0.65625 1.015625 -1.953125 1.625q1.6875 0.390625 2.625 1.625q0.9375 1.21875 0.9375 3.0625q0 2.5 -1.828125 4.25q-1.8125 1.734375 -4.59375 1.734375q-2.515625 0 -4.171875 -1.5q-1.65625 -1.5 -1.890625 -3.875z" fill-rule="nonzero"/><path fill="#000000" fill-opacity="0.0" d="m180.13948 415.96796l231.1811 0l0 91.46454l-231.1811 0z" fill-rule="evenodd"/><path fill="#666666" d="m200.37386 436.03418l-0.625 2.9375l-2.953125 0l0.546875 -2.578125q0.46875 -2.3125 1.484375 -3.375q1.03125 -1.078125 2.421875 -1.25l-0.21875 1.140625q-1.6875 0.453125 -2.265625 3.125l1.609375 0zm-4.578125 0l-0.609375 2.9375l-2.953125 0l0.546875 -2.578125q0.46875 -2.3125 1.484375 -3.375q1.03125 -1.078125 2.421875 -1.25l-0.234375 1.140625q-1.671875 0.453125 -2.25 3.125l1.59375 0zm14.46962 14.34375q-2.734375 3.09375 -5.609375 3.09375q-1.75 0 -2.84375 -1.0q-1.078125 -1.015625 -1.078125 -2.484375q0 -0.953125 0.484375 -3.296875l1.84375 -8.765625l2.59375 0l-2.03125 9.71875q-0.265625 1.21875 -0.265625 1.890625q0 0.859375 0.515625 1.34375q0.53125 0.46875 1.546875 0.46875q1.09375 0 2.125 -0.515625q1.046875 -0.53125 1.796875 -1.4375q0.75 -0.90625 1.21875 -2.140625q0.3125 -0.78125 0.734375 -2.765625l1.375 -6.5625l2.59375 0l-3.1875 15.203125l-2.390625 0l0.578125 -2.75zm5.920288 2.75l3.1875 -15.203125l2.34375 0l-0.5625 2.640625q1.53125 -1.5625 2.859375 -2.265625q1.34375 -0.71875 2.734375 -0.71875q1.84375 0 2.890625 1.0q1.0625 1.0 1.0625 2.671875q0 0.84375 -0.375 2.671875l-1.9375 9.203125l-2.59375 0l2.03125 -9.640625q0.296875 -1.40625 0.296875 -2.078125q0 -0.75 -0.53125 -1.21875q-0.515625 -0.484375 -1.5 -0.484375q-2.0 0 -3.5625 1.4375q-1.546875 1.4375 -2.265625 4.90625l-1.484375 7.078125l-2.59375 0zm16.310913 0l4.390625 -21.0l2.59375 0l-1.5625 7.515625q1.234375 -1.140625 2.234375 -1.59375q1.0 -0.46875 2.09375 -0.46875q2.125 0 3.546875 1.59375q1.421875 1.578125 1.421875 4.609375q0 2.03125 -0.578125 3.703125q-0.5625 1.671875 -1.40625 2.8125q-0.84375 1.140625 -1.75 1.828125q-0.890625 0.671875 -1.84375 1.0q-0.9375 0.34375 -1.8125 0.34375q-1.515625 0 -2.65625 -0.796875q-1.140625 -0.796875 -1.78125 -2.421875l-0.609375 2.875l-2.28125 0zm3.84375 -6.25l-0.015625 0.5q0 1.9375 0.921875 2.953125q0.9375 1.015625 2.328125 1.015625q1.359375 0 2.5 -0.953125q1.140625 -0.953125 1.859375 -2.96875q0.734375 -2.015625 0.734375 -3.71875q0 -1.921875 -0.921875 -2.984375q-0.921875 -1.0625 -2.28125 -1.0625q-1.40625 0 -2.578125 1.09375q-1.171875 1.078125 -1.953125 3.328125q-0.59375 1.671875 -0.59375 2.796875zm12.935913 0.484375q0 -4.453125 2.609375 -7.375q2.171875 -2.40625 5.671875 -2.40625q2.75 0 4.4375 1.71875q1.6875 1.71875 1.6875 4.640625q0 2.609375 -1.0625 4.875q-1.0625 2.25 -3.015625 3.453125q-1.953125 1.203125 -4.125 1.203125q-1.765625 0 -3.21875 -0.75q-1.453125 -0.765625 -2.21875 -2.15625q-0.765625 -1.390625 -0.765625 -3.203125zm2.59375 -0.265625q0 2.15625 1.03125 3.265625q1.03125 1.109375 2.609375 1.109375q0.828125 0 1.640625 -0.328125q0.828125 -0.34375 1.53125 -1.03125q0.703125 -0.6875 1.1875 -1.5625q0.5 -0.890625 0.796875 -1.90625q0.453125 -1.421875 0.453125 -2.71875q0 -2.0625 -1.046875 -3.203125q-1.03125 -1.140625 -2.609375 -1.140625q-1.21875 0 -2.21875 0.578125q-1.0 0.578125 -1.8125 1.703125q-0.8125 1.109375 -1.1875 2.59375q-0.375 1.484375 -0.375 2.640625zm12.232788 6.03125l6.625 -7.71875l-3.796875 -7.484375l2.859375 0l1.296875 2.703125q0.703125 1.515625 1.28125 2.90625l4.390625 -5.609375l3.15625 0l-6.390625 7.6875l3.84375 7.515625l-2.859375 0l-1.53125 -3.09375q-0.484375 -0.984375 -1.09375 -2.453125l-4.53125 5.546875l-3.25 0zm26.851562 -5.171875l2.53125 0.265625q-0.546875 1.875 -2.515625 3.5625q-1.953125 1.6875 -4.65625 1.6875q-1.6875 0 -3.09375 -0.78125q-1.40625 -0.78125 -2.15625 -2.265625q-0.734375 -1.5 -0.734375 -3.390625q0 -2.5 1.15625 -4.84375q1.15625 -2.34375 2.984375 -3.46875q1.828125 -1.140625 3.96875 -1.140625q2.71875 0 4.34375 1.6875q1.625 1.6875 1.625 4.609375q0 1.109375 -0.203125 2.296875l-11.1875 0q-0.0625 0.4375 -0.0625 0.796875q0 2.125 0.96875 3.25q0.984375 1.125 2.40625 1.125q1.328125 0 2.609375 -0.859375q1.296875 -0.875 2.015625 -2.53125zm-7.53125 -3.765625l8.53125 0q0.015625 -0.40625 0.015625 -0.578125q0 -1.9375 -0.96875 -2.96875q-0.96875 -1.046875 -2.5 -1.046875q-1.671875 0 -3.046875 1.15625q-1.359375 1.140625 -2.03125 3.4375zm22.935913 6.734375q-2.234375 2.546875 -4.640625 2.546875q-2.171875 0 -3.609375 -1.59375q-1.4375 -1.59375 -1.4375 -4.640625q0 -2.765625 1.140625 -5.0625q1.140625 -2.3125 2.84375 -3.453125q1.71875 -1.140625 3.4375 -1.140625q2.828125 0 4.28125 2.734375l1.71875 -8.1875l2.578125 0l-4.390625 21.0l-2.390625 0l0.46875 -2.203125zm-7.109375 -4.171875q0 1.59375 0.3125 2.515625q0.3125 0.90625 1.0625 1.515625q0.765625 0.609375 1.828125 0.609375q1.765625 0 3.203125 -1.828125q1.90625 -2.4375 1.90625 -6.015625q0 -1.8125 -0.953125 -2.828125q-0.9375 -1.015625 -2.359375 -1.015625q-0.9375 0 -1.703125 0.421875q-0.765625 0.40625 -1.515625 1.40625q-0.75 1.0 -1.265625 2.53125q-0.515625 1.53125 -0.515625 2.6875zm16.139038 -11.59375l0.609375 -2.9375l2.953125 0l-0.53125 2.578125q-0.484375 2.296875 -1.515625 3.375q-1.015625 1.0625 -2.40625 1.234375l0.25 -1.125q1.6875 -0.484375 2.25 -3.125l-1.609375 0zm4.71875 0l0.625 -2.9375l2.953125 0l-0.546875 2.578125q-0.46875 2.296875 -1.5 3.375q-1.03125 1.0625 -2.40625 1.234375l0.21875 -1.125q1.6875 -0.484375 2.265625 -3.125l-1.609375 0zm16.30542 17.96875l3.3125 -15.859375q-2.140625 1.703125 -6.03125 2.71875l0.484375 -2.359375q1.9375 -0.765625 3.8125 -2.015625q1.890625 -1.25 2.828125 -2.171875q0.578125 -0.578125 1.09375 -1.390625l1.5 0l-4.390625 21.078125l-2.609375 0zm10.467163 -5.203125l2.59375 -0.15625q0 1.125 0.34375 1.921875q0.34375 0.78125 1.265625 1.28125q0.921875 0.5 2.15625 0.5q1.71875 0 2.578125 -0.6875q0.859375 -0.6875 0.859375 -1.625q0 -0.671875 -0.515625 -1.265625q-0.53125 -0.609375 -2.59375 -1.484375q-2.046875 -0.890625 -2.625 -1.25q-0.953125 -0.578125 -1.453125 -1.375q-0.484375 -0.796875 -0.484375 -1.828125q0 -1.796875 1.4375 -3.078125q1.4375 -1.296875 4.015625 -1.296875q2.859375 0 4.359375 1.328125q1.5 1.3125 1.546875 3.484375l-2.53125 0.171875q-0.0625 -1.375 -0.984375 -2.171875q-0.90625 -0.8125 -2.578125 -0.8125q-1.34375 0 -2.09375 0.625q-0.75 0.609375 -0.75 1.328125q0 0.703125 0.65625 1.25q0.421875 0.375 2.21875 1.15625q2.96875 1.28125 3.75 2.03125q1.234375 1.1875 1.234375 2.890625q0 1.125 -0.703125 2.21875q-0.6875 1.09375 -2.125 1.75q-1.421875 0.640625 -3.34375 0.640625q-2.640625 0 -4.484375 -1.296875q-1.859375 -1.3125 -1.75 -4.25zm20.476562 3.09375l-0.421875 2.125q-0.9375 0.234375 -1.8125 0.234375q-1.546875 0 -2.46875 -0.75q-0.6875 -0.578125 -0.6875 -1.5625q0 -0.5 0.375 -2.3125l1.84375 -8.828125l-2.046875 0l0.421875 -2.0l2.046875 0l0.78125 -3.75l2.96875 -1.78125l-1.15625 5.53125l2.546875 0l-0.421875 2.0l-2.546875 0l-1.75 8.40625q-0.328125 1.609375 -0.328125 1.921875q0 0.453125 0.25 0.703125q0.265625 0.234375 0.875 0.234375q0.859375 0 1.53125 -0.171875z" fill-rule="nonzero"/><path fill="#666666" d="m189.9051 488.12796l4.390625 -21.0l2.59375 0l-4.390625 21.0l-2.59375 0zm10.406403 -18.0625l0.609375 -2.9375l2.578125 0l-0.609375 2.9375l-2.578125 0zm-3.78125 18.0625l3.171875 -15.203125l2.59375 0l-3.171875 15.203125l-2.59375 0zm6.8595276 -5.203125l2.59375 -0.15625q0 1.125 0.34375 1.921875q0.34375 0.78125 1.265625 1.28125q0.921875 0.5 2.15625 0.5q1.71875 0 2.578125 -0.6875q0.859375 -0.6875 0.859375 -1.625q0 -0.671875 -0.515625 -1.265625q-0.53125 -0.609375 -2.59375 -1.484375q-2.046875 -0.890625 -2.625 -1.25q-0.953125 -0.578125 -1.453125 -1.375q-0.484375 -0.796875 -0.484375 -1.828125q0 -1.796875 1.4375 -3.078125q1.4375 -1.296875 4.015625 -1.296875q2.859375 0 4.359375 1.328125q1.5 1.3125 1.546875 3.484375l-2.53125 0.171875q-0.0625 -1.375 -0.984375 -2.171875q-0.90625 -0.8125 -2.578125 -0.8125q-1.34375 0 -2.09375 0.625q-0.75 0.609375 -0.75 1.328125q0 0.703125 0.65625 1.25q0.421875 0.375 2.21875 1.15625q2.96875 1.28125 3.75 2.03125q1.234375 1.1875 1.234375 2.890625q0 1.125 -0.703125 2.21875q-0.6875 1.09375 -2.125 1.75q-1.421875 0.640625 -3.34375 0.640625q-2.640625 0 -4.484375 -1.296875q-1.859375 -1.3125 -1.75 -4.25zm20.476562 3.09375l-0.421875 2.125q-0.9375 0.234375 -1.8125 0.234375q-1.546875 0 -2.46875 -0.75q-0.6875 -0.578125 -0.6875 -1.5625q0 -0.5 0.375 -2.3125l1.84375 -8.828125l-2.046875 0l0.421875 -2.0l2.046875 0l0.78125 -3.75l2.96875 -1.78125l-1.15625 5.53125l2.546875 0l-0.421875 2.0l-2.546875 0l-1.75 8.40625q-0.328125 1.609375 -0.328125 1.921875q0 0.453125 0.25 0.703125q0.265625 0.234375 0.875 0.234375q0.859375 0 1.53125 -0.171875zm21.405975 -3.0625l2.53125 0.265625q-0.546875 1.875 -2.515625 3.5625q-1.953125 1.6875 -4.65625 1.6875q-1.6875 0 -3.09375 -0.78125q-1.40625 -0.78125 -2.15625 -2.265625q-0.734375 -1.5 -0.734375 -3.390625q0 -2.5 1.15625 -4.84375q1.15625 -2.34375 2.984375 -3.46875q1.828125 -1.140625 3.96875 -1.140625q2.71875 0 4.34375 1.6875q1.625 1.6875 1.625 4.609375q0 1.109375 -0.203125 2.296875l-11.1875 0q-0.0625 0.4375 -0.0625 0.796875q0 2.125 0.96875 3.25q0.984375 1.125 2.40625 1.125q1.328125 0 2.609375 -0.859375q1.296875 -0.875 2.015625 -2.53125zm-7.53125 -3.765625l8.53125 0q0.015625 -0.40625 0.015625 -0.578125q0 -1.9375 -0.96875 -2.96875q-0.96875 -1.046875 -2.5 -1.046875q-1.671875 0 -3.046875 1.15625q-1.359375 1.140625 -2.03125 3.4375zm12.467163 8.9375l4.390625 -21.0l2.5937653 0l-4.3906403 21.0l-2.59375 0zm17.890793 -5.171875l2.53125 0.265625q-0.546875 1.875 -2.515625 3.5625q-1.953125 1.6875 -4.65625 1.6875q-1.6875 0 -3.09375 -0.78125q-1.40625 -0.78125 -2.15625 -2.265625q-0.734375 -1.5 -0.734375 -3.390625q0 -2.5 1.15625 -4.84375q1.15625 -2.34375 2.984375 -3.46875q1.828125 -1.140625 3.96875 -1.140625q2.71875 0 4.34375 1.6875q1.625 1.6875 1.625 4.609375q0 1.109375 -0.203125 2.296875l-11.1875 0q-0.0625 0.4375 -0.0625 0.796875q0 2.125 0.96875 3.25q0.984375 1.125 2.40625 1.125q1.328125 0 2.609375 -0.859375q1.296875 -0.875 2.015625 -2.53125zm-7.53125 -3.765625l8.53125 0q0.015625 -0.40625 0.015625 -0.578125q0 -1.9375 -0.96875 -2.96875q-0.96875 -1.046875 -2.5 -1.046875q-1.671875 0 -3.046875 1.15625q-1.359375 1.140625 -2.03125 3.4375zm12.654663 8.9375l3.1875 -15.203125l2.59375 0l-0.53125 2.5q1.4375 -1.625 2.578125 -2.234375q1.140625 -0.609375 2.46875 -0.609375q1.421875 0 2.375 0.75q0.953125 0.75 1.25 2.09375q1.15625 -1.4375 2.4375 -2.140625q1.296875 -0.703125 2.703125 -0.703125q1.90625 0 2.859375 0.90625q0.953125 0.890625 0.953125 2.53125q0 0.703125 -0.328125 2.3125l-2.046875 9.796875l-2.59375 0l2.09375 -10.046875q0.265625 -1.234375 0.265625 -1.765625q0 -0.75 -0.46875 -1.171875q-0.46875 -0.4375 -1.328125 -0.4375q-1.15625 0 -2.359375 0.703125q-1.203125 0.703125 -1.875 1.84375q-0.671875 1.140625 -1.171875 3.5l-1.546875 7.375l-2.59375 0l2.15625 -10.265625q0.234375 -1.046875 0.234375 -1.484375q0 -0.75 -0.46875 -1.203125q-0.46875 -0.46875 -1.21875 -0.46875q-1.09375 0 -2.3125 0.703125q-1.203125 0.703125 -1.96875 1.953125q-0.75 1.25 -1.234375 3.578125l-1.515625 7.1875l-2.59375 0zm35.618042 -5.171875l2.53125 0.265625q-0.546875 1.875 -2.515625 3.5625q-1.953125 1.6875 -4.65625 1.6875q-1.6875 0 -3.09375 -0.78125q-1.40625 -0.78125 -2.15625 -2.265625q-0.734375 -1.5 -0.734375 -3.390625q0 -2.5 1.15625 -4.84375q1.15625 -2.34375 2.984375 -3.46875q1.828125 -1.140625 3.96875 -1.140625q2.71875 0 4.34375 1.6875q1.625 1.6875 1.625 4.609375q0 1.109375 -0.203125 2.296875l-11.1875 0q-0.0625 0.4375 -0.0625 0.796875q0 2.125 0.96875 3.25q0.984375 1.125 2.40625 1.125q1.328125 0 2.609375 -0.859375q1.296875 -0.875 2.015625 -2.53125zm-7.53125 -3.765625l8.53125 0q0.015625 -0.40625 0.015625 -0.578125q0 -1.9375 -0.96875 -2.96875q-0.96875 -1.046875 -2.5 -1.046875q-1.671875 0 -3.046875 1.15625q-1.359375 1.140625 -2.03125 3.4375zm12.670288 8.9375l3.1875 -15.203125l2.34375 0l-0.5625 2.640625q1.53125 -1.5625 2.859375 -2.265625q1.34375 -0.71875 2.734375 -0.71875q1.84375 0 2.890625 1.0q1.0625 1.0 1.0625 2.671875q0 0.84375 -0.375 2.671875l-1.9375 9.203125l-2.59375 0l2.03125 -9.640625q0.296875 -1.40625 0.296875 -2.078125q0 -0.75 -0.53125 -1.21875q-0.515625 -0.484375 -1.5 -0.484375q-2.0 0 -3.5625 1.4375q-1.546875 1.4375 -2.265625 4.90625l-1.484375 7.078125l-2.59375 0zm22.373413 -2.109375l-0.421875 2.125q-0.9375 0.234375 -1.8125 0.234375q-1.546875 0 -2.46875 -0.75q-0.6875 -0.578125 -0.6875 -1.5625q0 -0.5 0.375 -2.3125l1.84375 -8.828125l-2.046875 0l0.421875 -2.0l2.046875 0l0.78125 -3.75l2.96875 -1.78125l-1.15625 5.53125l2.546875 0l-0.421875 2.0l-2.546875 0l-1.75 8.40625q-0.328125 1.609375 -0.328125 1.921875q0 0.453125 0.25 0.703125q0.265625 0.234375 0.875 0.234375q0.859375 0 1.53125 -0.171875z" fill-rule="nonzero"/><path fill="#000000" fill-opacity="0.0" d="m317.97913 183.83727c43.370728 31.884354 91.48126 38.719513 138.11926 43.4787c23.292908 2.3769379 57.680542 -8.79454 68.113464 29.566208" fill-rule="evenodd"/><path stroke="#999999" stroke-width="3.0" stroke-linejoin="round" stroke-linecap="butt" d="m317.9791 183.83727c43.370758 31.884354 91.48129 38.719513 138.1193 43.4787c11.646454 1.1884613 26.066559 -1.0101471 38.87921 1.2891846c6.4063416 1.1496735 12.410767 3.4238281 17.465698 7.808136c2.5274658 2.1921387 4.817505 4.911804 6.801758 8.282227c0.24804688 0.42131042 0.491333 0.8527832 0.72961426 1.2946472c0.11920166 0.22094727 0.23712158 0.44448853 0.35388184 0.67066956l0.29577637 0.5863037" fill-rule="evenodd"/><path fill="#999999" stroke="#999999" stroke-width="3.0" stroke-linecap="butt" d="m520.6243 247.24713l-4.338928 -1.9844666l6.396118 7.5094604l-0.07269287 -9.863907z" fill-rule="evenodd"/><path fill="#000000" fill-opacity="0.0" d="m532.13947 415.96796l231.18109 0l0 91.46454l-231.18109 0z" fill-rule="evenodd"/><path fill="#666666" d="m542.8582 453.12793q0.40625 -1.875 1.109375 -3.140625q0.703125 -1.265625 1.875 -2.40625q1.1875 -1.140625 4.53125 -3.8125q2.03125 -1.625 2.78125 -2.390625q1.078125 -1.125 1.5625 -2.203125q0.328125 -0.71875 0.328125 -1.578125q0 -1.453125 -1.03125 -2.453125q-1.015625 -1.015625 -2.5 -1.015625q-1.484375 0 -2.59375 1.03125q-1.09375 1.015625 -1.5625 3.28125l-2.53125 -0.375q0.359375 -2.796875 2.15625 -4.40625q1.796875 -1.609375 4.484375 -1.609375q1.78125 0 3.234375 0.75q1.453125 0.734375 2.1875 2.09375q0.734375 1.34375 0.734375 2.765625q0 2.09375 -1.484375 4.03125q-0.921875 1.203125 -5.390625 4.734375q-1.921875 1.515625 -2.859375 2.5q-0.9375 0.96875 -1.40625 1.828125l9.390625 0l-0.5 2.375l-12.515625 0zm15.560913 0l3.1875 -15.203125l2.34375 0l-0.5625 2.640625q1.53125 -1.5625 2.859375 -2.265625q1.34375 -0.71875 2.734375 -0.71875q1.84375 0 2.890625 1.0q1.0625 1.0 1.0625 2.671875q0 0.84375 -0.375 2.671875l-1.9375 9.203125l-2.59375 0l2.03125 -9.640625q0.296875 -1.40625 0.296875 -2.078125q0 -0.75 -0.53125 -1.21875q-0.515625 -0.484375 -1.5 -0.484375q-2.0 0 -3.5625 1.4375q-1.546875 1.4375 -2.265625 4.90625l-1.484375 7.078125l-2.59375 0zm26.576538 -2.203125q-2.234375 2.546875 -4.640625 2.546875q-2.171875 0 -3.609375 -1.59375q-1.4375 -1.59375 -1.4375 -4.640625q0 -2.765625 1.140625 -5.0625q1.140625 -2.3125 2.84375 -3.453125q1.71875 -1.140625 3.4375 -1.140625q2.828125 0 4.28125 2.734375l1.71875 -8.1875l2.578125 0l-4.390625 21.0l-2.390625 0l0.46875 -2.203125zm-7.109375 -4.171875q0 1.59375 0.3125 2.515625q0.3125 0.90625 1.0625 1.515625q0.765625 0.609375 1.828125 0.609375q1.765625 0 3.203125 -1.828125q1.90625 -2.4375 1.90625 -6.015625q0 -1.8125 -0.953125 -2.828125q-0.9375 -1.015625 -2.359375 -1.015625q-0.9375 0 -1.703125 0.421875q-0.765625 0.40625 -1.515625 1.40625q-0.75 1.0 -1.265625 2.53125q-0.515625 1.53125 -0.515625 2.6875zm32.474854 1.203125l2.53125 0.265625q-0.546875 1.875 -2.515625 3.5625q-1.953125 1.6875 -4.65625 1.6875q-1.6875 0 -3.09375 -0.78125q-1.40625 -0.78125 -2.15625 -2.265625q-0.734375 -1.5 -0.734375 -3.390625q0 -2.5 1.15625 -4.84375q1.15625 -2.34375 2.984375 -3.46875q1.828125 -1.140625 3.96875 -1.140625q2.71875 0 4.34375 1.6875q1.625 1.6875 1.625 4.609375q0 1.109375 -0.203125 2.296875l-11.1875 0q-0.0625 0.4375 -0.0625 0.796875q0 2.125 0.96875 3.25q0.984375 1.125 2.40625 1.125q1.328125 0 2.609375 -0.859375q1.296875 -0.875 2.015625 -2.53125zm-7.53125 -3.765625l8.53125 0q0.015625 -0.40625 0.015625 -0.578125q0 -1.9375 -0.96875 -2.96875q-0.96875 -1.046875 -2.5 -1.046875q-1.671875 0 -3.046875 1.15625q-1.359375 1.140625 -2.03125 3.4375zm12.467163 8.9375l4.390625 -21.0l2.59375 0l-4.390625 21.0l-2.59375 0zm17.890808 -5.171875l2.53125 0.265625q-0.546875 1.875 -2.515625 3.5625q-1.953125 1.6875 -4.65625 1.6875q-1.6875 0 -3.09375 -0.78125q-1.40625 -0.78125 -2.15625 -2.265625q-0.734375 -1.5 -0.734375 -3.390625q0 -2.5 1.15625 -4.84375q1.15625 -2.34375 2.984375 -3.46875q1.828125 -1.140625 3.96875 -1.140625q2.71875 0 4.34375 1.6875q1.625 1.6875 1.625 4.609375q0 1.109375 -0.203125 2.296875l-11.1875 0q-0.0625 0.4375 -0.0625 0.796875q0 2.125 0.96875 3.25q0.984375 1.125 2.40625 1.125q1.328125 0 2.609375 -0.859375q1.296875 -0.875 2.015625 -2.53125zm-7.53125 -3.765625l8.53125 0q0.015625 -0.40625 0.015625 -0.578125q0 -1.9375 -0.96875 -2.96875q-0.96875 -1.046875 -2.5 -1.046875q-1.671875 0 -3.046875 1.15625q-1.359375 1.140625 -2.03125 3.4375zm12.654663 8.9375l3.1875 -15.203125l2.59375 0l-0.53125 2.5q1.4375 -1.625 2.578125 -2.234375q1.140625 -0.609375 2.46875 -0.609375q1.421875 0 2.375 0.75q0.953125 0.75 1.25 2.09375q1.15625 -1.4375 2.4375 -2.140625q1.296875 -0.703125 2.703125 -0.703125q1.90625 0 2.859375 0.90625q0.953125 0.890625 0.953125 2.53125q0 0.703125 -0.328125 2.3125l-2.046875 9.796875l-2.59375 0l2.09375 -10.046875q0.265625 -1.234375 0.265625 -1.765625q0 -0.75 -0.46875 -1.171875q-0.46875 -0.4375 -1.328125 -0.4375q-1.15625 0 -2.359375 0.703125q-1.203125 0.703125 -1.875 1.84375q-0.671875 1.140625 -1.171875 3.5l-1.546875 7.375l-2.59375 0l2.15625 -10.265625q0.234375 -1.046875 0.234375 -1.484375q0 -0.75 -0.46875 -1.203125q-0.46875 -0.46875 -1.21875 -0.46875q-1.09375 0 -2.3125 0.703125q-1.203125 0.703125 -1.96875 1.953125q-0.75 1.25 -1.234375 3.578125l-1.515625 7.1875l-2.59375 0zm35.618042 -5.171875l2.53125 0.265625q-0.546875 1.875 -2.515625 3.5625q-1.953125 1.6875 -4.65625 1.6875q-1.6875 0 -3.09375 -0.78125q-1.40625 -0.78125 -2.15625 -2.265625q-0.734375 -1.5 -0.734375 -3.390625q0 -2.5 1.15625 -4.84375q1.15625 -2.34375 2.984375 -3.46875q1.828125 -1.140625 3.96875 -1.140625q2.71875 0 4.34375 1.6875q1.625 1.6875 1.625 4.609375q0 1.109375 -0.203125 2.296875l-11.1875 0q-0.0625 0.4375 -0.0625 0.796875q0 2.125 0.96875 3.25q0.984375 1.125 2.40625 1.125q1.328125 0 2.609375 -0.859375q1.296875 -0.875 2.015625 -2.53125zm-7.53125 -3.765625l8.53125 0q0.015625 -0.40625 0.015625 -0.578125q0 -1.9375 -0.96875 -2.96875q-0.96875 -1.046875 -2.5 -1.046875q-1.671875 0 -3.046875 1.15625q-1.359375 1.140625 -2.03125 3.4375zm12.670288 8.9375l3.1875 -15.203125l2.34375 0l-0.5625 2.640625q1.53125 -1.5625 2.859375 -2.265625q1.34375 -0.71875 2.734375 -0.71875q1.84375 0 2.890625 1.0q1.0625 1.0 1.0625 2.671875q0 0.84375 -0.375 2.671875l-1.9375 9.203125l-2.59375 0l2.03125 -9.640625q0.296875 -1.40625 0.296875 -2.078125q0 -0.75 -0.53125 -1.21875q-0.515625 -0.484375 -1.5 -0.484375q-2.0 0 -3.5625 1.4375q-1.546875 1.4375 -2.265625 4.90625l-1.484375 7.078125l-2.59375 0zm22.373413 -2.109375l-0.421875 2.125q-0.9375 0.234375 -1.8125 0.234375q-1.546875 0 -2.46875 -0.75q-0.6875 -0.578125 -0.6875 -1.5625q0 -0.5 0.375 -2.3125l1.84375 -8.828125l-2.046875 0l0.421875 -2.0l2.046875 0l0.78125 -3.75l2.96875 -1.78125l-1.15625 5.53125l2.546875 0l-0.421875 2.0l-2.546875 0l-1.75 8.40625q-0.328125 1.609375 -0.328125 1.921875q0 0.453125 0.25 0.703125q0.265625 0.234375 0.875 0.234375q0.859375 0 1.53125 -0.171875zm2.7108154 2.109375l0.609375 -2.9375l2.953125 0l-0.53125 2.5625q-0.484375 2.3125 -1.515625 3.375q-1.015625 1.078125 -2.40625 1.234375l0.234375 -1.125q1.71875 -0.46875 2.25 -3.109375l-1.59375 0zm16.14032 -5.765625q0 -4.453125 2.609375 -7.375q2.171875 -2.40625 5.671875 -2.40625q2.75 0 4.4375 1.71875q1.6875 1.71875 1.6875 4.640625q0 2.609375 -1.0625 4.875q-1.0625 2.25 -3.015625 3.453125q-1.953125 1.203125 -4.125 1.203125q-1.765625 0 -3.21875 -0.75q-1.453125 -0.765625 -2.21875 -2.15625q-0.765625 -1.390625 -0.765625 -3.203125zm2.59375 -0.265625q0 2.15625 1.03125 3.265625q1.03125 1.109375 2.609375 1.109375q0.828125 0 1.640625 -0.328125q0.828125 -0.34375 1.53125 -1.03125q0.703125 -0.6875 1.1875 -1.5625q0.5 -0.890625 0.796875 -1.90625q0.453125 -1.421875 0.453125 -2.71875q0 -2.0625 -1.046875 -3.203125q-1.03125 -1.140625 -2.609375 -1.140625q-1.21875 0 -2.21875 0.578125q-1.0 0.578125 -1.8125 1.703125q-0.8125 1.109375 -1.1875 2.59375q-0.375 1.484375 -0.375 2.640625zm13.607788 6.03125l2.765625 -13.203125l-2.3125 0l0.40625 -2.0l2.328125 0l0.4375 -2.171875q0.34375 -1.609375 0.703125 -2.328125q0.375 -0.71875 1.1875 -1.1875q0.828125 -0.46875 2.25 -0.46875q0.984375 0 2.859375 0.421875l-0.46875 2.265625q-1.3125 -0.34375 -2.203125 -0.34375q-0.765625 0 -1.15625 0.375q-0.390625 0.375 -0.671875 1.796875l-0.34375 1.640625l2.890625 0l-0.421875 2.0l-2.890625 0l-2.765625 13.203125l-2.59375 0z" fill-rule="nonzero"/><path fill="#666666" d="m548.20197 488.12796l3.3125 -15.859375q-2.140625 1.703125 -6.03125 2.71875l0.484375 -2.359375q1.9375 -0.765625 3.8125 -2.015625q1.890625 -1.25 2.828125 -2.171875q0.578125 -0.578125 1.09375 -1.390625l1.5 0l-4.390625 21.078125l-2.609375 0zm10.467163 -5.203125l2.59375 -0.15625q0 1.125 0.34375 1.921875q0.34375 0.78125 1.265625 1.28125q0.921875 0.5 2.15625 0.5q1.71875 0 2.578125 -0.6875q0.859375 -0.6875 0.859375 -1.625q0 -0.671875 -0.515625 -1.265625q-0.53125 -0.609375 -2.59375 -1.484375q-2.046875 -0.890625 -2.625 -1.25q-0.953125 -0.578125 -1.453125 -1.375q-0.484375 -0.796875 -0.484375 -1.828125q0 -1.796875 1.4375 -3.078125q1.4375 -1.296875 4.015625 -1.296875q2.859375 0 4.359375 1.328125q1.5 1.3125 1.546875 3.484375l-2.53125 0.171875q-0.0625 -1.375 -0.984375 -2.171875q-0.90625 -0.8125 -2.578125 -0.8125q-1.34375 0 -2.09375 0.625q-0.75 0.609375 -0.75 1.328125q0 0.703125 0.65625 1.25q0.421875 0.375 2.21875 1.15625q2.96875 1.28125 3.75 2.03125q1.234375 1.1875 1.234375 2.890625q0 1.125 -0.703125 2.21875q-0.6875 1.09375 -2.125 1.75q-1.421875 0.640625 -3.34375 0.640625q-2.640625 0 -4.484375 -1.296875q-1.859375 -1.3125 -1.75 -4.25zm20.476562 3.09375l-0.421875 2.125q-0.9375 0.234375 -1.8125 0.234375q-1.546875 0 -2.46875 -0.75q-0.6875 -0.578125 -0.6875 -1.5625q0 -0.5 0.375 -2.3125l1.84375 -8.828125l-2.046875 0l0.421875 -2.0l2.046875 0l0.78125 -3.75l2.96875 -1.78125l-1.15625 5.53125l2.546875 0l-0.421875 2.0l-2.546875 0l-1.75 8.40625q-0.328125 1.609375 -0.328125 1.921875q0 0.453125 0.25 0.703125q0.265625 0.234375 0.875 0.234375q0.859375 0 1.53125 -0.171875zm10.031006 2.109375l4.390625 -21.0l2.59375 0l-4.390625 21.0l-2.59375 0zm10.406372 -18.0625l0.609375 -2.9375l2.578125 0l-0.609375 2.9375l-2.578125 0zm-3.78125 18.0625l3.171875 -15.203125l2.59375 0l-3.171875 15.203125l-2.59375 0zm6.859558 -5.203125l2.59375 -0.15625q0 1.125 0.34375 1.921875q0.34375 0.78125 1.265625 1.28125q0.921875 0.5 2.15625 0.5q1.71875 0 2.578125 -0.6875q0.859375 -0.6875 0.859375 -1.625q0 -0.671875 -0.515625 -1.265625q-0.53125 -0.609375 -2.59375 -1.484375q-2.046875 -0.890625 -2.625 -1.25q-0.953125 -0.578125 -1.453125 -1.375q-0.484375 -0.796875 -0.484375 -1.828125q0 -1.796875 1.4375 -3.078125q1.4375 -1.296875 4.015625 -1.296875q2.859375 0 4.359375 1.328125q1.5 1.3125 1.546875 3.484375l-2.53125 0.171875q-0.0625 -1.375 -0.984375 -2.171875q-0.90625 -0.8125 -2.578125 -0.8125q-1.34375 0 -2.09375 0.625q-0.75 0.609375 -0.75 1.328125q0 0.703125 0.65625 1.25q0.421875 0.375 2.21875 1.15625q2.96875 1.28125 3.75 2.03125q1.234375 1.1875 1.234375 2.890625q0 1.125 -0.703125 2.21875q-0.6875 1.09375 -2.125 1.75q-1.421875 0.640625 -3.34375 0.640625q-2.640625 0 -4.484375 -1.296875q-1.859375 -1.3125 -1.75 -4.25zm20.476562 3.09375l-0.421875 2.125q-0.9375 0.234375 -1.8125 0.234375q-1.546875 0 -2.46875 -0.75q-0.6875 -0.578125 -0.6875 -1.5625q0 -0.5 0.375 -2.3125l1.84375 -8.828125l-2.046875 0l0.421875 -2.0l2.046875 0l0.78125 -3.75l2.96875 -1.78125l-1.15625 5.53125l2.546875 0l-0.421875 2.0l-2.546875 0l-1.75 8.40625q-0.328125 1.609375 -0.328125 1.921875q0 0.453125 0.25 0.703125q0.265625 0.234375 0.875 0.234375q0.859375 0 1.53125 -0.171875zm21.405945 -3.0625l2.53125 0.265625q-0.546875 1.875 -2.515625 3.5625q-1.953125 1.6875 -4.65625 1.6875q-1.6875 0 -3.09375 -0.78125q-1.40625 -0.78125 -2.15625 -2.265625q-0.734375 -1.5 -0.734375 -3.390625q0 -2.5 1.15625 -4.84375q1.15625 -2.34375 2.984375 -3.46875q1.828125 -1.140625 3.96875 -1.140625q2.71875 0 4.34375 1.6875q1.625 1.6875 1.625 4.609375q0 1.109375 -0.203125 2.296875l-11.1875 0q-0.0625 0.4375 -0.0625 0.796875q0 2.125 0.96875 3.25q0.984375 1.125 2.40625 1.125q1.328125 0 2.609375 -0.859375q1.296875 -0.875 2.015625 -2.53125zm-7.53125 -3.765625l8.53125 0q0.015625 -0.40625 0.015625 -0.578125q0 -1.9375 -0.96875 -2.96875q-0.96875 -1.046875 -2.5 -1.046875q-1.671875 0 -3.046875 1.15625q-1.359375 1.140625 -2.03125 3.4375zm12.467163 8.9375l4.390625 -21.0l2.59375 0l-4.390625 21.0l-2.59375 0zm17.890808 -5.171875l2.53125 0.265625q-0.546875 1.875 -2.515625 3.5625q-1.953125 1.6875 -4.65625 1.6875q-1.6875 0 -3.09375 -0.78125q-1.40625 -0.78125 -2.15625 -2.265625q-0.734375 -1.5 -0.734375 -3.390625q0 -2.5 1.15625 -4.84375q1.15625 -2.34375 2.984375 -3.46875q1.828125 -1.140625 3.96875 -1.140625q2.71875 0 4.34375 1.6875q1.625 1.6875 1.625 4.609375q0 1.109375 -0.203125 2.296875l-11.1875 0q-0.0625 0.4375 -0.0625 0.796875q0 2.125 0.96875 3.25q0.984375 1.125 2.40625 1.125q1.328125 0 2.609375 -0.859375q1.296875 -0.875 2.015625 -2.53125zm-7.53125 -3.765625l8.53125 0q0.015625 -0.40625 0.015625 -0.578125q0 -1.9375 -0.96875 -2.96875q-0.96875 -1.046875 -2.5 -1.046875q-1.671875 0 -3.046875 1.15625q-1.359375 1.140625 -2.03125 3.4375zm12.654663 8.9375l3.1875 -15.203125l2.59375 0l-0.53125 2.5q1.4375 -1.625 2.578125 -2.234375q1.140625 -0.609375 2.46875 -0.609375q1.421875 0 2.375 0.75q0.953125 0.75 1.25 2.09375q1.15625 -1.4375 2.4375 -2.140625q1.296875 -0.703125 2.703125 -0.703125q1.90625 0 2.859375 0.90625q0.953125 0.890625 0.953125 2.53125q0 0.703125 -0.328125 2.3125l-2.046875 9.796875l-2.59375 0l2.09375 -10.046875q0.265625 -1.234375 0.265625 -1.765625q0 -0.75 -0.46875 -1.171875q-0.46875 -0.4375 -1.328125 -0.4375q-1.15625 0 -2.359375 0.703125q-1.203125 0.703125 -1.875 1.84375q-0.671875 1.140625 -1.171875 3.5l-1.546875 7.375l-2.59375 0l2.15625 -10.265625q0.234375 -1.046875 0.234375 -1.484375q0 -0.75 -0.46875 -1.203125q-0.46875 -0.46875 -1.21875 -0.46875q-1.09375 0 -2.3125 0.703125q-1.203125 0.703125 -1.96875 1.953125q-0.75 1.25 -1.234375 3.578125l-1.515625 7.1875l-2.59375 0zm35.618042 -5.171875l2.53125 0.265625q-0.546875 1.875 -2.515625 3.5625q-1.953125 1.6875 -4.65625 1.6875q-1.6875 0 -3.09375 -0.78125q-1.40625 -0.78125 -2.15625 -2.265625q-0.734375 -1.5 -0.734375 -3.390625q0 -2.5 1.15625 -4.84375q1.15625 -2.34375 2.984375 -3.46875q1.828125 -1.140625 3.96875 -1.140625q2.71875 0 4.34375 1.6875q1.625 1.6875 1.625 4.609375q0 1.109375 -0.203125 2.296875l-11.1875 0q-0.0625 0.4375 -0.0625 0.796875q0 2.125 0.96875 3.25q0.984375 1.125 2.40625 1.125q1.328125 0 2.609375 -0.859375q1.296875 -0.875 2.015625 -2.53125zm-7.53125 -3.765625l8.53125 0q0.015625 -0.40625 0.015625 -0.578125q0 -1.9375 -0.96875 -2.96875q-0.96875 -1.046875 -2.5 -1.046875q-1.671875 0 -3.046875 1.15625q-1.359375 1.140625 -2.03125 3.4375zm12.670288 8.9375l3.1875 -15.203125l2.34375 0l-0.5625 2.640625q1.53125 -1.5625 2.859375 -2.265625q1.34375 -0.71875 2.734375 -0.71875q1.84375 0 2.890625 1.0q1.0625 1.0 1.0625 2.671875q0 0.84375 -0.375 2.671875l-1.9375 9.203125l-2.59375 0l2.03125 -9.640625q0.296875 -1.40625 0.296875 -2.078125q0 -0.75 -0.53125 -1.21875q-0.515625 -0.484375 -1.5 -0.484375q-2.0 0 -3.5625 1.4375q-1.546875 1.4375 -2.265625 4.90625l-1.484375 7.078125l-2.59375 0zm22.373413 -2.109375l-0.421875 2.125q-0.9375 0.234375 -1.8125 0.234375q-1.546875 0 -2.46875 -0.75q-0.6875 -0.578125 -0.6875 -1.5625q0 -0.5 0.375 -2.3125l1.84375 -8.828125l-2.046875 0l0.421875 -2.0l2.046875 0l0.78125 -3.75l2.96875 -1.78125l-1.15625 5.53125l2.546875 0l-0.421875 2.0l-2.546875 0l-1.75 8.40625q-0.328125 1.609375 -0.328125 1.921875q0 0.453125 0.25 0.703125q0.265625 0.234375 0.875 0.234375q0.859375 0 1.53125 -0.171875z" fill-rule="nonzero"/><path fill="#000000" fill-opacity="0.0" d="m148.66405 180.74936c0 29.977097 18.041672 65.784134 48.701767 79.21942" fill-rule="evenodd"/><path stroke="#999999" stroke-width="3.0" stroke-linejoin="round" stroke-linecap="butt" d="m148.66405 180.74936c0 14.988541 4.5104065 31.43457 12.853348 45.812897c4.171463 7.1891327 9.301056 13.861359 15.304047 19.575989c3.00148 2.8573303 6.2213287 5.4752502 9.6489105 7.798706c0.42845154 0.2904358 0.8601532 0.57624817 1.2950745 0.8573761l0.52812195 0.33724976" fill-rule="evenodd"/><path fill="#999999" stroke="#999999" stroke-width="3.0" stroke-linecap="butt" d="m188.29356 255.13158l-4.564331 1.3897247l9.766602 1.3840637l-6.5919952 -7.3381195z" fill-rule="evenodd"/></g></svg>