<svg version="1.1" viewBox="0.0 0.0 487.9133858267717 291.4278215223097" fill="none" stroke="none" stroke-linecap="square" stroke-miterlimit="10" xmlns:xlink="http://www.w3.org/1999/xlink" xmlns="http://www.w3.org/2000/svg"><clipPath id="p.0"><path d="m0 0l487.9134 0l0 291.42783l-487.9134 0l0 -291.42783z" clip-rule="nonzero"/></clipPath><g clip-path="url(#p.0)"><path fill="#000000" fill-opacity="0.0" d="m0 0l487.9134 0l0 291.42783l-487.9134 0z" fill-rule="evenodd"/><path fill="#cccccc" d="m45.902885 265.8084l128.31497 0l0 -133.5l-29.712616 -29.712608l-98.60235 0z" fill-rule="evenodd"/><path fill="#a3a3a3" d="m144.50523 102.5958l5.94252 23.770088l23.770096 5.94252z" fill-rule="evenodd"/><path fill="#000000" fill-opacity="0.0" d="m144.50523 102.5958l5.94252 23.770088l23.770096 5.94252l-29.712616 -29.712608l-98.60235 0l0 163.21262l128.31497 0l0 -133.5" fill-rule="evenodd"/><path stroke="#ffffff" stroke-width="1.0" stroke-linejoin="round" stroke-linecap="butt" d="m144.50523 102.5958l5.94252 23.770088l23.770096 5.94252l-29.712616 -29.712608l-98.60235 0l0 163.21262l128.31497 0l0 -133.5" fill-rule="evenodd"/><path fill="#cccccc" d="m310.92587 265.80777l128.12598 0l0 -133.51172l-29.700897 -29.70089l-98.42508 0z" fill-rule="evenodd"/><path fill="#a3a3a3" d="m409.35095 102.59516l5.9401855 23.760712l23.760712 5.940178z" fill-rule="evenodd"/><path fill="#000000" fill-opacity="0.0" d="m409.35095 102.59516l5.9401855 23.760712l23.760712 5.940178l-29.700897 -29.70089l-98.42508 0l0 163.21262l128.12598 0l0 -133.51172" fill-rule="evenodd"/><path stroke="#ffffff" stroke-width="1.0" stroke-linejoin="round" stroke-linecap="butt" d="m409.35095 102.59516l5.9401855 23.760712l23.760712 5.940178l-29.700897 -29.70089l-98.42508 0l0 163.21262l128.12598 0l0 -133.51172" fill-rule="evenodd"/><path fill="#000000" fill-opacity="0.0" d="m53.45669 156.51181l118.55118 0l0 49.88977l-118.55118 0z" fill-rule="evenodd"/><path fill="#434343" d="m87.43541 188.38806l-6.84375 0l0 4.640625l0.5 0q1.15625 0 1.640625 0.453125q0.5 0.4375 0.5 1.15625q0 0.703125 -0.5 1.15625q-0.484375 0.4375 -1.640625 0.4375l-3.921875 0q-1.15625 0 -1.65625 -0.4375q-0.484375 -0.453125 -0.484375 -1.171875q0 -0.875 0.765625 -1.359375q0.375 -0.25 1.59375 -0.234375l0 -12.53125q-0.84375 -0.078125 -1.28125 -0.515625q-0.421875 -0.4375 -0.421875 -1.09375q0 -0.71875 0.484375 -1.15625q0.5 -0.453125 1.65625 -0.453125l3.265625 0.015625q1.15625 0 1.640625 0.4375q0.5 0.4375 0.5 1.15625q0 0.71875 -0.5 1.171875q-0.484375 0.4375 -1.640625 0.4375l-0.5 0l0 4.6875l6.84375 0l0 -4.6875l-0.5 0q-1.15625 0 -1.65625 -0.4375q-0.484375 -0.453125 -0.484375 -1.171875q0 -0.71875 0.484375 -1.15625q0.5 -0.453125 1.65625 -0.453125l3.265625 0.015625q1.15625 0 1.640625 0.4375q0.5 0.4375 0.5 1.15625q0 0.65625 -0.4375 1.09375q-0.421875 0.4375 -1.265625 0.515625l0 12.53125q1.234375 0 1.59375 0.234375q0.765625 0.484375 0.765625 1.375q0 0.703125 -0.5 1.15625q-0.484375 0.4375 -1.640625 0.4375l-3.921875 0q-1.15625 0 -1.65625 -0.4375q-0.484375 -0.453125 -0.484375 -1.171875q0 -0.703125 0.5 -1.140625q0.5 -0.453125 1.640625 -0.453125l0.5 0l0 -4.640625zm17.25 -7.890625l0 12.53125l2.15625 0q1.15625 0 1.640625 0.453125q0.5 0.4375 0.5 1.15625q0 0.703125 -0.5 1.15625q-0.484375 0.4375 -1.640625 0.4375l-7.5 0q-1.15625 0 -1.65625 -0.4375q-0.484375 -0.453125 -0.484375 -1.171875q0 -0.703125 0.484375 -1.140625q0.5 -0.453125 1.65625 -0.453125l2.140625 0l0 -12.53125l-3.46875 0l0 3.03125q0 1.15625 -0.453125 1.65625q-0.4375 0.484375 -1.15625 0.484375q-0.703125 0 -1.15625 -0.484375q-0.4375 -0.5 -0.4375 -1.65625l0 -6.25l16.59375 0.015625l0 6.234375q0 1.15625 -0.453125 1.65625q-0.4375 0.484375 -1.15625 0.484375q-0.703125 0 -1.15625 -0.484375q-0.4375 -0.5 -0.4375 -1.65625l0 -3.03125l-3.515625 0zm12.640625 2.984375l0 9.546875l1.15625 0q1.15625 0 1.640625 0.453125q0.5 0.4375 0.5 1.15625q0 0.703125 -0.5 1.15625q-0.484375 0.4375 -1.640625 0.4375l-4.203125 0q-1.15625 0 -1.640625 -0.4375q-0.5 -0.453125 -0.5 -1.171875q0 -0.703125 0.484375 -1.140625q0.484375 -0.453125 1.5 -0.453125l0 -12.53125q-0.84375 -0.078125 -1.28125 -0.515625q-0.421875 -0.4375 -0.421875 -1.09375q0 -0.71875 0.484375 -1.15625q0.5 -0.453125 1.65625 -0.453125l3.515625 0.015625l4.359375 9.640625l4.28125 -9.65625l3.546875 0.015625q1.15625 0 1.640625 0.4375q0.5 0.4375 0.5 1.15625q0 0.65625 -0.4375 1.09375q-0.4375 0.4375 -1.265625 0.515625l0 12.53125q1.015625 0 1.5 0.453125q0.484375 0.453125 0.484375 1.15625q0 0.703125 -0.5 1.15625q-0.484375 0.4375 -1.640625 0.4375l-4.21875 0q-1.140625 0 -1.640625 -0.4375q-0.484375 -0.453125 -0.484375 -1.171875q0 -0.703125 0.484375 -1.140625q0.5 -0.453125 1.640625 -0.453125l1.171875 0l0 -9.546875l-3.671875 8.25l-2.78125 0l-3.71875 -8.25zm22.875 -2.984375l0 12.53125l6.90625 0l0 -3.03125q0 -1.15625 0.4375 -1.640625q0.453125 -0.5 1.171875 -0.5q0.703125 0 1.140625 0.5q0.453125 0.484375 0.453125 1.640625l0 6.234375l-15.171875 0q-1.15625 0 -1.65625 -0.4375q-0.484375 -0.453125 -0.484375 -1.171875q0 -0.703125 0.484375 -1.140625q0.5 -0.453125 1.65625 -0.453125l1.859375 0l0 -12.53125l-1.859375 0q-1.15625 0 -1.65625 -0.4375q-0.484375 -0.453125 -0.484375 -1.171875q0 -0.71875 0.484375 -1.15625q0.5 -0.453125 1.65625 -0.453125l6.9375 0.015625q1.15625 0 1.640625 0.4375q0.5 0.4375 0.5 1.15625q0 0.71875 -0.5 1.171875q-0.484375 0.4375 -1.640625 0.4375l-1.875 0z" fill-rule="nonzero"/><path fill="#000000" fill-opacity="0.0" d="m312.17584 156.51181l118.55118 0l0 49.88977l-118.55118 0z" fill-rule="evenodd"/><path fill="#434343" d="m357.27176 178.10681q0.296875 -0.40625 0.640625 -0.609375q0.359375 -0.203125 0.765625 -0.203125q0.703125 0 1.140625 0.484375q0.453125 0.484375 0.453125 1.640625l0 2.71875q0 1.15625 -0.453125 1.65625q-0.4375 0.484375 -1.140625 0.484375q-0.640625 0 -1.03125 -0.359375q-0.390625 -0.359375 -0.578125 -1.34375q-0.109375 -0.65625 -0.4375 -1.015625q-0.640625 -0.703125 -1.796875 -1.125q-1.140625 -0.421875 -2.296875 -0.421875q-1.4375 0 -2.640625 0.625q-1.203125 0.625 -2.125 2.03125q-0.921875 1.40625 -0.921875 3.34375l0 2.078125q0 2.3125 1.671875 3.859375q1.6875 1.546875 4.671875 1.546875q1.78125 0 3.015625 -0.484375q0.71875 -0.28125 1.53125 -1.109375q0.5 -0.5 0.78125 -0.640625q0.28125 -0.15625 0.640625 -0.15625q0.640625 0 1.125 0.484375q0.484375 0.484375 0.484375 1.140625q0 0.65625 -0.65625 1.40625q-0.953125 1.09375 -2.453125 1.71875q-2.015625 0.84375 -4.453125 0.84375q-2.84375 0 -5.125 -1.171875q-1.84375 -0.9375 -3.140625 -2.953125q-1.296875 -2.03125 -1.296875 -4.421875l0 -2.171875q0 -2.5 1.15625 -4.65625q1.171875 -2.171875 3.234375 -3.34375q2.0625 -1.171875 4.375 -1.171875q1.390625 0 2.59375 0.328125q1.21875 0.3125 2.265625 0.96875zm9.5 17.3125q-0.421875 0.5 -0.6875 0.640625q-0.25 0.140625 -0.625 0.140625q-0.734375 0 -1.1875 -0.484375q-0.4375 -0.5 -0.4375 -1.640625l0 -2.15625q0 -1.15625 0.4375 -1.640625q0.453125 -0.5 1.1875 -0.5q0.5625 0 0.9375 0.296875q0.390625 0.296875 0.59375 1.0q0.203125 0.6875 0.421875 0.9375q0.453125 0.484375 1.609375 0.984375q1.15625 0.5 2.53125 0.5q2.140625 0 3.515625 -1.0q0.875 -0.609375 0.875 -1.5q0 -0.59375 -0.421875 -1.109375q-0.421875 -0.53125 -1.375 -0.875q-0.625 -0.234375 -2.796875 -0.640625q-2.625 -0.484375 -3.96875 -1.171875q-1.34375 -0.6875 -2.125 -1.9375q-0.78125 -1.25 -0.78125 -2.703125q0 -2.296875 1.921875 -4.015625q1.921875 -1.734375 5.0 -1.734375q1.234375 0 2.28125 0.28125q1.0625 0.265625 1.921875 0.828125q0.625 -0.609375 1.25 -0.609375q0.703125 0 1.140625 0.5q0.453125 0.484375 0.453125 1.625l0 2.40625q0 1.15625 -0.453125 1.65625q-0.4375 0.484375 -1.140625 0.484375q-0.59375 0 -1.03125 -0.359375q-0.34375 -0.265625 -0.515625 -1.0625q-0.171875 -0.796875 -0.4375 -1.140625q-0.453125 -0.59375 -1.359375 -1.0q-0.90625 -0.40625 -2.09375 -0.40625q-1.734375 0 -2.75 0.8125q-1.0 0.796875 -1.0 1.671875q0 0.59375 0.40625 1.15625q0.421875 0.546875 1.21875 0.859375q0.53125 0.21875 2.984375 0.703125q2.46875 0.484375 3.78125 1.0625q1.328125 0.578125 2.203125 1.8125q0.875 1.234375 0.875 2.9375q0 2.375 -1.671875 3.796875q-2.21875 1.875 -5.65625 1.875q-1.328125 0 -2.59375 -0.328125q-1.25 -0.3125 -2.4375 -0.953125zm23.875 -3.859375l4.640625 -11.0625l-0.734375 0q-1.15625 0 -1.65625 -0.4375q-0.484375 -0.453125 -0.484375 -1.171875q0 -0.71875 0.484375 -1.15625q0.5 -0.453125 1.65625 -0.453125l4.296875 0.015625q1.15625 0 1.640625 0.4375q0.5 0.4375 0.5 1.15625q0 0.859375 -0.75 1.359375q-0.359375 0.25 -1.46875 0.25l-6.578125 15.734375l-3.078125 0l-6.5625 -15.734375q-1.125 0 -1.484375 -0.25q-0.75 -0.484375 -0.75 -1.359375q0 -0.71875 0.5 -1.15625q0.484375 -0.453125 1.640625 -0.453125l4.328125 0.015625q1.140625 0 1.625 0.4375q0.5 0.4375 0.5 1.15625q0 0.71875 -0.484375 1.171875q-0.484375 0.4375 -1.640625 0.4375l-0.75 0l4.609375 11.0625z" fill-rule="nonzero"/><path fill="#000000" fill-opacity="0.0" d="m43.755905 13.220472l139.62206 0l0 89.385826l-139.62206 0z" fill-rule="evenodd"/><path fill="#434343" d="m84.074745 52.940475l0 -22.906252l10.15625 0q3.0625 0 4.65625 0.625q1.59375 0.609375 2.546875 2.171877q0.953125 1.5625 0.953125 3.453125q0 2.4375 -1.578125 4.109375q-1.578125 1.671875 -4.875 2.125q1.203125 0.578125 1.828125 1.140625q1.328125 1.21875 2.515625 3.046875l3.984375 6.234375l-3.8125 0l-3.03125 -4.765625q-1.328125 -2.0625 -2.1875 -3.15625q-0.859375 -1.09375 -1.546875 -1.53125q-0.671875 -0.4375 -1.375 -0.609375q-0.515625 -0.109375 -1.6875 -0.109375l-3.515625 0l0 10.171875l-3.03125 0zm3.03125 -12.796875l6.515625 0q2.078125 0 3.25 -0.421875q1.171875 -0.4375 1.78125 -1.375q0.609375 -0.953125 0.609375 -2.0625q0 -1.625 -1.1875 -2.671875q-1.171875 -1.046875 -3.71875 -1.046875l-7.25 0l0 7.578125zm30.499992 10.75q-1.5625 1.328125 -3.015625 1.875q-1.4375 0.546875 -3.09375 0.546875q-2.734375 0 -4.2031174 -1.328125q-1.46875 -1.34375 -1.46875 -3.421875q0 -1.21875 0.546875 -2.21875q0.5625 -1.015625 1.4531174 -1.625q0.90625 -0.609375 2.03125 -0.921875q0.828125 -0.21875 2.5 -0.421875q3.40625 -0.40625 5.015625 -0.96875q0.015625 -0.578125 0.015625 -0.734375q0 -1.71875 -0.796875 -2.421875q-1.078125 -0.953125 -3.203125 -0.953125q-1.984375 0 -2.9375 0.703125q-0.9375 0.6875 -1.390625 2.453125l-2.7499924 -0.375q0.375 -1.765625 1.234375 -2.84375q0.8593674 -1.09375 2.4843674 -1.671875q1.625 -0.59375 3.765625 -0.59375q2.125 0 3.453125 0.5q1.328125 0.5 1.953125 1.265625q0.625 0.75 0.875 1.90625q0.140625 0.71875 0.140625 2.59375l0 3.75q0 3.921875 0.171875 4.96875q0.1875 1.03125 0.71875 1.984375l-2.9375 0q-0.4375 -0.875 -0.5625 -2.046875zm-0.234375 -6.28125q-1.53125 0.625 -4.59375 1.0625q-1.734375 0.25 -2.453125 0.5625q-0.71875 0.3125 -1.109375 0.921875q-0.390625 0.59375 -0.390625 1.328125q0 1.125 0.84375 1.875q0.859375 0.75 2.5 0.75q1.625 0 2.890625 -0.703125q1.265625 -0.71875 1.859375 -1.953125q0.453125 -0.953125 0.453125 -2.8125l0 -1.03125zm10.265625 8.328125l-5.078125 -16.59375l2.90625 0l2.640625 9.578125l0.984375 3.5625q0.0625 -0.265625 0.859375 -3.421875l2.640625 -9.71875l2.890625 0l2.484375 9.625l0.828125 3.171875l0.953125 -3.203125l2.84375 -9.59375l2.734375 0l-5.1875 16.59375l-2.921875 0l-2.640625 -9.9375l-0.640625 -2.828125l-3.359375 12.765625l-2.9375 0z" fill-rule="nonzero"/><path fill="#434343" d="m70.40287 90.940475l0 -2.09375q-1.578125 2.46875 -4.640625 2.46875q-1.9843788 0 -3.6562538 -1.09375q-1.65625 -1.09375 -2.578125 -3.046875q-0.90625 -1.96875 -0.90625 -4.515625q0 -2.484375 0.828125 -4.5q0.828125 -2.03125 2.484375 -3.109375q1.65625 -1.078125 3.7031288 -1.078125q1.5 0 2.671875 0.640625q1.171875 0.625 1.90625 1.640625l0 -8.21875l2.796875 0l0 22.90625l-2.609375 0zm-8.890629 -8.28125q0 3.1875 1.34375 4.765625q1.3437538 1.578125 3.1718788 1.578125q1.84375 0 3.125 -1.5q1.296875 -1.515625 1.296875 -4.609375q0 -3.40625 -1.3125 -5.0q-1.3125 -1.59375 -3.234375 -1.59375q-1.875 0 -3.1406288 1.53125q-1.25 1.53125 -1.25 4.828125zm26.750004 6.234375q-1.5625 1.328125 -3.015625 1.875q-1.4375 0.546875 -3.09375 0.546875q-2.734375 0 -4.203125 -1.328125q-1.46875 -1.34375 -1.46875 -3.421875q0 -1.21875 0.546875 -2.21875q0.5625 -1.015625 1.453125 -1.625q0.90625 -0.609375 2.03125 -0.921875q0.828125 -0.21875 2.5 -0.421875q3.40625 -0.40625 5.015625 -0.96875q0.015625 -0.578125 0.015625 -0.734375q0 -1.71875 -0.796875 -2.421875q-1.078125 -0.953125 -3.203125 -0.953125q-1.984375 0 -2.9375 0.703125q-0.9375 0.6875 -1.390625 2.453125l-2.75 -0.375q0.375 -1.765625 1.234375 -2.84375q0.859375 -1.09375 2.484375 -1.671875q1.625 -0.59375 3.765625 -0.59375q2.125 0 3.453125 0.5q1.328125 0.5 1.953125 1.265625q0.625 0.75 0.875 1.90625q0.140625 0.71875 0.140625 2.59375l0 3.75q0 3.921875 0.171875 4.96875q0.1875 1.03125 0.71875 1.984375l-2.9375 0q-0.4375 -0.875 -0.5625 -2.046875zm-0.234375 -6.28125q-1.53125 0.625 -4.59375 1.0625q-1.734375 0.25 -2.453125 0.5625q-0.71875 0.3125 -1.109375 0.921875q-0.390625 0.59375 -0.390625 1.328125q0 1.125 0.84375 1.875q0.859375 0.75 2.5 0.75q1.625 0 2.890625 -0.703125q1.265625 -0.71875 1.859375 -1.953125q0.453125 -0.953125 0.453125 -2.8125l0 -1.03125zm13.34375 5.8125l0.40625 2.484375q-1.1875 0.25 -2.125 0.25q-1.53125 0 -2.375 -0.484375q-0.84375 -0.484375 -1.1875 -1.265625q-0.34375 -0.796875 -0.34375 -3.328125l0 -9.546875l-2.0625 0l0 -2.1875l2.0625 0l0 -4.109375l2.796875 -1.6875l0 5.796875l2.828125 0l0 2.1875l-2.828125 0l0 9.703125q0 1.203125 0.140625 1.546875q0.15625 0.34375 0.484375 0.546875q0.34375 0.203125 0.96875 0.203125q0.46875 0 1.234375 -0.109375zm13.578117 0.46875q-1.5625 1.328125 -3.015625 1.875q-1.4375 0.546875 -3.09375 0.546875q-2.7343674 0 -4.2031174 -1.328125q-1.46875 -1.34375 -1.46875 -3.421875q0 -1.21875 0.546875 -2.21875q0.5625 -1.015625 1.453125 -1.625q0.90625 -0.609375 2.03125 -0.921875q0.8281174 -0.21875 2.4999924 -0.421875q3.40625 -0.40625 5.015625 -0.96875q0.015625 -0.578125 0.015625 -0.734375q0 -1.71875 -0.796875 -2.421875q-1.078125 -0.953125 -3.203125 -0.953125q-1.984375 0 -2.9375 0.703125q-0.9374924 0.6875 -1.3906174 2.453125l-2.75 -0.375q0.375 -1.765625 1.234375 -2.84375q0.859375 -1.09375 2.484375 -1.671875q1.6249924 -0.59375 3.7656174 -0.59375q2.125 0 3.453125 0.5q1.328125 0.5 1.953125 1.265625q0.625 0.75 0.875 1.90625q0.140625 0.71875 0.140625 2.59375l0 3.75q0 3.921875 0.171875 4.96875q0.1875 1.03125 0.71875 1.984375l-2.9375 0q-0.4375 -0.875 -0.5625 -2.046875zm-0.234375 -6.28125q-1.53125 0.625 -4.59375 1.0625q-1.734375 0.25 -2.4531174 0.5625q-0.71875 0.3125 -1.109375 0.921875q-0.390625 0.59375 -0.390625 1.328125q0 1.125 0.84375 1.875q0.8593674 0.75 2.4999924 0.75q1.625 0 2.890625 -0.703125q1.265625 -0.71875 1.859375 -1.953125q0.453125 -0.953125 0.453125 -2.8125l0 -1.03125zm16.765625 8.328125l0 -14.40625l-2.484375 0l0 -2.1875l2.484375 0l0 -1.765625q0 -1.671875 0.296875 -2.484375q0.40625 -1.09375 1.421875 -1.765625q1.03125 -0.6875 2.875 -0.6875q1.1875 0 2.625 0.28125l-0.421875 2.453125q-0.875 -0.15625 -1.65625 -0.15625q-1.28125 0 -1.8125 0.546875q-0.53125 0.546875 -0.53125 2.046875l0 1.53125l3.234375 0l0 2.1875l-3.234375 0l0 14.40625l-2.796875 0zm8.234375 -19.671875l0 -3.234375l2.8125 0l0 3.234375l-2.8125 0zm0 19.671875l0 -16.59375l2.8125 0l0 16.59375l-2.8125 0zm7.03125 0l0 -22.90625l2.8125 0l0 22.90625l-2.8125 0zm18.53125 -5.34375l2.90625 0.359375q-0.6875 2.546875 -2.546875 3.953125q-1.859375 1.40625 -4.75 1.40625q-3.640625 0 -5.78125 -2.234375q-2.125 -2.25 -2.125 -6.296875q0 -4.1875 2.15625 -6.5q2.15625 -2.3125 5.59375 -2.3125q3.328125 0 5.4375 2.265625q2.109375 2.265625 2.109375 6.375q0 0.25 -0.015625 0.75l-12.375 0q0.15625 2.734375 1.546875 4.1875q1.390625 1.453125 3.46875 1.453125q1.546875 0 2.640625 -0.8125q1.09375 -0.8125 1.734375 -2.59375zm-9.234375 -4.546875l9.265625 0q-0.1875 -2.09375 -1.0625 -3.140625q-1.34375 -1.625 -3.484375 -1.625q-1.9375 0 -3.265625 1.296875q-1.3125 1.296875 -1.453125 3.46875z" fill-rule="nonzero"/><path fill="#000000" fill-opacity="0.0" d="m303.84515 13.220472l135.21259 0l0 89.385826l-135.21259 0z" fill-rule="evenodd"/><path fill="#434343" d="m348.45926 44.909225l3.03125 0.765625q-0.953125 3.734375 -3.4375 5.703125q-2.46875 1.953125 -6.046875 1.953125q-3.703125 0 -6.03125 -1.5q-2.3125 -1.515625 -3.53125 -4.375q-1.203125 -2.859375 -1.203125 -6.140625q0 -3.578125 1.359375 -6.234375q1.375 -2.671875 3.890625 -4.046877q2.53125 -1.390625 5.5625 -1.390625q3.4375 0 5.78125 1.75q2.34375 1.7500019 3.265625 4.921877l-2.984375 0.703125q-0.796875 -2.5 -2.3125 -3.640625q-1.515625 -1.140625 -3.8125 -1.140625q-2.640625 0 -4.421875 1.265625q-1.765625 1.265625 -2.484375 3.40625q-0.71875 2.125 -0.71875 4.390625q0 2.921875 0.84375 5.109375q0.859375 2.171875 2.65625 3.25q1.796875 1.078125 3.890625 1.078125q2.546875 0 4.3125 -1.46875q1.765625 -1.46875 2.390625 -4.359375zm6.34375 8.03125l0 -22.906252l2.8125 0l0 22.906252l-2.8125 0zm18.53125 -5.34375l2.90625 0.359375q-0.6875 2.546875 -2.546875 3.953125q-1.859375 1.40625 -4.75 1.40625q-3.640625 0 -5.78125 -2.234375q-2.125 -2.25 -2.125 -6.296875q0 -4.1875 2.15625 -6.5q2.15625 -2.3125 5.59375 -2.3125q3.328125 0 5.4375 2.265625q2.109375 2.265625 2.109375 6.375q0 0.25 -0.015625 0.75l-12.375 0q0.15625 2.734375 1.546875 4.1875q1.390625 1.453125 3.46875 1.453125q1.546875 0 2.640625 -0.8125q1.09375 -0.8125 1.734375 -2.59375zm-9.234375 -4.546875l9.265625 0q-0.1875 -2.09375 -1.0625 -3.140625q-1.34375 -1.625 -3.484375 -1.625q-1.9375 0 -3.265625 1.296875q-1.3125 1.296875 -1.453125 3.46875zm26.5 7.84375q-1.5625 1.328125 -3.015625 1.875q-1.4375 0.546875 -3.09375 0.546875q-2.734375 0 -4.203125 -1.328125q-1.46875 -1.34375 -1.46875 -3.421875q0 -1.21875 0.546875 -2.21875q0.5625 -1.015625 1.453125 -1.625q0.90625 -0.609375 2.03125 -0.921875q0.828125 -0.21875 2.5 -0.421875q3.40625 -0.40625 5.015625 -0.96875q0.015625 -0.578125 0.015625 -0.734375q0 -1.71875 -0.796875 -2.421875q-1.078125 -0.953125 -3.203125 -0.953125q-1.984375 0 -2.9375 0.703125q-0.9375 0.6875 -1.390625 2.453125l-2.75 -0.375q0.375 -1.765625 1.234375 -2.84375q0.859375 -1.09375 2.484375 -1.671875q1.625 -0.59375 3.765625 -0.59375q2.125 0 3.453125 0.5q1.328125 0.5 1.953125 1.265625q0.625 0.75 0.875 1.90625q0.140625 0.71875 0.140625 2.59375l0 3.75q0 3.921875 0.171875 4.96875q0.1875 1.03125 0.71875 1.984375l-2.9375 0q-0.4375 -0.875 -0.5625 -2.046875zm-0.234375 -6.28125q-1.53125 0.625 -4.59375 1.0625q-1.734375 0.25 -2.453125 0.5625q-0.71875 0.3125 -1.109375 0.921875q-0.390625 0.59375 -0.390625 1.328125q0 1.125 0.84375 1.875q0.859375 0.75 2.5 0.75q1.625 0 2.890625 -0.703125q1.265625 -0.71875 1.859375 -1.953125q0.453125 -0.953125 0.453125 -2.8125l0 -1.03125zm7.203125 8.328125l0 -16.59375l2.53125 0l0 2.359375q1.828125 -2.734375 5.28125 -2.734375q1.5 0 2.75 0.546875q1.265625 0.53125 1.890625 1.40625q0.625 0.875 0.875 2.078125q0.15625 0.78125 0.15625 2.734375l0 10.203125l-2.8125 0l0 -10.09375q0 -1.71875 -0.328125 -2.5625q-0.328125 -0.859375 -1.171875 -1.359375q-0.828125 -0.515625 -1.953125 -0.515625q-1.796875 0 -3.109375 1.140625q-1.296875 1.140625 -1.296875 4.328125l0 9.0625l-2.8125 0z" fill-rule="nonzero"/><path fill="#434343" d="m328.28738 90.940475l0 -2.09375q-1.578125 2.46875 -4.640625 2.46875q-1.984375 0 -3.65625 -1.09375q-1.65625 -1.09375 -2.578125 -3.046875q-0.90625 -1.96875 -0.90625 -4.515625q0 -2.484375 0.828125 -4.5q0.828125 -2.03125 2.484375 -3.109375q1.65625 -1.078125 3.703125 -1.078125q1.5 0 2.671875 0.640625q1.171875 0.625 1.90625 1.640625l0 -8.21875l2.796875 0l0 22.90625l-2.609375 0zm-8.890625 -8.28125q0 3.1875 1.34375 4.765625q1.34375 1.578125 3.171875 1.578125q1.84375 0 3.125 -1.5q1.296875 -1.515625 1.296875 -4.609375q0 -3.40625 -1.3125 -5.0q-1.3125 -1.59375 -3.234375 -1.59375q-1.875 0 -3.140625 1.53125q-1.25 1.53125 -1.25 4.828125zm26.75 6.234375q-1.5625 1.328125 -3.015625 1.875q-1.4375 0.546875 -3.09375 0.546875q-2.734375 0 -4.203125 -1.328125q-1.46875 -1.34375 -1.46875 -3.421875q0 -1.21875 0.546875 -2.21875q0.5625 -1.015625 1.453125 -1.625q0.90625 -0.609375 2.03125 -0.921875q0.828125 -0.21875 2.5 -0.421875q3.40625 -0.40625 5.015625 -0.96875q0.015625 -0.578125 0.015625 -0.734375q0 -1.71875 -0.796875 -2.421875q-1.078125 -0.953125 -3.203125 -0.953125q-1.984375 0 -2.9375 0.703125q-0.9375 0.6875 -1.390625 2.453125l-2.75 -0.375q0.375 -1.765625 1.234375 -2.84375q0.859375 -1.09375 2.484375 -1.671875q1.625 -0.59375 3.765625 -0.59375q2.125 0 3.453125 0.5q1.328125 0.5 1.953125 1.265625q0.625 0.75 0.875 1.90625q0.140625 0.71875 0.140625 2.59375l0 3.75q0 3.921875 0.171875 4.96875q0.1875 1.03125 0.71875 1.984375l-2.9375 0q-0.4375 -0.875 -0.5625 -2.046875zm-0.234375 -6.28125q-1.53125 0.625 -4.59375 1.0625q-1.734375 0.25 -2.453125 0.5625q-0.71875 0.3125 -1.109375 0.921875q-0.390625 0.59375 -0.390625 1.328125q0 1.125 0.84375 1.875q0.859375 0.75 2.5 0.75q1.625 0 2.890625 -0.703125q1.265625 -0.71875 1.859375 -1.953125q0.453125 -0.953125 0.453125 -2.8125l0 -1.03125zm13.34375 5.8125l0.40625 2.484375q-1.1875 0.25 -2.125 0.25q-1.53125 0 -2.375 -0.484375q-0.84375 -0.484375 -1.1875 -1.265625q-0.34375 -0.796875 -0.34375 -3.328125l0 -9.546875l-2.0625 0l0 -2.1875l2.0625 0l0 -4.109375l2.796875 -1.6875l0 5.796875l2.828125 0l0 2.1875l-2.828125 0l0 9.703125q0 1.203125 0.140625 1.546875q0.15625 0.34375 0.484375 0.546875q0.34375 0.203125 0.96875 0.203125q0.46875 0 1.234375 -0.109375zm13.578125 0.46875q-1.5625 1.328125 -3.015625 1.875q-1.4375 0.546875 -3.09375 0.546875q-2.734375 0 -4.203125 -1.328125q-1.46875 -1.34375 -1.46875 -3.421875q0 -1.21875 0.546875 -2.21875q0.5625 -1.015625 1.453125 -1.625q0.90625 -0.609375 2.03125 -0.921875q0.828125 -0.21875 2.5 -0.421875q3.40625 -0.40625 5.015625 -0.96875q0.015625 -0.578125 0.015625 -0.734375q0 -1.71875 -0.796875 -2.421875q-1.078125 -0.953125 -3.203125 -0.953125q-1.984375 0 -2.9375 0.703125q-0.9375 0.6875 -1.390625 2.453125l-2.75 -0.375q0.375 -1.765625 1.234375 -2.84375q0.859375 -1.09375 2.484375 -1.671875q1.625 -0.59375 3.765625 -0.59375q2.125 0 3.453125 0.5q1.328125 0.5 1.953125 1.265625q0.625 0.75 0.875 1.90625q0.140625 0.71875 0.140625 2.59375l0 3.75q0 3.921875 0.171875 4.96875q0.1875 1.03125 0.71875 1.984375l-2.9375 0q-0.4375 -0.875 -0.5625 -2.046875zm-0.234375 -6.28125q-1.53125 0.625 -4.59375 1.0625q-1.734375 0.25 -2.453125 0.5625q-0.71875 0.3125 -1.109375 0.921875q-0.390625 0.59375 -0.390625 1.328125q0 1.125 0.84375 1.875q0.859375 0.75 2.5 0.75q1.625 0 2.890625 -0.703125q1.265625 -0.71875 1.859375 -1.953125q0.453125 -0.953125 0.453125 -2.8125l0 -1.03125zm16.765625 8.328125l0 -14.40625l-2.484375 0l0 -2.1875l2.484375 0l0 -1.765625q0 -1.671875 0.296875 -2.484375q0.40625 -1.09375 1.421875 -1.765625q1.03125 -0.6875 2.875 -0.6875q1.1875 0 2.625 0.28125l-0.421875 2.453125q-0.875 -0.15625 -1.65625 -0.15625q-1.28125 0 -1.8125 0.546875q-0.53125 0.546875 -0.53125 2.046875l0 1.53125l3.234375 0l0 2.1875l-3.234375 0l0 14.40625l-2.796875 0zm8.234375 -19.671875l0 -3.234375l2.8125 0l0 3.234375l-2.8125 0zm0 19.671875l0 -16.59375l2.8125 0l0 16.59375l-2.8125 0zm7.03125 0l0 -22.90625l2.8125 0l0 22.90625l-2.8125 0zm18.53125 -5.34375l2.90625 0.359375q-0.6875 2.546875 -2.546875 3.953125q-1.859375 1.40625 -4.75 1.40625q-3.640625 0 -5.78125 -2.234375q-2.125 -2.25 -2.125 -6.296875q0 -4.1875 2.15625 -6.5q2.15625 -2.3125 5.59375 -2.3125q3.328125 0 5.4375 2.265625q2.109375 2.265625 2.109375 6.375q0 0.25 -0.015625 0.75l-12.375 0q0.15625 2.734375 1.546875 4.1875q1.390625 1.453125 3.46875 1.453125q1.546875 0 2.640625 -0.8125q1.09375 -0.8125 1.734375 -2.59375zm-9.234375 -4.546875l9.265625 0q-0.1875 -2.09375 -1.0625 -3.140625q-1.34375 -1.625 -3.484375 -1.625q-1.9375 0 -3.265625 1.296875q-1.3125 1.296875 -1.453125 3.46875z" fill-rule="nonzero"/><path fill="#000000" fill-opacity="0.0" d="m200.43832 174.59212c13.932144 -9.9509735 28.049316 -21.694855 44.837265 -25.05513c16.96318 -3.3953247 38.42177 8.261185 46.152237 23.737534" fill-rule="evenodd"/><path stroke="#666666" stroke-width="3.0" stroke-linejoin="round" stroke-linecap="butt" d="m200.43832 174.5921c13.932144 -9.950958 28.049316 -21.69484 44.837265 -25.055115c8.481583 -1.6976624 18.08702 0.36763 26.538376 4.7919006c4.2256775 2.2121277 8.162811 5.0139923 11.526733 8.230103c0.4204712 0.40200806 0.83200073 0.8105011 1.2340088 1.2251129c0.20101929 0.20730591 0.3996277 0.4161377 0.5958252 0.6264801c0.098083496 0.105148315 0.19555664 0.21069336 0.29244995 0.31658936l0.095825195 0.10585022" fill-rule="evenodd"/><path fill="#666666" stroke="#666666" stroke-width="3.0" stroke-linecap="butt" d="m285.5588 164.83302l-4.695923 -0.8441467l8.061371 5.684738l-2.5213013 -9.53653z" fill-rule="evenodd"/></g></svg>