<svg version="1.1" viewBox="0.0 0.0 891.4278215223097 395.6036745406824" fill="none" stroke="none" stroke-linecap="square" stroke-miterlimit="10" xmlns:xlink="http://www.w3.org/1999/xlink" xmlns="http://www.w3.org/2000/svg"><clipPath id="p.0"><path d="m0 0l891.4278 0l0 395.60367l-891.4278 0l0 -395.60367z" clip-rule="nonzero"/></clipPath><g clip-path="url(#p.0)"><path fill="#000000" fill-opacity="0.0" d="m0 0l891.4278 0l0 395.60367l-891.4278 0z" fill-rule="evenodd"/><path shape-rendering="crispEdges" fill="#999999" d="m21.183727 92.52887l40.194225 0l0 42.30446l-40.194225 0l0 -42.30446z" fill-rule="nonzero"/><path shape-rendering="crispEdges" fill="#999999" d="m61.377953 92.52887l40.19423 0l0 42.30446l-40.19423 0l0 -42.30446z" fill-rule="nonzero"/><path shape-rendering="crispEdges" fill="#999999" d="m101.57218 92.52887l40.19422 0l0 42.30446l-40.19422 0l0 -42.30446z" fill-rule="nonzero"/><path shape-rendering="crispEdges" fill="#999999" d="m141.7664 92.52887l40.19423 0l0 42.30446l-40.19423 0l0 -42.30446z" fill-rule="nonzero"/><path shape-rendering="crispEdges" fill="#d9d9d9" d="m21.183727 134.83333l40.194225 0l0 42.304474l-40.194225 0l0 -42.304474z" fill-rule="nonzero"/><path shape-rendering="crispEdges" fill="#ff9900" d="m61.377953 134.83333l40.19423 0l0 42.304474l-40.19423 0l0 -42.304474z" fill-rule="nonzero"/><path shape-rendering="crispEdges" fill="#d9d9d9" d="m101.57218 134.83333l40.19422 0l0 42.304474l-40.19422 0l0 -42.304474z" fill-rule="nonzero"/><path shape-rendering="crispEdges" fill="#d9d9d9" d="m141.7664 134.83333l40.19423 0l0 42.304474l-40.19423 0l0 -42.304474z" fill-rule="nonzero"/><path shape-rendering="crispEdges" fill="#d9d9d9" d="m21.183727 177.1378l40.194225 0l0 46.47505l-40.194225 0l0 -46.47505z" fill-rule="nonzero"/><path shape-rendering="crispEdges" fill="#ff9900" d="m61.377953 177.1378l40.19423 0l0 46.47505l-40.19423 0l0 -46.47505z" fill-rule="nonzero"/><path shape-rendering="crispEdges" fill="#d9d9d9" d="m101.57218 177.1378l40.19422 0l0 46.47505l-40.19422 0l0 -46.47505z" fill-rule="nonzero"/><path shape-rendering="crispEdges" fill="#d9d9d9" d="m141.7664 177.1378l40.19423 0l0 46.47505l-40.19423 0l0 -46.47505z" fill-rule="nonzero"/><path shape-rendering="crispEdges" fill="#d9d9d9" d="m21.183727 223.61285l40.194225 0l0 42.304474l-40.194225 0l0 -42.304474z" fill-rule="nonzero"/><path shape-rendering="crispEdges" fill="#ff9900" d="m61.377953 223.61285l40.19423 0l0 42.304474l-40.19423 0l0 -42.304474z" fill-rule="nonzero"/><path shape-rendering="crispEdges" fill="#d9d9d9" d="m101.57218 223.61285l40.19422 0l0 42.304474l-40.19422 0l0 -42.304474z" fill-rule="nonzero"/><path shape-rendering="crispEdges" fill="#d9d9d9" d="m141.7664 223.61285l40.19423 0l0 42.304474l-40.19423 0l0 -42.304474z" fill-rule="nonzero"/><path shape-rendering="crispEdges" fill="#d9d9d9" d="m21.183727 265.91733l40.194225 0l0 42.304443l-40.194225 0l0 -42.304443z" fill-rule="nonzero"/><path shape-rendering="crispEdges" fill="#ff9900" d="m61.377953 265.91733l40.19423 0l0 42.304443l-40.19423 0l0 -42.304443z" fill-rule="nonzero"/><path shape-rendering="crispEdges" fill="#d9d9d9" d="m101.57218 265.91733l40.19422 0l0 42.304443l-40.19422 0l0 -42.304443z" fill-rule="nonzero"/><path shape-rendering="crispEdges" fill="#d9d9d9" d="m141.7664 265.91733l40.19423 0l0 42.304443l-40.19423 0l0 -42.304443z" fill-rule="nonzero"/><path stroke="#ffffff" stroke-width="2.0" stroke-linecap="butt" d="m21.183727 91.52887l0 217.6929" fill-rule="nonzero"/><path stroke="#ffffff" stroke-width="2.0" stroke-linecap="butt" d="m61.377953 91.52887l0 217.6929" fill-rule="nonzero"/><path stroke="#ffffff" stroke-width="2.0" stroke-linecap="butt" d="m101.57218 91.52887l0 217.6929" fill-rule="nonzero"/><path stroke="#ffffff" stroke-width="2.0" stroke-linecap="butt" d="m141.7664 91.52887l0 217.6929" fill-rule="nonzero"/><path stroke="#ffffff" stroke-width="2.0" stroke-linecap="butt" d="m181.96063 91.52887l0 217.6929" fill-rule="nonzero"/><path stroke="#ffffff" stroke-width="2.0" stroke-linecap="butt" d="m20.183727 92.52887l162.7769 0" fill-rule="nonzero"/><path stroke="#ffffff" stroke-width="2.0" stroke-linecap="butt" d="m20.183727 134.83333l162.7769 0" fill-rule="nonzero"/><path stroke="#ffffff" stroke-width="2.0" stroke-linecap="butt" d="m20.183727 177.1378l162.7769 0" fill-rule="nonzero"/><path stroke="#ffffff" stroke-width="2.0" stroke-linecap="butt" d="m20.183727 223.61285l162.7769 0" fill-rule="nonzero"/><path stroke="#ffffff" stroke-width="2.0" stroke-linecap="butt" d="m20.183727 265.91733l162.7769 0" fill-rule="nonzero"/><path stroke="#ffffff" stroke-width="2.0" stroke-linecap="butt" d="m20.183727 308.22177l162.7769 0" fill-rule="nonzero"/><path shape-rendering="crispEdges" fill="#ffffff" d="m269.18372 92.52887l40.194244 0l0 42.30446l-40.194244 0l0 -42.30446z" fill-rule="nonzero"/><path shape-rendering="crispEdges" fill="#ff9900" d="m269.18372 134.83333l40.194244 0l0 42.304474l-40.194244 0l0 -42.304474z" fill-rule="nonzero"/><path shape-rendering="crispEdges" fill="#ff9900" d="m269.18372 177.1378l40.194244 0l0 46.47505l-40.194244 0l0 -46.47505z" fill-rule="nonzero"/><path shape-rendering="crispEdges" fill="#ff9900" d="m269.18372 223.61285l40.194244 0l0 42.304474l-40.194244 0l0 -42.304474z" fill-rule="nonzero"/><path shape-rendering="crispEdges" fill="#ff9900" d="m269.18372 265.91733l40.194244 0l0 42.304443l-40.194244 0l0 -42.304443z" fill-rule="nonzero"/><path stroke="#ffffff" stroke-width="2.0" stroke-linecap="butt" d="m269.18372 91.52887l0 217.6929" fill-rule="nonzero"/><path stroke="#ffffff" stroke-width="2.0" stroke-linecap="butt" d="m309.37796 91.52887l0 217.6929" fill-rule="nonzero"/><path stroke="#ffffff" stroke-width="2.0" stroke-linecap="butt" d="m268.18372 92.52887l42.194244 0" fill-rule="nonzero"/><path stroke="#ffffff" stroke-width="2.0" stroke-linecap="butt" d="m268.18372 134.83333l42.194244 0" fill-rule="nonzero"/><path stroke="#ffffff" stroke-width="2.0" stroke-linecap="butt" d="m268.18372 177.1378l42.194244 0" fill-rule="nonzero"/><path stroke="#ffffff" stroke-width="2.0" stroke-linecap="butt" d="m268.18372 223.61285l42.194244 0" fill-rule="nonzero"/><path stroke="#ffffff" stroke-width="2.0" stroke-linecap="butt" d="m268.18372 265.91733l42.194244 0" fill-rule="nonzero"/><path stroke="#ffffff" stroke-width="2.0" stroke-linecap="butt" d="m268.18372 308.22177l42.194244 0" fill-rule="nonzero"/><path fill="#cccccc" d="m201.17433 191.479l33.637787 0l0 -8.897644l17.795273 17.795288l-17.795273 17.795273l0 -8.897644l-33.637787 0z" fill-rule="evenodd"/><path shape-rendering="crispEdges" fill="#999999" d="m541.1837 92.52887l40.194214 0l0 42.30446l-40.194214 0l0 -42.30446z" fill-rule="nonzero"/><path shape-rendering="crispEdges" fill="#999999" d="m581.3779 92.52887l40.194275 0l0 42.30446l-40.194275 0l0 -42.30446z" fill-rule="nonzero"/><path shape-rendering="crispEdges" fill="#999999" d="m621.5722 92.52887l40.194214 0l0 42.30446l-40.194214 0l0 -42.30446z" fill-rule="nonzero"/><path shape-rendering="crispEdges" fill="#999999" d="m661.7664 92.52887l40.194214 0l0 42.30446l-40.194214 0l0 -42.30446z" fill-rule="nonzero"/><path shape-rendering="crispEdges" fill="#d9d9d9" d="m541.1837 134.83333l40.194214 0l0 42.304474l-40.194214 0l0 -42.304474z" fill-rule="nonzero"/><path shape-rendering="crispEdges" fill="#ff9900" d="m581.3779 134.83333l40.194275 0l0 42.304474l-40.194275 0l0 -42.304474z" fill-rule="nonzero"/><path shape-rendering="crispEdges" fill="#d9d9d9" d="m621.5722 134.83333l40.194214 0l0 42.304474l-40.194214 0l0 -42.304474z" fill-rule="nonzero"/><path shape-rendering="crispEdges" fill="#d9d9d9" d="m661.7664 134.83333l40.194214 0l0 42.304474l-40.194214 0l0 -42.304474z" fill-rule="nonzero"/><path shape-rendering="crispEdges" fill="#d9d9d9" d="m541.1837 177.1378l40.194214 0l0 46.47505l-40.194214 0l0 -46.47505z" fill-rule="nonzero"/><path shape-rendering="crispEdges" fill="#ff9900" d="m581.3779 177.1378l40.194275 0l0 46.47505l-40.194275 0l0 -46.47505z" fill-rule="nonzero"/><path shape-rendering="crispEdges" fill="#d9d9d9" d="m621.5722 177.1378l40.194214 0l0 46.47505l-40.194214 0l0 -46.47505z" fill-rule="nonzero"/><path shape-rendering="crispEdges" fill="#d9d9d9" d="m661.7664 177.1378l40.194214 0l0 46.47505l-40.194214 0l0 -46.47505z" fill-rule="nonzero"/><path shape-rendering="crispEdges" fill="#d9d9d9" d="m541.1837 223.61285l40.194214 0l0 42.304474l-40.194214 0l0 -42.304474z" fill-rule="nonzero"/><path shape-rendering="crispEdges" fill="#ff9900" d="m581.3779 223.61285l40.194275 0l0 42.304474l-40.194275 0l0 -42.304474z" fill-rule="nonzero"/><path shape-rendering="crispEdges" fill="#d9d9d9" d="m621.5722 223.61285l40.194214 0l0 42.304474l-40.194214 0l0 -42.304474z" fill-rule="nonzero"/><path shape-rendering="crispEdges" fill="#d9d9d9" d="m661.7664 223.61285l40.194214 0l0 42.304474l-40.194214 0l0 -42.304474z" fill-rule="nonzero"/><path shape-rendering="crispEdges" fill="#d9d9d9" d="m541.1837 265.91733l40.194214 0l0 42.304443l-40.194214 0l0 -42.304443z" fill-rule="nonzero"/><path shape-rendering="crispEdges" fill="#ff9900" d="m581.3779 265.91733l40.194275 0l0 42.304443l-40.194275 0l0 -42.304443z" fill-rule="nonzero"/><path shape-rendering="crispEdges" fill="#d9d9d9" d="m621.5722 265.91733l40.194214 0l0 42.304443l-40.194214 0l0 -42.304443z" fill-rule="nonzero"/><path shape-rendering="crispEdges" fill="#d9d9d9" d="m661.7664 265.91733l40.194214 0l0 42.304443l-40.194214 0l0 -42.304443z" fill-rule="nonzero"/><path stroke="#ffffff" stroke-width="2.0" stroke-linecap="butt" d="m541.1837 91.52887l0 217.6929" fill-rule="nonzero"/><path stroke="#ffffff" stroke-width="2.0" stroke-linecap="butt" d="m581.3779 91.52887l0 217.6929" fill-rule="nonzero"/><path stroke="#ffffff" stroke-width="2.0" stroke-linecap="butt" d="m621.5722 91.52887l0 217.6929" fill-rule="nonzero"/><path stroke="#ffffff" stroke-width="2.0" stroke-linecap="butt" d="m661.7664 91.52887l0 217.6929" fill-rule="nonzero"/><path stroke="#ffffff" stroke-width="2.0" stroke-linecap="butt" d="m701.96063 91.52887l0 217.6929" fill-rule="nonzero"/><path stroke="#ffffff" stroke-width="2.0" stroke-linecap="butt" d="m540.1837 92.52887l162.77692 0" fill-rule="nonzero"/><path stroke="#ffffff" stroke-width="2.0" stroke-linecap="butt" d="m540.1837 134.83333l162.77692 0" fill-rule="nonzero"/><path stroke="#ffffff" stroke-width="2.0" stroke-linecap="butt" d="m540.1837 177.1378l162.77692 0" fill-rule="nonzero"/><path stroke="#ffffff" stroke-width="2.0" stroke-linecap="butt" d="m540.1837 223.61285l162.77692 0" fill-rule="nonzero"/><path stroke="#ffffff" stroke-width="2.0" stroke-linecap="butt" d="m540.1837 265.91733l162.77692 0" fill-rule="nonzero"/><path stroke="#ffffff" stroke-width="2.0" stroke-linecap="butt" d="m540.1837 308.22177l162.77692 0" fill-rule="nonzero"/><path shape-rendering="crispEdges" fill="#999999" d="m789.1837 92.52887l40.194214 0l0 42.30446l-40.194214 0l0 -42.30446z" fill-rule="nonzero"/><path shape-rendering="crispEdges" fill="#ff9900" d="m789.1837 134.83333l40.194214 0l0 42.304474l-40.194214 0l0 -42.304474z" fill-rule="nonzero"/><path shape-rendering="crispEdges" fill="#ff9900" d="m789.1837 177.1378l40.194214 0l0 46.47505l-40.194214 0l0 -46.47505z" fill-rule="nonzero"/><path shape-rendering="crispEdges" fill="#ff9900" d="m789.1837 223.61285l40.194214 0l0 42.304474l-40.194214 0l0 -42.304474z" fill-rule="nonzero"/><path shape-rendering="crispEdges" fill="#ff9900" d="m789.1837 265.91733l40.194214 0l0 42.304443l-40.194214 0l0 -42.304443z" fill-rule="nonzero"/><path stroke="#ffffff" stroke-width="2.0" stroke-linecap="butt" d="m789.1837 91.52887l0 217.6929" fill-rule="nonzero"/><path stroke="#ffffff" stroke-width="2.0" stroke-linecap="butt" d="m829.3779 91.52887l0 217.6929" fill-rule="nonzero"/><path stroke="#ffffff" stroke-width="2.0" stroke-linecap="butt" d="m788.1837 92.52887l42.194214 0" fill-rule="nonzero"/><path stroke="#ffffff" stroke-width="2.0" stroke-linecap="butt" d="m788.1837 134.83333l42.194214 0" fill-rule="nonzero"/><path stroke="#ffffff" stroke-width="2.0" stroke-linecap="butt" d="m788.1837 177.1378l42.194214 0" fill-rule="nonzero"/><path stroke="#ffffff" stroke-width="2.0" stroke-linecap="butt" d="m788.1837 223.61285l42.194214 0" fill-rule="nonzero"/><path stroke="#ffffff" stroke-width="2.0" stroke-linecap="butt" d="m788.1837 265.91733l42.194214 0" fill-rule="nonzero"/><path stroke="#ffffff" stroke-width="2.0" stroke-linecap="butt" d="m788.1837 308.22177l42.194214 0" fill-rule="nonzero"/><path fill="#cccccc" d="m721.1743 191.479l33.637817 0l0 -8.897644l17.795288 17.795288l-17.795288 17.795273l0 -8.897644l-33.637817 0z" fill-rule="evenodd"/><path fill="#000000" fill-opacity="0.0" d="m13.183727 14.506561l305.92126 0l0 59.338585l-305.92126 0z" fill-rule="evenodd"/><path fill="#434343" d="m27.808727 52.460938l0 5.25l1.921875 0q1.15625 0 1.640625 0.4375q0.5 0.453125 0.5 1.171875q0 0.703125 -0.5 1.140625q-0.484375 0.453125 -1.640625 0.453125l-5.671875 0q-1.15625 0 -1.65625 -0.453125q-0.484375 -0.4375 -0.484375 -1.140625q0 -0.71875 0.5 -1.171875q0.5 -0.4375 1.640625 -0.4375l0.546875 0l0 -14.46875l-0.546875 0q-1.15625 0 -1.65625 -0.4375q-0.484375 -0.453125 -0.484375 -1.171875q0 -0.703125 0.484375 -1.140625q0.5 -0.453125 1.65625 -0.453125l3.75 0l0 1.09375q1.125 -0.765625 2.328125 -1.140625q1.203125 -0.375 2.46875 -0.375q3.28125 0 5.59375 2.234375q2.3125 2.21875 2.3125 5.09375q0 3.171875 -2.734375 5.234375q-2.28125 1.71875 -5.140625 1.71875q-1.234375 0 -2.4375 -0.359375q-1.203125 -0.359375 -2.390625 -1.078125zm9.5 -5.5q0 -0.671875 -0.53125 -1.703125q-0.53125 -1.046875 -1.640625 -1.734375q-1.09375 -0.703125 -2.578125 -0.703125q-2.390625 0 -3.796875 1.796875q-0.953125 1.234375 -0.953125 2.375q0 1.28125 1.359375 2.5q1.375 1.203125 3.390625 1.203125q2.03125 0 3.390625 -1.203125q1.359375 -1.203125 1.359375 -2.53125zm20.484375 -6.921875l0 10.984375q1.015625 0 1.5 0.453125q0.484375 0.453125 0.484375 1.15625q0 0.703125 -0.5 1.15625q-0.484375 0.4375 -1.640625 0.4375l-3.046875 0l0 -0.734375q-1.375 0.625 -2.625 0.9375q-1.25 0.3125 -2.375 0.3125q-1.578125 0 -2.734375 -0.65625q-1.15625 -0.671875 -1.828125 -1.84375q-0.484375 -0.84375 -0.484375 -2.109375l0 -6.890625l-0.546875 0q-1.15625 0 -1.65625 -0.4375q-0.484375 -0.453125 -0.484375 -1.171875q0 -0.703125 0.484375 -1.140625q0.5 -0.453125 1.65625 -0.453125l3.75 0l0 9.53125q0 1.015625 0.484375 1.5q0.5 0.46875 1.515625 0.46875q0.96875 0 2.078125 -0.375q1.125 -0.390625 2.765625 -1.390625l0 -6.53125l-1.15625 0q-1.15625 0 -1.65625 -0.4375q-0.484375 -0.453125 -0.484375 -1.171875q0 -0.703125 0.484375 -1.140625q0.5 -0.453125 1.65625 -0.453125l4.359375 0zm13.999996 -6.078125l0 17.0625l3.84375 0q1.15625 0 1.640625 0.453125q0.5 0.4375 0.5 1.15625q0 0.703125 -0.5 1.15625q-0.484375 0.4375 -1.640625 0.4375l-10.890625 0q-1.1562462 0 -1.6562462 -0.4375q-0.484375 -0.453125 -0.484375 -1.171875q0 -0.703125 0.484375 -1.140625q0.5 -0.453125 1.6562462 -0.453125l3.84375 0l0 -13.859375l-2.578125 0q-1.140625 0 -1.640625 -0.4375q-0.4999962 -0.453125 -0.4999962 -1.171875q0 -0.703125 0.4843712 -1.140625q0.5 -0.453125 1.65625 -0.453125l5.78125 0zm19.203125 0l0 17.0625l3.84375 0q1.15625 0 1.640625 0.453125q0.5 0.4375 0.5 1.15625q0 0.703125 -0.5 1.15625q-0.484375 0.4375 -1.640625 0.4375l-10.890625 0q-1.15625 0 -1.65625 -0.4375q-0.484375 -0.453125 -0.484375 -1.171875q0 -0.703125 0.484375 -1.140625q0.5 -0.453125 1.65625 -0.453125l3.84375 0l0 -13.859375l-2.578125 0q-1.140625 0 -1.640625 -0.4375q-0.5 -0.453125 -0.5 -1.171875q0 -0.703125 0.484375 -1.140625q0.5 -0.453125 1.65625 -0.453125l5.78125 0zm16.453125 12.484375q0 -2.734375 0.90625 -5.53125q0.671875 -2.0625 2.078125 -4.59375q1.015625 -1.8125 1.5 -2.21875q0.484375 -0.421875 1.078125 -0.421875q0.6875 0 1.15625 0.46875q0.46875 0.46875 0.46875 1.125q0 0.453125 -0.375 1.078125q-1.6875 2.765625 -2.46875 5.1875q-0.765625 2.421875 -0.765625 4.90625q0 2.5 0.765625 4.921875q0.78125 2.421875 2.46875 5.1875q0.375 0.609375 0.375 1.078125q0 0.65625 -0.46875 1.125q-0.46875 0.46875 -1.15625 0.46875q-0.578125 0 -1.015625 -0.375q-0.625 -0.546875 -1.65625 -2.453125q-1.484375 -2.765625 -2.03125 -4.5625q-0.859375 -2.75 -0.859375 -5.390625zm27.703133 -12.484375l0 17.0625l0.546875 0q1.140625 0 1.640625 0.453125q0.5 0.4375 0.5 1.15625q0 0.703125 -0.5 1.15625q-0.484375 0.4375 -1.640625 0.4375l-3.75 0l0 -0.78125q-1.09375 0.640625 -2.296875 0.96875q-1.1875 0.328125 -2.4687576 0.328125q-3.609375 0 -5.8125 -2.078125q-2.203125 -2.09375 -2.203125 -5.203125q0 -3.25 2.3125 -5.546875q2.3125 -2.296875 5.640625 -2.296875q1.2500076 0 2.4531326 0.390625q1.203125 0.375 2.375 1.140625l0 -3.984375l-0.546875 0q-1.15625 0 -1.65625 -0.4375q-0.484375 -0.453125 -0.484375 -1.15625q0 -0.71875 0.484375 -1.15625q0.5 -0.453125 1.65625 -0.453125l3.75 0zm-3.203125 13.59375q0 -1.984375 -1.390625 -3.359375q-1.390625 -1.375 -3.4062576 -1.375q-2.0 0 -3.390625 1.375q-1.390625 1.375 -1.390625 3.3125q0 1.765625 1.25 2.90625q1.25 1.125 3.53125 1.125q2.2656326 0 3.5312576 -1.125q1.265625 -1.140625 1.265625 -2.859375zm17.9375 6.671875l0 -0.75q-1.203125 0.640625 -2.65625 0.953125q-1.453125 0.328125 -2.640625 0.328125q-2.578125 0 -4.1875 -1.359375q-1.609375 -1.375 -1.609375 -3.03125q0 -2.015625 2.046875 -3.734375q2.0625 -1.734375 5.6875 -1.734375q1.453125 0 3.359375 0.3125l0 -0.765625q0 -0.71875 -0.625 -1.171875q-0.609375 -0.453125 -2.34375 -0.453125q-1.421875 0 -3.6875 0.5625q-0.84375 0.203125 -1.3125 0.203125q-0.640625 0 -1.09375 -0.453125q-0.4375 -0.46875 -0.4375 -1.1875q0 -0.40625 0.15625 -0.703125q0.15625 -0.296875 0.4375 -0.46875q0.28125 -0.1875 1.171875 -0.4375q1.1875 -0.328125 2.421875 -0.515625q1.234375 -0.203125 2.234375 -0.203125q2.984375 0 4.625 1.296875q1.65625 1.28125 1.65625 3.515625l0 6.59375l0.546875 0q1.15625 0 1.640625 0.453125q0.5 0.4375 0.5 1.15625q0 0.703125 -0.5 1.15625q-0.484375 0.4375 -1.640625 0.4375l-3.75 0zm0 -5.734375q-1.921875 -0.375 -3.546875 -0.375q-1.953125 0 -3.359375 0.953125q-0.875 0.609375 -0.875 1.234375q0 0.453125 0.421875 0.734375q0.78125 0.515625 2.140625 0.515625q1.15625 0 2.609375 -0.453125q1.46875 -0.453125 2.609375 -1.234375l0 -1.375zm15.53125 -5.25l0 6.421875q0 1.03125 0.421875 1.359375q0.65625 0.515625 2.34375 0.515625q2.453125 0 4.53125 -1.046875q0.796875 -0.40625 1.25 -0.40625q0.625 0 1.078125 0.46875q0.46875 0.46875 0.46875 1.140625q0 0.625 -0.5 1.078125q-0.765625 0.734375 -3.03125 1.359375q-2.25 0.609375 -3.796875 0.609375q-2.984375 0 -4.484375 -1.28125q-1.484375 -1.296875 -1.484375 -3.171875l0 -7.046875l-1.15625 0q-1.15625 0 -1.65625 -0.4375q-0.484375 -0.453125 -0.484375 -1.171875q0 -0.703125 0.484375 -1.140625q0.5 -0.453125 1.65625 -0.453125l1.15625 0l0 -2.890625q0 -1.15625 0.4375 -1.640625q0.453125 -0.5 1.171875 -0.5q0.703125 0 1.140625 0.5q0.453125 0.484375 0.453125 1.640625l0 2.890625l5.921875 0q1.15625 0 1.640625 0.453125q0.5 0.4375 0.5 1.15625q0 0.703125 -0.5 1.15625q-0.484375 0.4375 -1.640625 0.4375l-5.921875 0zm19.234375 6.671875l4.28125 0l-4.609375 8.6875q-0.40625 0.765625 -1.015625 0.765625q-0.40625 0 -0.703125 -0.265625q-0.28125 -0.265625 -0.28125 -0.59375q0 -0.234375 0.109375 -0.640625l2.21875 -7.953125zm39.1875 0.421875l3.453125 -7.09375q-1.28125 0 -1.640625 -0.21875q-0.78125 -0.484375 -0.78125 -1.390625q0 -0.703125 0.484375 -1.140625q0.5 -0.453125 1.65625 -0.453125l4.390625 0q1.15625 0 1.640625 0.453125q0.5 0.4375 0.5 1.15625q0 0.703125 -0.5 1.15625q-0.484375 0.4375 -1.640625 0.4375l-0.53125 0l-5.359375 10.984375l-3.34375 0l-5.359375 -10.984375l-0.453125 0q-1.15625 0 -1.65625 -0.4375q-0.484375 -0.453125 -0.484375 -1.171875q0 -0.703125 0.484375 -1.140625q0.5 -0.453125 1.65625 -0.453125l4.296875 0q1.140625 0 1.625 0.453125q0.5 0.4375 0.5 1.15625q0 0.890625 -0.75 1.359375q-0.375 0.234375 -1.671875 0.234375l3.484375 7.09375zm22.0625 3.890625l0 -0.75q-1.203125 0.640625 -2.65625 0.953125q-1.453125 0.328125 -2.640625 0.328125q-2.578125 0 -4.1875 -1.359375q-1.609375 -1.375 -1.609375 -3.03125q0 -2.015625 2.046875 -3.734375q2.0625 -1.734375 5.6875 -1.734375q1.453125 0 3.359375 0.3125l0 -0.765625q0 -0.71875 -0.625 -1.171875q-0.609375 -0.453125 -2.34375 -0.453125q-1.421875 0 -3.6875 0.5625q-0.84375 0.203125 -1.3125 0.203125q-0.640625 0 -1.09375 -0.453125q-0.4375 -0.46875 -0.4375 -1.1875q0 -0.40625 0.15625 -0.703125q0.15625 -0.296875 0.4375 -0.46875q0.28125 -0.1875 1.171875 -0.4375q1.1875 -0.328125 2.421875 -0.515625q1.234375 -0.203125 2.234375 -0.203125q2.984375 0 4.625 1.296875q1.65625 1.28125 1.65625 3.515625l0 6.59375l0.546875 0q1.15625 0 1.640625 0.453125q0.5 0.4375 0.5 1.15625q0 0.703125 -0.5 1.15625q-0.484375 0.4375 -1.640625 0.4375l-3.75 0zm0 -5.734375q-1.921875 -0.375 -3.546875 -0.375q-1.953125 0 -3.359375 0.953125q-0.875 0.609375 -0.875 1.234375q0 0.453125 0.421875 0.734375q0.78125 0.515625 2.140625 0.515625q1.15625 0 2.609375 -0.453125q1.46875 -0.453125 2.609375 -1.234375l0 -1.375zm15.656235 -8.453125l0 2.0q2.015625 -1.453125 3.171875 -1.9375q1.171875 -0.484375 2.1875 -0.484375q1.5625 0 3.03125 1.15625q1.0 0.78125 1.0 1.59375q0 0.6875 -0.484375 1.171875q-0.46875 0.46875 -1.140625 0.46875q-0.59375 0 -1.25 -0.59375q-0.65625 -0.59375 -1.171875 -0.59375q-0.671875 0 -2.015625 0.84375q-1.328125 0.84375 -3.328125 2.53125l0 4.828125l4.5625 0q1.15625 0 1.640625 0.453125q0.5 0.4375 0.5 1.15625q0 0.703125 -0.5 1.15625q-0.484375 0.4375 -1.640625 0.4375l-9.671875 0q-1.1562347 0 -1.6562347 -0.4375q-0.484375 -0.453125 -0.484375 -1.171875q0 -0.703125 0.484375 -1.140625q0.5 -0.453125 1.6562347 -0.453125l1.90625 0l0 -7.78125l-1.15625 0q-1.15625 0 -1.6562347 -0.4375q-0.484375 -0.453125 -0.484375 -1.171875q0 -0.703125 0.484375 -1.140625q0.49998474 -0.453125 1.6562347 -0.453125l4.359375 0zm21.234375 6.40625q0 2.734375 -0.90625 5.546875q-0.671875 2.0625 -2.078125 4.578125q-1.015625 1.8125 -1.5 2.234375q-0.484375 0.421875 -1.078125 0.421875q-0.6875 0 -1.15625 -0.46875q-0.46875 -0.46875 -0.46875 -1.125q0 -0.46875 0.375 -1.078125q1.6875 -2.765625 2.453125 -5.1875q0.78125 -2.421875 0.78125 -4.921875q0 -2.484375 -0.78125 -4.90625q-0.765625 -2.421875 -2.453125 -5.1875q-0.375 -0.625 -0.375 -1.078125q0 -0.65625 0.46875 -1.125q0.46875 -0.46875 1.15625 -0.46875q0.578125 0 1.015625 0.375q0.625 0.53125 1.65625 2.453125q1.484375 2.765625 2.03125 4.546875q0.859375 2.765625 0.859375 5.390625z" fill-rule="nonzero"/><path fill="#000000" fill-opacity="0.0" d="m533.1837 14.506561l354.6772 0l0 59.338585l-354.6772 0z" fill-rule="evenodd"/><path fill="#434343" d="m555.2462 43.789062q-0.78125 -0.484375 -1.640625 -0.71875q-0.859375 -0.25 -1.796875 -0.25q-1.859375 0 -2.953125 0.609375q-0.484375 0.265625 -0.484375 0.578125q0 0.359375 0.65625 0.703125q0.5 0.25 2.234375 0.484375q3.1875 0.4375 4.4375 0.875q1.640625 0.578125 2.53125 1.71875q0.890625 1.140625 0.890625 2.40625q0 1.71875 -1.515625 2.875q-2.171875 1.671875 -5.640625 1.671875q-1.390625 0 -2.578125 -0.25q-1.171875 -0.234375 -2.15625 -0.703125q-0.234375 0.203125 -0.5 0.3125q-0.265625 0.109375 -0.546875 0.109375q-0.75 0 -1.203125 -0.484375q-0.4375 -0.5 -0.4375 -1.65625l0 -1.078125q0 -1.15625 0.4375 -1.640625q0.453125 -0.5 1.171875 -0.5q0.578125 0 0.96875 0.328125q0.390625 0.3125 0.609375 1.09375q0.734375 0.625 1.765625 0.953125q1.03125 0.3125 2.375 0.3125q2.203125 0 3.421875 -0.6875q0.578125 -0.34375 0.578125 -0.71875q0 -0.625 -0.828125 -1.03125q-0.828125 -0.40625 -3.421875 -0.6875q-3.859375 -0.40625 -5.15625 -1.5625q-1.296875 -1.140625 -1.296875 -2.8125q0 -1.71875 1.453125 -2.859375q1.96875 -1.5625 5.15625 -1.5625q1.109375 0 2.125 0.21875q1.03125 0.203125 1.96875 0.640625q0.296875 -0.21875 0.546875 -0.328125q0.265625 -0.109375 0.484375 -0.109375q0.65625 0 1.09375 0.5q0.4375 0.484375 0.4375 1.640625l0 0.78125q0 1.046875 -0.25 1.421875q-0.5 0.71875 -1.359375 0.71875q-0.578125 0 -1.015625 -0.359375q-0.4375 -0.359375 -0.5625 -0.953125zm23.78125 4.96875l-13.140625 0q0.5 1.25 1.765625 2.015625q1.28125 0.765625 3.453125 0.765625q1.78125 0 4.734375 -0.765625q1.21875 -0.3125 1.6875 -0.3125q0.640625 0 1.078125 0.453125q0.4375 0.453125 0.4375 1.140625q0 0.625 -0.46875 1.0625q-0.625 0.578125 -3.046875 1.109375q-2.421875 0.515625 -4.65625 0.515625q-3.84375 0 -6.15625 -2.171875q-2.296875 -2.171875 -2.296875 -5.34375q0 -3.375 2.484375 -5.484375q2.5 -2.125 5.75 -2.125q1.953125 0 3.578125 0.6875q1.640625 0.6875 2.4375 1.484375q1.125 1.15625 1.859375 2.859375q0.5 1.1875 0.5 2.75l0 1.359375zm-3.546875 -3.203125q-0.734375 -1.375 -1.921875 -2.046875q-1.1875 -0.6875 -2.828125 -0.6875q-1.625 0 -2.8125 0.6875q-1.1875 0.671875 -1.9375 2.046875l9.5 0zm16.3125 -11.59375l0 17.0625l3.84375 0q1.15625 0 1.640625 0.453125q0.5 0.4375 0.5 1.15625q0 0.703125 -0.5 1.15625q-0.484375 0.4375 -1.640625 0.4375l-10.890625 0q-1.15625 0 -1.65625 -0.4375q-0.484375 -0.453125 -0.484375 -1.171875q0 -0.703125 0.484375 -1.140625q0.5 -0.453125 1.65625 -0.453125l3.84375 0l0 -13.859375l-2.578125 0q-1.140625 0 -1.640625 -0.4375q-0.5 -0.453125 -0.5 -1.171875q0 -0.703125 0.484375 -1.140625q0.5 -0.453125 1.65625 -0.453125l5.78125 0zm25.640625 14.796875l-13.140625 0q0.5 1.25 1.765625 2.015625q1.28125 0.765625 3.453125 0.765625q1.78125 0 4.734375 -0.765625q1.21875 -0.3125 1.6875 -0.3125q0.640625 0 1.078125 0.453125q0.4375 0.453125 0.4375 1.140625q0 0.625 -0.46875 1.0625q-0.625 0.578125 -3.046875 1.109375q-2.421875 0.515625 -4.65625 0.515625q-3.84375 0 -6.15625 -2.171875q-2.296875 -2.171875 -2.296875 -5.34375q0 -3.375 2.484375 -5.484375q2.5 -2.125 5.75 -2.125q1.953125 0 3.578125 0.6875q1.640625 0.6875 2.4375 1.484375q1.125 1.15625 1.859375 2.859375q0.5 1.1875 0.5 2.75l0 1.359375zm-3.546875 -3.203125q-0.734375 -1.375 -1.921875 -2.046875q-1.1875 -0.6875 -2.828125 -0.6875q-1.625 0 -2.8125 0.6875q-1.1875 0.671875 -1.9375 2.046875l9.5 0zm19.703125 -4.9375q0.578125 -0.546875 1.1875 -0.546875q0.6875 0 1.125 0.5q0.453125 0.484375 0.453125 1.625l0 2.0625q0 1.15625 -0.453125 1.640625q-0.4375 0.484375 -1.15625 0.484375q-0.65625 0 -1.109375 -0.375q-0.328125 -0.28125 -0.515625 -1.140625q-0.1875 -0.875 -0.90625 -1.296875q-1.265625 -0.75 -3.234375 -0.75q-2.265625 0 -3.640625 1.328125q-1.359375 1.328125 -1.359375 3.359375q0 1.875 1.3125 2.96875q1.3125 1.078125 4.359375 1.078125q2.0 0 3.265625 -0.40625q0.75 -0.25 1.421875 -0.84375q0.671875 -0.609375 1.21875 -0.609375q0.65625 0 1.125 0.484375q0.484375 0.484375 0.484375 1.140625q0 1.0625 -1.453125 2.015625q-2.15625 1.421875 -6.3125 1.421875q-3.734375 0 -5.8125 -1.546875q-2.8125 -2.078125 -2.8125 -5.6875q0 -3.421875 2.28125 -5.65625q2.28125 -2.25 5.953125 -2.25q1.328125 0 2.46875 0.25q1.140625 0.25 2.109375 0.75zm13.421875 2.625l0 6.421875q0 1.03125 0.421875 1.359375q0.65625 0.515625 2.34375 0.515625q2.453125 0 4.53125 -1.046875q0.796875 -0.40625 1.25 -0.40625q0.625 0 1.078125 0.46875q0.46875 0.46875 0.46875 1.140625q0 0.625 -0.5 1.078125q-0.765625 0.734375 -3.03125 1.359375q-2.25 0.609375 -3.796875 0.609375q-2.984375 0 -4.484375 -1.28125q-1.484375 -1.296875 -1.484375 -3.171875l0 -7.046875l-1.15625 0q-1.15625 0 -1.65625 -0.4375q-0.484375 -0.453125 -0.484375 -1.171875q0 -0.703125 0.484375 -1.140625q0.5 -0.453125 1.65625 -0.453125l1.15625 0l0 -2.890625q0 -1.15625 0.4375 -1.640625q0.453125 -0.5 1.171875 -0.5q0.703125 0 1.140625 0.5q0.453125 0.484375 0.453125 1.640625l0 2.890625l5.921875 0q1.15625 0 1.640625 0.453125q0.5 0.4375 0.5 1.15625q0 0.703125 -0.5 1.15625q-0.484375 0.4375 -1.640625 0.4375l-5.921875 0zm18.84375 3.203125q0 -2.734375 0.90625 -5.53125q0.671875 -2.0625 2.078125 -4.59375q1.015625 -1.8125 1.5 -2.21875q0.484375 -0.421875 1.078125 -0.421875q0.6875 0 1.15625 0.46875q0.46875 0.46875 0.46875 1.125q0 0.453125 -0.375 1.078125q-1.6875 2.765625 -2.46875 5.1875q-0.765625 2.421875 -0.765625 4.90625q0 2.5 0.765625 4.921875q0.78125 2.421875 2.46875 5.1875q0.375 0.609375 0.375 1.078125q0 0.65625 -0.46875 1.125q-0.46875 0.46875 -1.15625 0.46875q-0.578125 0 -1.015625 -0.375q-0.625 -0.546875 -1.65625 -2.453125q-1.484375 -2.765625 -2.03125 -4.5625q-0.859375 -2.75 -0.859375 -5.390625zm27.703125 -12.484375l0 17.0625l0.546875 0q1.140625 0 1.640625 0.453125q0.5 0.4375 0.5 1.15625q0 0.703125 -0.5 1.15625q-0.484375 0.4375 -1.640625 0.4375l-3.75 0l0 -0.78125q-1.09375 0.640625 -2.296875 0.96875q-1.1875 0.328125 -2.46875 0.328125q-3.609375 0 -5.8125 -2.078125q-2.203125 -2.09375 -2.203125 -5.203125q0 -3.25 2.3125 -5.546875q2.3125 -2.296875 5.640625 -2.296875q1.25 0 2.453125 0.390625q1.203125 0.375 2.375 1.140625l0 -3.984375l-0.546875 0q-1.15625 0 -1.65625 -0.4375q-0.484375 -0.453125 -0.484375 -1.15625q0 -0.71875 0.484375 -1.15625q0.5 -0.453125 1.65625 -0.453125l3.75 0zm-3.203125 13.59375q0 -1.984375 -1.390625 -3.359375q-1.390625 -1.375 -3.40625 -1.375q-2.0 0 -3.390625 1.375q-1.390625 1.375 -1.390625 3.3125q0 1.765625 1.25 2.90625q1.25 1.125 3.53125 1.125q2.265625 0 3.53125 -1.125q1.265625 -1.140625 1.265625 -2.859375zm17.9375 6.671875l0 -0.75q-1.203125 0.640625 -2.65625 0.953125q-1.453125 0.328125 -2.640625 0.328125q-2.578125 0 -4.1875 -1.359375q-1.609375 -1.375 -1.609375 -3.03125q0 -2.015625 2.046875 -3.734375q2.0625 -1.734375 5.6875 -1.734375q1.453125 0 3.359375 0.3125l0 -0.765625q0 -0.71875 -0.625 -1.171875q-0.609375 -0.453125 -2.34375 -0.453125q-1.421875 0 -3.6875 0.5625q-0.84375 0.203125 -1.3125 0.203125q-0.640625 0 -1.09375 -0.453125q-0.4375 -0.46875 -0.4375 -1.1875q0 -0.40625 0.15625 -0.703125q0.15625 -0.296875 0.4375 -0.46875q0.28125 -0.1875 1.171875 -0.4375q1.1875 -0.328125 2.421875 -0.515625q1.234375 -0.203125 2.234375 -0.203125q2.984375 0 4.625 1.296875q1.65625 1.28125 1.65625 3.515625l0 6.59375l0.546875 0q1.15625 0 1.640625 0.453125q0.5 0.4375 0.5 1.15625q0 0.703125 -0.5 1.15625q-0.484375 0.4375 -1.640625 0.4375l-3.75 0zm0 -5.734375q-1.921875 -0.375 -3.546875 -0.375q-1.953125 0 -3.359375 0.953125q-0.875 0.609375 -0.875 1.234375q0 0.453125 0.421875 0.734375q0.78125 0.515625 2.140625 0.515625q1.15625 0 2.609375 -0.453125q1.46875 -0.453125 2.609375 -1.234375l0 -1.375zm15.53125 -5.25l0 6.421875q0 1.03125 0.421875 1.359375q0.65625 0.515625 2.34375 0.515625q2.453125 0 4.53125 -1.046875q0.796875 -0.40625 1.25 -0.40625q0.625 0 1.078125 0.46875q0.46875 0.46875 0.46875 1.140625q0 0.625 -0.5 1.078125q-0.765625 0.734375 -3.03125 1.359375q-2.25 0.609375 -3.796875 0.609375q-2.984375 0 -4.484375 -1.28125q-1.484375 -1.296875 -1.484375 -3.171875l0 -7.046875l-1.15625 0q-1.15625 0 -1.65625 -0.4375q-0.484375 -0.453125 -0.484375 -1.171875q0 -0.703125 0.484375 -1.140625q0.5 -0.453125 1.65625 -0.453125l1.15625 0l0 -2.890625q0 -1.15625 0.4375 -1.640625q0.453125 -0.5 1.171875 -0.5q0.703125 0 1.140625 0.5q0.453125 0.484375 0.453125 1.640625l0 2.890625l5.921875 0q1.15625 0 1.640625 0.453125q0.5 0.4375 0.5 1.15625q0 0.703125 -0.5 1.15625q-0.484375 0.4375 -1.640625 0.4375l-5.921875 0zm19.234375 6.671875l4.28125 0l-4.609375 8.6875q-0.40625 0.765625 -1.015625 0.765625q-0.40625 0 -0.703125 -0.265625q-0.28125 -0.265625 -0.28125 -0.59375q0 -0.234375 0.109375 -0.640625l2.21875 -7.953125zm39.1875 0.421875l3.453125 -7.09375q-1.28125 0 -1.640625 -0.21875q-0.78125 -0.484375 -0.78125 -1.390625q0 -0.703125 0.484375 -1.140625q0.5 -0.453125 1.65625 -0.453125l4.390625 0q1.15625 0 1.640625 0.453125q0.5 0.4375 0.5 1.15625q0 0.703125 -0.5 1.15625q-0.484375 0.4375 -1.640625 0.4375l-0.53125 0l-5.359375 10.984375l-3.34375 0l-5.359375 -10.984375l-0.453125 0q-1.15625 0 -1.65625 -0.4375q-0.484375 -0.453125 -0.484375 -1.171875q0 -0.703125 0.484375 -1.140625q0.5 -0.453125 1.65625 -0.453125l4.296875 0q1.140625 0 1.625 0.453125q0.5 0.4375 0.5 1.15625q0 0.890625 -0.75 1.359375q-0.375 0.234375 -1.671875 0.234375l3.484375 7.09375zm22.0625 3.890625l0 -0.75q-1.203125 0.640625 -2.65625 0.953125q-1.453125 0.328125 -2.640625 0.328125q-2.578125 0 -4.1875 -1.359375q-1.609375 -1.375 -1.609375 -3.03125q0 -2.015625 2.046875 -3.734375q2.0625 -1.734375 5.6875 -1.734375q1.453125 0 3.359375 0.3125l0 -0.765625q0 -0.71875 -0.625 -1.171875q-0.609375 -0.453125 -2.34375 -0.453125q-1.421875 0 -3.6875 0.5625q-0.84375 0.203125 -1.3125 0.203125q-0.640625 0 -1.09375 -0.453125q-0.4375 -0.46875 -0.4375 -1.1875q0 -0.40625 0.15625 -0.703125q0.15625 -0.296875 0.4375 -0.46875q0.28125 -0.1875 1.171875 -0.4375q1.1875 -0.328125 2.421875 -0.515625q1.234375 -0.203125 2.234375 -0.203125q2.984375 0 4.625 1.296875q1.65625 1.28125 1.65625 3.515625l0 6.59375l0.546875 0q1.15625 0 1.640625 0.453125q0.5 0.4375 0.5 1.15625q0 0.703125 -0.5 1.15625q-0.484375 0.4375 -1.640625 0.4375l-3.75 0zm0 -5.734375q-1.921875 -0.375 -3.546875 -0.375q-1.953125 0 -3.359375 0.953125q-0.875 0.609375 -0.875 1.234375q0 0.453125 0.421875 0.734375q0.78125 0.515625 2.140625 0.515625q1.15625 0 2.609375 -0.453125q1.46875 -0.453125 2.609375 -1.234375l0 -1.375zm15.65625 -8.453125l0 2.0q2.015625 -1.453125 3.171875 -1.9375q1.171875 -0.484375 2.1875 -0.484375q1.5625 0 3.03125 1.15625q1.0 0.78125 1.0 1.59375q0 0.6875 -0.484375 1.171875q-0.46875 0.46875 -1.140625 0.46875q-0.59375 0 -1.25 -0.59375q-0.65625 -0.59375 -1.171875 -0.59375q-0.671875 0 -2.015625 0.84375q-1.328125 0.84375 -3.328125 2.53125l0 4.828125l4.5625 0q1.15625 0 1.640625 0.453125q0.5 0.4375 0.5 1.15625q0 0.703125 -0.5 1.15625q-0.484375 0.4375 -1.640625 0.4375l-9.671875 0q-1.15625 0 -1.65625 -0.4375q-0.484375 -0.453125 -0.484375 -1.171875q0 -0.703125 0.484375 -1.140625q0.5 -0.453125 1.65625 -0.453125l1.90625 0l0 -7.78125l-1.15625 0q-1.15625 0 -1.65625 -0.4375q-0.484375 -0.453125 -0.484375 -1.171875q0 -0.703125 0.484375 -1.140625q0.5 -0.453125 1.65625 -0.453125l4.359375 0zm21.234375 6.40625q0 2.734375 -0.90625 5.546875q-0.671875 2.0625 -2.078125 4.578125q-1.015625 1.8125 -1.5 2.234375q-0.484375 0.421875 -1.078125 0.421875q-0.6875 0 -1.15625 -0.46875q-0.46875 -0.46875 -0.46875 -1.125q0 -0.46875 0.375 -1.078125q1.6875 -2.765625 2.453125 -5.1875q0.78125 -2.421875 0.78125 -4.921875q0 -2.484375 -0.78125 -4.90625q-0.765625 -2.421875 -2.453125 -5.1875q-0.375 -0.625 -0.375 -1.078125q0 -0.65625 0.46875 -1.125q0.46875 -0.46875 1.15625 -0.46875q0.578125 0 1.015625 0.375q0.625 0.53125 1.65625 2.453125q1.484375 2.765625 2.03125 4.546875q0.859375 2.765625 0.859375 5.390625z" fill-rule="nonzero"/><path fill="#000000" fill-opacity="0.0" d="m21.183727 326.90814l362.20474 0l0 59.338562l-362.20474 0z" fill-rule="evenodd"/><path fill="#000000" d="m32.293102 361.50815l0 -19.078125l13.796875 0l0 2.25l-11.265625 0l0 5.84375l10.546875 0l0 2.234375l-10.546875 0l0 6.5l11.703125 0l0 2.25l-14.234375 0zm15.8576355 0l5.0625 -7.1875l-4.671875 -6.640625l2.921875 0l2.125 3.25q0.59375 0.921875 0.96875 1.546875q0.5625 -0.859375 1.046875 -1.53125l2.328125 -3.265625l2.796875 0l-4.78125 6.515625l5.15625 7.3125l-2.890625 0l-2.828125 -4.296875l-0.75 -1.15625l-3.640625 5.453125l-2.84375 0zm20.015621 -2.09375l0.328125 2.0625q-0.984375 0.21875 -1.765625 0.21875q-1.265625 0 -1.96875 -0.40625q-0.703125 -0.40625 -0.9999962 -1.0625q-0.28125 -0.65625 -0.28125 -2.765625l0 -7.953125l-1.71875 0l0 -1.828125l1.71875 0l0 -3.421875l2.3281212 -1.40625l0 4.828125l2.359375 0l0 1.828125l-2.359375 0l0 8.078125q0 1.0 0.125 1.296875q0.125 0.28125 0.40625 0.453125q0.28125 0.171875 0.796875 0.171875q0.390625 0 1.03125 -0.09375zm2.265335 2.09375l0 -13.828125l2.109375 0l0 2.09375q0.796875 -1.46875 1.484375 -1.9375q0.6875 -0.46875 1.5 -0.46875q1.1875 0 2.40625 0.765625l-0.796875 2.171875q-0.859375 -0.515625 -1.71875 -0.515625q-0.765625 0 -1.390625 0.46875q-0.609375 0.453125 -0.859375 1.28125q-0.390625 1.25 -0.390625 2.734375l0 7.234375l-2.34375 0zm17.923615 -1.703125q-1.3125 1.109375 -2.515625 1.5625q-1.203125 0.453125 -2.578125 0.453125q-2.28125 0 -3.5 -1.109375q-1.21875 -1.109375 -1.21875 -2.84375q0 -1.015625 0.453125 -1.859375q0.46875 -0.84375 1.21875 -1.34375q0.75 -0.515625 1.6875 -0.765625q0.6875 -0.1875 2.078125 -0.359375q2.828125 -0.328125 4.171875 -0.796875q0.015625 -0.484375 0.015625 -0.625q0 -1.421875 -0.65625 -2.015625q-0.90625 -0.796875 -2.671875 -0.796875q-1.65625 0 -2.453125 0.59375q-0.78125 0.578125 -1.15625 2.046875l-2.296875 -0.3125q0.3125 -1.46875 1.03125 -2.375q0.71875 -0.90625 2.0625 -1.390625q1.359375 -0.5 3.140625 -0.5q1.78125 0 2.875 0.421875q1.109375 0.421875 1.625 1.046875q0.53125 0.625 0.734375 1.59375q0.125 0.59375 0.125 2.15625l0 3.125q0 3.265625 0.140625 4.140625q0.15625 0.859375 0.59375 1.65625l-2.4375 0q-0.375 -0.734375 -0.46875 -1.703125zm-0.203125 -5.234375q-1.265625 0.515625 -3.828125 0.890625q-1.4375 0.203125 -2.046875 0.46875q-0.59375 0.25 -0.921875 0.75q-0.3125 0.5 -0.3125 1.125q0 0.9375 0.703125 1.5625q0.703125 0.625 2.078125 0.625q1.34375 0 2.390625 -0.59375q1.0625 -0.59375 1.5625 -1.625q0.375 -0.796875 0.375 -2.34375l0 -0.859375zm15.028061 1.875l2.296875 0.296875q-0.375 2.390625 -1.9375 3.734375q-1.546875 1.34375 -3.8125 1.34375q-2.84375 0 -4.5625 -1.84375q-1.71875 -1.859375 -1.71875 -5.328125q0 -2.234375 0.734375 -3.90625q0.75 -1.6875 2.265625 -2.53125q1.515625 -0.84375 3.296875 -0.84375q2.25 0 3.671875 1.140625q1.4375 1.140625 1.84375 3.234375l-2.28125 0.359375q-0.328125 -1.390625 -1.15625 -2.09375q-0.8125 -0.703125 -1.984375 -0.703125q-1.78125 0 -2.890625 1.265625q-1.09375 1.265625 -1.09375 4.015625q0 2.78125 1.0625 4.046875q1.0625 1.265625 2.78125 1.265625q1.390625 0 2.3125 -0.84375q0.921875 -0.859375 1.171875 -2.609375zm9.421875 2.96875l0.328125 2.0625q-0.984375 0.21875 -1.765625 0.21875q-1.265625 0 -1.96875 -0.40625q-0.703125 -0.40625 -1.0 -1.0625q-0.28125 -0.65625 -0.28125 -2.765625l0 -7.953125l-1.71875 0l0 -1.828125l1.71875 0l0 -3.421875l2.328125 -1.40625l0 4.828125l2.359375 0l0 1.828125l-2.359375 0l0 8.078125q0 1.0 0.125 1.296875q0.125 0.28125 0.40625 0.453125q0.28125 0.171875 0.796875 0.171875q0.390625 0 1.03125 -0.09375zm18.718178 -2.96875l2.296875 0.296875q-0.375 2.390625 -1.9375 3.734375q-1.546875 1.34375 -3.8125076 1.34375q-2.84375 0 -4.5625 -1.84375q-1.71875 -1.859375 -1.71875 -5.328125q0 -2.234375 0.734375 -3.90625q0.75 -1.6875 2.265625 -2.53125q1.515625 -0.84375 3.296875 -0.84375q2.2500076 0 3.6718826 1.140625q1.4375 1.140625 1.84375 3.234375l-2.28125 0.359375q-0.328125 -1.390625 -1.15625 -2.09375q-0.8125 -0.703125 -1.9843826 -0.703125q-1.78125 0 -2.890625 1.265625q-1.09375 1.265625 -1.09375 4.015625q0 2.78125 1.0625 4.046875q1.0625 1.265625 2.78125 1.265625q1.3906326 0 2.3125076 -0.84375q0.921875 -0.859375 1.171875 -2.609375zm3.4375 -1.84375q0 -3.84375 2.125 -5.6875q1.78125 -1.546875 4.34375 -1.546875q2.859375 0 4.65625 1.875q1.8125 1.859375 1.8125 5.15625q0 2.671875 -0.796875 4.203125q-0.796875 1.53125 -2.328125 2.375q-1.53125 0.84375 -3.34375 0.84375q-2.890625 0 -4.6875 -1.859375q-1.78125 -1.859375 -1.78125 -5.359375zm2.40625 0q0 2.65625 1.15625 3.984375q1.15625 1.3125 2.90625 1.3125q1.75 0 2.90625 -1.328125q1.15625 -1.328125 1.15625 -4.046875q0 -2.5625 -1.171875 -3.890625q-1.15625 -1.328125 -2.890625 -1.328125q-1.75 0 -2.90625 1.328125q-1.15625 1.3125 -1.15625 3.96875zm13.231186 6.90625l0 -19.078125l2.34375 0l0 19.078125l-2.34375 0zm15.03154 0l0 -2.03125q-1.609375 2.34375 -4.375 2.34375q-1.234375 0 -2.296875 -0.46875q-1.0625 -0.46875 -1.578125 -1.171875q-0.5 -0.71875 -0.71875 -1.75q-0.140625 -0.6875 -0.140625 -2.1875l0 -8.5625l2.34375 0l0 7.671875q0 1.828125 0.140625 2.46875q0.21875 0.921875 0.9375 1.453125q0.71875 0.53125 1.765625 0.53125q1.0625 0 1.984375 -0.53125q0.921875 -0.546875 1.296875 -1.46875q0.390625 -0.9375 0.390625 -2.71875l0 -7.40625l2.34375 0l0 13.828125l-2.09375 0zm5.762436 0l0 -13.828125l2.109375 0l0 1.9375q0.640625 -1.015625 1.71875 -1.625q1.09375 -0.625 2.46875 -0.625q1.53125 0 2.515625 0.640625q0.984375 0.640625 1.390625 1.78125q1.640625 -2.421875 4.265625 -2.421875q2.0625 0 3.15625 1.140625q1.109375 1.140625 1.109375 3.515625l0 9.484375l-2.328125 0l0 -8.703125q0 -1.40625 -0.234375 -2.015625q-0.21875 -0.625 -0.828125 -1.0q-0.59375 -0.390625 -1.390625 -0.390625q-1.46875 0 -2.4375 0.96875q-0.953125 0.96875 -0.953125 3.109375l0 8.03125l-2.34375 0l0 -8.984375q0 -1.5625 -0.578125 -2.34375q-0.5625 -0.78125 -1.875 -0.78125q-0.984375 0 -1.828125 0.53125q-0.828125 0.515625 -1.21875 1.515625q-0.375 1.0 -0.375 2.890625l0 7.171875l-2.34375 0zm22.204865 0l0 -13.828125l2.109375 0l0 1.96875q1.53125 -2.28125 4.40625 -2.28125q1.25 0 2.296875 0.453125q1.046875 0.453125 1.5625 1.1875q0.53125 0.71875 0.734375 1.71875q0.125 0.65625 0.125 2.28125l0 8.5l-2.34375 0l0 -8.40625q0 -1.4375 -0.28125 -2.140625q-0.265625 -0.71875 -0.96875 -1.140625q-0.6875 -0.421875 -1.625 -0.421875q-1.484375 0 -2.578125 0.953125q-1.09375 0.953125 -1.09375 3.609375l0 7.546875l-2.34375 0zm31.262146 -1.703125q-1.3125 1.109375 -2.515625 1.5625q-1.203125 0.453125 -2.578125 0.453125q-2.28125 0 -3.5 -1.109375q-1.21875 -1.109375 -1.21875 -2.84375q0 -1.015625 0.453125 -1.859375q0.46875 -0.84375 1.21875 -1.34375q0.75 -0.515625 1.6875 -0.765625q0.6875 -0.1875 2.078125 -0.359375q2.828125 -0.328125 4.171875 -0.796875q0.015625 -0.484375 0.015625 -0.625q0 -1.421875 -0.65625 -2.015625q-0.90625 -0.796875 -2.671875 -0.796875q-1.65625 0 -2.453125 0.59375q-0.78125 0.578125 -1.15625 2.046875l-2.296875 -0.3125q0.3125 -1.46875 1.03125 -2.375q0.71875 -0.90625 2.0625 -1.390625q1.359375 -0.5 3.140625 -0.5q1.78125 0 2.875 0.421875q1.109375 0.421875 1.625 1.046875q0.53125 0.625 0.734375 1.59375q0.125 0.59375 0.125 2.15625l0 3.125q0 3.265625 0.140625 4.140625q0.15625 0.859375 0.59375 1.65625l-2.4375 0q-0.375 -0.734375 -0.46875 -1.703125zm-0.203125 -5.234375q-1.265625 0.515625 -3.828125 0.890625q-1.4375 0.203125 -2.046875 0.46875q-0.59375 0.25 -0.921875 0.75q-0.3125 0.5 -0.3125 1.125q0 0.9375 0.703125 1.5625q0.703125 0.625 2.078125 0.625q1.34375 0 2.390625 -0.59375q1.0625 -0.59375 1.5625 -1.625q0.375 -0.796875 0.375 -2.34375l0 -0.859375zm5.059311 2.8125l2.328125 -0.359375q0.1875 1.390625 1.078125 2.140625q0.890625 0.734375 2.5 0.734375q1.609375 0 2.390625 -0.65625q0.78125 -0.65625 0.78125 -1.546875q0 -0.796875 -0.6875 -1.25q-0.484375 -0.3125 -2.390625 -0.796875q-2.578125 -0.65625 -3.578125 -1.125q-1.0 -0.46875 -1.515625 -1.3125q-0.515625 -0.84375 -0.515625 -1.859375q0 -0.921875 0.421875 -1.703125q0.4375 -0.796875 1.15625 -1.3125q0.546875 -0.40625 1.484375 -0.6875q0.953125 -0.28125 2.03125 -0.28125q1.625 0 2.859375 0.46875q1.234375 0.46875 1.8125 1.28125q0.59375 0.796875 0.8125 2.140625l-2.296875 0.3125q-0.15625 -1.078125 -0.90625 -1.671875q-0.75 -0.59375 -2.109375 -0.59375q-1.609375 0 -2.3125 0.53125q-0.6875 0.53125 -0.6875 1.25q0 0.453125 0.296875 0.8125q0.28125 0.375 0.890625 0.625q0.359375 0.140625 2.078125 0.609375q2.484375 0.65625 3.46875 1.078125q0.984375 0.421875 1.53125 1.234375q0.5625 0.796875 0.5625 2.0q0 1.171875 -0.6875 2.21875q-0.671875 1.03125 -1.96875 1.59375q-1.28125 0.5625 -2.90625 0.5625q-2.703125 0 -4.125 -1.109375q-1.40625 -1.125 -1.796875 -3.328125zm30.702835 2.421875q-1.3125 1.109375 -2.515625 1.5625q-1.203125 0.453125 -2.578125 0.453125q-2.28125 0 -3.5 -1.109375q-1.21875 -1.109375 -1.21875 -2.84375q0 -1.015625 0.453125 -1.859375q0.46875 -0.84375 1.21875 -1.34375q0.75 -0.515625 1.6875 -0.765625q0.6875 -0.1875 2.078125 -0.359375q2.828125 -0.328125 4.171875 -0.796875q0.015625 -0.484375 0.015625 -0.625q0 -1.421875 -0.65625 -2.015625q-0.90625 -0.796875 -2.671875 -0.796875q-1.65625 0 -2.453125 0.59375q-0.78125 0.578125 -1.15625 2.046875l-2.296875 -0.3125q0.3125 -1.46875 1.03125 -2.375q0.71875 -0.90625 2.0625 -1.390625q1.359375 -0.5 3.140625 -0.5q1.78125 0 2.875 0.421875q1.109375 0.421875 1.625 1.046875q0.53125 0.625 0.734375 1.59375q0.125 0.59375 0.125 2.15625l0 3.125q0 3.265625 0.140625 4.140625q0.15625 0.859375 0.59375 1.65625l-2.4375 0q-0.375 -0.734375 -0.46875 -1.703125zm-0.203125 -5.234375q-1.265625 0.515625 -3.828125 0.890625q-1.4375 0.203125 -2.046875 0.46875q-0.59375 0.25 -0.921875 0.75q-0.3125 0.5 -0.3125 1.125q0 0.9375 0.703125 1.5625q0.703125 0.625 2.078125 0.625q1.34375 0 2.390625 -0.59375q1.0625 -0.59375 1.5625 -1.625q0.375 -0.796875 0.375 -2.34375l0 -0.859375zm17.24649 6.9375l-5.2499695 -13.828125l2.46875 0l2.9687195 8.28125q0.484375 1.34375 0.890625 2.78125q0.296875 -1.09375 0.859375 -2.625l3.078125 -8.4375l2.40625 0l-5.234375 13.828125l-2.1875 0zm18.953125 -4.453125l2.421875 0.296875q-0.578125 2.125 -2.125 3.296875q-1.546875 1.171875 -3.953125 1.171875q-3.03125 0 -4.8125 -1.859375q-1.78125 -1.875 -1.78125 -5.25q0 -3.484375 1.796875 -5.40625q1.796875 -1.9375 4.671875 -1.9375q2.765625 0 4.515625 1.890625q1.765625 1.890625 1.765625 5.3125q0 0.203125 -0.015625 0.625l-10.3125 0q0.140625 2.28125 1.296875 3.5q1.15625 1.203125 2.890625 1.203125q1.28125 0 2.1875 -0.671875q0.921875 -0.6875 1.453125 -2.171875zm-7.6875 -3.78125l7.71875 0q-0.15625 -1.75 -0.890625 -2.625q-1.125 -1.34375 -2.90625 -1.34375q-1.609375 0 -2.71875 1.078125q-1.09375 1.078125 -1.203125 2.890625zm22.074951 3.171875l2.296875 0.296875q-0.375 2.390625 -1.9375 3.734375q-1.546875 1.34375 -3.8125 1.34375q-2.84375 0 -4.5625 -1.84375q-1.71875 -1.859375 -1.71875 -5.328125q0 -2.234375 0.734375 -3.90625q0.75 -1.6875 2.265625 -2.53125q1.515625 -0.84375 3.296875 -0.84375q2.25 0 3.671875 1.140625q1.4375 1.140625 1.84375 3.234375l-2.28125 0.359375q-0.328125 -1.390625 -1.15625 -2.09375q-0.8125 -0.703125 -1.984375 -0.703125q-1.78125 0 -2.890625 1.265625q-1.09375 1.265625 -1.09375 4.015625q0 2.78125 1.0625 4.046875q1.0625 1.265625 2.78125 1.265625q1.390625 0 2.3125 -0.84375q0.921875 -0.859375 1.171875 -2.609375zm9.421875 2.96875l0.328125 2.0625q-0.984375 0.21875 -1.765625 0.21875q-1.265625 0 -1.96875 -0.40625q-0.703125 -0.40625 -1.0 -1.0625q-0.28125 -0.65625 -0.28125 -2.765625l0 -7.953125l-1.71875 0l0 -1.828125l1.71875 0l0 -3.421875l2.328125 -1.40625l0 4.828125l2.359375 0l0 1.828125l-2.359375 0l0 8.078125q0 1.0 0.125 1.296875q0.125 0.28125 0.40625 0.453125q0.28125 0.171875 0.796875 0.171875q0.390625 0 1.03125 -0.09375zm1.4215698 -4.8125q0 -3.84375 2.125 -5.6875q1.78125 -1.546875 4.34375 -1.546875q2.859375 0 4.65625 1.875q1.8125 1.859375 1.8125 5.15625q0 2.671875 -0.796875 4.203125q-0.796875 1.53125 -2.328125 2.375q-1.53125 0.84375 -3.34375 0.84375q-2.890625 0 -4.6875 -1.859375q-1.78125 -1.859375 -1.78125 -5.359375zm2.40625 0q0 2.65625 1.15625 3.984375q1.15625 1.3125 2.90625 1.3125q1.75 0 2.90625 -1.328125q1.15625 -1.328125 1.15625 -4.046875q0 -2.5625 -1.171875 -3.890625q-1.15625 -1.328125 -2.890625 -1.328125q-1.75 0 -2.90625 1.328125q-1.15625 1.3125 -1.15625 3.96875zm13.262451 6.90625l0 -13.828125l2.109375 0l0 2.09375q0.796875 -1.46875 1.484375 -1.9375q0.6875 -0.46875 1.5 -0.46875q1.1875 0 2.40625 0.765625l-0.796875 2.171875q-0.859375 -0.515625 -1.71875 -0.515625q-0.765625 0 -1.390625 0.46875q-0.609375 0.453125 -0.859375 1.28125q-0.390625 1.25 -0.390625 2.734375l0 7.234375l-2.34375 0z" fill-rule="nonzero"/><path fill="#000000" fill-opacity="0.0" d="m538.4593 330.33072l354.6772 0l0 59.338562l-354.6772 0z" fill-rule="evenodd"/><path fill="#000000" d="m549.56866 364.9307l0 -19.078125l13.796875 0l0 2.25l-11.265625 0l0 5.84375l10.546875 0l0 2.234375l-10.546875 0l0 6.5l11.703125 0l0 2.25l-14.234375 0zm15.857666 0l5.0625 -7.1875l-4.671875 -6.640625l2.921875 0l2.125 3.25q0.59375 0.921875 0.96875 1.546875q0.5625 -0.859375 1.046875 -1.53125l2.328125 -3.265625l2.796875 0l-4.78125 6.515625l5.15625 7.3125l-2.890625 0l-2.828125 -4.296875l-0.75 -1.15625l-3.640625 5.453125l-2.84375 0zm20.015625 -2.09375l0.328125 2.0625q-0.984375 0.21875 -1.765625 0.21875q-1.265625 0 -1.96875 -0.40625q-0.703125 -0.40625 -1.0 -1.0625q-0.28125 -0.65625 -0.28125 -2.765625l0 -7.953125l-1.71875 0l0 -1.828125l1.71875 0l0 -3.421875l2.328125 -1.40625l0 4.828125l2.359375 0l0 1.828125l-2.359375 0l0 8.078125q0 1.0 0.125 1.296875q0.125 0.28125 0.40625 0.453125q0.28125 0.171875 0.796875 0.171875q0.390625 0 1.03125 -0.09375zm2.2653198 2.09375l0 -13.828125l2.109375 0l0 2.09375q0.796875 -1.46875 1.484375 -1.9375q0.6875 -0.46875 1.5 -0.46875q1.1875 0 2.40625 0.765625l-0.796875 2.171875q-0.859375 -0.515625 -1.71875 -0.515625q-0.765625 0 -1.390625 0.46875q-0.609375 0.453125 -0.859375 1.28125q-0.390625 1.25 -0.390625 2.734375l0 7.234375l-2.34375 0zm17.923645 -1.703125q-1.3125 1.109375 -2.515625 1.5625q-1.203125 0.453125 -2.578125 0.453125q-2.28125 0 -3.5 -1.109375q-1.21875 -1.109375 -1.21875 -2.84375q0 -1.015625 0.453125 -1.859375q0.46875 -0.84375 1.21875 -1.34375q0.75 -0.515625 1.6875 -0.765625q0.6875 -0.1875 2.078125 -0.359375q2.828125 -0.328125 4.171875 -0.796875q0.015625 -0.484375 0.015625 -0.625q0 -1.421875 -0.65625 -2.015625q-0.90625 -0.796875 -2.671875 -0.796875q-1.65625 0 -2.453125 0.59375q-0.78125 0.578125 -1.15625 2.046875l-2.296875 -0.3125q0.3125 -1.46875 1.03125 -2.375q0.71875 -0.90625 2.0625 -1.390625q1.359375 -0.5 3.140625 -0.5q1.78125 0 2.875 0.421875q1.109375 0.421875 1.625 1.046875q0.53125 0.625 0.734375 1.59375q0.125 0.59375 0.125 2.15625l0 3.125q0 3.265625 0.140625 4.140625q0.15625 0.859375 0.59375 1.65625l-2.4375 0q-0.375 -0.734375 -0.46875 -1.703125zm-0.203125 -5.234375q-1.265625 0.515625 -3.828125 0.890625q-1.4375 0.203125 -2.046875 0.46875q-0.59375 0.25 -0.921875 0.75q-0.3125 0.5 -0.3125 1.125q0 0.9375 0.703125 1.5625q0.703125 0.625 2.078125 0.625q1.34375 0 2.390625 -0.59375q1.0625 -0.59375 1.5625 -1.625q0.375 -0.796875 0.375 -2.34375l0 -0.859375zm15.028015 1.875l2.296875 0.296875q-0.375 2.390625 -1.9375 3.734375q-1.546875 1.34375 -3.8125 1.34375q-2.84375 0 -4.5625 -1.84375q-1.71875 -1.859375 -1.71875 -5.328125q0 -2.234375 0.734375 -3.90625q0.75 -1.6875 2.265625 -2.53125q1.515625 -0.84375 3.296875 -0.84375q2.25 0 3.671875 1.140625q1.4375 1.140625 1.84375 3.234375l-2.28125 0.359375q-0.328125 -1.390625 -1.15625 -2.09375q-0.8125 -0.703125 -1.984375 -0.703125q-1.78125 0 -2.890625 1.265625q-1.09375 1.265625 -1.09375 4.015625q0 2.78125 1.0625 4.046875q1.0625 1.265625 2.78125 1.265625q1.390625 0 2.3125 -0.84375q0.921875 -0.859375 1.171875 -2.609375zm9.421875 2.96875l0.328125 2.0625q-0.984375 0.21875 -1.765625 0.21875q-1.265625 0 -1.96875 -0.40625q-0.703125 -0.40625 -1.0 -1.0625q-0.28125 -0.65625 -0.28125 -2.765625l0 -7.953125l-1.71875 0l0 -1.828125l1.71875 0l0 -3.421875l2.328125 -1.40625l0 4.828125l2.359375 0l0 1.828125l-2.359375 0l0 8.078125q0 1.0 0.125 1.296875q0.125 0.28125 0.40625 0.453125q0.28125 0.171875 0.796875 0.171875q0.390625 0 1.03125 -0.09375zm18.7182 -2.96875l2.296875 0.296875q-0.375 2.390625 -1.9375 3.734375q-1.546875 1.34375 -3.8125 1.34375q-2.84375 0 -4.5625 -1.84375q-1.71875 -1.859375 -1.71875 -5.328125q0 -2.234375 0.734375 -3.90625q0.75 -1.6875 2.265625 -2.53125q1.515625 -0.84375 3.296875 -0.84375q2.25 0 3.671875 1.140625q1.4375 1.140625 1.84375 3.234375l-2.28125 0.359375q-0.328125 -1.390625 -1.15625 -2.09375q-0.8125 -0.703125 -1.984375 -0.703125q-1.78125 0 -2.890625 1.265625q-1.09375 1.265625 -1.09375 4.015625q0 2.78125 1.0625 4.046875q1.0625 1.265625 2.78125 1.265625q1.390625 0 2.3125 -0.84375q0.921875 -0.859375 1.171875 -2.609375zm3.4375 -1.84375q0 -3.84375 2.125 -5.6875q1.78125 -1.546875 4.34375 -1.546875q2.859375 0 4.65625 1.875q1.8125 1.859375 1.8125 5.15625q0 2.671875 -0.796875 4.203125q-0.796875 1.53125 -2.328125 2.375q-1.53125 0.84375 -3.34375 0.84375q-2.890625 0 -4.6875 -1.859375q-1.78125 -1.859375 -1.78125 -5.359375zm2.40625 0q0 2.65625 1.15625 3.984375q1.15625 1.3125 2.90625 1.3125q1.75 0 2.90625 -1.328125q1.15625 -1.328125 1.15625 -4.046875q0 -2.5625 -1.171875 -3.890625q-1.15625 -1.328125 -2.890625 -1.328125q-1.75 0 -2.90625 1.328125q-1.15625 1.3125 -1.15625 3.96875zm13.231201 6.90625l0 -19.078125l2.34375 0l0 19.078125l-2.34375 0zm15.031494 0l0 -2.03125q-1.609375 2.34375 -4.375 2.34375q-1.234375 0 -2.296875 -0.46875q-1.0625 -0.46875 -1.578125 -1.171875q-0.5 -0.71875 -0.71875 -1.75q-0.140625 -0.6875 -0.140625 -2.1875l0 -8.5625l2.34375 0l0 7.671875q0 1.828125 0.140625 2.46875q0.21875 0.921875 0.9375 1.453125q0.71875 0.53125 1.765625 0.53125q1.0625 0 1.984375 -0.53125q0.921875 -0.546875 1.296875 -1.46875q0.390625 -0.9375 0.390625 -2.71875l0 -7.40625l2.34375 0l0 13.828125l-2.09375 0zm5.762451 0l0 -13.828125l2.109375 0l0 1.9375q0.640625 -1.015625 1.71875 -1.625q1.09375 -0.625 2.46875 -0.625q1.53125 0 2.515625 0.640625q0.984375 0.640625 1.390625 1.78125q1.640625 -2.421875 4.265625 -2.421875q2.0625 0 3.15625 1.140625q1.109375 1.140625 1.109375 3.515625l0 9.484375l-2.328125 0l0 -8.703125q0 -1.40625 -0.234375 -2.015625q-0.21875 -0.625 -0.828125 -1.0q-0.59375 -0.390625 -1.390625 -0.390625q-1.46875 0 -2.4375 0.96875q-0.953125 0.96875 -0.953125 3.109375l0 8.03125l-2.34375 0l0 -8.984375q0 -1.5625 -0.578125 -2.34375q-0.5625 -0.78125 -1.875 -0.78125q-0.984375 0 -1.828125 0.53125q-0.828125 0.515625 -1.21875 1.515625q-0.375 1.0 -0.375 2.890625l0 7.171875l-2.34375 0zm22.204895 0l0 -13.828125l2.109375 0l0 1.96875q1.53125 -2.28125 4.40625 -2.28125q1.25 0 2.296875 0.453125q1.046875 0.453125 1.5625 1.1875q0.53125 0.71875 0.734375 1.71875q0.125 0.65625 0.125 2.28125l0 8.5l-2.34375 0l0 -8.40625q0 -1.4375 -0.28125 -2.140625q-0.265625 -0.71875 -0.96875 -1.140625q-0.6875 -0.421875 -1.625 -0.421875q-1.484375 0 -2.578125 0.953125q-1.09375 0.953125 -1.09375 3.609375l0 7.546875l-2.34375 0zm31.262146 -1.703125q-1.3125 1.109375 -2.515625 1.5625q-1.203125 0.453125 -2.578125 0.453125q-2.28125 0 -3.5 -1.109375q-1.21875 -1.109375 -1.21875 -2.84375q0 -1.015625 0.453125 -1.859375q0.46875 -0.84375 1.21875 -1.34375q0.75 -0.515625 1.6875 -0.765625q0.6875 -0.1875 2.078125 -0.359375q2.828125 -0.328125 4.171875 -0.796875q0.015625 -0.484375 0.015625 -0.625q0 -1.421875 -0.65625 -2.015625q-0.90625 -0.796875 -2.671875 -0.796875q-1.65625 0 -2.453125 0.59375q-0.78125 0.578125 -1.15625 2.046875l-2.296875 -0.3125q0.3125 -1.46875 1.03125 -2.375q0.71875 -0.90625 2.0625 -1.390625q1.359375 -0.5 3.140625 -0.5q1.78125 0 2.875 0.421875q1.109375 0.421875 1.625 1.046875q0.53125 0.625 0.734375 1.59375q0.125 0.59375 0.125 2.15625l0 3.125q0 3.265625 0.140625 4.140625q0.15625 0.859375 0.59375 1.65625l-2.4375 0q-0.375 -0.734375 -0.46875 -1.703125zm-0.203125 -5.234375q-1.265625 0.515625 -3.828125 0.890625q-1.4375 0.203125 -2.046875 0.46875q-0.59375 0.25 -0.921875 0.75q-0.3125 0.5 -0.3125 1.125q0 0.9375 0.703125 1.5625q0.703125 0.625 2.078125 0.625q1.34375 0 2.390625 -0.59375q1.0625 -0.59375 1.5625 -1.625q0.375 -0.796875 0.375 -2.34375l0 -0.859375zm5.059265 2.8125l2.328125 -0.359375q0.1875 1.390625 1.078125 2.140625q0.890625 0.734375 2.5 0.734375q1.609375 0 2.390625 -0.65625q0.78125 -0.65625 0.78125 -1.546875q0 -0.796875 -0.6875 -1.25q-0.484375 -0.3125 -2.390625 -0.796875q-2.578125 -0.65625 -3.578125 -1.125q-1.0 -0.46875 -1.515625 -1.3125q-0.515625 -0.84375 -0.515625 -1.859375q0 -0.921875 0.421875 -1.703125q0.4375 -0.796875 1.15625 -1.3125q0.546875 -0.40625 1.484375 -0.6875q0.953125 -0.28125 2.03125 -0.28125q1.625 0 2.859375 0.46875q1.234375 0.46875 1.8125 1.28125q0.59375 0.796875 0.8125 2.140625l-2.296875 0.3125q-0.15625 -1.078125 -0.90625 -1.671875q-0.75 -0.59375 -2.109375 -0.59375q-1.609375 0 -2.3125 0.53125q-0.6875 0.53125 -0.6875 1.25q0 0.453125 0.296875 0.8125q0.28125 0.375 0.890625 0.625q0.359375 0.140625 2.078125 0.609375q2.484375 0.65625 3.46875 1.078125q0.984375 0.421875 1.53125 1.234375q0.5625 0.796875 0.5625 2.0q0 1.171875 -0.6875 2.21875q-0.671875 1.03125 -1.96875 1.59375q-1.28125 0.5625 -2.90625 0.5625q-2.703125 0 -4.125 -1.109375q-1.40625 -1.125 -1.796875 -3.328125zm30.70288 2.421875q-1.3125 1.109375 -2.515625 1.5625q-1.203125 0.453125 -2.578125 0.453125q-2.28125 0 -3.5 -1.109375q-1.21875 -1.109375 -1.21875 -2.84375q0 -1.015625 0.453125 -1.859375q0.46875 -0.84375 1.21875 -1.34375q0.75 -0.515625 1.6875 -0.765625q0.6875 -0.1875 2.078125 -0.359375q2.828125 -0.328125 4.171875 -0.796875q0.015625 -0.484375 0.015625 -0.625q0 -1.421875 -0.65625 -2.015625q-0.90625 -0.796875 -2.671875 -0.796875q-1.65625 0 -2.453125 0.59375q-0.78125 0.578125 -1.15625 2.046875l-2.296875 -0.3125q0.3125 -1.46875 1.03125 -2.375q0.71875 -0.90625 2.0625 -1.390625q1.359375 -0.5 3.140625 -0.5q1.78125 0 2.875 0.421875q1.109375 0.421875 1.625 1.046875q0.53125 0.625 0.734375 1.59375q0.125 0.59375 0.125 2.15625l0 3.125q0 3.265625 0.140625 4.140625q0.15625 0.859375 0.59375 1.65625l-2.4375 0q-0.375 -0.734375 -0.46875 -1.703125zm-0.203125 -5.234375q-1.265625 0.515625 -3.828125 0.890625q-1.4375 0.203125 -2.046875 0.46875q-0.59375 0.25 -0.921875 0.75q-0.3125 0.5 -0.3125 1.125q0 0.9375 0.703125 1.5625q0.703125 0.625 2.078125 0.625q1.34375 0 2.390625 -0.59375q1.0625 -0.59375 1.5625 -1.625q0.375 -0.796875 0.375 -2.34375l0 -0.859375zm18.52771 4.84375l0.328125 2.0625q-0.984375 0.21875 -1.765564 0.21875q-1.265625 0 -1.96875 -0.40625q-0.703125 -0.40625 -1.0 -1.0625q-0.28125 -0.65625 -0.28125 -2.765625l0 -7.953125l-1.71875 0l0 -1.828125l1.71875 0l0 -3.421875l2.328125 -1.40625l0 4.828125l2.359314 0l0 1.828125l-2.359314 0l0 8.078125q0 1.0 0.125 1.296875q0.125 0.28125 0.40625 0.453125q0.28125 0.171875 0.79681396 0.171875q0.390625 0 1.03125 -0.09375zm11.312256 0.390625q-1.3125 1.109375 -2.515625 1.5625q-1.203125 0.453125 -2.578125 0.453125q-2.28125 0 -3.5 -1.109375q-1.21875 -1.109375 -1.21875 -2.84375q0 -1.015625 0.453125 -1.859375q0.46875 -0.84375 1.21875 -1.34375q0.75 -0.515625 1.6875 -0.765625q0.6875 -0.1875 2.078125 -0.359375q2.828125 -0.328125 4.171875 -0.796875q0.015625 -0.484375 0.015625 -0.625q0 -1.421875 -0.65625 -2.015625q-0.90625 -0.796875 -2.671875 -0.796875q-1.65625 0 -2.453125 0.59375q-0.78125 0.578125 -1.15625 2.046875l-2.296875 -0.3125q0.3125 -1.46875 1.03125 -2.375q0.71875 -0.90625 2.0625 -1.390625q1.359375 -0.5 3.140625 -0.5q1.78125 0 2.875 0.421875q1.109375 0.421875 1.625 1.046875q0.53125 0.625 0.734375 1.59375q0.125 0.59375 0.125 2.15625l0 3.125q0 3.265625 0.140625 4.140625q0.15625 0.859375 0.59375 1.65625l-2.4375 0q-0.375 -0.734375 -0.46875 -1.703125zm-0.203125 -5.234375q-1.265625 0.515625 -3.828125 0.890625q-1.4375 0.203125 -2.046875 0.46875q-0.59375 0.25 -0.921875 0.75q-0.3125 0.5 -0.3125 1.125q0 0.9375 0.703125 1.5625q0.703125 0.625 2.078125 0.625q1.34375 0 2.390625 -0.59375q1.0625 -0.59375 1.5625 -1.625q0.375 -0.796875 0.375 -2.34375l0 -0.859375zm8.16864 6.9375l-2.171875 0l0 -19.078125l2.34375 0l0 6.796875q1.484375 -1.859375 3.78125 -1.859375q1.28125 0 2.40625 0.515625q1.140625 0.515625 1.875 1.453125q0.75 0.921875 1.15625 2.25q0.421875 1.3125 0.421875 2.796875q0 3.5625 -1.765625 5.5q-1.75 1.9375 -4.21875 1.9375q-2.4375 0 -3.828125 -2.046875l0 1.734375zm-0.03125 -7.015625q0 2.484375 0.671875 3.59375q1.109375 1.8125 3.0 1.8125q1.53125 0 2.65625 -1.328125q1.125 -1.34375 1.125 -3.984375q0 -2.703125 -1.078125 -3.984375q-1.078125 -1.296875 -2.59375 -1.296875q-1.546875 0 -2.671875 1.328125q-1.109375 1.328125 -1.109375 3.859375zm12.637451 7.015625l0 -19.078125l2.34375 0l0 19.078125l-2.34375 0zm15.437805 -4.453125l2.421875 0.296875q-0.578125 2.125 -2.125 3.296875q-1.546875 1.171875 -3.953125 1.171875q-3.03125 0 -4.8125 -1.859375q-1.78125 -1.875 -1.78125 -5.25q0 -3.484375 1.796875 -5.40625q1.796875 -1.9375 4.671875 -1.9375q2.765625 0 4.515625 1.890625q1.765625 1.890625 1.765625 5.3125q0 0.203125 -0.015625 0.625l-10.3125 0q0.140625 2.28125 1.296875 3.5q1.15625 1.203125 2.890625 1.203125q1.28125 0 2.1875 -0.671875q0.921875 -0.6875 1.453125 -2.171875zm-7.6875 -3.78125l7.71875 0q-0.15625 -1.75 -0.890625 -2.625q-1.125 -1.34375 -2.90625 -1.34375q-1.609375 0 -2.71875 1.078125q-1.09375 1.078125 -1.203125 2.890625z" fill-rule="nonzero"/></g></svg>