<svg version="1.1" viewBox="0.0 0.0 793.8451443569554 557.2257217847769" fill="none" stroke="none" stroke-linecap="square" stroke-miterlimit="10" xmlns:xlink="http://www.w3.org/1999/xlink" xmlns="http://www.w3.org/2000/svg"><clipPath id="p.0"><path d="m0 0l793.84515 0l0 557.2257l-793.84515 0l0 -557.2257z" clip-rule="nonzero"/></clipPath><g clip-path="url(#p.0)"><path fill="#000000" fill-opacity="0.0" d="m0 0l793.84515 0l0 557.2257l-793.84515 0z" fill-rule="evenodd"/><path fill="#000000" fill-opacity="0.0" d="m171.74414 309.35016l0 0c0 -121.26782 105.32236 -219.57481 235.24408 -219.57481l0 0c129.92175 0 235.24408 98.30699 235.24408 219.57481l0 0c0 121.26779 -105.32233 219.57477 -235.24408 219.57477l0 0c-129.92172 0 -235.24408 -98.30698 -235.24408 -219.57477z" fill-rule="evenodd"/><path stroke="#cccccc" stroke-width="8.0" stroke-linejoin="round" stroke-linecap="butt" d="m171.74414 309.35016l0 0c0 -121.26782 105.32236 -219.57481 235.24408 -219.57481l0 0c129.92175 0 235.24408 98.30699 235.24408 219.57481l0 0c0 121.26779 -105.32233 219.57477 -235.24408 219.57477l0 0c-129.92172 0 -235.24408 -98.30698 -235.24408 -219.57477z" fill-rule="evenodd"/><path fill="#fb6524" d="m303.6887 115.516075l0 0c0 -54.115204 46.252136 -97.98425 103.30707 -97.98425l0 0c27.398743 0 53.675323 10.323311 73.04913 28.698921c19.37384 18.375614 30.257965 43.29829 30.257965 69.285324l0 0c0 54.11521 -46.252167 97.98426 -103.3071 97.98426l0 0c-57.05493 0 -103.30707 -43.86905 -103.30707 -97.98426z" fill-rule="evenodd"/><path fill="#000000" fill-opacity="0.0" d="m318.19022 65.30156l176.7244 0l0 95.27559l-176.7244 0z" fill-rule="evenodd"/><path fill="#ffffff" d="m387.08368 96.599686l4.484375 1.421875q-1.03125 3.75 -3.4375 5.578125q-2.390625 1.8125 -6.078125 1.8125q-4.5625 0 -7.5 -3.109375q-2.9375 -3.125 -2.9375 -8.53125q0 -5.71875 2.953125 -8.875q2.953125 -3.171875 7.765625 -3.171875q4.203125 0 6.828125 2.484375q1.5625 1.46875 2.34375 4.21875l-4.578125 1.09375q-0.40625 -1.78125 -1.703125 -2.8125q-1.28125 -1.03125 -3.125 -1.03125q-2.546875 0 -4.140625 1.828125q-1.578125 1.828125 -1.578125 5.921875q0 4.34375 1.5625 6.1875q1.5625 1.84375 4.0625 1.84375q1.84375 0 3.171875 -1.171875q1.328125 -1.171875 1.90625 -3.6875zm7.40625 -0.109375q0 -2.1875 1.078125 -4.234375q1.078125 -2.046875 3.046875 -3.125q1.984375 -1.078125 4.421875 -1.078125q3.765625 0 6.171875 2.453125q2.40625 2.4375 2.40625 6.171875q0 3.765625 -2.4375 6.25q-2.421875 2.46875 -6.109375 2.46875q-2.28125 0 -4.359375 -1.03125q-2.0625 -1.03125 -3.140625 -3.015625q-1.078125 -2.0 -1.078125 -4.859375zm4.5 0.234375q0 2.46875 1.171875 3.78125q1.171875 1.3125 2.890625 1.3125q1.71875 0 2.875 -1.3125q1.171875 -1.3125 1.171875 -3.8125q0 -2.4375 -1.171875 -3.75q-1.15625 -1.3125 -2.875 -1.3125q-1.71875 0 -2.890625 1.3125q-1.171875 1.3125 -1.171875 3.78125zm20.265625 8.296875l-4.390625 0l0 -16.59375l4.078125 0l0 2.359375q1.046875 -1.671875 1.875 -2.203125q0.84375 -0.53125 1.90625 -0.53125q1.5 0 2.890625 0.828125l-1.359375 3.828125q-1.109375 -0.71875 -2.0625 -0.71875q-0.921875 0 -1.5625 0.515625q-0.640625 0.5 -1.015625 1.828125q-0.359375 1.328125 -0.359375 5.5625l0 5.125zm17.859375 -5.28125l4.375 0.734375q-0.84375 2.40625 -2.671875 3.671875q-1.8125 1.25 -4.546875 1.25q-4.328125 0 -6.40625 -2.828125q-1.640625 -2.265625 -1.640625 -5.71875q0 -4.125 2.15625 -6.453125q2.15625 -2.34375 5.453125 -2.34375q3.703125 0 5.84375 2.453125q2.140625 2.4375 2.046875 7.484375l-11.0 0q0.046875 1.953125 1.0625 3.046875q1.015625 1.078125 2.53125 1.078125q1.03125 0 1.734375 -0.5625q0.703125 -0.5625 1.0625 -1.8125zm0.25 -4.4375q-0.046875 -1.90625 -0.984375 -2.890625q-0.9375 -1.0 -2.28125 -1.0q-1.4375 0 -2.375 1.046875q-0.9375 1.046875 -0.921875 2.84375l6.5625 0z" fill-rule="nonzero"/><path fill="#ffffff" d="m363.7243 143.02156l-5.03125 0l-2.0 -5.203125l-9.15625 0l-1.890625 5.203125l-4.90625 0l8.921875 -22.90625l4.890625 0l9.171875 22.90625zm-8.515625 -9.0625l-3.15625 -8.5l-3.09375 8.5l6.25 0zm26.03125 9.0625l-4.390625 0l0 -8.46875q0 -2.6875 -0.28125 -3.46875q-0.28125 -0.796875 -0.921875 -1.234375q-0.625 -0.4375 -1.515625 -0.4375q-1.140625 0 -2.046875 0.625q-0.90625 0.625 -1.25 1.65625q-0.328125 1.03125 -0.328125 3.8125l0 7.515625l-4.390625 0l0 -16.59375l4.078125 0l0 2.4375q2.171875 -2.8125 5.46875 -2.8125q1.453125 0 2.65625 0.53125q1.203125 0.515625 1.8125 1.328125q0.625 0.8125 0.859375 1.84375q0.25 1.03125 0.25 2.953125l0 10.3125zm7.734375 -11.53125l-3.984375 -0.71875q0.671875 -2.40625 2.3125 -3.5625q1.640625 -1.15625 4.875 -1.15625q2.9375 0 4.375 0.703125q1.4375 0.6875 2.015625 1.765625q0.59375 1.0625 0.59375 3.921875l-0.046875 5.125q0 2.1875 0.203125 3.234375q0.21875 1.03125 0.796875 2.21875l-4.34375 0q-0.171875 -0.4375 -0.421875 -1.296875q-0.109375 -0.390625 -0.15625 -0.515625q-1.125 1.09375 -2.40625 1.640625q-1.28125 0.546875 -2.734375 0.546875q-2.5625 0 -4.046875 -1.390625q-1.46875 -1.390625 -1.46875 -3.515625q0 -1.40625 0.671875 -2.5q0.671875 -1.109375 1.875 -1.6875q1.21875 -0.59375 3.5 -1.03125q3.078125 -0.578125 4.265625 -1.078125l0 -0.4375q0 -1.265625 -0.625 -1.796875q-0.625 -0.546875 -2.359375 -0.546875q-1.171875 0 -1.828125 0.46875q-0.65625 0.453125 -1.0625 1.609375zm5.875 3.5625q-0.84375 0.28125 -2.671875 0.671875q-1.828125 0.390625 -2.390625 0.765625q-0.859375 0.609375 -0.859375 1.546875q0 0.921875 0.6875 1.59375q0.6875 0.671875 1.75 0.671875q1.1875 0 2.265625 -0.78125q0.796875 -0.59375 1.046875 -1.453125q0.171875 -0.5625 0.171875 -2.140625l0 -0.875zm8.640625 7.96875l0 -22.90625l4.390625 0l0 22.90625l-4.390625 0zm6.8125 -16.59375l4.671875 0l3.96875 11.78125l3.875 -11.78125l4.546875 0l-5.859375 15.96875l-1.046875 2.890625q-0.578125 1.453125 -1.109375 2.21875q-0.515625 0.765625 -1.203125 1.234375q-0.671875 0.484375 -1.671875 0.75q-0.984375 0.265625 -2.234375 0.265625q-1.265625 0 -2.484375 -0.265625l-0.390625 -3.4375q1.03125 0.203125 1.859375 0.203125q1.53125 0 2.265625 -0.90625q0.734375 -0.890625 1.125 -2.28125l-6.3125 -16.640625zm18.328125 11.859375l4.40625 -0.671875q0.28125 1.28125 1.140625 1.953125q0.859375 0.65625 2.40625 0.65625q1.703125 0 2.5625 -0.625q0.578125 -0.4375 0.578125 -1.171875q0 -0.5 -0.3125 -0.828125q-0.328125 -0.3125 -1.46875 -0.578125q-5.3125 -1.171875 -6.734375 -2.140625q-1.96875 -1.34375 -1.96875 -3.734375q0 -2.15625 1.703125 -3.625q1.703125 -1.46875 5.28125 -1.46875q3.40625 0 5.0625 1.109375q1.65625 1.109375 2.28125 3.28125l-4.140625 0.765625q-0.265625 -0.96875 -1.015625 -1.484375q-0.734375 -0.515625 -2.109375 -0.515625q-1.734375 0 -2.484375 0.484375q-0.5 0.34375 -0.5 0.890625q0 0.46875 0.4375 0.796875q0.59375 0.4375 4.09375 1.234375q3.515625 0.796875 4.90625 1.953125q1.375 1.171875 1.375 3.265625q0 2.28125 -1.90625 3.921875q-1.90625 1.640625 -5.640625 1.640625q-3.390625 0 -5.375 -1.375q-1.96875 -1.375 -2.578125 -3.734375zm19.34375 -14.109375l0 -4.0625l4.390625 0l0 4.0625l-4.390625 0zm0 18.84375l0 -16.59375l4.390625 0l0 16.59375l-4.390625 0zm7.34375 -4.734375l4.40625 -0.671875q0.28125 1.28125 1.140625 1.953125q0.859375 0.65625 2.40625 0.65625q1.703125 0 2.5625 -0.625q0.578125 -0.4375 0.578125 -1.171875q0 -0.5 -0.3125 -0.828125q-0.328125 -0.3125 -1.46875 -0.578125q-5.3125 -1.171875 -6.734375 -2.140625q-1.96875 -1.34375 -1.96875 -3.734375q0 -2.15625 1.703125 -3.625q1.703125 -1.46875 5.28125 -1.46875q3.40625 0 5.0625 1.109375q1.65625 1.109375 2.28125 3.28125l-4.140625 0.765625q-0.265625 -0.96875 -1.015625 -1.484375q-0.734375 -0.515625 -2.109375 -0.515625q-1.734375 0 -2.484375 0.484375q-0.5 0.34375 -0.5 0.890625q0 0.46875 0.4375 0.796875q0.59375 0.4375 4.09375 1.234375q3.515625 0.796875 4.90625 1.953125q1.375 1.171875 1.375 3.265625q0 2.28125 -1.90625 3.921875q-1.90625 1.640625 -5.640625 1.640625q-3.390625 0 -5.375 -1.375q-1.96875 -1.375 -2.578125 -3.734375z" fill-rule="nonzero"/><path fill="#3399ff" d="m89.61659 406.68484l0 0c0 -54.115204 46.25215 -97.98425 103.30708 -97.98425l0 0c27.398743 0 53.67531 10.323303 73.04913 28.698914c19.37384 18.37561 30.257965 43.29828 30.257965 69.28534l0 0c0 54.115204 -46.252167 97.98425 -103.3071 97.98425l0 0c-57.05493 0 -103.30708 -43.86905 -103.30708 -97.98425z" fill-rule="evenodd"/><path fill="#000000" fill-opacity="0.0" d="m93.91283 353.39996l199.81102 0l0 95.27557l-199.81102 0z" fill-rule="evenodd"/><path fill="#ffffff" d="m161.45114 370.2137l8.453125 0q2.859375 0 4.359375 0.4375q2.015625 0.59375 3.453125 2.109375q1.4375 1.515625 2.1875 3.71875q0.75 2.1875 0.75 5.40625q0 2.828125 -0.703125 4.875q-0.859375 2.5 -2.453125 4.046875q-1.203125 1.171875 -3.25 1.828125q-1.53125 0.484375 -4.09375 0.484375l-8.703125 0l0 -22.90625zm4.625 3.875l0 15.171875l3.453125 0q1.9375 0 2.796875 -0.21875q1.125 -0.28125 1.859375 -0.953125q0.75 -0.671875 1.21875 -2.203125q0.46875 -1.546875 0.46875 -4.203125q0 -2.65625 -0.46875 -4.078125q-0.46875 -1.421875 -1.3125 -2.21875q-0.84375 -0.796875 -2.140625 -1.078125q-0.96875 -0.21875 -3.796875 -0.21875l-2.078125 0zm21.75 7.5l-3.984375 -0.71875q0.671875 -2.40625 2.3125 -3.5625q1.640625 -1.15625 4.875 -1.15625q2.9375 0 4.375 0.703125q1.4375 0.6875 2.015625 1.765625q0.59375 1.0625 0.59375 3.921875l-0.046875 5.125q0 2.1875 0.203125 3.234375q0.21875 1.03125 0.796875 2.21875l-4.34375 0q-0.171875 -0.4375 -0.421875 -1.296875q-0.109375 -0.390625 -0.15625 -0.515625q-1.125 1.09375 -2.40625 1.640625q-1.28125 0.546875 -2.734375 0.546875q-2.5625 0 -4.046875 -1.390625q-1.46875 -1.390625 -1.46875 -3.515625q0 -1.40625 0.671875 -2.5q0.671875 -1.109375 1.875 -1.6875q1.21875 -0.59375 3.5 -1.03125q3.078125 -0.578125 4.265625 -1.078125l0 -0.4375q0 -1.265625 -0.625 -1.796875q-0.625 -0.546875 -2.359375 -0.546875q-1.171875 0 -1.828125 0.46875q-0.65625 0.453125 -1.0625 1.609375zm5.875 3.5625q-0.84375 0.28125 -2.671875 0.671875q-1.828125 0.390625 -2.390625 0.765625q-0.859375 0.609375 -0.859375 1.546875q0 0.921875 0.6875 1.59375q0.6875 0.671875 1.75 0.671875q1.1875 0 2.265625 -0.78125q0.796875 -0.59375 1.046875 -1.453125q0.171875 -0.5625 0.171875 -2.140625l0 -0.875zm16.25 -8.625l0 3.5l-3.0 0l0 6.6875q0 2.03125 0.078125 2.375q0.09375 0.328125 0.390625 0.546875q0.3125 0.21875 0.75 0.21875q0.609375 0 1.765625 -0.421875l0.375 3.40625q-1.53125 0.65625 -3.46875 0.65625q-1.1875 0 -2.140625 -0.390625q-0.953125 -0.40625 -1.40625 -1.03125q-0.4375 -0.640625 -0.609375 -1.71875q-0.140625 -0.765625 -0.140625 -3.09375l0 -7.234375l-2.015625 0l0 -3.5l2.015625 0l0 -3.296875l4.40625 -2.5625l0 5.859375l3.0 0zm6.328125 5.0625l-3.984375 -0.71875q0.671875 -2.40625 2.3125 -3.5625q1.640625 -1.15625 4.875 -1.15625q2.9375153 0 4.3750153 0.703125q1.4375 0.6875 2.015625 1.765625q0.59375 1.0625 0.59375 3.921875l-0.046875 5.125q0 2.1875 0.203125 3.234375q0.21875 1.03125 0.796875 2.21875l-4.34375 0q-0.171875 -0.4375 -0.421875 -1.296875q-0.109375 -0.390625 -0.15625 -0.515625q-1.1250153 1.09375 -2.4062653 1.640625q-1.28125 0.546875 -2.734375 0.546875q-2.5625 0 -4.046875 -1.390625q-1.46875 -1.390625 -1.46875 -3.515625q0 -1.40625 0.671875 -2.5q0.671875 -1.109375 1.875 -1.6875q1.21875 -0.59375 3.5 -1.03125q3.078125 -0.578125 4.2656403 -1.078125l0 -0.4375q0 -1.265625 -0.62501526 -1.796875q-0.625 -0.546875 -2.359375 -0.546875q-1.171875 0 -1.828125 0.46875q-0.65625 0.453125 -1.0625 1.609375zm5.8750153 3.5625q-0.84376526 0.28125 -2.6718903 0.671875q-1.828125 0.390625 -2.390625 0.765625q-0.859375 0.609375 -0.859375 1.546875q0 0.921875 0.6875 1.59375q0.6875 0.671875 1.75 0.671875q1.1875 0 2.265625 -0.78125q0.796875 -0.59375 1.0468903 -1.453125q0.171875 -0.5625 0.171875 -2.140625l0 -0.875z" fill-rule="nonzero"/><path fill="#ffffff" d="m107.2324 431.11996l0 -22.90625l7.421875 0q4.21875 0 5.5 0.34375q1.96875 0.515625 3.296875 2.25q1.328125 1.71875 1.328125 4.453125q0 2.109375 -0.765625 3.546875q-0.765625 1.4375 -1.953125 2.265625q-1.171875 0.8125 -2.390625 1.078125q-1.65625 0.328125 -4.796875 0.328125l-3.015625 0l0 8.640625l-4.625 0zm4.625 -19.03125l0 6.5l2.53125 0q2.734375 0 3.65625 -0.359375q0.921875 -0.359375 1.4375 -1.125q0.53125 -0.765625 0.53125 -1.78125q0 -1.25 -0.734375 -2.0625q-0.734375 -0.8125 -1.859375 -1.015625q-0.828125 -0.15625 -3.328125 -0.15625l-2.234375 0zm20.890617 19.03125l-4.390625 0l0 -16.59375l4.078125 0l0 2.359375q1.046875 -1.671875 1.875 -2.203125q0.84375 -0.53125 1.90625 -0.53125q1.5 0 2.890625 0.828125l-1.359375 3.828125q-1.109375 -0.71875 -2.0625 -0.71875q-0.921875 0 -1.5625 0.515625q-0.640625 0.5 -1.015625 1.828125q-0.359375 1.328125 -0.359375 5.5625l0 5.125zm17.859375 -5.28125l4.375 0.734375q-0.84375 2.40625 -2.671875 3.671875q-1.8125 1.25 -4.546875 1.25q-4.328125 0 -6.40625 -2.828125q-1.640625 -2.265625 -1.640625 -5.71875q0 -4.125 2.15625 -6.453125q2.15625 -2.34375 5.453125 -2.34375q3.703125 0 5.84375 2.453125q2.140625 2.4375 2.046875 7.484375l-11.0 0q0.046875 1.953125 1.0625 3.046875q1.015625 1.078125 2.53125 1.078125q1.03125 0 1.734375 -0.5625q0.703125 -0.5625 1.0625 -1.8125zm0.25 -4.4375q-0.046875 -1.90625 -0.984375 -2.890625q-0.9375 -1.0 -2.28125 -1.0q-1.4375 0 -2.375 1.046875q-0.9375 1.046875 -0.921875 2.84375l6.5625 0zm7.8125 -6.875l4.09375 0l0 2.4375q0.796875 -1.25 2.15625 -2.03125q1.359375 -0.78125 3.015625 -0.78125q2.890625 0 4.90625 2.265625q2.015625 2.265625 2.015625 6.3125q0 4.15625 -2.03125 6.46875q-2.03125 2.296875 -4.921875 2.296875q-1.375 0 -2.5 -0.546875q-1.109375 -0.546875 -2.34375 -1.875l0 8.359375l-4.390625 0l0 -22.90625zm4.34375 8.015625q0 2.796875 1.109375 4.140625q1.109375 1.328125 2.703125 1.328125q1.53125 0 2.546875 -1.21875q1.015625 -1.234375 1.015625 -4.03125q0 -2.609375 -1.046875 -3.875q-1.046875 -1.265625 -2.59375 -1.265625q-1.609375 0 -2.671875 1.25q-1.0625 1.234375 -1.0625 3.671875zm18.609375 -2.953125l-3.984375 -0.71875q0.671875 -2.40625 2.3125 -3.5625q1.640625 -1.15625 4.875 -1.15625q2.9375 0 4.375 0.703125q1.4375 0.6875 2.015625 1.765625q0.59375 1.0625 0.59375 3.921875l-0.046875 5.125q0 2.1875 0.203125 3.234375q0.21875 1.03125 0.796875 2.21875l-4.34375 0q-0.171875 -0.4375 -0.421875 -1.296875q-0.109375 -0.390625 -0.15625 -0.515625q-1.125 1.09375 -2.40625 1.640625q-1.28125 0.546875 -2.734375 0.546875q-2.5625 0 -4.046875 -1.390625q-1.46875 -1.390625 -1.46875 -3.515625q0 -1.40625 0.671875 -2.5q0.671875 -1.109375 1.875 -1.6875q1.21875 -0.59375 3.5 -1.03125q3.078125 -0.578125 4.265625 -1.078125l0 -0.4375q0 -1.265625 -0.625 -1.796875q-0.625 -0.546875 -2.359375 -0.546875q-1.171875 0 -1.828125 0.46875q-0.65625 0.453125 -1.0625 1.609375zm5.875 3.5625q-0.84375 0.28125 -2.671875 0.671875q-1.828125 0.390625 -2.390625 0.765625q-0.859375 0.609375 -0.859375 1.546875q0 0.921875 0.6875 1.59375q0.6875 0.671875 1.75 0.671875q1.1875 0 2.265625 -0.78125q0.796875 -0.59375 1.046875 -1.453125q0.171875 -0.5625 0.171875 -2.140625l0 -0.875zm12.84375 7.96875l-4.390625 0l0 -16.59375l4.078125 0l0 2.359375q1.046875 -1.671875 1.875 -2.203125q0.84375 -0.53125 1.90625 -0.53125q1.5 0 2.890625 0.828125l-1.359375 3.828125q-1.109375 -0.71875 -2.0625 -0.71875q-0.921875 0 -1.5625 0.515625q-0.640625 0.5 -1.015625 1.828125q-0.359375 1.328125 -0.359375 5.5625l0 5.125zm11.53125 -11.53125l-3.984375 -0.71875q0.671875 -2.40625 2.3125 -3.5625q1.640625 -1.15625 4.875 -1.15625q2.9375 0 4.375 0.703125q1.4375 0.6875 2.015625 1.765625q0.59376526 1.0625 0.59376526 3.921875l-0.046875 5.125q0 2.1875 0.203125 3.234375q0.21875 1.03125 0.796875 2.21875l-4.3437653 0q-0.171875 -0.4375 -0.421875 -1.296875q-0.109375 -0.390625 -0.15625 -0.515625q-1.125 1.09375 -2.40625 1.640625q-1.28125 0.546875 -2.734375 0.546875q-2.5625 0 -4.046875 -1.390625q-1.46875 -1.390625 -1.46875 -3.515625q0 -1.40625 0.671875 -2.5q0.671875 -1.109375 1.875 -1.6875q1.21875 -0.59375 3.5 -1.03125q3.078125 -0.578125 4.265625 -1.078125l0 -0.4375q0 -1.265625 -0.625 -1.796875q-0.625 -0.546875 -2.359375 -0.546875q-1.171875 0 -1.828125 0.46875q-0.65625 0.453125 -1.0625 1.609375zm5.875 3.5625q-0.84375 0.28125 -2.671875 0.671875q-1.828125 0.390625 -2.390625 0.765625q-0.859375 0.609375 -0.859375 1.546875q0 0.921875 0.6875 1.59375q0.6875 0.671875 1.75 0.671875q1.1875 0 2.265625 -0.78125q0.796875 -0.59375 1.046875 -1.453125q0.171875 -0.5625 0.171875 -2.140625l0 -0.875zm16.250015 -8.625l0 3.5l-3.0 0l0 6.6875q0 2.03125 0.078125 2.375q0.09375 0.328125 0.390625 0.546875q0.3125 0.21875 0.75 0.21875q0.609375 0 1.765625 -0.421875l0.375 3.40625q-1.53125 0.65625 -3.46875 0.65625q-1.1875 0 -2.140625 -0.390625q-0.953125 -0.40625 -1.40625 -1.03125q-0.4375 -0.640625 -0.609375 -1.71875q-0.140625 -0.765625 -0.140625 -3.09375l0 -7.234375l-2.015625 0l0 -3.5l2.015625 0l0 -3.296875l4.40625 -2.5625l0 5.859375l3.0 0zm3.046875 -2.25l0 -4.0625l4.390625 0l0 4.0625l-4.390625 0zm0 18.84375l0 -16.59375l4.390625 0l0 16.59375l-4.390625 0zm7.875 -8.53125q0 -2.1875 1.078125 -4.234375q1.078125 -2.046875 3.046875 -3.125q1.984375 -1.078125 4.421875 -1.078125q3.7656097 0 6.1718597 2.453125q2.40625 2.4375 2.40625 6.171875q0 3.765625 -2.4375 6.25q-2.421875 2.46875 -6.1093597 2.46875q-2.28125 0 -4.359375 -1.03125q-2.0625 -1.03125 -3.140625 -3.015625q-1.078125 -2.0 -1.078125 -4.859375zm4.5 0.234375q0 2.46875 1.171875 3.78125q1.171875 1.3125 2.890625 1.3125q1.71875 0 2.8749847 -1.3125q1.171875 -1.3125 1.171875 -3.8125q0 -2.4375 -1.171875 -3.75q-1.1562347 -1.3125 -2.8749847 -1.3125q-1.71875 0 -2.890625 1.3125q-1.171875 1.3125 -1.171875 3.78125zm31.156235 8.296875l-4.390625 0l0 -8.46875q0 -2.6875 -0.28125 -3.46875q-0.28125 -0.796875 -0.921875 -1.234375q-0.625 -0.4375 -1.515625 -0.4375q-1.140625 0 -2.046875 0.625q-0.90625 0.625 -1.25 1.65625q-0.328125 1.03125 -0.328125 3.8125l0 7.515625l-4.390625 0l0 -16.59375l4.078125 0l0 2.4375q2.171875 -2.8125 5.46875 -2.8125q1.453125 0 2.65625 0.53125q1.203125 0.515625 1.8125 1.328125q0.625 0.8125 0.859375 1.84375q0.25 1.03125 0.25 2.953125l0 10.3125z" fill-rule="nonzero"/><path fill="#f1c232" d="m524.7418 408.7224l0 0c0 -54.115204 46.252136 -97.98425 103.30707 -97.98425l0 0c27.398743 0 53.675293 10.323334 73.04913 28.698944c19.37384 18.37561 30.257935 43.29828 30.257935 69.28531l0 0c0 54.115204 -46.252136 97.98425 -103.30707 97.98425l0 0c-57.05493 0 -103.30707 -43.86905 -103.30707 -97.98425z" fill-rule="evenodd"/><path fill="#000000" fill-opacity="0.0" d="m539.2424 377.84784l176.72443 0l0 50.740173l-176.72443 0z" fill-rule="evenodd"/><path fill="#ffffff" d="m554.4015 417.56784l0 -22.90625l9.734375 0q3.671875 0 5.328125 0.625q1.671875 0.609375 2.671875 2.1875q1.0 1.578125 1.0 3.609375q0 2.578125 -1.515625 4.265625q-1.515625 1.671875 -4.53125 2.109375q1.5 0.875 2.46875 1.921875q0.984375 1.046875 2.640625 3.71875l2.796875 4.46875l-5.53125 0l-3.34375 -4.984375q-1.78125 -2.671875 -2.4375 -3.359375q-0.65625 -0.703125 -1.390625 -0.953125q-0.734375 -0.265625 -2.328125 -0.265625l-0.9375 0l0 9.5625l-4.625 0zm4.625 -13.21875l3.421875 0q3.328125 0 4.15625 -0.28125q0.828125 -0.28125 1.296875 -0.96875q0.46875 -0.6875 0.46875 -1.71875q0 -1.15625 -0.625 -1.859375q-0.609375 -0.71875 -1.734375 -0.90625q-0.5625 -0.078125 -3.375 -0.078125l-3.609375 0l0 5.8125zm28.046875 7.9375l4.375 0.734375q-0.84375 2.40625 -2.671875 3.671875q-1.8125 1.25 -4.546875 1.25q-4.328125 0 -6.40625 -2.828125q-1.640625 -2.265625 -1.640625 -5.71875q0 -4.125 2.15625 -6.453125q2.15625 -2.34375 5.453125 -2.34375q3.703125 0 5.84375 2.453125q2.140625 2.4375 2.046875 7.484375l-11.0 0q0.046875 1.953125 1.0625 3.046875q1.015625 1.078125 2.53125 1.078125q1.03125 0 1.734375 -0.5625q0.703125 -0.5625 1.0625 -1.8125zm0.25 -4.4375q-0.046875 -1.90625 -0.984375 -2.890625q-0.9375 -1.0 -2.28125 -1.0q-1.4375 0 -2.375 1.046875q-0.9375 1.046875 -0.921875 2.84375l6.5625 0zm7.8125 -6.875l4.09375 0l0 2.4375q0.796875 -1.25 2.15625 -2.03125q1.359375 -0.78125 3.015625 -0.78125q2.890625 0 4.90625 2.265625q2.015625 2.265625 2.015625 6.3125q0 4.15625 -2.03125 6.46875q-2.03125 2.296875 -4.921875 2.296875q-1.375 0 -2.5 -0.546875q-1.109375 -0.546875 -2.34375 -1.875l0 8.359375l-4.390625 0l0 -22.90625zm4.34375 8.015625q0 2.796875 1.109375 4.140625q1.109375 1.328125 2.703125 1.328125q1.53125 0 2.546875 -1.21875q1.015625 -1.234375 1.015625 -4.03125q0 -2.609375 -1.046875 -3.875q-1.046875 -1.265625 -2.59375 -1.265625q-1.609375 0 -2.671875 1.25q-1.0625 1.234375 -1.0625 3.671875zm14.3125 0.046875q0 -2.1875 1.078125 -4.234375q1.078125 -2.046875 3.046875 -3.125q1.984375 -1.078125 4.421875 -1.078125q3.765625 0 6.171875 2.453125q2.40625 2.4375 2.40625 6.171875q0 3.765625 -2.4375 6.25q-2.421875 2.46875 -6.109375 2.46875q-2.28125 0 -4.359375 -1.03125q-2.0625 -1.03125 -3.140625 -3.015625q-1.078125 -2.0 -1.078125 -4.859375zm4.5 0.234375q0 2.46875 1.171875 3.78125q1.171875 1.3125 2.890625 1.3125q1.71875 0 2.875 -1.3125q1.171875 -1.3125 1.171875 -3.8125q0 -2.4375 -1.171875 -3.75q-1.15625 -1.3125 -2.875 -1.3125q-1.71875 0 -2.890625 1.3125q-1.171875 1.3125 -1.171875 3.78125zm20.265625 8.296875l-4.390625 0l0 -16.59375l4.078125 0l0 2.359375q1.046875 -1.671875 1.875 -2.203125q0.84375 -0.53125 1.90625 -0.53125q1.5 0 2.890625 0.828125l-1.359375 3.828125q-1.109375 -0.71875 -2.0625 -0.71875q-0.921875 0 -1.5625 0.515625q-0.640625 0.5 -1.015625 1.828125q-0.359375 1.328125 -0.359375 5.5625l0 5.125zm15.859375 -16.59375l0 3.5l-3.0 0l0 6.6875q0 2.03125 0.078125 2.375q0.09375 0.328125 0.390625 0.546875q0.3125 0.21875 0.75 0.21875q0.609375 0 1.765625 -0.421875l0.375 3.40625q-1.53125 0.65625 -3.46875 0.65625q-1.1875 0 -2.140625 -0.390625q-0.953125 -0.40625 -1.40625 -1.03125q-0.4375 -0.640625 -0.609375 -1.71875q-0.140625 -0.765625 -0.140625 -3.09375l0 -7.234375l-2.015625 0l0 -3.5l2.015625 0l0 -3.296875l4.40625 -2.5625l0 5.859375l3.0 0zm3.046875 -2.25l0 -4.0625l4.390625 0l0 4.0625l-4.390625 0zm0 18.84375l0 -16.59375l4.390625 0l0 16.59375l-4.390625 0zm23.984375 0l-4.390625 0l0 -8.46875q0 -2.6875 -0.28125 -3.46875q-0.28125 -0.796875 -0.921875 -1.234375q-0.625 -0.4375 -1.515625 -0.4375q-1.140625 0 -2.046875 0.625q-0.90625 0.625 -1.25 1.65625q-0.328125 1.03125 -0.328125 3.8125l0 7.515625l-4.390625 0l0 -16.59375l4.078125 0l0 2.4375q2.171875 -2.8125 5.46875 -2.8125q1.453125 0 2.65625 0.53125q1.203125 0.515625 1.8125 1.328125q0.625 0.8125 0.859375 1.84375q0.25 1.03125 0.25 2.953125l0 10.3125zm4.046875 1.09375l5.015625 0.609375q0.125 0.875 0.578125 1.203125q0.625 0.46875 1.96875 0.46875q1.71875 0 2.578125 -0.515625q0.578125 -0.34375 0.875 -1.109375q0.203125 -0.546875 0.203125 -2.015625l0 -2.421875q-1.96875 2.6875 -4.96875 2.6875q-3.34375 0 -5.296875 -2.828125q-1.53125 -2.234375 -1.53125 -5.5625q0 -4.171875 2.0 -6.375q2.015625 -2.203125 5.0 -2.203125q3.078125 0 5.078125 2.703125l0 -2.328125l4.109375 0l0 14.890625q0 2.9375 -0.484375 4.390625q-0.484375 1.453125 -1.359375 2.28125q-0.875 0.828125 -2.34375 1.296875q-1.453125 0.46875 -3.6875 0.46875q-4.21875 0 -5.984375 -1.453125q-1.765625 -1.4375 -1.765625 -3.65625q0 -0.21875 0.015625 -0.53125zm3.921875 -9.734375q0 2.640625 1.015625 3.875q1.03125 1.21875 2.53125 1.21875q1.609375 0 2.71875 -1.25q1.109375 -1.265625 1.109375 -3.734375q0 -2.578125 -1.0625 -3.828125q-1.0625 -1.25 -2.6875 -1.25q-1.578125 0 -2.609375 1.234375q-1.015625 1.21875 -1.015625 3.734375z" fill-rule="nonzero"/><path fill="#cccccc" d="m25.43832 165.76608l0 0c0 -9.46875 7.6759453 -17.1447 17.1447 -17.1447l218.90746 0c4.547058 0 8.907867 1.8063049 12.123138 5.0215607c3.2152405 3.2152557 5.0215454 7.5760803 5.0215454 12.123138l0 68.57674c0 9.468765 -7.675934 17.1447 -17.144684 17.1447l-218.90746 0l0 0c-9.468754 0 -17.1447 -7.675934 -17.1447 -17.1447z" fill-rule="evenodd"/><path fill="#000000" fill-opacity="0.0" d="m27.50145 152.41666l249.07088 0l0 95.27559l-249.07088 0z" fill-rule="evenodd"/><path fill="#666666" d="m65.45094 192.13666l0 -22.90625l16.984375 0l0 3.875l-12.359375 0l0 5.078125l11.5 0l0 3.859375l-11.5 0l0 6.234375l12.796875 0l0 3.859375l-17.421875 0zm19.203125 0l5.984375 -8.546875l-5.734375 -8.046875l5.359375 0l2.9375 4.5625l3.09375 -4.5625l5.15625 0l-5.625 7.859375l6.140625 8.734375l-5.390625 0l-3.375 -5.140625l-3.40625 5.140625l-5.140625 0zm19.78125 -16.59375l4.09375 0l0 2.4375q0.796875 -1.25 2.15625 -2.03125q1.359375 -0.78125 3.015625 -0.78125q2.890625 0 4.90625 2.265625q2.015625 2.265625 2.015625 6.3125q0 4.15625 -2.03125 6.46875q-2.03125 2.296875 -4.921875 2.296875q-1.375 0 -2.5 -0.546875q-1.109375 -0.546875 -2.34375 -1.875l0 8.359375l-4.390625 0l0 -22.90625zm4.34375 8.015625q0 2.796875 1.109375 4.140625q1.109375 1.328125 2.703125 1.328125q1.53125 0 2.546875 -1.21875q1.015625 -1.234375 1.015625 -4.03125q0 -2.609375 -1.046875 -3.875q-1.046875 -1.265625 -2.59375 -1.265625q-1.609375 0 -2.671875 1.25q-1.0625 1.234375 -1.0625 3.671875zm15.328125 8.578125l0 -22.90625l4.390625 0l0 22.90625l-4.390625 0zm7.875 -8.53125q0 -2.1875 1.078125 -4.234375q1.078125 -2.046875 3.046875 -3.125q1.984375 -1.078125 4.421875 -1.078125q3.765625 0 6.171875 2.453125q2.40625 2.4375 2.40625 6.171875q0 3.765625 -2.4375 6.25q-2.421875 2.46875 -6.109375 2.46875q-2.28125 0 -4.359375 -1.03125q-2.0625 -1.03125 -3.140625 -3.015625q-1.078125 -2.0 -1.078125 -4.859375zm4.5 0.234375q0 2.46875 1.171875 3.78125q1.171875 1.3125 2.890625 1.3125q1.71875 0 2.875 -1.3125q1.171875 -1.3125 1.171875 -3.8125q0 -2.4375 -1.171875 -3.75q-1.15625 -1.3125 -2.875 -1.3125q-1.71875 0 -2.890625 1.3125q-1.171875 1.3125 -1.171875 3.78125zm20.265625 8.296875l-4.390625 0l0 -16.59375l4.078125 0l0 2.359375q1.046875 -1.671875 1.875 -2.203125q0.84375 -0.53125 1.90625 -0.53125q1.5 0 2.890625 0.828125l-1.359375 3.828125q-1.109375 -0.71875 -2.0625 -0.71875q-0.921875 0 -1.5625 0.515625q-0.640625 0.5 -1.015625 1.828125q-0.359375 1.328125 -0.359375 5.5625l0 5.125zm11.53125 -11.53125l-3.984375 -0.71875q0.671875 -2.40625 2.3125 -3.5625q1.640625 -1.15625 4.875 -1.15625q2.9375 0 4.375 0.703125q1.4375 0.6875 2.015625 1.765625q0.59375 1.0625 0.59375 3.921875l-0.046875 5.125q0 2.1875 0.203125 3.234375q0.21875 1.03125 0.796875 2.21875l-4.34375 0q-0.171875 -0.4375 -0.421875 -1.296875q-0.109375 -0.390625 -0.15625 -0.515625q-1.125 1.09375 -2.40625 1.640625q-1.28125 0.546875 -2.734375 0.546875q-2.5625 0 -4.046875 -1.390625q-1.46875 -1.390625 -1.46875 -3.515625q0 -1.40625 0.671875 -2.5q0.671875 -1.109375 1.875 -1.6875q1.21875 -0.59375 3.5 -1.03125q3.078125 -0.578125 4.265625 -1.078125l0 -0.4375q0 -1.265625 -0.625 -1.796875q-0.625 -0.546875 -2.359375 -0.546875q-1.171875 0 -1.828125 0.46875q-0.65625 0.453125 -1.0625 1.609375zm5.875 3.5625q-0.84375 0.28125 -2.671875 0.671875q-1.828125 0.390625 -2.390625 0.765625q-0.859375 0.609375 -0.859375 1.546875q0 0.921875 0.6875 1.59375q0.6875 0.671875 1.75 0.671875q1.1875 0 2.265625 -0.78125q0.796875 -0.59375 1.046875 -1.453125q0.171875 -0.5625 0.171875 -2.140625l0 -0.875zm16.25 -8.625l0 3.5l-3.0 0l0 6.6875q0 2.03125 0.078125 2.375q0.09375 0.328125 0.390625 0.546875q0.3125 0.21875 0.75 0.21875q0.609375 0 1.765625 -0.421875l0.375 3.40625q-1.53125 0.65625 -3.46875 0.65625q-1.1875 0 -2.140625 -0.390625q-0.953125 -0.40625 -1.40625 -1.03125q-0.4375 -0.640625 -0.609375 -1.71875q-0.140625 -0.765625 -0.140625 -3.09375l0 -7.234375l-2.015625 0l0 -3.5l2.015625 0l0 -3.296875l4.40625 -2.5625l0 5.859375l3.0 0zm2.03125 8.0625q0 -2.1875 1.078125 -4.234375q1.078125 -2.046875 3.046875 -3.125q1.984375 -1.078125 4.421875 -1.078125q3.765625 0 6.171875 2.453125q2.40625 2.4375 2.40625 6.171875q0 3.765625 -2.4375 6.25q-2.421875 2.46875 -6.109375 2.46875q-2.28125 0 -4.359375 -1.03125q-2.0625 -1.03125 -3.140625 -3.015625q-1.078125 -2.0 -1.078125 -4.859375zm4.5 0.234375q0 2.46875 1.171875 3.78125q1.171875 1.3125 2.890625 1.3125q1.71875 0 2.875 -1.3125q1.171875 -1.3125 1.171875 -3.8125q0 -2.4375 -1.171875 -3.75q-1.15625 -1.3125 -2.875 -1.3125q-1.71875 0 -2.890625 1.3125q-1.171875 1.3125 -1.171875 3.78125zm20.265625 8.296875l-4.390625 0l0 -16.59375l4.078125 0l0 2.359375q1.046875 -1.671875 1.875 -2.203125q0.84375 -0.53125 1.90625 -0.53125q1.5 0 2.890625 0.828125l-1.359375 3.828125q-1.109375 -0.71875 -2.0625 -0.71875q-0.921875 0 -1.5625 0.515625q-0.640625 0.5 -1.015625 1.828125q-0.359375 1.328125 -0.359375 5.5625l0 5.125zm6.171875 -16.59375l4.671875 0l3.96875 11.78125l3.875 -11.78125l4.546875 0l-5.859375 15.96875l-1.046875 2.890625q-0.578125 1.453125 -1.109375 2.21875q-0.515625 0.765625 -1.203125 1.234375q-0.671875 0.484375 -1.671875 0.75q-0.984375 0.265625 -2.234375 0.265625q-1.265625 0 -2.484375 -0.265625l-0.390625 -3.4375q1.03125 0.203125 1.859375 0.203125q1.53125 0 2.265625 -0.90625q0.734375 -0.890625 1.125 -2.28125l-6.3125 -16.640625z" fill-rule="nonzero"/><path fill="#666666" d="m50.00563 207.23041l8.453125 0q2.859375 0 4.359375 0.4375q2.015625 0.59375 3.453125 2.109375q1.4375 1.515625 2.1875 3.71875q0.75 2.1875 0.75 5.40625q0 2.828125 -0.703125 4.875q-0.859375 2.5 -2.453125 4.046875q-1.203125 1.171875 -3.25 1.828125q-1.53125 0.484375 -4.09375 0.484375l-8.703125 0l0 -22.90625zm4.625 3.875l0 15.171875l3.453125 0q1.9375 0 2.796875 -0.21875q1.125 -0.28125 1.859375 -0.953125q0.75 -0.671875 1.21875 -2.203125q0.46875 -1.546875 0.46875 -4.203125q0 -2.65625 -0.46875 -4.078125q-0.46875 -1.421875 -1.3125 -2.21875q-0.84375 -0.796875 -2.140625 -1.078125q-0.96875 -0.21875 -3.796875 -0.21875l-2.078125 0zm21.75 7.5l-3.984375 -0.71875q0.671875 -2.40625 2.3125 -3.5625q1.640625 -1.15625 4.875 -1.15625q2.9375 0 4.375 0.703125q1.4375 0.6875 2.015625 1.765625q0.59375 1.0625 0.59375 3.921875l-0.046875 5.125q0 2.1875 0.203125 3.234375q0.21875 1.03125 0.796875 2.21875l-4.34375 0q-0.171875 -0.4375 -0.421875 -1.296875q-0.109375 -0.390625 -0.15625 -0.515625q-1.125 1.09375 -2.40625 1.640625q-1.28125 0.546875 -2.734375 0.546875q-2.5625 0 -4.046875 -1.390625q-1.46875 -1.390625 -1.46875 -3.515625q0 -1.40625 0.671875 -2.5q0.671875 -1.109375 1.875 -1.6875q1.21875 -0.59375 3.5 -1.03125q3.078125 -0.578125 4.265625 -1.078125l0 -0.4375q0 -1.265625 -0.625 -1.796875q-0.625 -0.546875 -2.359375 -0.546875q-1.171875 0 -1.828125 0.46875q-0.65625 0.453125 -1.0625 1.609375zm5.875 3.5625q-0.84375 0.28125 -2.671875 0.671875q-1.828125 0.390625 -2.390625 0.765625q-0.859375 0.609375 -0.859375 1.546875q0 0.921875 0.6875 1.59375q0.6875 0.671875 1.75 0.671875q1.1875 0 2.265625 -0.78125q0.796875 -0.59375 1.046875 -1.453125q0.171875 -0.5625 0.171875 -2.140625l0 -0.875zm16.25 -8.625l0 3.5l-3.0 0l0 6.6875q0 2.03125 0.078125 2.375q0.09375 0.328125 0.390625 0.546875q0.3125 0.21875 0.75 0.21875q0.609375 0 1.765625 -0.421875l0.375 3.40625q-1.53125 0.65625 -3.46875 0.65625q-1.1875 0 -2.140625 -0.390625q-0.953125 -0.40625 -1.40625 -1.03125q-0.4375 -0.640625 -0.609375 -1.71875q-0.140625 -0.765625 -0.140625 -3.09375l0 -7.234375l-2.015625 0l0 -3.5l2.015625 0l0 -3.296875l4.40625 -2.5625l0 5.859375l3.0 0zm6.328125 5.0625l-3.984375 -0.71875q0.671875 -2.40625 2.3125 -3.5625q1.640625 -1.15625 4.875 -1.15625q2.9375 0 4.375 0.703125q1.4375 0.6875 2.015625 1.765625q0.59375 1.0625 0.59375 3.921875l-0.046875 5.125q0 2.1875 0.203125 3.234375q0.21875 1.03125 0.796875 2.21875l-4.34375 0q-0.171875 -0.4375 -0.421875 -1.296875q-0.109375 -0.390625 -0.15625 -0.515625q-1.125 1.09375 -2.40625 1.640625q-1.28125 0.546875 -2.734375 0.546875q-2.5625 0 -4.046875 -1.390625q-1.46875 -1.390625 -1.46875 -3.515625q0 -1.40625 0.671875 -2.5q0.671875 -1.109375 1.875 -1.6875q1.21875 -0.59375 3.5 -1.03125q3.078125 -0.578125 4.265625 -1.078125l0 -0.4375q0 -1.265625 -0.625 -1.796875q-0.625 -0.546875 -2.359375 -0.546875q-1.171875 0 -1.828125 0.46875q-0.65625 0.453125 -1.0625 1.609375zm5.875 3.5625q-0.84375 0.28125 -2.671875 0.671875q-1.828125 0.390625 -2.390625 0.765625q-0.859375 0.609375 -0.859375 1.546875q0 0.921875 0.6875 1.59375q0.6875 0.671875 1.75 0.671875q1.1875 0 2.265625 -0.78125q0.796875 -0.59375 1.046875 -1.453125q0.171875 -0.5625 0.171875 -2.140625l0 -0.875zm37.03125 7.96875l-5.03125 0l-2.0 -5.203125l-9.15625 0l-1.890625 5.203125l-4.90625 0l8.921875 -22.90625l4.890625 0l9.171875 22.90625zm-8.515625 -9.0625l-3.15625 -8.5l-3.09375 8.5l6.25 0zm26.03125 9.0625l-4.390625 0l0 -8.46875q0 -2.6875 -0.28125 -3.46875q-0.28125 -0.796875 -0.921875 -1.234375q-0.625 -0.4375 -1.515625 -0.4375q-1.140625 0 -2.046875 0.625q-0.90625 0.625 -1.25 1.65625q-0.328125 1.03125 -0.328125 3.8125l0 7.515625l-4.390625 0l0 -16.59375l4.078125 0l0 2.4375q2.171875 -2.8125 5.46875 -2.8125q1.453125 0 2.65625 0.53125q1.203125 0.515625 1.8125 1.328125q0.625 0.8125 0.859375 1.84375q0.25 1.03125 0.25 2.953125l0 10.3125zm7.734375 -11.53125l-3.984375 -0.71875q0.671875 -2.40625 2.3125 -3.5625q1.640625 -1.15625 4.875 -1.15625q2.9375 0 4.375 0.703125q1.4375 0.6875 2.015625 1.765625q0.59375 1.0625 0.59375 3.921875l-0.046875 5.125q0 2.1875 0.203125 3.234375q0.21875 1.03125 0.796875 2.21875l-4.34375 0q-0.171875 -0.4375 -0.421875 -1.296875q-0.109375 -0.390625 -0.15625 -0.515625q-1.125 1.09375 -2.40625 1.640625q-1.28125 0.546875 -2.734375 0.546875q-2.5625 0 -4.046875 -1.390625q-1.46875 -1.390625 -1.46875 -3.515625q0 -1.40625 0.671875 -2.5q0.671875 -1.109375 1.875 -1.6875q1.21875 -0.59375 3.5 -1.03125q3.078125 -0.578125 4.265625 -1.078125l0 -0.4375q0 -1.265625 -0.625 -1.796875q-0.625 -0.546875 -2.359375 -0.546875q-1.171875 0 -1.828125 0.46875q-0.65625 0.453125 -1.0625 1.609375zm5.875 3.5625q-0.84375 0.28125 -2.671875 0.671875q-1.828125 0.390625 -2.390625 0.765625q-0.859375 0.609375 -0.859375 1.546875q0 0.921875 0.6875 1.59375q0.6875 0.671875 1.75 0.671875q1.1875 0 2.265625 -0.78125q0.796875 -0.59375 1.046875 -1.453125q0.171875 -0.5625 0.171875 -2.140625l0 -0.875zm8.640625 7.96875l0 -22.90625l4.390625 0l0 22.90625l-4.390625 0zm6.8125 -16.59375l4.671875 0l3.96875 11.78125l3.875 -11.78125l4.546875 0l-5.859375 15.96875l-1.046875 2.890625q-0.578125 1.453125 -1.109375 2.21875q-0.515625 0.765625 -1.203125 1.234375q-0.671875 0.484375 -1.671875 0.75q-0.984375 0.265625 -2.234375 0.265625q-1.265625 0 -2.484375 -0.265625l-0.390625 -3.4375q1.03125 0.203125 1.859375 0.203125q1.53125 0 2.265625 -0.90625q0.734375 -0.890625 1.125 -2.28125l-6.3125 -16.640625zm18.328125 11.859375l4.40625 -0.671875q0.28125 1.28125 1.140625 1.953125q0.859375 0.65625 2.40625 0.65625q1.703125 0 2.5625 -0.625q0.578125 -0.4375 0.578125 -1.171875q0 -0.5 -0.3125 -0.828125q-0.328125 -0.3125 -1.46875 -0.578125q-5.3125 -1.171875 -6.734375 -2.140625q-1.96875 -1.34375 -1.96875 -3.734375q0 -2.15625 1.703125 -3.625q1.703125 -1.46875 5.28125 -1.46875q3.40625 0 5.0625 1.109375q1.65625 1.109375 2.28125 3.28125l-4.140625 0.765625q-0.265625 -0.96875 -1.015625 -1.484375q-0.734375 -0.515625 -2.109375 -0.515625q-1.734375 0 -2.484375 0.484375q-0.5 0.34375 -0.5 0.890625q0 0.46875 0.4375 0.796875q0.59375 0.4375 4.09375 1.234375q3.515625 0.796875 4.90625 1.953125q1.375 1.171875 1.375 3.265625q0 2.28125 -1.90625 3.921875q-1.90625 1.640625 -5.640625 1.640625q-3.390625 0 -5.375 -1.375q-1.96875 -1.375 -2.578125 -3.734375zm19.34375 -14.109375l0 -4.0625l4.390625 0l0 4.0625l-4.390625 0zm0 18.84375l0 -16.59375l4.390625 0l0 16.59375l-4.390625 0zm7.34375 -4.734375l4.40625 -0.671875q0.28125 1.28125 1.140625 1.953125q0.859375 0.65625 2.40625 0.65625q1.703125 0 2.5625 -0.625q0.578125 -0.4375 0.578125 -1.171875q0 -0.5 -0.3125 -0.828125q-0.328125 -0.3125 -1.46875 -0.578125q-5.3125 -1.171875 -6.734375 -2.140625q-1.96875 -1.34375 -1.96875 -3.734375q0 -2.15625 1.703125 -3.625q1.703125 -1.46875 5.28125 -1.46875q3.40625 0 5.0625 1.109375q1.65625 1.109375 2.28125 3.28125l-4.140625 0.765625q-0.265625 -0.96875 -1.015625 -1.484375q-0.734375 -0.515625 -2.109375 -0.515625q-1.734375 0 -2.484375 0.484375q-0.5 0.34375 -0.5 0.890625q0 0.46875 0.4375 0.796875q0.59375 0.4375 4.09375 1.234375q3.515625 0.796875 4.90625 1.953125q1.375 1.171875 1.375 3.265625q0 2.28125 -1.90625 3.921875q-1.90625 1.640625 -5.640625 1.640625q-3.390625 0 -5.375 -1.375q-1.96875 -1.375 -2.578125 -3.734375z" fill-rule="nonzero"/><path fill="#000000" fill-opacity="0.0" d="m210.98947 139.20538c23.52153 -23.358833 56.401703 -43.517715 89.67444 -43.517715" fill-rule="evenodd"/><path stroke="#b7b7b7" stroke-width="3.0" stroke-linejoin="round" stroke-linecap="butt" d="m218.48288 132.16597l0.5487366 -0.48817444c0.3978424 -0.35087585 0.79771423 -0.70051575 1.1996155 -1.0488586c3.2151337 -2.7867355 6.558975 -5.490341 10.014053 -8.077705c6.9101105 -5.174736 14.265045 -9.884483 21.924698 -13.864273c7.659668 -3.979782 15.624054 -7.2296066 23.753082 -9.484489c4.064514 -1.1274414 8.170166 -2.0061417 12.299469 -2.602974c0.5161743 -0.07461548 1.0327148 -0.14481354 1.5495911 -0.21054077l0.6294861 -0.077308655" fill-rule="evenodd"/><path fill="#b7b7b7" stroke="#b7b7b7" stroke-width="3.0" stroke-linecap="butt" d="m218.48288 132.16597l0.1489563 -4.7688828l-4.445877 8.805473l9.065796 -3.887619z" fill-rule="evenodd"/><path fill="#b7b7b7" stroke="#b7b7b7" stroke-width="3.0" stroke-linecap="butt" d="m290.4016 96.311646l-3.1627808 3.5722885l9.047455 -3.9300995l-9.45697 -2.8049622z" fill-rule="evenodd"/><path fill="#000000" fill-opacity="0.0" d="m146.37263 259.78302c-4.6911774 18.783356 -11.29599 40.70462 -2.6378021 58.020996" fill-rule="evenodd"/><path stroke="#b7b7b7" stroke-width="3.0" stroke-linejoin="round" stroke-linecap="butt" d="m143.86115 269.7528l-0.21591187 0.87576294c-0.30029297 1.2304993 -0.59550476 2.4675598 -0.8814087 3.7093506c-1.1436157 4.967102 -2.1384277 10.009308 -2.7161102 15.005707c-0.577652 4.996399 -0.7381592 9.94696 -0.21310425 14.730652c0.13127136 1.1959534 0.3053894 2.3814392 0.52653503 3.5546265l0.08416748 0.43429565" fill-rule="evenodd"/><path fill="#b7b7b7" stroke="#b7b7b7" stroke-width="3.0" stroke-linecap="butt" d="m143.86115 269.7528l2.4474182 4.0956726l-1.0072632 -9.812622l-5.5358276 8.164368z" fill-rule="evenodd"/><path fill="#b7b7b7" stroke="#b7b7b7" stroke-width="3.0" stroke-linecap="butt" d="m140.44531 308.0632l-4.2758484 -2.1169434l6.162155 7.7025757l0.23065186 -9.861481z" fill-rule="evenodd"/></g></svg>