<svg version="1.1" viewBox="0.0 0.0 888.4724409448819 176.43569553805773" fill="none" stroke="none" stroke-linecap="square" stroke-miterlimit="10" xmlns:xlink="http://www.w3.org/1999/xlink" xmlns="http://www.w3.org/2000/svg"><clipPath id="p.0"><path d="m0 0l888.4724 0l0 176.4357l-888.4724 0l0 -176.4357z" clip-rule="nonzero"/></clipPath><g clip-path="url(#p.0)"><path fill="#000000" fill-opacity="0.0" d="m0 0l888.4724 0l0 176.4357l-888.4724 0z" fill-rule="evenodd"/><path fill="#000000" fill-opacity="0.0" d="m7.905512 13.527559l257.25983 0l0 67.62205l-257.25983 0z" fill-rule="evenodd"/><path fill="#434343" d="m38.796135 48.18568q0.875 -0.8125 1.78125 -0.8125q1.03125 0 1.703125 0.734375q0.671875 0.734375 0.671875 2.453125l0 3.09375q0 1.734375 -0.671875 2.46875q-0.671875 0.71875 -1.75 0.71875q-0.984375 0 -1.65625 -0.5625q-0.5 -0.421875 -0.78125 -1.71875q-0.28125 -1.3125 -1.359375 -1.9375q-1.890625 -1.125 -4.843748 -1.125q-3.40625 0 -5.453125 2.0q-2.046875 1.984375 -2.046875 5.03125q0 2.8125 1.96875 4.4375q1.96875 1.6250038 6.531248 1.6250038q3.0 0 4.90625 -0.6093788q1.125 -0.375 2.125 -1.265625q1.015625 -0.90625 1.828125 -0.90625q0.984375 0 1.703125 0.734375q0.71875 0.71875 0.71875 1.7031288q0 1.59375 -2.1875 3.015625q-3.234375 2.140625 -9.46875 2.140625q-5.593748 0 -8.718748 -2.328125q-4.21875 -3.1093788 -4.21875 -8.531254q0 -5.125 3.421875 -8.484375q3.421875 -3.375 8.9375 -3.375q1.9843731 0 3.687498 0.375q1.71875 0.375 3.171875 1.125zm33.804688 10.171875q0 2.765625 -1.546875 5.359375q-1.53125 2.5937538 -4.5625 4.140629q-3.03125 1.53125 -6.34375 1.53125q-3.28125 0 -6.28125 -1.515625q-3.0 -1.515625 -4.578125 -4.109379q-1.5625 -2.609375 -1.5625 -5.453125q0 -2.875 1.59375 -5.65625q1.59375 -2.78125 4.578125 -4.375q3.0 -1.59375 6.25 -1.59375q3.28125 0 6.3125 1.640625q3.046875 1.625 4.59375 4.375q1.546875 2.75 1.546875 5.65625zm-4.8125 0.03125q0 -2.328125 -1.65625 -4.265625q-2.28125 -2.625 -5.984375 -2.625q-3.25 0 -5.4375 2.09375q-2.171875 2.078125 -2.171875 4.8125q0 2.25 2.203125 4.21875q2.203125 1.9531288 5.40625 1.9531288q3.234375 0 5.4375 -1.9531288q2.203125 -1.96875 2.203125 -4.234375zm13.7109375 -11.0625l0 1.359375q1.171875 -1.15625 2.125 -1.578125q0.953125 -0.4375 2.1875 -0.4375q1.0625 0 2.09375 0.515625q1.03125 0.515625 2.015625 1.546875q1.234375 -1.03125 2.515625 -1.53125q1.28125 -0.515625 2.609375 -0.515625q2.671875 0 4.34375 1.4375q2.203125 1.875 2.203125 4.921875l0 10.75q1.5 0 2.21875 0.6875038q0.734375 0.671875 0.734375 1.734375q0 1.046875 -0.734375 1.71875q-0.71875 0.671875 -2.453125 0.671875l-4.578125 0l0 -15.171879q0 -1.09375 -0.40625 -1.515625q-0.390625 -0.421875 -1.203125 -0.421875q-0.796875 0 -1.484375 0.421875q-0.859375 0.578125 -2.109375 2.203125l0 9.671875q1.5 0 2.21875 0.6875038q0.734375 0.671875 0.734375 1.734375q0 1.046875 -0.734375 1.71875q-0.71875 0.671875 -2.453125 0.671875l-4.5625 0l0 -15.171879q0 -1.078125 -0.421875 -1.5q-0.40625 -0.4375 -1.21875 -0.4375q-0.84375 0 -1.671875 0.53125q-0.8125 0.515625 -1.96875 2.09375l0 9.671875q1.5 0 2.234375 0.6875038q0.75 0.671875 0.75 1.734375q0 1.046875 -0.75 1.71875q-0.734375 0.671875 -2.46875 0.671875l-4.328125 0q-1.734375 0 -2.46875 -0.671875q-0.75 -0.671875 -0.75 -1.75q0 -1.046875 0.734375 -1.71875q0.71875 -0.6718788 2.25 -0.6718788l0 -11.671875q-1.53125 0 -2.25 -0.671875q-0.734375 -0.6875 -0.734375 -1.734375q0 -1.0625 0.75 -1.71875q0.734375 -0.671875 2.46875 -0.671875l4.5625 0zm28.804688 0l0 1.359375q1.171875 -1.15625 2.125 -1.578125q0.953125 -0.4375 2.1875 -0.4375q1.0625 0 2.09375 0.515625q1.03125 0.515625 2.015625 1.546875q1.234375 -1.03125 2.515625 -1.53125q1.28125 -0.515625 2.609375 -0.515625q2.671875 0 4.3437576 1.4375q2.203125 1.875 2.203125 4.921875l0 10.75q1.5 0 2.21875 0.6875038q0.734375 0.671875 0.734375 1.734375q0 1.046875 -0.734375 1.71875q-0.71875 0.671875 -2.453125 0.671875l-4.5781326 0l0 -15.171879q0 -1.09375 -0.40625 -1.515625q-0.390625 -0.421875 -1.203125 -0.421875q-0.796875 0 -1.484375 0.421875q-0.859375 0.578125 -2.109375 2.203125l0 9.671875q1.5 0 2.21875 0.6875038q0.734375 0.671875 0.734375 1.734375q0 1.046875 -0.734375 1.71875q-0.71875 0.671875 -2.453125 0.671875l-4.5625 0l0 -15.171879q0 -1.078125 -0.421875 -1.5q-0.40625 -0.4375 -1.21875 -0.4375q-0.84375 0 -1.671875 0.53125q-0.8125 0.515625 -1.96875 2.09375l0 9.671875q1.5 0 2.234375 0.6875038q0.75 0.671875 0.75 1.734375q0 1.046875 -0.75 1.71875q-0.734375 0.671875 -2.46875 0.671875l-4.328125 0q-1.734375 0 -2.46875 -0.671875q-0.75 -0.671875 -0.75 -1.75q0 -1.046875 0.734375 -1.71875q0.71875 -0.6718788 2.25 -0.6718788l0 -11.671875q-1.53125 0 -2.25 -0.671875q-0.734375 -0.6875 -0.734375 -1.734375q0 -1.0625 0.75 -1.71875q0.734375 -0.671875 2.46875 -0.671875l4.5625 0zm40.554695 21.281254l0 -1.125q-1.8125 0.953125 -4.0 1.4375q-2.171875 0.484375 -3.953125 0.484375q-3.859375 0 -6.28125 -2.046875q-2.40625 -2.0625 -2.40625 -4.546879q0 -3.015625 3.078125 -5.609375q3.078125 -2.59375 8.515625 -2.59375q2.1875 0 5.046875 0.46875l0 -1.140625q0 -1.078125 -0.9375 -1.75q-0.921875 -0.6875 -3.515625 -0.6875q-2.140625 0 -5.53125 0.84375q-1.265625 0.296875 -1.96875 0.296875q-0.96875 0 -1.640625 -0.6875q-0.65625 -0.6875 -0.65625 -1.765625q0 -0.609375 0.234375 -1.046875q0.234375 -0.453125 0.65625 -0.71875q0.421875 -0.28125 1.75 -0.65625q1.78125 -0.484375 3.625 -0.78125q1.859375 -0.296875 3.359375 -0.296875q4.484375 0 6.953125 1.9375q2.46875 1.9375 2.46875 5.28125l0 9.890625l0.828125 0q1.734375 0 2.46875 0.6718788q0.734375 0.671875 0.734375 1.75q0 1.046875 -0.734375 1.71875q-0.734375 0.671875 -2.46875 0.671875l-5.625 0zm0 -8.609379q-2.890625 -0.5625 -5.328125 -0.5625q-2.921875 0 -5.03125 1.4375q-1.3125 0.90625 -1.3125 1.84375q0 0.6875 0.625 1.109375q1.171875 0.7656288 3.21875 0.7656288q1.734375 0 3.921875 -0.6718788q2.1875 -0.6875 3.90625 -1.859375l0 -2.0625zm19.617188 -12.671875l0 1.609375q1.3125 -1.125 2.890625 -1.6875q1.578125 -0.5625 3.4375 -0.5625q4.265625 0 6.75 2.65625q1.96875 2.109375 1.96875 5.53125l0 8.921875q1.515625 0 2.234375 0.6718788q0.734375 0.671875 0.734375 1.75q0 1.046875 -0.734375 1.71875q-0.734375 0.671875 -2.46875 0.671875l-4.34375 0q-1.734375 0 -2.46875 -0.671875q-0.734375 -0.671875 -0.734375 -1.75q0 -1.046875 0.71875 -1.71875q0.734375 -0.6718788 2.25 -0.6718788l0 -9.0625q0 -1.578125 -0.84375 -2.296875q-1.09375 -0.9375 -3.296875 -0.9375q-1.671875 0 -2.921875 0.640625q-1.25 0.640625 -3.171875 2.734375l0 8.921875q1.84375 0 2.390625 0.3593788q1.140625 0.703125 1.140625 2.0625q0 1.046875 -0.734375 1.71875q-0.734375 0.671875 -2.46875 0.671875l-5.46875 0q-1.734375 0 -2.46875 -0.671875q-0.734375 -0.671875 -0.734375 -1.75q0 -1.3125 1.125 -2.03125q0.5625 -0.3593788 2.40625 -0.3593788l0 -11.671875q-1.515625 0 -2.25 -0.671875q-0.71875 -0.6875 -0.71875 -1.734375q0 -1.0625 0.734375 -1.71875q0.734375 -0.671875 2.46875 -0.671875l4.578125 0zm44.695312 -9.125l0 25.59375l0.8125 0q1.71875 0 2.46875 0.6718788q0.75 0.671875 0.75 1.75q0 1.046875 -0.75 1.71875q-0.734375 0.671875 -2.46875 0.671875l-5.625 0l0 -1.171875q-1.640625 0.953125 -3.4375 1.453125q-1.78125 0.5 -3.703125 0.5q-5.421875 0 -8.734375 -3.125q-3.296875 -3.1406288 -3.296875 -7.812504q0 -4.875 3.46875 -8.3125q3.46875 -3.453125 8.46875 -3.453125q1.875 0 3.671875 0.578125q1.8125 0.578125 3.5625 1.71875l0 -5.96875l-0.8125 0q-1.734375 0 -2.484375 -0.671875q-0.734375 -0.671875 -0.734375 -1.71875q0 -1.078125 0.734375 -1.75q0.75 -0.671875 2.484375 -0.671875l5.625 0zm-4.8125 20.390625q0 -2.96875 -2.09375 -5.03125q-2.078125 -2.0625 -5.09375 -2.0625q-3.0 0 -5.09375 2.0625q-2.078125 2.0625 -2.078125 4.96875q0 2.640625 1.875 4.34375q1.875 1.7031288 5.296875 1.7031288q3.390625 0 5.28125 -1.7031288q1.90625 -1.703125 1.90625 -4.28125z" fill-rule="nonzero"/><path fill="#000000" fill-opacity="0.0" d="m300.07086 13.527559l257.25983 0l0 67.62205l-257.25983 0z" fill-rule="evenodd"/><path fill="#434343" d="m335.9615 58.357555q0 2.765625 -1.546875 5.359375q-1.53125 2.5937538 -4.5625 4.140629q-3.03125 1.53125 -6.34375 1.53125q-3.28125 0 -6.28125 -1.515625q-3.0 -1.515625 -4.578125 -4.109379q-1.5625 -2.609375 -1.5625 -5.453125q0 -2.875 1.59375 -5.65625q1.59375 -2.78125 4.578125 -4.375q3.0 -1.59375 6.25 -1.59375q3.28125 0 6.3125 1.640625q3.046875 1.625 4.59375 4.375q1.546875 2.75 1.546875 5.65625zm-4.8125 0.03125q0 -2.328125 -1.65625 -4.265625q-2.28125 -2.625 -5.984375 -2.625q-3.25 0 -5.4375 2.09375q-2.171875 2.078125 -2.171875 4.8125q0 2.25 2.203125 4.21875q2.203125 1.9531288 5.40625 1.9531288q3.234375 0 5.4375 -1.9531288q2.203125 -1.96875 2.203125 -4.234375zm15.1640625 7.562504l0 7.890625l2.890625 0q1.734375 0 2.46875 0.65625q0.734375 0.671875 0.734375 1.75q0 1.0625 -0.734375 1.71875q-0.734375 0.671875 -2.46875 0.671875l-8.515625 0q-1.734375 0 -2.484375 -0.671875q-0.734375 -0.65625 -0.734375 -1.71875q0 -1.078125 0.75 -1.75q0.765625 -0.65625 2.46875 -0.65625l0.828125 0l0 -21.718754l-0.828125 0q-1.734375 0 -2.484375 -0.65625q-0.734375 -0.671875 -0.734375 -1.75q0 -1.0625 0.734375 -1.71875q0.75 -0.671875 2.484375 -0.671875l5.625 0l0 1.640625q1.6875 -1.15625 3.484375 -1.71875q1.8125 -0.5625 3.71875 -0.5625q4.921875 0 8.390625 3.34375q3.46875 3.34375 3.46875 7.65625q0 4.75 -4.109375 7.843754q-3.421875 2.578125 -7.703125 2.578125q-1.859375 0 -3.671875 -0.53125q-1.796875 -0.546875 -3.578125 -1.625zm14.25 -8.250004q0 -1.0 -0.796875 -2.5625q-0.796875 -1.5625 -2.453125 -2.59375q-1.640625 -1.046875 -3.875 -1.046875q-3.578125 0 -5.6875 2.6875q-1.4375 1.859375 -1.4375 3.5625q0 1.921875 2.046875 3.75q2.0625 1.8125 5.078125 1.8125q3.046875 0 5.078125 -1.796875q2.046875 -1.8125 2.046875 -3.8125zm19.335938 -5.578125l0 9.640625q0 1.546875 0.640625 2.03125q0.984375 0.7812538 3.515625 0.7812538q3.671875 0 6.796875 -1.5781288q1.1875 -0.609375 1.875 -0.609375q0.9375 0 1.625 0.703125q0.6875 0.703125 0.6875 1.7187538q0 0.9375 -0.75 1.609375q-1.140625 1.109375 -4.53125 2.046875q-3.390625 0.921875 -5.703125 0.921875q-4.484375 0 -6.71875 -1.9375q-2.234375 -1.9375 -2.234375 -4.750004l0 -10.578125l-1.734375 0q-1.734375 0 -2.484375 -0.65625q-0.734375 -0.671875 -0.734375 -1.75q0 -1.0625 0.734375 -1.71875q0.75 -0.671875 2.484375 -0.671875l1.734375 0l0 -4.34375q0 -1.734375 0.65625 -2.46875q0.671875 -0.734375 1.75 -0.734375q1.0625 0 1.71875 0.734375q0.671875 0.734375 0.671875 2.46875l0 4.34375l8.890625 0q1.734375 0 2.46875 0.671875q0.734375 0.65625 0.734375 1.734375q0 1.0625 -0.734375 1.734375q-0.734375 0.65625 -2.46875 0.65625l-8.890625 0zm31.710938 -13.921875l0 5.09375l-5.71875 0l0 -5.09375l5.71875 0zm0.65625 9.125l0 16.46875l5.765625 0q1.734375 0 2.46875 0.6718788q0.75 0.671875 0.75 1.75q0 1.046875 -0.75 1.71875q-0.734375 0.671875 -2.46875 0.671875l-16.328125 0q-1.734375 0 -2.484375 -0.671875q-0.734375 -0.671875 -0.734375 -1.75q0 -1.046875 0.734375 -1.71875q0.75 -0.6718788 2.484375 -0.6718788l5.765625 0l0 -11.671875l-3.875 0q-1.703125 0 -2.453125 -0.65625q-0.75 -0.671875 -0.75 -1.75q0 -1.0625 0.734375 -1.71875q0.734375 -0.671875 2.46875 -0.671875l8.671875 0zm38.914062 11.03125q0 2.765625 -1.546875 5.359375q-1.53125 2.5937538 -4.5625 4.140629q-3.03125 1.53125 -6.34375 1.53125q-3.28125 0 -6.28125 -1.515625q-3.0 -1.515625 -4.578125 -4.109379q-1.5625 -2.609375 -1.5625 -5.453125q0 -2.875 1.59375 -5.65625q1.59375 -2.78125 4.578125 -4.375q3.0 -1.59375 6.25 -1.59375q3.28125 0 6.3125 1.640625q3.046875 1.625 4.59375 4.375q1.546875 2.75 1.546875 5.65625zm-4.8125 0.03125q0 -2.328125 -1.65625 -4.265625q-2.28125 -2.625 -5.984375 -2.625q-3.25 0 -5.4375 2.09375q-2.171875 2.078125 -2.171875 4.8125q0 2.25 2.203125 4.21875q2.203125 1.9531288 5.40625 1.9531288q3.234375 0 5.4375 -1.9531288q2.203125 -1.96875 2.203125 -4.234375zm16.273438 -11.0625l0 1.609375q1.3125 -1.125 2.890625 -1.6875q1.578125 -0.5625 3.4375 -0.5625q4.265625 0 6.75 2.65625q1.96875 2.109375 1.96875 5.53125l0 8.921875q1.515625 0 2.234375 0.6718788q0.734375 0.671875 0.734375 1.75q0 1.046875 -0.734375 1.71875q-0.734375 0.671875 -2.46875 0.671875l-4.34375 0q-1.734375 0 -2.46875 -0.671875q-0.734375 -0.671875 -0.734375 -1.75q0 -1.046875 0.71875 -1.71875q0.734375 -0.6718788 2.25 -0.6718788l0 -9.0625q0 -1.578125 -0.84375 -2.296875q-1.09375 -0.9375 -3.296875 -0.9375q-1.671875 0 -2.921875 0.640625q-1.25 0.640625 -3.171875 2.734375l0 8.921875q1.84375 0 2.390625 0.3593788q1.140625 0.703125 1.140625 2.0625q0 1.046875 -0.734375 1.71875q-0.734375 0.671875 -2.46875 0.671875l-5.46875 0q-1.734375 0 -2.46875 -0.671875q-0.734375 -0.671875 -0.734375 -1.75q0 -1.3125 1.125 -2.03125q0.5625 -0.3593788 2.40625 -0.3593788l0 -11.671875q-1.515625 0 -2.25 -0.671875q-0.71875 -0.6875 -0.71875 -1.734375q0 -1.0625 0.734375 -1.71875q0.734375 -0.671875 2.46875 -0.671875l4.578125 0zm38.851562 5.625q-1.171875 -0.734375 -2.46875 -1.09375q-1.28125 -0.359375 -2.6875 -0.359375q-2.78125 0 -4.421875 0.90625q-0.734375 0.40625 -0.734375 0.875q0 0.53125 0.984375 1.046875q0.75 0.375 3.359375 0.734375q4.78125 0.65625 6.65625 1.3125q2.453125 0.859375 3.78125 2.578125q1.34375 1.703125 1.34375 3.609375q0 2.5781288 -2.265625 4.312504q-3.265625 2.515625 -8.46875 2.515625q-2.078125 0 -3.859375 -0.375q-1.765625 -0.359375 -3.234375 -1.0625q-0.359375 0.296875 -0.765625 0.46875q-0.390625 0.15625 -0.8125 0.15625q-1.125 0 -1.796875 -0.734375q-0.65625 -0.734375 -0.65625 -2.46875l0 -1.6250038q0 -1.734375 0.65625 -2.46875q0.671875 -0.734375 1.75 -0.734375q0.875 0 1.453125 0.484375q0.59375 0.46875 0.921875 1.640625q1.09375 0.9375 2.640625 1.4218788q1.546875 0.484375 3.5625 0.484375q3.3125 0 5.140625 -1.0312538q0.859375 -0.515625 0.859375 -1.078125q0 -0.9375 -1.234375 -1.546875q-1.25 -0.609375 -5.140625 -1.03125q-5.78125 -0.609375 -7.734375 -2.34375q-1.9375 -1.71875 -1.9375 -4.21875q0 -2.578125 2.171875 -4.296875q2.953125 -2.34375 7.734375 -2.34375q1.671875 0 3.203125 0.328125q1.53125 0.3125 2.9375 0.96875q0.453125 -0.328125 0.828125 -0.484375q0.390625 -0.171875 0.71875 -0.171875q0.984375 0 1.640625 0.734375q0.65625 0.734375 0.65625 2.46875l0 1.171875q0 1.578125 -0.375 2.140625q-0.75 1.078125 -2.03125 1.078125q-0.875 0 -1.53125 -0.53125q-0.65625 -0.546875 -0.84375 -1.4375z" fill-rule="nonzero"/><path fill="#000000" fill-opacity="0.0" d="m592.2362 13.527559l295.0551 0l0 67.62205l-295.0551 0z" fill-rule="evenodd"/><path fill="#434343" d="m619.9706 68.60756l0 -1.125q-1.8125 0.953125 -4.0 1.4375q-2.171875 0.484375 -3.953125 0.484375q-3.859375 0 -6.28125 -2.046875q-2.40625 -2.0625 -2.40625 -4.546879q0 -3.015625 3.078125 -5.609375q3.078125 -2.59375 8.515625 -2.59375q2.1875 0 5.046875 0.46875l0 -1.140625q0 -1.078125 -0.9375 -1.75q-0.921875 -0.6875 -3.515625 -0.6875q-2.140625 0 -5.53125 0.84375q-1.265625 0.296875 -1.96875 0.296875q-0.96875 0 -1.640625 -0.6875q-0.65625 -0.6875 -0.65625 -1.765625q0 -0.609375 0.234375 -1.046875q0.234375 -0.453125 0.65625 -0.71875q0.421875 -0.28125 1.75 -0.65625q1.78125 -0.484375 3.625 -0.78125q1.859375 -0.296875 3.359375 -0.296875q4.484375 0 6.953125 1.9375q2.46875 1.9375 2.46875 5.28125l0 9.890625l0.828125 0q1.734375 0 2.46875 0.6718788q0.734375 0.671875 0.734375 1.75q0 1.046875 -0.734375 1.71875q-0.734375 0.671875 -2.46875 0.671875l-5.625 0zm0 -8.609379q-2.890625 -0.5625 -5.328125 -0.5625q-2.921875 0 -5.03125 1.4375q-1.3125 0.90625 -1.3125 1.84375q0 0.6875 0.625 1.109375q1.171875 0.7656288 3.21875 0.7656288q1.734375 0 3.921875 -0.6718788q2.1875 -0.6875 3.90625 -1.859375l0 -2.0625zm23.476562 -12.671875l0 3.0q3.03125 -2.1875 4.765625 -2.90625q1.75 -0.734375 3.28125 -0.734375q2.34375 0 4.546875 1.734375q1.5 1.171875 1.5 2.390625q0 1.03125 -0.71875 1.75q-0.71875 0.71875 -1.71875 0.71875q-0.890625 0 -1.875 -0.890625q-0.984375 -0.890625 -1.765625 -0.890625q-1.0 0 -3.015625 1.265625q-2.0 1.265625 -5.0 3.796875l0 7.234375l6.84375 0q1.734375 0 2.46875 0.6718788q0.75 0.671875 0.75 1.75q0 1.046875 -0.75 1.71875q-0.734375 0.671875 -2.46875 0.671875l-14.5 0q-1.734375 0 -2.484375 -0.671875q-0.734375 -0.671875 -0.734375 -1.75q0 -1.046875 0.734375 -1.71875q0.75 -0.6718788 2.484375 -0.6718788l2.859375 0l0 -11.671875l-1.734375 0q-1.734375 0 -2.484375 -0.65625q-0.734375 -0.671875 -0.734375 -1.75q0 -1.0625 0.734375 -1.71875q0.75 -0.671875 2.484375 -0.671875l6.53125 0zm35.085938 1.421875l0 -1.421875l5.625 0q1.734375 0 2.46875 0.671875q0.75 0.65625 0.75 1.734375q0 1.0625 -0.75 1.734375q-0.734375 0.65625 -2.46875 0.65625l-0.8125 0l0 17.500004q0 2.53125 -1.078125 4.40625q-1.0625 1.890625 -3.265625 3.25q-2.203125 1.359375 -4.96875 1.359375l-5.4375 0q-1.734375 0 -2.46875 -0.671875q-0.734375 -0.65625 -0.734375 -1.71875q0 -1.078125 0.734375 -1.75q0.734375 -0.65625 2.46875 -0.65625l5.296875 0q2.203125 0 3.421875 -1.203125q1.21875 -1.1875 1.21875 -3.015625l0 -2.359375q-1.59375 1.03125 -3.25 1.546875q-1.640625 0.53125 -3.375 0.53125q-4.90625 0 -8.21875 -3.265625q-3.296875 -3.2812538 -3.296875 -8.093754q0 -4.828125 3.296875 -8.09375q3.3125 -3.265625 8.21875 -3.265625q1.828125 0 3.46875 0.53125q1.65625 0.515625 3.15625 1.59375zm-0.015625 9.21875q0 -2.65625 -1.96875 -4.59375q-1.953125 -1.953125 -4.6875 -1.953125q-2.75 0 -4.703125 1.953125q-1.953125 1.9375 -1.953125 4.59375q0 2.671875 1.953125 4.609375q1.953125 1.9218788 4.703125 1.9218788q2.734375 0 4.6875 -1.9218788q1.96875 -1.9375 1.96875 -4.609375zm33.742188 -10.640625l0 16.46875q1.53125 0 2.25 0.6875038q0.734375 0.671875 0.734375 1.734375q0 1.046875 -0.75 1.71875q-0.734375 0.671875 -2.46875 0.671875l-4.5625 0l0 -1.109375q-2.0625 0.9375 -3.9375 1.40625q-1.875 0.484375 -3.5625 0.484375q-2.375 0 -4.109375 -1.0q-1.734375 -1.0 -2.734375 -2.765625q-0.734375 -1.265625 -0.734375 -3.1562538l0 -10.34375l-0.8125 0q-1.734375 0 -2.484375 -0.65625q-0.734375 -0.671875 -0.734375 -1.75q0 -1.0625 0.734375 -1.71875q0.75 -0.671875 2.484375 -0.671875l5.625 0l0 14.296875q0 1.515625 0.734375 2.234375q0.734375 0.7187538 2.265625 0.7187538q1.453125 0 3.125 -0.5781288q1.671875 -0.578125 4.140625 -2.078125l0 -9.796875l-1.734375 0q-1.734375 0 -2.484375 -0.65625q-0.734375 -0.671875 -0.734375 -1.75q0 -1.0625 0.734375 -1.71875q0.75 -0.671875 2.484375 -0.671875l6.53125 0zm11.1796875 0l0 1.359375q1.171875 -1.15625 2.125 -1.578125q0.953125 -0.4375 2.1875 -0.4375q1.0625 0 2.09375 0.515625q1.03125 0.515625 2.015625 1.546875q1.234375 -1.03125 2.515625 -1.53125q1.28125 -0.515625 2.609375 -0.515625q2.671875 0 4.34375 1.4375q2.203125 1.875 2.203125 4.921875l0 10.75q1.5 0 2.21875 0.6875038q0.734375 0.671875 0.734375 1.734375q0 1.046875 -0.734375 1.71875q-0.71875 0.671875 -2.453125 0.671875l-4.578125 0l0 -15.171879q0 -1.09375 -0.40625 -1.515625q-0.390625 -0.421875 -1.203125 -0.421875q-0.796875 0 -1.484375 0.421875q-0.859375 0.578125 -2.109375 2.203125l0 9.671875q1.5 0 2.21875 0.6875038q0.734375 0.671875 0.734375 1.734375q0 1.046875 -0.734375 1.71875q-0.71875 0.671875 -2.453125 0.671875l-4.5625 0l0 -15.171879q0 -1.078125 -0.421875 -1.5q-0.40625 -0.4375 -1.21875 -0.4375q-0.84375 0 -1.671875 0.53125q-0.8125 0.515625 -1.96875 2.09375l0 9.671875q1.5 0 2.234375 0.6875038q0.75 0.671875 0.75 1.734375q0 1.046875 -0.75 1.71875q-0.734375 0.671875 -2.46875 0.671875l-4.328125 0q-1.734375 0 -2.46875 -0.671875q-0.75 -0.671875 -0.75 -1.75q0 -1.046875 0.734375 -1.71875q0.71875 -0.6718788 2.25 -0.6718788l0 -11.671875q-1.53125 0 -2.25 -0.671875q-0.734375 -0.6875 -0.734375 -1.734375q0 -1.0625 0.75 -1.71875q0.734375 -0.671875 2.46875 -0.671875l4.5625 0zm48.289062 13.078125l-19.71875 0q0.75 1.875 2.65625 3.03125q1.921875 1.1406288 5.171875 1.1406288q2.671875 0 7.109375 -1.1562538q1.828125 -0.46875 2.53125 -0.46875q0.953125 0 1.609375 0.6875q0.65625 0.6718788 0.65625 1.7031288q0 0.9375 -0.703125 1.59375q-0.9375 0.875 -4.578125 1.671875q-3.625 0.78125 -6.96875 0.78125q-5.765625 0 -9.234375 -3.265625q-3.453125 -3.2656288 -3.453125 -8.015629q0 -5.0625 3.734375 -8.234375q3.75 -3.1875 8.625 -3.1875q2.921875 0 5.375 1.03125q2.453125 1.03125 3.640625 2.234375q1.6875 1.734375 2.796875 4.28125q0.75 1.78125 0.75 4.125l0 2.046875zm-5.328125 -4.8125q-1.09375 -2.0625 -2.875 -3.078125q-1.78125 -1.015625 -4.25 -1.015625q-2.4375 0 -4.21875 1.015625q-1.78125 1.015625 -2.90625 3.078125l14.25 0zm17.210938 -8.265625l0 1.609375q1.3125 -1.125 2.890625 -1.6875q1.578125 -0.5625 3.4375 -0.5625q4.265625 0 6.75 2.65625q1.96875 2.109375 1.96875 5.53125l0 8.921875q1.515625 0 2.234375 0.6718788q0.734375 0.671875 0.734375 1.75q0 1.046875 -0.734375 1.71875q-0.734375 0.671875 -2.46875 0.671875l-4.34375 0q-1.734375 0 -2.46875 -0.671875q-0.734375 -0.671875 -0.734375 -1.75q0 -1.046875 0.71875 -1.71875q0.734375 -0.6718788 2.25 -0.6718788l0 -9.0625q0 -1.578125 -0.84375 -2.296875q-1.09375 -0.9375 -3.296875 -0.9375q-1.671875 0 -2.921875 0.640625q-1.25 0.640625 -3.171875 2.734375l0 8.921875q1.84375 0 2.390625 0.3593788q1.140625 0.703125 1.140625 2.0625q0 1.046875 -0.734375 1.71875q-0.734375 0.671875 -2.46875 0.671875l-5.46875 0q-1.734375 0 -2.46875 -0.671875q-0.734375 -0.671875 -0.734375 -1.75q0 -1.3125 1.125 -2.03125q0.5625 -0.3593788 2.40625 -0.3593788l0 -11.671875q-1.515625 0 -2.25 -0.671875q-0.71875 -0.6875 -0.71875 -1.734375q0 -1.0625 0.734375 -1.71875q0.734375 -0.671875 2.46875 -0.671875l4.578125 0zm32.476562 4.796875l0 9.640625q0 1.546875 0.640625 2.03125q0.984375 0.7812538 3.515625 0.7812538q3.671875 0 6.796875 -1.5781288q1.1875 -0.609375 1.875 -0.609375q0.9375 0 1.625 0.703125q0.6875 0.703125 0.6875 1.7187538q0 0.9375 -0.75 1.609375q-1.140625 1.109375 -4.53125 2.046875q-3.390625 0.921875 -5.703125 0.921875q-4.484375 0 -6.71875 -1.9375q-2.234375 -1.9375 -2.234375 -4.750004l0 -10.578125l-1.734375 0q-1.734375 0 -2.484375 -0.65625q-0.734375 -0.671875 -0.734375 -1.75q0 -1.0625 0.734375 -1.71875q0.75 -0.671875 2.484375 -0.671875l1.734375 0l0 -4.34375q0 -1.734375 0.65625 -2.46875q0.671875 -0.734375 1.75 -0.734375q1.0625 0 1.71875 0.734375q0.671875 0.734375 0.671875 2.46875l0 4.34375l8.890625 0q1.734375 0 2.46875 0.671875q0.734375 0.65625 0.734375 1.734375q0 1.0625 -0.734375 1.734375q-0.734375 0.65625 -2.46875 0.65625l-8.890625 0zm35.179688 0.828125q-1.171875 -0.734375 -2.46875 -1.09375q-1.28125 -0.359375 -2.6875 -0.359375q-2.78125 0 -4.421875 0.90625q-0.734375 0.40625 -0.734375 0.875q0 0.53125 0.984375 1.046875q0.75 0.375 3.359375 0.734375q4.78125 0.65625 6.65625 1.3125q2.453125 0.859375 3.78125 2.578125q1.34375 1.703125 1.34375 3.609375q0 2.5781288 -2.265625 4.312504q-3.265625 2.515625 -8.46875 2.515625q-2.078125 0 -3.859375 -0.375q-1.765625 -0.359375 -3.234375 -1.0625q-0.359375 0.296875 -0.765625 0.46875q-0.390625 0.15625 -0.8125 0.15625q-1.125 0 -1.796875 -0.734375q-0.65625 -0.734375 -0.65625 -2.46875l0 -1.6250038q0 -1.734375 0.65625 -2.46875q0.671875 -0.734375 1.75 -0.734375q0.875 0 1.453125 0.484375q0.59375 0.46875 0.921875 1.640625q1.09375 0.9375 2.640625 1.4218788q1.546875 0.484375 3.5625 0.484375q3.3125 0 5.140625 -1.0312538q0.859375 -0.515625 0.859375 -1.078125q0 -0.9375 -1.234375 -1.546875q-1.25 -0.609375 -5.140625 -1.03125q-5.78125 -0.609375 -7.734375 -2.34375q-1.9375 -1.71875 -1.9375 -4.21875q0 -2.578125 2.171875 -4.296875q2.953125 -2.34375 7.734375 -2.34375q1.671875 0 3.203125 0.328125q1.53125 0.3125 2.9375 0.96875q0.453125 -0.328125 0.828125 -0.484375q0.390625 -0.171875 0.71875 -0.171875q0.984375 0 1.640625 0.734375q0.65625 0.734375 0.65625 2.46875l0 1.171875q0 1.578125 -0.375 2.140625q-0.75 1.078125 -2.03125 1.078125q-0.875 0 -1.53125 -0.53125q-0.65625 -0.546875 -0.84375 -1.4375z" fill-rule="nonzero"/><path fill="#000000" fill-opacity="0.0" d="m307.94226 74.22835l0 0c0 8.558235 -0.578125 15.496063 -1.2912903 15.496063l-77.574905 0l0 0c-0.34246826 0 -0.6709137 -1.6326141 -0.91308594 -4.5386963c-0.24215698 -2.9060745 -0.37820435 -6.847557 -0.37820435 -10.957367z" fill-rule="evenodd"/><path fill="#000000" fill-opacity="0.0" d="m307.94226 74.22835l0 0c0 8.558235 -0.578125 15.496063 -1.2912903 15.496063l-77.574905 0l0 0c-0.34246826 0 -0.6709137 -1.6326141 -0.91308594 -4.5386963c-0.24215698 -2.9060745 -0.37820435 -6.847557 -0.37820435 -10.957367" fill-rule="evenodd"/><path stroke="#999999" stroke-width="3.0" stroke-linejoin="round" stroke-linecap="butt" d="m307.94226 74.22835l0 0c0 8.558235 -0.578125 15.496063 -1.2912903 15.496063l-77.574905 0l0 0c-0.34246826 0 -0.6709137 -1.6326141 -0.91308594 -4.5386963c-0.24215698 -2.9060745 -0.37820435 -6.847557 -0.37820435 -10.957367" fill-rule="evenodd"/><path fill="#000000" fill-opacity="0.0" d="m598.6982 74.22835l0 0c0 8.558235 -0.578125 15.496063 -1.2913208 15.496063l-77.57489 0l0 0c-0.34246826 0 -0.67089844 -1.6326141 -0.91308594 -4.5386963c-0.24212646 -2.9060745 -0.37817383 -6.847557 -0.37817383 -10.957367z" fill-rule="evenodd"/><path fill="#000000" fill-opacity="0.0" d="m598.6982 74.22835l0 0c0 8.558235 -0.578125 15.496063 -1.2913208 15.496063l-77.57489 0l0 0c-0.34246826 0 -0.67089844 -1.6326141 -0.91308594 -4.5386963c-0.24212646 -2.9060745 -0.37817383 -6.847557 -0.37817383 -10.957367" fill-rule="evenodd"/><path stroke="#999999" stroke-width="3.0" stroke-linejoin="round" stroke-linecap="butt" d="m598.6982 74.22835l0 0c0 8.558235 -0.578125 15.496063 -1.2913208 15.496063l-77.57489 0l0 0c-0.34246826 0 -0.67089844 -1.6326141 -0.91308594 -4.5386963c-0.24212646 -2.9060745 -0.37817383 -6.847557 -0.37817383 -10.957367" fill-rule="evenodd"/><path fill="#000000" fill-opacity="0.0" d="m160.93439 103.76378l213.85828 0l0 55.08661l-213.85828 0z" fill-rule="evenodd"/><path fill="#999999" d="m172.18439 136.07753l3.0 -0.28125l-0.03125 0.796875q0 1.328125 0.609375 2.4375q0.609375 1.09375 2.015625 1.703125q1.40625 0.59375 3.34375 0.59375q2.75 0 4.1875 -1.203125q1.453125 -1.203125 1.453125 -2.75q0 -1.078125 -0.765625 -1.96875q-0.78125 -0.875 -4.265625 -2.375q-2.703125 -1.171875 -3.6875 -1.796875q-1.546875 -1.015625 -2.28125 -2.203125q-0.734375 -1.203125 -0.734375 -2.734375q0 -1.765625 0.96875 -3.1875q0.96875 -1.421875 2.828125 -2.171875q1.875 -0.75 4.21875 -0.75q2.796875 0 4.71875 0.9375q1.921875 0.9375 2.78125 2.5q0.875 1.5625 0.875 2.984375q0 0.140625 -0.015625 0.46875l-2.953125 0.234375q0 -0.96875 -0.171875 -1.515625q-0.3125 -0.953125 -0.96875 -1.609375q-0.65625 -0.65625 -1.8125 -1.046875q-1.140625 -0.40625 -2.5625 -0.40625q-2.5 0 -3.890625 1.125q-1.0625 0.859375 -1.0625 2.28125q0 0.84375 0.4375 1.515625q0.4375 0.65625 1.578125 1.296875q0.8125 0.453125 3.859375 1.796875q2.46875 1.09375 3.40625 1.71875q1.25 0.828125 1.921875 2.015625q0.671875 1.171875 0.671875 2.671875q0 1.859375 -1.140625 3.4375q-1.125 1.5625 -3.125 2.421875q-2.0 0.859375 -4.578125 0.859375q-3.890625 0 -6.359375 -1.6875q-2.453125 -1.703125 -2.46875 -6.109375zm24.171875 -12.296875l0.671875 -3.203125l2.8125 0l-0.671875 3.203125l-2.8125 0zm-4.125 19.703125l3.46875 -16.59375l2.828125 0l-3.46875 16.59375l-2.828125 0zm7.21875 0l3.46875 -16.59375l2.5625 0l-0.609375 2.890625q1.671875 -1.703125 3.125 -2.484375q1.453125 -0.78125 2.96875 -0.78125q2.015625 0 3.15625 1.09375q1.15625 1.09375 1.15625 2.921875q0 0.921875 -0.40625 2.90625l-2.109375 10.046875l-2.828125 0l2.203125 -10.515625q0.328125 -1.53125 0.328125 -2.265625q0 -0.828125 -0.578125 -1.34375q-0.5625 -0.515625 -1.640625 -0.515625q-2.171875 0 -3.875 1.5625q-1.6875 1.5625 -2.484375 5.359375l-1.609375 7.71875l-2.828125 0zm17.640625 1.5l2.859375 0.265625q-0.03125 0.96875 0.234375 1.453125q0.265625 0.484375 0.84375 0.75q0.765625 0.34375 1.984375 0.34375q2.5625 0 3.6875 -1.328125q0.734375 -0.890625 1.359375 -3.875l0.28125 -1.34375q-2.203125 2.234375 -4.6875 2.234375q-2.515625 0 -4.21875 -1.84375q-1.6875 -1.859375 -1.6875 -5.25q0 -2.796875 1.328125 -5.140625q1.34375 -2.34375 3.1875 -3.53125q1.84375 -1.203125 3.796875 -1.203125q3.265625 0 5.03125 3.09375l0.5625 -2.71875l2.59375 0l-3.34375 16.015625q-0.546875 2.640625 -1.4375 4.109375q-0.890625 1.484375 -2.484375 2.296875q-1.578125 0.8125 -3.65625 0.8125q-2.0 0 -3.453125 -0.515625q-1.4375 -0.515625 -2.15625 -1.515625q-0.703125 -0.984375 -0.703125 -2.265625q0 -0.390625 0.078125 -0.84375zm3.53125 -8.84375q0 1.703125 0.328125 2.5625q0.46875 1.203125 1.328125 1.84375q0.875 0.625 1.9375 0.625q1.390625 0 2.765625 -0.96875q1.375 -0.984375 2.21875 -3.03125q0.859375 -2.046875 0.859375 -3.90625q0 -2.046875 -1.140625 -3.25q-1.125 -1.21875 -2.796875 -1.21875q-1.03125 0 -2.0 0.5625q-0.96875 0.546875 -1.8125 1.6875q-0.828125 1.125 -1.265625 2.703125q-0.421875 1.578125 -0.421875 2.390625zm14.203125 7.34375l4.78125 -22.90625l2.828125 0l-4.78125 22.90625l-2.828125 0zm19.515625 -5.640625l2.75 0.28125q-0.59375 2.046875 -2.734375 3.890625q-2.125 1.84375 -5.078125 1.84375q-1.84375 0 -3.390625 -0.84375q-1.53125 -0.859375 -2.34375 -2.484375q-0.796875 -1.625 -0.796875 -3.703125q0 -2.71875 1.25 -5.265625q1.265625 -2.5625 3.265625 -3.796875q2.0 -1.25 4.328125 -1.25q2.96875 0 4.734375 1.84375q1.78125 1.84375 1.78125 5.03125q0 1.21875 -0.21875 2.5l-12.21875 0q-0.0625 0.484375 -0.0625 0.875q0 2.328125 1.0625 3.5625q1.078125 1.21875 2.625 1.21875q1.453125 0 2.859375 -0.953125q1.40625 -0.953125 2.1875 -2.75zm-8.21875 -4.109375l9.3125 0q0.015625 -0.4375 0.015625 -0.625q0 -2.125 -1.0625 -3.25q-1.0625 -1.140625 -2.734375 -1.140625q-1.8125 0 -3.3125 1.25q-1.484375 1.25 -2.21875 3.765625zm22.984375 4.078125l2.828125 -0.171875q0 1.21875 0.375 2.078125q0.375 0.859375 1.375 1.40625q1.015625 0.546875 2.359375 0.546875q1.875 0 2.8125 -0.75q0.9375 -0.75 0.9375 -1.765625q0 -0.734375 -0.5625 -1.390625q-0.578125 -0.65625 -2.828125 -1.609375q-2.234375 -0.96875 -2.859375 -1.359375q-1.046875 -0.640625 -1.578125 -1.5q-0.53125 -0.875 -0.53125 -2.0q0 -1.96875 1.5625 -3.375q1.5625 -1.40625 4.375 -1.40625q3.125 0 4.75 1.453125q1.640625 1.4375 1.703125 3.796875l-2.765625 0.1875q-0.0625 -1.5 -1.0625 -2.375q-1.0 -0.875 -2.828125 -0.875q-1.46875 0 -2.28125 0.671875q-0.8125 0.671875 -0.8125 1.453125q0 0.78125 0.703125 1.375q0.46875 0.40625 2.421875 1.25q3.25 1.40625 4.09375 2.21875q1.34375 1.296875 1.34375 3.15625q0 1.234375 -0.765625 2.421875q-0.75 1.1875 -2.3125 1.90625q-1.546875 0.703125 -3.65625 0.703125q-2.875 0 -4.890625 -1.421875q-2.015625 -1.421875 -1.90625 -4.625zm14.34375 12.03125l4.796875 -22.953125l2.609375 0l-0.484375 2.3125q1.453125 -1.515625 2.59375 -2.09375q1.15625 -0.59375 2.4375 -0.59375q2.375 0 3.9375 1.734375q1.5625 1.71875 1.5625 4.9375q0 2.59375 -0.859375 4.734375q-0.859375 2.125 -2.109375 3.421875q-1.25 1.296875 -2.53125 1.90625q-1.28125 0.609375 -2.625 0.609375q-2.984375 0 -4.625 -3.03125l-1.875 9.015625l-2.828125 0zm5.59375 -13.140625q0 1.859375 0.265625 2.578125q0.390625 1.015625 1.28125 1.640625q0.890625 0.625 2.0625 0.625q2.4375 0 3.9375 -2.734375q1.5 -2.75 1.5 -5.609375q0 -2.109375 -1.015625 -3.25q-1.0 -1.15625 -2.5 -1.15625q-1.078125 0 -2.0 0.578125q-0.921875 0.5625 -1.71875 1.703125q-0.78125 1.125 -1.296875 2.765625q-0.515625 1.640625 -0.515625 2.859375zm24.78125 4.71875q-1.46875 1.265625 -2.828125 1.859375q-1.359375 0.578125 -2.90625 0.578125q-2.296875 0 -3.703125 -1.34375q-1.40625 -1.359375 -1.40625 -3.46875q0 -1.390625 0.625 -2.453125q0.640625 -1.078125 1.6875 -1.71875q1.046875 -0.65625 2.5625 -0.9375q0.953125 -0.1875 3.609375 -0.296875q2.671875 -0.109375 3.828125 -0.5625q0.328125 -1.15625 0.328125 -1.921875q0 -0.984375 -0.71875 -1.546875q-0.984375 -0.78125 -2.875 -0.78125q-1.78125 0 -2.921875 0.796875q-1.125 0.78125 -1.640625 2.234375l-2.859375 -0.25q0.875 -2.46875 2.765625 -3.78125q1.90625 -1.3125 4.796875 -1.3125q3.078125 0 4.875 1.46875q1.375 1.09375 1.375 2.84375q0 1.328125 -0.390625 3.078125l-0.921875 4.125q-0.4375 1.96875 -0.4375 3.203125q0 0.78125 0.34375 2.25l-2.859375 0q-0.234375 -0.8125 -0.328125 -2.0625zm1.046875 -6.34375q-0.59375 0.234375 -1.28125 0.359375q-0.671875 0.125 -2.265625 0.265625q-2.46875 0.21875 -3.484375 0.5625q-1.015625 0.328125 -1.53125 1.0625q-0.515625 0.734375 -0.515625 1.625q0 1.1875 0.8125 1.953125q0.828125 0.765625 2.34375 0.765625q1.40625 0 2.703125 -0.734375q1.296875 -0.75 2.046875 -2.078125q0.75 -1.328125 1.171875 -3.78125zm17.015625 2.359375l2.828125 0.296875q-1.0625 3.109375 -3.03125 4.625q-1.953125 1.5 -4.453125 1.5q-2.703125 0 -4.390625 -1.75q-1.671875 -1.75 -1.671875 -4.890625q0 -2.71875 1.078125 -5.34375q1.078125 -2.625 3.078125 -3.984375q2.015625 -1.375 4.59375 -1.375q2.671875 0 4.234375 1.515625q1.5625 1.5 1.5625 3.984375l-2.78125 0.1875q-0.015625 -1.578125 -0.921875 -2.46875q-0.890625 -0.890625 -2.359375 -0.890625q-1.703125 0 -2.953125 1.078125q-1.25 1.078125 -1.96875 3.28125q-0.703125 2.1875 -0.703125 4.21875q0 2.125 0.9375 3.1875q0.9375 1.0625 2.3125 1.0625q1.375 0 2.625 -1.046875q1.265625 -1.046875 1.984375 -3.1875zm16.734375 0.40625l2.75 0.28125q-0.59375 2.046875 -2.734375 3.890625q-2.125 1.84375 -5.078125 1.84375q-1.84375 0 -3.390625 -0.84375q-1.53125 -0.859375 -2.34375 -2.484375q-0.796875 -1.625 -0.796875 -3.703125q0 -2.71875 1.25 -5.265625q1.265625 -2.5625 3.265625 -3.796875q2.0 -1.25 4.328125 -1.25q2.96875 0 4.734375 1.84375q1.78125 1.84375 1.78125 5.03125q0 1.21875 -0.21875 2.5l-12.21875 0q-0.0625 0.484375 -0.0625 0.875q0 2.328125 1.0625 3.5625q1.078125 1.21875 2.625 1.21875q1.453125 0 2.859375 -0.953125q1.40625 -0.953125 2.1875 -2.75zm-8.21875 -4.109375l9.3125 0q0.015625 -0.4375 0.015625 -0.625q0 -2.125 -1.0625 -3.25q-1.0625 -1.140625 -2.734375 -1.140625q-1.8125 0 -3.3125 1.25q-1.484375 1.25 -2.21875 3.765625z" fill-rule="nonzero"/><path fill="#000000" fill-opacity="0.0" d="m451.69028 103.76378l213.8583 0l0 55.08661l-213.8583 0z" fill-rule="evenodd"/><path fill="#999999" d="m462.94028 136.07753l3.0 -0.28125l-0.03125 0.796875q0 1.328125 0.609375 2.4375q0.609375 1.09375 2.015625 1.703125q1.40625 0.59375 3.34375 0.59375q2.75 0 4.1875 -1.203125q1.453125 -1.203125 1.453125 -2.75q0 -1.078125 -0.765625 -1.96875q-0.78125 -0.875 -4.265625 -2.375q-2.703125 -1.171875 -3.6875 -1.796875q-1.546875 -1.015625 -2.28125 -2.203125q-0.734375 -1.203125 -0.734375 -2.734375q0 -1.765625 0.96875 -3.1875q0.96875 -1.421875 2.828125 -2.171875q1.875 -0.75 4.21875 -0.75q2.796875 0 4.71875 0.9375q1.921875 0.9375 2.78125 2.5q0.875 1.5625 0.875 2.984375q0 0.140625 -0.015625 0.46875l-2.953125 0.234375q0 -0.96875 -0.171875 -1.515625q-0.3125 -0.953125 -0.96875 -1.609375q-0.65625 -0.65625 -1.8125 -1.046875q-1.140625 -0.40625 -2.5625 -0.40625q-2.5 0 -3.890625 1.125q-1.0625 0.859375 -1.0625 2.28125q0 0.84375 0.4375 1.515625q0.4375 0.65625 1.578125 1.296875q0.8125 0.453125 3.859375 1.796875q2.46875 1.09375 3.40625 1.71875q1.25 0.828125 1.921875 2.015625q0.671875 1.171875 0.671875 2.671875q0 1.859375 -1.140625 3.4375q-1.125 1.5625 -3.125 2.421875q-2.0 0.859375 -4.578125 0.859375q-3.890625 0 -6.359375 -1.6875q-2.453125 -1.703125 -2.46875 -6.109375zm24.171875 -12.296875l0.671875 -3.203125l2.8125 0l-0.671875 3.203125l-2.8125 0zm-4.125 19.703125l3.46875 -16.59375l2.828125 0l-3.46875 16.59375l-2.828125 0zm7.21875 0l3.46875 -16.59375l2.5625 0l-0.609375 2.890625q1.671875 -1.703125 3.125 -2.484375q1.453125 -0.78125 2.96875 -0.78125q2.015625 0 3.15625 1.09375q1.15625 1.09375 1.15625 2.921875q0 0.921875 -0.40625 2.90625l-2.109375 10.046875l-2.828125 0l2.203125 -10.515625q0.328125 -1.53125 0.328125 -2.265625q0 -0.828125 -0.578125 -1.34375q-0.5625 -0.515625 -1.640625 -0.515625q-2.171875 0 -3.875 1.5625q-1.6875 1.5625 -2.484375 5.359375l-1.609375 7.71875l-2.828125 0zm17.640625 1.5l2.859375 0.265625q-0.03125 0.96875 0.234375 1.453125q0.265625 0.484375 0.84375 0.75q0.7656555 0.34375 1.9844055 0.34375q2.5625 0 3.6875 -1.328125q0.734375 -0.890625 1.359375 -3.875l0.28125 -1.34375q-2.203125 2.234375 -4.6875 2.234375q-2.5156555 0 -4.2187805 -1.84375q-1.6875 -1.859375 -1.6875 -5.25q0 -2.796875 1.328125 -5.140625q1.34375 -2.34375 3.1875305 -3.53125q1.84375 -1.203125 3.796875 -1.203125q3.265625 0 5.03125 3.09375l0.5625 -2.71875l2.59375 0l-3.34375 16.015625q-0.546875 2.640625 -1.4375 4.109375q-0.890625 1.484375 -2.484375 2.296875q-1.578125 0.8125 -3.65625 0.8125q-2.0 0 -3.4531555 -0.515625q-1.4375 -0.515625 -2.15625 -1.515625q-0.703125 -0.984375 -0.703125 -2.265625q0 -0.390625 0.078125 -0.84375zm3.53125 -8.84375q0 1.703125 0.328125 2.5625q0.46878052 1.203125 1.3281555 1.84375q0.875 0.625 1.9375 0.625q1.390625 0 2.765625 -0.96875q1.375 -0.984375 2.21875 -3.03125q0.859375 -2.046875 0.859375 -3.90625q0 -2.046875 -1.140625 -3.25q-1.125 -1.21875 -2.796875 -1.21875q-1.03125 0 -2.0 0.5625q-0.96875 0.546875 -1.8125 1.6875q-0.828125 1.125 -1.2656555 2.703125q-0.421875 1.578125 -0.421875 2.390625zm14.2031555 7.34375l4.78125 -22.90625l2.828125 0l-4.78125 22.90625l-2.828125 0zm19.515625 -5.640625l2.75 0.28125q-0.59375 2.046875 -2.734375 3.890625q-2.125 1.84375 -5.078125 1.84375q-1.84375 0 -3.390625 -0.84375q-1.53125 -0.859375 -2.34375 -2.484375q-0.796875 -1.625 -0.796875 -3.703125q0 -2.71875 1.25 -5.265625q1.265625 -2.5625 3.265625 -3.796875q2.0 -1.25 4.328125 -1.25q2.96875 0 4.734375 1.84375q1.78125 1.84375 1.78125 5.03125q0 1.21875 -0.21875 2.5l-12.21875 0q-0.0625 0.484375 -0.0625 0.875q0 2.328125 1.0625 3.5625q1.078125 1.21875 2.625 1.21875q1.453125 0 2.859375 -0.953125q1.40625 -0.953125 2.1875 -2.75zm-8.21875 -4.109375l9.3125 0q0.015625 -0.4375 0.015625 -0.625q0 -2.125 -1.0625 -3.25q-1.0625 -1.140625 -2.734375 -1.140625q-1.8125 0 -3.3125 1.25q-1.484375 1.25 -2.21875 3.765625zm22.984375 4.078125l2.828125 -0.171875q0 1.21875 0.375 2.078125q0.375 0.859375 1.375 1.40625q1.015625 0.546875 2.359375 0.546875q1.875 0 2.8125 -0.75q0.9375 -0.75 0.9375 -1.765625q0 -0.734375 -0.5625 -1.390625q-0.578125 -0.65625 -2.828125 -1.609375q-2.234375 -0.96875 -2.859375 -1.359375q-1.046875 -0.640625 -1.578125 -1.5q-0.53125 -0.875 -0.53125 -2.0q0 -1.96875 1.5625 -3.375q1.5625 -1.40625 4.375 -1.40625q3.125 0 4.75 1.453125q1.640625 1.4375 1.703125 3.796875l-2.765625 0.1875q-0.0625 -1.5 -1.0625 -2.375q-1.0 -0.875 -2.828125 -0.875q-1.46875 0 -2.28125 0.671875q-0.8125 0.671875 -0.8125 1.453125q0 0.78125 0.703125 1.375q0.46875 0.40625 2.421875 1.25q3.25 1.40625 4.09375 2.21875q1.34375 1.296875 1.34375 3.15625q0 1.234375 -0.765625 2.421875q-0.75 1.1875 -2.3125 1.90625q-1.546875 0.703125 -3.65625 0.703125q-2.875 0 -4.890625 -1.421875q-2.015625 -1.421875 -1.90625 -4.625zm14.34375 12.03125l4.796875 -22.953125l2.609375 0l-0.484375 2.3125q1.453125 -1.515625 2.59375 -2.09375q1.15625 -0.59375 2.4375 -0.59375q2.375 0 3.9375 1.734375q1.5625 1.71875 1.5625 4.9375q0 2.59375 -0.859375 4.734375q-0.859375 2.125 -2.109375 3.421875q-1.25 1.296875 -2.53125 1.90625q-1.28125 0.609375 -2.625 0.609375q-2.984375 0 -4.625 -3.03125l-1.875 9.015625l-2.828125 0zm5.59375 -13.140625q0 1.859375 0.265625 2.578125q0.390625 1.015625 1.28125 1.640625q0.890625 0.625 2.0625 0.625q2.4375 0 3.9375 -2.734375q1.5 -2.75 1.5 -5.609375q0 -2.109375 -1.015625 -3.25q-1.0 -1.15625 -2.5 -1.15625q-1.078125 0 -2.0 0.578125q-0.921875 0.5625 -1.71875 1.703125q-0.78125 1.125 -1.296875 2.765625q-0.515625 1.640625 -0.515625 2.859375zm24.78125 4.71875q-1.46875 1.265625 -2.828125 1.859375q-1.359375 0.578125 -2.90625 0.578125q-2.296875 0 -3.703125 -1.34375q-1.40625 -1.359375 -1.40625 -3.46875q0 -1.390625 0.625 -2.453125q0.640625 -1.078125 1.6875 -1.71875q1.046875 -0.65625 2.5625 -0.9375q0.953125 -0.1875 3.609375 -0.296875q2.671875 -0.109375 3.828125 -0.5625q0.328125 -1.15625 0.328125 -1.921875q0 -0.984375 -0.71875 -1.546875q-0.984375 -0.78125 -2.875 -0.78125q-1.78125 0 -2.921875 0.796875q-1.125 0.78125 -1.640625 2.234375l-2.859375 -0.25q0.875 -2.46875 2.765625 -3.78125q1.90625 -1.3125 4.796875 -1.3125q3.078125 0 4.875 1.46875q1.375 1.09375 1.375 2.84375q0 1.328125 -0.390625 3.078125l-0.921875 4.125q-0.4375 1.96875 -0.4375 3.203125q0 0.78125 0.34375 2.25l-2.859375 0q-0.234375 -0.8125 -0.328125 -2.0625zm1.046875 -6.34375q-0.59375 0.234375 -1.28125 0.359375q-0.671875 0.125 -2.265625 0.265625q-2.46875 0.21875 -3.484375 0.5625q-1.015625 0.328125 -1.53125 1.0625q-0.515625 0.734375 -0.515625 1.625q0 1.1875 0.8125 1.953125q0.828125 0.765625 2.34375 0.765625q1.40625 0 2.703125 -0.734375q1.296875 -0.75 2.046875 -2.078125q0.75 -1.328125 1.171875 -3.78125zm17.015625 2.359375l2.828125 0.296875q-1.0625 3.109375 -3.03125 4.625q-1.953125 1.5 -4.453125 1.5q-2.703125 0 -4.390625 -1.75q-1.671875 -1.75 -1.671875 -4.890625q0 -2.71875 1.078125 -5.34375q1.078125 -2.625 3.078125 -3.984375q2.015625 -1.375 4.59375 -1.375q2.671875 0 4.234375 1.515625q1.5625 1.5 1.5625 3.984375l-2.78125 0.1875q-0.015625 -1.578125 -0.921875 -2.46875q-0.890625 -0.890625 -2.359375 -0.890625q-1.703125 0 -2.953125 1.078125q-1.25 1.078125 -1.96875 3.28125q-0.703125 2.1875 -0.703125 4.21875q0 2.125 0.9375 3.1875q0.9375 1.0625 2.3125 1.0625q1.375 0 2.625 -1.046875q1.265625 -1.046875 1.984375 -3.1875zm16.734375 0.40625l2.75 0.28125q-0.59375 2.046875 -2.734375 3.890625q-2.125 1.84375 -5.078125 1.84375q-1.84375 0 -3.390625 -0.84375q-1.53125 -0.859375 -2.34375 -2.484375q-0.796875 -1.625 -0.796875 -3.703125q0 -2.71875 1.25 -5.265625q1.265625 -2.5625 3.265625 -3.796875q2.0 -1.25 4.328125 -1.25q2.96875 0 4.734375 1.84375q1.78125 1.84375 1.78125 5.03125q0 1.21875 -0.21875 2.5l-12.21875 0q-0.0625 0.484375 -0.0625 0.875q0 2.328125 1.0625 3.5625q1.078125 1.21875 2.625 1.21875q1.453125 0 2.859375 -0.953125q1.40625 -0.953125 2.1875 -2.75zm-8.21875 -4.109375l9.3125 0q0.015625 -0.4375 0.015625 -0.625q0 -2.125 -1.0625 -3.25q-1.0625 -1.140625 -2.734375 -1.140625q-1.8125 0 -3.3125 1.25q-1.484375 1.25 -2.21875 3.765625z" fill-rule="nonzero"/></g></svg>