<svg version="1.1" viewBox="0.0 0.0 820.4278215223097 832.3175853018373" fill="none" stroke="none" stroke-linecap="square" stroke-miterlimit="10" xmlns:xlink="http://www.w3.org/1999/xlink" xmlns="http://www.w3.org/2000/svg"><clipPath id="p.0"><path d="m0 0l820.4278 0l0 832.31757l-820.4278 0l0 -832.31757z" clip-rule="nonzero"/></clipPath><g clip-path="url(#p.0)"><path fill="#000000" fill-opacity="0.0" d="m0 0l820.4278 0l0 832.31757l-820.4278 0z" fill-rule="evenodd"/><path fill="#000000" fill-opacity="0.0" d="m55.60105 190.02397l85.66929 0l0 44.44095l-85.66929 0z" fill-rule="evenodd"/><path stroke="#ff9900" stroke-width="3.0" stroke-linejoin="round" stroke-linecap="butt" d="m55.60105 190.02397l85.66929 0l0 44.44095l-85.66929 0z" fill-rule="evenodd"/><path fill="#000000" fill-opacity="0.0" d="m156.34901 190.02362l80.346466 0l0 44.44095l-80.346466 0z" fill-rule="evenodd"/><path stroke="#ffff00" stroke-width="3.0" stroke-linejoin="round" stroke-linecap="butt" d="m156.34901 190.02362l80.346466 0l0 44.44095l-80.346466 0z" fill-rule="evenodd"/><path fill="#000000" fill-opacity="0.0" d="m250.1806 190.02362l27.716553 0l0 44.44095l-27.716553 0z" fill-rule="evenodd"/><path stroke="#00ff00" stroke-width="3.0" stroke-linejoin="round" stroke-linecap="butt" d="m250.1806 190.02362l27.716553 0l0 44.44095l-27.716553 0z" fill-rule="evenodd"/><path fill="#000000" d="m21.501312 21.787401l781.2599 0l0 325.22833l-781.2599 0z" fill-rule="evenodd"/><path stroke="#595959" stroke-width="1.0" stroke-linejoin="round" stroke-linecap="butt" d="m21.501312 21.787401l781.2599 0l0 325.22833l-781.2599 0z" fill-rule="evenodd"/><path fill="#ffffff" d="m63.798187 61.507404l0 -1.921875q-2.6875 2.4375 -5.8125 2.4375q-1.921875 0 -2.921875 -1.046875q-1.296875 -1.375 -1.296875 -3.203125l0 -8.46875l-1.765625 0q-0.46875 0 -0.671875 -0.1875q-0.203125 -0.1875 -0.203125 -0.484375q0 -0.28125 0.203125 -0.46875q0.203125 -0.1875 0.671875 -0.1875l3.078125 0l0 9.796875q0 1.28125 0.8125 2.109375q0.8125 0.828125 2.03125 0.828125q3.203125 0 5.875 -2.9375l0 -8.46875l-2.421875 0q-0.46875 0 -0.671875 -0.1875q-0.203125 -0.1875 -0.203125 -0.484375q0 -0.28125 0.203125 -0.46875q0.203125 -0.1875 0.671875 -0.1875l3.734375 0l0 12.21875l1.109375 0q0.46875 0 0.671875 0.1875q0.203125 0.171875 0.203125 0.46875q0 0.28125 -0.203125 0.46875q-0.203125 0.1875 -0.671875 0.1875l-2.421875 0zm19.046875 -12.671875q0 -0.453125 0.1875 -0.65625q0.1875 -0.203125 0.46875 -0.203125q0.296875 0 0.484375 0.203125q0.1875 0.203125 0.1875 0.6875l0 2.25q0 0.46875 -0.1875 0.671875q-0.1875 0.203125 -0.484375 0.203125q-0.265625 0 -0.453125 -0.171875q-0.171875 -0.171875 -0.203125 -0.5625q-0.09375 -0.9375 -0.96875 -1.546875q-1.28125 -0.875 -3.390625 -0.875q-2.203125 0 -3.421875 0.890625q-0.921875 0.671875 -0.921875 1.5q0 0.9375 1.09375 1.5625q0.75 0.4375 2.84375 0.671875q2.734375 0.296875 3.796875 0.671875q1.515625 0.546875 2.25 1.515625q0.75 0.96875 0.75 2.09375q0 1.671875 -1.609375 2.984375q-1.609375 1.296875 -4.71875 1.296875q-3.109375 0 -5.09375 -1.578125q0 0.53125 -0.0625 0.6875q-0.0625 0.15625 -0.234375 0.265625q-0.15625 0.109375 -0.359375 0.109375q-0.28125 0 -0.46875 -0.203125q-0.1875 -0.203125 -0.1875 -0.671875l0 -2.703125q0 -0.46875 0.171875 -0.671875q0.1875 -0.203125 0.484375 -0.203125q0.28125 0 0.46875 0.203125q0.203125 0.1875 0.203125 0.515625q0 0.71875 0.359375 1.203125q0.546875 0.75 1.734375 1.25q1.203125 0.484375 2.9375 0.484375q2.5625 0 3.8125 -0.953125q1.25 -0.953125 1.25 -2.015625q0 -1.21875 -1.265625 -1.953125q-1.28125 -0.734375 -3.734375 -0.984375q-2.4375 -0.25 -3.5 -0.65625q-1.0625 -0.40625 -1.65625 -1.21875q-0.59375 -0.8125 -0.59375 -1.75q0 -1.6875 1.65625 -2.671875q1.65625 -1.0 3.953125 -1.0q2.71875 0 4.421875 1.328125zm21.96875 6.21875l-13.375 0q0.34375 2.546875 2.125 4.109375q1.796875 1.546875 4.4375 1.546875q1.46875 0 3.078125 -0.484375q1.609375 -0.484375 2.625 -1.28125q0.296875 -0.234375 0.515625 -0.234375q0.25 0 0.4375 0.203125q0.1875 0.1875 0.1875 0.453125q0 0.265625 -0.25 0.515625q-0.75 0.78125 -2.671875 1.46875q-1.90625 0.671875 -3.921875 0.671875q-3.375 0 -5.640625 -2.203125q-2.25 -2.21875 -2.25 -5.359375q0 -2.859375 2.109375 -4.90625q2.125 -2.046875 5.25 -2.046875q3.21875 0 5.296875 2.109375q2.078125 2.09375 2.046875 5.4375zm-1.328125 -1.328125q-0.390625 -2.171875 -2.0625 -3.53125q-1.65625 -1.359375 -3.953125 -1.359375q-2.296875 0 -3.953125 1.34375q-1.65625 1.34375 -2.0625 3.546875l12.03125 0zm11.859375 -5.75l0 3.3125q2.5625 -2.3125 3.828125 -2.96875q1.28125 -0.671875 2.359375 -0.671875q1.171875 0 2.171875 0.796875q1.015625 0.78125 1.015625 1.1875q0 0.296875 -0.203125 0.5q-0.1875 0.1875 -0.484375 0.1875q-0.15625 0 -0.265625 -0.046875q-0.109375 -0.0625 -0.40625 -0.359375q-0.546875 -0.546875 -0.953125 -0.75q-0.40625 -0.203125 -0.796875 -0.203125q-0.859375 0 -2.078125 0.6875q-1.203125 0.6875 -4.1875 3.359375l0 7.1875l5.8125 0q0.484375 0 0.6875 0.1875q0.203125 0.171875 0.203125 0.46875q0 0.28125 -0.203125 0.46875q-0.203125 0.1875 -0.6875 0.1875l-10.296875 0q-0.46875 0 -0.671875 -0.171875q-0.203125 -0.1875 -0.203125 -0.46875q0 -0.265625 0.1875 -0.4375q0.203125 -0.1875 0.6875 -0.1875l3.171875 0l0 -10.9375l-2.421875 0q-0.46875 0 -0.671875 -0.1875q-0.203125 -0.1875 -0.203125 -0.484375q0 -0.28125 0.1875 -0.46875q0.203125 -0.1875 0.6875 -0.1875l3.734375 0zm27.46875 3.546875l0 1.875l-13.390625 0l0 -1.875l13.390625 0zm8.265625 -3.546875l0 1.984375q1.375 -1.390625 2.484375 -1.921875q1.109375 -0.53125 2.5 -0.53125q1.5 0 2.734375 0.640625q0.875 0.46875 1.578125 1.5625q0.71875 1.078125 0.71875 2.21875l0 8.265625l1.109375 0q0.46875 0 0.671875 0.1875q0.203125 0.171875 0.203125 0.46875q0 0.28125 -0.203125 0.46875q-0.203125 0.1875 -0.671875 0.1875l-3.515625 0q-0.484375 0 -0.6875 -0.1875q-0.203125 -0.1875 -0.203125 -0.46875q0 -0.296875 0.203125 -0.46875q0.203125 -0.1875 0.6875 -0.1875l1.09375 0l0 -8.046875q0 -1.390625 -1.015625 -2.34375q-1.015625 -0.96875 -2.71875 -0.96875q-1.296875 0 -2.25 0.53125q-0.953125 0.515625 -2.71875 2.59375l0 8.234375l1.484375 0q0.46875 0 0.671875 0.1875q0.203125 0.171875 0.203125 0.46875q0 0.28125 -0.203125 0.46875q-0.203125 0.1875 -0.671875 0.1875l-4.28125 0q-0.46875 0 -0.671875 -0.1875q-0.203125 -0.1875 -0.203125 -0.46875q0 -0.296875 0.203125 -0.46875q0.203125 -0.1875 0.671875 -0.1875l1.484375 0l0 -10.890625l-1.109375 0q-0.46875 0 -0.671875 -0.1875q-0.203125 -0.1875 -0.203125 -0.484375q0 -0.28125 0.203125 -0.46875q0.203125 -0.1875 0.671875 -0.1875l2.421875 0zm27.21875 13.53125l0 -1.890625q-2.859375 2.40625 -6.109375 2.40625q-2.359375 0 -3.6875 -1.1875q-1.328125 -1.203125 -1.328125 -2.9375q0 -1.90625 1.75 -3.328125q1.75 -1.421875 5.109375 -1.421875q0.90625 0 1.96875 0.125q1.0625 0.109375 2.296875 0.359375l0 -2.125q0 -1.078125 -1.0 -1.875q-1.0 -0.796875 -3.0 -0.796875q-1.53125 0 -4.296875 0.890625q-0.5 0.15625 -0.640625 0.15625q-0.25 0 -0.4375 -0.1875q-0.171875 -0.1875 -0.171875 -0.46875q0 -0.265625 0.15625 -0.421875q0.21875 -0.234375 1.765625 -0.640625q2.4375 -0.65625 3.6875 -0.65625q2.484375 0 3.875 1.234375q1.390625 1.21875 1.390625 2.765625l0 8.6875l1.75 0q0.484375 0 0.6875 0.1875q0.203125 0.171875 0.203125 0.46875q0 0.28125 -0.203125 0.46875q-0.203125 0.1875 -0.6875 0.1875l-3.078125 0zm0 -6.53125q-0.921875 -0.265625 -1.953125 -0.390625q-1.03125 -0.125 -2.171875 -0.125q-2.859375 0 -4.46875 1.234375q-1.21875 0.921875 -1.21875 2.203125q0 1.1875 0.921875 2.0q0.9375 0.8125 2.71875 0.8125q1.703125 0 3.15625 -0.671875q1.46875 -0.6875 3.015625 -2.171875l0 -2.890625zm9.453125 -7.0l0 1.328125q1.671875 -1.796875 3.359375 -1.796875q1.015625 0 1.78125 0.546875q0.765625 0.53125 1.28125 1.625q0.875 -1.09375 1.765625 -1.625q0.90625 -0.546875 1.8125 -0.546875q1.421875 0 2.265625 0.921875q1.109375 1.1875 1.109375 2.59375l0 9.171875l1.109375 0q0.46875 0 0.671875 0.1875q0.203125 0.171875 0.203125 0.46875q0 0.28125 -0.203125 0.46875q-0.203125 0.1875 -0.671875 0.1875l-2.421875 0l0 -10.359375q0 -1.0 -0.609375 -1.65625q-0.609375 -0.65625 -1.40625 -0.65625q-0.71875 0 -1.515625 0.546875q-0.796875 0.53125 -1.8125 2.109375l0 8.703125l1.09375 0q0.46875 0 0.671875 0.1875q0.203125 0.171875 0.203125 0.46875q0 0.28125 -0.203125 0.46875q-0.203125 0.1875 -0.671875 0.1875l-2.421875 0l0 -10.265625q0 -1.046875 -0.625 -1.71875q-0.609375 -0.6875 -1.375 -0.6875q-0.703125 0 -1.390625 0.453125q-0.953125 0.640625 -2.0 2.203125l0 8.703125l1.109375 0q0.46875 0 0.671875 0.1875q0.203125 0.171875 0.203125 0.46875q0 0.28125 -0.203125 0.46875q-0.203125 0.1875 -0.671875 0.1875l-3.53125 0q-0.46875 0 -0.671875 -0.1875q-0.203125 -0.1875 -0.203125 -0.46875q0 -0.296875 0.203125 -0.46875q0.203125 -0.1875 0.671875 -0.1875l1.109375 0l0 -10.890625l-1.109375 0q-0.46875 0 -0.671875 -0.1875q-0.203125 -0.1875 -0.203125 -0.484375q0 -0.28125 0.203125 -0.46875q0.203125 -0.1875 0.671875 -0.1875l2.421875 0zm32.28125 7.078125l-13.375 0q0.34375 2.546875 2.125 4.109375q1.796875 1.546875 4.4375 1.546875q1.46875 0 3.078125 -0.484375q1.609375 -0.484375 2.625 -1.28125q0.296875 -0.234375 0.515625 -0.234375q0.25 0 0.4375 0.203125q0.1875 0.1875 0.1875 0.453125q0 0.265625 -0.25 0.515625q-0.75 0.78125 -2.671875 1.46875q-1.90625 0.671875 -3.921875 0.671875q-3.375 0 -5.640625 -2.203125q-2.25 -2.21875 -2.25 -5.359375q0 -2.859375 2.109375 -4.90625q2.125 -2.046875 5.25 -2.046875q3.21875 0 5.296875 2.109375q2.078125 2.09375 2.046875 5.4375zm-1.328125 -1.328125q-0.390625 -2.171875 -2.0625 -3.53125q-1.65625 -1.359375 -3.953125 -1.359375q-2.296875 0 -3.953125 1.34375q-1.65625 1.34375 -2.0625 3.546875l12.03125 0zm13.15625 -5.75l0.5625 0q0.875 0 1.5 0.625q0.625 0.625 0.625 1.484375q0 0.921875 -0.640625 1.53125q-0.625 0.609375 -1.484375 0.609375l-0.5625 0q-0.875 0 -1.5 -0.625q-0.625 -0.625 -0.625 -1.484375q0 -0.921875 0.625 -1.53125q0.640625 -0.609375 1.5 -0.609375zm0 9.765625l0.5625 0q0.875 0 1.5 0.625q0.625 0.609375 0.625 1.484375q0 0.90625 -0.640625 1.515625q-0.625 0.609375 -1.484375 0.609375l-0.5625 0q-0.875 0 -1.5 -0.609375q-0.625 -0.625 -0.625 -1.5q0 -0.90625 0.625 -1.515625q0.640625 -0.609375 1.5 -0.609375zm25.546875 -6.671875q0.25 0 0.4375 0.1875q0.1875 0.1875 0.1875 0.4375q0 0.546875 -1.359375 1.8125q-1.359375 1.25 -2.5 1.25q-0.703125 0 -1.421875 -0.390625q-0.71875 -0.40625 -2.046875 -1.65625q-0.890625 -0.84375 -1.359375 -1.109375q-0.453125 -0.265625 -0.828125 -0.265625q-0.453125 0 -0.859375 0.25q-0.546875 0.3125 -1.5 1.421875q-0.453125 0.515625 -0.59375 0.59375q-0.125 0.078125 -0.28125 0.078125q-0.265625 0 -0.453125 -0.171875q-0.171875 -0.1875 -0.171875 -0.453125q0 -0.25 0.40625 -0.765625q1.03125 -1.28125 1.84375 -1.765625q0.8125 -0.5 1.578125 -0.5q0.640625 0 1.265625 0.3125q0.625 0.296875 1.609375 1.1875q1.578125 1.453125 1.953125 1.6875q0.390625 0.21875 0.765625 0.21875q1.109375 0 2.359375 -1.59375q0.453125 -0.578125 0.609375 -0.671875q0.15625 -0.09375 0.359375 -0.09375zm28.09375 -3.09375l0 1.984375q1.375 -1.390625 2.484375 -1.921875q1.109375 -0.53125 2.5 -0.53125q1.5 0 2.734375 0.640625q0.875 0.46875 1.578125 1.5625q0.71875 1.078125 0.71875 2.21875l0 8.265625l1.109375 0q0.46875 0 0.671875 0.1875q0.203125 0.171875 0.203125 0.46875q0 0.28125 -0.203125 0.46875q-0.203125 0.1875 -0.671875 0.1875l-3.515625 0q-0.484375 0 -0.6875 -0.1875q-0.203125 -0.1875 -0.203125 -0.46875q0 -0.296875 0.203125 -0.46875q0.203125 -0.1875 0.6875 -0.1875l1.09375 0l0 -8.046875q0 -1.390625 -1.015625 -2.34375q-1.015625 -0.96875 -2.71875 -0.96875q-1.296875 0 -2.25 0.53125q-0.953125 0.515625 -2.71875 2.59375l0 8.234375l1.484375 0q0.46875 0 0.671875 0.1875q0.203125 0.171875 0.203125 0.46875q0 0.28125 -0.203125 0.46875q-0.203125 0.1875 -0.671875 0.1875l-4.28125 0q-0.46875 0 -0.671875 -0.1875q-0.203125 -0.1875 -0.203125 -0.46875q0 -0.296875 0.203125 -0.46875q0.203125 -0.1875 0.671875 -0.1875l1.484375 0l0 -10.890625l-1.109375 0q-0.46875 0 -0.671875 -0.1875q-0.203125 -0.1875 -0.203125 -0.484375q0 -0.28125 0.203125 -0.46875q0.203125 -0.1875 0.671875 -0.1875l2.421875 0zm27.21875 13.53125l0 -1.890625q-2.859375 2.40625 -6.109375 2.40625q-2.359375 0 -3.6875 -1.1875q-1.328125 -1.203125 -1.328125 -2.9375q0 -1.90625 1.75 -3.328125q1.75 -1.421875 5.109375 -1.421875q0.90625 0 1.96875 0.125q1.0625 0.109375 2.296875 0.359375l0 -2.125q0 -1.078125 -1.0 -1.875q-1.0 -0.796875 -3.0 -0.796875q-1.53125 0 -4.296875 0.890625q-0.5 0.15625 -0.640625 0.15625q-0.25 0 -0.4375 -0.1875q-0.171875 -0.1875 -0.171875 -0.46875q0 -0.265625 0.15625 -0.421875q0.21875 -0.234375 1.765625 -0.640625q2.4375 -0.65625 3.6875 -0.65625q2.484375 0 3.875 1.234375q1.390625 1.21875 1.390625 2.765625l0 8.6875l1.75 0q0.484375 0 0.6875 0.1875q0.203125 0.171875 0.203125 0.46875q0 0.28125 -0.203125 0.46875q-0.203125 0.1875 -0.6875 0.1875l-3.078125 0zm0 -6.53125q-0.921875 -0.265625 -1.953125 -0.390625q-1.03125 -0.125 -2.171875 -0.125q-2.859375 0 -4.46875 1.234375q-1.21875 0.921875 -1.21875 2.203125q0 1.1875 0.921875 2.0q0.9375 0.8125 2.71875 0.8125q1.703125 0 3.15625 -0.671875q1.46875 -0.6875 3.015625 -2.171875l0 -2.890625zm9.453125 -7.0l0 1.328125q1.671875 -1.796875 3.359375 -1.796875q1.015625 0 1.78125 0.546875q0.765625 0.53125 1.28125 1.625q0.875 -1.09375 1.765625 -1.625q0.90625 -0.546875 1.8125 -0.546875q1.421875 0 2.265625 0.921875q1.109375 1.1875 1.109375 2.59375l0 9.171875l1.109375 0q0.46875 0 0.671875 0.1875q0.203125 0.171875 0.203125 0.46875q0 0.28125 -0.203125 0.46875q-0.203125 0.1875 -0.671875 0.1875l-2.421875 0l0 -10.359375q0 -1.0 -0.609375 -1.65625q-0.609375 -0.65625 -1.40625 -0.65625q-0.71875 0 -1.515625 0.546875q-0.796875 0.53125 -1.8125 2.109375l0 8.703125l1.09375 0q0.46875 0 0.671875 0.1875q0.203125 0.171875 0.203125 0.46875q0 0.28125 -0.203125 0.46875q-0.203125 0.1875 -0.671875 0.1875l-2.421875 0l0 -10.265625q0 -1.046875 -0.625 -1.71875q-0.609375 -0.6875 -1.375 -0.6875q-0.703125 0 -1.390625 0.453125q-0.953125 0.640625 -2.0 2.203125l0 8.703125l1.109375 0q0.46875 0 0.671875 0.1875q0.203125 0.171875 0.203125 0.46875q0 0.28125 -0.203125 0.46875q-0.203125 0.1875 -0.671875 0.1875l-3.53125 0q-0.46875 0 -0.671875 -0.1875q-0.203125 -0.1875 -0.203125 -0.46875q0 -0.296875 0.203125 -0.46875q0.203125 -0.1875 0.671875 -0.1875l1.109375 0l0 -10.890625l-1.109375 0q-0.46875 0 -0.671875 -0.1875q-0.203125 -0.1875 -0.203125 -0.484375q0 -0.28125 0.203125 -0.46875q0.203125 -0.1875 0.671875 -0.1875l2.421875 0zm32.28125 7.078125l-13.375 0q0.34375 2.546875 2.125 4.109375q1.796875 1.546875 4.4375 1.546875q1.46875 0 3.078125 -0.484375q1.609375 -0.484375 2.625 -1.28125q0.296875 -0.234375 0.515625 -0.234375q0.25 0 0.4375 0.203125q0.1875 0.1875 0.1875 0.453125q0 0.265625 -0.25 0.515625q-0.75 0.78125 -2.671875 1.46875q-1.90625 0.671875 -3.921875 0.671875q-3.375 0 -5.640625 -2.203125q-2.25 -2.21875 -2.25 -5.359375q0 -2.859375 2.109375 -4.90625q2.125 -2.046875 5.25 -2.046875q3.21875 0 5.296875 2.109375q2.078125 2.09375 2.046875 5.4375zm-1.328125 -1.328125q-0.390625 -2.171875 -2.0625 -3.53125q-1.65625 -1.359375 -3.953125 -1.359375q-2.296875 0 -3.953125 1.34375q-1.65625 1.34375 -2.0625 3.546875l12.03125 0zm12.75 -10.9375l0 -1.65625q0 -0.484375 0.171875 -0.6875q0.1875 -0.203125 0.484375 -0.203125q0.296875 0 0.46875 0.203125q0.1875 0.203125 0.1875 0.6875l0 1.65625q1.0625 0.09375 1.75 0.34375q0.6875 0.234375 1.625 0.859375q0.015625 -0.390625 0.203125 -0.578125q0.1875 -0.1875 0.453125 -0.1875q0.296875 0 0.484375 0.203125q0.1875 0.203125 0.1875 0.671875l0 1.953125q0 0.46875 -0.1875 0.671875q-0.1875 0.203125 -0.484375 0.203125q-0.25 0 -0.421875 -0.15625q-0.171875 -0.171875 -0.234375 -0.5625q-0.09375 -0.734375 -0.96875 -1.328125q-1.28125 -0.84375 -3.015625 -0.84375q-1.765625 0 -2.921875 1.03125q-1.140625 1.03125 -1.140625 2.328125q0 1.296875 1.015625 1.984375q0.765625 0.53125 3.21875 1.0q2.46875 0.453125 3.34375 0.859375q1.25 0.546875 1.859375 1.484375q0.625 0.9375 0.625 2.265625q0 1.78125 -1.390625 3.140625q-1.390625 1.34375 -4.0 1.609375l0 3.859375q0 0.4843712 -0.1875 0.6874962q-0.171875 0.203125 -0.46875 0.203125q-0.296875 0 -0.484375 -0.203125q-0.171875 -0.203125 -0.171875 -0.6874962l0 -3.859375q-2.40625 -0.15625 -4.046875 -1.5625q0 0.6875 -0.0625 0.84375q-0.046875 0.140625 -0.21875 0.265625q-0.171875 0.109375 -0.375 0.109375q-0.28125 0 -0.46875 -0.203125q-0.1875 -0.203125 -0.1875 -0.671875l0 -2.5625q0 -0.46875 0.171875 -0.671875q0.1875 -0.21875 0.484375 -0.21875q0.28125 0 0.484375 0.203125q0.140625 0.140625 0.171875 0.625q0.09375 0.828125 1.328125 1.703125q1.25 0.859375 3.375 0.859375q2.203125 0 3.46875 -1.046875q1.265625 -1.046875 1.265625 -2.4375q0 -0.921875 -0.46875 -1.578125q-0.46875 -0.65625 -1.46875 -1.078125q-0.65625 -0.265625 -2.75 -0.65625q-3.03125 -0.59375 -4.203125 -1.53125q-1.1875 -0.9375 -1.1875 -2.75q0 -1.6875 1.28125 -3.015625q1.28125 -1.328125 3.40625 -1.578125z" fill-rule="nonzero"/><path fill="#000000" d="m21.501312 481.56693l781.2599 0l0 325.22836l-781.2599 0z" fill-rule="evenodd"/><path stroke="#595959" stroke-width="1.0" stroke-linejoin="round" stroke-linecap="butt" d="m21.501312 481.56693l781.2599 0l0 325.22836l-781.2599 0z" fill-rule="evenodd"/><path fill="#ffffff" d="m63.798187 521.2869l0 -1.921875q-2.6875 2.4375 -5.8125 2.4375q-1.921875 0 -2.921875 -1.046875q-1.296875 -1.375 -1.296875 -3.203125l0 -8.46875l-1.765625 0q-0.46875 0 -0.671875 -0.1875q-0.203125 -0.1875 -0.203125 -0.484375q0 -0.28125 0.203125 -0.46875q0.203125 -0.1875 0.671875 -0.1875l3.078125 0l0 9.796875q0 1.28125 0.8125 2.109375q0.8125 0.828125 2.03125 0.828125q3.203125 0 5.875 -2.9375l0 -8.46875l-2.421875 0q-0.46875 0 -0.671875 -0.1875q-0.203125 -0.1875 -0.203125 -0.484375q0 -0.28125 0.203125 -0.46875q0.203125 -0.1875 0.671875 -0.1875l3.734375 0l0 12.21875l1.109375 0q0.46875 0 0.671875 0.1875q0.203125 0.171875 0.203125 0.46875q0 0.28125 -0.203125 0.46875q-0.203125 0.1875 -0.671875 0.1875l-2.421875 0zm19.046875 -12.671875q0 -0.453125 0.1875 -0.65625q0.1875 -0.203125 0.46875 -0.203125q0.296875 0 0.484375 0.203125q0.1875 0.203125 0.1875 0.6875l0 2.25q0 0.46875 -0.1875 0.671875q-0.1875 0.203125 -0.484375 0.203125q-0.265625 0 -0.453125 -0.171875q-0.171875 -0.171875 -0.203125 -0.5625q-0.09375 -0.9375 -0.96875 -1.546875q-1.28125 -0.875 -3.390625 -0.875q-2.203125 0 -3.421875 0.890625q-0.921875 0.671875 -0.921875 1.5q0 0.9375 1.09375 1.5625q0.75 0.4375 2.84375 0.671875q2.734375 0.296875 3.796875 0.671875q1.515625 0.546875 2.25 1.515625q0.75 0.96875 0.75 2.09375q0 1.671875 -1.609375 2.984375q-1.609375 1.296875 -4.71875 1.296875q-3.109375 0 -5.09375 -1.578125q0 0.53125 -0.0625 0.6875q-0.0625 0.15625 -0.234375 0.265625q-0.15625 0.109375 -0.359375 0.109375q-0.28125 0 -0.46875 -0.203125q-0.1875 -0.203125 -0.1875 -0.671875l0 -2.703125q0 -0.46875 0.171875 -0.671875q0.1875 -0.203125 0.484375 -0.203125q0.28125 0 0.46875 0.203125q0.203125 0.1875 0.203125 0.515625q0 0.71875 0.359375 1.203125q0.546875 0.75 1.734375 1.25q1.203125 0.484375 2.9375 0.484375q2.5625 0 3.8125 -0.953125q1.25 -0.953125 1.25 -2.015625q0 -1.21875 -1.265625 -1.953125q-1.28125 -0.734375 -3.734375 -0.984375q-2.4375 -0.25 -3.5 -0.65625q-1.0625 -0.40625 -1.65625 -1.21875q-0.59375 -0.8125 -0.59375 -1.75q0 -1.6875 1.65625 -2.671875q1.65625 -1.0 3.953125 -1.0q2.71875 0 4.421875 1.328125zm21.96875 6.21875l-13.375 0q0.34375 2.546875 2.125 4.109375q1.796875 1.546875 4.4375 1.546875q1.46875 0 3.078125 -0.484375q1.609375 -0.484375 2.625 -1.28125q0.296875 -0.234375 0.515625 -0.234375q0.25 0 0.4375 0.203125q0.1875 0.1875 0.1875 0.453125q0 0.265625 -0.25 0.515625q-0.75 0.78125 -2.671875 1.46875q-1.90625 0.671875 -3.921875 0.671875q-3.375 0 -5.640625 -2.203125q-2.25 -2.21875 -2.25 -5.359375q0 -2.859375 2.109375 -4.90625q2.125 -2.046875 5.25 -2.046875q3.21875 0 5.296875 2.109375q2.078125 2.09375 2.046875 5.4375zm-1.328125 -1.328125q-0.390625 -2.171875 -2.0625 -3.53125q-1.65625 -1.359375 -3.953125 -1.359375q-2.296875 0 -3.953125 1.34375q-1.65625 1.34375 -2.0625 3.546875l12.03125 0zm11.859375 -5.75l0 3.3125q2.5625 -2.3125 3.828125 -2.96875q1.28125 -0.671875 2.359375 -0.671875q1.171875 0 2.171875 0.796875q1.015625 0.78125 1.015625 1.1875q0 0.296875 -0.203125 0.5q-0.1875 0.1875 -0.484375 0.1875q-0.15625 0 -0.265625 -0.046875q-0.109375 -0.0625 -0.40625 -0.359375q-0.546875 -0.546875 -0.953125 -0.75q-0.40625 -0.203125 -0.796875 -0.203125q-0.859375 0 -2.078125 0.6875q-1.203125 0.6875 -4.1875 3.359375l0 7.1875l5.8125 0q0.484375 0 0.6875 0.1875q0.203125 0.171875 0.203125 0.46875q0 0.28125 -0.203125 0.46875q-0.203125 0.1875 -0.6875 0.1875l-10.296875 0q-0.46875 0 -0.671875 -0.171875q-0.203125 -0.1875 -0.203125 -0.46875q0 -0.265625 0.1875 -0.4375q0.203125 -0.1875 0.6875 -0.1875l3.171875 0l0 -10.9375l-2.421875 0q-0.46875 0 -0.671875 -0.1875q-0.203125 -0.1875 -0.203125 -0.484375q0 -0.28125 0.1875 -0.46875q0.203125 -0.1875 0.6875 -0.1875l3.734375 0zm27.46875 3.546875l0 1.875l-13.390625 0l0 -1.875l13.390625 0zm8.265625 -3.546875l0 1.984375q1.375 -1.390625 2.484375 -1.921875q1.109375 -0.53125 2.5 -0.53125q1.5 0 2.734375 0.640625q0.875 0.46875 1.578125 1.5625q0.71875 1.078125 0.71875 2.21875l0 8.265625l1.109375 0q0.46875 0 0.671875 0.1875q0.203125 0.171875 0.203125 0.46875q0 0.28125 -0.203125 0.46875q-0.203125 0.1875 -0.671875 0.1875l-3.515625 0q-0.484375 0 -0.6875 -0.1875q-0.203125 -0.1875 -0.203125 -0.46875q0 -0.296875 0.203125 -0.46875q0.203125 -0.1875 0.6875 -0.1875l1.09375 0l0 -8.046875q0 -1.390625 -1.015625 -2.34375q-1.015625 -0.96875 -2.71875 -0.96875q-1.296875 0 -2.25 0.53125q-0.953125 0.515625 -2.71875 2.59375l0 8.234375l1.484375 0q0.46875 0 0.671875 0.1875q0.203125 0.171875 0.203125 0.46875q0 0.28125 -0.203125 0.46875q-0.203125 0.1875 -0.671875 0.1875l-4.28125 0q-0.46875 0 -0.671875 -0.1875q-0.203125 -0.1875 -0.203125 -0.46875q0 -0.296875 0.203125 -0.46875q0.203125 -0.1875 0.671875 -0.1875l1.484375 0l0 -10.890625l-1.109375 0q-0.46875 0 -0.671875 -0.1875q-0.203125 -0.1875 -0.203125 -0.484375q0 -0.28125 0.203125 -0.46875q0.203125 -0.1875 0.671875 -0.1875l2.421875 0zm27.21875 13.53125l0 -1.890625q-2.859375 2.40625 -6.109375 2.40625q-2.359375 0 -3.6875 -1.1875q-1.328125 -1.203125 -1.328125 -2.9375q0 -1.90625 1.75 -3.328125q1.75 -1.421875 5.109375 -1.421875q0.90625 0 1.96875 0.125q1.0625 0.109375 2.296875 0.359375l0 -2.125q0 -1.078125 -1.0 -1.875q-1.0 -0.796875 -3.0 -0.796875q-1.53125 0 -4.296875 0.890625q-0.5 0.15625 -0.640625 0.15625q-0.25 0 -0.4375 -0.1875q-0.171875 -0.1875 -0.171875 -0.46875q0 -0.265625 0.15625 -0.421875q0.21875 -0.234375 1.765625 -0.640625q2.4375 -0.65625 3.6875 -0.65625q2.484375 0 3.875 1.234375q1.390625 1.21875 1.390625 2.765625l0 8.6875l1.75 0q0.484375 0 0.6875 0.1875q0.203125 0.171875 0.203125 0.46875q0 0.28125 -0.203125 0.46875q-0.203125 0.1875 -0.6875 0.1875l-3.078125 0zm0 -6.53125q-0.921875 -0.265625 -1.953125 -0.390625q-1.03125 -0.125 -2.171875 -0.125q-2.859375 0 -4.46875 1.234375q-1.21875 0.921875 -1.21875 2.203125q0 1.1875 0.921875 2.0q0.9375 0.8125 2.71875 0.8125q1.703125 0 3.15625 -0.671875q1.46875 -0.6875 3.015625 -2.171875l0 -2.890625zm9.453125 -7.0l0 1.328125q1.671875 -1.796875 3.359375 -1.796875q1.015625 0 1.78125 0.546875q0.765625 0.53125 1.28125 1.625q0.875 -1.09375 1.765625 -1.625q0.90625 -0.546875 1.8125 -0.546875q1.421875 0 2.265625 0.921875q1.109375 1.1875 1.109375 2.59375l0 9.171875l1.109375 0q0.46875 0 0.671875 0.1875q0.203125 0.171875 0.203125 0.46875q0 0.28125 -0.203125 0.46875q-0.203125 0.1875 -0.671875 0.1875l-2.421875 0l0 -10.359375q0 -1.0 -0.609375 -1.65625q-0.609375 -0.65625 -1.40625 -0.65625q-0.71875 0 -1.515625 0.546875q-0.796875 0.53125 -1.8125 2.109375l0 8.703125l1.09375 0q0.46875 0 0.671875 0.1875q0.203125 0.171875 0.203125 0.46875q0 0.28125 -0.203125 0.46875q-0.203125 0.1875 -0.671875 0.1875l-2.421875 0l0 -10.265625q0 -1.046875 -0.625 -1.71875q-0.609375 -0.6875 -1.375 -0.6875q-0.703125 0 -1.390625 0.453125q-0.953125 0.640625 -2.0 2.203125l0 8.703125l1.109375 0q0.46875 0 0.671875 0.1875q0.203125 0.171875 0.203125 0.46875q0 0.28125 -0.203125 0.46875q-0.203125 0.1875 -0.671875 0.1875l-3.53125 0q-0.46875 0 -0.671875 -0.1875q-0.203125 -0.1875 -0.203125 -0.46875q0 -0.296875 0.203125 -0.46875q0.203125 -0.1875 0.671875 -0.1875l1.109375 0l0 -10.890625l-1.109375 0q-0.46875 0 -0.671875 -0.1875q-0.203125 -0.1875 -0.203125 -0.484375q0 -0.28125 0.203125 -0.46875q0.203125 -0.1875 0.671875 -0.1875l2.421875 0zm32.28125 7.078125l-13.375 0q0.34375 2.546875 2.125 4.109375q1.796875 1.546875 4.4375 1.546875q1.46875 0 3.078125 -0.484375q1.609375 -0.484375 2.625 -1.28125q0.296875 -0.234375 0.515625 -0.234375q0.25 0 0.4375 0.203125q0.1875 0.1875 0.1875 0.453125q0 0.265625 -0.25 0.515625q-0.75 0.78125 -2.671875 1.46875q-1.90625 0.671875 -3.921875 0.671875q-3.375 0 -5.640625 -2.203125q-2.25 -2.21875 -2.25 -5.359375q0 -2.859375 2.109375 -4.90625q2.125 -2.046875 5.25 -2.046875q3.21875 0 5.296875 2.109375q2.078125 2.09375 2.046875 5.4375zm-1.328125 -1.328125q-0.390625 -2.171875 -2.0625 -3.53125q-1.65625 -1.359375 -3.953125 -1.359375q-2.296875 0 -3.953125 1.34375q-1.65625 1.34375 -2.0625 3.546875l12.03125 0zm13.15625 -5.75l0.5625 0q0.875 0 1.5 0.625q0.625 0.625 0.625 1.484375q0 0.921875 -0.640625 1.53125q-0.625 0.609375 -1.484375 0.609375l-0.5625 0q-0.875 0 -1.5 -0.625q-0.625 -0.625 -0.625 -1.484375q0 -0.921875 0.625 -1.53125q0.640625 -0.609375 1.5 -0.609375zm0 9.765625l0.5625 0q0.875 0 1.5 0.625q0.625 0.609375 0.625 1.484375q0 0.90625 -0.640625 1.515625q-0.625 0.609375 -1.484375 0.609375l-0.5625 0q-0.875 0 -1.5 -0.609375q-0.625 -0.625 -0.625 -1.5q0 -0.90625 0.625 -1.515625q0.640625 -0.609375 1.5 -0.609375zm25.546875 -6.671875q0.25 0 0.4375 0.1875q0.1875 0.1875 0.1875 0.4375q0 0.546875 -1.359375 1.8125q-1.359375 1.25 -2.5 1.25q-0.703125 0 -1.421875 -0.390625q-0.71875 -0.40625 -2.046875 -1.65625q-0.890625 -0.84375 -1.359375 -1.109375q-0.453125 -0.265625 -0.828125 -0.265625q-0.453125 0 -0.859375 0.25q-0.546875 0.3125 -1.5 1.421875q-0.453125 0.515625 -0.59375 0.59375q-0.125 0.078125 -0.28125 0.078125q-0.265625 0 -0.453125 -0.171875q-0.171875 -0.1875 -0.171875 -0.453125q0 -0.25 0.40625 -0.765625q1.03125 -1.28125 1.84375 -1.765625q0.8125 -0.5 1.578125 -0.5q0.640625 0 1.265625 0.3125q0.625 0.296875 1.609375 1.1875q1.578125 1.453125 1.953125 1.6875q0.390625 0.21875 0.765625 0.21875q1.109375 0 2.359375 -1.59375q0.453125 -0.578125 0.609375 -0.671875q0.15625 -0.09375 0.359375 -0.09375zm28.09375 -3.09375l0 1.984375q1.375 -1.390625 2.484375 -1.921875q1.109375 -0.53125 2.5 -0.53125q1.5 0 2.734375 0.640625q0.875 0.46875 1.578125 1.5625q0.71875 1.078125 0.71875 2.21875l0 8.265625l1.109375 0q0.46875 0 0.671875 0.1875q0.203125 0.171875 0.203125 0.46875q0 0.28125 -0.203125 0.46875q-0.203125 0.1875 -0.671875 0.1875l-3.515625 0q-0.484375 0 -0.6875 -0.1875q-0.203125 -0.1875 -0.203125 -0.46875q0 -0.296875 0.203125 -0.46875q0.203125 -0.1875 0.6875 -0.1875l1.09375 0l0 -8.046875q0 -1.390625 -1.015625 -2.34375q-1.015625 -0.96875 -2.71875 -0.96875q-1.296875 0 -2.25 0.53125q-0.953125 0.515625 -2.71875 2.59375l0 8.234375l1.484375 0q0.46875 0 0.671875 0.1875q0.203125 0.171875 0.203125 0.46875q0 0.28125 -0.203125 0.46875q-0.203125 0.1875 -0.671875 0.1875l-4.28125 0q-0.46875 0 -0.671875 -0.1875q-0.203125 -0.1875 -0.203125 -0.46875q0 -0.296875 0.203125 -0.46875q0.203125 -0.1875 0.671875 -0.1875l1.484375 0l0 -10.890625l-1.109375 0q-0.46875 0 -0.671875 -0.1875q-0.203125 -0.1875 -0.203125 -0.484375q0 -0.28125 0.203125 -0.46875q0.203125 -0.1875 0.671875 -0.1875l2.421875 0zm27.21875 13.53125l0 -1.890625q-2.859375 2.40625 -6.109375 2.40625q-2.359375 0 -3.6875 -1.1875q-1.328125 -1.203125 -1.328125 -2.9375q0 -1.90625 1.75 -3.328125q1.75 -1.421875 5.109375 -1.421875q0.90625 0 1.96875 0.125q1.0625 0.109375 2.296875 0.359375l0 -2.125q0 -1.078125 -1.0 -1.875q-1.0 -0.796875 -3.0 -0.796875q-1.53125 0 -4.296875 0.890625q-0.5 0.15625 -0.640625 0.15625q-0.25 0 -0.4375 -0.1875q-0.171875 -0.1875 -0.171875 -0.46875q0 -0.265625 0.15625 -0.421875q0.21875 -0.234375 1.765625 -0.640625q2.4375 -0.65625 3.6875 -0.65625q2.484375 0 3.875 1.234375q1.390625 1.21875 1.390625 2.765625l0 8.6875l1.75 0q0.484375 0 0.6875 0.1875q0.203125 0.171875 0.203125 0.46875q0 0.28125 -0.203125 0.46875q-0.203125 0.1875 -0.6875 0.1875l-3.078125 0zm0 -6.53125q-0.921875 -0.265625 -1.953125 -0.390625q-1.03125 -0.125 -2.171875 -0.125q-2.859375 0 -4.46875 1.234375q-1.21875 0.921875 -1.21875 2.203125q0 1.1875 0.921875 2.0q0.9375 0.8125 2.71875 0.8125q1.703125 0 3.15625 -0.671875q1.46875 -0.6875 3.015625 -2.171875l0 -2.890625zm9.453125 -7.0l0 1.328125q1.671875 -1.796875 3.359375 -1.796875q1.015625 0 1.78125 0.546875q0.765625 0.53125 1.28125 1.625q0.875 -1.09375 1.765625 -1.625q0.90625 -0.546875 1.8125 -0.546875q1.421875 0 2.265625 0.921875q1.109375 1.1875 1.109375 2.59375l0 9.171875l1.109375 0q0.46875 0 0.671875 0.1875q0.203125 0.171875 0.203125 0.46875q0 0.28125 -0.203125 0.46875q-0.203125 0.1875 -0.671875 0.1875l-2.421875 0l0 -10.359375q0 -1.0 -0.609375 -1.65625q-0.609375 -0.65625 -1.40625 -0.65625q-0.71875 0 -1.515625 0.546875q-0.796875 0.53125 -1.8125 2.109375l0 8.703125l1.09375 0q0.46875 0 0.671875 0.1875q0.203125 0.171875 0.203125 0.46875q0 0.28125 -0.203125 0.46875q-0.203125 0.1875 -0.671875 0.1875l-2.421875 0l0 -10.265625q0 -1.046875 -0.625 -1.71875q-0.609375 -0.6875 -1.375 -0.6875q-0.703125 0 -1.390625 0.453125q-0.953125 0.640625 -2.0 2.203125l0 8.703125l1.109375 0q0.46875 0 0.671875 0.1875q0.203125 0.171875 0.203125 0.46875q0 0.28125 -0.203125 0.46875q-0.203125 0.1875 -0.671875 0.1875l-3.53125 0q-0.46875 0 -0.671875 -0.1875q-0.203125 -0.1875 -0.203125 -0.46875q0 -0.296875 0.203125 -0.46875q0.203125 -0.1875 0.671875 -0.1875l1.109375 0l0 -10.890625l-1.109375 0q-0.46875 0 -0.671875 -0.1875q-0.203125 -0.1875 -0.203125 -0.484375q0 -0.28125 0.203125 -0.46875q0.203125 -0.1875 0.671875 -0.1875l2.421875 0zm32.28125 7.078125l-13.375 0q0.34375 2.546875 2.125 4.109375q1.796875 1.546875 4.4375 1.546875q1.46875 0 3.078125 -0.484375q1.609375 -0.484375 2.625 -1.28125q0.296875 -0.234375 0.515625 -0.234375q0.25 0 0.4375 0.203125q0.1875 0.1875 0.1875 0.453125q0 0.265625 -0.25 0.515625q-0.75 0.78125 -2.671875 1.46875q-1.90625 0.671875 -3.921875 0.671875q-3.375 0 -5.640625 -2.203125q-2.25 -2.21875 -2.25 -5.359375q0 -2.859375 2.109375 -4.90625q2.125 -2.046875 5.25 -2.046875q3.21875 0 5.296875 2.109375q2.078125 2.09375 2.046875 5.4375zm-1.328125 -1.328125q-0.390625 -2.171875 -2.0625 -3.53125q-1.65625 -1.359375 -3.953125 -1.359375q-2.296875 0 -3.953125 1.34375q-1.65625 1.34375 -2.0625 3.546875l12.03125 0zm12.75 -10.9375l0 -1.65625q0 -0.484375 0.171875 -0.6875q0.1875 -0.203125 0.484375 -0.203125q0.296875 0 0.46875 0.203125q0.1875 0.203125 0.1875 0.6875l0 1.65625q1.0625 0.09375 1.75 0.34375q0.6875 0.234375 1.625 0.859375q0.015625 -0.390625 0.203125 -0.578125q0.1875 -0.1875 0.453125 -0.1875q0.296875 0 0.484375 0.203125q0.1875 0.203125 0.1875 0.671875l0 1.953125q0 0.46875 -0.1875 0.671875q-0.1875 0.203125 -0.484375 0.203125q-0.25 0 -0.421875 -0.15625q-0.171875 -0.171875 -0.234375 -0.5625q-0.09375 -0.734375 -0.96875 -1.328125q-1.28125 -0.84375 -3.015625 -0.84375q-1.765625 0 -2.921875 1.03125q-1.140625 1.03125 -1.140625 2.328125q0 1.296875 1.015625 1.984375q0.765625 0.53125 3.21875 1.0q2.46875 0.453125 3.34375 0.859375q1.25 0.546875 1.859375 1.484375q0.625 0.9375 0.625 2.265625q0 1.78125 -1.390625 3.140625q-1.390625 1.34375 -4.0 1.609375l0 3.859375q0 0.484375 -0.1875 0.6875q-0.171875 0.203125 -0.46875 0.203125q-0.296875 0 -0.484375 -0.203125q-0.171875 -0.203125 -0.171875 -0.6875l0 -3.859375q-2.40625 -0.15625 -4.046875 -1.5625q0 0.6875 -0.0625 0.84375q-0.046875 0.140625 -0.21875 0.265625q-0.171875 0.109375 -0.375 0.109375q-0.28125 0 -0.46875 -0.203125q-0.1875 -0.203125 -0.1875 -0.671875l0 -2.5625q0 -0.46875 0.171875 -0.671875q0.1875 -0.21875 0.484375 -0.21875q0.28125 0 0.484375 0.203125q0.140625 0.140625 0.171875 0.625q0.09375 0.828125 1.328125 1.703125q1.25 0.859375 3.375 0.859375q2.203125 0 3.46875 -1.046875q1.265625 -1.046875 1.265625 -2.4375q0 -0.921875 -0.46875 -1.578125q-0.46875 -0.65625 -1.46875 -1.078125q-0.65625 -0.265625 -2.75 -0.65625q-3.03125 -0.59375 -4.203125 -1.53125q-1.1875 -0.9375 -1.1875 -2.75q0 -1.6875 1.28125 -3.015625q1.28125 -1.328125 3.40625 -1.578125z" fill-rule="nonzero"/><path fill="#f3f3f3" d="m392.88715 501.0866l13.007874 0l0 21.669312l-13.007874 0z" fill-rule="evenodd"/><path fill="#000000" fill-opacity="0.0" d="m43.732285 490.24182l85.6693 0l0 44.440918l-85.6693 0z" fill-rule="evenodd"/><path stroke="#fb6524" stroke-width="3.0" stroke-linejoin="round" stroke-linecap="butt" d="m43.732285 490.24182l85.6693 0l0 44.440918l-85.6693 0z" fill-rule="evenodd"/><path fill="#000000" fill-opacity="0.0" d="m27.732283 603.01575l175.65355 0l0 55.08661l-175.65355 0z" fill-rule="evenodd"/><path fill="#fb6524" d="m49.71666 642.7358l0 -2.4375q-1.9375 2.8125 -5.265625 2.8125q-1.46875 0 -2.75 -0.5625q-1.265625 -0.5625 -1.890625 -1.40625q-0.609375 -0.859375 -0.859375 -2.09375q-0.171875 -0.828125 -0.171875 -2.625l0 -10.28125l2.8125 0l0 9.203125q0 2.203125 0.171875 2.96875q0.265625 1.109375 1.125 1.75q0.859375 0.625 2.125 0.625q1.265625 0 2.375 -0.640625q1.109375 -0.65625 1.5625 -1.765625q0.46875 -1.125 0.46875 -3.25l0 -8.890625l2.8125 0l0 16.59375l-2.515625 0zm5.796875 -4.953125l2.78125 -0.4375q0.234375 1.671875 1.296875 2.5625q1.078125 0.890625 3.0 0.890625q1.9375 0 2.875 -0.78125q0.9375 -0.796875 0.9375 -1.859375q0 -0.953125 -0.828125 -1.5q-0.578125 -0.375 -2.875 -0.953125q-3.09375 -0.78125 -4.296875 -1.34375q-1.1875 -0.578125 -1.8125 -1.578125q-0.609375 -1.015625 -0.609375 -2.234375q0 -1.109375 0.5 -2.046875q0.515625 -0.953125 1.390625 -1.578125q0.65625 -0.484375 1.78125 -0.8125q1.140625 -0.34375 2.4375 -0.34375q1.953125 0 3.421875 0.5625q1.484375 0.5625 2.1875 1.53125q0.703125 0.953125 0.96875 2.5625l-2.75 0.375q-0.1875 -1.28125 -1.09375 -2.0q-0.890625 -0.71875 -2.53125 -0.71875q-1.9375 0 -2.765625 0.640625q-0.828125 0.640625 -0.828125 1.5q0 0.546875 0.34375 0.984375q0.34375 0.453125 1.078125 0.75q0.421875 0.15625 2.484375 0.71875q2.984375 0.796875 4.15625 1.3125q1.1875 0.5 1.859375 1.46875q0.671875 0.96875 0.671875 2.40625q0 1.40625 -0.828125 2.65625q-0.8125 1.234375 -2.359375 1.921875q-1.546875 0.671875 -3.5 0.671875q-3.234375 0 -4.9375 -1.34375q-1.6875 -1.34375 -2.15625 -3.984375zm28.484375 -0.390625l2.90625 0.359375q-0.6875 2.546875 -2.546875 3.953125q-1.859375 1.40625 -4.75 1.40625q-3.640625 0 -5.78125 -2.234375q-2.125 -2.25 -2.125 -6.296875q0 -4.1875 2.15625 -6.5q2.15625 -2.3125 5.59375 -2.3125q3.328125 0 5.4375 2.265625q2.109375 2.265625 2.109375 6.375q0 0.25 -0.015625 0.75l-12.375 0q0.15625 2.734375 1.546875 4.1875q1.390625 1.453125 3.46875 1.453125q1.546875 0 2.640625 -0.8125q1.09375 -0.8125 1.734375 -2.59375zm-9.234375 -4.546875l9.265625 0q-0.1875 -2.09375 -1.0625 -3.140625q-1.34375 -1.625 -3.484375 -1.625q-1.9375 0 -3.265625 1.296875q-1.3125 1.296875 -1.453125 3.46875zm15.640625 9.890625l0 -16.59375l2.53125 0l0 2.515625q0.96875 -1.765625 1.78125 -2.328125q0.828125 -0.5625 1.8125 -0.5625q1.421875 0 2.890625 0.90625l-0.96875 2.609375q-1.03125 -0.609375 -2.0625 -0.609375q-0.921875 0 -1.65625 0.5625q-0.734375 0.546875 -1.046875 1.53125q-0.46875 1.5 -0.46875 3.28125l0 8.6875l-2.8125 0zm10.6875 0l0 -16.59375l2.53125 0l0 2.359375q1.828125 -2.734375 5.28125 -2.734375q1.5 0 2.75 0.546875q1.265625 0.53125 1.890625 1.40625q0.625 0.875 0.875 2.078125q0.15625 0.78125 0.15625 2.734375l0 10.203125l-2.8125 0l0 -10.09375q0 -1.71875 -0.328125 -2.5625q-0.328125 -0.859375 -1.171875 -1.359375q-0.828125 -0.515625 -1.953125 -0.515625q-1.796875 0 -3.109375 1.140625q-1.296875 1.140625 -1.296875 4.328125l0 9.0625l-2.8125 0zm28.625 -2.046875q-1.5625 1.328125 -3.015625 1.875q-1.4375 0.546875 -3.09375 0.546875q-2.734375 0 -4.203125 -1.328125q-1.46875 -1.34375 -1.46875 -3.421875q0 -1.21875 0.546875 -2.21875q0.5625 -1.015625 1.453125 -1.625q0.90625 -0.609375 2.03125 -0.921875q0.828125 -0.21875 2.5 -0.421875q3.40625 -0.40625 5.015625 -0.96875q0.015625 -0.578125 0.015625 -0.734375q0 -1.71875 -0.796875 -2.421875q-1.078125 -0.953125 -3.203125 -0.953125q-1.984375 0 -2.9375 0.703125q-0.9375 0.6875 -1.390625 2.453125l-2.75 -0.375q0.375 -1.765625 1.234375 -2.84375q0.859375 -1.09375 2.484375 -1.671875q1.625 -0.59375 3.765625 -0.59375q2.125 0 3.453125 0.5q1.328125 0.5 1.953125 1.265625q0.625 0.75 0.875 1.90625q0.140625 0.71875 0.140625 2.59375l0 3.75q0 3.921875 0.171875 4.96875q0.1875 1.03125 0.71875 1.984375l-2.9375 0q-0.4375 -0.875 -0.5625 -2.046875zm-0.234375 -6.28125q-1.53125 0.625 -4.59375 1.0625q-1.734375 0.25 -2.453125 0.5625q-0.71875 0.3125 -1.109375 0.921875q-0.390625 0.59375 -0.390625 1.328125q0 1.125 0.84375 1.875q0.859375 0.75 2.5 0.75q1.625 0 2.890625 -0.703125q1.265625 -0.71875 1.859375 -1.953125q0.453125 -0.953125 0.453125 -2.8125l0 -1.03125zm7.203125 8.328125l0 -16.59375l2.515625 0l0 2.328125q0.78125 -1.21875 2.078125 -1.953125q1.296875 -0.75 2.953125 -0.75q1.84375 0 3.015625 0.765625q1.1875 0.765625 1.671875 2.140625q1.96875 -2.90625 5.125 -2.90625q2.46875 0 3.796875 1.375q1.328125 1.359375 1.328125 4.203125l0 11.390625l-2.796875 0l0 -10.453125q0 -1.6875 -0.28125 -2.421875q-0.265625 -0.75 -0.984375 -1.203125q-0.71875 -0.453125 -1.6875 -0.453125q-1.75 0 -2.90625 1.171875q-1.15625 1.15625 -1.15625 3.71875l0 9.640625l-2.8125 0l0 -10.78125q0 -1.875 -0.6875 -2.8125q-0.6875 -0.9375 -2.25 -0.9375q-1.1875 0 -2.203125 0.625q-1.0 0.625 -1.453125 1.828125q-0.453125 1.203125 -0.453125 3.46875l0 8.609375l-2.8125 0zm38.015625 -5.34375l2.90625 0.359375q-0.6875 2.546875 -2.546875 3.953125q-1.859375 1.40625 -4.75 1.40625q-3.640625 0 -5.78125 -2.234375q-2.125 -2.25 -2.125 -6.296875q0 -4.1875 2.15625 -6.5q2.15625 -2.3125 5.59375 -2.3125q3.328125 0 5.4375 2.265625q2.109375 2.265625 2.109375 6.375q0 0.25 -0.015625 0.75l-12.375 0q0.15625 2.734375 1.546875 4.1875q1.390625 1.453125 3.46875 1.453125q1.546875 0 2.640625 -0.8125q1.09375 -0.8125 1.734375 -2.59375zm-9.234375 -4.546875l9.265625 0q-0.1875 -2.09375 -1.0625 -3.140625q-1.34375 -1.625 -3.484375 -1.625q-1.9375 0 -3.265625 1.296875q-1.3125 1.296875 -1.453125 3.46875z" fill-rule="nonzero"/><path fill="#000000" fill-opacity="0.0" d="m115.55905 603.01575l-29.007874 -68.346436" fill-rule="evenodd"/><path stroke="#fb6524" stroke-width="3.0" stroke-linejoin="round" stroke-linecap="butt" d="m115.55905 603.01575l-21.975418 -51.77704" fill-rule="evenodd"/><path fill="#fb6524" stroke="#fb6524" stroke-width="3.0" stroke-linecap="butt" d="m98.145 549.30273l-9.880356 -10.596313l0.75762177 14.468201z" fill-rule="evenodd"/><path fill="#000000" fill-opacity="0.0" d="m144.48026 490.24146l80.34645 0l0 44.44098l-80.34645 0z" fill-rule="evenodd"/><path stroke="#f1c232" stroke-width="3.0" stroke-linejoin="round" stroke-linecap="butt" d="m144.48026 490.24146l80.34645 0l0 44.44098l-80.34645 0z" fill-rule="evenodd"/><path fill="#000000" fill-opacity="0.0" d="m115.732285 715.01575l249.60631 0l0 55.08661l-249.60631 0z" fill-rule="evenodd"/><path fill="#f1c232" d="m137.66978 748.65765l2.765625 0.359375q-0.453125 2.859375 -2.328125 4.484375q-1.859375 1.609375 -4.578125 1.609375q-3.40625 0 -5.484375 -2.21875q-2.0625 -2.234375 -2.0625 -6.390625q0 -2.6875 0.890625 -4.703125q0.890625 -2.015625 2.703125 -3.015625q1.828125 -1.015625 3.96875 -1.015625q2.703125 0 4.421875 1.375q1.71875 1.359375 2.203125 3.875l-2.734375 0.421875q-0.390625 -1.671875 -1.390625 -2.515625q-0.984375 -0.84375 -2.390625 -0.84375q-2.125 0 -3.453125 1.53125q-1.328125 1.515625 -1.328125 4.8125q0 3.34375 1.28125 4.859375q1.28125 1.515625 3.34375 1.515625q1.65625 0 2.765625 -1.015625q1.109375 -1.015625 1.40625 -3.125zm4.125 -2.21875q0 -4.609375 2.5625 -6.828125q2.140625 -1.84375 5.21875 -1.84375q3.421875 0 5.59375 2.25q2.171875 2.234375 2.171875 6.1875q0 3.203125 -0.96875 5.046875q-0.953125 1.828125 -2.796875 2.84375q-1.828125 1.015625 -4.0 1.015625q-3.484375 0 -5.640625 -2.234375q-2.140625 -2.234375 -2.140625 -6.4375zm2.890625 0q0 3.1875 1.390625 4.78125q1.390625 1.578125 3.5 1.578125q2.09375 0 3.484375 -1.59375q1.390625 -1.59375 1.390625 -4.859375q0 -3.078125 -1.40625 -4.65625q-1.390625 -1.59375 -3.46875 -1.59375q-2.109375 0 -3.5 1.578125q-1.390625 1.578125 -1.390625 4.765625zm15.953125 8.296875l0 -16.59375l2.515625 0l0 2.328125q0.78125 -1.21875 2.078125 -1.953125q1.296875 -0.75 2.953125 -0.75q1.84375 0 3.015625 0.765625q1.1875 0.765625 1.671875 2.140625q1.96875 -2.90625 5.125 -2.90625q2.46875 0 3.796875 1.375q1.328125 1.359375 1.328125 4.203125l0 11.390625l-2.796875 0l0 -10.453125q0 -1.6875 -0.28125 -2.421875q-0.265625 -0.75 -0.984375 -1.203125q-0.71875 -0.453125 -1.6875 -0.453125q-1.75 0 -2.90625 1.171875q-1.15625 1.15625 -1.15625 3.71875l0 9.640625l-2.8125 0l0 -10.78125q0 -1.875 -0.6875 -2.8125q-0.6875 -0.9375 -2.25 -0.9375q-1.1875 0 -2.203125 0.625q-1.0 0.625 -1.453125 1.828125q-0.453125 1.203125 -0.453125 3.46875l0 8.609375l-2.8125 0zm26.65625 6.359375l0 -22.953125l2.5625 0l0 2.15625q0.90625 -1.265625 2.046875 -1.890625q1.140625 -0.640625 2.765625 -0.640625q2.125 0 3.75 1.09375q1.625 1.09375 2.453125 3.09375q0.828125 1.984375 0.828125 4.359375q0 2.546875 -0.921875 4.59375q-0.90625 2.03125 -2.65625 3.125q-1.734375 1.078125 -3.65625 1.078125q-1.40625 0 -2.53125 -0.59375q-1.109375 -0.59375 -1.828125 -1.5l0 8.078125l-2.8125 0zm2.546875 -14.5625q0 3.203125 1.296875 4.734375q1.296875 1.53125 3.140625 1.53125q1.875 0 3.203125 -1.578125q1.34375 -1.59375 1.34375 -4.921875q0 -3.171875 -1.3125 -4.75q-1.296875 -1.578125 -3.109375 -1.578125q-1.796875 0 -3.1875 1.6875q-1.375 1.671875 -1.375 4.875zm26.125 8.203125l0 -2.4375q-1.9375 2.8125 -5.265625 2.8125q-1.46875 0 -2.75 -0.5625q-1.265625 -0.5625 -1.890625 -1.40625q-0.609375 -0.859375 -0.859375 -2.09375q-0.171875 -0.828125 -0.171875 -2.625l0 -10.28125l2.8125 0l0 9.203125q0 2.203125 0.171875 2.96875q0.265625 1.109375 1.125 1.75q0.859375 0.625 2.125 0.625q1.265625 0 2.375 -0.640625q1.109375 -0.65625 1.5625 -1.765625q0.46875 -1.125 0.46875 -3.25l0 -8.890625l2.8125 0l0 16.59375l-2.515625 0zm13.0625 -2.515625l0.40625 2.484375q-1.1875 0.25 -2.125 0.25q-1.53125 0 -2.375 -0.484375q-0.84375 -0.484375 -1.1875 -1.265625q-0.34375 -0.796875 -0.34375 -3.328125l0 -9.546875l-2.0625 0l0 -2.1875l2.0625 0l0 -4.109375l2.796875 -1.6875l0 5.796875l2.828125 0l0 2.1875l-2.828125 0l0 9.703125q0 1.203125 0.140625 1.546875q0.15625 0.34375 0.484375 0.546875q0.34375 0.203125 0.96875 0.203125q0.46875 0 1.234375 -0.109375zm14.109375 -2.828125l2.90625 0.359375q-0.6875 2.546875 -2.546875 3.953125q-1.859375 1.40625 -4.75 1.40625q-3.640625 0 -5.78125 -2.234375q-2.125 -2.25 -2.125 -6.296875q0 -4.1875 2.15625 -6.5q2.15625 -2.3125 5.59375 -2.3125q3.328125 0 5.4375 2.265625q2.109375 2.265625 2.109375 6.375q0 0.25 -0.015625 0.75l-12.375 0q0.15625 2.734375 1.546875 4.1875q1.390625 1.453125 3.46875 1.453125q1.546875 0 2.640625 -0.8125q1.09375 -0.8125 1.734375 -2.59375zm-9.234375 -4.546875l9.265625 0q-0.1875 -2.09375 -1.0625 -3.140625q-1.34375 -1.625 -3.484375 -1.625q-1.9375 0 -3.265625 1.296875q-1.3125 1.296875 -1.453125 3.46875zm15.640625 9.890625l0 -16.59375l2.53125 0l0 2.515625q0.96875 -1.765625 1.78125 -2.328125q0.828125 -0.5625 1.8125 -0.5625q1.4218597 0 2.8906097 0.90625l-0.96875 2.609375q-1.03125 -0.609375 -2.0624847 -0.609375q-0.921875 0 -1.65625 0.5625q-0.734375 0.546875 -1.046875 1.53125q-0.46875 1.5 -0.46875 3.28125l0 8.6875l-2.8125 0zm19.57811 0l0 -16.59375l2.53125 0l0 2.359375q1.828125 -2.734375 5.28125 -2.734375q1.5 0 2.75 0.546875q1.265625 0.53125 1.890625 1.40625q0.625 0.875 0.875 2.078125q0.15625 0.78125 0.15625 2.734375l0 10.203125l-2.8125 0l0 -10.09375q0 -1.71875 -0.328125 -2.5625q-0.328125 -0.859375 -1.171875 -1.359375q-0.828125 -0.515625 -1.953125 -0.515625q-1.796875 0 -3.109375 1.140625q-1.296875 1.140625 -1.296875 4.328125l0 9.0625l-2.8125 0zm28.625 -2.046875q-1.5625 1.328125 -3.015625 1.875q-1.4375 0.546875 -3.09375 0.546875q-2.734375 0 -4.203125 -1.328125q-1.46875 -1.34375 -1.46875 -3.421875q0 -1.21875 0.546875 -2.21875q0.5625 -1.015625 1.453125 -1.625q0.90625 -0.609375 2.03125 -0.921875q0.828125 -0.21875 2.5 -0.421875q3.40625 -0.40625 5.015625 -0.96875q0.015625 -0.578125 0.015625 -0.734375q0 -1.71875 -0.796875 -2.421875q-1.078125 -0.953125 -3.203125 -0.953125q-1.984375 0 -2.9375 0.703125q-0.9375 0.6875 -1.390625 2.453125l-2.75 -0.375q0.375 -1.765625 1.234375 -2.84375q0.859375 -1.09375 2.484375 -1.671875q1.625 -0.59375 3.765625 -0.59375q2.125 0 3.453125 0.5q1.328125 0.5 1.953125 1.265625q0.625 0.75 0.875 1.90625q0.140625 0.71875 0.140625 2.59375l0 3.75q0 3.921875 0.171875 4.96875q0.1875 1.03125 0.71875 1.984375l-2.9375 0q-0.4375 -0.875 -0.5625 -2.046875zm-0.234375 -6.28125q-1.53125 0.625 -4.59375 1.0625q-1.734375 0.25 -2.453125 0.5625q-0.71875 0.3125 -1.109375 0.921875q-0.390625 0.59375 -0.390625 1.328125q0 1.125 0.84375 1.875q0.859375 0.75 2.5 0.75q1.625 0 2.890625 -0.703125q1.265625 -0.71875 1.859375 -1.953125q0.453125 -0.953125 0.453125 -2.8125l0 -1.03125zm7.203125 8.328125l0 -16.59375l2.515625 0l0 2.328125q0.78125 -1.21875 2.078125 -1.953125q1.296875 -0.75 2.953125 -0.75q1.84375 0 3.015625 0.765625q1.1875 0.765625 1.671875 2.140625q1.96875 -2.90625 5.125 -2.90625q2.46875 0 3.796875 1.375q1.328125 1.359375 1.328125 4.203125l0 11.390625l-2.796875 0l0 -10.453125q0 -1.6875 -0.28125 -2.421875q-0.265625 -0.75 -0.984375 -1.203125q-0.71875 -0.453125 -1.6875 -0.453125q-1.75 0 -2.90625 1.171875q-1.15625 1.15625 -1.15625 3.71875l0 9.640625l-2.8125 0l0 -10.78125q0 -1.875 -0.6875 -2.8125q-0.6875 -0.9375 -2.25 -0.9375q-1.1875 0 -2.203125 0.625q-1.0 0.625 -1.453125 1.828125q-0.453125 1.203125 -0.453125 3.46875l0 8.609375l-2.8125 0zm38.015625 -5.34375l2.90625 0.359375q-0.6875 2.546875 -2.546875 3.953125q-1.859375 1.40625 -4.75 1.40625q-3.640625 0 -5.78125 -2.234375q-2.125 -2.25 -2.125 -6.296875q0 -4.1875 2.15625 -6.5q2.15625 -2.3125 5.59375 -2.3125q3.328125 0 5.4375 2.265625q2.109375 2.265625 2.109375 6.375q0 0.25 -0.015625 0.75l-12.375 0q0.15625 2.734375 1.546875 4.1875q1.390625 1.453125 3.46875 1.453125q1.546875 0 2.640625 -0.8125q1.09375 -0.8125 1.734375 -2.59375zm-9.234375 -4.546875l9.265625 0q-0.1875 -2.09375 -1.0625 -3.140625q-1.34375 -1.625 -3.484375 -1.625q-1.9375 0 -3.265625 1.296875q-1.3125 1.296875 -1.453125 3.46875z" fill-rule="nonzero"/><path fill="#000000" fill-opacity="0.0" d="m240.53543 715.01575l-55.87401 -180.34644" fill-rule="evenodd"/><path stroke="#f1c232" stroke-width="3.0" stroke-linejoin="round" stroke-linecap="butt" d="m240.53543 715.01575l-50.547134 -163.15271" fill-rule="evenodd"/><path fill="#f1c232" stroke="#f1c232" stroke-width="3.0" stroke-linecap="butt" d="m194.72153 550.3966l-8.762222 -11.538086l-0.70425415 14.470947z" fill-rule="evenodd"/><path fill="#000000" fill-opacity="0.0" d="m238.31184 490.24146l27.716537 0l0 44.44098l-27.716537 0z" fill-rule="evenodd"/><path stroke="#6aa84f" stroke-width="3.0" stroke-linejoin="round" stroke-linecap="butt" d="m238.31184 490.24146l27.716537 0l0 44.44098l-27.716537 0z" fill-rule="evenodd"/><path fill="#000000" fill-opacity="0.0" d="m267.73227 627.01575l280.06302 0l0 55.08661l-280.06302 0z" fill-rule="evenodd"/><path fill="#6aa84f" d="m289.66977 660.65765l2.765625 0.359375q-0.453125 2.859375 -2.328125 4.484375q-1.859375 1.609375 -4.578125 1.609375q-3.40625 0 -5.484375 -2.21875q-2.0625 -2.234375 -2.0625 -6.390625q0 -2.6875 0.890625 -4.703125q0.890625 -2.015625 2.703125 -3.015625q1.828125 -1.015625 3.96875 -1.015625q2.703125 0 4.421875 1.375q1.71875 1.359375 2.203125 3.875l-2.734375 0.421875q-0.390625 -1.671875 -1.390625 -2.515625q-0.984375 -0.84375 -2.390625 -0.84375q-2.125 0 -3.453125 1.53125q-1.328125 1.515625 -1.328125 4.8125q0 3.34375 1.28125 4.859375q1.28125 1.515625 3.34375 1.515625q1.65625 0 2.765625 -1.015625q1.109375 -1.015625 1.40625 -3.125zm16.046875 6.078125l0 -2.4375q-1.9375 2.8125 -5.265625 2.8125q-1.46875 0 -2.75 -0.5625q-1.265625 -0.5625 -1.890625 -1.40625q-0.609375 -0.859375 -0.859375 -2.09375q-0.171875 -0.828125 -0.171875 -2.625l0 -10.28125l2.8125 0l0 9.203125q0 2.203125 0.171875 2.96875q0.265625 1.109375 1.125 1.75q0.859375 0.625 2.125 0.625q1.265625 0 2.375 -0.640625q1.109375 -0.65625 1.5625 -1.765625q0.46875 -1.125 0.46875 -3.25l0 -8.890625l2.8125 0l0 16.59375l-2.515625 0zm6.890625 0l0 -16.59375l2.53125 0l0 2.515625q0.96875 -1.765625 1.78125 -2.328125q0.828125 -0.5625 1.8125 -0.5625q1.421875 0 2.890625 0.90625l-0.96875 2.609375q-1.03125 -0.609375 -2.0625 -0.609375q-0.921875 0 -1.65625 0.5625q-0.734375 0.546875 -1.046875 1.53125q-0.46875 1.5 -0.46875 3.28125l0 8.6875l-2.8125 0zm10.65625 0l0 -16.59375l2.53125 0l0 2.515625q0.96875 -1.765625 1.78125 -2.328125q0.828125 -0.5625 1.8125 -0.5625q1.421875 0 2.890625 0.90625l-0.96875 2.609375q-1.03125 -0.609375 -2.0625 -0.609375q-0.921875 0 -1.65625 0.5625q-0.734375 0.546875 -1.046875 1.53125q-0.46875 1.5 -0.46875 3.28125l0 8.6875l-2.8125 0zm22.046875 -5.34375l2.90625 0.359375q-0.6875 2.546875 -2.546875 3.953125q-1.859375 1.40625 -4.75 1.40625q-3.640625 0 -5.78125 -2.234375q-2.125 -2.25 -2.125 -6.296875q0 -4.1875 2.15625 -6.5q2.15625 -2.3125 5.59375 -2.3125q3.328125 0 5.4375 2.265625q2.109375 2.265625 2.109375 6.375q0 0.25 -0.015625 0.75l-12.375 0q0.15625 2.734375 1.546875 4.1875q1.390625 1.453125 3.46875 1.453125q1.546875 0 2.640625 -0.8125q1.09375 -0.8125 1.734375 -2.59375zm-9.234375 -4.546875l9.265625 0q-0.1875 -2.09375 -1.0625 -3.140625q-1.34375 -1.625 -3.484375 -1.625q-1.9375 0 -3.265625 1.296875q-1.3125 1.296875 -1.453125 3.46875zm15.671875 9.890625l0 -16.59375l2.53125 0l0 2.359375q1.828125 -2.734375 5.28125 -2.734375q1.5 0 2.75 0.546875q1.265625 0.53125 1.890625 1.40625q0.625 0.875 0.875 2.078125q0.15625 0.78125 0.15625 2.734375l0 10.203125l-2.8125 0l0 -10.09375q0 -1.71875 -0.328125 -2.5625q-0.328125 -0.859375 -1.171875 -1.359375q-0.828125 -0.515625 -1.953125 -0.515625q-1.796875 0 -3.109375 1.140625q-1.296875 1.140625 -1.296875 4.328125l0 9.0625l-2.8125 0zm23.9375 -2.515625l0.40625 2.484375q-1.1875 0.25 -2.125 0.25q-1.53125 0 -2.375 -0.484375q-0.84375 -0.484375 -1.1875 -1.265625q-0.34375 -0.796875 -0.34375 -3.328125l0 -9.546875l-2.0625 0l0 -2.1875l2.0625 0l0 -4.109375l2.796875 -1.6875l0 5.796875l2.828125 0l0 2.1875l-2.828125 0l0 9.703125q0 1.203125 0.140625 1.546875q0.15625 0.34375 0.484375 0.546875q0.34375 0.203125 0.96875 0.203125q0.46875 0 1.234375 -0.109375zm11.578125 2.515625l0 -22.90625l2.8125 0l0 22.90625l-2.8125 0zm6.125 -8.296875q0 -4.609375 2.5625 -6.828125q2.140625 -1.84375 5.21875 -1.84375q3.421875 0 5.59375 2.25q2.171875 2.234375 2.171875 6.1875q0 3.203125 -0.96875 5.046875q-0.953125 1.828125 -2.796875 2.84375q-1.828125 1.015625 -4.0 1.015625q-3.484375 0 -5.640625 -2.234375q-2.140625 -2.234375 -2.140625 -6.4375zm2.890625 0q0 3.1875 1.390625 4.78125q1.390625 1.578125 3.5 1.578125q2.09375 0 3.484375 -1.59375q1.390625 -1.59375 1.390625 -4.859375q0 -3.078125 -1.40625 -4.65625q-1.390625 -1.59375 -3.46875 -1.59375q-2.109375 0 -3.5 1.578125q-1.390625 1.578125 -1.390625 4.765625zm26.78125 2.21875l2.765625 0.359375q-0.453125 2.859375 -2.328125 4.484375q-1.859375 1.609375 -4.578125 1.609375q-3.40625 0 -5.484375 -2.21875q-2.0625 -2.234375 -2.0625 -6.390625q0 -2.6875 0.890625 -4.703125q0.890625 -2.015625 2.703125 -3.015625q1.828125 -1.015625 3.96875 -1.015625q2.703125 0 4.421875 1.375q1.71875 1.359375 2.203125 3.875l-2.734375 0.421875q-0.390625 -1.671875 -1.390625 -2.515625q-0.984375 -0.84375 -2.390625 -0.84375q-2.125 0 -3.453125 1.53125q-1.328125 1.515625 -1.328125 4.8125q0 3.34375 1.28125 4.859375q1.28125 1.515625 3.34375 1.515625q1.65625 0 2.765625 -1.015625q1.109375 -1.015625 1.40625 -3.125zm16.0 4.03125q-1.5625 1.328125 -3.015625 1.875q-1.4375 0.546875 -3.09375 0.546875q-2.734375 0 -4.203125 -1.328125q-1.46875 -1.34375 -1.46875 -3.421875q0 -1.21875 0.546875 -2.21875q0.5625 -1.015625 1.453125 -1.625q0.90625 -0.609375 2.03125 -0.921875q0.828125 -0.21875 2.5 -0.421875q3.40625 -0.40625 5.015625 -0.96875q0.015625 -0.578125 0.015625 -0.734375q0 -1.71875 -0.796875 -2.421875q-1.078125 -0.953125 -3.203125 -0.953125q-1.984375 0 -2.9375 0.703125q-0.9375 0.6875 -1.390625 2.453125l-2.75 -0.375q0.375 -1.765625 1.234375 -2.84375q0.859375 -1.09375 2.484375 -1.671875q1.625 -0.59375 3.765625 -0.59375q2.125 0 3.453125 0.5q1.328125 0.5 1.953125 1.265625q0.625 0.75 0.875 1.90625q0.140625 0.71875 0.140625 2.59375l0 3.75q0 3.921875 0.171875 4.96875q0.1875 1.03125 0.71875 1.984375l-2.9375 0q-0.4375 -0.875 -0.5625 -2.046875zm-0.234375 -6.28125q-1.53125 0.625 -4.59375 1.0625q-1.734375 0.25 -2.453125 0.5625q-0.71875 0.3125 -1.109375 0.921875q-0.390625 0.59375 -0.390625 1.328125q0 1.125 0.84375 1.875q0.859375 0.75 2.5 0.75q1.625 0 2.890625 -0.703125q1.265625 -0.71875 1.859375 -1.953125q0.453125 -0.953125 0.453125 -2.8125l0 -1.03125zm13.34375 5.8125l0.40625 2.484375q-1.1875 0.25 -2.125 0.25q-1.53125 0 -2.375 -0.484375q-0.84375 -0.484375 -1.1875 -1.265625q-0.34375 -0.796875 -0.34375 -3.328125l0 -9.546875l-2.0625 0l0 -2.1875l2.0625 0l0 -4.109375l2.796875 -1.6875l0 5.796875l2.828125 0l0 2.1875l-2.828125 0l0 9.703125q0 1.203125 0.140625 1.546875q0.15625 0.34375 0.484375 0.546875q0.34375 0.203125 0.96875 0.203125q0.46875 0 1.234375 -0.109375zm2.765625 -17.15625l0 -3.234375l2.8125 0l0 3.234375l-2.8125 0zm0 19.671875l0 -16.59375l2.8125 0l0 16.59375l-2.8125 0zm6.046875 -8.296875q0 -4.609375 2.5625 -6.828125q2.140625 -1.84375 5.21875 -1.84375q3.421875 0 5.59375 2.25q2.171875 2.234375 2.171875 6.1875q0 3.203125 -0.96875 5.046875q-0.953125 1.828125 -2.796875 2.84375q-1.828125 1.015625 -4.0 1.015625q-3.484375 0 -5.640625 -2.234375q-2.140625 -2.234375 -2.140625 -6.4375zm2.890625 0q0 3.1875 1.390625 4.78125q1.390625 1.578125 3.5 1.578125q2.09375 0 3.484375 -1.59375q1.390625 -1.59375 1.390625 -4.859375q0 -3.078125 -1.40625 -4.65625q-1.390625 -1.59375 -3.46875 -1.59375q-2.109375 0 -3.5 1.578125q-1.390625 1.578125 -1.390625 4.765625zm15.953125 8.296875l0 -16.59375l2.53125 0l0 2.359375q1.828125 -2.734375 5.28125 -2.734375q1.5 0 2.75 0.546875q1.265625 0.53125 1.890625 1.40625q0.625 0.875 0.875 2.078125q0.15625 0.78125 0.15625 2.734375l0 10.203125l-2.8125 0l0 -10.09375q0 -1.71875 -0.328125 -2.5625q-0.328125 -0.859375 -1.171875 -1.359375q-0.828125 -0.515625 -1.953125 -0.515625q-1.796875 0 -3.109375 1.140625q-1.296875 1.140625 -1.296875 4.328125l0 9.0625l-2.8125 0z" fill-rule="nonzero"/><path fill="#000000" fill-opacity="0.0" d="m283.4457 625.80054l-31.275604 -91.1181" fill-rule="evenodd"/><path stroke="#6aa84f" stroke-width="3.0" stroke-linejoin="round" stroke-linecap="butt" d="m283.4457 625.80054l-25.431885 -74.09308" fill-rule="evenodd"/><path fill="#6aa84f" stroke="#6aa84f" stroke-width="3.0" stroke-linecap="butt" d="m262.70062 550.0987l-9.106689 -11.268127l-0.26690674 14.485596z" fill-rule="evenodd"/><path fill="#000000" fill-opacity="0.0" d="m353.9745 490.24146l27.716553 0l0 44.44098l-27.716553 0z" fill-rule="evenodd"/><path stroke="#3399ff" stroke-width="3.0" stroke-linejoin="round" stroke-linecap="butt" d="m353.9745 490.24146l27.716553 0l0 44.44098l-27.716553 0z" fill-rule="evenodd"/><path fill="#000000" fill-opacity="0.0" d="m291.73227 529.2572l233.35434 0l0 55.08661l-233.35434 0z" fill-rule="evenodd"/><path fill="#3399ff" d="m302.84164 575.3366l0 -22.953125l2.5625 0l0 2.15625q0.90625 -1.265625 2.046875 -1.890625q1.140625 -0.640625 2.765625 -0.640625q2.125 0 3.75 1.09375q1.625 1.09375 2.453125 3.09375q0.828125 1.984375 0.828125 4.359375q0 2.546875 -0.921875 4.59375q-0.90625 2.03125 -2.65625 3.125q-1.734375 1.078125 -3.65625 1.078125q-1.40625 0 -2.53125 -0.59375q-1.109375 -0.59375 -1.828125 -1.5l0 8.078125l-2.8125 0zm2.546875 -14.5625q0 3.203125 1.296875 4.734375q1.296875 1.53125 3.140625 1.53125q1.875 0 3.203125 -1.578125q1.34375 -1.59375 1.34375 -4.921875q0 -3.171875 -1.3125 -4.75q-1.296875 -1.578125 -3.109375 -1.578125q-1.796875 0 -3.1875 1.6875q-1.375 1.671875 -1.375 4.875zm15.21875 8.203125l0 -16.59375l2.53125 0l0 2.515625q0.96875 -1.765625 1.78125 -2.328125q0.828125 -0.5625 1.8125 -0.5625q1.421875 0 2.890625 0.90625l-0.96875 2.609375q-1.03125 -0.609375 -2.0625 -0.609375q-0.921875 0 -1.65625 0.5625q-0.734375 0.546875 -1.046875 1.53125q-0.46875 1.5 -0.46875 3.28125l0 8.6875l-2.8125 0zm9.640625 -8.296875q0 -4.609375 2.5625 -6.828125q2.140625 -1.84375 5.21875 -1.84375q3.421875 0 5.59375 2.25q2.171875 2.234375 2.171875 6.1875q0 3.203125 -0.96875 5.046875q-0.953125 1.828125 -2.796875 2.84375q-1.828125 1.015625 -4.0 1.015625q-3.484375 0 -5.640625 -2.234375q-2.140625 -2.234375 -2.140625 -6.4375zm2.890625 0q0 3.1875 1.390625 4.78125q1.390625 1.578125 3.5 1.578125q2.09375 0 3.484375 -1.59375q1.390625 -1.59375 1.390625 -4.859375q0 -3.078125 -1.40625 -4.65625q-1.390625 -1.59375 -3.46875 -1.59375q-2.109375 0 -3.5 1.578125q-1.390625 1.578125 -1.390625 4.765625zm15.953125 8.296875l0 -16.59375l2.515625 0l0 2.328125q0.78125 -1.21875 2.078125 -1.953125q1.296875 -0.75 2.953125 -0.75q1.84375 0 3.015625 0.765625q1.1875 0.765625 1.671875 2.140625q1.96875 -2.90625 5.125 -2.90625q2.46875 0 3.796875 1.375q1.328125 1.359375 1.328125 4.203125l0 11.390625l-2.796875 0l0 -10.453125q0 -1.6875 -0.28125 -2.421875q-0.265625 -0.75 -0.984375 -1.203125q-0.71875 -0.453125 -1.6875 -0.453125q-1.75 0 -2.90625 1.171875q-1.15625 1.15625 -1.15625 3.71875l0 9.640625l-2.8125 0l0 -10.78125q0 -1.875 -0.6875 -2.8125q-0.6875 -0.9375 -2.25 -0.9375q-1.1875 0 -2.203125 0.625q-1.0 0.625 -1.453125 1.828125q-0.453125 1.203125 -0.453125 3.46875l0 8.609375l-2.8125 0zm26.65625 6.359375l0 -22.953125l2.5625 0l0 2.15625q0.90625 -1.265625 2.046875 -1.890625q1.140625 -0.640625 2.765625 -0.640625q2.125 0 3.75 1.09375q1.625 1.09375 2.453125 3.09375q0.828125 1.984375 0.828125 4.359375q0 2.546875 -0.921875 4.59375q-0.90625 2.03125 -2.65625 3.125q-1.734375 1.078125 -3.65625 1.078125q-1.40625 0 -2.53125 -0.59375q-1.109375 -0.59375 -1.828125 -1.5l0 8.078125l-2.8125 0zm2.546875 -14.5625q0 3.203125 1.296875 4.734375q1.296875 1.53125 3.140625 1.53125q1.875 0 3.203125 -1.578125q1.34375 -1.59375 1.34375 -4.921875q0 -3.171875 -1.3125 -4.75q-1.296875 -1.578125 -3.109375 -1.578125q-1.796875 0 -3.1875 1.6875q-1.375 1.671875 -1.375 4.875zm21.390625 5.6875l0.40625 2.484375q-1.1875 0.25 -2.125 0.25q-1.53125 0 -2.375 -0.484375q-0.84375 -0.484375 -1.1875 -1.265625q-0.34375 -0.796875 -0.34375 -3.328125l0 -9.546875l-2.0625 0l0 -2.1875l2.0625 0l0 -4.109375l2.796875 -1.6875l0 5.796875l2.828125 0l0 2.1875l-2.828125 0l0 9.703125q0 1.203125 0.140625 1.546875q0.15625 0.34375 0.484375 0.546875q0.34375 0.203125 0.96875 0.203125q0.46875 0 1.234375 -0.109375zm10.515625 -2.4375l2.78125 -0.4375q0.234375 1.671875 1.296875 2.5625q1.078125 0.890625 3.0 0.890625q1.9375 0 2.875 -0.78125q0.9375 -0.796875 0.9375 -1.859375q0 -0.953125 -0.828125 -1.5q-0.578125 -0.375 -2.875 -0.953125q-3.09375 -0.78125 -4.296875 -1.34375q-1.1875 -0.578125 -1.8125 -1.578125q-0.609375 -1.015625 -0.609375 -2.234375q0 -1.109375 0.5 -2.046875q0.515625 -0.953125 1.390625 -1.578125q0.65625 -0.484375 1.78125 -0.8125q1.140625 -0.34375 2.4375 -0.34375q1.953125 0 3.421875 0.5625q1.484375 0.5625 2.1875 1.53125q0.703125 0.953125 0.96875 2.5625l-2.75 0.375q-0.1875 -1.28125 -1.09375 -2.0q-0.890625 -0.71875 -2.53125 -0.71875q-1.9375 0 -2.765625 0.640625q-0.828125 0.640625 -0.828125 1.5q0 0.546875 0.34375 0.984375q0.34375 0.453125 1.078125 0.75q0.421875 0.15625 2.484375 0.71875q2.984375 0.796875 4.15625 1.3125q1.1875 0.5 1.859375 1.46875q0.671875 0.96875 0.671875 2.40625q0 1.40625 -0.828125 2.65625q-0.8125 1.234375 -2.359375 1.921875q-1.546875 0.671875 -3.5 0.671875q-3.234375 0 -4.9375 -1.34375q-1.6875 -1.34375 -2.15625 -3.984375zm17.0 11.34375l-0.3125 -2.640625q0.921875 0.25 1.609375 0.25q0.9375 0 1.5 -0.3125q0.5625 -0.3125 0.921875 -0.875q0.265625 -0.421875 0.859375 -2.09375q0.078125 -0.234375 0.25 -0.6875l-6.296875 -16.625l3.03125 0l3.453125 9.609375q0.671875 1.828125 1.203125 3.84375q0.484375 -1.9375 1.15625 -3.78125l3.546875 -9.671875l2.8125 0l-6.3125 16.875q-1.015625 2.734375 -1.578125 3.765625q-0.75 1.390625 -1.71875 2.03125q-0.96875 0.65625 -2.3125 0.65625q-0.8125 0 -1.8125 -0.34375zm16.125 -6.390625l0 -16.59375l2.515625 0l0 2.328125q0.78125 -1.21875 2.078125 -1.953125q1.296875 -0.75 2.953125 -0.75q1.84375 0 3.015625 0.765625q1.1875 0.765625 1.671875 2.140625q1.96875 -2.90625 5.125 -2.90625q2.46875 0 3.796875 1.375q1.328125 1.359375 1.328125 4.203125l0 11.390625l-2.796875 0l0 -10.453125q0 -1.6875 -0.28125 -2.421875q-0.265625 -0.75 -0.984375 -1.203125q-0.71875 -0.453125 -1.6875 -0.453125q-1.75 0 -2.90625 1.171875q-1.15625 1.15625 -1.15625 3.71875l0 9.640625l-2.8125 0l0 -10.78125q0 -1.875 -0.6875 -2.8125q-0.6875 -0.9375 -2.25 -0.9375q-1.1875 0 -2.203125 0.625q-1.0 0.625 -1.453125 1.828125q-0.453125 1.203125 -0.453125 3.46875l0 8.609375l-2.8125 0zm29.25 0l-2.609375 0l0 -22.90625l2.8125 0l0 8.171875q1.78125 -2.234375 4.546875 -2.234375q1.53125 0 2.890625 0.625q1.375 0.609375 2.25 1.734375q0.890625 1.109375 1.390625 2.6875q0.5 1.578125 0.5 3.375q0 4.265625 -2.109375 6.59375q-2.109375 2.328125 -5.0625 2.328125q-2.9375 0 -4.609375 -2.453125l0 2.078125zm-0.03125 -8.421875q0 2.984375 0.8125 4.3125q1.328125 2.171875 3.59375 2.171875q1.84375 0 3.1875 -1.59375q1.34375 -1.609375 1.34375 -4.78125q0 -3.25 -1.296875 -4.796875q-1.28125 -1.546875 -3.109375 -1.546875q-1.84375 0 -3.1875 1.609375q-1.34375 1.59375 -1.34375 4.625zm14.1875 0.125q0 -4.609375 2.5625 -6.828125q2.140625 -1.84375 5.21875 -1.84375q3.421875 0 5.59375 2.25q2.171875 2.234375 2.171875 6.1875q0 3.203125 -0.96875 5.046875q-0.953125 1.828125 -2.796875 2.84375q-1.828125 1.015625 -4.0 1.015625q-3.484375 0 -5.640625 -2.234375q-2.140625 -2.234375 -2.140625 -6.4375zm2.890625 0q0 3.1875 1.390625 4.78125q1.390625 1.578125 3.5 1.578125q2.09375 0 3.484375 -1.59375q1.390625 -1.59375 1.390625 -4.859375q0 -3.078125 -1.40625 -4.65625q-1.390625 -1.59375 -3.46875 -1.59375q-2.109375 0 -3.5 1.578125q-1.390625 1.578125 -1.390625 4.765625zm15.890625 8.296875l0 -22.90625l2.8125 0l0 22.90625l-2.8125 0z" fill-rule="nonzero"/><path fill="#000000" fill-opacity="0.0" d="m488.71915 491.92914l290.01578 0l0 55.08661l-290.01578 0z" fill-rule="evenodd"/><path fill="#d9d9d9" d="m504.10977 524.62286l-0.390625 1.921875q-0.84375 0.21875 -1.640625 0.21875q-1.40625 0 -2.234375 -0.6875q-0.625 -0.515625 -0.625 -1.421875q0 -0.453125 0.328125 -2.09375l1.6875 -8.03125l-1.859375 0l0.375 -1.828125l1.859375 0l0.71875 -3.3905945l2.6875 -1.625l-1.046875 5.0155945l2.3125 0l-0.390625 1.828125l-2.296875 0l-1.609375 7.640625q-0.296875 1.453125 -0.296875 1.75q0 0.40625 0.234375 0.640625q0.25 0.21875 0.796875 0.21875q0.78125 0 1.390625 -0.15625zm1.0153503 7.25l0.140625 -2.21875q0.734375 0.203125 1.421875 0.203125q0.71875 0 1.15625 -0.328125q0.578125 -0.421875 1.25 -1.609375l0.75 -1.359375l-2.296875 -13.859375l2.3125 0l1.046875 7.0q0.3125 2.0625 0.53125 4.140625l6.1875 -11.140625l2.453125 0l-8.8125 15.65625q-1.265625 2.296875 -2.265625 3.03125q-0.984375 0.75 -2.28125 0.75q-0.8125 0 -1.59375 -0.265625zm13.0625 -0.046875l3.984375 -19.125l2.171875 0l-0.390625 1.9375q1.203125 -1.265625 2.15625 -1.75q0.953125 -0.5 2.03125 -0.5q1.96875 0 3.265625 1.4375q1.3125 1.4375 1.3125 4.125q0 2.15625 -0.71875 3.9375q-0.71875 1.78125 -1.765625 2.859375q-1.03125 1.078125 -2.109375 1.59375q-1.0625 0.5 -2.171875 0.5q-2.484375 0 -3.859375 -2.53125l-1.5625 7.515625l-2.34375 0zm4.65625 -10.953125q0 1.5625 0.21875 2.15625q0.328125 0.84375 1.0625 1.375q0.75 0.515625 1.71875 0.515625q2.03125 0 3.28125 -2.28125q1.25 -2.296875 1.25 -4.671875q0 -1.765625 -0.84375 -2.71875q-0.828125 -0.953125 -2.078125 -0.953125q-0.90625 0 -1.671875 0.484375q-0.765625 0.46875 -1.421875 1.421875q-0.65625 0.9375 -1.09375 2.296875q-0.421875 1.359375 -0.421875 2.375zm21.465576 0.953125l2.296875 0.234375q-0.5 1.703125 -2.28125 3.25q-1.765625 1.53125 -4.234375 1.53125q-1.53125 0 -2.8125 -0.703125q-1.28125 -0.71875 -1.953125 -2.0625q-0.671875 -1.359375 -0.671875 -3.09375q0 -2.265625 1.046875 -4.390625q1.046875 -2.125 2.71875 -3.15625q1.671875 -1.046875 3.609375 -1.046875q2.46875 0 3.9375 1.546875q1.484375 1.53125 1.484375 4.1875q0 1.015625 -0.1875 2.078125l-10.171875 0q-0.046875 0.40625 -0.046875 0.734375q0 1.9375 0.890625 2.96875q0.890625 1.015625 2.171875 1.015625q1.21875 0 2.390625 -0.796875q1.171875 -0.796875 1.8125 -2.296875zm-6.84375 -3.421875l7.765625 0q0.015625 -0.359375 0.015625 -0.515625q0 -1.765625 -0.890625 -2.703125q-0.890625 -0.953125 -2.28125 -0.953125q-1.515625 0 -2.765625 1.046875q-1.234375 1.03125 -1.84375 3.125zm28.465271 3.09375l2.359375 0.234375q-0.890625 2.59375 -2.53125 3.859375q-1.625 1.25 -3.703125 1.25q-2.25 0 -3.65625 -1.453125q-1.390625 -1.46875 -1.390625 -4.078125q0 -2.265625 0.890625 -4.453125q0.90625 -2.1875 2.578125 -3.328125q1.671875 -1.140625 3.8125 -1.140625q2.234375 0 3.53125 1.265625q1.296875 1.25 1.296875 3.328125l-2.3125 0.15625q-0.015625 -1.328125 -0.765625 -2.0625q-0.75 -0.75 -1.96875 -0.75q-1.421875 0 -2.46875 0.90625q-1.03125 0.890625 -1.625 2.734375q-0.59375 1.828125 -0.59375 3.515625q0 1.765625 0.78125 2.65625q0.78125 0.875 1.9375 0.875q1.140625 0 2.1875 -0.859375q1.046875 -0.875 1.640625 -2.65625zm4.203125 -0.21875q0 -4.046875 2.390625 -6.703125q1.96875 -2.1875 5.15625 -2.1875q2.5 0 4.015625 1.5625q1.53125 1.5625 1.53125 4.21875q0 2.390625 -0.96875 4.4375q-0.953125 2.046875 -2.734375 3.140625q-1.765625 1.09375 -3.734375 1.09375q-1.609375 0 -2.9375 -0.6875q-1.328125 -0.6875 -2.03125 -1.953125q-0.6875 -1.265625 -0.6875 -2.921875zm2.359375 -0.234375q0 1.953125 0.9375 2.96875q0.9375 1.0 2.375 1.0q0.765625 0 1.5 -0.296875q0.75 -0.3125 1.375 -0.9375q0.640625 -0.625 1.09375 -1.421875q0.453125 -0.796875 0.71875 -1.71875q0.40625 -1.296875 0.40625 -2.484375q0 -1.875 -0.953125 -2.90625q-0.9375 -1.03125 -2.359375 -1.03125q-1.109375 0 -2.03125 0.53125q-0.90625 0.515625 -1.640625 1.53125q-0.734375 1.015625 -1.078125 2.375q-0.34375 1.34375 -0.34375 2.390625zm12.04364 5.484375l2.890625 -13.828125l2.359375 0l-0.484375 2.28125q1.3125 -1.46875 2.34375 -2.03125q1.03125 -0.5625 2.25 -0.5625q1.28125 0 2.140625 0.6875q0.875 0.6875 1.140625 1.90625q1.0625 -1.296875 2.21875 -1.9375q1.171875 -0.65625 2.46875 -0.65625q1.71875 0 2.578125 0.828125q0.875 0.8125 0.875 2.296875q0 0.640625 -0.296875 2.109375l-1.859375 8.90625l-2.359375 0l1.90625 -9.140625q0.25 -1.109375 0.25 -1.59375q0 -0.6875 -0.4375 -1.078125q-0.421875 -0.390625 -1.203125 -0.390625q-1.0625 0 -2.15625 0.640625q-1.09375 0.640625 -1.703125 1.6875q-0.59375 1.03125 -1.046875 3.171875l-1.40625 6.703125l-2.359375 0l1.953125 -9.328125q0.203125 -0.953125 0.203125 -1.359375q0 -0.671875 -0.421875 -1.09375q-0.421875 -0.421875 -1.09375 -0.421875q-1.015625 0 -2.109375 0.640625q-1.09375 0.640625 -1.796875 1.78125q-0.6875 1.140625 -1.125 3.25l-1.359375 6.53125l-2.359375 0zm22.204895 0l2.890625 -13.828125l2.359375 0l-0.484375 2.28125q1.3125 -1.46875 2.34375 -2.03125q1.03125 -0.5625 2.25 -0.5625q1.28125 0 2.140625 0.6875q0.875 0.6875 1.140625 1.90625q1.0625 -1.296875 2.21875 -1.9375q1.171875 -0.65625 2.46875 -0.65625q1.71875 0 2.578125 0.828125q0.875 0.8125 0.875 2.296875q0 0.640625 -0.296875 2.109375l-1.859375 8.90625l-2.359375 0l1.90625 -9.140625q0.25 -1.109375 0.25 -1.59375q0 -0.6875 -0.4375 -1.078125q-0.421875 -0.390625 -1.203125 -0.390625q-1.0625 0 -2.15625 0.640625q-1.09375 0.640625 -1.703125 1.6875q-0.59375 1.03125 -1.046875 3.171875l-1.40625 6.703125l-2.359375 0l1.953125 -9.328125q0.203125 -0.953125 0.203125 -1.359375q0 -0.671875 -0.421875 -1.09375q-0.421875 -0.421875 -1.09375 -0.421875q-1.015625 0 -2.109375 0.640625q-1.09375 0.640625 -1.796875 1.78125q-0.6875 1.140625 -1.125 3.25l-1.359375 6.53125l-2.359375 0zm31.532959 -1.71875q-1.21875 1.0625 -2.359375 1.546875q-1.125 0.484375 -2.421875 0.484375q-1.90625 0 -3.078125 -1.125q-1.171875 -1.125 -1.171875 -2.890625q0 -1.15625 0.515625 -2.046875q0.53125 -0.890625 1.40625 -1.421875q0.875 -0.546875 2.140625 -0.78125q0.796875 -0.15625 3.015625 -0.25q2.21875 -0.09375 3.171875 -0.46875q0.28125 -0.953125 0.28125 -1.59375q0 -0.828125 -0.59375 -1.296875q-0.828125 -0.640625 -2.40625 -0.640625q-1.484375 0 -2.421875 0.65625q-0.9375 0.65625 -1.375 1.859375l-2.375 -0.203125q0.71875 -2.0625 2.296875 -3.15625q1.59375 -1.09375 4.0 -1.09375q2.5625 0 4.0625 1.234375q1.140625 0.90625 1.140625 2.359375q0 1.109375 -0.328125 2.5625l-0.765625 3.4375q-0.359375 1.640625 -0.359375 2.671875q0 0.65625 0.28125 1.875l-2.375 0q-0.203125 -0.671875 -0.28125 -1.71875zm0.875 -5.28125q-0.5 0.1875 -1.0625 0.296875q-0.5625 0.109375 -1.890625 0.21875q-2.0625 0.1875 -2.90625 0.46875q-0.84375 0.28125 -1.28125 0.890625q-0.421875 0.609375 -0.421875 1.34375q0 1.0 0.671875 1.640625q0.6875 0.625 1.953125 0.625q1.171875 0 2.25 -0.609375q1.078125 -0.625 1.703125 -1.71875q0.625 -1.109375 0.984375 -3.15625zm4.637451 7.0l2.890625 -13.828125l2.125 0l-0.5 2.40625q1.390625 -1.40625 2.59375 -2.0625q1.21875 -0.65625 2.484375 -0.65625q1.671875 0 2.625 0.921875q0.953125 0.90625 0.953125 2.421875q0 0.78125 -0.328125 2.421875l-1.765625 8.375l-2.34375 0l1.828125 -8.765625q0.28125 -1.265625 0.28125 -1.875q0 -0.703125 -0.484375 -1.125q-0.46875 -0.4375 -1.375 -0.4375q-1.8125 0 -3.21875 1.3125q-1.40625 1.296875 -2.078125 4.453125l-1.34375 6.4375l-2.34375 0zm24.137451 -2.0q-2.015625 2.3125 -4.21875 2.3125q-1.96875 0 -3.28125 -1.453125q-1.296875 -1.453125 -1.296875 -4.203125q0 -2.53125 1.03125 -4.609375q1.03125 -2.09375 2.59375 -3.140625q1.5625 -1.046875 3.109375 -1.046875q2.578125 0 3.90625 2.484375l1.546875 -7.4218445l2.34375 0l-3.96875 19.078094l-2.1875 0l0.421875 -2.0zm-6.453125 -3.796875q0 1.453125 0.28125 2.28125q0.296875 0.828125 0.984375 1.390625q0.6875 0.546875 1.65625 0.546875q1.59375 0 2.890625 -1.65625q1.75 -2.21875 1.75 -5.46875q0 -1.640625 -0.859375 -2.5625q-0.859375 -0.9375 -2.15625 -0.9375q-0.859375 0 -1.5625 0.390625q-0.6875 0.375 -1.375 1.28125q-0.671875 0.90625 -1.140625 2.296875q-0.46875 1.390625 -0.46875 2.4375zm12.184326 1.078125l2.359375 -0.15625q0 1.015625 0.3125 1.734375q0.3125 0.71875 1.140625 1.171875q0.84375 0.453125 1.96875 0.453125q1.5625 0 2.34375 -0.625q0.78125 -0.625 0.78125 -1.46875q0 -0.609375 -0.46875 -1.15625q-0.484375 -0.546875 -2.359375 -1.34375q-1.859375 -0.796875 -2.390625 -1.125q-0.859375 -0.53125 -1.3125 -1.25q-0.4375 -0.734375 -0.4375 -1.671875q0 -1.640625 1.296875 -2.8125q1.3125 -1.171875 3.640625 -1.171875q2.609375 0 3.96875 1.203125q1.359375 1.203125 1.40625 3.171875l-2.296875 0.15625q-0.046875 -1.25 -0.890625 -1.96875q-0.828125 -0.734375 -2.34375 -0.734375q-1.234375 0 -1.90625 0.5625q-0.671875 0.5625 -0.671875 1.203125q0 0.65625 0.578125 1.15625q0.390625 0.328125 2.015625 1.03125q2.71875 1.171875 3.421875 1.84375q1.109375 1.09375 1.109375 2.640625q0 1.03125 -0.640625 2.015625q-0.625 0.984375 -1.921875 1.578125q-1.28125 0.59375 -3.046875 0.59375q-2.390625 0 -4.078125 -1.1875q-1.671875 -1.1875 -1.578125 -3.84375zm20.51532 4.71875l3.984375 -19.078094l2.34375 0l-1.515625 7.3280945q1.3125 -1.28125 2.4375 -1.828125q1.140625 -0.5625 2.34375 -0.5625q1.71875 0 2.65625 0.90625q0.953125 0.90625 0.953125 2.390625q0 0.734375 -0.421875 2.6875l-1.703125 8.15625l-2.34375 0l1.75 -8.375q0.375 -1.8125 0.375 -2.28125q0 -0.6875 -0.46875 -1.109375q-0.46875 -0.4375 -1.34375 -0.4375q-1.28125 0 -2.4375 0.671875q-1.15625 0.671875 -1.8125 1.84375q-0.65625 1.15625 -1.203125 3.75l-1.25 5.9375l-2.34375 0zm24.965576 -4.703125l2.296875 0.234375q-0.5 1.703125 -2.28125 3.25q-1.765625 1.53125 -4.234375 1.53125q-1.53125 0 -2.8125 -0.703125q-1.28125 -0.71875 -1.953125 -2.0625q-0.671875 -1.359375 -0.671875 -3.09375q0 -2.265625 1.046875 -4.390625q1.046875 -2.125 2.71875 -3.15625q1.671875 -1.046875 3.609375 -1.046875q2.46875 0 3.9375 1.546875q1.484375 1.53125 1.484375 4.1875q0 1.015625 -0.1875 2.078125l-10.171875 0q-0.046875 0.40625 -0.046875 0.734375q0 1.9375 0.890625 2.96875q0.890625 1.015625 2.171875 1.015625q1.21875 0 2.390625 -0.796875q1.171875 -0.796875 1.8125 -2.296875zm-6.84375 -3.421875l7.765625 0q0.015625 -0.359375 0.015625 -0.515625q0 -1.765625 -0.890625 -2.703125q-0.890625 -0.953125 -2.28125 -0.953125q-1.515625 0 -2.765625 1.046875q-1.234375 1.03125 -1.84375 3.125zm11.528015 8.125l2.890625 -13.828125l2.078125 0l-0.59375 2.828125q1.078125 -1.59375 2.09375 -2.359375q1.015625 -0.78125 2.09375 -0.78125q0.703125 0 1.734375 0.515625l-0.96875 2.1875q-0.609375 -0.453125 -1.34375 -0.453125q-1.234375 0 -2.546875 1.390625q-1.296875 1.375 -2.03125 4.953125l-1.171875 5.546875l-2.234375 0zm19.017395 -4.703125l2.296875 0.234375q-0.5 1.703125 -2.28125 3.25q-1.765625 1.53125 -4.234375 1.53125q-1.53125 0 -2.8125 -0.703125q-1.28125 -0.71875 -1.953125 -2.0625q-0.671875 -1.359375 -0.671875 -3.09375q0 -2.265625 1.046875 -4.390625q1.046875 -2.125 2.71875 -3.15625q1.671875 -1.046875 3.609375 -1.046875q2.46875 0 3.9375 1.546875q1.484375 1.53125 1.484375 4.1875q0 1.015625 -0.1875 2.078125l-10.171875 0q-0.046875 0.40625 -0.046875 0.734375q0 1.9375 0.890625 2.96875q0.890625 1.015625 2.171875 1.015625q1.21875 0 2.390625 -0.796875q1.171875 -0.796875 1.8125 -2.296875zm-6.84375 -3.421875l7.765625 0q0.015625 -0.359375 0.015625 -0.515625q0 -1.765625 -0.890625 -2.703125q-0.890625 -0.953125 -2.28125 -0.953125q-1.515625 0 -2.765625 1.046875q-1.234375 1.03125 -1.84375 3.125z" fill-rule="nonzero"/><path fill="#000000" fill-opacity="0.0" d="m488.71915 519.4724l-75.1496 -4.2834473" fill-rule="evenodd"/><path stroke="#d9d9d9" stroke-width="2.0" stroke-linejoin="round" stroke-linecap="butt" d="m488.71915 519.4724l-63.169037 -3.600586" fill-rule="evenodd"/><path fill="#d9d9d9" stroke="#d9d9d9" stroke-width="2.0" stroke-linecap="butt" d="m425.7381 512.5737l-9.249481 2.7816162l8.873505 3.8146362z" fill-rule="evenodd"/><path fill="#999999" d="m123.47507 430.13385l10.18898 0l0 -52.06299l20.377945 0l0 52.06299l10.18898 0l-20.37796 20.37796z" fill-rule="evenodd"/></g></svg>