<svg version="1.1" viewBox="0.0 0.0 784.6141732283464 229.45144356955382" fill="none" stroke="none" stroke-linecap="square" stroke-miterlimit="10" xmlns:xlink="http://www.w3.org/1999/xlink" xmlns="http://www.w3.org/2000/svg"><clipPath id="p.0"><path d="m0 0l784.6142 0l0 229.45145l-784.6142 0l0 -229.45145z" clip-rule="nonzero"/></clipPath><g clip-path="url(#p.0)"><path fill="#000000" fill-opacity="0.0" d="m0 0l784.6142 0l0 229.45145l-784.6142 0z" fill-rule="evenodd"/><path fill="#000000" fill-opacity="0.0" d="m0 11.102363l788.56696 0l0 209.13387l-788.56696 0z" fill-rule="evenodd"/><path fill="#999999" d="m43.599884 119.06179l15.5625 8.625q1.171875 0.6562424 1.5625 1.1718674q0.390625 0.515625 0.390625 1.3125q0 1.0 -0.734375 1.75q-0.71875 0.734375 -1.6875 0.734375q-0.625 0 -1.890625 -0.703125l-23.1875 -12.890617l23.1875 -12.890625q1.265625 -0.6875 1.875 -0.6875q0.984375 0 1.703125 0.734375q0.734375 0.71875 0.734375 1.734375q0 0.796875 -0.390625 1.3125q-0.390625 0.515625 -1.5625 1.171875l-15.5625 8.625zm27.867188 11.031242l0 7.890625l2.890625 0q1.734375 0 2.46875 0.65625q0.734375 0.671875 0.734375 1.75q0 1.0625 -0.734375 1.71875q-0.734375 0.671875 -2.46875 0.671875l-8.515625 0q-1.734375 0 -2.484375 -0.671875q-0.734375 -0.65625 -0.734375 -1.71875q0 -1.078125 0.75 -1.75q0.765625 -0.65625 2.46875 -0.65625l0.828125 0l0 -21.718742l-0.828125 0q-1.734375 0 -2.484375 -0.65625q-0.734375 -0.671875 -0.734375 -1.75q0 -1.0625 0.734375 -1.71875q0.75 -0.671875 2.484375 -0.671875l5.625 0l0 1.640625q1.6875 -1.15625 3.484375 -1.71875q1.8125 -0.5625 3.71875 -0.5625q4.921875 0 8.390625 3.34375q3.46875 3.34375 3.46875 7.65625q0 4.75 -4.109375 7.8437424q-3.421875 2.578125 -7.703125 2.578125q-1.859375 0 -3.671875 -0.53125q-1.796875 -0.546875 -3.578125 -1.625zm14.25 -8.249992q0 -1.0 -0.796875 -2.5625q-0.796875 -1.5625 -2.453125 -2.59375q-1.640625 -1.046875 -3.875 -1.046875q-3.578125 0 -5.6875 2.6875q-1.4375 1.859375 -1.4375 3.5625q0 1.921875 2.046875 3.75q2.0625 1.8125 5.078125 1.8125q3.046875 0 5.078125 -1.796875q2.046875 -1.8125 2.046875 -3.8125z" fill-rule="nonzero"/><path fill="#ff6633" d="m137.45145 102.34304l0 25.59375l5.765625 0q1.734375 0 2.46875 0.6718674q0.734375 0.671875 0.734375 1.75q0 1.046875 -0.734375 1.71875q-0.734375 0.671875 -2.46875 0.671875l-16.34375 0q-1.734375 0 -2.46875 -0.671875q-0.734375 -0.671875 -0.734375 -1.75q0 -1.046875 0.734375 -1.71875q0.734375 -0.6718674 2.46875 -0.6718674l5.765625 0l0 -20.78125l-3.859375 0q-1.71875 0 -2.46875 -0.671875q-0.75 -0.671875 -0.75 -1.75q0 -1.046875 0.734375 -1.71875q0.75 -0.671875 2.484375 -0.671875l8.671875 0zm30.726562 30.406242l0 -1.125q-1.8125 0.953125 -4.0 1.4375q-2.171875 0.484375 -3.953125 0.484375q-3.859375 0 -6.28125 -2.046875q-2.40625 -2.0625 -2.40625 -4.5468674q0 -3.015625 3.078125 -5.609375q3.078125 -2.59375 8.515625 -2.59375q2.1875 0 5.046875 0.46875l0 -1.140625q0 -1.078125 -0.9375 -1.75q-0.921875 -0.6875 -3.515625 -0.6875q-2.140625 0 -5.53125 0.84375q-1.265625 0.296875 -1.96875 0.296875q-0.96875 0 -1.640625 -0.6875q-0.65625 -0.6875 -0.65625 -1.765625q0 -0.609375 0.234375 -1.046875q0.234375 -0.453125 0.65625 -0.71875q0.421875 -0.28125 1.75 -0.65625q1.78125 -0.484375 3.625 -0.78125q1.859375 -0.296875 3.359375 -0.296875q4.484375 0 6.953125 1.9375q2.46875 1.9375 2.46875 5.28125l0 9.890625l0.828125 0q1.734375 0 2.46875 0.6718674q0.734375 0.671875 0.734375 1.75q0 1.046875 -0.734375 1.71875q-0.734375 0.671875 -2.46875 0.671875l-5.625 0zm0 -8.609367q-2.890625 -0.5625 -5.328125 -0.5625q-2.921875 0 -5.03125 1.4375q-1.3125 0.90625 -1.3125 1.84375q0 0.6875 0.625 1.109375q1.171875 0.7656174 3.21875 0.7656174q1.734375 0 3.921875 -0.671875q2.1875 -0.6874924 3.90625 -1.8593674l0 -2.0625zm19.617188 -12.671875l0 1.609375q1.3125 -1.125 2.890625 -1.6875q1.578125 -0.5625 3.4375 -0.5625q4.265625 0 6.75 2.65625q1.96875 2.109375 1.96875 5.53125l0 8.921875q1.515625 0 2.234375 0.6718674q0.734375 0.671875 0.734375 1.75q0 1.046875 -0.734375 1.71875q-0.734375 0.671875 -2.46875 0.671875l-4.34375 0q-1.734375 0 -2.46875 -0.671875q-0.734375 -0.671875 -0.734375 -1.75q0 -1.046875 0.71875 -1.71875q0.734375 -0.6718674 2.25 -0.6718674l0 -9.0625q0 -1.578125 -0.84375 -2.296875q-1.09375 -0.9375 -3.296875 -0.9375q-1.671875 0 -2.921875 0.640625q-1.25 0.640625 -3.171875 2.734375l0 8.921875q1.84375 0 2.390625 0.35936737q1.140625 0.703125 1.140625 2.0625q0 1.046875 -0.734375 1.71875q-0.734375 0.671875 -2.46875 0.671875l-5.46875 0q-1.734375 0 -2.46875 -0.671875q-0.734375 -0.671875 -0.734375 -1.75q0 -1.3125 1.125 -2.03125q0.5625 -0.35936737 2.40625 -0.35936737l0 -11.671875q-1.515625 0 -2.25 -0.671875q-0.71875 -0.6875 -0.71875 -1.734375q0 -1.0625 0.734375 -1.71875q0.734375 -0.671875 2.46875 -0.671875l4.578125 0zm38.945312 1.421875l0 -1.421875l5.625 0q1.734375 0 2.46875 0.671875q0.75 0.65625 0.75 1.734375q0 1.0625 -0.75 1.734375q-0.734375 0.65625 -2.46875 0.65625l-0.8125 0l0 17.499992q0 2.53125 -1.078125 4.40625q-1.0625 1.890625 -3.265625 3.25q-2.203125 1.359375 -4.96875 1.359375l-5.4375 0q-1.734375 0 -2.46875 -0.671875q-0.734375 -0.65625 -0.734375 -1.71875q0 -1.078125 0.734375 -1.75q0.734375 -0.65625 2.46875 -0.65625l5.296875 0q2.203125 0 3.421875 -1.203125q1.21875 -1.1875 1.21875 -3.015625l0 -2.359375q-1.59375 1.03125 -3.25 1.546875q-1.640625 0.53125 -3.375 0.53125q-4.90625 0 -8.21875 -3.265625q-3.296875 -3.2812424 -3.296875 -8.093742q0 -4.828125 3.296875 -8.09375q3.3125 -3.265625 8.21875 -3.265625q1.828125 0 3.46875 0.53125q1.65625 0.515625 3.15625 1.59375zm-0.015625 9.21875q0 -2.65625 -1.96875 -4.59375q-1.953125 -1.953125 -4.6875 -1.953125q-2.75 0 -4.703125 1.953125q-1.953125 1.9375 -1.953125 4.59375q0 2.671875 1.953125 4.609375q1.953125 1.9218674 4.703125 1.9218674q2.734375 0 4.6875 -1.9218674q1.96875 -1.9375 1.96875 -4.609375z" fill-rule="nonzero"/><path fill="#999999" d="m260.56082 116.952415l-20.53125 0q-1.734375 0 -2.46875 -0.671875q-0.734375 -0.671875 -0.734375 -1.75q0 -1.046875 0.734375 -1.71875q0.734375 -0.671875 2.46875 -0.671875l20.53125 0q1.734375 0 2.46875 0.671875q0.75 0.671875 0.75 1.75q0 1.046875 -0.75 1.71875q-0.734375 0.671875 -2.46875 0.671875zm0 9.046875l-20.53125 0q-1.734375 0 -2.46875 -0.65625q-0.734375 -0.65625 -0.734375 -1.734375q0 -1.078125 0.734375 -1.75q0.734375 -0.671875 2.46875 -0.671875l20.53125 0q1.734375 0 2.46875 0.671875q0.75 0.671875 0.75 1.75q0 1.078125 -0.75 1.734375q-0.734375 0.65625 -2.46875 0.65625z" fill-rule="nonzero"/><path fill="#ff9900" d="m270.89676 103.827415l6.234375 0l-1.640625 11.390625q-0.140625 0.890625 -0.515625 1.25q-0.375 0.359375 -0.953125 0.359375q-0.59375 0 -0.96875 -0.359375q-0.375 -0.359375 -0.515625 -1.25l-1.640625 -11.390625zm10.0625 0l6.234375 0l-1.640625 11.390625q-0.140625 0.890625 -0.515625 1.25q-0.375 0.359375 -0.9375 0.359375q-0.609375 0 -0.984375 -0.359375q-0.375 -0.359375 -0.5 -1.25l-1.65625 -11.390625z" fill-rule="nonzero"/><path fill="#ff9900" d="m319.93582 124.546165l-19.71875 0q0.75 1.875 2.65625 3.03125q1.921875 1.1406174 5.171875 1.1406174q2.671875 0 7.109375 -1.1562424q1.828125 -0.46875 2.53125 -0.46875q0.953125 0 1.609375 0.6875q0.65625 0.6718674 0.65625 1.7031174q0 0.9375 -0.703125 1.59375q-0.9375 0.875 -4.578125 1.671875q-3.625 0.78125 -6.96875 0.78125q-5.765625 0 -9.234375 -3.265625q-3.453125 -3.2656174 -3.453125 -8.015617q0 -5.0625 3.734375 -8.234375q3.75 -3.1875 8.625 -3.1875q2.921875 0 5.375 1.03125q2.453125 1.03125 3.640625 2.234375q1.6875 1.734375 2.796875 4.28125q0.75 1.78125 0.75 4.125l0 2.046875zm-5.328125 -4.8125q-1.09375 -2.0625 -2.875 -3.078125q-1.78125 -1.015625 -4.25 -1.015625q-2.4375 0 -4.21875 1.015625q-1.78125 1.015625 -2.90625 3.078125l14.25 0zm27.257812 -2.640625q-1.171875 -0.734375 -2.46875 -1.09375q-1.28125 -0.359375 -2.6875 -0.359375q-2.78125 0 -4.421875 0.90625q-0.734375 0.40625 -0.734375 0.875q0 0.53125 0.984375 1.046875q0.75 0.375 3.359375 0.734375q4.78125 0.65625 6.65625 1.3125q2.453125 0.859375 3.78125 2.578125q1.34375 1.703125 1.34375 3.609375q0 2.5781174 -2.265625 4.3124924q-3.265625 2.515625 -8.46875 2.515625q-2.078125 0 -3.859375 -0.375q-1.765625 -0.359375 -3.234375 -1.0625q-0.359375 0.296875 -0.765625 0.46875q-0.390625 0.15625 -0.8125 0.15625q-1.125 0 -1.796875 -0.734375q-0.65625 -0.734375 -0.65625 -2.46875l0 -1.6249924q0 -1.734375 0.65625 -2.46875q0.671875 -0.734375 1.75 -0.734375q0.875 0 1.453125 0.484375q0.59375 0.46875 0.921875 1.640625q1.09375 0.9375 2.640625 1.4218674q1.546875 0.484375 3.5625 0.484375q3.3125 0 5.140625 -1.0312424q0.859375 -0.515625 0.859375 -1.078125q0 -0.9375 -1.234375 -1.546875q-1.25 -0.609375 -5.140625 -1.03125q-5.78125 -0.609375 -7.734375 -2.34375q-1.9375 -1.71875 -1.9375 -4.21875q0 -2.578125 2.171875 -4.296875q2.953125 -2.34375 7.734375 -2.34375q1.671875 0 3.203125 0.328125q1.53125 0.3125 2.9375 0.96875q0.453125 -0.328125 0.828125 -0.484375q0.390625 -0.171875 0.71875 -0.171875q0.984375 0 1.640625 0.734375q0.65625 0.734375 0.65625 2.46875l0 1.171875q0 1.578125 -0.375 2.140625q-0.75 1.078125 -2.03125 1.078125q-0.875 0 -1.53125 -0.53125q-0.65625 -0.546875 -0.84375 -1.4375z" fill-rule="nonzero"/><path fill="#ff9900" d="m357.31082 103.827415l6.234375 0l-1.640625 11.390625q-0.140625 0.890625 -0.515625 1.25q-0.375 0.359375 -0.953125 0.359375q-0.59375 0 -0.96875 -0.359375q-0.375 -0.359375 -0.515625 -1.25l-1.640625 -11.390625zm10.0625 0l6.234375 0l-1.640625 11.390625q-0.140625 0.890625 -0.515625 1.25q-0.375 0.359375 -0.9375 0.359375q-0.609375 0 -0.984375 -0.359375q-0.375 -0.359375 -0.5 -1.25l-1.65625 -11.390625z" fill-rule="nonzero"/><path fill="#999999" d="m399.3655 119.06179l-15.5625 -8.625q-1.171875 -0.65625 -1.5625 -1.171875q-0.390625 -0.515625 -0.390625 -1.3125q0 -1.015625 0.71875 -1.734375q0.734375 -0.734375 1.71875 -0.734375q0.609375 0 1.875 0.6875l23.1875 12.890625l-23.1875 12.890617q-1.265625 0.703125 -1.875 0.703125q-0.984375 0 -1.71875 -0.71875q-0.71875 -0.734375 -0.71875 -1.765625q0 -0.796875 0.390625 -1.3125q0.390625 -0.515625 1.5625 -1.1718674l15.5625 -8.625zm24.835938 14.343742l-0.140625 0.21875q2.484375 0 4.671875 1.0q0.890625 0.421875 1.46875 0.421875q0.84375 0 2.0625 -0.796875q1.21875 -0.796875 1.921875 -0.796875q1.015625 0 1.703125 0.6875q0.6875 0.703125 0.6875 1.734375q0 1.234375 -1.28125 2.15625q-2.5625 1.828125 -5.140625 1.828125q-1.3125 0 -2.640625 -0.515625q-2.15625 -0.84375 -3.421875 -0.84375q-2.046875 0 -6.21875 1.046875q-0.859375 0.21875 -1.359375 0.21875q-0.90625 0 -1.609375 -0.71875q-0.6875 -0.71875 -0.6875 -1.796875q0 -0.9375 0.9375 -1.84375l3.078125 -2.984375q-3.796875 -1.640625 -6.203125 -5.3437424q-2.40625 -3.703125 -2.40625 -8.53125q0 -6.984375 4.8125 -11.390625q3.84375 -3.546875 8.640625 -3.546875q4.828125 0 8.671875 3.546875q4.8125 4.40625 4.8125 11.390625q0 6.0 -3.640625 10.187492q-3.625 4.1875 -8.71875 4.671875zm7.546875 -14.859367q0 -4.390625 -2.65625 -7.25q-2.640625 -2.875 -6.015625 -2.875q-3.34375 0 -6.0 2.890625q-2.640625 2.875 -2.640625 7.234375q0 4.359375 2.640625 7.234375q2.65625 2.8593674 6.0 2.8593674q3.375 0 6.015625 -2.8593674q2.65625 -2.859375 2.65625 -7.234375zm30.351562 -7.078125l0 16.46875q1.53125 0 2.25 0.6874924q0.734375 0.671875 0.734375 1.734375q0 1.046875 -0.75 1.71875q-0.734375 0.671875 -2.46875 0.671875l-4.5625 0l0 -1.109375q-2.0625 0.9375 -3.9375 1.40625q-1.875 0.484375 -3.5625 0.484375q-2.375 0 -4.109375 -1.0q-1.734375 -1.0 -2.734375 -2.765625q-0.734375 -1.265625 -0.734375 -3.1562424l0 -10.34375l-0.8125 0q-1.734375 0 -2.484375 -0.65625q-0.734375 -0.671875 -0.734375 -1.75q0 -1.0625 0.734375 -1.71875q0.75 -0.671875 2.484375 -0.671875l5.625 0l0 14.296875q0 1.515625 0.734375 2.234375q0.734375 0.7187424 2.265625 0.7187424q1.453125 0 3.125 -0.578125q1.671875 -0.5781174 4.140625 -2.0781174l0 -9.796875l-1.734375 0q-1.734375 0 -2.484375 -0.65625q-0.734375 -0.671875 -0.734375 -1.75q0 -1.0625 0.734375 -1.71875q0.75 -0.671875 2.484375 -0.671875l6.53125 0zm30.664062 13.078125l-19.71875 0q0.75 1.875 2.65625 3.03125q1.921875 1.1406174 5.171875 1.1406174q2.671875 0 7.109375 -1.1562424q1.828125 -0.46875 2.53125 -0.46875q0.953125 0 1.609375 0.6875q0.65625 0.6718674 0.65625 1.7031174q0 0.9375 -0.703125 1.59375q-0.9375 0.875 -4.578125 1.671875q-3.625 0.78125 -6.96875 0.78125q-5.765625 0 -9.234375 -3.265625q-3.453125 -3.2656174 -3.453125 -8.015617q0 -5.0625 3.734375 -8.234375q3.75 -3.1875 8.625 -3.1875q2.921875 0 5.375 1.03125q2.453125 1.03125 3.640625 2.234375q1.6875 1.734375 2.796875 4.28125q0.75 1.78125 0.75 4.125l0 2.046875zm-5.328125 -4.8125q-1.09375 -2.0625 -2.875 -3.078125q-1.78125 -1.015625 -4.25 -1.015625q-2.4375 0 -4.21875 1.015625q-1.78125 1.015625 -2.90625 3.078125l14.25 0zm49.68747 -3.46875l0 9.640625q0 1.546875 0.640625 2.03125q0.984375 0.7812424 3.515625 0.7812424q3.671875 0 6.796875 -1.5781174q1.1875 -0.609375 1.875 -0.609375q0.9375 0 1.625 0.703125q0.6875 0.703125 0.6875 1.7187424q0 0.9375 -0.75 1.609375q-1.140625 1.109375 -4.53125 2.046875q-3.390625 0.921875 -5.703125 0.921875q-4.484375 0 -6.71875 -1.9375q-2.234375 -1.9375 -2.234375 -4.7499924l0 -10.578125l-1.734375 0q-1.734375 0 -2.484375 -0.65625q-0.734375 -0.671875 -0.734375 -1.75q0 -1.0625 0.734375 -1.71875q0.75 -0.671875 2.484375 -0.671875l1.734375 0l0 -4.34375q0 -1.734375 0.65625 -2.46875q0.671875 -0.734375 1.75 -0.734375q1.0625 0 1.71875 0.734375q0.671875 0.734375 0.671875 2.46875l0 4.34375l8.890625 0q1.734375 0 2.46875 0.671875q0.734375 0.65625 0.734375 1.734375q0 1.0625 -0.734375 1.734375q-0.734375 0.65625 -2.46875 0.65625l-8.890625 0zm34.320312 16.484367l0 -1.125q-1.8125 0.953125 -4.0 1.4375q-2.171875 0.484375 -3.953125 0.484375q-3.859375 0 -6.28125 -2.046875q-2.40625 -2.0625 -2.40625 -4.5468674q0 -3.015625 3.078125 -5.609375q3.078125 -2.59375 8.515625 -2.59375q2.1875 0 5.046875 0.46875l0 -1.140625q0 -1.078125 -0.9375 -1.75q-0.921875 -0.6875 -3.515625 -0.6875q-2.140625 0 -5.53125 0.84375q-1.265625 0.296875 -1.96875 0.296875q-0.96875 0 -1.640625 -0.6875q-0.65625 -0.6875 -0.65625 -1.765625q0 -0.609375 0.234375 -1.046875q0.234375 -0.453125 0.65625 -0.71875q0.421875 -0.28125 1.75 -0.65625q1.78125 -0.484375 3.625 -0.78125q1.859375 -0.296875 3.359375 -0.296875q4.484375 0 6.953125 1.9375q2.46875 1.9375 2.46875 5.28125l0 9.890625l0.828125 0q1.734375 0 2.46875 0.6718674q0.734375 0.671875 0.734375 1.75q0 1.046875 -0.734375 1.71875q-0.734375 0.671875 -2.46875 0.671875l-5.625 0zm0 -8.609367q-2.890625 -0.5625 -5.328125 -0.5625q-2.921875 0 -5.03125 1.4375q-1.3125 0.90625 -1.3125 1.84375q0 0.6875 0.625 1.109375q1.171875 0.7656174 3.21875 0.7656174q1.734375 0 3.921875 -0.671875q2.1875 -0.6874924 3.90625 -1.8593674l0 -2.0625zm26.882812 -21.796875l0 25.59375l5.765625 0q1.734375 0 2.46875 0.6718674q0.734375 0.671875 0.734375 1.75q0 1.046875 -0.734375 1.71875q-0.734375 0.671875 -2.46875 0.671875l-16.34375 0q-1.734375 0 -2.46875 -0.671875q-0.734375 -0.671875 -0.734375 -1.75q0 -1.046875 0.734375 -1.71875q0.734375 -0.6718674 2.46875 -0.6718674l5.765625 0l0 -20.78125l-3.859375 0q-1.71875 0 -2.46875 -0.671875q-0.75 -0.671875 -0.75 -1.75q0 -1.046875 0.734375 -1.71875q0.75 -0.671875 2.484375 -0.671875l8.671875 0zm29.976562 4.78125l-1.34375 14.484375q-0.09375 1.125 -0.75 1.75q-0.65625 0.625 -1.640625 0.625q-0.984375 0 -1.640625 -0.625q-0.65625 -0.625 -0.75 -1.75l-1.359375 -14.484375q-0.09375 -1.09375 -0.09375 -1.453125q0 -1.828125 1.09375 -2.9375q1.109375 -1.109375 2.75 -1.109375q1.625 0 2.734375 1.125q1.109375 1.125 1.109375 2.828125q0 0.359375 -0.109375 1.546875zm-0.78125 23.859367q0 1.03125 -0.78125 1.75q-0.765625 0.71875 -2.125 0.71875q-1.359375 0 -2.140625 -0.71875q-0.765625 -0.71875 -0.765625 -1.75q0 -1.0 0.765625 -1.71875q0.765625 -0.71875 2.140625 -0.71875q1.390625 0 2.140625 0.703125q0.765625 0.703125 0.765625 1.734375zm20.976562 -11.921867l15.5625 8.625q1.171875 0.6562424 1.5625 1.1718674q0.390625 0.515625 0.390625 1.3125q0 1.0 -0.734375 1.75q-0.71875 0.734375 -1.6875 0.734375q-0.625 0 -1.890625 -0.703125l-23.1875 -12.890617l23.1875 -12.890625q1.265625 -0.6875 1.875 -0.6875q0.984375 0 1.703125 0.734375q0.734375 0.71875 0.734375 1.734375q0 0.796875 -0.390625 1.3125q-0.390625 0.515625 -1.5625 1.171875l-15.5625 8.625zm43.742188 -16.078125l-15.40625 33.187492q-0.578125 1.25 -1.046875 1.625q-0.609375 0.484375 -1.484375 0.484375q-0.984375 0 -1.703125 -0.703125q-0.703125 -0.703125 -0.703125 -1.59375q0 -0.625 0.5625 -1.84375l15.4375 -33.171867q0.59375 -1.25 1.03125 -1.625q0.640625 -0.484375 1.484375 -0.484375q0.984375 0 1.6875 0.6875q0.703125 0.6875 0.703125 1.578125q0 0.640625 -0.5625 1.859375zm12.9296875 27.109367l0 7.890625l2.890625 0q1.734375 0 2.46875 0.65625q0.734375 0.671875 0.734375 1.75q0 1.0625 -0.734375 1.71875q-0.734375 0.671875 -2.46875 0.671875l-8.515625 0q-1.734375 0 -2.484375 -0.671875q-0.734375 -0.65625 -0.734375 -1.71875q0 -1.078125 0.75 -1.75q0.765625 -0.65625 2.46875 -0.65625l0.828125 0l0 -21.718742l-0.828125 0q-1.734375 0 -2.484375 -0.65625q-0.734375 -0.671875 -0.734375 -1.75q0 -1.0625 0.734375 -1.71875q0.75 -0.671875 2.484375 -0.671875l5.625 0l0 1.640625q1.6875 -1.15625 3.484375 -1.71875q1.8125 -0.5625 3.71875 -0.5625q4.921875 0 8.390625 3.34375q3.46875 3.34375 3.46875 7.65625q0 4.75 -4.109375 7.8437424q-3.421875 2.578125 -7.703125 2.578125q-1.859375 0 -3.671875 -0.53125q-1.796875 -0.546875 -3.578125 -1.625zm14.25 -8.249992q0 -1.0 -0.796875 -2.5625q-0.796875 -1.5625 -2.453125 -2.59375q-1.640625 -1.046875 -3.875 -1.046875q-3.578125 0 -5.6875 2.6875q-1.4375 1.859375 -1.4375 3.5625q0 1.921875 2.046875 3.75q2.0625 1.8125 5.078125 1.8125q3.046875 0 5.078125 -1.796875q2.046875 -1.8125 2.046875 -3.8125zm25.601562 -2.78125l-15.5625 -8.625q-1.171875 -0.65625 -1.5625 -1.171875q-0.390625 -0.515625 -0.390625 -1.3125q0 -1.015625 0.71875 -1.734375q0.734375 -0.734375 1.71875 -0.734375q0.609375 0 1.875 0.6875l23.1875 12.890625l-23.1875 12.890617q-1.265625 0.703125 -1.875 0.703125q-0.984375 0 -1.71875 -0.71875q-0.71875 -0.734375 -0.71875 -1.765625q0 -0.796875 0.390625 -1.3125q0.390625 -0.515625 1.5625 -1.1718674l15.5625 -8.625z" fill-rule="nonzero"/><path fill="#000000" fill-opacity="0.0" d="m42.196857 13.738536l280.18896 0l0 66.39371l-280.18896 0z" fill-rule="evenodd"/><path fill="#ff6633" d="m92.94759 51.411663q-1.5625 1.328125 -3.015625 1.875q-1.4375 0.546875 -3.09375 0.546875q-2.734375 0 -4.203125 -1.328125q-1.46875 -1.34375 -1.46875 -3.421875q0 -1.21875 0.546875 -2.21875q0.5625 -1.015625 1.453125 -1.625q0.90625 -0.609375 2.03125 -0.921875q0.828125 -0.21875 2.5 -0.421875q3.40625 -0.40625 5.015625 -0.96875q0.015625 -0.578125 0.015625 -0.734375q0 -1.71875 -0.796875 -2.421875q-1.078125 -0.953125 -3.203125 -0.953125q-1.984375 0 -2.9375 0.703125q-0.9375 0.6875 -1.390625 2.453125l-2.75 -0.375q0.375 -1.765625 1.234375 -2.84375q0.859375 -1.09375 2.484375 -1.671875q1.625 -0.59375 3.765625 -0.59375q2.125 0 3.453125 0.5q1.328125 0.5 1.953125 1.265625q0.625 0.75 0.875 1.90625q0.140625 0.71875 0.140625 2.59375l0 3.75q0 3.921875 0.171875 4.96875q0.1875 1.03125 0.71875 1.984375l-2.9375 0q-0.4375 -0.875 -0.5625 -2.046875zm-0.234375 -6.28125q-1.53125 0.625 -4.59375 1.0625q-1.734375 0.25 -2.453125 0.5625q-0.71875 0.3125 -1.109375 0.921875q-0.390625 0.59375 -0.390625 1.328125q0 1.125 0.84375 1.875q0.859375 0.75 2.5 0.75q1.625 0 2.890625 -0.703125q1.265625 -0.71875 1.859375 -1.953125q0.453125 -0.953125 0.453125 -2.8125l0 -1.03125zm13.34375 5.8125l0.40625 2.484375q-1.1875 0.25 -2.125 0.25q-1.53125 0 -2.375 -0.484375q-0.84375 -0.484375 -1.1875 -1.265625q-0.34375 -0.796875 -0.34375 -3.328125l0 -9.546875l-2.0625 0l0 -2.1875l2.0625 0l0 -4.109375l2.796875 -1.6875019l0 5.796877l2.828125 0l0 2.1875l-2.828125 0l0 9.703125q0 1.203125 0.140625 1.546875q0.15625 0.34375 0.484375 0.546875q0.34375 0.203125 0.96875 0.203125q0.46875 0 1.234375 -0.109375zm8.890625 0l0.40625 2.484375q-1.1875 0.25 -2.125 0.25q-1.53125 0 -2.375 -0.484375q-0.84375 -0.484375 -1.1875 -1.265625q-0.34375 -0.796875 -0.34375 -3.328125l0 -9.546875l-2.0625 0l0 -2.1875l2.0625 0l0 -4.109375l2.796875 -1.6875019l0 5.796877l2.828125 0l0 2.1875l-2.828125 0l0 9.703125q0 1.203125 0.140625 1.546875q0.15625 0.34375 0.484375 0.546875q0.34375 0.203125 0.96875 0.203125q0.46875 0 1.234375 -0.109375zm2.71875 2.515625l0 -16.59375l2.53125 0l0 2.515625q0.96875 -1.765625 1.78125 -2.328125q0.828125 -0.5625 1.8125 -0.5625q1.421875 0 2.890625 0.90625l-0.96875 2.609375q-1.03125 -0.609375 -2.0625 -0.609375q-0.921875 0 -1.65625 0.5625q-0.734375 0.546875 -1.046875 1.53125q-0.46875 1.5 -0.46875 3.28125l0 8.6875l-2.8125 0zm10.703117 -19.671875l0 -3.234377l2.8125 0l0 3.234377l-2.8125 0zm0 19.671875l0 -16.59375l2.8125 0l0 16.59375l-2.8125 0zm9.6875 0l-2.609375 0l0 -22.906252l2.8125 0l0 8.171877q1.78125 -2.234375 4.546875 -2.234375q1.53125 0 2.890625 0.625q1.375 0.609375 2.25 1.734375q0.890625 1.109375 1.390625 2.6875q0.5 1.578125 0.5 3.375q0 4.265625 -2.109375 6.59375q-2.109375 2.328125 -5.0625 2.328125q-2.9375 0 -4.609375 -2.453125l0 2.078125zm-0.03125 -8.421875q0 2.984375 0.8125 4.3125q1.328125 2.171875 3.59375 2.171875q1.84375 0 3.1875 -1.59375q1.34375 -1.609375 1.34375 -4.78125q0 -3.25 -1.296875 -4.796875q-1.28125 -1.546875 -3.109375 -1.546875q-1.84375 0 -3.1875 1.609375q-1.34375 1.59375 -1.34375 4.625zm26.109375 8.421875l0 -2.4375q-1.9375 2.8125 -5.265625 2.8125q-1.46875 0 -2.75 -0.5625q-1.265625 -0.5625 -1.890625 -1.40625q-0.609375 -0.859375 -0.859375 -2.09375q-0.171875 -0.828125 -0.171875 -2.625l0 -10.28125l2.8125 0l0 9.203125q0 2.203125 0.171875 2.96875q0.265625 1.109375 1.125 1.75q0.859375 0.625 2.125 0.625q1.265625 0 2.375 -0.640625q1.109375 -0.65625 1.5625 -1.765625q0.46875 -1.125 0.46875 -3.25l0 -8.890625l2.8125 0l0 16.59375l-2.515625 0zm13.0625 -2.515625l0.40625 2.484375q-1.1875 0.25 -2.125 0.25q-1.53125 0 -2.375 -0.484375q-0.84375 -0.484375 -1.1875 -1.265625q-0.34375 -0.796875 -0.34375 -3.328125l0 -9.546875l-2.0625 0l0 -2.1875l2.0625 0l0 -4.109375l2.796875 -1.6875019l0 5.796877l2.828125 0l0 2.1875l-2.828125 0l0 9.703125q0 1.203125 0.140625 1.546875q0.15625 0.34375 0.484375 0.546875q0.34375 0.203125 0.96875 0.203125q0.46875 0 1.234375 -0.109375zm14.109375 -2.828125l2.90625 0.359375q-0.6875 2.546875 -2.546875 3.953125q-1.859375 1.40625 -4.75 1.40625q-3.640625 0 -5.78125 -2.234375q-2.125 -2.25 -2.125 -6.296875q0 -4.1875 2.15625 -6.5q2.15625 -2.3125 5.59375 -2.3125q3.328125 0 5.4375 2.265625q2.109375 2.265625 2.109375 6.375q0 0.25 -0.015625 0.75l-12.375 0q0.15625 2.734375 1.546875 4.1875q1.390625 1.453125 3.46875 1.453125q1.546875 0 2.640625 -0.8125q1.09375 -0.8125 1.734375 -2.59375zm-9.234375 -4.546875l9.265625 0q-0.1875 -2.09375 -1.0625 -3.140625q-1.34375 -1.625 -3.484375 -1.625q-1.9375 0 -3.265625 1.296875q-1.3125 1.296875 -1.453125 3.46875zm24.5625 9.890625l0 -16.59375l2.53125 0l0 2.359375q1.828125 -2.734375 5.28125 -2.734375q1.5 0 2.75 0.546875q1.265625 0.53125 1.890625 1.40625q0.625 0.875 0.875 2.078125q0.15625 0.78125 0.15625 2.734375l0 10.203125l-2.8125 0l0 -10.09375q0 -1.71875 -0.328125 -2.5625q-0.328125 -0.859375 -1.171875 -1.359375q-0.828125 -0.515625 -1.953125 -0.515625q-1.796875 0 -3.109375 1.140625q-1.296875 1.140625 -1.296875 4.328125l0 9.0625l-2.8125 0zm28.625 -2.046875q-1.5625 1.328125 -3.015625 1.875q-1.4375 0.546875 -3.09375 0.546875q-2.734375 0 -4.203125 -1.328125q-1.46875 -1.34375 -1.46875 -3.421875q0 -1.21875 0.546875 -2.21875q0.5625 -1.015625 1.453125 -1.625q0.90625 -0.609375 2.03125 -0.921875q0.828125 -0.21875 2.5 -0.421875q3.40625 -0.40625 5.015625 -0.96875q0.015625 -0.578125 0.015625 -0.734375q0 -1.71875 -0.796875 -2.421875q-1.078125 -0.953125 -3.203125 -0.953125q-1.984375 0 -2.9375 0.703125q-0.9375 0.6875 -1.390625 2.453125l-2.75 -0.375q0.375 -1.765625 1.234375 -2.84375q0.859375 -1.09375 2.484375 -1.671875q1.625 -0.59375 3.765625 -0.59375q2.125 0 3.453125 0.5q1.328125 0.5 1.953125 1.265625q0.625 0.75 0.875 1.90625q0.140625 0.71875 0.140625 2.59375l0 3.75q0 3.921875 0.171875 4.96875q0.1875 1.03125 0.71875 1.984375l-2.9375 0q-0.4375 -0.875 -0.5625 -2.046875zm-0.234375 -6.28125q-1.53125 0.625 -4.59375 1.0625q-1.734375 0.25 -2.453125 0.5625q-0.71875 0.3125 -1.109375 0.921875q-0.390625 0.59375 -0.390625 1.328125q0 1.125 0.84375 1.875q0.859375 0.75 2.5 0.75q1.625 0 2.890625 -0.703125q1.265625 -0.71875 1.859375 -1.953125q0.453125 -0.953125 0.453125 -2.8125l0 -1.03125zm7.203125 8.328125l0 -16.59375l2.515625 0l0 2.328125q0.78125 -1.21875 2.078125 -1.953125q1.296875 -0.75 2.953125 -0.75q1.84375 0 3.015625 0.765625q1.1875 0.765625 1.671875 2.140625q1.9687653 -2.90625 5.1250153 -2.90625q2.46875 0 3.796875 1.375q1.328125 1.359375 1.328125 4.203125l0 11.390625l-2.796875 0l0 -10.453125q0 -1.6875 -0.28125 -2.421875q-0.265625 -0.75 -0.984375 -1.203125q-0.71875 -0.453125 -1.6875 -0.453125q-1.75 0 -2.90625 1.171875q-1.1562653 1.15625 -1.1562653 3.71875l0 9.640625l-2.8125 0l0 -10.78125q0 -1.875 -0.6875 -2.8125q-0.6875 -0.9375 -2.25 -0.9375q-1.1875 0 -2.203125 0.625q-1.0 0.625 -1.453125 1.828125q-0.453125 1.203125 -0.453125 3.46875l0 8.609375l-2.8125 0zm38.01564 -5.34375l2.90625 0.359375q-0.6875 2.546875 -2.546875 3.953125q-1.859375 1.40625 -4.75 1.40625q-3.640625 0 -5.78125 -2.234375q-2.125 -2.25 -2.125 -6.296875q0 -4.1875 2.15625 -6.5q2.15625 -2.3125 5.59375 -2.3125q3.328125 0 5.4375 2.265625q2.109375 2.265625 2.109375 6.375q0 0.25 -0.015625 0.75l-12.375 0q0.15625 2.734375 1.546875 4.1875q1.390625 1.453125 3.46875 1.453125q1.546875 0 2.640625 -0.8125q1.09375 -0.8125 1.734375 -2.59375zm-9.234375 -4.546875l9.265625 0q-0.1875 -2.09375 -1.0625 -3.140625q-1.34375 -1.625 -3.484375 -1.625q-1.9375 0 -3.265625 1.296875q-1.3125 1.296875 -1.453125 3.46875z" fill-rule="nonzero"/><path fill="#000000" fill-opacity="0.0" d="m238.25528 93.47726l0 0c0 -10.906532 -0.7367554 -19.748032 -1.6455994 -19.748032l-123.60643 0l0 0c-0.43644714 0 -0.855011 2.0805893 -1.16362 5.7840652c-0.308609 3.703476 -0.481987 8.726463 -0.481987 13.963966z" fill-rule="evenodd"/><path fill="#000000" fill-opacity="0.0" d="m238.25528 93.47726l0 0c0 -10.906532 -0.7367554 -19.748032 -1.6455994 -19.748032l-123.60643 0l0 0c-0.43644714 0 -0.855011 2.0805893 -1.16362 5.7840652c-0.308609 3.703476 -0.481987 8.726463 -0.481987 13.963966" fill-rule="evenodd"/><path stroke="#ff6633" stroke-width="3.0" stroke-linejoin="round" stroke-linecap="butt" d="m238.25528 93.47726l0 0c0 -10.906532 -0.7367554 -19.748032 -1.6455994 -19.748032l-123.60643 0l0 0c-0.43644714 0 -0.855011 2.0805893 -1.16362 5.7840652c-0.308609 3.703476 -0.481987 8.726463 -0.481987 13.963966" fill-rule="evenodd"/><path fill="#000000" fill-opacity="0.0" d="m198.69765 159.02701l254.45671 0l0 58.456696l-254.45671 0z" fill-rule="evenodd"/><path fill="#ff9900" d="m238.35568 196.70013q-1.5625 1.328125 -3.015625 1.875q-1.4375 0.546875 -3.09375 0.546875q-2.734375 0 -4.203125 -1.328125q-1.46875 -1.34375 -1.46875 -3.421875q0 -1.21875 0.546875 -2.21875q0.5625 -1.015625 1.453125 -1.625q0.90625 -0.609375 2.03125 -0.921875q0.828125 -0.21875 2.5 -0.421875q3.40625 -0.40625 5.015625 -0.96875q0.015625 -0.578125 0.015625 -0.734375q0 -1.71875 -0.796875 -2.421875q-1.078125 -0.953125 -3.203125 -0.953125q-1.984375 0 -2.9375 0.703125q-0.9375 0.6875 -1.390625 2.453125l-2.75 -0.375q0.375 -1.765625 1.234375 -2.84375q0.859375 -1.09375 2.484375 -1.671875q1.625 -0.59375 3.765625 -0.59375q2.125 0 3.453125 0.5q1.328125 0.5 1.953125 1.265625q0.625 0.75 0.875 1.90625q0.140625 0.71875 0.140625 2.59375l0 3.75q0 3.921875 0.171875 4.96875q0.1875 1.03125 0.71875 1.984375l-2.9375 0q-0.4375 -0.875 -0.5625 -2.046875zm-0.234375 -6.28125q-1.53125 0.625 -4.59375 1.0625q-1.734375 0.25 -2.453125 0.5625q-0.71875 0.3125 -1.109375 0.921875q-0.390625 0.59375 -0.390625 1.328125q0 1.125 0.84375 1.875q0.859375 0.75 2.5 0.75q1.625 0 2.890625 -0.703125q1.265625 -0.71875 1.859375 -1.953125q0.453125 -0.953125 0.453125 -2.8125l0 -1.03125zm13.34375 5.8125l0.40625 2.484375q-1.1875 0.25 -2.125 0.25q-1.53125 0 -2.375 -0.484375q-0.84375 -0.484375 -1.1875 -1.265625q-0.34375 -0.796875 -0.34375 -3.328125l0 -9.546875l-2.0625 0l0 -2.1875l2.0625 0l0 -4.109375l2.796875 -1.6875l0 5.796875l2.828125 0l0 2.1875l-2.828125 0l0 9.703125q0 1.203125 0.140625 1.546875q0.15625 0.34375 0.484375 0.546875q0.34375 0.203125 0.96875 0.203125q0.46875 0 1.234375 -0.109375zm8.890625 0l0.40625 2.484375q-1.1875 0.25 -2.125 0.25q-1.53125 0 -2.375 -0.484375q-0.84375 -0.484375 -1.1875 -1.265625q-0.34375 -0.796875 -0.34375 -3.328125l0 -9.546875l-2.0625 0l0 -2.1875l2.0625 0l0 -4.109375l2.796875 -1.6875l0 5.796875l2.828125 0l0 2.1875l-2.828125 0l0 9.703125q0 1.203125 0.140625 1.546875q0.15625 0.34375 0.484375 0.546875q0.34375 0.203125 0.96875 0.203125q0.46875 0 1.234375 -0.109375zm2.71875 2.515625l0 -16.59375l2.53125 0l0 2.515625q0.96875 -1.765625 1.78125 -2.328125q0.828125 -0.5625 1.8125 -0.5625q1.421875 0 2.890625 0.90625l-0.96875 2.609375q-1.03125 -0.609375 -2.0625 -0.609375q-0.921875 0 -1.65625 0.5625q-0.734375 0.546875 -1.046875 1.53125q-0.46875 1.5 -0.46875 3.28125l0 8.6875l-2.8125 0zm10.703125 -19.671875l0 -3.234375l2.8125 0l0 3.234375l-2.8125 0zm0 19.671875l0 -16.59375l2.8125 0l0 16.59375l-2.8125 0zm9.6875 0l-2.609375 0l0 -22.90625l2.8125 0l0 8.171875q1.78125 -2.234375 4.546875 -2.234375q1.53125 0 2.890625 0.625q1.375 0.609375 2.25 1.734375q0.890625 1.109375 1.390625 2.6875q0.5 1.578125 0.5 3.375q0 4.265625 -2.109375 6.59375q-2.109375 2.328125 -5.0625 2.328125q-2.9375 0 -4.609375 -2.453125l0 2.078125zm-0.03125 -8.421875q0 2.984375 0.8125 4.3125q1.328125 2.171875 3.59375 2.171875q1.84375 0 3.1875 -1.59375q1.34375 -1.609375 1.34375 -4.78125q0 -3.25 -1.296875 -4.796875q-1.28125 -1.546875 -3.109375 -1.546875q-1.84375 0 -3.1875 1.609375q-1.34375 1.59375 -1.34375 4.625zm26.109375 8.421875l0 -2.4375q-1.9375 2.8125 -5.265625 2.8125q-1.46875 0 -2.75 -0.5625q-1.265625 -0.5625 -1.890625 -1.40625q-0.609375 -0.859375 -0.859375 -2.09375q-0.171875 -0.828125 -0.171875 -2.625l0 -10.28125l2.8125 0l0 9.203125q0 2.203125 0.171875 2.96875q0.265625 1.109375 1.125 1.75q0.859375 0.625 2.125 0.625q1.265625 0 2.375 -0.640625q1.109375 -0.65625 1.5625 -1.765625q0.46875 -1.125 0.46875 -3.25l0 -8.890625l2.8125 0l0 16.59375l-2.515625 0zm13.0625 -2.515625l0.40625 2.484375q-1.1875 0.25 -2.125 0.25q-1.53125 0 -2.375 -0.484375q-0.84375 -0.484375 -1.1875 -1.265625q-0.34375 -0.796875 -0.34375 -3.328125l0 -9.546875l-2.0625 0l0 -2.1875l2.0625 0l0 -4.109375l2.796875 -1.6875l0 5.796875l2.828125 0l0 2.1875l-2.828125 0l0 9.703125q0 1.203125 0.140625 1.546875q0.15625 0.34375 0.484375 0.546875q0.34375 0.203125 0.96875 0.203125q0.46875 0 1.234375 -0.109375zm14.109375 -2.828125l2.90625 0.359375q-0.6875 2.546875 -2.546875 3.953125q-1.859375 1.40625 -4.75 1.40625q-3.640625 0 -5.78125 -2.234375q-2.125 -2.25 -2.125 -6.296875q0 -4.1875 2.15625 -6.5q2.15625 -2.3125 5.59375 -2.3125q3.328125 0 5.4375 2.265625q2.109375 2.265625 2.109375 6.375q0 0.25 -0.015625 0.75l-12.375 0q0.15625 2.734375 1.546875 4.1875q1.390625 1.453125 3.46875 1.453125q1.546875 0 2.640625 -0.8125q1.09375 -0.8125 1.734375 -2.59375zm-9.234375 -4.546875l9.265625 0q-0.1875 -2.09375 -1.0625 -3.140625q-1.34375 -1.625 -3.484375 -1.625q-1.9375 0 -3.265625 1.296875q-1.3125 1.296875 -1.453125 3.46875zm29.171875 9.890625l-6.3125 -16.59375l2.96875 0l3.5625 9.9375q0.578125 1.609375 1.0625 3.34375q0.375 -1.3125 1.046875 -3.15625l3.6875 -10.125l2.890625 0l-6.28125 16.59375l-2.625 0zm22.21875 -2.046875q-1.5625 1.328125 -3.015625 1.875q-1.4375 0.546875 -3.09375 0.546875q-2.734375 0 -4.203125 -1.328125q-1.46875 -1.34375 -1.46875 -3.421875q0 -1.21875 0.546875 -2.21875q0.5625 -1.015625 1.453125 -1.625q0.90625 -0.609375 2.03125 -0.921875q0.828125 -0.21875 2.5 -0.421875q3.40625 -0.40625 5.015625 -0.96875q0.015625 -0.578125 0.015625 -0.734375q0 -1.71875 -0.796875 -2.421875q-1.078125 -0.953125 -3.203125 -0.953125q-1.984375 0 -2.9375 0.703125q-0.9375 0.6875 -1.390625 2.453125l-2.75 -0.375q0.375 -1.765625 1.234375 -2.84375q0.859375 -1.09375 2.484375 -1.671875q1.625 -0.59375 3.765625 -0.59375q2.125 0 3.453125 0.5q1.328125 0.5 1.953125 1.265625q0.625 0.75 0.875 1.90625q0.140625 0.71875 0.140625 2.59375l0 3.75q0 3.921875 0.171875 4.96875q0.1875 1.03125 0.71875 1.984375l-2.9375 0q-0.4375 -0.875 -0.5625 -2.046875zm-0.234375 -6.28125q-1.53125 0.625 -4.59375 1.0625q-1.734375 0.25 -2.453125 0.5625q-0.71875 0.3125 -1.109375 0.921875q-0.390625 0.59375 -0.390625 1.328125q0 1.125 0.84375 1.875q0.859375 0.75 2.5 0.75q1.625 0 2.890625 -0.703125q1.265625 -0.71875 1.859375 -1.953125q0.453125 -0.953125 0.453125 -2.8125l0 -1.03125zm7.140625 8.328125l0 -22.90625l2.8125 0l0 22.90625l-2.8125 0zm18.046875 0l0 -2.4375q-1.9375 2.8125 -5.265625 2.8125q-1.46875 0 -2.75 -0.5625q-1.265625 -0.5625 -1.890625 -1.40625q-0.609375 -0.859375 -0.859375 -2.09375q-0.171875 -0.828125 -0.171875 -2.625l0 -10.28125l2.8125 0l0 9.203125q0 2.203125 0.171875 2.96875q0.265625 1.109375 1.125 1.75q0.859375 0.625 2.125 0.625q1.265625 0 2.375 -0.640625q1.109375 -0.65625 1.5625 -1.765625q0.46875 -1.125 0.46875 -3.25l0 -8.890625l2.8125 0l0 16.59375l-2.515625 0zm18.28125 -5.34375l2.90625 0.359375q-0.6875 2.546875 -2.546875 3.953125q-1.859375 1.40625 -4.75 1.40625q-3.640625 0 -5.78125 -2.234375q-2.125 -2.25 -2.125 -6.296875q0 -4.1875 2.15625 -6.5q2.15625 -2.3125 5.59375 -2.3125q3.328125 0 5.4375 2.265625q2.109375 2.265625 2.109375 6.375q0 0.25 -0.015625 0.75l-12.375 0q0.15625 2.734375 1.546875 4.1875q1.390625 1.453125 3.46875 1.453125q1.546875 0 2.640625 -0.8125q1.09375 -0.8125 1.734375 -2.59375zm-9.234375 -4.546875l9.265625 0q-0.1875 -2.09375 -1.0625 -3.140625q-1.34375 -1.625 -3.484375 -1.625q-1.9375 0 -3.265625 1.296875q-1.3125 1.296875 -1.453125 3.46875z" fill-rule="nonzero"/><path fill="#000000" fill-opacity="0.0" d="m380.37534 140.82896l0 0c0 10.262924 -0.6932678 18.582672 -1.5484924 18.582672l-110.69827 0l0 0c-0.41067505 0 -0.8045654 -1.9578094 -1.0949402 -5.442734c-0.29040527 -3.4849243 -0.45355225 -8.211502 -0.45355225 -13.139938z" fill-rule="evenodd"/><path fill="#000000" fill-opacity="0.0" d="m380.37534 140.82896l0 0c0 10.262924 -0.6932678 18.582672 -1.5484924 18.582672l-110.69827 0l0 0c-0.41067505 0 -0.8045654 -1.9578094 -1.0949402 -5.442734c-0.29040527 -3.4849243 -0.45355225 -8.211502 -0.45355225 -13.139938" fill-rule="evenodd"/><path stroke="#ff9900" stroke-width="3.0" stroke-linejoin="round" stroke-linecap="butt" d="m380.37534 140.82896l0 0c0 10.262924 -0.6932678 18.582672 -1.5484924 18.582672l-110.69827 0l0 0c-0.41067505 0 -0.8045654 -1.9578094 -1.0949402 -5.442734c-0.29040527 -3.4849243 -0.45355225 -8.211502 -0.45355225 -13.139938" fill-rule="evenodd"/></g></svg>